<?xml version="1.0" encoding="utf-8" standalone="no"?>
<!DOCTYPE svg PUBLIC "-//W3C//DTD SVG 1.1//EN"
  "http://www.w3.org/Graphics/SVG/1.1/DTD/svg11.dtd">
<svg xmlns:xlink="http://www.w3.org/1999/xlink" width="1051.311875pt" height="206.409375pt" viewBox="0 0 1051.311875 206.409375" xmlns="http://www.w3.org/2000/svg" version="1.1">
 <metadata>
  <rdf:RDF xmlns:dc="http://purl.org/dc/elements/1.1/" xmlns:cc="http://creativecommons.org/ns#" xmlns:rdf="http://www.w3.org/1999/02/22-rdf-syntax-ns#">
   <cc:Work>
    <dc:type rdf:resource="http://purl.org/dc/dcmitype/StillImage"/>
    <dc:date>2023-01-19T14:55:56.073374</dc:date>
    <dc:format>image/svg+xml</dc:format>
    <dc:creator>
     <cc:Agent>
      <dc:title>Matplotlib v3.6.0, https://matplotlib.org/</dc:title>
     </cc:Agent>
    </dc:creator>
   </cc:Work>
  </rdf:RDF>
 </metadata>
 <defs>
  <style type="text/css">*{stroke-linejoin: round; stroke-linecap: butt}</style>
 </defs>
 <g id="figure_1">
  <g id="patch_1">
   <path d="M 0 206.409375 
L 1051.311875 206.409375 
L 1051.311875 0 
L 0 0 
L 0 206.409375 
z
" style="fill: none"/>
  </g>
  <g id="axes_1">
   <g id="patch_2">
    <path d="M 41.871875 182.16 
L 336.648346 182.16 
L 336.648346 7.2 
L 41.871875 7.2 
L 41.871875 182.16 
z
" style="fill: none"/>
   </g>
   <g id="matplotlib.axis_1">
    <g id="xtick_1">
     <g id="line2d_1">
      <path d="M 55.270805 182.16 
L 55.270805 7.2 
" clip-path="url(#p44036b3219)" style="fill: none; stroke: #cbcbcb"/>
     </g>
     <g id="line2d_2"/>
     <g id="text_1">
      <!-- 0 -->
      <g transform="translate(50.817055 196.297813) scale(0.14 -0.14)">
       <defs>
        <path id="DejaVuSans-30" d="M 2034 4250 
Q 1547 4250 1301 3770 
Q 1056 3291 1056 2328 
Q 1056 1369 1301 889 
Q 1547 409 2034 409 
Q 2525 409 2770 889 
Q 3016 1369 3016 2328 
Q 3016 3291 2770 3770 
Q 2525 4250 2034 4250 
z
M 2034 4750 
Q 2819 4750 3233 4129 
Q 3647 3509 3647 2328 
Q 3647 1150 3233 529 
Q 2819 -91 2034 -91 
Q 1250 -91 836 529 
Q 422 1150 422 2328 
Q 422 3509 836 4129 
Q 1250 4750 2034 4750 
z
" transform="scale(0.015625)"/>
       </defs>
       <use xlink:href="#DejaVuSans-30"/>
      </g>
     </g>
    </g>
    <g id="xtick_2">
     <g id="line2d_3">
      <path d="M 107.712803 182.16 
L 107.712803 7.2 
" clip-path="url(#p44036b3219)" style="fill: none; stroke: #cbcbcb"/>
     </g>
     <g id="line2d_4"/>
     <g id="text_2">
      <!-- 100 -->
      <g transform="translate(94.351553 196.297813) scale(0.14 -0.14)">
       <defs>
        <path id="DejaVuSans-31" d="M 794 531 
L 1825 531 
L 1825 4091 
L 703 3866 
L 703 4441 
L 1819 4666 
L 2450 4666 
L 2450 531 
L 3481 531 
L 3481 0 
L 794 0 
L 794 531 
z
" transform="scale(0.015625)"/>
       </defs>
       <use xlink:href="#DejaVuSans-31"/>
       <use xlink:href="#DejaVuSans-30" x="63.623047"/>
       <use xlink:href="#DejaVuSans-30" x="127.246094"/>
      </g>
     </g>
    </g>
    <g id="xtick_3">
     <g id="line2d_5">
      <path d="M 160.154801 182.16 
L 160.154801 7.2 
" clip-path="url(#p44036b3219)" style="fill: none; stroke: #cbcbcb"/>
     </g>
     <g id="line2d_6"/>
     <g id="text_3">
      <!-- 200 -->
      <g transform="translate(146.793551 196.297813) scale(0.14 -0.14)">
       <defs>
        <path id="DejaVuSans-32" d="M 1228 531 
L 3431 531 
L 3431 0 
L 469 0 
L 469 531 
Q 828 903 1448 1529 
Q 2069 2156 2228 2338 
Q 2531 2678 2651 2914 
Q 2772 3150 2772 3378 
Q 2772 3750 2511 3984 
Q 2250 4219 1831 4219 
Q 1534 4219 1204 4116 
Q 875 4013 500 3803 
L 500 4441 
Q 881 4594 1212 4672 
Q 1544 4750 1819 4750 
Q 2544 4750 2975 4387 
Q 3406 4025 3406 3419 
Q 3406 3131 3298 2873 
Q 3191 2616 2906 2266 
Q 2828 2175 2409 1742 
Q 1991 1309 1228 531 
z
" transform="scale(0.015625)"/>
       </defs>
       <use xlink:href="#DejaVuSans-32"/>
       <use xlink:href="#DejaVuSans-30" x="63.623047"/>
       <use xlink:href="#DejaVuSans-30" x="127.246094"/>
      </g>
     </g>
    </g>
    <g id="xtick_4">
     <g id="line2d_7">
      <path d="M 212.596799 182.16 
L 212.596799 7.2 
" clip-path="url(#p44036b3219)" style="fill: none; stroke: #cbcbcb"/>
     </g>
     <g id="line2d_8"/>
     <g id="text_4">
      <!-- 300 -->
      <g transform="translate(199.235549 196.297813) scale(0.14 -0.14)">
       <defs>
        <path id="DejaVuSans-33" d="M 2597 2516 
Q 3050 2419 3304 2112 
Q 3559 1806 3559 1356 
Q 3559 666 3084 287 
Q 2609 -91 1734 -91 
Q 1441 -91 1130 -33 
Q 819 25 488 141 
L 488 750 
Q 750 597 1062 519 
Q 1375 441 1716 441 
Q 2309 441 2620 675 
Q 2931 909 2931 1356 
Q 2931 1769 2642 2001 
Q 2353 2234 1838 2234 
L 1294 2234 
L 1294 2753 
L 1863 2753 
Q 2328 2753 2575 2939 
Q 2822 3125 2822 3475 
Q 2822 3834 2567 4026 
Q 2313 4219 1838 4219 
Q 1578 4219 1281 4162 
Q 984 4106 628 3988 
L 628 4550 
Q 988 4650 1302 4700 
Q 1616 4750 1894 4750 
Q 2613 4750 3031 4423 
Q 3450 4097 3450 3541 
Q 3450 3153 3228 2886 
Q 3006 2619 2597 2516 
z
" transform="scale(0.015625)"/>
       </defs>
       <use xlink:href="#DejaVuSans-33"/>
       <use xlink:href="#DejaVuSans-30" x="63.623047"/>
       <use xlink:href="#DejaVuSans-30" x="127.246094"/>
      </g>
     </g>
    </g>
    <g id="xtick_5">
     <g id="line2d_9">
      <path d="M 265.038797 182.16 
L 265.038797 7.2 
" clip-path="url(#p44036b3219)" style="fill: none; stroke: #cbcbcb"/>
     </g>
     <g id="line2d_10"/>
     <g id="text_5">
      <!-- 400 -->
      <g transform="translate(251.677547 196.297813) scale(0.14 -0.14)">
       <defs>
        <path id="DejaVuSans-34" d="M 2419 4116 
L 825 1625 
L 2419 1625 
L 2419 4116 
z
M 2253 4666 
L 3047 4666 
L 3047 1625 
L 3713 1625 
L 3713 1100 
L 3047 1100 
L 3047 0 
L 2419 0 
L 2419 1100 
L 313 1100 
L 313 1709 
L 2253 4666 
z
" transform="scale(0.015625)"/>
       </defs>
       <use xlink:href="#DejaVuSans-34"/>
       <use xlink:href="#DejaVuSans-30" x="63.623047"/>
       <use xlink:href="#DejaVuSans-30" x="127.246094"/>
      </g>
     </g>
    </g>
    <g id="xtick_6">
     <g id="line2d_11">
      <path d="M 317.480795 182.16 
L 317.480795 7.2 
" clip-path="url(#p44036b3219)" style="fill: none; stroke: #cbcbcb"/>
     </g>
     <g id="line2d_12"/>
     <g id="text_6">
      <!-- 500 -->
      <g transform="translate(304.119545 196.297813) scale(0.14 -0.14)">
       <defs>
        <path id="DejaVuSans-35" d="M 691 4666 
L 3169 4666 
L 3169 4134 
L 1269 4134 
L 1269 2991 
Q 1406 3038 1543 3061 
Q 1681 3084 1819 3084 
Q 2600 3084 3056 2656 
Q 3513 2228 3513 1497 
Q 3513 744 3044 326 
Q 2575 -91 1722 -91 
Q 1428 -91 1123 -41 
Q 819 9 494 109 
L 494 744 
Q 775 591 1075 516 
Q 1375 441 1709 441 
Q 2250 441 2565 725 
Q 2881 1009 2881 1497 
Q 2881 1984 2565 2268 
Q 2250 2553 1709 2553 
Q 1456 2553 1204 2497 
Q 953 2441 691 2322 
L 691 4666 
z
" transform="scale(0.015625)"/>
       </defs>
       <use xlink:href="#DejaVuSans-35"/>
       <use xlink:href="#DejaVuSans-30" x="63.623047"/>
       <use xlink:href="#DejaVuSans-30" x="127.246094"/>
      </g>
     </g>
    </g>
   </g>
   <g id="matplotlib.axis_2">
    <g id="ytick_1">
     <g id="line2d_13">
      <path d="M 41.871875 174.207273 
L 336.648346 174.207273 
" clip-path="url(#p44036b3219)" style="fill: none; stroke: #cbcbcb"/>
     </g>
     <g id="line2d_14"/>
     <g id="text_7">
      <!-- 0.00 -->
      <g transform="translate(7.2 179.526179) scale(0.14 -0.14)">
       <defs>
        <path id="DejaVuSans-2e" d="M 684 794 
L 1344 794 
L 1344 0 
L 684 0 
L 684 794 
z
" transform="scale(0.015625)"/>
       </defs>
       <use xlink:href="#DejaVuSans-30"/>
       <use xlink:href="#DejaVuSans-2e" x="63.623047"/>
       <use xlink:href="#DejaVuSans-30" x="95.410156"/>
       <use xlink:href="#DejaVuSans-30" x="159.033203"/>
      </g>
     </g>
    </g>
    <g id="ytick_2">
     <g id="line2d_15">
      <path d="M 41.871875 136.696144 
L 336.648346 136.696144 
" clip-path="url(#p44036b3219)" style="fill: none; stroke: #cbcbcb"/>
     </g>
     <g id="line2d_16"/>
     <g id="text_8">
      <!-- 0.02 -->
      <g transform="translate(7.2 142.01505) scale(0.14 -0.14)">
       <use xlink:href="#DejaVuSans-30"/>
       <use xlink:href="#DejaVuSans-2e" x="63.623047"/>
       <use xlink:href="#DejaVuSans-30" x="95.410156"/>
       <use xlink:href="#DejaVuSans-32" x="159.033203"/>
      </g>
     </g>
    </g>
    <g id="ytick_3">
     <g id="line2d_17">
      <path d="M 41.871875 99.185015 
L 336.648346 99.185015 
" clip-path="url(#p44036b3219)" style="fill: none; stroke: #cbcbcb"/>
     </g>
     <g id="line2d_18"/>
     <g id="text_9">
      <!-- 0.04 -->
      <g transform="translate(7.2 104.503922) scale(0.14 -0.14)">
       <use xlink:href="#DejaVuSans-30"/>
       <use xlink:href="#DejaVuSans-2e" x="63.623047"/>
       <use xlink:href="#DejaVuSans-30" x="95.410156"/>
       <use xlink:href="#DejaVuSans-34" x="159.033203"/>
      </g>
     </g>
    </g>
    <g id="ytick_4">
     <g id="line2d_19">
      <path d="M 41.871875 61.673887 
L 336.648346 61.673887 
" clip-path="url(#p44036b3219)" style="fill: none; stroke: #cbcbcb"/>
     </g>
     <g id="line2d_20"/>
     <g id="text_10">
      <!-- 0.06 -->
      <g transform="translate(7.2 66.992793) scale(0.14 -0.14)">
       <defs>
        <path id="DejaVuSans-36" d="M 2113 2584 
Q 1688 2584 1439 2293 
Q 1191 2003 1191 1497 
Q 1191 994 1439 701 
Q 1688 409 2113 409 
Q 2538 409 2786 701 
Q 3034 994 3034 1497 
Q 3034 2003 2786 2293 
Q 2538 2584 2113 2584 
z
M 3366 4563 
L 3366 3988 
Q 3128 4100 2886 4159 
Q 2644 4219 2406 4219 
Q 1781 4219 1451 3797 
Q 1122 3375 1075 2522 
Q 1259 2794 1537 2939 
Q 1816 3084 2150 3084 
Q 2853 3084 3261 2657 
Q 3669 2231 3669 1497 
Q 3669 778 3244 343 
Q 2819 -91 2113 -91 
Q 1303 -91 875 529 
Q 447 1150 447 2328 
Q 447 3434 972 4092 
Q 1497 4750 2381 4750 
Q 2619 4750 2861 4703 
Q 3103 4656 3366 4563 
z
" transform="scale(0.015625)"/>
       </defs>
       <use xlink:href="#DejaVuSans-30"/>
       <use xlink:href="#DejaVuSans-2e" x="63.623047"/>
       <use xlink:href="#DejaVuSans-30" x="95.410156"/>
       <use xlink:href="#DejaVuSans-36" x="159.033203"/>
      </g>
     </g>
    </g>
    <g id="ytick_5">
     <g id="line2d_21">
      <path d="M 41.871875 24.162758 
L 336.648346 24.162758 
" clip-path="url(#p44036b3219)" style="fill: none; stroke: #cbcbcb"/>
     </g>
     <g id="line2d_22"/>
     <g id="text_11">
      <!-- 0.08 -->
      <g transform="translate(7.2 29.481664) scale(0.14 -0.14)">
       <defs>
        <path id="DejaVuSans-38" d="M 2034 2216 
Q 1584 2216 1326 1975 
Q 1069 1734 1069 1313 
Q 1069 891 1326 650 
Q 1584 409 2034 409 
Q 2484 409 2743 651 
Q 3003 894 3003 1313 
Q 3003 1734 2745 1975 
Q 2488 2216 2034 2216 
z
M 1403 2484 
Q 997 2584 770 2862 
Q 544 3141 544 3541 
Q 544 4100 942 4425 
Q 1341 4750 2034 4750 
Q 2731 4750 3128 4425 
Q 3525 4100 3525 3541 
Q 3525 3141 3298 2862 
Q 3072 2584 2669 2484 
Q 3125 2378 3379 2068 
Q 3634 1759 3634 1313 
Q 3634 634 3220 271 
Q 2806 -91 2034 -91 
Q 1263 -91 848 271 
Q 434 634 434 1313 
Q 434 1759 690 2068 
Q 947 2378 1403 2484 
z
M 1172 3481 
Q 1172 3119 1398 2916 
Q 1625 2713 2034 2713 
Q 2441 2713 2670 2916 
Q 2900 3119 2900 3481 
Q 2900 3844 2670 4047 
Q 2441 4250 2034 4250 
Q 1625 4250 1398 4047 
Q 1172 3844 1172 3481 
z
" transform="scale(0.015625)"/>
       </defs>
       <use xlink:href="#DejaVuSans-30"/>
       <use xlink:href="#DejaVuSans-2e" x="63.623047"/>
       <use xlink:href="#DejaVuSans-30" x="95.410156"/>
       <use xlink:href="#DejaVuSans-38" x="159.033203"/>
      </g>
     </g>
    </g>
   </g>
   <g id="line2d_23">
    <path d="M 55.270805 15.152727 
L 188.9979 15.152727 
L 189.52232 174.207273 
L 323.249415 174.207273 
L 323.249415 174.207273 
" clip-path="url(#p44036b3219)" style="fill: none; stroke: #008fd5; stroke-width: 4"/>
   </g>
   <g id="patch_3">
    <path d="M 41.871875 182.16 
L 41.871875 7.2 
" style="fill: none; stroke: #f0f0f0; stroke-width: 3; stroke-linejoin: miter; stroke-linecap: square"/>
   </g>
   <g id="patch_4">
    <path d="M 336.648346 182.16 
L 336.648346 7.2 
" style="fill: none; stroke: #f0f0f0; stroke-width: 3; stroke-linejoin: miter; stroke-linecap: square"/>
   </g>
   <g id="patch_5">
    <path d="M 41.871875 182.16 
L 336.648346 182.16 
" style="fill: none; stroke: #f0f0f0; stroke-width: 3; stroke-linejoin: miter; stroke-linecap: square"/>
   </g>
   <g id="patch_6">
    <path d="M 41.871875 7.2 
L 336.648346 7.2 
" style="fill: none; stroke: #f0f0f0; stroke-width: 3; stroke-linejoin: miter; stroke-linecap: square"/>
   </g>
   <g id="legend_1">
    <g id="patch_7">
     <path d="M 218.882096 38.949375 
L 326.848346 38.949375 
Q 329.648346 38.949375 329.648346 36.149375 
L 329.648346 17 
Q 329.648346 14.2 326.848346 14.2 
L 218.882096 14.2 
Q 216.082096 14.2 216.082096 17 
L 216.082096 36.149375 
Q 216.082096 38.949375 218.882096 38.949375 
z
" style="fill: #f0f0f0; opacity: 0.8; stroke: #cccccc; stroke-width: 0.5; stroke-linejoin: miter"/>
    </g>
    <g id="line2d_24">
     <path d="M 221.682096 25.537813 
L 235.682096 25.537813 
L 249.682096 25.537813 
" style="fill: none; stroke: #008fd5; stroke-width: 4"/>
    </g>
    <g id="text_12">
     <!-- accuracy -->
     <g transform="translate(260.882096 30.437813) scale(0.14 -0.14)">
      <defs>
       <path id="DejaVuSans-61" d="M 2194 1759 
Q 1497 1759 1228 1600 
Q 959 1441 959 1056 
Q 959 750 1161 570 
Q 1363 391 1709 391 
Q 2188 391 2477 730 
Q 2766 1069 2766 1631 
L 2766 1759 
L 2194 1759 
z
M 3341 1997 
L 3341 0 
L 2766 0 
L 2766 531 
Q 2569 213 2275 61 
Q 1981 -91 1556 -91 
Q 1019 -91 701 211 
Q 384 513 384 1019 
Q 384 1609 779 1909 
Q 1175 2209 1959 2209 
L 2766 2209 
L 2766 2266 
Q 2766 2663 2505 2880 
Q 2244 3097 1772 3097 
Q 1472 3097 1187 3025 
Q 903 2953 641 2809 
L 641 3341 
Q 956 3463 1253 3523 
Q 1550 3584 1831 3584 
Q 2591 3584 2966 3190 
Q 3341 2797 3341 1997 
z
" transform="scale(0.015625)"/>
       <path id="DejaVuSans-63" d="M 3122 3366 
L 3122 2828 
Q 2878 2963 2633 3030 
Q 2388 3097 2138 3097 
Q 1578 3097 1268 2742 
Q 959 2388 959 1747 
Q 959 1106 1268 751 
Q 1578 397 2138 397 
Q 2388 397 2633 464 
Q 2878 531 3122 666 
L 3122 134 
Q 2881 22 2623 -34 
Q 2366 -91 2075 -91 
Q 1284 -91 818 406 
Q 353 903 353 1747 
Q 353 2603 823 3093 
Q 1294 3584 2113 3584 
Q 2378 3584 2631 3529 
Q 2884 3475 3122 3366 
z
" transform="scale(0.015625)"/>
       <path id="DejaVuSans-75" d="M 544 1381 
L 544 3500 
L 1119 3500 
L 1119 1403 
Q 1119 906 1312 657 
Q 1506 409 1894 409 
Q 2359 409 2629 706 
Q 2900 1003 2900 1516 
L 2900 3500 
L 3475 3500 
L 3475 0 
L 2900 0 
L 2900 538 
Q 2691 219 2414 64 
Q 2138 -91 1772 -91 
Q 1169 -91 856 284 
Q 544 659 544 1381 
z
M 1991 3584 
L 1991 3584 
z
" transform="scale(0.015625)"/>
       <path id="DejaVuSans-72" d="M 2631 2963 
Q 2534 3019 2420 3045 
Q 2306 3072 2169 3072 
Q 1681 3072 1420 2755 
Q 1159 2438 1159 1844 
L 1159 0 
L 581 0 
L 581 3500 
L 1159 3500 
L 1159 2956 
Q 1341 3275 1631 3429 
Q 1922 3584 2338 3584 
Q 2397 3584 2469 3576 
Q 2541 3569 2628 3553 
L 2631 2963 
z
" transform="scale(0.015625)"/>
       <path id="DejaVuSans-79" d="M 2059 -325 
Q 1816 -950 1584 -1140 
Q 1353 -1331 966 -1331 
L 506 -1331 
L 506 -850 
L 844 -850 
Q 1081 -850 1212 -737 
Q 1344 -625 1503 -206 
L 1606 56 
L 191 3500 
L 800 3500 
L 1894 763 
L 2988 3500 
L 3597 3500 
L 2059 -325 
z
" transform="scale(0.015625)"/>
      </defs>
      <use xlink:href="#DejaVuSans-61"/>
      <use xlink:href="#DejaVuSans-63" x="61.279297"/>
      <use xlink:href="#DejaVuSans-63" x="116.259766"/>
      <use xlink:href="#DejaVuSans-75" x="171.240234"/>
      <use xlink:href="#DejaVuSans-72" x="234.619141"/>
      <use xlink:href="#DejaVuSans-61" x="275.732422"/>
      <use xlink:href="#DejaVuSans-63" x="337.011719"/>
      <use xlink:href="#DejaVuSans-79" x="391.992188"/>
     </g>
    </g>
   </g>
  </g>
  <g id="axes_2">
   <g id="patch_8">
    <path d="M 395.60364 182.16 
L 690.38011 182.16 
L 690.38011 7.2 
L 395.60364 7.2 
L 395.60364 182.16 
z
" style="fill: none"/>
   </g>
   <g id="matplotlib.axis_3">
    <g id="xtick_7">
     <g id="line2d_25">
      <path d="M 409.00257 182.16 
L 409.00257 7.2 
" clip-path="url(#pfa7e620972)" style="fill: none; stroke: #cbcbcb"/>
     </g>
     <g id="line2d_26"/>
     <g id="text_13">
      <!-- 0 -->
      <g transform="translate(404.54882 196.297813) scale(0.14 -0.14)">
       <use xlink:href="#DejaVuSans-30"/>
      </g>
     </g>
    </g>
    <g id="xtick_8">
     <g id="line2d_27">
      <path d="M 461.444568 182.16 
L 461.444568 7.2 
" clip-path="url(#pfa7e620972)" style="fill: none; stroke: #cbcbcb"/>
     </g>
     <g id="line2d_28"/>
     <g id="text_14">
      <!-- 100 -->
      <g transform="translate(448.083318 196.297813) scale(0.14 -0.14)">
       <use xlink:href="#DejaVuSans-31"/>
       <use xlink:href="#DejaVuSans-30" x="63.623047"/>
       <use xlink:href="#DejaVuSans-30" x="127.246094"/>
      </g>
     </g>
    </g>
    <g id="xtick_9">
     <g id="line2d_29">
      <path d="M 513.886566 182.16 
L 513.886566 7.2 
" clip-path="url(#pfa7e620972)" style="fill: none; stroke: #cbcbcb"/>
     </g>
     <g id="line2d_30"/>
     <g id="text_15">
      <!-- 200 -->
      <g transform="translate(500.525316 196.297813) scale(0.14 -0.14)">
       <use xlink:href="#DejaVuSans-32"/>
       <use xlink:href="#DejaVuSans-30" x="63.623047"/>
       <use xlink:href="#DejaVuSans-30" x="127.246094"/>
      </g>
     </g>
    </g>
    <g id="xtick_10">
     <g id="line2d_31">
      <path d="M 566.328564 182.16 
L 566.328564 7.2 
" clip-path="url(#pfa7e620972)" style="fill: none; stroke: #cbcbcb"/>
     </g>
     <g id="line2d_32"/>
     <g id="text_16">
      <!-- 300 -->
      <g transform="translate(552.967314 196.297813) scale(0.14 -0.14)">
       <use xlink:href="#DejaVuSans-33"/>
       <use xlink:href="#DejaVuSans-30" x="63.623047"/>
       <use xlink:href="#DejaVuSans-30" x="127.246094"/>
      </g>
     </g>
    </g>
    <g id="xtick_11">
     <g id="line2d_33">
      <path d="M 618.770562 182.16 
L 618.770562 7.2 
" clip-path="url(#pfa7e620972)" style="fill: none; stroke: #cbcbcb"/>
     </g>
     <g id="line2d_34"/>
     <g id="text_17">
      <!-- 400 -->
      <g transform="translate(605.409312 196.297813) scale(0.14 -0.14)">
       <use xlink:href="#DejaVuSans-34"/>
       <use xlink:href="#DejaVuSans-30" x="63.623047"/>
       <use xlink:href="#DejaVuSans-30" x="127.246094"/>
      </g>
     </g>
    </g>
    <g id="xtick_12">
     <g id="line2d_35">
      <path d="M 671.21256 182.16 
L 671.21256 7.2 
" clip-path="url(#pfa7e620972)" style="fill: none; stroke: #cbcbcb"/>
     </g>
     <g id="line2d_36"/>
     <g id="text_18">
      <!-- 500 -->
      <g transform="translate(657.85131 196.297813) scale(0.14 -0.14)">
       <use xlink:href="#DejaVuSans-35"/>
       <use xlink:href="#DejaVuSans-30" x="63.623047"/>
       <use xlink:href="#DejaVuSans-30" x="127.246094"/>
      </g>
     </g>
    </g>
   </g>
   <g id="matplotlib.axis_4">
    <g id="ytick_6">
     <g id="line2d_37">
      <path d="M 395.60364 153.274427 
L 690.38011 153.274427 
" clip-path="url(#pfa7e620972)" style="fill: none; stroke: #cbcbcb"/>
     </g>
     <g id="line2d_38"/>
     <g id="text_19">
      <!-- 20 -->
      <g transform="translate(374.28864 158.593333) scale(0.14 -0.14)">
       <use xlink:href="#DejaVuSans-32"/>
       <use xlink:href="#DejaVuSans-30" x="63.623047"/>
      </g>
     </g>
    </g>
    <g id="ytick_7">
     <g id="line2d_39">
      <path d="M 395.60364 123.841634 
L 690.38011 123.841634 
" clip-path="url(#pfa7e620972)" style="fill: none; stroke: #cbcbcb"/>
     </g>
     <g id="line2d_40"/>
     <g id="text_20">
      <!-- 40 -->
      <g transform="translate(374.28864 129.16054) scale(0.14 -0.14)">
       <use xlink:href="#DejaVuSans-34"/>
       <use xlink:href="#DejaVuSans-30" x="63.623047"/>
      </g>
     </g>
    </g>
    <g id="ytick_8">
     <g id="line2d_41">
      <path d="M 395.60364 94.40884 
L 690.38011 94.40884 
" clip-path="url(#pfa7e620972)" style="fill: none; stroke: #cbcbcb"/>
     </g>
     <g id="line2d_42"/>
     <g id="text_21">
      <!-- 60 -->
      <g transform="translate(374.28864 99.727747) scale(0.14 -0.14)">
       <use xlink:href="#DejaVuSans-36"/>
       <use xlink:href="#DejaVuSans-30" x="63.623047"/>
      </g>
     </g>
    </g>
    <g id="ytick_9">
     <g id="line2d_43">
      <path d="M 395.60364 64.976047 
L 690.38011 64.976047 
" clip-path="url(#pfa7e620972)" style="fill: none; stroke: #cbcbcb"/>
     </g>
     <g id="line2d_44"/>
     <g id="text_22">
      <!-- 80 -->
      <g transform="translate(374.28864 70.294953) scale(0.14 -0.14)">
       <use xlink:href="#DejaVuSans-38"/>
       <use xlink:href="#DejaVuSans-30" x="63.623047"/>
      </g>
     </g>
    </g>
    <g id="ytick_10">
     <g id="line2d_45">
      <path d="M 395.60364 35.543254 
L 690.38011 35.543254 
" clip-path="url(#pfa7e620972)" style="fill: none; stroke: #cbcbcb"/>
     </g>
     <g id="line2d_46"/>
     <g id="text_23">
      <!-- 100 -->
      <g transform="translate(365.38114 40.86216) scale(0.14 -0.14)">
       <use xlink:href="#DejaVuSans-31"/>
       <use xlink:href="#DejaVuSans-30" x="63.623047"/>
       <use xlink:href="#DejaVuSans-30" x="127.246094"/>
      </g>
     </g>
    </g>
   </g>
   <g id="line2d_47">
    <path d="M 409.00257 88.283165 
L 409.52699 110.477599 
L 410.05141 141.858738 
L 410.57583 104.814601 
L 411.10025 99.019846 
L 411.62467 75.182819 
L 412.14909 85.437062 
L 412.67351 133.897752 
L 413.19793 89.953664 
L 413.72235 15.152727 
L 414.24677 51.246275 
L 414.77119 96.048845 
L 415.29561 105.639765 
L 415.82003 123.750599 
L 416.34445 79.243896 
L 416.86887 97.986413 
L 417.39329 141.348621 
L 417.91771 118.622058 
L 418.44213 137.273773 
L 418.96655 104.399276 
L 419.49097 98.910246 
L 420.01539 102.670752 
L 421.06423 158.571277 
L 421.58865 171.467967 
L 422.11307 154.711336 
L 422.63749 167.188227 
L 423.16191 168.919266 
L 423.68633 164.156392 
L 424.21075 82.728644 
L 424.73517 111.454809 
L 425.25959 124.637937 
L 425.78401 148.694853 
L 426.30843 91.841998 
L 426.832849 115.374563 
L 427.357269 79.229839 
L 427.881689 91.036634 
L 428.406109 110.326698 
L 428.930529 138.226209 
L 429.454949 105.358011 
L 429.979369 121.063054 
L 430.503789 127.864054 
L 431.028209 128.593103 
L 431.552629 116.221627 
L 432.077049 75.031739 
L 432.601469 73.982722 
L 433.125889 101.467668 
L 433.650309 85.075237 
L 434.174729 109.887975 
L 434.699149 52.270939 
L 435.747989 150.610844 
L 436.272409 153.045881 
L 436.796829 138.514857 
L 437.321249 93.671404 
L 437.845669 125.698362 
L 438.370089 147.67413 
L 439.418929 156.013367 
L 439.943349 153.862119 
L 440.467769 73.155744 
L 441.516609 166.64358 
L 442.565449 169.992375 
L 443.089869 164.272618 
L 444.138709 167.371929 
L 444.663129 162.931158 
L 445.187549 115.261489 
L 445.711969 116.329795 
L 446.236389 163.073374 
L 446.760809 158.815854 
L 447.285229 145.355196 
L 447.809649 159.871638 
L 448.334069 92.238792 
L 448.858489 123.220432 
L 449.382909 138.163628 
L 450.431749 107.597077 
L 450.956169 139.548888 
L 451.480589 128.206247 
L 452.005009 123.671764 
L 452.529429 158.394719 
L 453.053848 156.678405 
L 453.578268 164.767502 
L 454.102688 167.855421 
L 454.627108 166.16402 
L 455.151528 163.138992 
L 455.675948 133.270532 
L 456.200368 112.055082 
L 456.724788 140.510609 
L 457.249208 148.876276 
L 457.773628 161.333705 
L 458.298048 136.921989 
L 458.822468 130.932427 
L 459.346888 126.259899 
L 459.871308 165.306436 
L 460.395728 141.489189 
L 460.920148 162.966879 
L 461.444568 88.72483 
L 461.968988 78.17449 
L 463.017828 135.1766 
L 463.542248 134.20309 
L 464.066668 155.505638 
L 465.115508 165.638807 
L 465.639928 147.126001 
L 466.164348 122.479335 
L 466.688768 126.053247 
L 467.213188 149.629252 
L 467.737608 149.583592 
L 468.262028 146.754201 
L 468.786448 133.700172 
L 469.310868 97.841233 
L 470.359708 156.381398 
L 470.884128 160.250946 
L 471.408548 144.765988 
L 471.932968 148.690087 
L 472.457388 151.585402 
L 472.981808 126.477616 
L 473.506228 136.688053 
L 474.030648 107.496959 
L 474.555068 128.668004 
L 475.079488 143.871638 
L 475.603908 147.092439 
L 476.128328 154.815266 
L 476.652748 118.399721 
L 477.177168 119.416009 
L 477.701588 115.151805 
L 478.226008 140.188803 
L 478.750427 139.343617 
L 479.274847 128.99473 
L 479.799267 129.256375 
L 480.323687 132.666043 
L 480.848107 152.979253 
L 481.372527 142.458203 
L 481.896947 119.358057 
L 482.421367 104.361372 
L 482.945787 105.184156 
L 483.994627 134.707068 
L 484.519047 158.455845 
L 485.567887 166.228154 
L 486.616727 172.893366 
L 487.141147 161.444642 
L 487.665567 112.096782 
L 488.189987 112.070616 
L 488.714407 127.466166 
L 489.238827 163.339137 
L 489.763247 165.114223 
L 490.287667 153.103678 
L 490.812087 100.578169 
L 491.336507 133.411636 
L 492.385347 160.090527 
L 492.909767 147.439681 
L 493.434187 110.319704 
L 493.958607 103.576829 
L 494.483027 122.3749 
L 495.007447 163.485117 
L 495.531867 145.022449 
L 496.580707 145.554965 
L 497.105127 123.500294 
L 497.629547 116.379736 
L 498.153967 118.632701 
L 498.678387 115.784588 
L 499.202807 158.668352 
L 499.727227 168.108742 
L 500.251647 164.841494 
L 500.776067 127.258638 
L 501.300487 137.82639 
L 501.824907 159.190933 
L 502.349327 169.48661 
L 502.873747 166.580721 
L 503.398167 157.637985 
L 503.922587 100.552733 
L 504.447006 135.159899 
L 504.971426 155.973256 
L 505.495846 166.687981 
L 506.020266 174.087581 
L 506.544686 171.865984 
L 507.069106 171.148062 
L 507.593526 165.253999 
L 508.117946 168.653777 
L 508.642366 162.393151 
L 509.166786 131.439757 
L 509.691206 164.805094 
L 510.215626 160.473801 
L 510.740046 166.913851 
L 511.264466 159.963141 
L 512.313306 131.320906 
L 512.837726 137.816234 
L 513.362146 150.01427 
L 513.886566 139.820234 
L 514.410986 86.641931 
L 514.935406 97.805989 
L 515.459826 133.750848 
L 515.984246 137.22894 
L 516.508666 139.763113 
L 517.033086 109.096157 
L 517.557506 140.590626 
L 518.081926 155.20704 
L 518.606346 149.184685 
L 519.655186 90.943321 
L 520.179606 125.077362 
L 520.704026 128.11711 
L 521.228446 139.483961 
L 521.752866 161.606546 
L 522.277286 147.101789 
L 522.801706 144.63937 
L 523.326126 156.47609 
L 523.850546 156.535639 
L 524.374966 137.150793 
L 524.899386 140.020042 
L 525.423806 122.224831 
L 525.948226 155.295209 
L 526.472646 166.040935 
L 526.997066 170.78078 
L 528.045906 118.565958 
L 528.570326 149.136577 
L 529.094746 151.920249 
L 529.619166 144.929048 
L 530.143585 126.228551 
L 531.192425 155.472904 
L 531.716845 152.339337 
L 532.241265 151.330847 
L 532.765685 139.815613 
L 533.290105 117.08587 
L 533.814525 140.909334 
L 534.338945 153.110477 
L 535.387785 131.02441 
L 535.912205 112.428971 
L 536.436625 156.955586 
L 536.961045 162.484298 
L 537.485465 169.899218 
L 538.009885 174.207273 
L 538.534305 172.756458 
L 539.058725 170.436635 
L 539.583145 165.460633 
L 540.107565 147.633239 
L 540.631985 146.546665 
L 541.156405 112.568217 
L 541.680825 144.07093 
L 542.205245 157.142486 
L 542.729665 163.237798 
L 543.254085 129.246961 
L 543.778505 155.267083 
L 544.302925 159.083276 
L 544.827345 153.278547 
L 545.876185 128.769227 
L 546.400605 111.11507 
L 546.925025 123.479326 
L 547.973865 154.496084 
L 548.498285 146.218063 
L 549.547125 160.842258 
L 550.071545 163.570243 
L 550.595965 140.495892 
L 551.120385 139.723759 
L 551.644805 140.829311 
L 552.169225 150.825408 
L 552.693645 144.641545 
L 553.218065 113.184248 
L 553.742485 101.626934 
L 554.791325 119.851038 
L 555.315745 148.986906 
L 556.364584 152.613428 
L 556.889004 152.169285 
L 557.413424 156.288491 
L 557.937844 157.910835 
L 558.462264 151.760419 
L 558.986684 133.750933 
L 559.511104 140.741928 
L 560.035524 155.984428 
L 560.559944 157.787389 
L 561.084364 151.389635 
L 561.608784 139.504841 
L 562.133204 121.580012 
L 562.657624 113.675557 
L 563.182044 141.533668 
L 563.706464 145.89791 
L 564.755304 158.766368 
L 565.279724 155.192346 
L 565.804144 148.31532 
L 566.328564 149.798232 
L 566.852984 149.604529 
L 567.377404 112.799138 
L 567.901824 137.47597 
L 568.426244 132.497543 
L 568.950664 136.734421 
L 569.475084 151.631876 
L 569.999504 155.849948 
L 570.523924 166.418366 
L 571.048344 161.167289 
L 571.572764 154.741488 
L 572.097184 166.823584 
L 572.621604 130.900456 
L 573.146024 145.714132 
L 573.670444 142.038079 
L 574.194864 158.621951 
L 574.719284 156.72212 
L 575.243704 128.563086 
L 575.768124 121.431929 
L 576.292544 146.02212 
L 576.816964 157.477428 
L 577.341384 141.287295 
L 577.865804 138.731875 
L 578.390224 138.604948 
L 578.914644 137.963562 
L 579.963484 168.115798 
L 581.012324 128.025082 
L 581.536744 133.027654 
L 582.061163 125.99854 
L 582.585583 116.733274 
L 583.110003 118.570298 
L 583.634423 139.075297 
L 584.683263 152.408593 
L 585.207683 168.835793 
L 585.732103 145.405527 
L 586.256523 132.69386 
L 586.780943 153.337162 
L 587.305363 152.1004 
L 587.829783 159.185851 
L 588.354203 132.780858 
L 588.878623 118.00103 
L 589.403043 148.921622 
L 589.927463 154.625834 
L 590.976303 169.902612 
L 591.500723 168.184911 
L 592.549563 161.958344 
L 593.073983 167.783494 
L 593.598403 134.65752 
L 594.122823 126.165042 
L 594.647243 139.434348 
L 595.171663 148.621623 
L 595.696083 146.473514 
L 596.220503 132.022622 
L 596.744923 136.285481 
L 597.269343 126.945991 
L 597.793763 139.813811 
L 598.318183 143.006256 
L 598.842603 106.316707 
L 599.367023 122.772631 
L 599.891443 107.905626 
L 600.415863 141.041678 
L 600.940283 146.989396 
L 601.464703 149.336798 
L 601.989123 132.830321 
L 602.513543 142.275938 
L 603.037963 125.736648 
L 603.562383 98.690829 
L 604.086803 118.660653 
L 604.611223 109.039541 
L 605.135643 150.508719 
L 605.660063 155.68933 
L 606.708903 160.607496 
L 607.233323 133.484645 
L 607.757742 142.25993 
L 608.282162 155.872544 
L 608.806582 154.773389 
L 609.331002 139.831582 
L 609.855422 129.140842 
L 611.428682 161.540573 
L 611.953102 157.864936 
L 612.477522 166.97275 
L 613.001942 168.067982 
L 613.526362 169.815213 
L 614.050782 163.173983 
L 614.575202 164.449394 
L 615.099622 144.869971 
L 615.624042 150.482287 
L 616.672882 166.006927 
L 617.197302 156.193435 
L 617.721722 143.507725 
L 618.246142 144.635081 
L 618.770562 136.043532 
L 619.294982 155.361264 
L 619.819402 151.04875 
L 620.343822 122.391731 
L 620.868242 127.201697 
L 621.392662 128.318412 
L 621.917082 136.915934 
L 622.441502 158.48614 
L 622.965922 148.306717 
L 623.490342 132.740707 
L 624.014762 141.470242 
L 625.063602 120.476276 
L 625.588022 124.857304 
L 626.112442 131.967763 
L 626.636862 145.118648 
L 627.161282 147.306622 
L 627.685702 161.721792 
L 628.210122 139.999546 
L 628.734542 133.018386 
L 629.258962 154.205092 
L 629.783382 145.445649 
L 630.307802 161.226091 
L 630.832222 142.107449 
L 631.356642 144.184925 
L 631.881062 155.231665 
L 632.405482 151.498701 
L 632.929902 166.754117 
L 633.454321 164.576503 
L 633.978741 167.057359 
L 634.503161 166.374806 
L 635.027581 166.301836 
L 635.552001 167.483996 
L 636.076421 132.192946 
L 636.600841 128.511382 
L 637.125261 147.934546 
L 637.649681 152.874074 
L 638.174101 151.293655 
L 638.698521 142.520733 
L 639.222941 137.025062 
L 639.747361 136.31513 
L 640.271781 131.367669 
L 640.796201 149.046994 
L 641.320621 108.300606 
L 641.845041 100.760867 
L 642.369461 115.759337 
L 642.893881 142.156475 
L 643.418301 130.867014 
L 643.942721 140.428383 
L 644.467141 143.271416 
L 644.991561 158.195604 
L 645.515981 155.010246 
L 646.040401 143.074487 
L 646.564821 140.575564 
L 647.089241 127.686179 
L 647.613661 128.186301 
L 648.138081 152.273108 
L 648.662501 148.264933 
L 649.186921 152.599717 
L 649.711341 158.123289 
L 650.235761 141.676229 
L 650.760181 149.827107 
L 651.284601 154.206619 
L 651.809021 138.46411 
L 652.333441 150.422204 
L 652.857861 143.515007 
L 653.382281 145.34268 
L 653.906701 155.934832 
L 654.431121 153.932958 
L 654.955541 153.471504 
L 655.479961 153.974481 
L 656.004381 155.3452 
L 656.528801 153.741298 
L 657.053221 132.656707 
L 657.577641 142.826972 
L 658.102061 146.502512 
L 658.626481 137.096333 
L 659.150901 145.622492 
L 659.67532 138.006715 
L 660.19974 134.877337 
L 660.72416 149.140044 
L 661.24858 151.424298 
L 661.773 156.031809 
L 662.29742 142.685374 
L 662.82184 122.055444 
L 663.34626 124.3953 
L 663.87068 153.148216 
L 664.3951 159.599271 
L 664.91952 168.868616 
L 665.44394 168.243193 
L 665.96836 166.081936 
L 666.49278 172.467807 
L 667.0172 164.322149 
L 667.54162 165.66586 
L 668.06604 164.427323 
L 668.59046 149.426241 
L 669.11488 140.744129 
L 669.6393 161.771674 
L 670.16372 166.928421 
L 670.68814 159.667584 
L 671.21256 158.813628 
L 671.73698 161.280772 
L 672.2614 162.394779 
L 672.78582 150.851695 
L 673.31024 147.367706 
L 673.83466 162.668702 
L 674.35908 159.367115 
L 674.8835 164.194667 
L 675.40792 163.602774 
L 675.93234 162.645966 
L 676.45676 157.829459 
L 676.98118 150.32804 
L 676.98118 150.32804 
" clip-path="url(#pfa7e620972)" style="fill: none; stroke: #008fd5; stroke-opacity: 0.4; stroke-width: 4"/>
   </g>
   <g id="line2d_48">
    <path d="M 409.00257 88.283165 
L 409.52699 89.39289 
L 410.05141 92.016185 
L 410.57583 92.656104 
L 411.10025 92.974292 
L 411.62467 92.084719 
L 412.14909 91.752339 
L 412.67351 93.859608 
L 413.19793 93.664313 
L 413.72235 89.738732 
L 414.24677 87.814116 
L 414.77119 88.225848 
L 415.29561 89.096546 
L 415.82003 90.829247 
L 416.34445 90.249981 
L 416.86887 90.636804 
L 417.39329 93.172393 
L 417.91771 94.444881 
L 418.44213 96.586327 
L 418.96655 96.976974 
L 419.49097 97.073639 
L 420.01539 97.353495 
L 420.53981 99.07791 
L 423.68633 116.357573 
L 424.21075 114.676126 
L 424.73517 114.515059 
L 425.25959 115.021204 
L 425.78401 116.704891 
L 426.30843 115.461746 
L 426.832849 115.45739 
L 427.357269 113.646017 
L 427.881689 112.515548 
L 428.406109 112.406106 
L 428.930529 113.697114 
L 429.454949 113.280161 
L 429.979369 113.669308 
L 431.028209 115.08975 
L 431.552629 115.146343 
L 432.601469 111.182717 
L 433.125889 110.696966 
L 433.650309 109.415883 
L 434.174729 109.43949 
L 434.699149 106.581064 
L 435.223569 106.212924 
L 436.272409 110.663474 
L 436.796829 112.056042 
L 437.321249 111.136812 
L 437.845669 111.86489 
L 439.943349 119.403934 
L 440.467769 117.091529 
L 440.992189 117.233851 
L 442.565449 124.521186 
L 444.663129 132.044701 
L 445.711969 130.461755 
L 446.760809 133.428517 
L 447.285229 134.024855 
L 447.809649 135.317194 
L 448.334069 133.163274 
L 448.858489 132.666133 
L 449.382909 132.941004 
L 449.907329 132.495292 
L 450.431749 131.250379 
L 450.956169 131.665305 
L 451.480589 131.492353 
L 452.005009 131.101325 
L 454.102688 136.862375 
L 455.151528 139.568034 
L 455.675948 139.253161 
L 456.200368 137.893259 
L 456.724788 138.024127 
L 457.249208 138.566737 
L 457.773628 139.705085 
L 458.298048 139.565931 
L 458.822468 139.134256 
L 459.346888 138.49054 
L 459.871308 139.831335 
L 460.395728 139.914229 
L 460.920148 141.066861 
L 461.968988 135.435994 
L 462.493408 134.019724 
L 463.542248 134.083846 
L 464.591088 136.403178 
L 465.115508 137.86496 
L 465.639928 138.328013 
L 466.164348 137.535578 
L 466.688768 136.961462 
L 467.737608 138.194289 
L 468.262028 138.622286 
L 468.786448 138.376183 
L 469.310868 136.349434 
L 469.835288 135.861508 
L 470.884128 138.055674 
L 471.408548 138.391192 
L 472.457388 139.540099 
L 472.981808 138.886977 
L 473.506228 138.777032 
L 474.030648 137.213028 
L 474.555068 136.785777 
L 475.079488 137.14007 
L 475.603908 137.637688 
L 476.128328 138.496567 
L 477.701588 135.516132 
L 478.750427 135.929461 
L 479.799267 135.266411 
L 480.323687 135.136394 
L 480.848107 136.028537 
L 481.372527 136.350021 
L 481.896947 135.500425 
L 482.945787 132.505509 
L 483.470207 131.818227 
L 483.994627 131.962666 
L 485.043467 134.755825 
L 487.141147 140.817743 
L 488.189987 138.016141 
L 488.714407 137.488643 
L 489.763247 140.097819 
L 490.287667 140.748112 
L 490.812087 138.739616 
L 491.336507 138.473219 
L 491.860927 138.826131 
L 492.385347 139.889351 
L 492.909767 140.266867 
L 493.958607 137.009876 
L 494.483027 136.278129 
L 495.007447 137.63848 
L 496.580707 138.731706 
L 497.105127 137.970136 
L 498.678387 134.968062 
L 499.202807 136.153078 
L 500.251647 139.105396 
L 500.776067 138.513058 
L 501.300487 138.478723 
L 501.824907 139.514334 
L 502.873747 142.29134 
L 503.398167 143.058673 
L 503.922587 140.933378 
L 504.447006 140.644705 
L 504.971426 141.411131 
L 505.495846 142.674974 
L 506.544686 145.626623 
L 507.069106 146.902696 
L 508.642366 149.538496 
L 509.166786 148.633558 
L 509.691206 149.442134 
L 510.215626 149.993718 
L 510.740046 150.839727 
L 511.264466 151.295898 
L 511.788886 151.062327 
L 512.313306 150.075256 
L 512.837726 149.462304 
L 513.362146 149.489905 
L 513.886566 149.006422 
L 514.410986 145.888198 
L 514.935406 143.484088 
L 515.459826 142.997426 
L 515.984246 142.709002 
L 516.508666 142.561709 
L 517.033086 140.88843 
L 517.557506 140.873542 
L 518.081926 141.590219 
L 518.606346 141.969943 
L 519.130766 140.767707 
L 519.655186 138.276489 
L 520.179606 137.616533 
L 520.704026 137.141561 
L 521.228446 137.258683 
L 521.752866 138.476079 
L 522.277286 138.907364 
L 522.801706 139.193963 
L 523.850546 140.881946 
L 524.374966 140.695389 
L 524.899386 140.661622 
L 525.423806 139.739784 
L 525.948226 140.517556 
L 526.997066 143.243082 
L 527.521486 143.36508 
L 528.045906 142.125124 
L 529.619166 143.046982 
L 530.143585 142.206059 
L 530.668005 142.19571 
L 531.192425 142.859572 
L 532.241265 143.733425 
L 532.765685 143.537535 
L 533.290105 142.214952 
L 533.814525 142.149671 
L 534.338945 142.697713 
L 534.863365 142.632603 
L 535.387785 142.052195 
L 535.912205 140.571034 
L 536.436625 141.390262 
L 536.961045 142.444963 
L 539.058725 147.894547 
L 539.583145 148.772852 
L 540.631985 148.607412 
L 541.156405 146.805453 
L 541.680825 146.668727 
L 542.205245 147.192416 
L 542.729665 147.994684 
L 543.254085 147.057296 
L 543.778505 147.467784 
L 544.302925 148.048558 
L 544.827345 148.310057 
L 545.351765 147.9863 
L 545.876185 147.025449 
L 546.400605 145.229931 
L 546.925025 144.1424 
L 547.449445 143.897479 
L 547.973865 144.427408 
L 548.498285 144.516943 
L 549.022705 144.961019 
L 550.071545 146.645839 
L 551.644805 145.748697 
L 552.169225 146.00253 
L 552.693645 145.934482 
L 553.218065 144.29697 
L 553.742485 142.163467 
L 554.266905 140.559385 
L 554.791325 139.523968 
L 555.840165 140.546142 
L 557.413424 142.429898 
L 557.937844 143.203945 
L 558.462264 143.631769 
L 558.986684 143.137727 
L 559.511104 143.017939 
L 560.559944 144.372322 
L 561.084364 144.723188 
L 561.608784 144.462272 
L 562.133204 143.318162 
L 562.657624 141.836033 
L 563.182044 141.820915 
L 563.706464 142.024765 
L 564.230884 142.524859 
L 564.755304 143.336935 
L 565.279724 143.929705 
L 566.852984 144.690103 
L 567.377404 143.095553 
L 567.901824 142.814574 
L 568.426244 142.298722 
L 568.950664 142.020507 
L 569.475084 142.501076 
L 569.999504 143.168519 
L 570.523924 144.331012 
L 571.048344 145.172827 
L 571.572764 145.65126 
L 572.097184 146.709877 
L 572.621604 145.919406 
L 573.146024 145.909144 
L 573.670444 145.715589 
L 574.719284 146.878969 
L 575.243704 145.963177 
L 575.768124 144.736616 
L 576.292544 144.800892 
L 576.816964 145.434719 
L 577.865804 144.902576 
L 578.914644 144.256488 
L 579.439064 144.630245 
L 579.963484 145.804521 
L 580.487904 145.841188 
L 581.012324 144.950384 
L 581.536744 144.354248 
L 582.061163 143.436463 
L 583.110003 140.924752 
L 583.634423 140.832281 
L 584.158843 141.070401 
L 584.683263 141.637311 
L 585.207683 142.997235 
L 585.732103 143.117649 
L 586.256523 142.596458 
L 587.829783 144.362043 
L 588.354203 143.782984 
L 588.878623 142.493888 
L 589.403043 142.815275 
L 589.927463 143.405806 
L 590.451883 144.339037 
L 591.500723 146.7456 
L 593.073983 149.354386 
L 593.598403 148.619543 
L 594.122823 147.496819 
L 594.647243 147.093696 
L 595.696083 147.135264 
L 596.220503 146.37963 
L 596.744923 145.874924 
L 597.269343 144.928478 
L 597.793763 144.672744 
L 598.318183 144.589421 
L 598.842603 142.675785 
L 599.367023 141.680627 
L 599.891443 139.991877 
L 600.415863 140.044367 
L 601.464703 140.838877 
L 601.989123 140.438449 
L 602.513543 140.530322 
L 603.037963 139.79064 
L 603.562383 137.73565 
L 604.086803 136.7819 
L 604.611223 135.394783 
L 605.135643 136.150479 
L 606.708903 139.29417 
L 607.233323 139.003692 
L 607.757742 139.166505 
L 608.806582 140.740384 
L 609.331002 140.694946 
L 609.855422 140.11724 
L 610.379842 140.085452 
L 610.904262 140.59393 
L 613.001942 144.897939 
L 613.526362 146.143803 
L 614.575202 147.868013 
L 615.099622 147.718112 
L 615.624042 147.856319 
L 616.148462 148.356905 
L 616.672882 149.239406 
L 617.197302 149.587106 
L 618.246142 149.050735 
L 618.770562 148.400375 
L 619.294982 148.748421 
L 619.819402 148.863437 
L 620.343822 147.539852 
L 621.392662 145.612718 
L 621.917082 145.17788 
L 622.441502 145.843293 
L 622.965922 145.966464 
L 623.490342 145.305177 
L 624.014762 145.11343 
L 624.539182 144.425134 
L 625.063602 143.227692 
L 625.588022 142.309172 
L 626.112442 141.792102 
L 627.161282 142.22584 
L 627.685702 143.200636 
L 628.210122 143.040582 
L 628.734542 142.539472 
L 629.258962 143.122755 
L 629.783382 143.2389 
L 630.307802 144.13826 
L 631.356642 144.04413 
L 631.881062 144.603506 
L 632.405482 144.948267 
L 633.978741 147.970053 
L 635.552001 150.647025 
L 636.600841 148.663674 
L 637.125261 148.627217 
L 638.174101 148.962267 
L 638.698521 148.640191 
L 639.747361 147.472219 
L 640.271781 146.666992 
L 640.796201 146.785995 
L 642.369461 141.311819 
L 642.893881 141.354052 
L 643.418301 140.829701 
L 643.942721 140.809637 
L 644.467141 140.932727 
L 645.515981 142.456589 
L 646.040401 142.487485 
L 646.564821 142.391889 
L 647.613661 140.983088 
L 648.138081 141.547587 
L 648.662501 141.883456 
L 649.186921 142.419268 
L 649.711341 143.20447 
L 650.235761 143.12806 
L 650.760181 143.463014 
L 651.284601 144.000193 
L 651.809021 143.72339 
L 652.333441 144.05833 
L 653.382281 144.09674 
L 654.431121 145.15086 
L 656.528801 146.819479 
L 657.053221 146.111341 
L 657.577641 145.947124 
L 658.102061 145.974893 
L 658.626481 145.530966 
L 659.150901 145.535544 
L 659.67532 145.159101 
L 660.19974 144.645015 
L 661.24858 145.197494 
L 661.773 145.739209 
L 662.29742 145.586518 
L 663.34626 143.40923 
L 663.87068 143.896179 
L 664.3951 144.681334 
L 665.44394 147.008321 
L 665.96836 147.962003 
L 666.49278 149.187295 
L 668.06604 151.41499 
L 668.59046 151.315552 
L 669.11488 150.786982 
L 669.6393 151.336216 
L 670.16372 152.115827 
L 672.2614 153.691079 
L 672.78582 153.54911 
L 673.31024 153.240039 
L 673.83466 153.711474 
L 674.35908 153.994256 
L 675.40792 154.959202 
L 675.93234 155.343541 
L 676.45676 155.467838 
L 676.98118 155.210849 
L 676.98118 155.210849 
" clip-path="url(#pfa7e620972)" style="fill: none; stroke: #008fd5; stroke-width: 4"/>
   </g>
   <g id="patch_9">
    <path d="M 395.60364 182.16 
L 395.60364 7.2 
" style="fill: none; stroke: #f0f0f0; stroke-width: 3; stroke-linejoin: miter; stroke-linecap: square"/>
   </g>
   <g id="patch_10">
    <path d="M 690.38011 182.16 
L 690.38011 7.2 
" style="fill: none; stroke: #f0f0f0; stroke-width: 3; stroke-linejoin: miter; stroke-linecap: square"/>
   </g>
   <g id="patch_11">
    <path d="M 395.60364 182.16 
L 690.38011 182.16 
" style="fill: none; stroke: #f0f0f0; stroke-width: 3; stroke-linejoin: miter; stroke-linecap: square"/>
   </g>
   <g id="patch_12">
    <path d="M 395.60364 7.2 
L 690.38011 7.2 
" style="fill: none; stroke: #f0f0f0; stroke-width: 3; stroke-linejoin: miter; stroke-linecap: square"/>
   </g>
   <g id="legend_2">
    <g id="patch_13">
     <path d="M 565.425735 38.949375 
L 680.58011 38.949375 
Q 683.38011 38.949375 683.38011 36.149375 
L 683.38011 17 
Q 683.38011 14.2 680.58011 14.2 
L 565.425735 14.2 
Q 562.625735 14.2 562.625735 17 
L 562.625735 36.149375 
Q 562.625735 38.949375 565.425735 38.949375 
z
" style="fill: #f0f0f0; opacity: 0.8; stroke: #cccccc; stroke-width: 0.5; stroke-linejoin: miter"/>
    </g>
    <g id="line2d_49">
     <path d="M 568.225735 25.537813 
L 582.225735 25.537813 
L 596.225735 25.537813 
" style="fill: none; stroke: #008fd5; stroke-width: 4"/>
    </g>
    <g id="text_24">
     <!-- perplexity -->
     <g transform="translate(607.425735 30.437813) scale(0.14 -0.14)">
      <defs>
       <path id="DejaVuSans-70" d="M 1159 525 
L 1159 -1331 
L 581 -1331 
L 581 3500 
L 1159 3500 
L 1159 2969 
Q 1341 3281 1617 3432 
Q 1894 3584 2278 3584 
Q 2916 3584 3314 3078 
Q 3713 2572 3713 1747 
Q 3713 922 3314 415 
Q 2916 -91 2278 -91 
Q 1894 -91 1617 61 
Q 1341 213 1159 525 
z
M 3116 1747 
Q 3116 2381 2855 2742 
Q 2594 3103 2138 3103 
Q 1681 3103 1420 2742 
Q 1159 2381 1159 1747 
Q 1159 1113 1420 752 
Q 1681 391 2138 391 
Q 2594 391 2855 752 
Q 3116 1113 3116 1747 
z
" transform="scale(0.015625)"/>
       <path id="DejaVuSans-65" d="M 3597 1894 
L 3597 1613 
L 953 1613 
Q 991 1019 1311 708 
Q 1631 397 2203 397 
Q 2534 397 2845 478 
Q 3156 559 3463 722 
L 3463 178 
Q 3153 47 2828 -22 
Q 2503 -91 2169 -91 
Q 1331 -91 842 396 
Q 353 884 353 1716 
Q 353 2575 817 3079 
Q 1281 3584 2069 3584 
Q 2775 3584 3186 3129 
Q 3597 2675 3597 1894 
z
M 3022 2063 
Q 3016 2534 2758 2815 
Q 2500 3097 2075 3097 
Q 1594 3097 1305 2825 
Q 1016 2553 972 2059 
L 3022 2063 
z
" transform="scale(0.015625)"/>
       <path id="DejaVuSans-6c" d="M 603 4863 
L 1178 4863 
L 1178 0 
L 603 0 
L 603 4863 
z
" transform="scale(0.015625)"/>
       <path id="DejaVuSans-78" d="M 3513 3500 
L 2247 1797 
L 3578 0 
L 2900 0 
L 1881 1375 
L 863 0 
L 184 0 
L 1544 1831 
L 300 3500 
L 978 3500 
L 1906 2253 
L 2834 3500 
L 3513 3500 
z
" transform="scale(0.015625)"/>
       <path id="DejaVuSans-69" d="M 603 3500 
L 1178 3500 
L 1178 0 
L 603 0 
L 603 3500 
z
M 603 4863 
L 1178 4863 
L 1178 4134 
L 603 4134 
L 603 4863 
z
" transform="scale(0.015625)"/>
       <path id="DejaVuSans-74" d="M 1172 4494 
L 1172 3500 
L 2356 3500 
L 2356 3053 
L 1172 3053 
L 1172 1153 
Q 1172 725 1289 603 
Q 1406 481 1766 481 
L 2356 481 
L 2356 0 
L 1766 0 
Q 1100 0 847 248 
Q 594 497 594 1153 
L 594 3053 
L 172 3053 
L 172 3500 
L 594 3500 
L 594 4494 
L 1172 4494 
z
" transform="scale(0.015625)"/>
      </defs>
      <use xlink:href="#DejaVuSans-70"/>
      <use xlink:href="#DejaVuSans-65" x="63.476562"/>
      <use xlink:href="#DejaVuSans-72" x="125"/>
      <use xlink:href="#DejaVuSans-70" x="166.113281"/>
      <use xlink:href="#DejaVuSans-6c" x="229.589844"/>
      <use xlink:href="#DejaVuSans-65" x="257.373047"/>
      <use xlink:href="#DejaVuSans-78" x="317.146484"/>
      <use xlink:href="#DejaVuSans-69" x="376.326172"/>
      <use xlink:href="#DejaVuSans-74" x="404.109375"/>
      <use xlink:href="#DejaVuSans-79" x="443.318359"/>
     </g>
    </g>
   </g>
  </g>
  <g id="axes_3">
   <g id="patch_14">
    <path d="M 749.335404 182.16 
L 1044.111875 182.16 
L 1044.111875 7.2 
L 749.335404 7.2 
L 749.335404 182.16 
z
" style="fill: none"/>
   </g>
   <g id="matplotlib.axis_5">
    <g id="xtick_13">
     <g id="line2d_50">
      <path d="M 762.734335 182.16 
L 762.734335 7.2 
" clip-path="url(#pf24af50e8a)" style="fill: none; stroke: #cbcbcb"/>
     </g>
     <g id="line2d_51"/>
     <g id="text_25">
      <!-- 0 -->
      <g transform="translate(758.280585 196.297813) scale(0.14 -0.14)">
       <use xlink:href="#DejaVuSans-30"/>
      </g>
     </g>
    </g>
    <g id="xtick_14">
     <g id="line2d_52">
      <path d="M 815.176333 182.16 
L 815.176333 7.2 
" clip-path="url(#pf24af50e8a)" style="fill: none; stroke: #cbcbcb"/>
     </g>
     <g id="line2d_53"/>
     <g id="text_26">
      <!-- 100 -->
      <g transform="translate(801.815083 196.297813) scale(0.14 -0.14)">
       <use xlink:href="#DejaVuSans-31"/>
       <use xlink:href="#DejaVuSans-30" x="63.623047"/>
       <use xlink:href="#DejaVuSans-30" x="127.246094"/>
      </g>
     </g>
    </g>
    <g id="xtick_15">
     <g id="line2d_54">
      <path d="M 867.618331 182.16 
L 867.618331 7.2 
" clip-path="url(#pf24af50e8a)" style="fill: none; stroke: #cbcbcb"/>
     </g>
     <g id="line2d_55"/>
     <g id="text_27">
      <!-- 200 -->
      <g transform="translate(854.257081 196.297813) scale(0.14 -0.14)">
       <use xlink:href="#DejaVuSans-32"/>
       <use xlink:href="#DejaVuSans-30" x="63.623047"/>
       <use xlink:href="#DejaVuSans-30" x="127.246094"/>
      </g>
     </g>
    </g>
    <g id="xtick_16">
     <g id="line2d_56">
      <path d="M 920.060329 182.16 
L 920.060329 7.2 
" clip-path="url(#pf24af50e8a)" style="fill: none; stroke: #cbcbcb"/>
     </g>
     <g id="line2d_57"/>
     <g id="text_28">
      <!-- 300 -->
      <g transform="translate(906.699079 196.297813) scale(0.14 -0.14)">
       <use xlink:href="#DejaVuSans-33"/>
       <use xlink:href="#DejaVuSans-30" x="63.623047"/>
       <use xlink:href="#DejaVuSans-30" x="127.246094"/>
      </g>
     </g>
    </g>
    <g id="xtick_17">
     <g id="line2d_58">
      <path d="M 972.502327 182.16 
L 972.502327 7.2 
" clip-path="url(#pf24af50e8a)" style="fill: none; stroke: #cbcbcb"/>
     </g>
     <g id="line2d_59"/>
     <g id="text_29">
      <!-- 400 -->
      <g transform="translate(959.141077 196.297813) scale(0.14 -0.14)">
       <use xlink:href="#DejaVuSans-34"/>
       <use xlink:href="#DejaVuSans-30" x="63.623047"/>
       <use xlink:href="#DejaVuSans-30" x="127.246094"/>
      </g>
     </g>
    </g>
    <g id="xtick_18">
     <g id="line2d_60">
      <path d="M 1024.944325 182.16 
L 1024.944325 7.2 
" clip-path="url(#pf24af50e8a)" style="fill: none; stroke: #cbcbcb"/>
     </g>
     <g id="line2d_61"/>
     <g id="text_30">
      <!-- 500 -->
      <g transform="translate(1011.583075 196.297813) scale(0.14 -0.14)">
       <use xlink:href="#DejaVuSans-35"/>
       <use xlink:href="#DejaVuSans-30" x="63.623047"/>
       <use xlink:href="#DejaVuSans-30" x="127.246094"/>
      </g>
     </g>
    </g>
   </g>
   <g id="matplotlib.axis_6">
    <g id="ytick_11">
     <g id="line2d_62">
      <path d="M 749.335404 180.118562 
L 1044.111875 180.118562 
" clip-path="url(#pf24af50e8a)" style="fill: none; stroke: #cbcbcb"/>
     </g>
     <g id="line2d_63"/>
     <g id="text_31">
      <!-- 2600 -->
      <g transform="translate(710.205404 185.437469) scale(0.14 -0.14)">
       <use xlink:href="#DejaVuSans-32"/>
       <use xlink:href="#DejaVuSans-36" x="63.623047"/>
       <use xlink:href="#DejaVuSans-30" x="127.246094"/>
       <use xlink:href="#DejaVuSans-30" x="190.869141"/>
      </g>
     </g>
    </g>
    <g id="ytick_12">
     <g id="line2d_64">
      <path d="M 749.335404 150.265294 
L 1044.111875 150.265294 
" clip-path="url(#pf24af50e8a)" style="fill: none; stroke: #cbcbcb"/>
     </g>
     <g id="line2d_65"/>
     <g id="text_32">
      <!-- 2800 -->
      <g transform="translate(710.205404 155.584201) scale(0.14 -0.14)">
       <use xlink:href="#DejaVuSans-32"/>
       <use xlink:href="#DejaVuSans-38" x="63.623047"/>
       <use xlink:href="#DejaVuSans-30" x="127.246094"/>
       <use xlink:href="#DejaVuSans-30" x="190.869141"/>
      </g>
     </g>
    </g>
    <g id="ytick_13">
     <g id="line2d_66">
      <path d="M 749.335404 120.412026 
L 1044.111875 120.412026 
" clip-path="url(#pf24af50e8a)" style="fill: none; stroke: #cbcbcb"/>
     </g>
     <g id="line2d_67"/>
     <g id="text_33">
      <!-- 3000 -->
      <g transform="translate(710.205404 125.730933) scale(0.14 -0.14)">
       <use xlink:href="#DejaVuSans-33"/>
       <use xlink:href="#DejaVuSans-30" x="63.623047"/>
       <use xlink:href="#DejaVuSans-30" x="127.246094"/>
       <use xlink:href="#DejaVuSans-30" x="190.869141"/>
      </g>
     </g>
    </g>
    <g id="ytick_14">
     <g id="line2d_68">
      <path d="M 749.335404 90.558759 
L 1044.111875 90.558759 
" clip-path="url(#pf24af50e8a)" style="fill: none; stroke: #cbcbcb"/>
     </g>
     <g id="line2d_69"/>
     <g id="text_34">
      <!-- 3200 -->
      <g transform="translate(710.205404 95.877665) scale(0.14 -0.14)">
       <use xlink:href="#DejaVuSans-33"/>
       <use xlink:href="#DejaVuSans-32" x="63.623047"/>
       <use xlink:href="#DejaVuSans-30" x="127.246094"/>
       <use xlink:href="#DejaVuSans-30" x="190.869141"/>
      </g>
     </g>
    </g>
    <g id="ytick_15">
     <g id="line2d_70">
      <path d="M 749.335404 60.705491 
L 1044.111875 60.705491 
" clip-path="url(#pf24af50e8a)" style="fill: none; stroke: #cbcbcb"/>
     </g>
     <g id="line2d_71"/>
     <g id="text_35">
      <!-- 3400 -->
      <g transform="translate(710.205404 66.024397) scale(0.14 -0.14)">
       <use xlink:href="#DejaVuSans-33"/>
       <use xlink:href="#DejaVuSans-34" x="63.623047"/>
       <use xlink:href="#DejaVuSans-30" x="127.246094"/>
       <use xlink:href="#DejaVuSans-30" x="190.869141"/>
      </g>
     </g>
    </g>
    <g id="ytick_16">
     <g id="line2d_72">
      <path d="M 749.335404 30.852223 
L 1044.111875 30.852223 
" clip-path="url(#pf24af50e8a)" style="fill: none; stroke: #cbcbcb"/>
     </g>
     <g id="line2d_73"/>
     <g id="text_36">
      <!-- 3600 -->
      <g transform="translate(710.205404 36.171129) scale(0.14 -0.14)">
       <use xlink:href="#DejaVuSans-33"/>
       <use xlink:href="#DejaVuSans-36" x="63.623047"/>
       <use xlink:href="#DejaVuSans-30" x="127.246094"/>
       <use xlink:href="#DejaVuSans-30" x="190.869141"/>
      </g>
     </g>
    </g>
   </g>
   <g id="line2d_74">
    <path d="M 762.734335 136.468325 
L 764.307595 136.468325 
L 764.832015 136.26159 
L 769.027375 133.382564 
L 772.698315 131.48186 
L 773.222734 133.028385 
L 776.893674 146.884026 
L 777.942514 147.688664 
L 781.089034 149.856233 
L 785.284394 166.030385 
L 788.955334 163.937486 
L 789.479754 163.320305 
L 793.150694 153.803883 
L 793.675114 153.231926 
L 797.346054 156.745188 
L 797.870474 155.816792 
L 801.541413 140.998537 
L 802.065833 141.076122 
L 805.736773 149.211465 
L 806.261193 149.103561 
L 809.932133 146.018055 
L 812.029813 140.33788 
L 814.127493 134.726763 
L 818.322853 154.652216 
L 821.993793 150.038808 
L 822.518213 150.179474 
L 826.189152 165.234128 
L 826.713572 166.174113 
L 830.384512 160.441498 
L 830.908932 159.187785 
L 834.579872 147.721134 
L 835.104292 147.51367 
L 838.775232 151.363255 
L 839.299652 149.768955 
L 842.970592 134.298825 
L 843.495012 135.231047 
L 847.165952 144.161409 
L 851.361311 140.711155 
L 855.032251 131.88684 
L 855.556671 131.348665 
L 859.227611 141.308148 
L 859.752031 141.937902 
L 863.422971 137.747111 
L 863.947391 138.826121 
L 867.618331 157.421952 
L 868.142751 158.352243 
L 871.813691 158.021896 
L 872.862531 157.186209 
L 876.009051 154.378063 
L 877.05789 155.119694 
L 880.20441 157.63532 
L 884.39977 143.146354 
L 888.07071 145.194284 
L 888.59513 145.3496 
L 892.26607 143.613285 
L 892.79049 143.011883 
L 896.46143 134.713097 
L 896.98585 135.582822 
L 900.65679 156.057856 
L 901.18121 157.166713 
L 904.852149 157.238102 
L 905.376569 158.858823 
L 909.047509 174.038984 
L 909.571929 174.207273 
L 913.242869 173.278804 
L 917.438229 165.749163 
L 921.109169 163.27785 
L 921.633589 162.143193 
L 925.304529 136.727209 
L 925.828949 134.46347 
L 931.073148 135.867762 
L 933.695248 136.415922 
L 934.219668 136.34486 
L 937.890608 135.030835 
L 938.415028 135.810912 
L 942.085968 143.767289 
L 942.610388 143.545649 
L 946.281328 140.366779 
L 950.476688 153.433961 
L 954.147627 156.341411 
L 954.672047 156.603028 
L 958.342987 154.686836 
L 958.867407 154.60721 
L 962.538347 156.616256 
L 963.062767 155.712167 
L 966.733707 139.952397 
L 967.258127 139.608676 
L 970.929067 146.39399 
L 971.453487 146.794415 
L 975.124427 148.01329 
L 976.173267 147.492716 
L 979.319787 145.701921 
L 981.941886 150.366603 
L 983.515146 153.055074 
L 987.186086 148.152097 
L 987.710506 147.78079 
L 991.905866 154.734247 
L 995.576806 158.384057 
L 996.101226 158.278885 
L 999.772166 152.264574 
L 1000.296586 151.779349 
L 1003.967526 150.302575 
L 1004.491946 148.778425 
L 1008.162885 134.169893 
L 1008.687305 133.881018 
L 1012.358245 134.564378 
L 1016.553605 137.01634 
L 1020.748965 137.308167 
L 1024.419905 140.668773 
L 1024.944325 140.739908 
L 1028.615265 135.024312 
L 1029.139685 134.565799 
L 1030.712945 134.565799 
L 1030.712945 134.565799 
" clip-path="url(#pf24af50e8a)" style="fill: none; stroke: #008fd5; stroke-width: 4"/>
   </g>
   <g id="line2d_75">
    <path d="M 762.734335 136.468325 
L 764.307595 136.468325 
L 764.832015 136.26159 
L 769.027375 133.382564 
L 772.698315 131.48186 
L 773.222734 133.028385 
L 776.893674 146.884026 
L 777.942514 147.688664 
L 781.089034 149.856233 
L 785.284394 166.030385 
L 788.955334 163.937486 
L 789.479754 163.320305 
L 793.150694 153.803883 
L 793.675114 153.231926 
L 797.346054 156.745188 
L 797.870474 155.816792 
L 801.541413 140.998537 
L 802.065833 141.076122 
L 805.736773 149.211465 
L 806.261193 149.103561 
L 809.932133 146.018055 
L 812.029813 140.33788 
L 814.127493 134.726763 
L 818.322853 154.652216 
L 821.993793 150.038808 
L 822.518213 150.179474 
L 826.189152 165.234128 
L 826.713572 166.174113 
L 830.384512 160.441498 
L 830.908932 159.187785 
L 834.579872 147.721134 
L 835.104292 147.51367 
L 838.775232 151.363255 
L 839.299652 149.768955 
L 842.970592 134.298825 
L 843.495012 135.231047 
L 847.165952 144.161409 
L 851.361311 140.711155 
L 855.032251 131.88684 
L 855.556671 131.348665 
L 859.227611 141.308148 
L 859.752031 141.937902 
L 863.422971 137.747111 
L 863.947391 138.826121 
L 867.618331 157.421952 
L 868.142751 158.352243 
L 871.813691 158.021896 
L 872.862531 157.186209 
L 876.009051 154.378063 
L 877.05789 155.119694 
L 880.20441 157.63532 
L 884.39977 143.146354 
L 888.07071 145.194284 
L 888.59513 145.3496 
L 892.26607 143.613285 
L 892.79049 143.011883 
L 896.46143 134.713097 
L 896.98585 135.582822 
L 900.65679 152.779864 
L 901.18121 153.420404 
L 904.852149 150.213802 
L 905.376569 151.366243 
L 909.047509 163.268375 
L 909.571929 162.968385 
L 913.242869 158.761924 
L 917.438229 147.485974 
L 921.109169 141.736669 
L 921.633589 140.133732 
L 925.304529 111.43972 
L 925.828949 108.707701 
L 931.073148 105.429126 
L 933.695248 103.635853 
L 934.744088 102.440483 
L 937.890608 98.504494 
L 938.415028 98.816292 
L 942.085968 103.49464 
L 942.610388 102.804721 
L 946.281328 96.347858 
L 949.427848 103.419278 
L 950.476688 105.668732 
L 954.147627 105.29819 
L 954.672047 105.091491 
L 958.342987 99.897307 
L 958.867407 99.349402 
L 962.538347 98.080419 
L 963.062767 96.708051 
L 966.733707 77.670288 
L 967.258127 76.858288 
L 970.929067 80.365573 
L 971.453487 80.297718 
L 975.124427 78.238601 
L 976.697687 76.014692 
L 979.319787 72.180924 
L 981.417466 74.029989 
L 983.515146 75.787805 
L 987.186086 67.606799 
L 987.710506 66.767213 
L 991.905866 69.974398 
L 995.576806 70.346179 
L 996.101226 69.772728 
L 999.772166 60.480425 
L 1000.296586 59.526884 
L 1003.967526 54.772117 
L 1004.491946 52.779689 
L 1008.162885 34.893128 
L 1008.687305 34.135973 
L 1012.358245 31.54134 
L 1016.553605 30.246994 
L 1020.748965 26.79255 
L 1024.419905 26.875127 
L 1024.944325 26.477983 
L 1028.615265 17.484394 
L 1029.139685 16.557602 
L 1030.712945 15.152727 
L 1030.712945 15.152727 
" clip-path="url(#pf24af50e8a)" style="fill: none; stroke: #fc4f30; stroke-width: 4"/>
   </g>
   <g id="line2d_76">
    <path d="M 762.734335 131.411746 
L 764.307595 131.411746 
L 764.832015 131.044957 
L 768.502955 126.472801 
L 769.551795 124.362009 
L 772.698315 117.577642 
L 773.222734 119.695322 
L 776.893674 139.933046 
L 777.418094 140.21026 
L 780.564614 140.70711 
L 781.089034 140.914757 
L 785.284394 159.653841 
L 788.955334 157.927475 
L 789.479754 157.139855 
L 793.150694 142.789988 
L 793.675114 142.186618 
L 797.346054 151.771988 
L 797.870474 151.106813 
L 801.541413 134.615943 
L 802.065833 134.897093 
L 805.736773 145.988427 
L 806.261193 146.74817 
L 809.932133 150.552676 
L 810.980973 145.827135 
L 814.127493 131.113723 
L 817.798433 156.168129 
L 818.322853 158.931124 
L 821.993793 148.615311 
L 822.518213 148.024659 
L 826.189152 159.426625 
L 826.713572 160.208087 
L 830.384512 157.060921 
L 830.908932 155.639794 
L 834.579872 139.679447 
L 835.104292 139.415024 
L 838.775232 145.033575 
L 839.299652 143.323207 
L 842.970592 126.299993 
L 843.495012 126.825268 
L 847.165952 132.781053 
L 850.836891 132.263613 
L 851.361311 131.915155 
L 855.032251 118.249049 
L 855.556671 117.345981 
L 859.227611 130.959209 
L 859.752031 131.874996 
L 863.422971 127.127991 
L 863.947391 128.568616 
L 867.618331 152.599549 
L 868.142751 154.479299 
L 871.813691 161.481151 
L 872.338111 161.825346 
L 876.009051 162.796889 
L 878.63115 164.668111 
L 880.20441 165.789795 
L 884.39977 150.571589 
L 888.59513 146.044002 
L 892.26607 144.255648 
L 892.79049 143.582637 
L 896.46143 134.040014 
L 896.98585 133.989906 
L 900.65679 142.830694 
L 901.18121 143.004449 
L 904.852149 139.608239 
L 905.376569 141.458216 
L 909.047509 159.968991 
L 909.571929 159.416895 
L 913.767289 151.016655 
L 917.438229 142.863382 
L 921.109169 137.083138 
L 921.633589 135.664197 
L 925.304529 112.470554 
L 925.828949 110.504255 
L 929.499888 113.391917 
L 930.024308 113.193782 
L 933.695248 107.260955 
L 934.219668 105.570302 
L 937.890608 89.925834 
L 938.415028 90.017632 
L 942.085968 96.66053 
L 942.610388 96.266155 
L 946.281328 91.89596 
L 950.476688 108.11982 
L 954.147627 101.368069 
L 954.672047 100.035057 
L 958.342987 81.720413 
L 958.867407 80.479964 
L 962.538347 89.9903 
L 963.062767 90.036217 
L 966.733707 79.963654 
L 967.258127 80.37902 
L 970.929067 92.220768 
L 971.977907 94.503858 
L 975.124427 100.805514 
L 975.648847 99.43453 
L 979.319787 86.572043 
L 980.368626 87.324096 
L 982.990726 89.421259 
L 983.515146 89.692132 
L 987.186086 80.336857 
L 987.710506 79.388345 
L 991.905866 83.570936 
L 998.723326 87.634326 
L 999.772166 88.234526 
L 1000.296586 89.065221 
L 1003.967526 97.603394 
L 1004.491946 96.766285 
L 1008.687305 83.323495 
L 1012.358245 73.894936 
L 1014.455925 72.127281 
L 1016.553605 70.422124 
L 1020.224545 68.737886 
L 1020.748965 68.164471 
L 1024.419905 54.365534 
L 1024.944325 52.874729 
L 1028.615265 49.740719 
L 1029.139685 49.489342 
L 1030.712945 49.489342 
L 1030.712945 49.489342 
" clip-path="url(#pf24af50e8a)" style="fill: none; stroke: #e5ae38; stroke-width: 4"/>
   </g>
   <g id="patch_15">
    <path d="M 749.335404 182.16 
L 749.335404 7.2 
" style="fill: none; stroke: #f0f0f0; stroke-width: 3; stroke-linejoin: miter; stroke-linecap: square"/>
   </g>
   <g id="patch_16">
    <path d="M 1044.111875 182.16 
L 1044.111875 7.2 
" style="fill: none; stroke: #f0f0f0; stroke-width: 3; stroke-linejoin: miter; stroke-linecap: square"/>
   </g>
   <g id="patch_17">
    <path d="M 749.335404 182.16 
L 1044.111875 182.16 
" style="fill: none; stroke: #f0f0f0; stroke-width: 3; stroke-linejoin: miter; stroke-linecap: square"/>
   </g>
   <g id="patch_18">
    <path d="M 749.335404 7.2 
L 1044.111875 7.2 
" style="fill: none; stroke: #f0f0f0; stroke-width: 3; stroke-linejoin: miter; stroke-linecap: square"/>
   </g>
   <g id="legend_3">
    <g id="patch_19">
     <path d="M 759.135404 80.048125 
L 908.410404 80.048125 
Q 911.210404 80.048125 911.210404 77.248125 
L 911.210404 17 
Q 911.210404 14.2 908.410404 14.2 
L 759.135404 14.2 
Q 756.335404 14.2 756.335404 17 
L 756.335404 77.248125 
Q 756.335404 80.048125 759.135404 80.048125 
z
" style="fill: #f0f0f0; opacity: 0.8; stroke: #cccccc; stroke-width: 0.5; stroke-linejoin: miter"/>
    </g>
    <g id="line2d_77">
     <path d="M 761.935404 25.537813 
L 775.935404 25.537813 
L 789.935404 25.537813 
" style="fill: none; stroke: #008fd5; stroke-width: 4"/>
    </g>
    <g id="text_37">
     <!-- target centroid -->
     <g transform="translate(801.135404 30.437813) scale(0.14 -0.14)">
      <defs>
       <path id="DejaVuSans-67" d="M 2906 1791 
Q 2906 2416 2648 2759 
Q 2391 3103 1925 3103 
Q 1463 3103 1205 2759 
Q 947 2416 947 1791 
Q 947 1169 1205 825 
Q 1463 481 1925 481 
Q 2391 481 2648 825 
Q 2906 1169 2906 1791 
z
M 3481 434 
Q 3481 -459 3084 -895 
Q 2688 -1331 1869 -1331 
Q 1566 -1331 1297 -1286 
Q 1028 -1241 775 -1147 
L 775 -588 
Q 1028 -725 1275 -790 
Q 1522 -856 1778 -856 
Q 2344 -856 2625 -561 
Q 2906 -266 2906 331 
L 2906 616 
Q 2728 306 2450 153 
Q 2172 0 1784 0 
Q 1141 0 747 490 
Q 353 981 353 1791 
Q 353 2603 747 3093 
Q 1141 3584 1784 3584 
Q 2172 3584 2450 3431 
Q 2728 3278 2906 2969 
L 2906 3500 
L 3481 3500 
L 3481 434 
z
" transform="scale(0.015625)"/>
       <path id="DejaVuSans-20" transform="scale(0.015625)"/>
       <path id="DejaVuSans-6e" d="M 3513 2113 
L 3513 0 
L 2938 0 
L 2938 2094 
Q 2938 2591 2744 2837 
Q 2550 3084 2163 3084 
Q 1697 3084 1428 2787 
Q 1159 2491 1159 1978 
L 1159 0 
L 581 0 
L 581 3500 
L 1159 3500 
L 1159 2956 
Q 1366 3272 1645 3428 
Q 1925 3584 2291 3584 
Q 2894 3584 3203 3211 
Q 3513 2838 3513 2113 
z
" transform="scale(0.015625)"/>
       <path id="DejaVuSans-6f" d="M 1959 3097 
Q 1497 3097 1228 2736 
Q 959 2375 959 1747 
Q 959 1119 1226 758 
Q 1494 397 1959 397 
Q 2419 397 2687 759 
Q 2956 1122 2956 1747 
Q 2956 2369 2687 2733 
Q 2419 3097 1959 3097 
z
M 1959 3584 
Q 2709 3584 3137 3096 
Q 3566 2609 3566 1747 
Q 3566 888 3137 398 
Q 2709 -91 1959 -91 
Q 1206 -91 779 398 
Q 353 888 353 1747 
Q 353 2609 779 3096 
Q 1206 3584 1959 3584 
z
" transform="scale(0.015625)"/>
       <path id="DejaVuSans-64" d="M 2906 2969 
L 2906 4863 
L 3481 4863 
L 3481 0 
L 2906 0 
L 2906 525 
Q 2725 213 2448 61 
Q 2172 -91 1784 -91 
Q 1150 -91 751 415 
Q 353 922 353 1747 
Q 353 2572 751 3078 
Q 1150 3584 1784 3584 
Q 2172 3584 2448 3432 
Q 2725 3281 2906 2969 
z
M 947 1747 
Q 947 1113 1208 752 
Q 1469 391 1925 391 
Q 2381 391 2643 752 
Q 2906 1113 2906 1747 
Q 2906 2381 2643 2742 
Q 2381 3103 1925 3103 
Q 1469 3103 1208 2742 
Q 947 2381 947 1747 
z
" transform="scale(0.015625)"/>
      </defs>
      <use xlink:href="#DejaVuSans-74"/>
      <use xlink:href="#DejaVuSans-61" x="39.208984"/>
      <use xlink:href="#DejaVuSans-72" x="100.488281"/>
      <use xlink:href="#DejaVuSans-67" x="139.851562"/>
      <use xlink:href="#DejaVuSans-65" x="203.328125"/>
      <use xlink:href="#DejaVuSans-74" x="264.851562"/>
      <use xlink:href="#DejaVuSans-20" x="304.060547"/>
      <use xlink:href="#DejaVuSans-63" x="335.847656"/>
      <use xlink:href="#DejaVuSans-65" x="390.828125"/>
      <use xlink:href="#DejaVuSans-6e" x="452.351562"/>
      <use xlink:href="#DejaVuSans-74" x="515.730469"/>
      <use xlink:href="#DejaVuSans-72" x="554.939453"/>
      <use xlink:href="#DejaVuSans-6f" x="593.802734"/>
      <use xlink:href="#DejaVuSans-69" x="654.984375"/>
      <use xlink:href="#DejaVuSans-64" x="682.767578"/>
     </g>
    </g>
    <g id="line2d_78">
     <path d="M 761.935404 46.087188 
L 775.935404 46.087188 
L 789.935404 46.087188 
" style="fill: none; stroke: #fc4f30; stroke-width: 4"/>
    </g>
    <g id="text_38">
     <!-- biased target -->
     <g transform="translate(801.135404 50.987188) scale(0.14 -0.14)">
      <defs>
       <path id="DejaVuSans-62" d="M 3116 1747 
Q 3116 2381 2855 2742 
Q 2594 3103 2138 3103 
Q 1681 3103 1420 2742 
Q 1159 2381 1159 1747 
Q 1159 1113 1420 752 
Q 1681 391 2138 391 
Q 2594 391 2855 752 
Q 3116 1113 3116 1747 
z
M 1159 2969 
Q 1341 3281 1617 3432 
Q 1894 3584 2278 3584 
Q 2916 3584 3314 3078 
Q 3713 2572 3713 1747 
Q 3713 922 3314 415 
Q 2916 -91 2278 -91 
Q 1894 -91 1617 61 
Q 1341 213 1159 525 
L 1159 0 
L 581 0 
L 581 4863 
L 1159 4863 
L 1159 2969 
z
" transform="scale(0.015625)"/>
       <path id="DejaVuSans-73" d="M 2834 3397 
L 2834 2853 
Q 2591 2978 2328 3040 
Q 2066 3103 1784 3103 
Q 1356 3103 1142 2972 
Q 928 2841 928 2578 
Q 928 2378 1081 2264 
Q 1234 2150 1697 2047 
L 1894 2003 
Q 2506 1872 2764 1633 
Q 3022 1394 3022 966 
Q 3022 478 2636 193 
Q 2250 -91 1575 -91 
Q 1294 -91 989 -36 
Q 684 19 347 128 
L 347 722 
Q 666 556 975 473 
Q 1284 391 1588 391 
Q 1994 391 2212 530 
Q 2431 669 2431 922 
Q 2431 1156 2273 1281 
Q 2116 1406 1581 1522 
L 1381 1569 
Q 847 1681 609 1914 
Q 372 2147 372 2553 
Q 372 3047 722 3315 
Q 1072 3584 1716 3584 
Q 2034 3584 2315 3537 
Q 2597 3491 2834 3397 
z
" transform="scale(0.015625)"/>
      </defs>
      <use xlink:href="#DejaVuSans-62"/>
      <use xlink:href="#DejaVuSans-69" x="63.476562"/>
      <use xlink:href="#DejaVuSans-61" x="91.259766"/>
      <use xlink:href="#DejaVuSans-73" x="152.539062"/>
      <use xlink:href="#DejaVuSans-65" x="204.638672"/>
      <use xlink:href="#DejaVuSans-64" x="266.162109"/>
      <use xlink:href="#DejaVuSans-20" x="329.638672"/>
      <use xlink:href="#DejaVuSans-74" x="361.425781"/>
      <use xlink:href="#DejaVuSans-61" x="400.634766"/>
      <use xlink:href="#DejaVuSans-72" x="461.914062"/>
      <use xlink:href="#DejaVuSans-67" x="501.277344"/>
      <use xlink:href="#DejaVuSans-65" x="564.753906"/>
      <use xlink:href="#DejaVuSans-74" x="626.277344"/>
     </g>
    </g>
    <g id="line2d_79">
     <path d="M 761.935404 66.636563 
L 775.935404 66.636563 
L 789.935404 66.636563 
" style="fill: none; stroke: #e5ae38; stroke-width: 4"/>
    </g>
    <g id="text_39">
     <!-- gen centroid -->
     <g transform="translate(801.135404 71.536563) scale(0.14 -0.14)">
      <use xlink:href="#DejaVuSans-67"/>
      <use xlink:href="#DejaVuSans-65" x="63.476562"/>
      <use xlink:href="#DejaVuSans-6e" x="125"/>
      <use xlink:href="#DejaVuSans-20" x="188.378906"/>
      <use xlink:href="#DejaVuSans-63" x="220.166016"/>
      <use xlink:href="#DejaVuSans-65" x="275.146484"/>
      <use xlink:href="#DejaVuSans-6e" x="336.669922"/>
      <use xlink:href="#DejaVuSans-74" x="400.048828"/>
      <use xlink:href="#DejaVuSans-72" x="439.257812"/>
      <use xlink:href="#DejaVuSans-6f" x="478.121094"/>
      <use xlink:href="#DejaVuSans-69" x="539.302734"/>
      <use xlink:href="#DejaVuSans-64" x="567.085938"/>
     </g>
    </g>
   </g>
  </g>
 </g>
 <defs>
  <clipPath id="p44036b3219">
   <rect x="41.871875" y="7.2" width="294.776471" height="174.96"/>
  </clipPath>
  <clipPath id="pfa7e620972">
   <rect x="395.60364" y="7.2" width="294.776471" height="174.96"/>
  </clipPath>
  <clipPath id="pf24af50e8a">
   <rect x="749.335404" y="7.2" width="294.776471" height="174.96"/>
  </clipPath>
 </defs>
</svg>
