<?xml version="1.0" encoding="utf-8" standalone="no"?>
<!DOCTYPE svg PUBLIC "-//W3C//DTD SVG 1.1//EN"
  "http://www.w3.org/Graphics/SVG/1.1/DTD/svg11.dtd">
<svg xmlns:xlink="http://www.w3.org/1999/xlink" width="1051.311875pt" height="206.409375pt" viewBox="0 0 1051.311875 206.409375" xmlns="http://www.w3.org/2000/svg" version="1.1">
 <metadata>
  <rdf:RDF xmlns:dc="http://purl.org/dc/elements/1.1/" xmlns:cc="http://creativecommons.org/ns#" xmlns:rdf="http://www.w3.org/1999/02/22-rdf-syntax-ns#">
   <cc:Work>
    <dc:type rdf:resource="http://purl.org/dc/dcmitype/StillImage"/>
    <dc:date>2023-01-19T14:55:44.428226</dc:date>
    <dc:format>image/svg+xml</dc:format>
    <dc:creator>
     <cc:Agent>
      <dc:title>Matplotlib v3.6.0, https://matplotlib.org/</dc:title>
     </cc:Agent>
    </dc:creator>
   </cc:Work>
  </rdf:RDF>
 </metadata>
 <defs>
  <style type="text/css">*{stroke-linejoin: round; stroke-linecap: butt}</style>
 </defs>
 <g id="figure_1">
  <g id="patch_1">
   <path d="M 0 206.409375 
L 1051.311875 206.409375 
L 1051.311875 0 
L 0 0 
L 0 206.409375 
z
" style="fill: none"/>
  </g>
  <g id="axes_1">
   <g id="patch_2">
    <path d="M 41.871875 182.16 
L 336.648346 182.16 
L 336.648346 7.2 
L 41.871875 7.2 
L 41.871875 182.16 
z
" style="fill: none"/>
   </g>
   <g id="matplotlib.axis_1">
    <g id="xtick_1">
     <g id="line2d_1">
      <path d="M 55.270805 182.16 
L 55.270805 7.2 
" clip-path="url(#pfd257a4d83)" style="fill: none; stroke: #cbcbcb"/>
     </g>
     <g id="line2d_2"/>
     <g id="text_1">
      <!-- 0 -->
      <g transform="translate(50.817055 196.297813) scale(0.14 -0.14)">
       <defs>
        <path id="DejaVuSans-30" d="M 2034 4250 
Q 1547 4250 1301 3770 
Q 1056 3291 1056 2328 
Q 1056 1369 1301 889 
Q 1547 409 2034 409 
Q 2525 409 2770 889 
Q 3016 1369 3016 2328 
Q 3016 3291 2770 3770 
Q 2525 4250 2034 4250 
z
M 2034 4750 
Q 2819 4750 3233 4129 
Q 3647 3509 3647 2328 
Q 3647 1150 3233 529 
Q 2819 -91 2034 -91 
Q 1250 -91 836 529 
Q 422 1150 422 2328 
Q 422 3509 836 4129 
Q 1250 4750 2034 4750 
z
" transform="scale(0.015625)"/>
       </defs>
       <use xlink:href="#DejaVuSans-30"/>
      </g>
     </g>
    </g>
    <g id="xtick_2">
     <g id="line2d_3">
      <path d="M 107.712803 182.16 
L 107.712803 7.2 
" clip-path="url(#pfd257a4d83)" style="fill: none; stroke: #cbcbcb"/>
     </g>
     <g id="line2d_4"/>
     <g id="text_2">
      <!-- 100 -->
      <g transform="translate(94.351553 196.297813) scale(0.14 -0.14)">
       <defs>
        <path id="DejaVuSans-31" d="M 794 531 
L 1825 531 
L 1825 4091 
L 703 3866 
L 703 4441 
L 1819 4666 
L 2450 4666 
L 2450 531 
L 3481 531 
L 3481 0 
L 794 0 
L 794 531 
z
" transform="scale(0.015625)"/>
       </defs>
       <use xlink:href="#DejaVuSans-31"/>
       <use xlink:href="#DejaVuSans-30" x="63.623047"/>
       <use xlink:href="#DejaVuSans-30" x="127.246094"/>
      </g>
     </g>
    </g>
    <g id="xtick_3">
     <g id="line2d_5">
      <path d="M 160.154801 182.16 
L 160.154801 7.2 
" clip-path="url(#pfd257a4d83)" style="fill: none; stroke: #cbcbcb"/>
     </g>
     <g id="line2d_6"/>
     <g id="text_3">
      <!-- 200 -->
      <g transform="translate(146.793551 196.297813) scale(0.14 -0.14)">
       <defs>
        <path id="DejaVuSans-32" d="M 1228 531 
L 3431 531 
L 3431 0 
L 469 0 
L 469 531 
Q 828 903 1448 1529 
Q 2069 2156 2228 2338 
Q 2531 2678 2651 2914 
Q 2772 3150 2772 3378 
Q 2772 3750 2511 3984 
Q 2250 4219 1831 4219 
Q 1534 4219 1204 4116 
Q 875 4013 500 3803 
L 500 4441 
Q 881 4594 1212 4672 
Q 1544 4750 1819 4750 
Q 2544 4750 2975 4387 
Q 3406 4025 3406 3419 
Q 3406 3131 3298 2873 
Q 3191 2616 2906 2266 
Q 2828 2175 2409 1742 
Q 1991 1309 1228 531 
z
" transform="scale(0.015625)"/>
       </defs>
       <use xlink:href="#DejaVuSans-32"/>
       <use xlink:href="#DejaVuSans-30" x="63.623047"/>
       <use xlink:href="#DejaVuSans-30" x="127.246094"/>
      </g>
     </g>
    </g>
    <g id="xtick_4">
     <g id="line2d_7">
      <path d="M 212.596799 182.16 
L 212.596799 7.2 
" clip-path="url(#pfd257a4d83)" style="fill: none; stroke: #cbcbcb"/>
     </g>
     <g id="line2d_8"/>
     <g id="text_4">
      <!-- 300 -->
      <g transform="translate(199.235549 196.297813) scale(0.14 -0.14)">
       <defs>
        <path id="DejaVuSans-33" d="M 2597 2516 
Q 3050 2419 3304 2112 
Q 3559 1806 3559 1356 
Q 3559 666 3084 287 
Q 2609 -91 1734 -91 
Q 1441 -91 1130 -33 
Q 819 25 488 141 
L 488 750 
Q 750 597 1062 519 
Q 1375 441 1716 441 
Q 2309 441 2620 675 
Q 2931 909 2931 1356 
Q 2931 1769 2642 2001 
Q 2353 2234 1838 2234 
L 1294 2234 
L 1294 2753 
L 1863 2753 
Q 2328 2753 2575 2939 
Q 2822 3125 2822 3475 
Q 2822 3834 2567 4026 
Q 2313 4219 1838 4219 
Q 1578 4219 1281 4162 
Q 984 4106 628 3988 
L 628 4550 
Q 988 4650 1302 4700 
Q 1616 4750 1894 4750 
Q 2613 4750 3031 4423 
Q 3450 4097 3450 3541 
Q 3450 3153 3228 2886 
Q 3006 2619 2597 2516 
z
" transform="scale(0.015625)"/>
       </defs>
       <use xlink:href="#DejaVuSans-33"/>
       <use xlink:href="#DejaVuSans-30" x="63.623047"/>
       <use xlink:href="#DejaVuSans-30" x="127.246094"/>
      </g>
     </g>
    </g>
    <g id="xtick_5">
     <g id="line2d_9">
      <path d="M 265.038797 182.16 
L 265.038797 7.2 
" clip-path="url(#pfd257a4d83)" style="fill: none; stroke: #cbcbcb"/>
     </g>
     <g id="line2d_10"/>
     <g id="text_5">
      <!-- 400 -->
      <g transform="translate(251.677547 196.297813) scale(0.14 -0.14)">
       <defs>
        <path id="DejaVuSans-34" d="M 2419 4116 
L 825 1625 
L 2419 1625 
L 2419 4116 
z
M 2253 4666 
L 3047 4666 
L 3047 1625 
L 3713 1625 
L 3713 1100 
L 3047 1100 
L 3047 0 
L 2419 0 
L 2419 1100 
L 313 1100 
L 313 1709 
L 2253 4666 
z
" transform="scale(0.015625)"/>
       </defs>
       <use xlink:href="#DejaVuSans-34"/>
       <use xlink:href="#DejaVuSans-30" x="63.623047"/>
       <use xlink:href="#DejaVuSans-30" x="127.246094"/>
      </g>
     </g>
    </g>
    <g id="xtick_6">
     <g id="line2d_11">
      <path d="M 317.480795 182.16 
L 317.480795 7.2 
" clip-path="url(#pfd257a4d83)" style="fill: none; stroke: #cbcbcb"/>
     </g>
     <g id="line2d_12"/>
     <g id="text_6">
      <!-- 500 -->
      <g transform="translate(304.119545 196.297813) scale(0.14 -0.14)">
       <defs>
        <path id="DejaVuSans-35" d="M 691 4666 
L 3169 4666 
L 3169 4134 
L 1269 4134 
L 1269 2991 
Q 1406 3038 1543 3061 
Q 1681 3084 1819 3084 
Q 2600 3084 3056 2656 
Q 3513 2228 3513 1497 
Q 3513 744 3044 326 
Q 2575 -91 1722 -91 
Q 1428 -91 1123 -41 
Q 819 9 494 109 
L 494 744 
Q 775 591 1075 516 
Q 1375 441 1709 441 
Q 2250 441 2565 725 
Q 2881 1009 2881 1497 
Q 2881 1984 2565 2268 
Q 2250 2553 1709 2553 
Q 1456 2553 1204 2497 
Q 953 2441 691 2322 
L 691 4666 
z
" transform="scale(0.015625)"/>
       </defs>
       <use xlink:href="#DejaVuSans-35"/>
       <use xlink:href="#DejaVuSans-30" x="63.623047"/>
       <use xlink:href="#DejaVuSans-30" x="127.246094"/>
      </g>
     </g>
    </g>
   </g>
   <g id="matplotlib.axis_2">
    <g id="ytick_1">
     <g id="line2d_13">
      <path d="M 41.871875 174.207273 
L 336.648346 174.207273 
" clip-path="url(#pfd257a4d83)" style="fill: none; stroke: #cbcbcb"/>
     </g>
     <g id="line2d_14"/>
     <g id="text_7">
      <!-- 0.00 -->
      <g transform="translate(7.2 179.526179) scale(0.14 -0.14)">
       <defs>
        <path id="DejaVuSans-2e" d="M 684 794 
L 1344 794 
L 1344 0 
L 684 0 
L 684 794 
z
" transform="scale(0.015625)"/>
       </defs>
       <use xlink:href="#DejaVuSans-30"/>
       <use xlink:href="#DejaVuSans-2e" x="63.623047"/>
       <use xlink:href="#DejaVuSans-30" x="95.410156"/>
       <use xlink:href="#DejaVuSans-30" x="159.033203"/>
      </g>
     </g>
    </g>
    <g id="ytick_2">
     <g id="line2d_15">
      <path d="M 41.871875 142.23966 
L 336.648346 142.23966 
" clip-path="url(#pfd257a4d83)" style="fill: none; stroke: #cbcbcb"/>
     </g>
     <g id="line2d_16"/>
     <g id="text_8">
      <!-- 0.02 -->
      <g transform="translate(7.2 147.558566) scale(0.14 -0.14)">
       <use xlink:href="#DejaVuSans-30"/>
       <use xlink:href="#DejaVuSans-2e" x="63.623047"/>
       <use xlink:href="#DejaVuSans-30" x="95.410156"/>
       <use xlink:href="#DejaVuSans-32" x="159.033203"/>
      </g>
     </g>
    </g>
    <g id="ytick_3">
     <g id="line2d_17">
      <path d="M 41.871875 110.272048 
L 336.648346 110.272048 
" clip-path="url(#pfd257a4d83)" style="fill: none; stroke: #cbcbcb"/>
     </g>
     <g id="line2d_18"/>
     <g id="text_9">
      <!-- 0.04 -->
      <g transform="translate(7.2 115.590954) scale(0.14 -0.14)">
       <use xlink:href="#DejaVuSans-30"/>
       <use xlink:href="#DejaVuSans-2e" x="63.623047"/>
       <use xlink:href="#DejaVuSans-30" x="95.410156"/>
       <use xlink:href="#DejaVuSans-34" x="159.033203"/>
      </g>
     </g>
    </g>
    <g id="ytick_4">
     <g id="line2d_19">
      <path d="M 41.871875 78.304435 
L 336.648346 78.304435 
" clip-path="url(#pfd257a4d83)" style="fill: none; stroke: #cbcbcb"/>
     </g>
     <g id="line2d_20"/>
     <g id="text_10">
      <!-- 0.06 -->
      <g transform="translate(7.2 83.623341) scale(0.14 -0.14)">
       <defs>
        <path id="DejaVuSans-36" d="M 2113 2584 
Q 1688 2584 1439 2293 
Q 1191 2003 1191 1497 
Q 1191 994 1439 701 
Q 1688 409 2113 409 
Q 2538 409 2786 701 
Q 3034 994 3034 1497 
Q 3034 2003 2786 2293 
Q 2538 2584 2113 2584 
z
M 3366 4563 
L 3366 3988 
Q 3128 4100 2886 4159 
Q 2644 4219 2406 4219 
Q 1781 4219 1451 3797 
Q 1122 3375 1075 2522 
Q 1259 2794 1537 2939 
Q 1816 3084 2150 3084 
Q 2853 3084 3261 2657 
Q 3669 2231 3669 1497 
Q 3669 778 3244 343 
Q 2819 -91 2113 -91 
Q 1303 -91 875 529 
Q 447 1150 447 2328 
Q 447 3434 972 4092 
Q 1497 4750 2381 4750 
Q 2619 4750 2861 4703 
Q 3103 4656 3366 4563 
z
" transform="scale(0.015625)"/>
       </defs>
       <use xlink:href="#DejaVuSans-30"/>
       <use xlink:href="#DejaVuSans-2e" x="63.623047"/>
       <use xlink:href="#DejaVuSans-30" x="95.410156"/>
       <use xlink:href="#DejaVuSans-36" x="159.033203"/>
      </g>
     </g>
    </g>
    <g id="ytick_5">
     <g id="line2d_21">
      <path d="M 41.871875 46.336822 
L 336.648346 46.336822 
" clip-path="url(#pfd257a4d83)" style="fill: none; stroke: #cbcbcb"/>
     </g>
     <g id="line2d_22"/>
     <g id="text_11">
      <!-- 0.08 -->
      <g transform="translate(7.2 51.655729) scale(0.14 -0.14)">
       <defs>
        <path id="DejaVuSans-38" d="M 2034 2216 
Q 1584 2216 1326 1975 
Q 1069 1734 1069 1313 
Q 1069 891 1326 650 
Q 1584 409 2034 409 
Q 2484 409 2743 651 
Q 3003 894 3003 1313 
Q 3003 1734 2745 1975 
Q 2488 2216 2034 2216 
z
M 1403 2484 
Q 997 2584 770 2862 
Q 544 3141 544 3541 
Q 544 4100 942 4425 
Q 1341 4750 2034 4750 
Q 2731 4750 3128 4425 
Q 3525 4100 3525 3541 
Q 3525 3141 3298 2862 
Q 3072 2584 2669 2484 
Q 3125 2378 3379 2068 
Q 3634 1759 3634 1313 
Q 3634 634 3220 271 
Q 2806 -91 2034 -91 
Q 1263 -91 848 271 
Q 434 634 434 1313 
Q 434 1759 690 2068 
Q 947 2378 1403 2484 
z
M 1172 3481 
Q 1172 3119 1398 2916 
Q 1625 2713 2034 2713 
Q 2441 2713 2670 2916 
Q 2900 3119 2900 3481 
Q 2900 3844 2670 4047 
Q 2441 4250 2034 4250 
Q 1625 4250 1398 4047 
Q 1172 3844 1172 3481 
z
" transform="scale(0.015625)"/>
       </defs>
       <use xlink:href="#DejaVuSans-30"/>
       <use xlink:href="#DejaVuSans-2e" x="63.623047"/>
       <use xlink:href="#DejaVuSans-30" x="95.410156"/>
       <use xlink:href="#DejaVuSans-38" x="159.033203"/>
      </g>
     </g>
    </g>
    <g id="ytick_6">
     <g id="line2d_23">
      <path d="M 41.871875 14.36921 
L 336.648346 14.36921 
" clip-path="url(#pfd257a4d83)" style="fill: none; stroke: #cbcbcb"/>
     </g>
     <g id="line2d_24"/>
     <g id="text_12">
      <!-- 0.10 -->
      <g transform="translate(7.2 19.688116) scale(0.14 -0.14)">
       <use xlink:href="#DejaVuSans-30"/>
       <use xlink:href="#DejaVuSans-2e" x="63.623047"/>
       <use xlink:href="#DejaVuSans-31" x="95.410156"/>
       <use xlink:href="#DejaVuSans-30" x="159.033203"/>
      </g>
     </g>
    </g>
   </g>
   <g id="line2d_25">
    <path d="M 55.270805 15.152727 
L 188.9979 15.152727 
L 189.52232 174.207273 
L 323.249415 174.207273 
L 323.249415 174.207273 
" clip-path="url(#pfd257a4d83)" style="fill: none; stroke: #008fd5; stroke-width: 4"/>
   </g>
   <g id="patch_3">
    <path d="M 41.871875 182.16 
L 41.871875 7.2 
" style="fill: none; stroke: #f0f0f0; stroke-width: 3; stroke-linejoin: miter; stroke-linecap: square"/>
   </g>
   <g id="patch_4">
    <path d="M 336.648346 182.16 
L 336.648346 7.2 
" style="fill: none; stroke: #f0f0f0; stroke-width: 3; stroke-linejoin: miter; stroke-linecap: square"/>
   </g>
   <g id="patch_5">
    <path d="M 41.871875 182.16 
L 336.648346 182.16 
" style="fill: none; stroke: #f0f0f0; stroke-width: 3; stroke-linejoin: miter; stroke-linecap: square"/>
   </g>
   <g id="patch_6">
    <path d="M 41.871875 7.2 
L 336.648346 7.2 
" style="fill: none; stroke: #f0f0f0; stroke-width: 3; stroke-linejoin: miter; stroke-linecap: square"/>
   </g>
   <g id="legend_1">
    <g id="patch_7">
     <path d="M 218.882096 38.949375 
L 326.848346 38.949375 
Q 329.648346 38.949375 329.648346 36.149375 
L 329.648346 17 
Q 329.648346 14.2 326.848346 14.2 
L 218.882096 14.2 
Q 216.082096 14.2 216.082096 17 
L 216.082096 36.149375 
Q 216.082096 38.949375 218.882096 38.949375 
z
" style="fill: #f0f0f0; opacity: 0.8; stroke: #cccccc; stroke-width: 0.5; stroke-linejoin: miter"/>
    </g>
    <g id="line2d_26">
     <path d="M 221.682096 25.537813 
L 235.682096 25.537813 
L 249.682096 25.537813 
" style="fill: none; stroke: #008fd5; stroke-width: 4"/>
    </g>
    <g id="text_13">
     <!-- accuracy -->
     <g transform="translate(260.882096 30.437813) scale(0.14 -0.14)">
      <defs>
       <path id="DejaVuSans-61" d="M 2194 1759 
Q 1497 1759 1228 1600 
Q 959 1441 959 1056 
Q 959 750 1161 570 
Q 1363 391 1709 391 
Q 2188 391 2477 730 
Q 2766 1069 2766 1631 
L 2766 1759 
L 2194 1759 
z
M 3341 1997 
L 3341 0 
L 2766 0 
L 2766 531 
Q 2569 213 2275 61 
Q 1981 -91 1556 -91 
Q 1019 -91 701 211 
Q 384 513 384 1019 
Q 384 1609 779 1909 
Q 1175 2209 1959 2209 
L 2766 2209 
L 2766 2266 
Q 2766 2663 2505 2880 
Q 2244 3097 1772 3097 
Q 1472 3097 1187 3025 
Q 903 2953 641 2809 
L 641 3341 
Q 956 3463 1253 3523 
Q 1550 3584 1831 3584 
Q 2591 3584 2966 3190 
Q 3341 2797 3341 1997 
z
" transform="scale(0.015625)"/>
       <path id="DejaVuSans-63" d="M 3122 3366 
L 3122 2828 
Q 2878 2963 2633 3030 
Q 2388 3097 2138 3097 
Q 1578 3097 1268 2742 
Q 959 2388 959 1747 
Q 959 1106 1268 751 
Q 1578 397 2138 397 
Q 2388 397 2633 464 
Q 2878 531 3122 666 
L 3122 134 
Q 2881 22 2623 -34 
Q 2366 -91 2075 -91 
Q 1284 -91 818 406 
Q 353 903 353 1747 
Q 353 2603 823 3093 
Q 1294 3584 2113 3584 
Q 2378 3584 2631 3529 
Q 2884 3475 3122 3366 
z
" transform="scale(0.015625)"/>
       <path id="DejaVuSans-75" d="M 544 1381 
L 544 3500 
L 1119 3500 
L 1119 1403 
Q 1119 906 1312 657 
Q 1506 409 1894 409 
Q 2359 409 2629 706 
Q 2900 1003 2900 1516 
L 2900 3500 
L 3475 3500 
L 3475 0 
L 2900 0 
L 2900 538 
Q 2691 219 2414 64 
Q 2138 -91 1772 -91 
Q 1169 -91 856 284 
Q 544 659 544 1381 
z
M 1991 3584 
L 1991 3584 
z
" transform="scale(0.015625)"/>
       <path id="DejaVuSans-72" d="M 2631 2963 
Q 2534 3019 2420 3045 
Q 2306 3072 2169 3072 
Q 1681 3072 1420 2755 
Q 1159 2438 1159 1844 
L 1159 0 
L 581 0 
L 581 3500 
L 1159 3500 
L 1159 2956 
Q 1341 3275 1631 3429 
Q 1922 3584 2338 3584 
Q 2397 3584 2469 3576 
Q 2541 3569 2628 3553 
L 2631 2963 
z
" transform="scale(0.015625)"/>
       <path id="DejaVuSans-79" d="M 2059 -325 
Q 1816 -950 1584 -1140 
Q 1353 -1331 966 -1331 
L 506 -1331 
L 506 -850 
L 844 -850 
Q 1081 -850 1212 -737 
Q 1344 -625 1503 -206 
L 1606 56 
L 191 3500 
L 800 3500 
L 1894 763 
L 2988 3500 
L 3597 3500 
L 2059 -325 
z
" transform="scale(0.015625)"/>
      </defs>
      <use xlink:href="#DejaVuSans-61"/>
      <use xlink:href="#DejaVuSans-63" x="61.279297"/>
      <use xlink:href="#DejaVuSans-63" x="116.259766"/>
      <use xlink:href="#DejaVuSans-75" x="171.240234"/>
      <use xlink:href="#DejaVuSans-72" x="234.619141"/>
      <use xlink:href="#DejaVuSans-61" x="275.732422"/>
      <use xlink:href="#DejaVuSans-63" x="337.011719"/>
      <use xlink:href="#DejaVuSans-79" x="391.992188"/>
     </g>
    </g>
   </g>
  </g>
  <g id="axes_2">
   <g id="patch_8">
    <path d="M 395.60364 182.16 
L 690.38011 182.16 
L 690.38011 7.2 
L 395.60364 7.2 
L 395.60364 182.16 
z
" style="fill: none"/>
   </g>
   <g id="matplotlib.axis_3">
    <g id="xtick_7">
     <g id="line2d_27">
      <path d="M 409.00257 182.16 
L 409.00257 7.2 
" clip-path="url(#p5d38dca784)" style="fill: none; stroke: #cbcbcb"/>
     </g>
     <g id="line2d_28"/>
     <g id="text_14">
      <!-- 0 -->
      <g transform="translate(404.54882 196.297813) scale(0.14 -0.14)">
       <use xlink:href="#DejaVuSans-30"/>
      </g>
     </g>
    </g>
    <g id="xtick_8">
     <g id="line2d_29">
      <path d="M 461.444568 182.16 
L 461.444568 7.2 
" clip-path="url(#p5d38dca784)" style="fill: none; stroke: #cbcbcb"/>
     </g>
     <g id="line2d_30"/>
     <g id="text_15">
      <!-- 100 -->
      <g transform="translate(448.083318 196.297813) scale(0.14 -0.14)">
       <use xlink:href="#DejaVuSans-31"/>
       <use xlink:href="#DejaVuSans-30" x="63.623047"/>
       <use xlink:href="#DejaVuSans-30" x="127.246094"/>
      </g>
     </g>
    </g>
    <g id="xtick_9">
     <g id="line2d_31">
      <path d="M 513.886566 182.16 
L 513.886566 7.2 
" clip-path="url(#p5d38dca784)" style="fill: none; stroke: #cbcbcb"/>
     </g>
     <g id="line2d_32"/>
     <g id="text_16">
      <!-- 200 -->
      <g transform="translate(500.525316 196.297813) scale(0.14 -0.14)">
       <use xlink:href="#DejaVuSans-32"/>
       <use xlink:href="#DejaVuSans-30" x="63.623047"/>
       <use xlink:href="#DejaVuSans-30" x="127.246094"/>
      </g>
     </g>
    </g>
    <g id="xtick_10">
     <g id="line2d_33">
      <path d="M 566.328564 182.16 
L 566.328564 7.2 
" clip-path="url(#p5d38dca784)" style="fill: none; stroke: #cbcbcb"/>
     </g>
     <g id="line2d_34"/>
     <g id="text_17">
      <!-- 300 -->
      <g transform="translate(552.967314 196.297813) scale(0.14 -0.14)">
       <use xlink:href="#DejaVuSans-33"/>
       <use xlink:href="#DejaVuSans-30" x="63.623047"/>
       <use xlink:href="#DejaVuSans-30" x="127.246094"/>
      </g>
     </g>
    </g>
    <g id="xtick_11">
     <g id="line2d_35">
      <path d="M 618.770562 182.16 
L 618.770562 7.2 
" clip-path="url(#p5d38dca784)" style="fill: none; stroke: #cbcbcb"/>
     </g>
     <g id="line2d_36"/>
     <g id="text_18">
      <!-- 400 -->
      <g transform="translate(605.409312 196.297813) scale(0.14 -0.14)">
       <use xlink:href="#DejaVuSans-34"/>
       <use xlink:href="#DejaVuSans-30" x="63.623047"/>
       <use xlink:href="#DejaVuSans-30" x="127.246094"/>
      </g>
     </g>
    </g>
    <g id="xtick_12">
     <g id="line2d_37">
      <path d="M 671.21256 182.16 
L 671.21256 7.2 
" clip-path="url(#p5d38dca784)" style="fill: none; stroke: #cbcbcb"/>
     </g>
     <g id="line2d_38"/>
     <g id="text_19">
      <!-- 500 -->
      <g transform="translate(657.85131 196.297813) scale(0.14 -0.14)">
       <use xlink:href="#DejaVuSans-35"/>
       <use xlink:href="#DejaVuSans-30" x="63.623047"/>
       <use xlink:href="#DejaVuSans-30" x="127.246094"/>
      </g>
     </g>
    </g>
   </g>
   <g id="matplotlib.axis_4">
    <g id="ytick_7">
     <g id="line2d_39">
      <path d="M 395.60364 175.656163 
L 690.38011 175.656163 
" clip-path="url(#p5d38dca784)" style="fill: none; stroke: #cbcbcb"/>
     </g>
     <g id="line2d_40"/>
     <g id="text_20">
      <!-- 0 -->
      <g transform="translate(383.19614 180.975069) scale(0.14 -0.14)">
       <use xlink:href="#DejaVuSans-30"/>
      </g>
     </g>
    </g>
    <g id="ytick_8">
     <g id="line2d_41">
      <path d="M 395.60364 139.45739 
L 690.38011 139.45739 
" clip-path="url(#p5d38dca784)" style="fill: none; stroke: #cbcbcb"/>
     </g>
     <g id="line2d_42"/>
     <g id="text_21">
      <!-- 25 -->
      <g transform="translate(374.28864 144.776296) scale(0.14 -0.14)">
       <use xlink:href="#DejaVuSans-32"/>
       <use xlink:href="#DejaVuSans-35" x="63.623047"/>
      </g>
     </g>
    </g>
    <g id="ytick_9">
     <g id="line2d_43">
      <path d="M 395.60364 103.258617 
L 690.38011 103.258617 
" clip-path="url(#p5d38dca784)" style="fill: none; stroke: #cbcbcb"/>
     </g>
     <g id="line2d_44"/>
     <g id="text_22">
      <!-- 50 -->
      <g transform="translate(374.28864 108.577523) scale(0.14 -0.14)">
       <use xlink:href="#DejaVuSans-35"/>
       <use xlink:href="#DejaVuSans-30" x="63.623047"/>
      </g>
     </g>
    </g>
    <g id="ytick_10">
     <g id="line2d_45">
      <path d="M 395.60364 67.059843 
L 690.38011 67.059843 
" clip-path="url(#p5d38dca784)" style="fill: none; stroke: #cbcbcb"/>
     </g>
     <g id="line2d_46"/>
     <g id="text_23">
      <!-- 75 -->
      <g transform="translate(374.28864 72.37875) scale(0.14 -0.14)">
       <defs>
        <path id="DejaVuSans-37" d="M 525 4666 
L 3525 4666 
L 3525 4397 
L 1831 0 
L 1172 0 
L 2766 4134 
L 525 4134 
L 525 4666 
z
" transform="scale(0.015625)"/>
       </defs>
       <use xlink:href="#DejaVuSans-37"/>
       <use xlink:href="#DejaVuSans-35" x="63.623047"/>
      </g>
     </g>
    </g>
    <g id="ytick_11">
     <g id="line2d_47">
      <path d="M 395.60364 30.86107 
L 690.38011 30.86107 
" clip-path="url(#p5d38dca784)" style="fill: none; stroke: #cbcbcb"/>
     </g>
     <g id="line2d_48"/>
     <g id="text_24">
      <!-- 100 -->
      <g transform="translate(365.38114 36.179977) scale(0.14 -0.14)">
       <use xlink:href="#DejaVuSans-31"/>
       <use xlink:href="#DejaVuSans-30" x="63.623047"/>
       <use xlink:href="#DejaVuSans-30" x="127.246094"/>
      </g>
     </g>
    </g>
   </g>
   <g id="line2d_49">
    <path d="M 409.00257 22.202142 
L 409.52699 93.576831 
L 410.05141 130.562056 
L 410.57583 94.168342 
L 411.10025 98.576151 
L 411.62467 72.669957 
L 412.14909 147.065495 
L 412.67351 129.637003 
L 413.19793 49.196155 
L 413.72235 91.405148 
L 414.24677 77.0806 
L 414.77119 97.635605 
L 415.29561 106.21183 
L 415.82003 111.571172 
L 416.34445 101.553006 
L 417.39329 134.634553 
L 417.91771 125.744425 
L 418.44213 110.207548 
L 418.96655 132.357559 
L 419.49097 110.355467 
L 420.01539 103.288664 
L 420.53981 103.887019 
L 421.06423 91.395316 
L 421.58865 68.122553 
L 422.11307 92.097921 
L 422.63749 139.120749 
L 424.21075 75.465089 
L 424.73517 104.717951 
L 425.25959 99.402958 
L 426.30843 155.190905 
L 426.832849 152.787993 
L 427.357269 152.303684 
L 427.881689 134.819234 
L 428.406109 141.711611 
L 428.930529 146.376359 
L 429.454949 101.741732 
L 429.979369 79.734783 
L 430.503789 108.41307 
L 431.028209 115.314444 
L 431.552629 94.198307 
L 433.125889 61.474177 
L 433.650309 77.621361 
L 434.174729 77.586132 
L 434.699149 95.397579 
L 435.223569 109.405647 
L 435.747989 127.238613 
L 436.272409 115.866716 
L 436.796829 159.215302 
L 437.321249 137.399305 
L 437.845669 150.63022 
L 438.370089 153.836243 
L 438.894509 159.852426 
L 439.418929 155.371428 
L 439.943349 156.057483 
L 440.467769 130.015235 
L 440.992189 86.52366 
L 441.516609 106.862039 
L 442.041029 99.415557 
L 442.565449 101.764489 
L 443.089869 102.860914 
L 443.614289 128.191781 
L 444.138709 122.417525 
L 444.663129 113.731863 
L 445.187549 96.03994 
L 445.711969 111.510076 
L 446.236389 116.971647 
L 447.285229 124.08672 
L 447.809649 152.201679 
L 448.334069 149.447546 
L 448.858489 153.318823 
L 449.382909 118.563325 
L 449.907329 144.915464 
L 450.431749 150.251513 
L 450.956169 157.927799 
L 451.480589 148.051632 
L 452.005009 132.322184 
L 453.053848 158.875129 
L 453.578268 142.60616 
L 454.102688 140.740334 
L 454.627108 122.366438 
L 455.151528 141.225322 
L 455.675948 156.084609 
L 456.200368 149.585123 
L 456.724788 152.577709 
L 457.249208 133.134797 
L 457.773628 139.427231 
L 458.298048 135.620544 
L 458.822468 163.466055 
L 459.346888 144.194454 
L 459.871308 157.707282 
L 460.395728 157.436767 
L 461.444568 161.772315 
L 461.968988 161.507229 
L 463.017828 144.171187 
L 463.542248 142.110675 
L 464.066668 117.440586 
L 464.591088 115.541548 
L 465.115508 133.616648 
L 465.639928 129.98846 
L 466.164348 129.864839 
L 466.688768 136.144188 
L 467.213188 126.544796 
L 467.737608 142.735655 
L 468.262028 125.850079 
L 468.786448 158.78208 
L 469.310868 149.707518 
L 469.835288 164.539966 
L 470.359708 157.179588 
L 470.884128 153.745113 
L 471.408548 152.338416 
L 471.932968 161.345556 
L 472.457388 160.878956 
L 472.981808 151.407028 
L 473.506228 156.004786 
L 474.030648 142.935537 
L 474.555068 146.317835 
L 475.079488 121.373833 
L 475.603908 121.028052 
L 476.128328 131.1172 
L 476.652748 132.753373 
L 477.177168 108.781807 
L 477.701588 121.138853 
L 478.226008 120.514908 
L 478.750427 153.481491 
L 479.274847 147.058011 
L 479.799267 131.613486 
L 480.323687 160.078135 
L 480.848107 157.490601 
L 481.372527 140.342016 
L 481.896947 155.970243 
L 482.421367 160.651444 
L 482.945787 154.589922 
L 483.470207 160.619612 
L 483.994627 161.142742 
L 484.519047 142.338643 
L 485.043467 136.309368 
L 485.567887 146.691068 
L 486.092307 128.723268 
L 486.616727 118.125776 
L 487.141147 150.114326 
L 488.189987 108.80394 
L 489.238827 152.172496 
L 489.763247 139.797861 
L 490.287667 151.302474 
L 490.812087 135.346159 
L 491.336507 155.443719 
L 491.860927 154.311911 
L 492.385347 161.969244 
L 492.909767 143.530094 
L 493.434187 149.254254 
L 493.958607 148.159589 
L 494.483027 163.099984 
L 495.007447 150.515718 
L 495.531867 158.540335 
L 496.056287 154.357372 
L 496.580707 147.949251 
L 497.105127 149.862013 
L 497.629547 147.767827 
L 498.153967 131.946898 
L 498.678387 150.357871 
L 499.202807 162.27965 
L 499.727227 150.962594 
L 500.251647 153.375361 
L 500.776067 158.592576 
L 501.300487 132.470252 
L 501.824907 147.991304 
L 502.349327 157.737715 
L 502.873747 155.796469 
L 503.398167 156.136595 
L 503.922587 160.111463 
L 504.447006 159.864659 
L 504.971426 160.764191 
L 505.495846 158.294968 
L 506.020266 154.006007 
L 506.544686 158.519547 
L 507.069106 160.116026 
L 507.593526 122.689668 
L 508.117946 146.558736 
L 508.642366 118.444559 
L 509.166786 131.198161 
L 509.691206 148.614236 
L 510.215626 151.256383 
L 510.740046 132.602832 
L 511.264466 146.566652 
L 511.788886 136.043555 
L 512.313306 143.758082 
L 512.837726 146.889412 
L 513.362146 162.673882 
L 513.886566 160.327397 
L 514.410986 159.55668 
L 514.935406 158.512462 
L 515.459826 152.02949 
L 515.984246 158.863071 
L 516.508666 161.398322 
L 517.033086 145.869951 
L 517.557506 140.397563 
L 518.081926 138.438255 
L 518.606346 133.513171 
L 519.130766 118.637422 
L 519.655186 145.596373 
L 520.179606 101.687834 
L 520.704026 141.055066 
L 521.228446 126.198727 
L 521.752866 132.344048 
L 522.277286 139.930389 
L 522.801706 122.304437 
L 523.326126 149.408677 
L 523.850546 137.279619 
L 524.374966 151.048791 
L 524.899386 160.487198 
L 525.423806 159.095227 
L 525.948226 156.018712 
L 526.472646 164.244594 
L 526.997066 158.627924 
L 527.521486 162.660311 
L 528.045906 151.607591 
L 529.619166 139.67794 
L 530.143585 143.574763 
L 530.668005 140.727186 
L 531.192425 141.070656 
L 531.716845 140.470608 
L 532.241265 116.158434 
L 532.765685 143.828081 
L 533.290105 136.484225 
L 533.814525 134.274537 
L 534.338945 150.657791 
L 534.863365 141.963598 
L 535.387785 163.970134 
L 535.912205 148.995249 
L 536.436625 155.978819 
L 536.961045 144.52572 
L 537.485465 159.458249 
L 538.009885 163.850929 
L 538.534305 158.130714 
L 539.058725 150.23748 
L 539.583145 156.575406 
L 540.107565 160.615094 
L 540.631985 155.439469 
L 541.156405 159.400908 
L 541.680825 146.957759 
L 542.205245 143.717553 
L 542.729665 156.730678 
L 543.254085 110.654067 
L 543.778505 146.225938 
L 544.302925 147.608394 
L 544.827345 128.927118 
L 545.351765 145.391142 
L 545.876185 137.697193 
L 546.400605 141.873581 
L 546.925025 123.403237 
L 547.449445 153.345872 
L 547.973865 145.757446 
L 548.498285 152.210702 
L 549.022705 151.970344 
L 549.547125 140.603255 
L 550.071545 142.557175 
L 550.595965 136.923467 
L 551.120385 138.779842 
L 551.644805 107.878125 
L 552.169225 101.459697 
L 552.693645 100.763378 
L 553.218065 103.865858 
L 553.742485 112.08241 
L 554.266905 127.444397 
L 554.791325 122.023358 
L 555.315745 129.492647 
L 555.840165 118.553714 
L 556.364584 139.492914 
L 556.889004 135.959424 
L 557.413424 148.338257 
L 557.937844 151.722038 
L 558.462264 153.577459 
L 558.986684 147.890553 
L 559.511104 146.233052 
L 560.035524 155.185595 
L 561.084364 126.440181 
L 561.608784 119.107941 
L 562.133204 141.146419 
L 562.657624 141.639322 
L 563.182044 112.507476 
L 563.706464 93.998572 
L 564.230884 89.770116 
L 565.804144 122.469689 
L 566.328564 123.487713 
L 566.852984 116.260757 
L 567.377404 140.25269 
L 567.901824 128.490121 
L 568.426244 151.498875 
L 568.950664 144.470328 
L 569.475084 147.756655 
L 569.999504 137.081848 
L 570.523924 135.885873 
L 571.048344 145.037464 
L 571.572764 142.863563 
L 572.097184 115.288467 
L 572.621604 126.85852 
L 573.146024 134.482243 
L 573.670444 128.514044 
L 574.194864 123.996748 
L 574.719284 125.022698 
L 575.243704 136.329131 
L 575.768124 121.02086 
L 576.292544 101.376221 
L 576.816964 116.833582 
L 577.341384 111.247081 
L 577.865804 119.545358 
L 578.390224 143.601753 
L 578.914644 148.778855 
L 579.439064 145.759548 
L 579.963484 139.363266 
L 580.487904 156.754715 
L 581.012324 138.272484 
L 581.536744 141.616366 
L 582.061163 154.88119 
L 582.585583 156.146669 
L 583.634423 141.230937 
L 584.158843 149.649828 
L 584.683263 153.281442 
L 585.207683 145.300711 
L 585.732103 146.463843 
L 586.256523 110.287114 
L 586.780943 124.997533 
L 587.305363 145.528671 
L 587.829783 150.306234 
L 588.354203 145.679543 
L 588.878623 139.152744 
L 589.403043 125.820445 
L 589.927463 144.283118 
L 590.451883 143.758631 
L 590.976303 153.094077 
L 591.500723 150.163811 
L 592.025143 137.386248 
L 592.549563 149.384009 
L 593.073983 142.012544 
L 593.598403 150.915685 
L 594.122823 149.679566 
L 594.647243 144.97164 
L 595.171663 142.991711 
L 595.696083 119.275977 
L 596.220503 112.612223 
L 596.744923 93.847626 
L 597.269343 119.007408 
L 597.793763 125.479635 
L 598.318183 151.170813 
L 598.842603 125.759289 
L 599.367023 123.735321 
L 599.891443 121.200838 
L 600.415863 133.797713 
L 600.940283 123.500241 
L 601.989123 152.476818 
L 602.513543 149.093026 
L 603.037963 148.709315 
L 603.562383 149.245082 
L 604.086803 142.599164 
L 604.611223 142.971277 
L 605.135643 103.1907 
L 605.660063 100.933386 
L 606.184483 130.217094 
L 606.708903 131.195515 
L 607.233323 122.829224 
L 607.757742 125.61374 
L 608.282162 125.428244 
L 608.806582 118.299644 
L 609.331002 103.087935 
L 609.855422 138.726612 
L 610.379842 132.165104 
L 610.904262 114.423781 
L 611.428682 129.602802 
L 611.953102 134.159105 
L 612.477522 148.265187 
L 613.001942 145.703086 
L 613.526362 156.8966 
L 614.050782 132.853621 
L 614.575202 137.045934 
L 615.099622 143.713256 
L 615.624042 134.020136 
L 616.148462 119.680672 
L 616.672882 145.854334 
L 617.197302 150.945929 
L 617.721722 151.118036 
L 618.770562 116.415735 
L 619.294982 118.63339 
L 619.819402 128.617322 
L 620.343822 145.697889 
L 620.868242 146.919139 
L 621.392662 129.422222 
L 621.917082 116.688596 
L 622.441502 134.829897 
L 622.965922 138.000977 
L 623.490342 149.210887 
L 624.014762 136.996159 
L 624.539182 127.609533 
L 625.063602 123.178425 
L 625.588022 133.466439 
L 626.112442 157.634762 
L 626.636862 149.494684 
L 627.161282 161.584077 
L 627.685702 166.037247 
L 628.210122 167.511775 
L 628.734542 170.322561 
L 629.258962 172.241856 
L 629.783382 171.444859 
L 630.307802 168.913625 
L 630.832222 155.863386 
L 631.356642 128.50367 
L 632.405482 111.676207 
L 632.929902 76.530582 
L 633.454321 93.834955 
L 633.978741 15.152727 
L 635.027581 75.536231 
L 635.552001 65.938044 
L 636.076421 68.160068 
L 636.600841 95.161014 
L 637.125261 105.773508 
L 637.649681 125.377207 
L 638.174101 128.334011 
L 638.698521 126.541212 
L 639.222941 140.771556 
L 639.747361 138.653467 
L 640.271781 141.293827 
L 640.796201 147.749422 
L 641.320621 151.038851 
L 642.369461 164.212044 
L 642.893881 167.834248 
L 643.418301 166.395566 
L 643.942721 170.390424 
L 644.467141 171.845275 
L 644.991561 172.820369 
L 645.515981 173.379831 
L 646.564821 174.052636 
L 647.613661 174.128991 
L 649.186921 174.139165 
L 654.431121 174.201135 
L 676.98118 174.207264 
L 676.98118 174.207264 
" clip-path="url(#p5d38dca784)" style="fill: none; stroke: #008fd5; stroke-opacity: 0.4; stroke-width: 4"/>
   </g>
   <g id="line2d_50">
    <path d="M 409.00257 22.202142 
L 409.52699 25.770883 
L 410.05141 31.010448 
L 411.10025 37.388736 
L 411.62467 39.152797 
L 412.67351 48.802861 
L 413.19793 48.822524 
L 413.72235 50.951655 
L 414.24677 52.258105 
L 415.29561 57.111235 
L 415.82003 59.83424 
L 416.34445 61.920177 
L 416.86887 64.724709 
L 417.91771 71.096402 
L 418.44213 73.051962 
L 418.96655 76.017239 
L 419.49097 77.734151 
L 420.53981 80.255637 
L 421.06423 80.812627 
L 421.58865 80.178121 
L 422.11307 80.774106 
L 422.63749 83.691439 
L 423.16191 85.445568 
L 423.68633 86.022315 
L 424.21075 85.494451 
L 424.73517 86.455627 
L 425.25959 87.102997 
L 425.78401 89.106987 
L 426.832849 95.43003 
L 427.357269 98.273713 
L 428.406109 102.181524 
L 428.930529 104.391264 
L 429.454949 104.258789 
L 429.979369 103.03259 
L 430.503789 103.301611 
L 431.028209 103.902253 
L 431.552629 103.417058 
L 432.077049 102.41941 
L 432.601469 100.894627 
L 433.125889 98.923607 
L 434.174729 96.844878 
L 434.699149 96.772515 
L 435.223569 97.404171 
L 435.747989 98.895895 
L 436.272409 99.744442 
L 436.796829 102.717982 
L 437.321249 104.45205 
L 439.943349 115.948602 
L 440.467769 116.651931 
L 440.992189 115.145519 
L 441.516609 114.731345 
L 442.565449 113.355504 
L 443.089869 112.830777 
L 443.614289 113.59883 
L 444.138709 114.039765 
L 444.663129 114.024371 
L 445.187549 113.125152 
L 445.711969 113.044398 
L 446.236389 113.240764 
L 446.760809 113.607176 
L 447.285229 114.131151 
L 448.858489 119.485991 
L 449.382909 119.439859 
L 450.431749 122.190537 
L 450.956169 123.977404 
L 451.480589 125.181117 
L 452.005009 125.538167 
L 452.529429 126.483629 
L 453.053848 128.103206 
L 454.102688 129.423951 
L 454.627108 129.071077 
L 455.151528 129.678788 
L 455.675948 130.99908 
L 456.724788 132.960849 
L 457.249208 132.969548 
L 457.773628 133.292432 
L 458.298048 133.40884 
L 458.822468 134.9117 
L 459.346888 135.375839 
L 461.968988 140.884302 
L 462.493408 141.505291 
L 463.542248 141.662192 
L 464.591088 139.205631 
L 465.115508 138.926181 
L 466.164348 138.048573 
L 466.688768 137.953353 
L 467.213188 137.382925 
L 467.737608 137.650561 
L 468.262028 137.060538 
L 468.786448 138.146615 
L 469.310868 138.724659 
L 469.835288 140.015425 
L 470.359708 140.873633 
L 471.408548 142.058268 
L 472.457388 143.915449 
L 472.981808 144.290027 
L 473.506228 144.875766 
L 474.030648 144.778754 
L 474.555068 144.855711 
L 475.603908 142.548939 
L 476.652748 141.516153 
L 477.177168 139.879434 
L 478.226008 138.02103 
L 478.750427 138.794054 
L 479.274847 139.207253 
L 479.799267 138.827565 
L 480.848107 140.77012 
L 481.372527 140.748716 
L 481.896947 141.509793 
L 482.421367 142.466874 
L 482.945787 143.073028 
L 483.994627 144.809976 
L 484.519047 144.68641 
L 485.043467 144.267558 
L 485.567887 144.388735 
L 486.092307 143.605462 
L 486.616727 142.331476 
L 487.141147 142.720618 
L 487.665567 142.133122 
L 488.189987 140.466662 
L 488.714407 140.094602 
L 489.238827 140.698497 
L 489.763247 140.653466 
L 490.287667 141.185917 
L 490.812087 140.893929 
L 492.385347 143.241607 
L 492.909767 143.256032 
L 493.958607 143.786127 
L 494.483027 144.751822 
L 495.007447 145.040016 
L 495.531867 145.715034 
L 496.056287 146.147151 
L 497.629547 146.485959 
L 498.153967 145.759006 
L 498.678387 145.988952 
L 499.202807 146.803488 
L 500.251647 147.329642 
L 500.776067 147.89279 
L 501.300487 147.121663 
L 501.824907 147.165144 
L 502.873747 148.09891 
L 503.398167 148.500794 
L 504.971426 150.17768 
L 505.495846 150.583547 
L 506.020266 150.75467 
L 507.069106 151.591571 
L 507.593526 150.146475 
L 508.117946 149.967089 
L 508.642366 148.390962 
L 509.166786 147.531322 
L 509.691206 147.585468 
L 510.215626 147.769014 
L 510.740046 147.010705 
L 511.264466 146.988503 
L 511.788886 146.441255 
L 512.313306 146.307097 
L 512.837726 146.336214 
L 513.886566 147.811816 
L 514.935406 148.90473 
L 515.459826 149.060968 
L 516.508666 150.143435 
L 517.033086 149.929761 
L 518.081926 148.902405 
L 518.606346 148.132943 
L 519.130766 146.658168 
L 519.655186 146.605079 
L 520.179606 144.359217 
L 520.704026 144.19401 
L 521.228446 143.294246 
L 521.752866 142.746738 
L 522.277286 142.605919 
L 522.801706 141.590848 
L 523.326126 141.98174 
L 523.850546 141.746635 
L 524.374966 142.211744 
L 525.423806 143.924005 
L 525.948226 144.528739 
L 526.472646 145.514531 
L 527.521486 146.994709 
L 528.045906 147.225353 
L 528.570326 147.256232 
L 529.094746 147.1135 
L 529.619166 146.741722 
L 530.143585 146.583374 
L 531.716845 145.751621 
L 532.241265 144.27196 
L 532.765685 144.249767 
L 533.814525 143.382142 
L 534.338945 143.745925 
L 534.863365 143.656808 
L 535.387785 144.672477 
L 535.912205 144.888617 
L 536.436625 145.443129 
L 536.961045 145.397256 
L 538.534305 147.544981 
L 539.058725 147.679605 
L 539.583145 148.124396 
L 540.107565 148.748929 
L 540.631985 149.083457 
L 541.156405 149.599329 
L 541.680825 149.467251 
L 542.205245 149.179767 
L 542.729665 149.557315 
L 543.254085 147.612152 
L 544.302925 147.546119 
L 544.827345 146.61517 
L 545.351765 146.55397 
L 545.876185 146.111132 
L 546.400605 145.899256 
L 546.925025 144.774454 
L 547.449445 145.203025 
L 547.973865 145.230745 
L 549.022705 145.899275 
L 551.120385 144.739107 
L 553.742485 135.82388 
L 554.266905 135.404907 
L 554.791325 134.735829 
L 555.315745 134.473673 
L 555.840165 133.677677 
L 556.364584 133.968439 
L 556.889004 134.067989 
L 557.937844 135.628531 
L 558.462264 136.52598 
L 559.511104 137.551152 
L 560.035524 138.432875 
L 560.559944 138.611047 
L 561.084364 138.002504 
L 561.608784 137.057776 
L 562.657624 137.481067 
L 563.182044 136.232387 
L 564.755304 130.325446 
L 565.279724 129.425069 
L 566.328564 128.797824 
L 566.852984 128.170968 
L 567.377404 128.775056 
L 567.901824 128.760811 
L 568.426244 129.897715 
L 569.475084 131.482864 
L 570.523924 131.968967 
L 571.572764 133.134449 
L 572.097184 132.242151 
L 572.621604 131.972969 
L 573.146024 132.098435 
L 573.670444 131.919214 
L 574.719284 131.198072 
L 575.243704 131.454625 
L 575.768124 130.932936 
L 576.292544 129.455101 
L 576.816964 128.824022 
L 577.341384 127.945179 
L 577.865804 127.525189 
L 578.390224 128.329018 
L 579.439064 130.171912 
L 579.963484 130.631481 
L 580.487904 131.937644 
L 581.012324 132.254386 
L 581.536744 132.722485 
L 582.585583 134.946236 
L 583.110003 135.618608 
L 583.634423 135.899224 
L 585.207683 137.815451 
L 585.732103 138.247871 
L 586.256523 136.849833 
L 586.780943 136.257221 
L 587.305363 136.720794 
L 587.829783 137.400067 
L 588.354203 137.814042 
L 588.878623 137.880979 
L 589.403043 137.277951 
L 590.451883 137.934733 
L 591.500723 139.266255 
L 592.025143 139.172256 
L 592.549563 139.682842 
L 593.073983 139.799327 
L 594.122823 140.821367 
L 595.171663 141.127023 
L 595.696083 140.03447 
L 596.220503 138.663357 
L 596.744923 136.422572 
L 597.269343 135.551815 
L 597.793763 135.048208 
L 598.318183 135.854337 
L 599.367023 134.768874 
L 599.891443 134.090472 
L 600.415863 134.075832 
L 600.940283 133.547052 
L 601.464703 133.763609 
L 602.513543 135.418956 
L 603.562383 136.741554 
L 604.611223 137.331278 
L 605.660063 133.889704 
L 606.708903 133.580546 
L 607.233323 133.04298 
L 608.282162 132.309358 
L 608.806582 131.608874 
L 609.331002 130.182827 
L 609.855422 130.610016 
L 610.379842 130.687771 
L 610.904262 129.874574 
L 611.428682 129.860986 
L 611.953102 130.075892 
L 613.526362 132.980013 
L 614.050782 132.973694 
L 614.575202 133.177306 
L 615.099622 133.704104 
L 615.624042 133.719904 
L 616.148462 133.017942 
L 616.672882 133.659761 
L 617.721722 135.353767 
L 618.246142 135.188687 
L 619.294982 133.469209 
L 619.819402 133.226614 
L 620.868242 134.503627 
L 621.392662 134.249557 
L 621.917082 133.37151 
L 622.441502 133.444431 
L 622.965922 133.672258 
L 623.490342 134.44919 
L 624.014762 134.57654 
L 624.539182 134.22819 
L 625.063602 133.675702 
L 625.588022 133.665241 
L 626.112442 134.863717 
L 626.636862 135.595266 
L 627.685702 138.351835 
L 630.307802 145.539224 
L 630.832222 146.055433 
L 631.356642 145.177846 
L 631.881062 143.961167 
L 632.405482 142.34692 
L 632.929902 139.056105 
L 633.454321 136.795049 
L 633.978741 130.71293 
L 634.503161 126.547111 
L 636.076421 118.446956 
L 636.600841 117.282664 
L 637.125261 116.707204 
L 638.698521 118.142412 
L 641.320621 124.039135 
L 642.369461 127.671948 
L 644.467141 135.378861 
L 646.040401 140.791615 
L 647.613661 145.542052 
L 649.186921 149.617656 
L 650.760181 153.116728 
L 652.333441 156.12214 
L 653.906701 158.699852 
L 655.479961 160.910802 
L 657.053221 162.806338 
L 658.626481 164.430903 
L 660.72416 166.241931 
L 662.82184 167.718297 
L 664.91952 168.921428 
L 667.0172 169.901703 
L 669.6393 170.875596 
L 672.2614 171.629255 
L 675.40792 172.312145 
L 676.98118 172.582437 
L 676.98118 172.582437 
" clip-path="url(#p5d38dca784)" style="fill: none; stroke: #008fd5; stroke-width: 4"/>
   </g>
   <g id="patch_9">
    <path d="M 395.60364 182.16 
L 395.60364 7.2 
" style="fill: none; stroke: #f0f0f0; stroke-width: 3; stroke-linejoin: miter; stroke-linecap: square"/>
   </g>
   <g id="patch_10">
    <path d="M 690.38011 182.16 
L 690.38011 7.2 
" style="fill: none; stroke: #f0f0f0; stroke-width: 3; stroke-linejoin: miter; stroke-linecap: square"/>
   </g>
   <g id="patch_11">
    <path d="M 395.60364 182.16 
L 690.38011 182.16 
" style="fill: none; stroke: #f0f0f0; stroke-width: 3; stroke-linejoin: miter; stroke-linecap: square"/>
   </g>
   <g id="patch_12">
    <path d="M 395.60364 7.2 
L 690.38011 7.2 
" style="fill: none; stroke: #f0f0f0; stroke-width: 3; stroke-linejoin: miter; stroke-linecap: square"/>
   </g>
   <g id="legend_2">
    <g id="patch_13">
     <path d="M 565.425735 38.949375 
L 680.58011 38.949375 
Q 683.38011 38.949375 683.38011 36.149375 
L 683.38011 17 
Q 683.38011 14.2 680.58011 14.2 
L 565.425735 14.2 
Q 562.625735 14.2 562.625735 17 
L 562.625735 36.149375 
Q 562.625735 38.949375 565.425735 38.949375 
z
" style="fill: #f0f0f0; opacity: 0.8; stroke: #cccccc; stroke-width: 0.5; stroke-linejoin: miter"/>
    </g>
    <g id="line2d_51">
     <path d="M 568.225735 25.537813 
L 582.225735 25.537813 
L 596.225735 25.537813 
" style="fill: none; stroke: #008fd5; stroke-width: 4"/>
    </g>
    <g id="text_25">
     <!-- perplexity -->
     <g transform="translate(607.425735 30.437813) scale(0.14 -0.14)">
      <defs>
       <path id="DejaVuSans-70" d="M 1159 525 
L 1159 -1331 
L 581 -1331 
L 581 3500 
L 1159 3500 
L 1159 2969 
Q 1341 3281 1617 3432 
Q 1894 3584 2278 3584 
Q 2916 3584 3314 3078 
Q 3713 2572 3713 1747 
Q 3713 922 3314 415 
Q 2916 -91 2278 -91 
Q 1894 -91 1617 61 
Q 1341 213 1159 525 
z
M 3116 1747 
Q 3116 2381 2855 2742 
Q 2594 3103 2138 3103 
Q 1681 3103 1420 2742 
Q 1159 2381 1159 1747 
Q 1159 1113 1420 752 
Q 1681 391 2138 391 
Q 2594 391 2855 752 
Q 3116 1113 3116 1747 
z
" transform="scale(0.015625)"/>
       <path id="DejaVuSans-65" d="M 3597 1894 
L 3597 1613 
L 953 1613 
Q 991 1019 1311 708 
Q 1631 397 2203 397 
Q 2534 397 2845 478 
Q 3156 559 3463 722 
L 3463 178 
Q 3153 47 2828 -22 
Q 2503 -91 2169 -91 
Q 1331 -91 842 396 
Q 353 884 353 1716 
Q 353 2575 817 3079 
Q 1281 3584 2069 3584 
Q 2775 3584 3186 3129 
Q 3597 2675 3597 1894 
z
M 3022 2063 
Q 3016 2534 2758 2815 
Q 2500 3097 2075 3097 
Q 1594 3097 1305 2825 
Q 1016 2553 972 2059 
L 3022 2063 
z
" transform="scale(0.015625)"/>
       <path id="DejaVuSans-6c" d="M 603 4863 
L 1178 4863 
L 1178 0 
L 603 0 
L 603 4863 
z
" transform="scale(0.015625)"/>
       <path id="DejaVuSans-78" d="M 3513 3500 
L 2247 1797 
L 3578 0 
L 2900 0 
L 1881 1375 
L 863 0 
L 184 0 
L 1544 1831 
L 300 3500 
L 978 3500 
L 1906 2253 
L 2834 3500 
L 3513 3500 
z
" transform="scale(0.015625)"/>
       <path id="DejaVuSans-69" d="M 603 3500 
L 1178 3500 
L 1178 0 
L 603 0 
L 603 3500 
z
M 603 4863 
L 1178 4863 
L 1178 4134 
L 603 4134 
L 603 4863 
z
" transform="scale(0.015625)"/>
       <path id="DejaVuSans-74" d="M 1172 4494 
L 1172 3500 
L 2356 3500 
L 2356 3053 
L 1172 3053 
L 1172 1153 
Q 1172 725 1289 603 
Q 1406 481 1766 481 
L 2356 481 
L 2356 0 
L 1766 0 
Q 1100 0 847 248 
Q 594 497 594 1153 
L 594 3053 
L 172 3053 
L 172 3500 
L 594 3500 
L 594 4494 
L 1172 4494 
z
" transform="scale(0.015625)"/>
      </defs>
      <use xlink:href="#DejaVuSans-70"/>
      <use xlink:href="#DejaVuSans-65" x="63.476562"/>
      <use xlink:href="#DejaVuSans-72" x="125"/>
      <use xlink:href="#DejaVuSans-70" x="166.113281"/>
      <use xlink:href="#DejaVuSans-6c" x="229.589844"/>
      <use xlink:href="#DejaVuSans-65" x="257.373047"/>
      <use xlink:href="#DejaVuSans-78" x="317.146484"/>
      <use xlink:href="#DejaVuSans-69" x="376.326172"/>
      <use xlink:href="#DejaVuSans-74" x="404.109375"/>
      <use xlink:href="#DejaVuSans-79" x="443.318359"/>
     </g>
    </g>
   </g>
  </g>
  <g id="axes_3">
   <g id="patch_14">
    <path d="M 749.335404 182.16 
L 1044.111875 182.16 
L 1044.111875 7.2 
L 749.335404 7.2 
L 749.335404 182.16 
z
" style="fill: none"/>
   </g>
   <g id="matplotlib.axis_5">
    <g id="xtick_13">
     <g id="line2d_52">
      <path d="M 762.734335 182.16 
L 762.734335 7.2 
" clip-path="url(#p197afafd69)" style="fill: none; stroke: #cbcbcb"/>
     </g>
     <g id="line2d_53"/>
     <g id="text_26">
      <!-- 0 -->
      <g transform="translate(758.280585 196.297813) scale(0.14 -0.14)">
       <use xlink:href="#DejaVuSans-30"/>
      </g>
     </g>
    </g>
    <g id="xtick_14">
     <g id="line2d_54">
      <path d="M 815.176333 182.16 
L 815.176333 7.2 
" clip-path="url(#p197afafd69)" style="fill: none; stroke: #cbcbcb"/>
     </g>
     <g id="line2d_55"/>
     <g id="text_27">
      <!-- 100 -->
      <g transform="translate(801.815083 196.297813) scale(0.14 -0.14)">
       <use xlink:href="#DejaVuSans-31"/>
       <use xlink:href="#DejaVuSans-30" x="63.623047"/>
       <use xlink:href="#DejaVuSans-30" x="127.246094"/>
      </g>
     </g>
    </g>
    <g id="xtick_15">
     <g id="line2d_56">
      <path d="M 867.618331 182.16 
L 867.618331 7.2 
" clip-path="url(#p197afafd69)" style="fill: none; stroke: #cbcbcb"/>
     </g>
     <g id="line2d_57"/>
     <g id="text_28">
      <!-- 200 -->
      <g transform="translate(854.257081 196.297813) scale(0.14 -0.14)">
       <use xlink:href="#DejaVuSans-32"/>
       <use xlink:href="#DejaVuSans-30" x="63.623047"/>
       <use xlink:href="#DejaVuSans-30" x="127.246094"/>
      </g>
     </g>
    </g>
    <g id="xtick_16">
     <g id="line2d_58">
      <path d="M 920.060329 182.16 
L 920.060329 7.2 
" clip-path="url(#p197afafd69)" style="fill: none; stroke: #cbcbcb"/>
     </g>
     <g id="line2d_59"/>
     <g id="text_29">
      <!-- 300 -->
      <g transform="translate(906.699079 196.297813) scale(0.14 -0.14)">
       <use xlink:href="#DejaVuSans-33"/>
       <use xlink:href="#DejaVuSans-30" x="63.623047"/>
       <use xlink:href="#DejaVuSans-30" x="127.246094"/>
      </g>
     </g>
    </g>
    <g id="xtick_17">
     <g id="line2d_60">
      <path d="M 972.502327 182.16 
L 972.502327 7.2 
" clip-path="url(#p197afafd69)" style="fill: none; stroke: #cbcbcb"/>
     </g>
     <g id="line2d_61"/>
     <g id="text_30">
      <!-- 400 -->
      <g transform="translate(959.141077 196.297813) scale(0.14 -0.14)">
       <use xlink:href="#DejaVuSans-34"/>
       <use xlink:href="#DejaVuSans-30" x="63.623047"/>
       <use xlink:href="#DejaVuSans-30" x="127.246094"/>
      </g>
     </g>
    </g>
    <g id="xtick_18">
     <g id="line2d_62">
      <path d="M 1024.944325 182.16 
L 1024.944325 7.2 
" clip-path="url(#p197afafd69)" style="fill: none; stroke: #cbcbcb"/>
     </g>
     <g id="line2d_63"/>
     <g id="text_31">
      <!-- 500 -->
      <g transform="translate(1011.583075 196.297813) scale(0.14 -0.14)">
       <use xlink:href="#DejaVuSans-35"/>
       <use xlink:href="#DejaVuSans-30" x="63.623047"/>
       <use xlink:href="#DejaVuSans-30" x="127.246094"/>
      </g>
     </g>
    </g>
   </g>
   <g id="matplotlib.axis_6">
    <g id="ytick_12">
     <g id="line2d_64">
      <path d="M 749.335404 172.388723 
L 1044.111875 172.388723 
" clip-path="url(#p197afafd69)" style="fill: none; stroke: #cbcbcb"/>
     </g>
     <g id="line2d_65"/>
     <g id="text_32">
      <!-- 2600 -->
      <g transform="translate(710.205404 177.70763) scale(0.14 -0.14)">
       <use xlink:href="#DejaVuSans-32"/>
       <use xlink:href="#DejaVuSans-36" x="63.623047"/>
       <use xlink:href="#DejaVuSans-30" x="127.246094"/>
       <use xlink:href="#DejaVuSans-30" x="190.869141"/>
      </g>
     </g>
    </g>
    <g id="ytick_13">
     <g id="line2d_66">
      <path d="M 749.335404 136.277812 
L 1044.111875 136.277812 
" clip-path="url(#p197afafd69)" style="fill: none; stroke: #cbcbcb"/>
     </g>
     <g id="line2d_67"/>
     <g id="text_33">
      <!-- 2800 -->
      <g transform="translate(710.205404 141.596719) scale(0.14 -0.14)">
       <use xlink:href="#DejaVuSans-32"/>
       <use xlink:href="#DejaVuSans-38" x="63.623047"/>
       <use xlink:href="#DejaVuSans-30" x="127.246094"/>
       <use xlink:href="#DejaVuSans-30" x="190.869141"/>
      </g>
     </g>
    </g>
    <g id="ytick_14">
     <g id="line2d_68">
      <path d="M 749.335404 100.166901 
L 1044.111875 100.166901 
" clip-path="url(#p197afafd69)" style="fill: none; stroke: #cbcbcb"/>
     </g>
     <g id="line2d_69"/>
     <g id="text_34">
      <!-- 3000 -->
      <g transform="translate(710.205404 105.485808) scale(0.14 -0.14)">
       <use xlink:href="#DejaVuSans-33"/>
       <use xlink:href="#DejaVuSans-30" x="63.623047"/>
       <use xlink:href="#DejaVuSans-30" x="127.246094"/>
       <use xlink:href="#DejaVuSans-30" x="190.869141"/>
      </g>
     </g>
    </g>
    <g id="ytick_15">
     <g id="line2d_70">
      <path d="M 749.335404 64.05599 
L 1044.111875 64.05599 
" clip-path="url(#p197afafd69)" style="fill: none; stroke: #cbcbcb"/>
     </g>
     <g id="line2d_71"/>
     <g id="text_35">
      <!-- 3200 -->
      <g transform="translate(710.205404 69.374897) scale(0.14 -0.14)">
       <use xlink:href="#DejaVuSans-33"/>
       <use xlink:href="#DejaVuSans-32" x="63.623047"/>
       <use xlink:href="#DejaVuSans-30" x="127.246094"/>
       <use xlink:href="#DejaVuSans-30" x="190.869141"/>
      </g>
     </g>
    </g>
    <g id="ytick_16">
     <g id="line2d_72">
      <path d="M 749.335404 27.945079 
L 1044.111875 27.945079 
" clip-path="url(#p197afafd69)" style="fill: none; stroke: #cbcbcb"/>
     </g>
     <g id="line2d_73"/>
     <g id="text_36">
      <!-- 3400 -->
      <g transform="translate(710.205404 33.263985) scale(0.14 -0.14)">
       <use xlink:href="#DejaVuSans-33"/>
       <use xlink:href="#DejaVuSans-34" x="63.623047"/>
       <use xlink:href="#DejaVuSans-30" x="127.246094"/>
       <use xlink:href="#DejaVuSans-30" x="190.869141"/>
      </g>
     </g>
    </g>
   </g>
   <g id="line2d_74">
    <path d="M 762.734335 158.95416 
L 764.307595 158.95416 
L 764.832015 159.103197 
L 768.502955 160.96111 
L 769.551795 162.194929 
L 772.698315 166.291172 
L 773.222734 166.065435 
L 776.893674 162.970793 
L 782.662294 160.173873 
L 785.284394 158.543945 
L 788.955334 154.332959 
L 789.479754 154.143985 
L 793.675114 160.152273 
L 797.346054 162.579709 
L 797.870474 163.1949 
L 801.541413 169.062614 
L 802.065833 168.059293 
L 805.736773 154.664843 
L 806.261193 153.714375 
L 809.932133 148.827897 
L 810.980973 151.92126 
L 814.127493 161.722207 
L 818.322853 159.606774 
L 821.993793 163.081568 
L 822.518213 163.199264 
L 826.713572 156.325539 
L 830.384512 147.049417 
L 830.908932 146.943447 
L 835.628712 155.491576 
L 838.775232 160.601632 
L 840.348492 164.454153 
L 842.970592 171.048714 
L 844.019432 171.628816 
L 847.165952 173.005412 
L 851.361311 161.598341 
L 855.556671 157.264502 
L 859.227611 155.815261 
L 859.752031 155.487565 
L 863.422971 151.885511 
L 863.947391 151.727393 
L 867.618331 152.966986 
L 868.142751 152.92965 
L 871.813691 151.81842 
L 872.338111 152.863309 
L 876.009051 162.816158 
L 876.53347 163.135038 
L 881.25325 164.807989 
L 884.39977 166.26274 
L 888.07071 173.873405 
L 888.59513 174.081775 
L 892.26607 157.456209 
L 892.79049 156.01693 
L 896.46143 156.770798 
L 896.98585 157.155226 
L 900.65679 161.782818 
L 901.18121 161.773076 
L 904.852149 158.864676 
L 905.900989 158.658554 
L 909.047509 158.312565 
L 910.620769 157.155358 
L 913.242869 155.151935 
L 918.487069 157.376996 
L 921.633589 158.474738 
L 925.304529 160.684195 
L 925.828949 161.246885 
L 929.499888 168.239319 
L 930.024308 168.239275 
L 934.219668 159.891315 
L 937.890608 154.199218 
L 938.415028 154.483054 
L 942.085968 159.299091 
L 942.610388 159.17518 
L 946.805748 156.962153 
L 950.476688 154.389735 
L 954.147627 155.459662 
L 954.672047 155.363566 
L 958.342987 148.621379 
L 958.867407 148.46044 
L 962.538347 157.941097 
L 963.062767 158.853127 
L 966.733707 161.734594 
L 967.782547 162.143134 
L 970.929067 163.050138 
L 971.453487 163.853201 
L 975.124427 171.290232 
L 975.648847 170.236483 
L 979.319787 160.006234 
L 980.368626 160.841695 
L 983.515146 163.59599 
L 987.186086 168.99495 
L 987.710506 169.539347 
L 992.430286 166.558874 
L 995.576806 164.223919 
L 996.101226 163.524403 
L 999.772166 156.013756 
L 1000.296586 155.280474 
L 1003.967526 151.890404 
L 1004.491946 151.846764 
L 1008.162885 152.863309 
L 1009.211725 154.578753 
L 1012.358245 160.139886 
L 1016.553605 174.207273 
L 1020.748965 161.651149 
L 1024.944325 160.505404 
L 1029.664105 160.066316 
L 1030.712945 160.066316 
L 1030.712945 160.066316 
" clip-path="url(#p197afafd69)" style="fill: none; stroke: #008fd5; stroke-width: 4"/>
   </g>
   <g id="line2d_75">
    <path d="M 762.734335 158.95416 
L 764.307595 158.95416 
L 764.832015 159.103197 
L 768.502955 160.96111 
L 769.551795 162.194929 
L 772.698315 166.291172 
L 773.222734 166.065435 
L 776.893674 162.970793 
L 782.662294 160.173873 
L 785.284394 158.543945 
L 788.955334 154.332959 
L 789.479754 154.143985 
L 793.675114 160.152273 
L 797.346054 162.579709 
L 797.870474 163.1949 
L 801.541413 169.062614 
L 802.065833 168.059293 
L 805.736773 154.664843 
L 806.261193 153.714375 
L 809.932133 148.827897 
L 810.980973 151.92126 
L 814.127493 161.722207 
L 818.322853 159.606774 
L 821.993793 163.081568 
L 822.518213 163.199264 
L 826.713572 156.325539 
L 830.384512 147.049417 
L 830.908932 146.943447 
L 835.628712 155.491576 
L 838.775232 160.601632 
L 840.348492 164.454153 
L 842.970592 171.048714 
L 844.019432 171.628816 
L 847.165952 173.005412 
L 851.361311 161.598341 
L 855.556671 157.264502 
L 859.227611 155.815261 
L 859.752031 155.487565 
L 863.422971 151.885511 
L 863.947391 151.727393 
L 867.618331 152.966986 
L 868.142751 152.92965 
L 871.813691 151.81842 
L 872.338111 152.863309 
L 876.009051 162.816158 
L 876.53347 163.135038 
L 881.25325 164.807989 
L 884.39977 166.26274 
L 888.07071 173.873405 
L 888.59513 174.081775 
L 892.26607 157.456209 
L 892.79049 156.01693 
L 896.46143 156.770798 
L 896.98585 157.155226 
L 900.65679 157.817715 
L 901.18121 157.241492 
L 904.852149 150.367988 
L 906.425409 148.404854 
L 909.047509 145.284293 
L 912.194029 139.52634 
L 913.242869 137.592123 
L 919.011489 133.763758 
L 921.633589 131.851801 
L 925.304529 130.096111 
L 925.828949 130.092364 
L 929.499888 133.119695 
L 930.024308 132.553213 
L 934.219668 119.67367 
L 937.890608 110.01647 
L 938.415028 109.733868 
L 942.085968 110.584758 
L 943.134808 109.065032 
L 946.805748 103.149798 
L 950.476688 96.612278 
L 954.147627 93.717101 
L 954.672047 93.054524 
L 958.342987 82.347233 
L 958.867407 81.619858 
L 962.538347 87.135367 
L 963.062767 87.48096 
L 966.733707 86.397324 
L 967.782547 85.67299 
L 970.929067 83.181284 
L 971.453487 83.41791 
L 975.124427 86.889838 
L 975.648847 85.269652 
L 979.319787 71.074255 
L 980.368626 70.776843 
L 983.515146 70.132471 
L 987.186086 71.566284 
L 987.710506 71.544244 
L 992.954706 62.510124 
L 995.576806 57.732129 
L 996.101226 56.466175 
L 1000.296586 43.690662 
L 1003.967526 36.335488 
L 1004.491946 35.725411 
L 1008.162885 32.776809 
L 1008.687305 32.998932 
L 1012.358245 35.521847 
L 1015.504765 42.838494 
L 1016.553605 45.057649 
L 1020.748965 27.969985 
L 1025.468745 21.66812 
L 1030.188525 16.189109 
L 1030.712945 15.622672 
L 1030.712945 15.622672 
" clip-path="url(#p197afafd69)" style="fill: none; stroke: #fc4f30; stroke-width: 4"/>
   </g>
   <g id="line2d_76">
    <path d="M 762.734335 138.332017 
L 764.307595 138.332017 
L 764.832015 138.561325 
L 768.502955 141.419694 
L 769.027375 143.179836 
L 772.698315 159.860194 
L 773.222734 160.318193 
L 776.893674 160.316077 
L 779.515774 162.602455 
L 781.089034 163.861356 
L 785.284394 148.303601 
L 789.479754 149.59208 
L 793.150694 152.718415 
L 793.675114 152.99317 
L 797.346054 153.275948 
L 797.870474 154.332518 
L 801.541413 167.63938 
L 802.065833 166.205435 
L 805.736773 144.629651 
L 806.261193 143.121121 
L 809.932133 135.448875 
L 810.980973 138.630796 
L 814.127493 148.826045 
L 821.469373 149.837609 
L 826.189152 150.421061 
L 826.713572 150.113687 
L 830.384512 144.173415 
L 830.908932 144.936717 
L 834.579872 160.254673 
L 835.104292 161.648681 
L 838.775232 168.463293 
L 839.299652 168.882456 
L 842.970592 170.702372 
L 845.068272 170.416024 
L 847.165952 170.051653 
L 851.361311 154.066536 
L 855.032251 135.523151 
L 855.556671 133.763185 
L 859.227611 138.335015 
L 859.752031 138.566615 
L 863.422971 135.616778 
L 863.947391 135.463465 
L 867.618331 136.154695 
L 868.142751 136.551642 
L 871.813691 140.51216 
L 872.862531 144.331709 
L 876.009051 156.88197 
L 877.05789 158.111116 
L 880.20441 161.254247 
L 884.39977 163.717564 
L 888.07071 169.143238 
L 888.59513 168.958363 
L 892.26607 147.912429 
L 892.79049 145.854742 
L 896.46143 142.430993 
L 896.98585 142.190401 
L 900.65679 142.245854 
L 901.70563 142.573374 
L 905.376569 143.875342 
L 909.047509 144.35851 
L 910.620769 143.572155 
L 913.242869 142.186037 
L 917.438229 141.598353 
L 921.633589 136.552171 
L 925.828949 129.59077 
L 929.499888 126.460247 
L 930.024308 125.349501 
L 933.695248 112.634246 
L 934.219668 111.758715 
L 938.415028 109.548641 
L 942.085968 107.04618 
L 943.134808 107.584537 
L 946.281328 109.495921 
L 950.476688 110.098724 
L 954.147627 109.967716 
L 954.672047 109.816343 
L 963.062767 100.124275 
L 966.733707 98.152722 
L 967.258127 98.069718 
L 970.929067 98.445858 
L 971.453487 96.769293 
L 975.124427 80.214609 
L 975.648847 79.235533 
L 979.319787 74.250799 
L 981.417466 75.432867 
L 983.515146 76.616478 
L 987.710506 75.530373 
L 991.381446 75.519882 
L 991.905866 75.732043 
L 995.576806 80.243746 
L 996.101226 76.6111 
L 999.772166 15.152727 
L 1000.296586 22.783361 
L 1003.967526 160.437784 
L 1004.491946 166.145529 
L 1008.162885 164.228724 
L 1009.211725 164.630608 
L 1012.358245 166.112866 
L 1014.455925 164.150569 
L 1016.553605 162.188537 
L 1021.797805 163.138917 
L 1024.944325 163.870657 
L 1030.712945 163.877357 
L 1030.712945 163.877357 
" clip-path="url(#p197afafd69)" style="fill: none; stroke: #e5ae38; stroke-width: 4"/>
   </g>
   <g id="patch_15">
    <path d="M 749.335404 182.16 
L 749.335404 7.2 
" style="fill: none; stroke: #f0f0f0; stroke-width: 3; stroke-linejoin: miter; stroke-linecap: square"/>
   </g>
   <g id="patch_16">
    <path d="M 1044.111875 182.16 
L 1044.111875 7.2 
" style="fill: none; stroke: #f0f0f0; stroke-width: 3; stroke-linejoin: miter; stroke-linecap: square"/>
   </g>
   <g id="patch_17">
    <path d="M 749.335404 182.16 
L 1044.111875 182.16 
" style="fill: none; stroke: #f0f0f0; stroke-width: 3; stroke-linejoin: miter; stroke-linecap: square"/>
   </g>
   <g id="patch_18">
    <path d="M 749.335404 7.2 
L 1044.111875 7.2 
" style="fill: none; stroke: #f0f0f0; stroke-width: 3; stroke-linejoin: miter; stroke-linecap: square"/>
   </g>
   <g id="legend_3">
    <g id="patch_19">
     <path d="M 759.135404 80.048125 
L 908.410404 80.048125 
Q 911.210404 80.048125 911.210404 77.248125 
L 911.210404 17 
Q 911.210404 14.2 908.410404 14.2 
L 759.135404 14.2 
Q 756.335404 14.2 756.335404 17 
L 756.335404 77.248125 
Q 756.335404 80.048125 759.135404 80.048125 
z
" style="fill: #f0f0f0; opacity: 0.8; stroke: #cccccc; stroke-width: 0.5; stroke-linejoin: miter"/>
    </g>
    <g id="line2d_77">
     <path d="M 761.935404 25.537813 
L 775.935404 25.537813 
L 789.935404 25.537813 
" style="fill: none; stroke: #008fd5; stroke-width: 4"/>
    </g>
    <g id="text_37">
     <!-- target centroid -->
     <g transform="translate(801.135404 30.437813) scale(0.14 -0.14)">
      <defs>
       <path id="DejaVuSans-67" d="M 2906 1791 
Q 2906 2416 2648 2759 
Q 2391 3103 1925 3103 
Q 1463 3103 1205 2759 
Q 947 2416 947 1791 
Q 947 1169 1205 825 
Q 1463 481 1925 481 
Q 2391 481 2648 825 
Q 2906 1169 2906 1791 
z
M 3481 434 
Q 3481 -459 3084 -895 
Q 2688 -1331 1869 -1331 
Q 1566 -1331 1297 -1286 
Q 1028 -1241 775 -1147 
L 775 -588 
Q 1028 -725 1275 -790 
Q 1522 -856 1778 -856 
Q 2344 -856 2625 -561 
Q 2906 -266 2906 331 
L 2906 616 
Q 2728 306 2450 153 
Q 2172 0 1784 0 
Q 1141 0 747 490 
Q 353 981 353 1791 
Q 353 2603 747 3093 
Q 1141 3584 1784 3584 
Q 2172 3584 2450 3431 
Q 2728 3278 2906 2969 
L 2906 3500 
L 3481 3500 
L 3481 434 
z
" transform="scale(0.015625)"/>
       <path id="DejaVuSans-20" transform="scale(0.015625)"/>
       <path id="DejaVuSans-6e" d="M 3513 2113 
L 3513 0 
L 2938 0 
L 2938 2094 
Q 2938 2591 2744 2837 
Q 2550 3084 2163 3084 
Q 1697 3084 1428 2787 
Q 1159 2491 1159 1978 
L 1159 0 
L 581 0 
L 581 3500 
L 1159 3500 
L 1159 2956 
Q 1366 3272 1645 3428 
Q 1925 3584 2291 3584 
Q 2894 3584 3203 3211 
Q 3513 2838 3513 2113 
z
" transform="scale(0.015625)"/>
       <path id="DejaVuSans-6f" d="M 1959 3097 
Q 1497 3097 1228 2736 
Q 959 2375 959 1747 
Q 959 1119 1226 758 
Q 1494 397 1959 397 
Q 2419 397 2687 759 
Q 2956 1122 2956 1747 
Q 2956 2369 2687 2733 
Q 2419 3097 1959 3097 
z
M 1959 3584 
Q 2709 3584 3137 3096 
Q 3566 2609 3566 1747 
Q 3566 888 3137 398 
Q 2709 -91 1959 -91 
Q 1206 -91 779 398 
Q 353 888 353 1747 
Q 353 2609 779 3096 
Q 1206 3584 1959 3584 
z
" transform="scale(0.015625)"/>
       <path id="DejaVuSans-64" d="M 2906 2969 
L 2906 4863 
L 3481 4863 
L 3481 0 
L 2906 0 
L 2906 525 
Q 2725 213 2448 61 
Q 2172 -91 1784 -91 
Q 1150 -91 751 415 
Q 353 922 353 1747 
Q 353 2572 751 3078 
Q 1150 3584 1784 3584 
Q 2172 3584 2448 3432 
Q 2725 3281 2906 2969 
z
M 947 1747 
Q 947 1113 1208 752 
Q 1469 391 1925 391 
Q 2381 391 2643 752 
Q 2906 1113 2906 1747 
Q 2906 2381 2643 2742 
Q 2381 3103 1925 3103 
Q 1469 3103 1208 2742 
Q 947 2381 947 1747 
z
" transform="scale(0.015625)"/>
      </defs>
      <use xlink:href="#DejaVuSans-74"/>
      <use xlink:href="#DejaVuSans-61" x="39.208984"/>
      <use xlink:href="#DejaVuSans-72" x="100.488281"/>
      <use xlink:href="#DejaVuSans-67" x="139.851562"/>
      <use xlink:href="#DejaVuSans-65" x="203.328125"/>
      <use xlink:href="#DejaVuSans-74" x="264.851562"/>
      <use xlink:href="#DejaVuSans-20" x="304.060547"/>
      <use xlink:href="#DejaVuSans-63" x="335.847656"/>
      <use xlink:href="#DejaVuSans-65" x="390.828125"/>
      <use xlink:href="#DejaVuSans-6e" x="452.351562"/>
      <use xlink:href="#DejaVuSans-74" x="515.730469"/>
      <use xlink:href="#DejaVuSans-72" x="554.939453"/>
      <use xlink:href="#DejaVuSans-6f" x="593.802734"/>
      <use xlink:href="#DejaVuSans-69" x="654.984375"/>
      <use xlink:href="#DejaVuSans-64" x="682.767578"/>
     </g>
    </g>
    <g id="line2d_78">
     <path d="M 761.935404 46.087188 
L 775.935404 46.087188 
L 789.935404 46.087188 
" style="fill: none; stroke: #fc4f30; stroke-width: 4"/>
    </g>
    <g id="text_38">
     <!-- biased target -->
     <g transform="translate(801.135404 50.987188) scale(0.14 -0.14)">
      <defs>
       <path id="DejaVuSans-62" d="M 3116 1747 
Q 3116 2381 2855 2742 
Q 2594 3103 2138 3103 
Q 1681 3103 1420 2742 
Q 1159 2381 1159 1747 
Q 1159 1113 1420 752 
Q 1681 391 2138 391 
Q 2594 391 2855 752 
Q 3116 1113 3116 1747 
z
M 1159 2969 
Q 1341 3281 1617 3432 
Q 1894 3584 2278 3584 
Q 2916 3584 3314 3078 
Q 3713 2572 3713 1747 
Q 3713 922 3314 415 
Q 2916 -91 2278 -91 
Q 1894 -91 1617 61 
Q 1341 213 1159 525 
L 1159 0 
L 581 0 
L 581 4863 
L 1159 4863 
L 1159 2969 
z
" transform="scale(0.015625)"/>
       <path id="DejaVuSans-73" d="M 2834 3397 
L 2834 2853 
Q 2591 2978 2328 3040 
Q 2066 3103 1784 3103 
Q 1356 3103 1142 2972 
Q 928 2841 928 2578 
Q 928 2378 1081 2264 
Q 1234 2150 1697 2047 
L 1894 2003 
Q 2506 1872 2764 1633 
Q 3022 1394 3022 966 
Q 3022 478 2636 193 
Q 2250 -91 1575 -91 
Q 1294 -91 989 -36 
Q 684 19 347 128 
L 347 722 
Q 666 556 975 473 
Q 1284 391 1588 391 
Q 1994 391 2212 530 
Q 2431 669 2431 922 
Q 2431 1156 2273 1281 
Q 2116 1406 1581 1522 
L 1381 1569 
Q 847 1681 609 1914 
Q 372 2147 372 2553 
Q 372 3047 722 3315 
Q 1072 3584 1716 3584 
Q 2034 3584 2315 3537 
Q 2597 3491 2834 3397 
z
" transform="scale(0.015625)"/>
      </defs>
      <use xlink:href="#DejaVuSans-62"/>
      <use xlink:href="#DejaVuSans-69" x="63.476562"/>
      <use xlink:href="#DejaVuSans-61" x="91.259766"/>
      <use xlink:href="#DejaVuSans-73" x="152.539062"/>
      <use xlink:href="#DejaVuSans-65" x="204.638672"/>
      <use xlink:href="#DejaVuSans-64" x="266.162109"/>
      <use xlink:href="#DejaVuSans-20" x="329.638672"/>
      <use xlink:href="#DejaVuSans-74" x="361.425781"/>
      <use xlink:href="#DejaVuSans-61" x="400.634766"/>
      <use xlink:href="#DejaVuSans-72" x="461.914062"/>
      <use xlink:href="#DejaVuSans-67" x="501.277344"/>
      <use xlink:href="#DejaVuSans-65" x="564.753906"/>
      <use xlink:href="#DejaVuSans-74" x="626.277344"/>
     </g>
    </g>
    <g id="line2d_79">
     <path d="M 761.935404 66.636563 
L 775.935404 66.636563 
L 789.935404 66.636563 
" style="fill: none; stroke: #e5ae38; stroke-width: 4"/>
    </g>
    <g id="text_39">
     <!-- gen centroid -->
     <g transform="translate(801.135404 71.536563) scale(0.14 -0.14)">
      <use xlink:href="#DejaVuSans-67"/>
      <use xlink:href="#DejaVuSans-65" x="63.476562"/>
      <use xlink:href="#DejaVuSans-6e" x="125"/>
      <use xlink:href="#DejaVuSans-20" x="188.378906"/>
      <use xlink:href="#DejaVuSans-63" x="220.166016"/>
      <use xlink:href="#DejaVuSans-65" x="275.146484"/>
      <use xlink:href="#DejaVuSans-6e" x="336.669922"/>
      <use xlink:href="#DejaVuSans-74" x="400.048828"/>
      <use xlink:href="#DejaVuSans-72" x="439.257812"/>
      <use xlink:href="#DejaVuSans-6f" x="478.121094"/>
      <use xlink:href="#DejaVuSans-69" x="539.302734"/>
      <use xlink:href="#DejaVuSans-64" x="567.085938"/>
     </g>
    </g>
   </g>
  </g>
 </g>
 <defs>
  <clipPath id="pfd257a4d83">
   <rect x="41.871875" y="7.2" width="294.776471" height="174.96"/>
  </clipPath>
  <clipPath id="p5d38dca784">
   <rect x="395.60364" y="7.2" width="294.776471" height="174.96"/>
  </clipPath>
  <clipPath id="p197afafd69">
   <rect x="749.335404" y="7.2" width="294.776471" height="174.96"/>
  </clipPath>
 </defs>
</svg>
