<?xml version="1.0" encoding="utf-8" standalone="no"?>
<!DOCTYPE svg PUBLIC "-//W3C//DTD SVG 1.1//EN"
  "http://www.w3.org/Graphics/SVG/1.1/DTD/svg11.dtd">
<svg xmlns:xlink="http://www.w3.org/1999/xlink" width="1051.311875pt" height="206.409375pt" viewBox="0 0 1051.311875 206.409375" xmlns="http://www.w3.org/2000/svg" version="1.1">
 <metadata>
  <rdf:RDF xmlns:dc="http://purl.org/dc/elements/1.1/" xmlns:cc="http://creativecommons.org/ns#" xmlns:rdf="http://www.w3.org/1999/02/22-rdf-syntax-ns#">
   <cc:Work>
    <dc:type rdf:resource="http://purl.org/dc/dcmitype/StillImage"/>
    <dc:date>2023-01-19T14:55:26.527945</dc:date>
    <dc:format>image/svg+xml</dc:format>
    <dc:creator>
     <cc:Agent>
      <dc:title>Matplotlib v3.6.0, https://matplotlib.org/</dc:title>
     </cc:Agent>
    </dc:creator>
   </cc:Work>
  </rdf:RDF>
 </metadata>
 <defs>
  <style type="text/css">*{stroke-linejoin: round; stroke-linecap: butt}</style>
 </defs>
 <g id="figure_1">
  <g id="patch_1">
   <path d="M 0 206.409375 
L 1051.311875 206.409375 
L 1051.311875 0 
L 0 0 
L 0 206.409375 
z
" style="fill: none"/>
  </g>
  <g id="axes_1">
   <g id="patch_2">
    <path d="M 41.871875 182.16 
L 336.648346 182.16 
L 336.648346 7.2 
L 41.871875 7.2 
L 41.871875 182.16 
z
" style="fill: none"/>
   </g>
   <g id="matplotlib.axis_1">
    <g id="xtick_1">
     <g id="line2d_1">
      <path d="M 55.270805 182.16 
L 55.270805 7.2 
" clip-path="url(#p0f69f36610)" style="fill: none; stroke: #cbcbcb"/>
     </g>
     <g id="line2d_2"/>
     <g id="text_1">
      <!-- 0 -->
      <g transform="translate(50.817055 196.297813) scale(0.14 -0.14)">
       <defs>
        <path id="DejaVuSans-30" d="M 2034 4250 
Q 1547 4250 1301 3770 
Q 1056 3291 1056 2328 
Q 1056 1369 1301 889 
Q 1547 409 2034 409 
Q 2525 409 2770 889 
Q 3016 1369 3016 2328 
Q 3016 3291 2770 3770 
Q 2525 4250 2034 4250 
z
M 2034 4750 
Q 2819 4750 3233 4129 
Q 3647 3509 3647 2328 
Q 3647 1150 3233 529 
Q 2819 -91 2034 -91 
Q 1250 -91 836 529 
Q 422 1150 422 2328 
Q 422 3509 836 4129 
Q 1250 4750 2034 4750 
z
" transform="scale(0.015625)"/>
       </defs>
       <use xlink:href="#DejaVuSans-30"/>
      </g>
     </g>
    </g>
    <g id="xtick_2">
     <g id="line2d_3">
      <path d="M 107.712803 182.16 
L 107.712803 7.2 
" clip-path="url(#p0f69f36610)" style="fill: none; stroke: #cbcbcb"/>
     </g>
     <g id="line2d_4"/>
     <g id="text_2">
      <!-- 100 -->
      <g transform="translate(94.351553 196.297813) scale(0.14 -0.14)">
       <defs>
        <path id="DejaVuSans-31" d="M 794 531 
L 1825 531 
L 1825 4091 
L 703 3866 
L 703 4441 
L 1819 4666 
L 2450 4666 
L 2450 531 
L 3481 531 
L 3481 0 
L 794 0 
L 794 531 
z
" transform="scale(0.015625)"/>
       </defs>
       <use xlink:href="#DejaVuSans-31"/>
       <use xlink:href="#DejaVuSans-30" x="63.623047"/>
       <use xlink:href="#DejaVuSans-30" x="127.246094"/>
      </g>
     </g>
    </g>
    <g id="xtick_3">
     <g id="line2d_5">
      <path d="M 160.154801 182.16 
L 160.154801 7.2 
" clip-path="url(#p0f69f36610)" style="fill: none; stroke: #cbcbcb"/>
     </g>
     <g id="line2d_6"/>
     <g id="text_3">
      <!-- 200 -->
      <g transform="translate(146.793551 196.297813) scale(0.14 -0.14)">
       <defs>
        <path id="DejaVuSans-32" d="M 1228 531 
L 3431 531 
L 3431 0 
L 469 0 
L 469 531 
Q 828 903 1448 1529 
Q 2069 2156 2228 2338 
Q 2531 2678 2651 2914 
Q 2772 3150 2772 3378 
Q 2772 3750 2511 3984 
Q 2250 4219 1831 4219 
Q 1534 4219 1204 4116 
Q 875 4013 500 3803 
L 500 4441 
Q 881 4594 1212 4672 
Q 1544 4750 1819 4750 
Q 2544 4750 2975 4387 
Q 3406 4025 3406 3419 
Q 3406 3131 3298 2873 
Q 3191 2616 2906 2266 
Q 2828 2175 2409 1742 
Q 1991 1309 1228 531 
z
" transform="scale(0.015625)"/>
       </defs>
       <use xlink:href="#DejaVuSans-32"/>
       <use xlink:href="#DejaVuSans-30" x="63.623047"/>
       <use xlink:href="#DejaVuSans-30" x="127.246094"/>
      </g>
     </g>
    </g>
    <g id="xtick_4">
     <g id="line2d_7">
      <path d="M 212.596799 182.16 
L 212.596799 7.2 
" clip-path="url(#p0f69f36610)" style="fill: none; stroke: #cbcbcb"/>
     </g>
     <g id="line2d_8"/>
     <g id="text_4">
      <!-- 300 -->
      <g transform="translate(199.235549 196.297813) scale(0.14 -0.14)">
       <defs>
        <path id="DejaVuSans-33" d="M 2597 2516 
Q 3050 2419 3304 2112 
Q 3559 1806 3559 1356 
Q 3559 666 3084 287 
Q 2609 -91 1734 -91 
Q 1441 -91 1130 -33 
Q 819 25 488 141 
L 488 750 
Q 750 597 1062 519 
Q 1375 441 1716 441 
Q 2309 441 2620 675 
Q 2931 909 2931 1356 
Q 2931 1769 2642 2001 
Q 2353 2234 1838 2234 
L 1294 2234 
L 1294 2753 
L 1863 2753 
Q 2328 2753 2575 2939 
Q 2822 3125 2822 3475 
Q 2822 3834 2567 4026 
Q 2313 4219 1838 4219 
Q 1578 4219 1281 4162 
Q 984 4106 628 3988 
L 628 4550 
Q 988 4650 1302 4700 
Q 1616 4750 1894 4750 
Q 2613 4750 3031 4423 
Q 3450 4097 3450 3541 
Q 3450 3153 3228 2886 
Q 3006 2619 2597 2516 
z
" transform="scale(0.015625)"/>
       </defs>
       <use xlink:href="#DejaVuSans-33"/>
       <use xlink:href="#DejaVuSans-30" x="63.623047"/>
       <use xlink:href="#DejaVuSans-30" x="127.246094"/>
      </g>
     </g>
    </g>
    <g id="xtick_5">
     <g id="line2d_9">
      <path d="M 265.038797 182.16 
L 265.038797 7.2 
" clip-path="url(#p0f69f36610)" style="fill: none; stroke: #cbcbcb"/>
     </g>
     <g id="line2d_10"/>
     <g id="text_5">
      <!-- 400 -->
      <g transform="translate(251.677547 196.297813) scale(0.14 -0.14)">
       <defs>
        <path id="DejaVuSans-34" d="M 2419 4116 
L 825 1625 
L 2419 1625 
L 2419 4116 
z
M 2253 4666 
L 3047 4666 
L 3047 1625 
L 3713 1625 
L 3713 1100 
L 3047 1100 
L 3047 0 
L 2419 0 
L 2419 1100 
L 313 1100 
L 313 1709 
L 2253 4666 
z
" transform="scale(0.015625)"/>
       </defs>
       <use xlink:href="#DejaVuSans-34"/>
       <use xlink:href="#DejaVuSans-30" x="63.623047"/>
       <use xlink:href="#DejaVuSans-30" x="127.246094"/>
      </g>
     </g>
    </g>
    <g id="xtick_6">
     <g id="line2d_11">
      <path d="M 317.480795 182.16 
L 317.480795 7.2 
" clip-path="url(#p0f69f36610)" style="fill: none; stroke: #cbcbcb"/>
     </g>
     <g id="line2d_12"/>
     <g id="text_6">
      <!-- 500 -->
      <g transform="translate(304.119545 196.297813) scale(0.14 -0.14)">
       <defs>
        <path id="DejaVuSans-35" d="M 691 4666 
L 3169 4666 
L 3169 4134 
L 1269 4134 
L 1269 2991 
Q 1406 3038 1543 3061 
Q 1681 3084 1819 3084 
Q 2600 3084 3056 2656 
Q 3513 2228 3513 1497 
Q 3513 744 3044 326 
Q 2575 -91 1722 -91 
Q 1428 -91 1123 -41 
Q 819 9 494 109 
L 494 744 
Q 775 591 1075 516 
Q 1375 441 1709 441 
Q 2250 441 2565 725 
Q 2881 1009 2881 1497 
Q 2881 1984 2565 2268 
Q 2250 2553 1709 2553 
Q 1456 2553 1204 2497 
Q 953 2441 691 2322 
L 691 4666 
z
" transform="scale(0.015625)"/>
       </defs>
       <use xlink:href="#DejaVuSans-35"/>
       <use xlink:href="#DejaVuSans-30" x="63.623047"/>
       <use xlink:href="#DejaVuSans-30" x="127.246094"/>
      </g>
     </g>
    </g>
   </g>
   <g id="matplotlib.axis_2">
    <g id="ytick_1">
     <g id="line2d_13">
      <path d="M 41.871875 174.207273 
L 336.648346 174.207273 
" clip-path="url(#p0f69f36610)" style="fill: none; stroke: #cbcbcb"/>
     </g>
     <g id="line2d_14"/>
     <g id="text_7">
      <!-- 0.00 -->
      <g transform="translate(7.2 179.526179) scale(0.14 -0.14)">
       <defs>
        <path id="DejaVuSans-2e" d="M 684 794 
L 1344 794 
L 1344 0 
L 684 0 
L 684 794 
z
" transform="scale(0.015625)"/>
       </defs>
       <use xlink:href="#DejaVuSans-30"/>
       <use xlink:href="#DejaVuSans-2e" x="63.623047"/>
       <use xlink:href="#DejaVuSans-30" x="95.410156"/>
       <use xlink:href="#DejaVuSans-30" x="159.033203"/>
      </g>
     </g>
    </g>
    <g id="ytick_2">
     <g id="line2d_15">
      <path d="M 41.871875 141.921574 
L 336.648346 141.921574 
" clip-path="url(#p0f69f36610)" style="fill: none; stroke: #cbcbcb"/>
     </g>
     <g id="line2d_16"/>
     <g id="text_8">
      <!-- 0.02 -->
      <g transform="translate(7.2 147.240481) scale(0.14 -0.14)">
       <use xlink:href="#DejaVuSans-30"/>
       <use xlink:href="#DejaVuSans-2e" x="63.623047"/>
       <use xlink:href="#DejaVuSans-30" x="95.410156"/>
       <use xlink:href="#DejaVuSans-32" x="159.033203"/>
      </g>
     </g>
    </g>
    <g id="ytick_3">
     <g id="line2d_17">
      <path d="M 41.871875 109.635876 
L 336.648346 109.635876 
" clip-path="url(#p0f69f36610)" style="fill: none; stroke: #cbcbcb"/>
     </g>
     <g id="line2d_18"/>
     <g id="text_9">
      <!-- 0.04 -->
      <g transform="translate(7.2 114.954782) scale(0.14 -0.14)">
       <use xlink:href="#DejaVuSans-30"/>
       <use xlink:href="#DejaVuSans-2e" x="63.623047"/>
       <use xlink:href="#DejaVuSans-30" x="95.410156"/>
       <use xlink:href="#DejaVuSans-34" x="159.033203"/>
      </g>
     </g>
    </g>
    <g id="ytick_4">
     <g id="line2d_19">
      <path d="M 41.871875 77.350178 
L 336.648346 77.350178 
" clip-path="url(#p0f69f36610)" style="fill: none; stroke: #cbcbcb"/>
     </g>
     <g id="line2d_20"/>
     <g id="text_10">
      <!-- 0.06 -->
      <g transform="translate(7.2 82.669084) scale(0.14 -0.14)">
       <defs>
        <path id="DejaVuSans-36" d="M 2113 2584 
Q 1688 2584 1439 2293 
Q 1191 2003 1191 1497 
Q 1191 994 1439 701 
Q 1688 409 2113 409 
Q 2538 409 2786 701 
Q 3034 994 3034 1497 
Q 3034 2003 2786 2293 
Q 2538 2584 2113 2584 
z
M 3366 4563 
L 3366 3988 
Q 3128 4100 2886 4159 
Q 2644 4219 2406 4219 
Q 1781 4219 1451 3797 
Q 1122 3375 1075 2522 
Q 1259 2794 1537 2939 
Q 1816 3084 2150 3084 
Q 2853 3084 3261 2657 
Q 3669 2231 3669 1497 
Q 3669 778 3244 343 
Q 2819 -91 2113 -91 
Q 1303 -91 875 529 
Q 447 1150 447 2328 
Q 447 3434 972 4092 
Q 1497 4750 2381 4750 
Q 2619 4750 2861 4703 
Q 3103 4656 3366 4563 
z
" transform="scale(0.015625)"/>
       </defs>
       <use xlink:href="#DejaVuSans-30"/>
       <use xlink:href="#DejaVuSans-2e" x="63.623047"/>
       <use xlink:href="#DejaVuSans-30" x="95.410156"/>
       <use xlink:href="#DejaVuSans-36" x="159.033203"/>
      </g>
     </g>
    </g>
    <g id="ytick_5">
     <g id="line2d_21">
      <path d="M 41.871875 45.06448 
L 336.648346 45.06448 
" clip-path="url(#p0f69f36610)" style="fill: none; stroke: #cbcbcb"/>
     </g>
     <g id="line2d_22"/>
     <g id="text_11">
      <!-- 0.08 -->
      <g transform="translate(7.2 50.383386) scale(0.14 -0.14)">
       <defs>
        <path id="DejaVuSans-38" d="M 2034 2216 
Q 1584 2216 1326 1975 
Q 1069 1734 1069 1313 
Q 1069 891 1326 650 
Q 1584 409 2034 409 
Q 2484 409 2743 651 
Q 3003 894 3003 1313 
Q 3003 1734 2745 1975 
Q 2488 2216 2034 2216 
z
M 1403 2484 
Q 997 2584 770 2862 
Q 544 3141 544 3541 
Q 544 4100 942 4425 
Q 1341 4750 2034 4750 
Q 2731 4750 3128 4425 
Q 3525 4100 3525 3541 
Q 3525 3141 3298 2862 
Q 3072 2584 2669 2484 
Q 3125 2378 3379 2068 
Q 3634 1759 3634 1313 
Q 3634 634 3220 271 
Q 2806 -91 2034 -91 
Q 1263 -91 848 271 
Q 434 634 434 1313 
Q 434 1759 690 2068 
Q 947 2378 1403 2484 
z
M 1172 3481 
Q 1172 3119 1398 2916 
Q 1625 2713 2034 2713 
Q 2441 2713 2670 2916 
Q 2900 3119 2900 3481 
Q 2900 3844 2670 4047 
Q 2441 4250 2034 4250 
Q 1625 4250 1398 4047 
Q 1172 3844 1172 3481 
z
" transform="scale(0.015625)"/>
       </defs>
       <use xlink:href="#DejaVuSans-30"/>
       <use xlink:href="#DejaVuSans-2e" x="63.623047"/>
       <use xlink:href="#DejaVuSans-30" x="95.410156"/>
       <use xlink:href="#DejaVuSans-38" x="159.033203"/>
      </g>
     </g>
    </g>
    <g id="ytick_6">
     <g id="line2d_23">
      <path d="M 41.871875 12.778781 
L 336.648346 12.778781 
" clip-path="url(#p0f69f36610)" style="fill: none; stroke: #cbcbcb"/>
     </g>
     <g id="line2d_24"/>
     <g id="text_12">
      <!-- 0.10 -->
      <g transform="translate(7.2 18.097688) scale(0.14 -0.14)">
       <use xlink:href="#DejaVuSans-30"/>
       <use xlink:href="#DejaVuSans-2e" x="63.623047"/>
       <use xlink:href="#DejaVuSans-31" x="95.410156"/>
       <use xlink:href="#DejaVuSans-30" x="159.033203"/>
      </g>
     </g>
    </g>
   </g>
   <g id="line2d_25">
    <path d="M 55.270805 15.152727 
L 188.9979 15.152727 
L 189.52232 174.207273 
L 323.249415 174.207273 
L 323.249415 174.207273 
" clip-path="url(#p0f69f36610)" style="fill: none; stroke: #008fd5; stroke-width: 4"/>
   </g>
   <g id="patch_3">
    <path d="M 41.871875 182.16 
L 41.871875 7.2 
" style="fill: none; stroke: #f0f0f0; stroke-width: 3; stroke-linejoin: miter; stroke-linecap: square"/>
   </g>
   <g id="patch_4">
    <path d="M 336.648346 182.16 
L 336.648346 7.2 
" style="fill: none; stroke: #f0f0f0; stroke-width: 3; stroke-linejoin: miter; stroke-linecap: square"/>
   </g>
   <g id="patch_5">
    <path d="M 41.871875 182.16 
L 336.648346 182.16 
" style="fill: none; stroke: #f0f0f0; stroke-width: 3; stroke-linejoin: miter; stroke-linecap: square"/>
   </g>
   <g id="patch_6">
    <path d="M 41.871875 7.2 
L 336.648346 7.2 
" style="fill: none; stroke: #f0f0f0; stroke-width: 3; stroke-linejoin: miter; stroke-linecap: square"/>
   </g>
   <g id="legend_1">
    <g id="patch_7">
     <path d="M 218.882096 38.949375 
L 326.848346 38.949375 
Q 329.648346 38.949375 329.648346 36.149375 
L 329.648346 17 
Q 329.648346 14.2 326.848346 14.2 
L 218.882096 14.2 
Q 216.082096 14.2 216.082096 17 
L 216.082096 36.149375 
Q 216.082096 38.949375 218.882096 38.949375 
z
" style="fill: #f0f0f0; opacity: 0.8; stroke: #cccccc; stroke-width: 0.5; stroke-linejoin: miter"/>
    </g>
    <g id="line2d_26">
     <path d="M 221.682096 25.537813 
L 235.682096 25.537813 
L 249.682096 25.537813 
" style="fill: none; stroke: #008fd5; stroke-width: 4"/>
    </g>
    <g id="text_13">
     <!-- accuracy -->
     <g transform="translate(260.882096 30.437813) scale(0.14 -0.14)">
      <defs>
       <path id="DejaVuSans-61" d="M 2194 1759 
Q 1497 1759 1228 1600 
Q 959 1441 959 1056 
Q 959 750 1161 570 
Q 1363 391 1709 391 
Q 2188 391 2477 730 
Q 2766 1069 2766 1631 
L 2766 1759 
L 2194 1759 
z
M 3341 1997 
L 3341 0 
L 2766 0 
L 2766 531 
Q 2569 213 2275 61 
Q 1981 -91 1556 -91 
Q 1019 -91 701 211 
Q 384 513 384 1019 
Q 384 1609 779 1909 
Q 1175 2209 1959 2209 
L 2766 2209 
L 2766 2266 
Q 2766 2663 2505 2880 
Q 2244 3097 1772 3097 
Q 1472 3097 1187 3025 
Q 903 2953 641 2809 
L 641 3341 
Q 956 3463 1253 3523 
Q 1550 3584 1831 3584 
Q 2591 3584 2966 3190 
Q 3341 2797 3341 1997 
z
" transform="scale(0.015625)"/>
       <path id="DejaVuSans-63" d="M 3122 3366 
L 3122 2828 
Q 2878 2963 2633 3030 
Q 2388 3097 2138 3097 
Q 1578 3097 1268 2742 
Q 959 2388 959 1747 
Q 959 1106 1268 751 
Q 1578 397 2138 397 
Q 2388 397 2633 464 
Q 2878 531 3122 666 
L 3122 134 
Q 2881 22 2623 -34 
Q 2366 -91 2075 -91 
Q 1284 -91 818 406 
Q 353 903 353 1747 
Q 353 2603 823 3093 
Q 1294 3584 2113 3584 
Q 2378 3584 2631 3529 
Q 2884 3475 3122 3366 
z
" transform="scale(0.015625)"/>
       <path id="DejaVuSans-75" d="M 544 1381 
L 544 3500 
L 1119 3500 
L 1119 1403 
Q 1119 906 1312 657 
Q 1506 409 1894 409 
Q 2359 409 2629 706 
Q 2900 1003 2900 1516 
L 2900 3500 
L 3475 3500 
L 3475 0 
L 2900 0 
L 2900 538 
Q 2691 219 2414 64 
Q 2138 -91 1772 -91 
Q 1169 -91 856 284 
Q 544 659 544 1381 
z
M 1991 3584 
L 1991 3584 
z
" transform="scale(0.015625)"/>
       <path id="DejaVuSans-72" d="M 2631 2963 
Q 2534 3019 2420 3045 
Q 2306 3072 2169 3072 
Q 1681 3072 1420 2755 
Q 1159 2438 1159 1844 
L 1159 0 
L 581 0 
L 581 3500 
L 1159 3500 
L 1159 2956 
Q 1341 3275 1631 3429 
Q 1922 3584 2338 3584 
Q 2397 3584 2469 3576 
Q 2541 3569 2628 3553 
L 2631 2963 
z
" transform="scale(0.015625)"/>
       <path id="DejaVuSans-79" d="M 2059 -325 
Q 1816 -950 1584 -1140 
Q 1353 -1331 966 -1331 
L 506 -1331 
L 506 -850 
L 844 -850 
Q 1081 -850 1212 -737 
Q 1344 -625 1503 -206 
L 1606 56 
L 191 3500 
L 800 3500 
L 1894 763 
L 2988 3500 
L 3597 3500 
L 2059 -325 
z
" transform="scale(0.015625)"/>
      </defs>
      <use xlink:href="#DejaVuSans-61"/>
      <use xlink:href="#DejaVuSans-63" x="61.279297"/>
      <use xlink:href="#DejaVuSans-63" x="116.259766"/>
      <use xlink:href="#DejaVuSans-75" x="171.240234"/>
      <use xlink:href="#DejaVuSans-72" x="234.619141"/>
      <use xlink:href="#DejaVuSans-61" x="275.732422"/>
      <use xlink:href="#DejaVuSans-63" x="337.011719"/>
      <use xlink:href="#DejaVuSans-79" x="391.992188"/>
     </g>
    </g>
   </g>
  </g>
  <g id="axes_2">
   <g id="patch_8">
    <path d="M 395.60364 182.16 
L 690.38011 182.16 
L 690.38011 7.2 
L 395.60364 7.2 
L 395.60364 182.16 
z
" style="fill: none"/>
   </g>
   <g id="matplotlib.axis_3">
    <g id="xtick_7">
     <g id="line2d_27">
      <path d="M 409.00257 182.16 
L 409.00257 7.2 
" clip-path="url(#pa443ff6aa8)" style="fill: none; stroke: #cbcbcb"/>
     </g>
     <g id="line2d_28"/>
     <g id="text_14">
      <!-- 0 -->
      <g transform="translate(404.54882 196.297813) scale(0.14 -0.14)">
       <use xlink:href="#DejaVuSans-30"/>
      </g>
     </g>
    </g>
    <g id="xtick_8">
     <g id="line2d_29">
      <path d="M 461.444568 182.16 
L 461.444568 7.2 
" clip-path="url(#pa443ff6aa8)" style="fill: none; stroke: #cbcbcb"/>
     </g>
     <g id="line2d_30"/>
     <g id="text_15">
      <!-- 100 -->
      <g transform="translate(448.083318 196.297813) scale(0.14 -0.14)">
       <use xlink:href="#DejaVuSans-31"/>
       <use xlink:href="#DejaVuSans-30" x="63.623047"/>
       <use xlink:href="#DejaVuSans-30" x="127.246094"/>
      </g>
     </g>
    </g>
    <g id="xtick_9">
     <g id="line2d_31">
      <path d="M 513.886566 182.16 
L 513.886566 7.2 
" clip-path="url(#pa443ff6aa8)" style="fill: none; stroke: #cbcbcb"/>
     </g>
     <g id="line2d_32"/>
     <g id="text_16">
      <!-- 200 -->
      <g transform="translate(500.525316 196.297813) scale(0.14 -0.14)">
       <use xlink:href="#DejaVuSans-32"/>
       <use xlink:href="#DejaVuSans-30" x="63.623047"/>
       <use xlink:href="#DejaVuSans-30" x="127.246094"/>
      </g>
     </g>
    </g>
    <g id="xtick_10">
     <g id="line2d_33">
      <path d="M 566.328564 182.16 
L 566.328564 7.2 
" clip-path="url(#pa443ff6aa8)" style="fill: none; stroke: #cbcbcb"/>
     </g>
     <g id="line2d_34"/>
     <g id="text_17">
      <!-- 300 -->
      <g transform="translate(552.967314 196.297813) scale(0.14 -0.14)">
       <use xlink:href="#DejaVuSans-33"/>
       <use xlink:href="#DejaVuSans-30" x="63.623047"/>
       <use xlink:href="#DejaVuSans-30" x="127.246094"/>
      </g>
     </g>
    </g>
    <g id="xtick_11">
     <g id="line2d_35">
      <path d="M 618.770562 182.16 
L 618.770562 7.2 
" clip-path="url(#pa443ff6aa8)" style="fill: none; stroke: #cbcbcb"/>
     </g>
     <g id="line2d_36"/>
     <g id="text_18">
      <!-- 400 -->
      <g transform="translate(605.409312 196.297813) scale(0.14 -0.14)">
       <use xlink:href="#DejaVuSans-34"/>
       <use xlink:href="#DejaVuSans-30" x="63.623047"/>
       <use xlink:href="#DejaVuSans-30" x="127.246094"/>
      </g>
     </g>
    </g>
    <g id="xtick_12">
     <g id="line2d_37">
      <path d="M 671.21256 182.16 
L 671.21256 7.2 
" clip-path="url(#pa443ff6aa8)" style="fill: none; stroke: #cbcbcb"/>
     </g>
     <g id="line2d_38"/>
     <g id="text_19">
      <!-- 500 -->
      <g transform="translate(657.85131 196.297813) scale(0.14 -0.14)">
       <use xlink:href="#DejaVuSans-35"/>
       <use xlink:href="#DejaVuSans-30" x="63.623047"/>
       <use xlink:href="#DejaVuSans-30" x="127.246094"/>
      </g>
     </g>
    </g>
   </g>
   <g id="matplotlib.axis_4">
    <g id="ytick_7">
     <g id="line2d_39">
      <path d="M 395.60364 149.405144 
L 690.38011 149.405144 
" clip-path="url(#pa443ff6aa8)" style="fill: none; stroke: #cbcbcb"/>
     </g>
     <g id="line2d_40"/>
     <g id="text_20">
      <!-- 20 -->
      <g transform="translate(374.28864 154.72405) scale(0.14 -0.14)">
       <use xlink:href="#DejaVuSans-32"/>
       <use xlink:href="#DejaVuSans-30" x="63.623047"/>
      </g>
     </g>
    </g>
    <g id="ytick_8">
     <g id="line2d_41">
      <path d="M 395.60364 115.384854 
L 690.38011 115.384854 
" clip-path="url(#pa443ff6aa8)" style="fill: none; stroke: #cbcbcb"/>
     </g>
     <g id="line2d_42"/>
     <g id="text_21">
      <!-- 40 -->
      <g transform="translate(374.28864 120.70376) scale(0.14 -0.14)">
       <use xlink:href="#DejaVuSans-34"/>
       <use xlink:href="#DejaVuSans-30" x="63.623047"/>
      </g>
     </g>
    </g>
    <g id="ytick_9">
     <g id="line2d_43">
      <path d="M 395.60364 81.364565 
L 690.38011 81.364565 
" clip-path="url(#pa443ff6aa8)" style="fill: none; stroke: #cbcbcb"/>
     </g>
     <g id="line2d_44"/>
     <g id="text_22">
      <!-- 60 -->
      <g transform="translate(374.28864 86.683471) scale(0.14 -0.14)">
       <use xlink:href="#DejaVuSans-36"/>
       <use xlink:href="#DejaVuSans-30" x="63.623047"/>
      </g>
     </g>
    </g>
    <g id="ytick_10">
     <g id="line2d_45">
      <path d="M 395.60364 47.344276 
L 690.38011 47.344276 
" clip-path="url(#pa443ff6aa8)" style="fill: none; stroke: #cbcbcb"/>
     </g>
     <g id="line2d_46"/>
     <g id="text_23">
      <!-- 80 -->
      <g transform="translate(374.28864 52.663182) scale(0.14 -0.14)">
       <use xlink:href="#DejaVuSans-38"/>
       <use xlink:href="#DejaVuSans-30" x="63.623047"/>
      </g>
     </g>
    </g>
    <g id="ytick_11">
     <g id="line2d_47">
      <path d="M 395.60364 13.323986 
L 690.38011 13.323986 
" clip-path="url(#pa443ff6aa8)" style="fill: none; stroke: #cbcbcb"/>
     </g>
     <g id="line2d_48"/>
     <g id="text_24">
      <!-- 100 -->
      <g transform="translate(365.38114 18.642892) scale(0.14 -0.14)">
       <use xlink:href="#DejaVuSans-31"/>
       <use xlink:href="#DejaVuSans-30" x="63.623047"/>
       <use xlink:href="#DejaVuSans-30" x="127.246094"/>
      </g>
     </g>
    </g>
   </g>
   <g id="line2d_49">
    <path d="M 409.00257 15.152727 
L 409.52699 82.206877 
L 410.05141 58.802024 
L 410.57583 101.237807 
L 411.10025 101.12041 
L 411.62467 55.436786 
L 412.14909 90.221132 
L 412.67351 116.069889 
L 413.72235 79.225669 
L 414.24677 22.889921 
L 414.77119 42.354437 
L 415.29561 73.468342 
L 415.82003 125.902257 
L 416.34445 79.855783 
L 416.86887 132.741724 
L 417.39329 136.937282 
L 417.91771 106.826093 
L 418.44213 54.415337 
L 418.96655 111.888523 
L 419.49097 105.809679 
L 420.01539 83.034686 
L 420.53981 104.587094 
L 421.06423 86.769956 
L 421.58865 83.834781 
L 422.11307 128.223664 
L 422.63749 137.436466 
L 423.16191 150.044698 
L 423.68633 118.961193 
L 424.21075 148.612764 
L 424.73517 143.831395 
L 425.25959 105.822027 
L 425.78401 126.526809 
L 426.30843 135.909022 
L 426.832849 155.776359 
L 427.357269 143.370099 
L 427.881689 160.903604 
L 428.406109 169.802276 
L 428.930529 163.694988 
L 429.454949 152.967042 
L 429.979369 157.663283 
L 430.503789 139.32156 
L 431.028209 139.23396 
L 431.552629 146.515948 
L 432.077049 143.426841 
L 432.601469 149.918542 
L 433.125889 151.465858 
L 433.650309 157.362084 
L 434.174729 151.863025 
L 434.699149 153.318828 
L 435.223569 131.493755 
L 435.747989 139.542113 
L 436.272409 116.392392 
L 436.796829 137.472982 
L 437.321249 136.535752 
L 437.845669 132.561662 
L 438.370089 142.311063 
L 438.894509 120.390597 
L 439.418929 136.136985 
L 439.943349 134.765063 
L 440.467769 119.297731 
L 440.992189 145.238702 
L 441.516609 129.161265 
L 442.041029 118.389013 
L 442.565449 143.286838 
L 443.089869 102.737731 
L 443.614289 140.41221 
L 444.138709 159.712734 
L 444.663129 146.517804 
L 445.187549 148.722578 
L 445.711969 139.193678 
L 446.236389 143.984591 
L 446.760809 120.746303 
L 447.285229 117.479528 
L 447.809649 147.620364 
L 448.334069 143.29319 
L 448.858489 110.837607 
L 449.907329 75.787731 
L 450.431749 47.740628 
L 450.956169 116.126667 
L 451.480589 147.2298 
L 452.005009 152.601635 
L 452.529429 129.662665 
L 453.053848 137.237343 
L 453.578268 147.119558 
L 454.102688 128.101979 
L 454.627108 163.040599 
L 455.151528 152.468629 
L 455.675948 159.309187 
L 456.200368 169.380773 
L 456.724788 162.856497 
L 457.249208 162.04163 
L 457.773628 149.846658 
L 458.298048 141.042764 
L 458.822468 135.332676 
L 459.346888 155.602192 
L 459.871308 153.601149 
L 460.395728 168.5703 
L 461.444568 173.046351 
L 462.493408 146.790096 
L 463.017828 152.011931 
L 463.542248 136.910197 
L 464.066668 137.980216 
L 464.591088 159.672501 
L 465.115508 135.033828 
L 465.639928 141.424796 
L 466.164348 162.048973 
L 466.688768 167.253548 
L 467.213188 160.272435 
L 468.786448 166.062596 
L 469.310868 136.456678 
L 469.835288 156.238469 
L 470.359708 144.110027 
L 470.884128 161.378803 
L 471.408548 162.01649 
L 471.932968 171.699447 
L 472.457388 173.764833 
L 472.981808 158.362367 
L 473.506228 156.574462 
L 474.030648 163.196557 
L 474.555068 133.651404 
L 475.079488 152.001179 
L 475.603908 138.800696 
L 476.128328 144.626997 
L 476.652748 166.023553 
L 477.177168 170.343958 
L 477.701588 161.371886 
L 478.750427 169.487693 
L 479.274847 151.542242 
L 479.799267 158.523997 
L 480.323687 156.500908 
L 480.848107 165.968362 
L 481.372527 147.277279 
L 481.896947 154.049954 
L 482.421367 164.929572 
L 482.945787 153.18994 
L 483.470207 159.157366 
L 483.994627 149.439294 
L 484.519047 133.328074 
L 485.043467 155.073908 
L 485.567887 152.749477 
L 486.092307 146.629533 
L 486.616727 154.978915 
L 487.141147 138.848519 
L 487.665567 156.100429 
L 488.189987 159.703246 
L 488.714407 154.119385 
L 489.238827 163.353365 
L 489.763247 158.585712 
L 490.287667 171.292769 
L 490.812087 169.360005 
L 491.336507 160.080976 
L 491.860927 169.959825 
L 492.385347 152.845574 
L 492.909767 158.703405 
L 493.434187 157.971094 
L 493.958607 147.288885 
L 494.483027 156.664765 
L 495.007447 163.895533 
L 495.531867 147.202365 
L 496.056287 160.053835 
L 496.580707 152.125791 
L 497.105127 160.675974 
L 497.629547 164.228976 
L 498.153967 135.129536 
L 498.678387 155.387417 
L 499.202807 148.966854 
L 499.727227 166.405187 
L 500.251647 151.030404 
L 500.776067 150.486002 
L 501.300487 154.312538 
L 501.824907 153.331423 
L 502.349327 122.693051 
L 502.873747 156.928254 
L 503.398167 166.684767 
L 503.922587 168.269707 
L 504.447006 167.196389 
L 504.971426 172.647316 
L 505.495846 167.662497 
L 506.020266 163.955474 
L 506.544686 147.401288 
L 507.069106 161.517857 
L 507.593526 148.751599 
L 508.117946 155.968111 
L 508.642366 155.518739 
L 509.166786 140.563887 
L 509.691206 161.63732 
L 510.215626 166.551874 
L 510.740046 169.894182 
L 511.264466 169.697413 
L 511.788886 165.888998 
L 512.313306 171.103796 
L 512.837726 168.439592 
L 513.362146 139.880889 
L 514.410986 164.283425 
L 514.935406 162.453047 
L 515.459826 174.207273 
L 515.984246 171.775251 
L 516.508666 173.298595 
L 517.033086 169.340526 
L 517.557506 153.361223 
L 518.081926 163.120095 
L 518.606346 149.633811 
L 519.130766 160.955046 
L 519.655186 155.416967 
L 520.179606 135.589449 
L 520.704026 151.343919 
L 521.228446 159.145671 
L 521.752866 164.016662 
L 522.801706 152.564885 
L 523.326126 160.666532 
L 523.850546 162.113344 
L 524.374966 162.174351 
L 524.899386 159.010187 
L 525.423806 164.92077 
L 525.948226 159.00053 
L 526.472646 169.163288 
L 526.997066 151.500801 
L 527.521486 150.059691 
L 528.045906 161.828085 
L 528.570326 149.890591 
L 529.094746 149.880358 
L 529.619166 143.485977 
L 530.143585 166.772741 
L 530.668005 140.784057 
L 531.192425 146.092755 
L 531.716845 164.096854 
L 532.241265 162.824481 
L 532.765685 137.076886 
L 533.290105 161.338776 
L 533.814525 157.986421 
L 534.338945 161.664173 
L 534.863365 156.066771 
L 535.387785 158.825578 
L 535.912205 165.042918 
L 536.961045 126.089752 
L 537.485465 143.893059 
L 538.009885 120.969857 
L 538.534305 135.227955 
L 539.058725 144.576621 
L 539.583145 157.705819 
L 540.107565 160.703199 
L 540.631985 155.827517 
L 541.156405 158.106488 
L 541.680825 157.713553 
L 542.205245 159.866142 
L 542.729665 162.697062 
L 543.254085 140.730105 
L 543.778505 138.801498 
L 544.302925 134.000225 
L 544.827345 139.505775 
L 545.876185 121.727691 
L 546.400605 120.176082 
L 546.925025 145.713926 
L 547.449445 156.09941 
L 547.973865 160.823478 
L 548.498285 163.018003 
L 549.022705 169.235184 
L 549.547125 163.341655 
L 550.071545 151.72453 
L 550.595965 130.519181 
L 551.120385 117.147798 
L 551.644805 115.140166 
L 552.169225 104.372774 
L 552.693645 128.136616 
L 553.218065 124.434101 
L 553.742485 143.207505 
L 554.266905 137.257273 
L 554.791325 160.506311 
L 555.315745 165.0026 
L 555.840165 160.704447 
L 556.364584 152.075801 
L 556.889004 138.054588 
L 557.413424 119.70564 
L 557.937844 142.481434 
L 558.462264 154.475684 
L 558.986684 139.018063 
L 559.511104 167.286613 
L 560.035524 163.976084 
L 560.559944 164.610121 
L 561.084364 157.81817 
L 561.608784 144.796142 
L 562.133204 159.188918 
L 562.657624 156.603124 
L 563.182044 141.849323 
L 563.706464 145.149551 
L 564.230884 147.713363 
L 564.755304 157.933827 
L 565.279724 158.314741 
L 565.804144 145.334042 
L 566.328564 156.019376 
L 566.852984 159.329762 
L 567.377404 151.41616 
L 567.901824 151.27942 
L 568.426244 150.780012 
L 568.950664 158.795494 
L 569.475084 155.933743 
L 569.999504 150.580314 
L 570.523924 149.59334 
L 571.048344 128.513236 
L 571.572764 144.294427 
L 572.097184 155.771905 
L 572.621604 106.405213 
L 573.146024 143.650532 
L 573.670444 126.861186 
L 574.194864 126.486092 
L 574.719284 137.589178 
L 575.243704 142.80869 
L 575.768124 141.561396 
L 576.292544 122.339817 
L 576.816964 131.018998 
L 577.341384 150.419358 
L 577.865804 152.646606 
L 578.390224 165.52085 
L 578.914644 142.109153 
L 579.439064 140.226888 
L 579.963484 140.659844 
L 580.487904 138.804366 
L 581.012324 107.756387 
L 581.536744 91.277271 
L 582.061163 114.163665 
L 582.585583 115.412659 
L 583.110003 141.194075 
L 583.634423 145.659111 
L 584.158843 148.837216 
L 584.683263 149.144382 
L 585.207683 156.844898 
L 585.732103 152.784582 
L 586.256523 142.524962 
L 586.780943 145.643204 
L 587.305363 146.99018 
L 587.829783 142.067063 
L 588.354203 141.084043 
L 588.878623 149.75779 
L 589.403043 128.540093 
L 589.927463 128.493341 
L 590.451883 131.488421 
L 590.976303 149.969093 
L 591.500723 157.018608 
L 592.025143 153.980468 
L 592.549563 167.842578 
L 593.073983 166.803314 
L 593.598403 163.390194 
L 594.122823 148.76143 
L 594.647243 114.593934 
L 595.171663 130.404556 
L 595.696083 128.836212 
L 596.220503 122.467122 
L 596.744923 110.514436 
L 597.269343 119.367006 
L 597.793763 123.31539 
L 598.318183 146.869124 
L 598.842603 134.308799 
L 599.367023 156.011022 
L 599.891443 155.551189 
L 600.940283 111.130897 
L 601.989123 153.717757 
L 602.513543 147.217663 
L 603.037963 146.066216 
L 603.562383 165.174793 
L 604.086803 164.136534 
L 604.611223 166.435495 
L 605.135643 157.321258 
L 605.660063 123.927555 
L 606.184483 150.321837 
L 606.708903 131.399573 
L 607.233323 149.512508 
L 607.757742 139.730744 
L 608.282162 121.08569 
L 608.806582 153.291822 
L 609.331002 152.852825 
L 609.855422 147.299617 
L 610.379842 157.542009 
L 610.904262 156.41041 
L 611.428682 155.008251 
L 611.953102 130.97453 
L 612.477522 146.694632 
L 613.001942 149.093711 
L 613.526362 148.207158 
L 614.050782 148.161136 
L 614.575202 144.466846 
L 615.099622 114.483604 
L 615.624042 136.449414 
L 616.148462 139.207158 
L 616.672882 119.060369 
L 617.197302 116.801027 
L 617.721722 123.518154 
L 618.246142 128.796669 
L 618.770562 128.054318 
L 619.819402 106.757558 
L 620.343822 124.913498 
L 620.868242 124.22433 
L 621.392662 142.761844 
L 621.917082 149.850428 
L 622.441502 155.086857 
L 623.490342 121.634336 
L 624.014762 150.799793 
L 624.539182 128.752623 
L 625.063602 99.276816 
L 625.588022 91.619162 
L 626.112442 56.950649 
L 626.636862 93.560219 
L 627.161282 119.690469 
L 627.685702 136.177664 
L 628.210122 148.494588 
L 628.734542 140.568079 
L 629.258962 143.499124 
L 629.783382 155.333835 
L 630.307802 114.477887 
L 630.832222 141.692253 
L 631.881062 144.334726 
L 632.405482 132.708498 
L 632.929902 134.866844 
L 633.454321 128.134176 
L 633.978741 87.657872 
L 634.503161 101.806717 
L 635.027581 142.067705 
L 635.552001 143.441191 
L 636.076421 137.374342 
L 636.600841 156.595081 
L 637.125261 152.113916 
L 637.649681 150.243994 
L 638.174101 135.976889 
L 638.698521 74.827653 
L 639.222941 93.299484 
L 639.747361 94.070412 
L 640.271781 105.553706 
L 640.796201 98.273321 
L 641.320621 95.329626 
L 641.845041 107.762227 
L 642.369461 127.708942 
L 642.893881 106.373327 
L 643.418301 141.524237 
L 643.942721 155.811328 
L 644.467141 141.256261 
L 644.991561 93.185715 
L 646.040401 147.653587 
L 646.564821 146.990047 
L 647.089241 127.372365 
L 647.613661 147.589731 
L 648.138081 153.866381 
L 648.662501 146.19646 
L 649.186921 115.061067 
L 649.711341 113.8337 
L 650.235761 104.287575 
L 650.760181 97.718161 
L 651.284601 86.156805 
L 651.809021 111.746294 
L 652.333441 100.315182 
L 652.857861 119.753268 
L 653.382281 144.479953 
L 653.906701 146.224621 
L 654.431121 148.728609 
L 654.955541 155.648233 
L 655.479961 145.801895 
L 656.004381 148.51838 
L 656.528801 135.940834 
L 657.053221 141.586884 
L 657.577641 114.029676 
L 658.102061 109.984096 
L 658.626481 115.773777 
L 659.150901 86.33545 
L 659.67532 109.93722 
L 660.19974 109.979962 
L 660.72416 91.456655 
L 661.24858 88.088401 
L 661.773 118.175633 
L 662.29742 120.425494 
L 662.82184 96.669983 
L 663.34626 78.692766 
L 664.3951 109.595887 
L 664.91952 95.769343 
L 665.44394 138.699048 
L 665.96836 151.340691 
L 666.49278 149.110118 
L 667.0172 144.374477 
L 667.54162 147.823346 
L 668.06604 135.087858 
L 668.59046 109.002948 
L 669.11488 97.565614 
L 669.6393 49.809353 
L 670.16372 55.517313 
L 670.68814 94.187354 
L 671.21256 120.731567 
L 672.2614 135.949081 
L 672.78582 128.013315 
L 673.31024 141.102884 
L 673.83466 149.486585 
L 674.8835 138.049585 
L 675.40792 141.083472 
L 675.93234 135.610876 
L 676.45676 138.779942 
L 676.98118 113.130198 
L 676.98118 113.130198 
" clip-path="url(#pa443ff6aa8)" style="fill: none; stroke: #008fd5; stroke-opacity: 0.4; stroke-width: 4"/>
   </g>
   <g id="line2d_50">
    <path d="M 409.00257 15.152727 
L 409.52699 18.505428 
L 410.05141 20.520256 
L 411.10025 28.38436 
L 411.62467 29.736974 
L 412.14909 32.761183 
L 412.67351 36.926613 
L 413.19793 40.00272 
L 413.72235 41.96386 
L 414.24677 41.010167 
L 414.77119 41.077378 
L 415.29561 42.696931 
L 415.82003 46.857196 
L 416.34445 48.50713 
L 417.39329 56.929781 
L 417.91771 59.42459 
L 418.44213 59.174133 
L 419.49097 64.009849 
L 420.01539 64.961102 
L 420.53981 66.942409 
L 421.58865 68.728843 
L 422.63749 74.990238 
L 423.16191 78.742964 
L 423.68633 80.753879 
L 424.73517 87.131048 
L 425.25959 88.065593 
L 426.30843 92.284672 
L 426.832849 95.45926 
L 427.357269 97.854803 
L 428.930529 107.409396 
L 429.979369 112.086076 
L 432.077049 117.681137 
L 434.699149 125.638452 
L 435.223569 125.931217 
L 435.747989 126.611761 
L 436.272409 126.100796 
L 437.321249 127.162723 
L 437.845669 127.432673 
L 438.370089 128.176594 
L 438.894509 127.787295 
L 439.943349 128.5328 
L 440.467769 128.071046 
L 440.992189 128.929431 
L 441.516609 128.94102 
L 442.041029 128.413424 
L 442.565449 129.157096 
L 443.089869 127.83613 
L 443.614289 128.464933 
L 444.138709 130.027326 
L 445.187549 131.745387 
L 445.711969 132.117802 
L 446.236389 132.711142 
L 447.285229 131.381235 
L 447.809649 132.193192 
L 448.334069 132.748191 
L 448.858489 131.652661 
L 449.382909 129.644883 
L 449.907329 126.952024 
L 450.431749 122.991454 
L 450.956169 122.648213 
L 452.005009 125.31351 
L 452.529429 125.530971 
L 453.053848 126.116292 
L 453.578268 127.166455 
L 454.102688 127.213233 
L 454.627108 129.004604 
L 455.151528 130.177809 
L 455.675948 131.634379 
L 456.200368 133.521698 
L 457.249208 136.341099 
L 457.773628 137.016378 
L 458.298048 137.217698 
L 458.822468 137.123447 
L 459.871308 138.825075 
L 461.444568 143.395078 
L 461.968988 144.152419 
L 462.493408 144.284301 
L 463.017828 144.670683 
L 464.066668 143.967538 
L 464.591088 144.752787 
L 465.115508 144.26684 
L 465.639928 144.12474 
L 468.786448 149.351017 
L 469.310868 148.7063 
L 469.835288 149.08291 
L 470.359708 148.834267 
L 471.408548 150.089247 
L 472.457388 152.29951 
L 474.030648 153.321012 
L 474.555068 152.337535 
L 475.079488 152.320719 
L 475.603908 151.644717 
L 476.128328 151.293832 
L 477.701588 153.367294 
L 478.750427 154.763413 
L 479.274847 154.602357 
L 480.323687 154.883564 
L 480.848107 155.437803 
L 481.372527 155.029777 
L 481.896947 154.980787 
L 482.421367 155.478225 
L 482.945787 155.363811 
L 483.470207 155.55349 
L 483.994627 155.24778 
L 484.519047 154.151796 
L 485.043467 154.197903 
L 485.567887 154.125484 
L 486.092307 153.750688 
L 486.616727 153.812102 
L 487.141147 153.06392 
L 487.665567 153.215747 
L 488.189987 153.540121 
L 488.714407 153.569084 
L 489.238827 154.058298 
L 489.763247 154.284669 
L 490.812087 155.846322 
L 491.336507 156.058057 
L 491.860927 156.753146 
L 492.385347 156.557767 
L 493.434187 156.730351 
L 493.958607 156.258277 
L 494.483027 156.278601 
L 495.007447 156.659449 
L 495.531867 156.186594 
L 496.056287 156.379957 
L 496.580707 156.167251 
L 497.105127 156.392687 
L 497.629547 156.784502 
L 498.153967 155.701754 
L 498.678387 155.686038 
L 499.202807 155.350077 
L 499.727227 155.902833 
L 500.776067 155.400554 
L 501.824907 155.245418 
L 502.349327 153.617799 
L 502.873747 153.783323 
L 504.447006 155.724263 
L 504.971426 156.570417 
L 505.495846 157.125022 
L 506.020266 157.466544 
L 506.544686 156.963281 
L 507.069106 157.191011 
L 507.593526 156.76904 
L 508.642366 156.668483 
L 509.166786 155.863255 
L 509.691206 156.15196 
L 510.740046 157.333068 
L 511.264466 157.951286 
L 511.788886 158.348171 
L 512.837726 159.458635 
L 513.362146 158.479749 
L 513.886566 158.216959 
L 514.935406 158.716923 
L 515.984246 160.105633 
L 516.508666 160.765281 
L 517.033086 161.194044 
L 517.557506 160.802404 
L 518.081926 160.918289 
L 518.606346 160.354065 
L 519.130766 160.384115 
L 519.655186 160.135757 
L 520.179606 158.908442 
L 520.704026 158.530216 
L 521.228446 158.560988 
L 521.752866 158.833771 
L 522.277286 158.832339 
L 522.801706 158.518966 
L 523.850546 158.800695 
L 524.374966 158.969379 
L 524.899386 158.97142 
L 525.423806 159.268888 
L 525.948226 159.255471 
L 526.472646 159.750862 
L 527.521486 158.874427 
L 528.045906 159.02211 
L 529.094746 158.131277 
L 529.619166 157.399013 
L 530.143585 157.867699 
L 530.668005 157.013518 
L 531.192425 156.467479 
L 532.241265 157.147725 
L 532.765685 156.144183 
L 533.290105 156.403913 
L 533.814525 156.483039 
L 534.338945 156.742097 
L 534.863365 156.708331 
L 535.387785 156.814193 
L 535.912205 157.22563 
L 536.436625 156.606965 
L 536.961045 155.081104 
L 537.485465 154.521703 
L 538.009885 152.844114 
L 538.534305 151.963307 
L 539.058725 151.593971 
L 539.583145 151.899563 
L 540.107565 152.339748 
L 541.156405 152.793754 
L 542.205245 153.381063 
L 542.729665 153.846862 
L 543.778505 152.471553 
L 544.302925 151.547987 
L 544.827345 150.945877 
L 545.351765 149.950944 
L 546.400605 147.121599 
L 546.925025 147.051214 
L 547.449445 147.503627 
L 548.498285 148.912036 
L 549.022705 149.928194 
L 549.547125 150.598866 
L 550.071545 150.65515 
L 550.595965 149.648352 
L 551.644805 146.379167 
L 552.169225 144.278847 
L 553.218065 142.519855 
L 553.742485 142.554239 
L 554.266905 142.289394 
L 555.840165 145.111063 
L 556.364584 145.4593 
L 556.889004 145.089065 
L 557.413424 143.819894 
L 557.937844 143.752971 
L 558.462264 144.289106 
L 558.986684 144.025555 
L 560.035524 146.12798 
L 560.559944 147.05209 
L 561.084364 147.590392 
L 561.608784 147.450681 
L 562.657624 148.465869 
L 563.182044 148.135041 
L 563.706464 147.985768 
L 564.230884 147.972148 
L 565.279724 148.962458 
L 565.804144 148.781036 
L 566.328564 149.142952 
L 566.852984 149.652294 
L 568.426244 149.865564 
L 568.950664 150.312062 
L 569.475084 150.593149 
L 570.523924 150.542552 
L 571.048344 149.441085 
L 571.572764 149.183754 
L 572.097184 149.51316 
L 572.621604 147.357761 
L 573.146024 147.172397 
L 574.194864 145.1733 
L 574.719284 144.794095 
L 575.768124 144.538155 
L 576.292544 143.428236 
L 576.816964 142.807772 
L 577.865804 143.661261 
L 578.390224 144.75424 
L 579.439064 144.402233 
L 580.487904 143.944577 
L 581.012324 142.135166 
L 581.536744 139.592272 
L 582.585583 137.175436 
L 583.110003 137.37637 
L 584.158843 138.342846 
L 584.683263 138.882923 
L 585.207683 139.781023 
L 585.732103 140.431203 
L 586.256523 140.535891 
L 587.305363 141.101206 
L 588.354203 141.146226 
L 588.878623 141.576807 
L 589.927463 140.303389 
L 590.451883 139.862643 
L 590.976303 140.367966 
L 592.025143 141.839495 
L 593.073983 144.322835 
L 593.598403 145.276204 
L 594.122823 145.450465 
L 594.647243 143.907639 
L 595.696083 142.512669 
L 596.220503 141.51039 
L 596.744923 139.960595 
L 597.269343 138.930915 
L 597.793763 138.15014 
L 598.318183 138.586087 
L 598.842603 138.372224 
L 599.891443 140.069014 
L 600.415863 139.716413 
L 600.940283 138.287139 
L 601.464703 138.058926 
L 601.989123 138.841868 
L 603.037963 139.600938 
L 604.611223 143.262128 
L 605.135643 143.965085 
L 605.660063 142.963209 
L 606.184483 143.33114 
L 606.708903 142.734561 
L 607.233323 143.073461 
L 607.757742 142.906325 
L 608.282162 141.815295 
L 609.331002 142.912307 
L 609.855422 143.131673 
L 610.904262 144.480102 
L 611.428682 145.006511 
L 611.953102 144.304913 
L 612.477522 144.424399 
L 613.526362 144.835332 
L 614.050782 145.001625 
L 614.575202 144.974887 
L 615.099622 143.450324 
L 615.624042 143.10028 
L 616.148462 142.905624 
L 617.197302 140.467745 
L 617.721722 139.620268 
L 618.770562 138.52785 
L 619.294982 137.433079 
L 619.819402 135.899302 
L 620.868242 134.793728 
L 621.392662 135.192134 
L 621.917082 135.925046 
L 622.441502 136.883136 
L 622.965922 136.994423 
L 623.490342 136.226418 
L 624.014762 136.955087 
L 624.539182 136.544963 
L 625.588022 132.528436 
L 626.112442 128.749547 
L 626.636862 126.990081 
L 627.161282 126.625102 
L 627.685702 127.102728 
L 628.210122 128.172324 
L 629.258962 129.527463 
L 629.783382 130.817782 
L 630.307802 130.00079 
L 631.881062 131.860421 
L 632.929902 132.051028 
L 633.454321 131.855185 
L 633.978741 129.645317 
L 634.503161 128.25339 
L 635.552001 129.668963 
L 636.076421 130.054232 
L 637.125261 132.417908 
L 637.649681 133.309214 
L 638.174101 133.442599 
L 638.698521 130.511852 
L 639.747361 126.922195 
L 640.271781 125.853772 
L 641.320621 123.0175 
L 641.845041 122.254742 
L 642.369461 122.527449 
L 642.893881 121.719742 
L 643.418301 122.709974 
L 643.942721 124.365041 
L 644.467141 125.209604 
L 644.991561 123.608408 
L 645.515981 123.41953 
L 646.564821 125.749172 
L 647.089241 125.830334 
L 647.613661 126.918301 
L 648.138081 128.265706 
L 648.662501 129.162245 
L 649.711341 127.726015 
L 650.760181 125.112297 
L 651.284601 123.164524 
L 651.809021 122.593616 
L 652.333441 121.479693 
L 652.857861 121.393372 
L 654.431121 124.981404 
L 654.955541 126.514746 
L 656.004381 128.531074 
L 656.528801 128.901561 
L 657.053221 129.535828 
L 658.626481 127.219306 
L 659.150901 125.175116 
L 660.19974 123.691562 
L 661.24858 120.380254 
L 661.773 120.270021 
L 662.29742 120.277795 
L 662.82184 119.097401 
L 663.34626 117.077167 
L 663.87068 116.019743 
L 664.3951 115.698551 
L 664.91952 114.70209 
L 665.44394 115.901938 
L 666.49278 119.245691 
L 667.54162 121.868187 
L 668.06604 122.529175 
L 668.59046 121.852861 
L 669.11488 120.638504 
L 670.16372 114.018068 
L 670.68814 113.026532 
L 671.21256 113.411782 
L 671.73698 114.129462 
L 672.2614 115.220446 
L 672.78582 115.860092 
L 673.31024 117.122232 
L 673.83466 118.740455 
L 674.35908 119.972073 
L 676.45676 123.38292 
L 676.98118 122.870287 
L 676.98118 122.870287 
" clip-path="url(#pa443ff6aa8)" style="fill: none; stroke: #008fd5; stroke-width: 4"/>
   </g>
   <g id="patch_9">
    <path d="M 395.60364 182.16 
L 395.60364 7.2 
" style="fill: none; stroke: #f0f0f0; stroke-width: 3; stroke-linejoin: miter; stroke-linecap: square"/>
   </g>
   <g id="patch_10">
    <path d="M 690.38011 182.16 
L 690.38011 7.2 
" style="fill: none; stroke: #f0f0f0; stroke-width: 3; stroke-linejoin: miter; stroke-linecap: square"/>
   </g>
   <g id="patch_11">
    <path d="M 395.60364 182.16 
L 690.38011 182.16 
" style="fill: none; stroke: #f0f0f0; stroke-width: 3; stroke-linejoin: miter; stroke-linecap: square"/>
   </g>
   <g id="patch_12">
    <path d="M 395.60364 7.2 
L 690.38011 7.2 
" style="fill: none; stroke: #f0f0f0; stroke-width: 3; stroke-linejoin: miter; stroke-linecap: square"/>
   </g>
   <g id="legend_2">
    <g id="patch_13">
     <path d="M 565.425735 38.949375 
L 680.58011 38.949375 
Q 683.38011 38.949375 683.38011 36.149375 
L 683.38011 17 
Q 683.38011 14.2 680.58011 14.2 
L 565.425735 14.2 
Q 562.625735 14.2 562.625735 17 
L 562.625735 36.149375 
Q 562.625735 38.949375 565.425735 38.949375 
z
" style="fill: #f0f0f0; opacity: 0.8; stroke: #cccccc; stroke-width: 0.5; stroke-linejoin: miter"/>
    </g>
    <g id="line2d_51">
     <path d="M 568.225735 25.537813 
L 582.225735 25.537813 
L 596.225735 25.537813 
" style="fill: none; stroke: #008fd5; stroke-width: 4"/>
    </g>
    <g id="text_25">
     <!-- perplexity -->
     <g transform="translate(607.425735 30.437813) scale(0.14 -0.14)">
      <defs>
       <path id="DejaVuSans-70" d="M 1159 525 
L 1159 -1331 
L 581 -1331 
L 581 3500 
L 1159 3500 
L 1159 2969 
Q 1341 3281 1617 3432 
Q 1894 3584 2278 3584 
Q 2916 3584 3314 3078 
Q 3713 2572 3713 1747 
Q 3713 922 3314 415 
Q 2916 -91 2278 -91 
Q 1894 -91 1617 61 
Q 1341 213 1159 525 
z
M 3116 1747 
Q 3116 2381 2855 2742 
Q 2594 3103 2138 3103 
Q 1681 3103 1420 2742 
Q 1159 2381 1159 1747 
Q 1159 1113 1420 752 
Q 1681 391 2138 391 
Q 2594 391 2855 752 
Q 3116 1113 3116 1747 
z
" transform="scale(0.015625)"/>
       <path id="DejaVuSans-65" d="M 3597 1894 
L 3597 1613 
L 953 1613 
Q 991 1019 1311 708 
Q 1631 397 2203 397 
Q 2534 397 2845 478 
Q 3156 559 3463 722 
L 3463 178 
Q 3153 47 2828 -22 
Q 2503 -91 2169 -91 
Q 1331 -91 842 396 
Q 353 884 353 1716 
Q 353 2575 817 3079 
Q 1281 3584 2069 3584 
Q 2775 3584 3186 3129 
Q 3597 2675 3597 1894 
z
M 3022 2063 
Q 3016 2534 2758 2815 
Q 2500 3097 2075 3097 
Q 1594 3097 1305 2825 
Q 1016 2553 972 2059 
L 3022 2063 
z
" transform="scale(0.015625)"/>
       <path id="DejaVuSans-6c" d="M 603 4863 
L 1178 4863 
L 1178 0 
L 603 0 
L 603 4863 
z
" transform="scale(0.015625)"/>
       <path id="DejaVuSans-78" d="M 3513 3500 
L 2247 1797 
L 3578 0 
L 2900 0 
L 1881 1375 
L 863 0 
L 184 0 
L 1544 1831 
L 300 3500 
L 978 3500 
L 1906 2253 
L 2834 3500 
L 3513 3500 
z
" transform="scale(0.015625)"/>
       <path id="DejaVuSans-69" d="M 603 3500 
L 1178 3500 
L 1178 0 
L 603 0 
L 603 3500 
z
M 603 4863 
L 1178 4863 
L 1178 4134 
L 603 4134 
L 603 4863 
z
" transform="scale(0.015625)"/>
       <path id="DejaVuSans-74" d="M 1172 4494 
L 1172 3500 
L 2356 3500 
L 2356 3053 
L 1172 3053 
L 1172 1153 
Q 1172 725 1289 603 
Q 1406 481 1766 481 
L 2356 481 
L 2356 0 
L 1766 0 
Q 1100 0 847 248 
Q 594 497 594 1153 
L 594 3053 
L 172 3053 
L 172 3500 
L 594 3500 
L 594 4494 
L 1172 4494 
z
" transform="scale(0.015625)"/>
      </defs>
      <use xlink:href="#DejaVuSans-70"/>
      <use xlink:href="#DejaVuSans-65" x="63.476562"/>
      <use xlink:href="#DejaVuSans-72" x="125"/>
      <use xlink:href="#DejaVuSans-70" x="166.113281"/>
      <use xlink:href="#DejaVuSans-6c" x="229.589844"/>
      <use xlink:href="#DejaVuSans-65" x="257.373047"/>
      <use xlink:href="#DejaVuSans-78" x="317.146484"/>
      <use xlink:href="#DejaVuSans-69" x="376.326172"/>
      <use xlink:href="#DejaVuSans-74" x="404.109375"/>
      <use xlink:href="#DejaVuSans-79" x="443.318359"/>
     </g>
    </g>
   </g>
  </g>
  <g id="axes_3">
   <g id="patch_14">
    <path d="M 749.335404 182.16 
L 1044.111875 182.16 
L 1044.111875 7.2 
L 749.335404 7.2 
L 749.335404 182.16 
z
" style="fill: none"/>
   </g>
   <g id="matplotlib.axis_5">
    <g id="xtick_13">
     <g id="line2d_52">
      <path d="M 762.734335 182.16 
L 762.734335 7.2 
" clip-path="url(#p6d5bbc3168)" style="fill: none; stroke: #cbcbcb"/>
     </g>
     <g id="line2d_53"/>
     <g id="text_26">
      <!-- 0 -->
      <g transform="translate(758.280585 196.297813) scale(0.14 -0.14)">
       <use xlink:href="#DejaVuSans-30"/>
      </g>
     </g>
    </g>
    <g id="xtick_14">
     <g id="line2d_54">
      <path d="M 815.176333 182.16 
L 815.176333 7.2 
" clip-path="url(#p6d5bbc3168)" style="fill: none; stroke: #cbcbcb"/>
     </g>
     <g id="line2d_55"/>
     <g id="text_27">
      <!-- 100 -->
      <g transform="translate(801.815083 196.297813) scale(0.14 -0.14)">
       <use xlink:href="#DejaVuSans-31"/>
       <use xlink:href="#DejaVuSans-30" x="63.623047"/>
       <use xlink:href="#DejaVuSans-30" x="127.246094"/>
      </g>
     </g>
    </g>
    <g id="xtick_15">
     <g id="line2d_56">
      <path d="M 867.618331 182.16 
L 867.618331 7.2 
" clip-path="url(#p6d5bbc3168)" style="fill: none; stroke: #cbcbcb"/>
     </g>
     <g id="line2d_57"/>
     <g id="text_28">
      <!-- 200 -->
      <g transform="translate(854.257081 196.297813) scale(0.14 -0.14)">
       <use xlink:href="#DejaVuSans-32"/>
       <use xlink:href="#DejaVuSans-30" x="63.623047"/>
       <use xlink:href="#DejaVuSans-30" x="127.246094"/>
      </g>
     </g>
    </g>
    <g id="xtick_16">
     <g id="line2d_58">
      <path d="M 920.060329 182.16 
L 920.060329 7.2 
" clip-path="url(#p6d5bbc3168)" style="fill: none; stroke: #cbcbcb"/>
     </g>
     <g id="line2d_59"/>
     <g id="text_29">
      <!-- 300 -->
      <g transform="translate(906.699079 196.297813) scale(0.14 -0.14)">
       <use xlink:href="#DejaVuSans-33"/>
       <use xlink:href="#DejaVuSans-30" x="63.623047"/>
       <use xlink:href="#DejaVuSans-30" x="127.246094"/>
      </g>
     </g>
    </g>
    <g id="xtick_17">
     <g id="line2d_60">
      <path d="M 972.502327 182.16 
L 972.502327 7.2 
" clip-path="url(#p6d5bbc3168)" style="fill: none; stroke: #cbcbcb"/>
     </g>
     <g id="line2d_61"/>
     <g id="text_30">
      <!-- 400 -->
      <g transform="translate(959.141077 196.297813) scale(0.14 -0.14)">
       <use xlink:href="#DejaVuSans-34"/>
       <use xlink:href="#DejaVuSans-30" x="63.623047"/>
       <use xlink:href="#DejaVuSans-30" x="127.246094"/>
      </g>
     </g>
    </g>
    <g id="xtick_18">
     <g id="line2d_62">
      <path d="M 1024.944325 182.16 
L 1024.944325 7.2 
" clip-path="url(#p6d5bbc3168)" style="fill: none; stroke: #cbcbcb"/>
     </g>
     <g id="line2d_63"/>
     <g id="text_31">
      <!-- 500 -->
      <g transform="translate(1011.583075 196.297813) scale(0.14 -0.14)">
       <use xlink:href="#DejaVuSans-35"/>
       <use xlink:href="#DejaVuSans-30" x="63.623047"/>
       <use xlink:href="#DejaVuSans-30" x="127.246094"/>
      </g>
     </g>
    </g>
   </g>
   <g id="matplotlib.axis_6">
    <g id="ytick_12">
     <g id="line2d_64">
      <path d="M 749.335404 171.205377 
L 1044.111875 171.205377 
" clip-path="url(#p6d5bbc3168)" style="fill: none; stroke: #cbcbcb"/>
     </g>
     <g id="line2d_65"/>
     <g id="text_32">
      <!-- 2000 -->
      <g transform="translate(710.205404 176.524284) scale(0.14 -0.14)">
       <use xlink:href="#DejaVuSans-32"/>
       <use xlink:href="#DejaVuSans-30" x="63.623047"/>
       <use xlink:href="#DejaVuSans-30" x="127.246094"/>
       <use xlink:href="#DejaVuSans-30" x="190.869141"/>
      </g>
     </g>
    </g>
    <g id="ytick_13">
     <g id="line2d_66">
      <path d="M 749.335404 136.508827 
L 1044.111875 136.508827 
" clip-path="url(#p6d5bbc3168)" style="fill: none; stroke: #cbcbcb"/>
     </g>
     <g id="line2d_67"/>
     <g id="text_33">
      <!-- 2250 -->
      <g transform="translate(710.205404 141.827733) scale(0.14 -0.14)">
       <use xlink:href="#DejaVuSans-32"/>
       <use xlink:href="#DejaVuSans-32" x="63.623047"/>
       <use xlink:href="#DejaVuSans-35" x="127.246094"/>
       <use xlink:href="#DejaVuSans-30" x="190.869141"/>
      </g>
     </g>
    </g>
    <g id="ytick_14">
     <g id="line2d_68">
      <path d="M 749.335404 101.812276 
L 1044.111875 101.812276 
" clip-path="url(#p6d5bbc3168)" style="fill: none; stroke: #cbcbcb"/>
     </g>
     <g id="line2d_69"/>
     <g id="text_34">
      <!-- 2500 -->
      <g transform="translate(710.205404 107.131182) scale(0.14 -0.14)">
       <use xlink:href="#DejaVuSans-32"/>
       <use xlink:href="#DejaVuSans-35" x="63.623047"/>
       <use xlink:href="#DejaVuSans-30" x="127.246094"/>
       <use xlink:href="#DejaVuSans-30" x="190.869141"/>
      </g>
     </g>
    </g>
    <g id="ytick_15">
     <g id="line2d_70">
      <path d="M 749.335404 67.115725 
L 1044.111875 67.115725 
" clip-path="url(#p6d5bbc3168)" style="fill: none; stroke: #cbcbcb"/>
     </g>
     <g id="line2d_71"/>
     <g id="text_35">
      <!-- 2750 -->
      <g transform="translate(710.205404 72.434631) scale(0.14 -0.14)">
       <defs>
        <path id="DejaVuSans-37" d="M 525 4666 
L 3525 4666 
L 3525 4397 
L 1831 0 
L 1172 0 
L 2766 4134 
L 525 4134 
L 525 4666 
z
" transform="scale(0.015625)"/>
       </defs>
       <use xlink:href="#DejaVuSans-32"/>
       <use xlink:href="#DejaVuSans-37" x="63.623047"/>
       <use xlink:href="#DejaVuSans-35" x="127.246094"/>
       <use xlink:href="#DejaVuSans-30" x="190.869141"/>
      </g>
     </g>
    </g>
    <g id="ytick_16">
     <g id="line2d_72">
      <path d="M 749.335404 32.419174 
L 1044.111875 32.419174 
" clip-path="url(#p6d5bbc3168)" style="fill: none; stroke: #cbcbcb"/>
     </g>
     <g id="line2d_73"/>
     <g id="text_36">
      <!-- 3000 -->
      <g transform="translate(710.205404 37.738081) scale(0.14 -0.14)">
       <use xlink:href="#DejaVuSans-33"/>
       <use xlink:href="#DejaVuSans-30" x="63.623047"/>
       <use xlink:href="#DejaVuSans-30" x="127.246094"/>
       <use xlink:href="#DejaVuSans-30" x="190.869141"/>
      </g>
     </g>
    </g>
   </g>
   <g id="line2d_74">
    <path d="M 762.734335 52.728583 
L 764.307595 52.728583 
L 764.832015 54.673352 
L 768.502955 78.91628 
L 769.027375 79.687024 
L 773.222734 75.793827 
L 776.893674 71.327968 
L 777.942514 72.16282 
L 780.564614 74.439239 
L 781.089034 74.594052 
L 784.759974 38.723206 
L 785.284394 35.008337 
L 789.479754 57.563297 
L 793.150694 73.138965 
L 793.675114 74.332879 
L 797.346054 72.847263 
L 797.870474 73.062084 
L 801.541413 77.049951 
L 802.065833 76.474137 
L 805.736773 68.480309 
L 807.834453 62.138566 
L 809.932133 55.699645 
L 810.980973 60.143209 
L 814.127493 74.372217 
L 818.322853 69.274027 
L 822.518213 71.429347 
L 826.189152 75.164071 
L 826.713572 72.993504 
L 830.384512 30.299466 
L 830.908932 30.576225 
L 834.579872 71.969752 
L 835.104292 73.700615 
L 838.775232 70.317024 
L 840.348492 69.603271 
L 842.970592 68.512227 
L 844.019432 69.890568 
L 847.165952 74.159667 
L 850.836891 33.091589 
L 851.361311 28.908148 
L 855.032251 68.467298 
L 855.556671 72.536214 
L 859.752031 70.677306 
L 863.422971 68.210699 
L 863.947391 68.373407 
L 867.618331 72.902798 
L 868.142751 69.645287 
L 871.813691 31.365673 
L 872.338111 32.353644 
L 876.53347 56.101569 
L 880.20441 74.538483 
L 884.39977 74.12924 
L 888.07071 77.681164 
L 888.59513 77.829912 
L 892.26607 71.491048 
L 892.79049 70.332136 
L 896.46143 59.288129 
L 896.98585 59.616222 
L 900.65679 75.25376 
L 901.18121 75.666934 
L 904.852149 70.848823 
L 905.376569 70.677678 
L 909.047509 70.711358 
L 910.620769 72.447474 
L 913.242869 75.4718 
L 917.438229 18.463334 
L 921.109169 61.390252 
L 921.633589 65.996185 
L 925.828949 63.890911 
L 929.499888 62.901212 
L 930.024308 63.324619 
L 933.695248 70.493251 
L 934.219668 67.358601 
L 937.890608 26.622851 
L 938.415028 29.327115 
L 942.085968 70.238821 
L 942.610388 70.957995 
L 946.281328 69.851094 
L 950.476688 66.009061 
L 954.147627 70.943222 
L 954.672047 70.236924 
L 958.342987 30.888765 
L 958.867407 28.228787 
L 963.587187 54.229209 
L 966.733707 70.197145 
L 967.258127 71.28419 
L 970.929067 71.30862 
L 971.453487 71.655111 
L 975.124427 75.03589 
L 975.648847 74.264502 
L 979.319787 67.173123 
L 983.515146 54.83152 
L 987.186086 70.934955 
L 987.710506 72.610283 
L 991.381446 67.64295 
L 991.905866 67.23984 
L 995.576806 68.759305 
L 996.101226 69.144321 
L 999.772166 73.253897 
L 1000.296586 70.057816 
L 1003.967526 28.265008 
L 1004.491946 30.603162 
L 1008.162885 71.895988 
L 1008.687305 72.590122 
L 1012.358245 69.617367 
L 1016.553605 67.504232 
L 1020.224545 71.886467 
L 1020.748965 71.193078 
L 1024.419905 27.550171 
L 1024.944325 22.956334 
L 1028.615265 15.732234 
L 1029.139685 15.152727 
L 1030.712945 15.152727 
L 1030.712945 15.152727 
" clip-path="url(#p6d5bbc3168)" style="fill: none; stroke: #008fd5; stroke-width: 4"/>
   </g>
   <g id="line2d_75">
    <path d="M 762.734335 52.728583 
L 764.307595 52.728583 
L 764.832015 54.673352 
L 768.502955 78.91628 
L 769.027375 79.687024 
L 773.222734 75.793827 
L 776.893674 71.327968 
L 777.942514 72.16282 
L 780.564614 74.439239 
L 781.089034 74.594052 
L 784.759974 38.723206 
L 785.284394 35.008337 
L 789.479754 57.563297 
L 793.150694 73.138965 
L 793.675114 74.332879 
L 797.346054 72.847263 
L 797.870474 73.062084 
L 801.541413 77.049951 
L 802.065833 76.474137 
L 805.736773 68.480309 
L 807.834453 62.138566 
L 809.932133 55.699645 
L 810.980973 60.143209 
L 814.127493 74.372217 
L 818.322853 69.274027 
L 822.518213 71.429347 
L 826.189152 75.164071 
L 826.713572 72.993504 
L 830.384512 30.299466 
L 830.908932 30.576225 
L 834.579872 71.969752 
L 835.104292 73.700615 
L 838.775232 70.317024 
L 840.348492 69.603271 
L 842.970592 68.512227 
L 844.019432 69.890568 
L 847.165952 74.159667 
L 850.836891 33.091589 
L 851.361311 28.908148 
L 855.032251 68.467298 
L 855.556671 72.536214 
L 859.752031 70.677306 
L 863.422971 68.210699 
L 863.947391 68.373407 
L 867.618331 72.902798 
L 868.142751 69.645287 
L 871.813691 31.365673 
L 872.338111 32.353644 
L 876.53347 56.101569 
L 880.20441 74.538483 
L 884.39977 74.12924 
L 888.07071 77.681164 
L 888.59513 77.829912 
L 892.26607 71.491048 
L 892.79049 70.332136 
L 896.46143 59.288129 
L 896.98585 59.616222 
L 900.65679 78.301602 
L 901.18121 79.15021 
L 904.852149 77.379941 
L 905.376569 77.644197 
L 909.047509 80.725752 
L 910.620769 83.76807 
L 913.242869 88.969436 
L 917.438229 35.444246 
L 921.109169 81.419005 
L 921.633589 86.46034 
L 925.828949 87.838342 
L 929.499888 89.896484 
L 930.024308 90.755292 
L 933.695248 100.971799 
L 934.219668 98.27255 
L 937.890608 60.584642 
L 938.415028 63.724307 
L 942.085968 107.683888 
L 942.610388 108.838463 
L 946.281328 110.779403 
L 950.476688 110.420646 
L 954.147627 118.402648 
L 954.672047 118.131785 
L 958.342987 81.831467 
L 958.867407 79.60689 
L 964.111607 112.622691 
L 966.733707 128.106366 
L 967.258127 129.628812 
L 970.929067 132.701117 
L 971.977907 134.401384 
L 975.124427 139.91163 
L 975.648847 139.575642 
L 979.319787 135.532139 
L 983.515146 126.673778 
L 987.186086 145.825088 
L 987.710506 147.935817 
L 991.381446 146.016325 
L 991.905866 146.048616 
L 996.101226 151.436374 
L 999.772166 158.593791 
L 1000.296586 155.833145 
L 1003.967526 117.088178 
L 1004.491946 119.861733 
L 1008.162885 164.202434 
L 1008.687305 165.33197 
L 1012.358245 165.407055 
L 1016.029185 166.550533 
L 1016.553605 166.777179 
L 1020.224545 174.207273 
L 1020.748965 173.949302 
L 1024.419905 133.354253 
L 1024.944325 129.195817 
L 1028.615265 125.019558 
L 1029.139685 124.875453 
L 1030.712945 126.18169 
L 1030.712945 126.18169 
" clip-path="url(#p6d5bbc3168)" style="fill: none; stroke: #fc4f30; stroke-width: 4"/>
   </g>
   <g id="line2d_76">
    <path d="M 762.734335 44.245345 
L 764.307595 44.245345 
L 764.832015 46.871812 
L 768.502955 79.612752 
L 769.027375 80.818694 
L 772.698315 78.065977 
L 773.747154 75.81741 
L 776.893674 68.605034 
L 777.942514 70.150284 
L 780.564614 74.367474 
L 781.089034 74.882128 
L 784.759974 38.050282 
L 785.284394 33.978994 
L 788.955334 44.245717 
L 789.479754 46.308807 
L 793.150694 70.491388 
L 793.675114 72.431819 
L 797.346054 71.561051 
L 797.870474 72.136458 
L 801.541413 80.234748 
L 802.065833 79.840278 
L 805.736773 71.711663 
L 808.358873 64.02475 
L 809.932133 59.363723 
L 810.980973 63.249906 
L 814.127493 75.721181 
L 817.798433 69.638544 
L 818.322853 69.024916 
L 822.518213 74.659379 
L 826.189152 78.224517 
L 826.713572 76.150178 
L 830.384512 35.353913 
L 830.908932 35.792838 
L 834.579872 77.647789 
L 835.104292 79.144111 
L 838.775232 73.004821 
L 839.299652 72.695805 
L 842.970592 71.674154 
L 844.019432 73.670696 
L 847.165952 79.841126 
L 850.836891 32.458344 
L 851.361311 27.554508 
L 855.032251 69.502028 
L 855.556671 73.818123 
L 859.227611 72.178236 
L 859.752031 71.72935 
L 863.422971 66.259594 
L 863.947391 66.548924 
L 867.618331 75.6217 
L 868.142751 72.32197 
L 871.813691 31.006645 
L 872.338111 31.796974 
L 876.53347 55.189802 
L 880.20441 77.777731 
L 883.87535 75.788779 
L 884.39977 75.665985 
L 888.07071 82.313966 
L 888.59513 82.742896 
L 892.79049 73.832964 
L 896.46143 64.332411 
L 896.98585 64.62103 
L 900.65679 78.161833 
L 901.18121 78.048324 
L 904.852149 68.581417 
L 905.376569 68.890671 
L 909.047509 75.012206 
L 909.571929 75.015967 
L 913.242869 74.125445 
L 917.438229 26.450351 
L 921.109169 77.155294 
L 921.633589 82.463866 
L 925.304529 76.367133 
L 925.828949 75.943049 
L 929.499888 78.498328 
L 930.024308 79.012237 
L 933.695248 83.718194 
L 934.219668 81.480436 
L 937.890608 52.666035 
L 938.415028 55.126644 
L 942.085968 89.312606 
L 942.610388 89.466877 
L 946.805748 84.334159 
L 949.952268 81.075157 
L 950.476688 80.699628 
L 954.147627 88.632872 
L 954.672047 88.095211 
L 958.342987 43.594107 
L 958.867407 41.496558 
L 962.538347 83.137332 
L 963.062767 86.945448 
L 966.733707 96.652824 
L 967.258127 97.433192 
L 970.929067 99.974206 
L 971.977907 101.814377 
L 975.124427 107.889458 
L 975.648847 106.573632 
L 979.319787 94.222846 
L 980.893046 93.566796 
L 982.990726 92.772333 
L 983.515146 92.860837 
L 987.186086 115.222933 
L 987.710506 117.564815 
L 991.381446 111.186477 
L 991.905866 111.264917 
L 995.576806 125.830218 
L 996.101226 126.931765 
L 999.772166 126.393867 
L 1000.296586 124.893953 
L 1003.967526 107.089879 
L 1004.491946 107.316219 
L 1008.162885 117.20965 
L 1008.687305 115.723356 
L 1012.358245 100.956349 
L 1012.882665 101.384532 
L 1016.553605 105.417464 
L 1020.224545 111.902704 
L 1020.748965 112.150425 
L 1024.419905 93.928569 
L 1024.944325 93.954998 
L 1028.615265 134.095959 
L 1029.139685 137.31603 
L 1030.712945 137.31603 
L 1030.712945 137.31603 
" clip-path="url(#p6d5bbc3168)" style="fill: none; stroke: #e5ae38; stroke-width: 4"/>
   </g>
   <g id="patch_15">
    <path d="M 749.335404 182.16 
L 749.335404 7.2 
" style="fill: none; stroke: #f0f0f0; stroke-width: 3; stroke-linejoin: miter; stroke-linecap: square"/>
   </g>
   <g id="patch_16">
    <path d="M 1044.111875 182.16 
L 1044.111875 7.2 
" style="fill: none; stroke: #f0f0f0; stroke-width: 3; stroke-linejoin: miter; stroke-linecap: square"/>
   </g>
   <g id="patch_17">
    <path d="M 749.335404 182.16 
L 1044.111875 182.16 
" style="fill: none; stroke: #f0f0f0; stroke-width: 3; stroke-linejoin: miter; stroke-linecap: square"/>
   </g>
   <g id="patch_18">
    <path d="M 749.335404 7.2 
L 1044.111875 7.2 
" style="fill: none; stroke: #f0f0f0; stroke-width: 3; stroke-linejoin: miter; stroke-linecap: square"/>
   </g>
   <g id="legend_3">
    <g id="patch_19">
     <path d="M 759.135404 175.16 
L 908.410404 175.16 
Q 911.210404 175.16 911.210404 172.36 
L 911.210404 112.111875 
Q 911.210404 109.311875 908.410404 109.311875 
L 759.135404 109.311875 
Q 756.335404 109.311875 756.335404 112.111875 
L 756.335404 172.36 
Q 756.335404 175.16 759.135404 175.16 
z
" style="fill: #f0f0f0; opacity: 0.8; stroke: #cccccc; stroke-width: 0.5; stroke-linejoin: miter"/>
    </g>
    <g id="line2d_77">
     <path d="M 761.935404 120.649688 
L 775.935404 120.649688 
L 789.935404 120.649688 
" style="fill: none; stroke: #008fd5; stroke-width: 4"/>
    </g>
    <g id="text_37">
     <!-- target centroid -->
     <g transform="translate(801.135404 125.549688) scale(0.14 -0.14)">
      <defs>
       <path id="DejaVuSans-67" d="M 2906 1791 
Q 2906 2416 2648 2759 
Q 2391 3103 1925 3103 
Q 1463 3103 1205 2759 
Q 947 2416 947 1791 
Q 947 1169 1205 825 
Q 1463 481 1925 481 
Q 2391 481 2648 825 
Q 2906 1169 2906 1791 
z
M 3481 434 
Q 3481 -459 3084 -895 
Q 2688 -1331 1869 -1331 
Q 1566 -1331 1297 -1286 
Q 1028 -1241 775 -1147 
L 775 -588 
Q 1028 -725 1275 -790 
Q 1522 -856 1778 -856 
Q 2344 -856 2625 -561 
Q 2906 -266 2906 331 
L 2906 616 
Q 2728 306 2450 153 
Q 2172 0 1784 0 
Q 1141 0 747 490 
Q 353 981 353 1791 
Q 353 2603 747 3093 
Q 1141 3584 1784 3584 
Q 2172 3584 2450 3431 
Q 2728 3278 2906 2969 
L 2906 3500 
L 3481 3500 
L 3481 434 
z
" transform="scale(0.015625)"/>
       <path id="DejaVuSans-20" transform="scale(0.015625)"/>
       <path id="DejaVuSans-6e" d="M 3513 2113 
L 3513 0 
L 2938 0 
L 2938 2094 
Q 2938 2591 2744 2837 
Q 2550 3084 2163 3084 
Q 1697 3084 1428 2787 
Q 1159 2491 1159 1978 
L 1159 0 
L 581 0 
L 581 3500 
L 1159 3500 
L 1159 2956 
Q 1366 3272 1645 3428 
Q 1925 3584 2291 3584 
Q 2894 3584 3203 3211 
Q 3513 2838 3513 2113 
z
" transform="scale(0.015625)"/>
       <path id="DejaVuSans-6f" d="M 1959 3097 
Q 1497 3097 1228 2736 
Q 959 2375 959 1747 
Q 959 1119 1226 758 
Q 1494 397 1959 397 
Q 2419 397 2687 759 
Q 2956 1122 2956 1747 
Q 2956 2369 2687 2733 
Q 2419 3097 1959 3097 
z
M 1959 3584 
Q 2709 3584 3137 3096 
Q 3566 2609 3566 1747 
Q 3566 888 3137 398 
Q 2709 -91 1959 -91 
Q 1206 -91 779 398 
Q 353 888 353 1747 
Q 353 2609 779 3096 
Q 1206 3584 1959 3584 
z
" transform="scale(0.015625)"/>
       <path id="DejaVuSans-64" d="M 2906 2969 
L 2906 4863 
L 3481 4863 
L 3481 0 
L 2906 0 
L 2906 525 
Q 2725 213 2448 61 
Q 2172 -91 1784 -91 
Q 1150 -91 751 415 
Q 353 922 353 1747 
Q 353 2572 751 3078 
Q 1150 3584 1784 3584 
Q 2172 3584 2448 3432 
Q 2725 3281 2906 2969 
z
M 947 1747 
Q 947 1113 1208 752 
Q 1469 391 1925 391 
Q 2381 391 2643 752 
Q 2906 1113 2906 1747 
Q 2906 2381 2643 2742 
Q 2381 3103 1925 3103 
Q 1469 3103 1208 2742 
Q 947 2381 947 1747 
z
" transform="scale(0.015625)"/>
      </defs>
      <use xlink:href="#DejaVuSans-74"/>
      <use xlink:href="#DejaVuSans-61" x="39.208984"/>
      <use xlink:href="#DejaVuSans-72" x="100.488281"/>
      <use xlink:href="#DejaVuSans-67" x="139.851562"/>
      <use xlink:href="#DejaVuSans-65" x="203.328125"/>
      <use xlink:href="#DejaVuSans-74" x="264.851562"/>
      <use xlink:href="#DejaVuSans-20" x="304.060547"/>
      <use xlink:href="#DejaVuSans-63" x="335.847656"/>
      <use xlink:href="#DejaVuSans-65" x="390.828125"/>
      <use xlink:href="#DejaVuSans-6e" x="452.351562"/>
      <use xlink:href="#DejaVuSans-74" x="515.730469"/>
      <use xlink:href="#DejaVuSans-72" x="554.939453"/>
      <use xlink:href="#DejaVuSans-6f" x="593.802734"/>
      <use xlink:href="#DejaVuSans-69" x="654.984375"/>
      <use xlink:href="#DejaVuSans-64" x="682.767578"/>
     </g>
    </g>
    <g id="line2d_78">
     <path d="M 761.935404 141.199063 
L 775.935404 141.199063 
L 789.935404 141.199063 
" style="fill: none; stroke: #fc4f30; stroke-width: 4"/>
    </g>
    <g id="text_38">
     <!-- biased target -->
     <g transform="translate(801.135404 146.099063) scale(0.14 -0.14)">
      <defs>
       <path id="DejaVuSans-62" d="M 3116 1747 
Q 3116 2381 2855 2742 
Q 2594 3103 2138 3103 
Q 1681 3103 1420 2742 
Q 1159 2381 1159 1747 
Q 1159 1113 1420 752 
Q 1681 391 2138 391 
Q 2594 391 2855 752 
Q 3116 1113 3116 1747 
z
M 1159 2969 
Q 1341 3281 1617 3432 
Q 1894 3584 2278 3584 
Q 2916 3584 3314 3078 
Q 3713 2572 3713 1747 
Q 3713 922 3314 415 
Q 2916 -91 2278 -91 
Q 1894 -91 1617 61 
Q 1341 213 1159 525 
L 1159 0 
L 581 0 
L 581 4863 
L 1159 4863 
L 1159 2969 
z
" transform="scale(0.015625)"/>
       <path id="DejaVuSans-73" d="M 2834 3397 
L 2834 2853 
Q 2591 2978 2328 3040 
Q 2066 3103 1784 3103 
Q 1356 3103 1142 2972 
Q 928 2841 928 2578 
Q 928 2378 1081 2264 
Q 1234 2150 1697 2047 
L 1894 2003 
Q 2506 1872 2764 1633 
Q 3022 1394 3022 966 
Q 3022 478 2636 193 
Q 2250 -91 1575 -91 
Q 1294 -91 989 -36 
Q 684 19 347 128 
L 347 722 
Q 666 556 975 473 
Q 1284 391 1588 391 
Q 1994 391 2212 530 
Q 2431 669 2431 922 
Q 2431 1156 2273 1281 
Q 2116 1406 1581 1522 
L 1381 1569 
Q 847 1681 609 1914 
Q 372 2147 372 2553 
Q 372 3047 722 3315 
Q 1072 3584 1716 3584 
Q 2034 3584 2315 3537 
Q 2597 3491 2834 3397 
z
" transform="scale(0.015625)"/>
      </defs>
      <use xlink:href="#DejaVuSans-62"/>
      <use xlink:href="#DejaVuSans-69" x="63.476562"/>
      <use xlink:href="#DejaVuSans-61" x="91.259766"/>
      <use xlink:href="#DejaVuSans-73" x="152.539062"/>
      <use xlink:href="#DejaVuSans-65" x="204.638672"/>
      <use xlink:href="#DejaVuSans-64" x="266.162109"/>
      <use xlink:href="#DejaVuSans-20" x="329.638672"/>
      <use xlink:href="#DejaVuSans-74" x="361.425781"/>
      <use xlink:href="#DejaVuSans-61" x="400.634766"/>
      <use xlink:href="#DejaVuSans-72" x="461.914062"/>
      <use xlink:href="#DejaVuSans-67" x="501.277344"/>
      <use xlink:href="#DejaVuSans-65" x="564.753906"/>
      <use xlink:href="#DejaVuSans-74" x="626.277344"/>
     </g>
    </g>
    <g id="line2d_79">
     <path d="M 761.935404 161.748438 
L 775.935404 161.748438 
L 789.935404 161.748438 
" style="fill: none; stroke: #e5ae38; stroke-width: 4"/>
    </g>
    <g id="text_39">
     <!-- gen centroid -->
     <g transform="translate(801.135404 166.648438) scale(0.14 -0.14)">
      <use xlink:href="#DejaVuSans-67"/>
      <use xlink:href="#DejaVuSans-65" x="63.476562"/>
      <use xlink:href="#DejaVuSans-6e" x="125"/>
      <use xlink:href="#DejaVuSans-20" x="188.378906"/>
      <use xlink:href="#DejaVuSans-63" x="220.166016"/>
      <use xlink:href="#DejaVuSans-65" x="275.146484"/>
      <use xlink:href="#DejaVuSans-6e" x="336.669922"/>
      <use xlink:href="#DejaVuSans-74" x="400.048828"/>
      <use xlink:href="#DejaVuSans-72" x="439.257812"/>
      <use xlink:href="#DejaVuSans-6f" x="478.121094"/>
      <use xlink:href="#DejaVuSans-69" x="539.302734"/>
      <use xlink:href="#DejaVuSans-64" x="567.085938"/>
     </g>
    </g>
   </g>
  </g>
 </g>
 <defs>
  <clipPath id="p0f69f36610">
   <rect x="41.871875" y="7.2" width="294.776471" height="174.96"/>
  </clipPath>
  <clipPath id="pa443ff6aa8">
   <rect x="395.60364" y="7.2" width="294.776471" height="174.96"/>
  </clipPath>
  <clipPath id="p6d5bbc3168">
   <rect x="749.335404" y="7.2" width="294.776471" height="174.96"/>
  </clipPath>
 </defs>
</svg>
