<?xml version="1.0" encoding="utf-8" standalone="no"?>
<!DOCTYPE svg PUBLIC "-//W3C//DTD SVG 1.1//EN"
  "http://www.w3.org/Graphics/SVG/1.1/DTD/svg11.dtd">
<svg xmlns:xlink="http://www.w3.org/1999/xlink" width="1051.311875pt" height="206.409375pt" viewBox="0 0 1051.311875 206.409375" xmlns="http://www.w3.org/2000/svg" version="1.1">
 <metadata>
  <rdf:RDF xmlns:dc="http://purl.org/dc/elements/1.1/" xmlns:cc="http://creativecommons.org/ns#" xmlns:rdf="http://www.w3.org/1999/02/22-rdf-syntax-ns#">
   <cc:Work>
    <dc:type rdf:resource="http://purl.org/dc/dcmitype/StillImage"/>
    <dc:date>2023-01-19T14:55:50.185184</dc:date>
    <dc:format>image/svg+xml</dc:format>
    <dc:creator>
     <cc:Agent>
      <dc:title>Matplotlib v3.6.0, https://matplotlib.org/</dc:title>
     </cc:Agent>
    </dc:creator>
   </cc:Work>
  </rdf:RDF>
 </metadata>
 <defs>
  <style type="text/css">*{stroke-linejoin: round; stroke-linecap: butt}</style>
 </defs>
 <g id="figure_1">
  <g id="patch_1">
   <path d="M 0 206.409375 
L 1051.311875 206.409375 
L 1051.311875 0 
L 0 0 
L 0 206.409375 
z
" style="fill: none"/>
  </g>
  <g id="axes_1">
   <g id="patch_2">
    <path d="M 41.871875 182.16 
L 336.648346 182.16 
L 336.648346 7.2 
L 41.871875 7.2 
L 41.871875 182.16 
z
" style="fill: none"/>
   </g>
   <g id="matplotlib.axis_1">
    <g id="xtick_1">
     <g id="line2d_1">
      <path d="M 55.270805 182.16 
L 55.270805 7.2 
" clip-path="url(#p84004142cd)" style="fill: none; stroke: #cbcbcb"/>
     </g>
     <g id="line2d_2"/>
     <g id="text_1">
      <!-- 0 -->
      <g transform="translate(50.817055 196.297813) scale(0.14 -0.14)">
       <defs>
        <path id="DejaVuSans-30" d="M 2034 4250 
Q 1547 4250 1301 3770 
Q 1056 3291 1056 2328 
Q 1056 1369 1301 889 
Q 1547 409 2034 409 
Q 2525 409 2770 889 
Q 3016 1369 3016 2328 
Q 3016 3291 2770 3770 
Q 2525 4250 2034 4250 
z
M 2034 4750 
Q 2819 4750 3233 4129 
Q 3647 3509 3647 2328 
Q 3647 1150 3233 529 
Q 2819 -91 2034 -91 
Q 1250 -91 836 529 
Q 422 1150 422 2328 
Q 422 3509 836 4129 
Q 1250 4750 2034 4750 
z
" transform="scale(0.015625)"/>
       </defs>
       <use xlink:href="#DejaVuSans-30"/>
      </g>
     </g>
    </g>
    <g id="xtick_2">
     <g id="line2d_3">
      <path d="M 107.712803 182.16 
L 107.712803 7.2 
" clip-path="url(#p84004142cd)" style="fill: none; stroke: #cbcbcb"/>
     </g>
     <g id="line2d_4"/>
     <g id="text_2">
      <!-- 100 -->
      <g transform="translate(94.351553 196.297813) scale(0.14 -0.14)">
       <defs>
        <path id="DejaVuSans-31" d="M 794 531 
L 1825 531 
L 1825 4091 
L 703 3866 
L 703 4441 
L 1819 4666 
L 2450 4666 
L 2450 531 
L 3481 531 
L 3481 0 
L 794 0 
L 794 531 
z
" transform="scale(0.015625)"/>
       </defs>
       <use xlink:href="#DejaVuSans-31"/>
       <use xlink:href="#DejaVuSans-30" x="63.623047"/>
       <use xlink:href="#DejaVuSans-30" x="127.246094"/>
      </g>
     </g>
    </g>
    <g id="xtick_3">
     <g id="line2d_5">
      <path d="M 160.154801 182.16 
L 160.154801 7.2 
" clip-path="url(#p84004142cd)" style="fill: none; stroke: #cbcbcb"/>
     </g>
     <g id="line2d_6"/>
     <g id="text_3">
      <!-- 200 -->
      <g transform="translate(146.793551 196.297813) scale(0.14 -0.14)">
       <defs>
        <path id="DejaVuSans-32" d="M 1228 531 
L 3431 531 
L 3431 0 
L 469 0 
L 469 531 
Q 828 903 1448 1529 
Q 2069 2156 2228 2338 
Q 2531 2678 2651 2914 
Q 2772 3150 2772 3378 
Q 2772 3750 2511 3984 
Q 2250 4219 1831 4219 
Q 1534 4219 1204 4116 
Q 875 4013 500 3803 
L 500 4441 
Q 881 4594 1212 4672 
Q 1544 4750 1819 4750 
Q 2544 4750 2975 4387 
Q 3406 4025 3406 3419 
Q 3406 3131 3298 2873 
Q 3191 2616 2906 2266 
Q 2828 2175 2409 1742 
Q 1991 1309 1228 531 
z
" transform="scale(0.015625)"/>
       </defs>
       <use xlink:href="#DejaVuSans-32"/>
       <use xlink:href="#DejaVuSans-30" x="63.623047"/>
       <use xlink:href="#DejaVuSans-30" x="127.246094"/>
      </g>
     </g>
    </g>
    <g id="xtick_4">
     <g id="line2d_7">
      <path d="M 212.596799 182.16 
L 212.596799 7.2 
" clip-path="url(#p84004142cd)" style="fill: none; stroke: #cbcbcb"/>
     </g>
     <g id="line2d_8"/>
     <g id="text_4">
      <!-- 300 -->
      <g transform="translate(199.235549 196.297813) scale(0.14 -0.14)">
       <defs>
        <path id="DejaVuSans-33" d="M 2597 2516 
Q 3050 2419 3304 2112 
Q 3559 1806 3559 1356 
Q 3559 666 3084 287 
Q 2609 -91 1734 -91 
Q 1441 -91 1130 -33 
Q 819 25 488 141 
L 488 750 
Q 750 597 1062 519 
Q 1375 441 1716 441 
Q 2309 441 2620 675 
Q 2931 909 2931 1356 
Q 2931 1769 2642 2001 
Q 2353 2234 1838 2234 
L 1294 2234 
L 1294 2753 
L 1863 2753 
Q 2328 2753 2575 2939 
Q 2822 3125 2822 3475 
Q 2822 3834 2567 4026 
Q 2313 4219 1838 4219 
Q 1578 4219 1281 4162 
Q 984 4106 628 3988 
L 628 4550 
Q 988 4650 1302 4700 
Q 1616 4750 1894 4750 
Q 2613 4750 3031 4423 
Q 3450 4097 3450 3541 
Q 3450 3153 3228 2886 
Q 3006 2619 2597 2516 
z
" transform="scale(0.015625)"/>
       </defs>
       <use xlink:href="#DejaVuSans-33"/>
       <use xlink:href="#DejaVuSans-30" x="63.623047"/>
       <use xlink:href="#DejaVuSans-30" x="127.246094"/>
      </g>
     </g>
    </g>
    <g id="xtick_5">
     <g id="line2d_9">
      <path d="M 265.038797 182.16 
L 265.038797 7.2 
" clip-path="url(#p84004142cd)" style="fill: none; stroke: #cbcbcb"/>
     </g>
     <g id="line2d_10"/>
     <g id="text_5">
      <!-- 400 -->
      <g transform="translate(251.677547 196.297813) scale(0.14 -0.14)">
       <defs>
        <path id="DejaVuSans-34" d="M 2419 4116 
L 825 1625 
L 2419 1625 
L 2419 4116 
z
M 2253 4666 
L 3047 4666 
L 3047 1625 
L 3713 1625 
L 3713 1100 
L 3047 1100 
L 3047 0 
L 2419 0 
L 2419 1100 
L 313 1100 
L 313 1709 
L 2253 4666 
z
" transform="scale(0.015625)"/>
       </defs>
       <use xlink:href="#DejaVuSans-34"/>
       <use xlink:href="#DejaVuSans-30" x="63.623047"/>
       <use xlink:href="#DejaVuSans-30" x="127.246094"/>
      </g>
     </g>
    </g>
    <g id="xtick_6">
     <g id="line2d_11">
      <path d="M 317.480795 182.16 
L 317.480795 7.2 
" clip-path="url(#p84004142cd)" style="fill: none; stroke: #cbcbcb"/>
     </g>
     <g id="line2d_12"/>
     <g id="text_6">
      <!-- 500 -->
      <g transform="translate(304.119545 196.297813) scale(0.14 -0.14)">
       <defs>
        <path id="DejaVuSans-35" d="M 691 4666 
L 3169 4666 
L 3169 4134 
L 1269 4134 
L 1269 2991 
Q 1406 3038 1543 3061 
Q 1681 3084 1819 3084 
Q 2600 3084 3056 2656 
Q 3513 2228 3513 1497 
Q 3513 744 3044 326 
Q 2575 -91 1722 -91 
Q 1428 -91 1123 -41 
Q 819 9 494 109 
L 494 744 
Q 775 591 1075 516 
Q 1375 441 1709 441 
Q 2250 441 2565 725 
Q 2881 1009 2881 1497 
Q 2881 1984 2565 2268 
Q 2250 2553 1709 2553 
Q 1456 2553 1204 2497 
Q 953 2441 691 2322 
L 691 4666 
z
" transform="scale(0.015625)"/>
       </defs>
       <use xlink:href="#DejaVuSans-35"/>
       <use xlink:href="#DejaVuSans-30" x="63.623047"/>
       <use xlink:href="#DejaVuSans-30" x="127.246094"/>
      </g>
     </g>
    </g>
   </g>
   <g id="matplotlib.axis_2">
    <g id="ytick_1">
     <g id="line2d_13">
      <path d="M 41.871875 174.207273 
L 336.648346 174.207273 
" clip-path="url(#p84004142cd)" style="fill: none; stroke: #cbcbcb"/>
     </g>
     <g id="line2d_14"/>
     <g id="text_7">
      <!-- 0.00 -->
      <g transform="translate(7.2 179.526179) scale(0.14 -0.14)">
       <defs>
        <path id="DejaVuSans-2e" d="M 684 794 
L 1344 794 
L 1344 0 
L 684 0 
L 684 794 
z
" transform="scale(0.015625)"/>
       </defs>
       <use xlink:href="#DejaVuSans-30"/>
       <use xlink:href="#DejaVuSans-2e" x="63.623047"/>
       <use xlink:href="#DejaVuSans-30" x="95.410156"/>
       <use xlink:href="#DejaVuSans-30" x="159.033203"/>
      </g>
     </g>
    </g>
    <g id="ytick_2">
     <g id="line2d_15">
      <path d="M 41.871875 142.23966 
L 336.648346 142.23966 
" clip-path="url(#p84004142cd)" style="fill: none; stroke: #cbcbcb"/>
     </g>
     <g id="line2d_16"/>
     <g id="text_8">
      <!-- 0.02 -->
      <g transform="translate(7.2 147.558566) scale(0.14 -0.14)">
       <use xlink:href="#DejaVuSans-30"/>
       <use xlink:href="#DejaVuSans-2e" x="63.623047"/>
       <use xlink:href="#DejaVuSans-30" x="95.410156"/>
       <use xlink:href="#DejaVuSans-32" x="159.033203"/>
      </g>
     </g>
    </g>
    <g id="ytick_3">
     <g id="line2d_17">
      <path d="M 41.871875 110.272048 
L 336.648346 110.272048 
" clip-path="url(#p84004142cd)" style="fill: none; stroke: #cbcbcb"/>
     </g>
     <g id="line2d_18"/>
     <g id="text_9">
      <!-- 0.04 -->
      <g transform="translate(7.2 115.590954) scale(0.14 -0.14)">
       <use xlink:href="#DejaVuSans-30"/>
       <use xlink:href="#DejaVuSans-2e" x="63.623047"/>
       <use xlink:href="#DejaVuSans-30" x="95.410156"/>
       <use xlink:href="#DejaVuSans-34" x="159.033203"/>
      </g>
     </g>
    </g>
    <g id="ytick_4">
     <g id="line2d_19">
      <path d="M 41.871875 78.304435 
L 336.648346 78.304435 
" clip-path="url(#p84004142cd)" style="fill: none; stroke: #cbcbcb"/>
     </g>
     <g id="line2d_20"/>
     <g id="text_10">
      <!-- 0.06 -->
      <g transform="translate(7.2 83.623341) scale(0.14 -0.14)">
       <defs>
        <path id="DejaVuSans-36" d="M 2113 2584 
Q 1688 2584 1439 2293 
Q 1191 2003 1191 1497 
Q 1191 994 1439 701 
Q 1688 409 2113 409 
Q 2538 409 2786 701 
Q 3034 994 3034 1497 
Q 3034 2003 2786 2293 
Q 2538 2584 2113 2584 
z
M 3366 4563 
L 3366 3988 
Q 3128 4100 2886 4159 
Q 2644 4219 2406 4219 
Q 1781 4219 1451 3797 
Q 1122 3375 1075 2522 
Q 1259 2794 1537 2939 
Q 1816 3084 2150 3084 
Q 2853 3084 3261 2657 
Q 3669 2231 3669 1497 
Q 3669 778 3244 343 
Q 2819 -91 2113 -91 
Q 1303 -91 875 529 
Q 447 1150 447 2328 
Q 447 3434 972 4092 
Q 1497 4750 2381 4750 
Q 2619 4750 2861 4703 
Q 3103 4656 3366 4563 
z
" transform="scale(0.015625)"/>
       </defs>
       <use xlink:href="#DejaVuSans-30"/>
       <use xlink:href="#DejaVuSans-2e" x="63.623047"/>
       <use xlink:href="#DejaVuSans-30" x="95.410156"/>
       <use xlink:href="#DejaVuSans-36" x="159.033203"/>
      </g>
     </g>
    </g>
    <g id="ytick_5">
     <g id="line2d_21">
      <path d="M 41.871875 46.336822 
L 336.648346 46.336822 
" clip-path="url(#p84004142cd)" style="fill: none; stroke: #cbcbcb"/>
     </g>
     <g id="line2d_22"/>
     <g id="text_11">
      <!-- 0.08 -->
      <g transform="translate(7.2 51.655729) scale(0.14 -0.14)">
       <defs>
        <path id="DejaVuSans-38" d="M 2034 2216 
Q 1584 2216 1326 1975 
Q 1069 1734 1069 1313 
Q 1069 891 1326 650 
Q 1584 409 2034 409 
Q 2484 409 2743 651 
Q 3003 894 3003 1313 
Q 3003 1734 2745 1975 
Q 2488 2216 2034 2216 
z
M 1403 2484 
Q 997 2584 770 2862 
Q 544 3141 544 3541 
Q 544 4100 942 4425 
Q 1341 4750 2034 4750 
Q 2731 4750 3128 4425 
Q 3525 4100 3525 3541 
Q 3525 3141 3298 2862 
Q 3072 2584 2669 2484 
Q 3125 2378 3379 2068 
Q 3634 1759 3634 1313 
Q 3634 634 3220 271 
Q 2806 -91 2034 -91 
Q 1263 -91 848 271 
Q 434 634 434 1313 
Q 434 1759 690 2068 
Q 947 2378 1403 2484 
z
M 1172 3481 
Q 1172 3119 1398 2916 
Q 1625 2713 2034 2713 
Q 2441 2713 2670 2916 
Q 2900 3119 2900 3481 
Q 2900 3844 2670 4047 
Q 2441 4250 2034 4250 
Q 1625 4250 1398 4047 
Q 1172 3844 1172 3481 
z
" transform="scale(0.015625)"/>
       </defs>
       <use xlink:href="#DejaVuSans-30"/>
       <use xlink:href="#DejaVuSans-2e" x="63.623047"/>
       <use xlink:href="#DejaVuSans-30" x="95.410156"/>
       <use xlink:href="#DejaVuSans-38" x="159.033203"/>
      </g>
     </g>
    </g>
    <g id="ytick_6">
     <g id="line2d_23">
      <path d="M 41.871875 14.36921 
L 336.648346 14.36921 
" clip-path="url(#p84004142cd)" style="fill: none; stroke: #cbcbcb"/>
     </g>
     <g id="line2d_24"/>
     <g id="text_12">
      <!-- 0.10 -->
      <g transform="translate(7.2 19.688116) scale(0.14 -0.14)">
       <use xlink:href="#DejaVuSans-30"/>
       <use xlink:href="#DejaVuSans-2e" x="63.623047"/>
       <use xlink:href="#DejaVuSans-31" x="95.410156"/>
       <use xlink:href="#DejaVuSans-30" x="159.033203"/>
      </g>
     </g>
    </g>
   </g>
   <g id="line2d_25">
    <path d="M 55.270805 15.152727 
L 188.9979 15.152727 
L 189.52232 174.207273 
L 323.249415 174.207273 
L 323.249415 174.207273 
" clip-path="url(#p84004142cd)" style="fill: none; stroke: #008fd5; stroke-width: 4"/>
   </g>
   <g id="patch_3">
    <path d="M 41.871875 182.16 
L 41.871875 7.2 
" style="fill: none; stroke: #f0f0f0; stroke-width: 3; stroke-linejoin: miter; stroke-linecap: square"/>
   </g>
   <g id="patch_4">
    <path d="M 336.648346 182.16 
L 336.648346 7.2 
" style="fill: none; stroke: #f0f0f0; stroke-width: 3; stroke-linejoin: miter; stroke-linecap: square"/>
   </g>
   <g id="patch_5">
    <path d="M 41.871875 182.16 
L 336.648346 182.16 
" style="fill: none; stroke: #f0f0f0; stroke-width: 3; stroke-linejoin: miter; stroke-linecap: square"/>
   </g>
   <g id="patch_6">
    <path d="M 41.871875 7.2 
L 336.648346 7.2 
" style="fill: none; stroke: #f0f0f0; stroke-width: 3; stroke-linejoin: miter; stroke-linecap: square"/>
   </g>
   <g id="legend_1">
    <g id="patch_7">
     <path d="M 218.882096 38.949375 
L 326.848346 38.949375 
Q 329.648346 38.949375 329.648346 36.149375 
L 329.648346 17 
Q 329.648346 14.2 326.848346 14.2 
L 218.882096 14.2 
Q 216.082096 14.2 216.082096 17 
L 216.082096 36.149375 
Q 216.082096 38.949375 218.882096 38.949375 
z
" style="fill: #f0f0f0; opacity: 0.8; stroke: #cccccc; stroke-width: 0.5; stroke-linejoin: miter"/>
    </g>
    <g id="line2d_26">
     <path d="M 221.682096 25.537813 
L 235.682096 25.537813 
L 249.682096 25.537813 
" style="fill: none; stroke: #008fd5; stroke-width: 4"/>
    </g>
    <g id="text_13">
     <!-- accuracy -->
     <g transform="translate(260.882096 30.437813) scale(0.14 -0.14)">
      <defs>
       <path id="DejaVuSans-61" d="M 2194 1759 
Q 1497 1759 1228 1600 
Q 959 1441 959 1056 
Q 959 750 1161 570 
Q 1363 391 1709 391 
Q 2188 391 2477 730 
Q 2766 1069 2766 1631 
L 2766 1759 
L 2194 1759 
z
M 3341 1997 
L 3341 0 
L 2766 0 
L 2766 531 
Q 2569 213 2275 61 
Q 1981 -91 1556 -91 
Q 1019 -91 701 211 
Q 384 513 384 1019 
Q 384 1609 779 1909 
Q 1175 2209 1959 2209 
L 2766 2209 
L 2766 2266 
Q 2766 2663 2505 2880 
Q 2244 3097 1772 3097 
Q 1472 3097 1187 3025 
Q 903 2953 641 2809 
L 641 3341 
Q 956 3463 1253 3523 
Q 1550 3584 1831 3584 
Q 2591 3584 2966 3190 
Q 3341 2797 3341 1997 
z
" transform="scale(0.015625)"/>
       <path id="DejaVuSans-63" d="M 3122 3366 
L 3122 2828 
Q 2878 2963 2633 3030 
Q 2388 3097 2138 3097 
Q 1578 3097 1268 2742 
Q 959 2388 959 1747 
Q 959 1106 1268 751 
Q 1578 397 2138 397 
Q 2388 397 2633 464 
Q 2878 531 3122 666 
L 3122 134 
Q 2881 22 2623 -34 
Q 2366 -91 2075 -91 
Q 1284 -91 818 406 
Q 353 903 353 1747 
Q 353 2603 823 3093 
Q 1294 3584 2113 3584 
Q 2378 3584 2631 3529 
Q 2884 3475 3122 3366 
z
" transform="scale(0.015625)"/>
       <path id="DejaVuSans-75" d="M 544 1381 
L 544 3500 
L 1119 3500 
L 1119 1403 
Q 1119 906 1312 657 
Q 1506 409 1894 409 
Q 2359 409 2629 706 
Q 2900 1003 2900 1516 
L 2900 3500 
L 3475 3500 
L 3475 0 
L 2900 0 
L 2900 538 
Q 2691 219 2414 64 
Q 2138 -91 1772 -91 
Q 1169 -91 856 284 
Q 544 659 544 1381 
z
M 1991 3584 
L 1991 3584 
z
" transform="scale(0.015625)"/>
       <path id="DejaVuSans-72" d="M 2631 2963 
Q 2534 3019 2420 3045 
Q 2306 3072 2169 3072 
Q 1681 3072 1420 2755 
Q 1159 2438 1159 1844 
L 1159 0 
L 581 0 
L 581 3500 
L 1159 3500 
L 1159 2956 
Q 1341 3275 1631 3429 
Q 1922 3584 2338 3584 
Q 2397 3584 2469 3576 
Q 2541 3569 2628 3553 
L 2631 2963 
z
" transform="scale(0.015625)"/>
       <path id="DejaVuSans-79" d="M 2059 -325 
Q 1816 -950 1584 -1140 
Q 1353 -1331 966 -1331 
L 506 -1331 
L 506 -850 
L 844 -850 
Q 1081 -850 1212 -737 
Q 1344 -625 1503 -206 
L 1606 56 
L 191 3500 
L 800 3500 
L 1894 763 
L 2988 3500 
L 3597 3500 
L 2059 -325 
z
" transform="scale(0.015625)"/>
      </defs>
      <use xlink:href="#DejaVuSans-61"/>
      <use xlink:href="#DejaVuSans-63" x="61.279297"/>
      <use xlink:href="#DejaVuSans-63" x="116.259766"/>
      <use xlink:href="#DejaVuSans-75" x="171.240234"/>
      <use xlink:href="#DejaVuSans-72" x="234.619141"/>
      <use xlink:href="#DejaVuSans-61" x="275.732422"/>
      <use xlink:href="#DejaVuSans-63" x="337.011719"/>
      <use xlink:href="#DejaVuSans-79" x="391.992188"/>
     </g>
    </g>
   </g>
  </g>
  <g id="axes_2">
   <g id="patch_8">
    <path d="M 395.60364 182.16 
L 690.38011 182.16 
L 690.38011 7.2 
L 395.60364 7.2 
L 395.60364 182.16 
z
" style="fill: none"/>
   </g>
   <g id="matplotlib.axis_3">
    <g id="xtick_7">
     <g id="line2d_27">
      <path d="M 409.00257 182.16 
L 409.00257 7.2 
" clip-path="url(#pd3a7d3ebd9)" style="fill: none; stroke: #cbcbcb"/>
     </g>
     <g id="line2d_28"/>
     <g id="text_14">
      <!-- 0 -->
      <g transform="translate(404.54882 196.297813) scale(0.14 -0.14)">
       <use xlink:href="#DejaVuSans-30"/>
      </g>
     </g>
    </g>
    <g id="xtick_8">
     <g id="line2d_29">
      <path d="M 461.444568 182.16 
L 461.444568 7.2 
" clip-path="url(#pd3a7d3ebd9)" style="fill: none; stroke: #cbcbcb"/>
     </g>
     <g id="line2d_30"/>
     <g id="text_15">
      <!-- 100 -->
      <g transform="translate(448.083318 196.297813) scale(0.14 -0.14)">
       <use xlink:href="#DejaVuSans-31"/>
       <use xlink:href="#DejaVuSans-30" x="63.623047"/>
       <use xlink:href="#DejaVuSans-30" x="127.246094"/>
      </g>
     </g>
    </g>
    <g id="xtick_9">
     <g id="line2d_31">
      <path d="M 513.886566 182.16 
L 513.886566 7.2 
" clip-path="url(#pd3a7d3ebd9)" style="fill: none; stroke: #cbcbcb"/>
     </g>
     <g id="line2d_32"/>
     <g id="text_16">
      <!-- 200 -->
      <g transform="translate(500.525316 196.297813) scale(0.14 -0.14)">
       <use xlink:href="#DejaVuSans-32"/>
       <use xlink:href="#DejaVuSans-30" x="63.623047"/>
       <use xlink:href="#DejaVuSans-30" x="127.246094"/>
      </g>
     </g>
    </g>
    <g id="xtick_10">
     <g id="line2d_33">
      <path d="M 566.328564 182.16 
L 566.328564 7.2 
" clip-path="url(#pd3a7d3ebd9)" style="fill: none; stroke: #cbcbcb"/>
     </g>
     <g id="line2d_34"/>
     <g id="text_17">
      <!-- 300 -->
      <g transform="translate(552.967314 196.297813) scale(0.14 -0.14)">
       <use xlink:href="#DejaVuSans-33"/>
       <use xlink:href="#DejaVuSans-30" x="63.623047"/>
       <use xlink:href="#DejaVuSans-30" x="127.246094"/>
      </g>
     </g>
    </g>
    <g id="xtick_11">
     <g id="line2d_35">
      <path d="M 618.770562 182.16 
L 618.770562 7.2 
" clip-path="url(#pd3a7d3ebd9)" style="fill: none; stroke: #cbcbcb"/>
     </g>
     <g id="line2d_36"/>
     <g id="text_18">
      <!-- 400 -->
      <g transform="translate(605.409312 196.297813) scale(0.14 -0.14)">
       <use xlink:href="#DejaVuSans-34"/>
       <use xlink:href="#DejaVuSans-30" x="63.623047"/>
       <use xlink:href="#DejaVuSans-30" x="127.246094"/>
      </g>
     </g>
    </g>
    <g id="xtick_12">
     <g id="line2d_37">
      <path d="M 671.21256 182.16 
L 671.21256 7.2 
" clip-path="url(#pd3a7d3ebd9)" style="fill: none; stroke: #cbcbcb"/>
     </g>
     <g id="line2d_38"/>
     <g id="text_19">
      <!-- 500 -->
      <g transform="translate(657.85131 196.297813) scale(0.14 -0.14)">
       <use xlink:href="#DejaVuSans-35"/>
       <use xlink:href="#DejaVuSans-30" x="63.623047"/>
       <use xlink:href="#DejaVuSans-30" x="127.246094"/>
      </g>
     </g>
    </g>
   </g>
   <g id="matplotlib.axis_4">
    <g id="ytick_7">
     <g id="line2d_39">
      <path d="M 395.60364 154.268919 
L 690.38011 154.268919 
" clip-path="url(#pd3a7d3ebd9)" style="fill: none; stroke: #cbcbcb"/>
     </g>
     <g id="line2d_40"/>
     <g id="text_20">
      <!-- 20 -->
      <g transform="translate(374.28864 159.587825) scale(0.14 -0.14)">
       <use xlink:href="#DejaVuSans-32"/>
       <use xlink:href="#DejaVuSans-30" x="63.623047"/>
      </g>
     </g>
    </g>
    <g id="ytick_8">
     <g id="line2d_41">
      <path d="M 395.60364 121.908838 
L 690.38011 121.908838 
" clip-path="url(#pd3a7d3ebd9)" style="fill: none; stroke: #cbcbcb"/>
     </g>
     <g id="line2d_42"/>
     <g id="text_21">
      <!-- 40 -->
      <g transform="translate(374.28864 127.227744) scale(0.14 -0.14)">
       <use xlink:href="#DejaVuSans-34"/>
       <use xlink:href="#DejaVuSans-30" x="63.623047"/>
      </g>
     </g>
    </g>
    <g id="ytick_9">
     <g id="line2d_43">
      <path d="M 395.60364 89.548757 
L 690.38011 89.548757 
" clip-path="url(#pd3a7d3ebd9)" style="fill: none; stroke: #cbcbcb"/>
     </g>
     <g id="line2d_44"/>
     <g id="text_22">
      <!-- 60 -->
      <g transform="translate(374.28864 94.867663) scale(0.14 -0.14)">
       <use xlink:href="#DejaVuSans-36"/>
       <use xlink:href="#DejaVuSans-30" x="63.623047"/>
      </g>
     </g>
    </g>
    <g id="ytick_10">
     <g id="line2d_45">
      <path d="M 395.60364 57.188676 
L 690.38011 57.188676 
" clip-path="url(#pd3a7d3ebd9)" style="fill: none; stroke: #cbcbcb"/>
     </g>
     <g id="line2d_46"/>
     <g id="text_23">
      <!-- 80 -->
      <g transform="translate(374.28864 62.507582) scale(0.14 -0.14)">
       <use xlink:href="#DejaVuSans-38"/>
       <use xlink:href="#DejaVuSans-30" x="63.623047"/>
      </g>
     </g>
    </g>
    <g id="ytick_11">
     <g id="line2d_47">
      <path d="M 395.60364 24.828594 
L 690.38011 24.828594 
" clip-path="url(#pd3a7d3ebd9)" style="fill: none; stroke: #cbcbcb"/>
     </g>
     <g id="line2d_48"/>
     <g id="text_24">
      <!-- 100 -->
      <g transform="translate(365.38114 30.147501) scale(0.14 -0.14)">
       <use xlink:href="#DejaVuSans-31"/>
       <use xlink:href="#DejaVuSans-30" x="63.623047"/>
       <use xlink:href="#DejaVuSans-30" x="127.246094"/>
      </g>
     </g>
    </g>
   </g>
   <g id="line2d_49">
    <path d="M 409.00257 15.152727 
L 409.52699 94.909944 
L 410.05141 136.238862 
L 410.57583 95.570925 
L 411.10025 100.496405 
L 411.62467 71.547684 
L 412.14909 154.68053 
L 412.67351 135.205167 
L 413.19793 45.317025 
L 413.72235 92.48321 
L 414.24677 76.47633 
L 414.77119 99.445397 
L 415.29561 109.028848 
L 415.82003 115.017612 
L 416.34445 103.822873 
L 417.39329 140.789649 
L 417.91771 130.855429 
L 418.44213 113.493839 
L 418.96655 138.245236 
L 419.49097 113.659131 
L 420.01539 105.762374 
L 420.53981 106.431002 
L 421.06423 92.472223 
L 421.58865 66.466214 
L 422.11307 93.257345 
L 422.63749 145.802722 
L 424.21075 74.671086 
L 424.73517 107.359522 
L 425.25959 101.420315 
L 426.30843 163.760221 
L 426.832849 161.075101 
L 427.357269 160.533914 
L 427.881689 140.99602 
L 428.406109 148.697864 
L 428.930529 153.910459 
L 429.454949 104.033764 
L 429.979369 79.442231 
L 430.503789 111.48861 
L 431.028209 119.200509 
L 431.552629 95.604409 
L 433.125889 59.037026 
L 433.650309 77.080601 
L 434.174729 77.041234 
L 434.699149 96.944528 
L 435.223569 112.59776 
L 435.747989 132.525101 
L 436.272409 119.817642 
L 436.796829 168.257259 
L 437.321249 143.879105 
L 437.845669 158.663911 
L 438.370089 162.246462 
L 438.894509 168.96921 
L 439.418929 163.961945 
L 439.943349 164.728573 
L 440.467769 135.62782 
L 440.992189 87.028421 
L 441.516609 109.75542 
L 442.041029 101.434393 
L 442.565449 104.059194 
L 443.089869 105.284387 
L 443.614289 133.590212 
L 444.138709 127.137805 
L 444.663129 117.432064 
L 445.187549 97.66233 
L 445.711969 114.949342 
L 446.236389 121.052341 
L 447.285229 129.003036 
L 447.809649 160.419929 
L 448.334069 157.342339 
L 448.858489 161.668274 
L 449.382909 122.830952 
L 449.907329 152.277991 
L 450.431749 158.240727 
L 450.956169 166.818547 
L 451.480589 155.782483 
L 452.005009 138.205706 
L 453.053848 167.877135 
L 453.578268 149.697473 
L 454.102688 147.612518 
L 454.627108 127.080718 
L 455.151528 148.154464 
L 455.675948 164.758885 
L 456.200368 157.496073 
L 456.724788 160.840121 
L 457.249208 139.113756 
L 457.773628 146.145198 
L 458.298048 141.891439 
L 458.822468 173.007237 
L 459.346888 151.472303 
L 459.871308 166.572131 
L 460.395728 166.269846 
L 461.444568 171.114578 
L 461.968988 170.818359 
L 463.017828 151.446303 
L 463.542248 149.143796 
L 464.066668 121.576354 
L 464.591088 119.454285 
L 465.115508 139.652197 
L 465.639928 135.597901 
L 466.164348 135.459761 
L 466.688768 142.476581 
L 467.213188 131.749799 
L 467.737608 149.842177 
L 468.262028 130.973491 
L 468.786448 167.773158 
L 469.310868 157.632843 
L 469.835288 174.207273 
L 470.359708 165.982462 
L 470.884128 162.14463 
L 471.408548 160.572724 
L 471.932968 170.637699 
L 472.457388 170.1163 
L 472.981808 159.53195 
L 473.506228 164.669687 
L 474.030648 150.065533 
L 474.555068 153.845062 
L 475.079488 125.971537 
L 475.603908 125.585146 
L 476.128328 136.859204 
L 476.652748 138.687535 
L 477.177168 111.900653 
L 477.701588 125.70896 
L 478.226008 125.011736 
L 478.750427 161.850046 
L 479.274847 154.672167 
L 479.799267 137.413776 
L 480.323687 169.221427 
L 480.848107 166.330002 
L 481.372527 147.167419 
L 481.896947 164.631088 
L 482.421367 169.862067 
L 482.945787 163.088656 
L 483.470207 169.826497 
L 483.994627 170.411065 
L 484.519047 149.398538 
L 485.043467 142.661161 
L 485.567887 154.26213 
L 486.092307 134.184119 
L 486.616727 122.342015 
L 487.141147 158.087428 
L 488.189987 111.925385 
L 489.238827 160.387318 
L 489.763247 146.559356 
L 490.287667 159.415117 
L 490.812087 141.584829 
L 491.336507 164.042727 
L 491.860927 162.777994 
L 492.385347 171.334636 
L 492.909767 150.729918 
L 493.434187 157.126346 
L 493.958607 155.903119 
L 494.483027 172.598174 
L 495.007447 158.535962 
L 495.531867 167.503021 
L 496.056287 162.828795 
L 496.580707 155.668079 
L 497.105127 157.805482 
L 497.629547 155.465347 
L 498.153967 137.786345 
L 498.678387 158.359576 
L 499.202807 171.681496 
L 499.727227 159.03532 
L 500.251647 161.731452 
L 500.776067 167.561398 
L 501.300487 138.371164 
L 501.824907 155.715071 
L 502.349327 166.606138 
L 502.873747 164.436905 
L 503.398167 164.816976 
L 503.922587 169.258669 
L 504.447006 168.982879 
L 504.971426 169.988055 
L 505.495846 167.228837 
L 506.020266 162.436164 
L 506.544686 167.479792 
L 507.069106 169.263768 
L 507.593526 127.441909 
L 508.117946 154.114256 
L 508.642366 122.698237 
L 509.166786 136.949673 
L 509.691206 156.411162 
L 510.215626 159.363613 
L 510.740046 138.519315 
L 511.264466 154.123101 
L 511.788886 142.36413 
L 512.313306 150.984681 
L 512.837726 154.483767 
L 513.362146 172.122029 
L 513.886566 169.499963 
L 514.410986 168.63873 
L 514.935406 167.471875 
L 515.459826 160.227517 
L 515.984246 167.863661 
L 516.508666 170.696662 
L 517.033086 153.344577 
L 517.557506 147.22949 
L 518.081926 145.040073 
L 518.606346 139.536567 
L 519.130766 122.913752 
L 519.655186 153.038868 
L 520.179606 103.973536 
L 520.704026 147.964212 
L 521.228446 131.363086 
L 521.752866 138.230138 
L 522.277286 146.707448 
L 522.801706 127.011435 
L 523.326126 157.298905 
L 523.850546 143.745362 
L 524.374966 159.13164 
L 524.899386 169.678532 
L 525.423806 168.123082 
L 525.948226 164.685249 
L 526.472646 173.877211 
L 526.997066 167.600897 
L 527.521486 172.106864 
L 528.045906 159.756069 
L 529.619166 146.425351 
L 530.143585 150.779832 
L 530.668005 147.597825 
L 531.192425 147.981633 
L 531.716845 147.311114 
L 532.241265 120.143621 
L 532.765685 151.062902 
L 533.290105 142.856554 
L 533.814525 140.387352 
L 534.338945 158.69472 
L 534.863365 148.979446 
L 535.387785 173.570518 
L 535.912205 156.836923 
L 536.436625 164.64067 
L 536.961045 151.842475 
L 537.485465 168.528739 
L 538.009885 173.437313 
L 538.534305 167.045293 
L 539.058725 158.225046 
L 539.583145 165.307323 
L 540.107565 169.821448 
L 540.631985 164.037977 
L 541.156405 168.464663 
L 541.680825 154.560142 
L 542.205245 150.939393 
L 542.729665 165.480831 
L 543.254085 114.109972 
L 543.778505 152.01004 
L 544.302925 154.596027 
L 545.351765 137.138533 
L 545.876185 141.638919 
L 546.400605 147.847151 
L 546.925025 166.663808 
L 547.449445 162.45186 
L 547.973865 136.690898 
L 549.022705 168.980111 
L 549.547125 158.699071 
L 550.071545 139.562913 
L 550.595965 151.534797 
L 551.120385 140.120099 
L 551.644805 104.158541 
L 552.169225 113.490284 
L 552.693645 85.216807 
L 553.742485 125.437235 
L 554.266905 138.222716 
L 554.791325 116.491718 
L 555.315745 144.532879 
L 555.840165 124.787093 
L 556.364584 141.817456 
L 556.889004 129.561731 
L 557.413424 162.042185 
L 557.937844 149.114636 
L 558.462264 159.01597 
L 558.986684 159.174398 
L 559.511104 148.248985 
L 560.035524 146.749407 
L 560.559944 157.854221 
L 561.084364 126.63237 
L 561.608784 128.28466 
L 562.133204 141.849347 
L 562.657624 143.538773 
L 563.182044 133.162565 
L 563.706464 141.345804 
L 564.230884 132.701015 
L 564.755304 120.032472 
L 565.279724 90.602468 
L 565.804144 132.45517 
L 566.328564 130.140849 
L 566.852984 145.962026 
L 567.377404 142.640626 
L 568.426244 149.880361 
L 568.950664 152.210415 
L 569.475084 152.139215 
L 569.999504 152.202162 
L 570.523924 148.321925 
L 571.048344 166.441081 
L 572.097184 149.99909 
L 572.621604 164.108859 
L 573.146024 161.475676 
L 573.670444 152.130997 
L 574.194864 159.84435 
L 574.719284 138.906441 
L 575.243704 128.21689 
L 575.768124 150.210747 
L 576.292544 156.782879 
L 576.816964 160.95054 
L 577.341384 145.273394 
L 577.865804 138.519222 
L 578.390224 149.029327 
L 578.914644 150.643951 
L 579.439064 156.724212 
L 579.963484 152.299936 
L 580.487904 159.141071 
L 581.012324 160.478938 
L 581.536744 146.907168 
L 582.061163 159.709049 
L 582.585583 162.173439 
L 583.110003 148.910984 
L 583.634423 143.968592 
L 584.158843 134.689702 
L 584.683263 114.803289 
L 585.207683 115.930986 
L 585.732103 84.537286 
L 586.256523 90.024719 
L 586.780943 140.904588 
L 587.305363 128.872741 
L 587.829783 149.799867 
L 588.354203 110.167674 
L 588.878623 142.431092 
L 589.403043 144.768018 
L 589.927463 144.940883 
L 590.451883 141.836466 
L 590.976303 143.286895 
L 591.500723 150.45707 
L 592.025143 151.868333 
L 592.549563 157.790391 
L 593.073983 151.096154 
L 593.598403 149.114305 
L 594.122823 107.208921 
L 594.647243 91.544826 
L 595.171663 130.999315 
L 595.696083 139.664517 
L 596.220503 132.08319 
L 596.744923 149.117321 
L 597.269343 144.114688 
L 598.318183 123.393541 
L 598.842603 123.321727 
L 599.367023 108.974311 
L 599.891443 125.09358 
L 600.415863 132.933558 
L 600.940283 144.038637 
L 601.464703 138.624677 
L 601.989123 164.227644 
L 603.037963 115.929542 
L 603.562383 157.481087 
L 604.611223 164.806419 
L 605.135643 142.709761 
L 605.660063 163.0988 
L 606.184483 156.93453 
L 606.708903 159.631674 
L 607.233323 148.564236 
L 607.757742 100.78959 
L 608.282162 123.348984 
L 609.855422 161.210571 
L 610.379842 137.970866 
L 610.904262 134.315914 
L 611.428682 142.402185 
L 611.953102 139.79791 
L 612.477522 142.031479 
L 613.001942 147.531384 
L 613.526362 150.309955 
L 614.050782 159.348729 
L 614.575202 156.735717 
L 615.099622 144.488587 
L 615.624042 149.503502 
L 616.148462 109.289346 
L 616.672882 144.05288 
L 617.197302 131.97322 
L 617.721722 143.564104 
L 618.246142 145.981425 
L 618.770562 159.257229 
L 620.343822 122.56722 
L 620.868242 138.200589 
L 621.392662 102.667752 
L 621.917082 103.061779 
L 622.965922 118.390439 
L 624.014762 147.548558 
L 624.539182 133.652212 
L 625.063602 153.464179 
L 625.588022 132.2272 
L 626.112442 159.924644 
L 626.636862 140.551276 
L 627.161282 138.0624 
L 627.685702 158.869174 
L 628.210122 160.189801 
L 629.258962 149.994322 
L 629.783382 116.808049 
L 630.307802 122.756688 
L 630.832222 152.863819 
L 631.356642 164.75728 
L 631.881062 149.010742 
L 632.405482 125.318353 
L 632.929902 128.614466 
L 633.454321 140.086513 
L 634.503161 150.949623 
L 635.552001 159.635109 
L 636.076421 156.883137 
L 636.600841 157.230582 
L 637.125261 156.71018 
L 637.649681 154.796842 
L 638.174101 127.434243 
L 638.698521 146.659129 
L 639.222941 133.416316 
L 639.747361 149.537499 
L 640.271781 148.879956 
L 640.796201 155.297781 
L 641.320621 160.252434 
L 641.845041 130.976157 
L 642.369461 136.779422 
L 642.893881 131.368524 
L 643.418301 122.310401 
L 643.942721 108.881876 
L 644.467141 142.459404 
L 644.991561 136.75432 
L 645.515981 140.61368 
L 646.040401 154.351565 
L 646.564821 138.173777 
L 647.089241 139.092613 
L 648.138081 170.085652 
L 648.662501 144.917021 
L 649.186921 149.986866 
L 650.235761 162.756648 
L 650.760181 153.223951 
L 651.284601 152.506087 
L 651.809021 114.730673 
L 652.333441 96.638634 
L 652.857861 136.119982 
L 653.382281 160.955974 
L 653.906701 152.529335 
L 654.955541 117.284746 
L 655.479961 149.674793 
L 656.528801 157.129482 
L 657.053221 136.011901 
L 657.577641 162.027645 
L 658.102061 140.706436 
L 659.150901 153.69966 
L 659.67532 148.219161 
L 660.19974 131.631984 
L 660.72416 131.682781 
L 661.24858 136.769575 
L 661.773 118.631914 
L 662.29742 133.693362 
L 662.82184 120.075881 
L 663.34626 134.131544 
L 663.87068 103.116039 
L 664.3951 138.014315 
L 664.91952 112.574009 
L 665.44394 103.305834 
L 665.96836 82.235211 
L 666.49278 136.295201 
L 667.0172 132.412946 
L 667.54162 140.242262 
L 668.06604 134.340097 
L 668.59046 136.923068 
L 669.11488 142.642477 
L 669.6393 136.615643 
L 670.16372 136.563939 
L 670.68814 119.646759 
L 671.21256 128.165191 
L 671.73698 117.946708 
L 672.2614 100.391761 
L 672.78582 93.814053 
L 673.31024 85.810036 
L 673.83466 122.780642 
L 674.35908 107.121535 
L 674.8835 100.744064 
L 675.40792 105.506364 
L 675.93234 102.907308 
L 676.45676 115.502815 
L 676.98118 110.268706 
L 676.98118 110.268706 
" clip-path="url(#pd3a7d3ebd9)" style="fill: none; stroke: #008fd5; stroke-opacity: 0.4; stroke-width: 4"/>
   </g>
   <g id="line2d_50">
    <path d="M 409.00257 15.152727 
L 409.52699 19.140595 
L 410.05141 24.995515 
L 411.10025 32.122895 
L 411.62467 34.094134 
L 412.67351 44.87754 
L 413.19793 44.899513 
L 413.72235 47.278697 
L 414.24677 48.738582 
L 415.29561 54.161683 
L 415.82003 57.204489 
L 416.34445 59.535406 
L 416.86887 62.669314 
L 417.91771 69.789324 
L 418.44213 71.974553 
L 418.96655 75.288084 
L 419.49097 77.206637 
L 420.53981 80.024256 
L 421.06423 80.646661 
L 421.58865 79.937636 
L 422.11307 80.603616 
L 422.63749 83.863572 
L 423.16191 85.823713 
L 423.68633 86.468195 
L 424.21075 85.878337 
L 424.73517 86.952398 
L 425.25959 87.675798 
L 425.78401 89.915144 
L 426.832849 96.98079 
L 427.357269 100.158446 
L 428.406109 104.525207 
L 428.930529 106.994468 
L 429.454949 106.846434 
L 429.979369 105.476225 
L 430.503789 105.776842 
L 431.028209 106.448025 
L 431.552629 105.905847 
L 432.077049 104.791031 
L 432.601469 103.087172 
L 433.125889 100.884667 
L 434.174729 98.561804 
L 434.699149 98.480942 
L 435.223569 99.186782 
L 435.747989 100.853701 
L 436.272409 101.801904 
L 436.796829 105.124669 
L 437.321249 107.062393 
L 439.943349 119.909145 
L 440.467769 120.695076 
L 440.992189 119.011745 
L 441.516609 118.548929 
L 442.565449 117.011503 
L 443.089869 116.425151 
L 443.614289 117.283407 
L 444.138709 117.776127 
L 444.663129 117.758925 
L 445.187549 116.754098 
L 445.711969 116.66386 
L 446.236389 116.883288 
L 446.760809 117.292733 
L 447.285229 117.878246 
L 448.858489 123.86198 
L 449.382909 123.81043 
L 450.431749 126.884158 
L 450.956169 128.880882 
L 451.480589 130.225964 
L 452.005009 130.624947 
L 452.529429 131.681448 
L 453.053848 133.491235 
L 454.102688 134.967093 
L 454.627108 134.572776 
L 455.151528 135.25186 
L 455.675948 136.727212 
L 456.724788 138.919378 
L 457.249208 138.929099 
L 457.773628 139.289904 
L 458.298048 139.419983 
L 458.822468 141.099345 
L 459.346888 141.617995 
L 461.968988 147.773393 
L 462.493408 148.467314 
L 463.017828 148.616265 
L 463.542248 148.642642 
L 464.591088 145.897573 
L 465.115508 145.585303 
L 466.164348 144.604625 
L 466.688768 144.498222 
L 467.213188 143.860801 
L 467.737608 144.159869 
L 468.262028 143.500552 
L 468.786448 144.714181 
L 469.310868 145.360114 
L 469.835288 146.802473 
L 470.359708 147.761471 
L 471.408548 149.085234 
L 472.457388 151.16053 
L 472.981808 151.579101 
L 473.506228 152.233631 
L 474.030648 152.125226 
L 474.555068 152.21122 
L 475.603908 149.633532 
L 476.652748 148.479452 
L 477.177168 146.65051 
L 478.226008 144.573847 
L 478.750427 145.437658 
L 479.274847 145.899385 
L 479.799267 145.475105 
L 480.848107 147.645801 
L 481.372527 147.621884 
L 481.896947 148.472345 
L 482.421367 149.541829 
L 482.945787 150.219172 
L 483.994627 152.160114 
L 484.519047 152.022036 
L 485.043467 151.553992 
L 485.567887 151.689401 
L 486.092307 150.814137 
L 486.616727 149.39053 
L 487.141147 149.825373 
L 487.665567 149.16888 
L 488.189987 147.306704 
L 488.714407 146.890948 
L 489.238827 147.565766 
L 489.763247 147.515448 
L 490.287667 148.110432 
L 490.812087 147.784151 
L 492.385347 150.40755 
L 492.909767 150.423669 
L 493.958607 151.016021 
L 494.483027 152.09513 
L 495.007447 152.417171 
L 495.531867 153.171466 
L 496.056287 153.654332 
L 497.629547 154.032931 
L 498.153967 153.220602 
L 498.678387 153.477554 
L 499.202807 154.387752 
L 499.727227 154.620132 
L 500.251647 154.9757 
L 500.776067 155.604986 
L 501.300487 154.743295 
L 501.824907 154.791883 
L 502.873747 155.835314 
L 503.398167 156.284397 
L 504.971426 158.158223 
L 505.495846 158.611756 
L 506.020266 158.802977 
L 507.069106 159.738166 
L 507.593526 158.123353 
L 508.117946 157.922899 
L 508.642366 156.161666 
L 509.166786 155.201066 
L 509.691206 155.261572 
L 510.215626 155.466674 
L 510.740046 154.619305 
L 511.264466 154.594496 
L 511.788886 153.982977 
L 512.313306 153.833063 
L 512.837726 153.8656 
L 513.886566 155.514502 
L 514.935406 156.735773 
L 515.459826 156.910359 
L 516.508666 158.119956 
L 517.033086 157.881187 
L 518.081926 156.733174 
L 518.606346 155.873344 
L 519.130766 154.225365 
L 519.655186 154.166041 
L 520.179606 151.656417 
L 520.704026 151.471806 
L 521.228446 150.466371 
L 521.752866 149.854562 
L 522.277286 149.697205 
L 522.801706 148.562919 
L 523.326126 148.999719 
L 523.850546 148.737002 
L 524.374966 149.256735 
L 525.423806 151.170091 
L 525.948226 151.845848 
L 526.472646 152.947415 
L 527.521486 154.601431 
L 528.045906 154.859163 
L 528.570326 154.893669 
L 529.094746 154.734173 
L 529.619166 154.318732 
L 530.143585 154.141787 
L 531.716845 153.21235 
L 532.241265 151.558912 
L 532.765685 151.534112 
L 533.814525 150.564589 
L 534.338945 150.971096 
L 534.863365 150.871514 
L 535.387785 152.006467 
L 535.912205 152.247991 
L 536.436625 152.867627 
L 536.961045 152.816367 
L 537.485465 153.601985 
L 538.009885 154.593752 
L 538.534305 155.216329 
L 539.058725 155.366764 
L 539.583145 155.863793 
L 540.107565 156.561674 
L 540.631985 156.93549 
L 541.156405 157.511948 
L 541.680825 157.364358 
L 542.205245 157.043111 
L 542.729665 157.464999 
L 543.254085 155.297247 
L 543.778505 155.132884 
L 544.302925 155.106042 
L 544.827345 154.625845 
L 545.351765 153.751479 
L 545.876185 153.145854 
L 546.400605 152.880922 
L 546.925025 153.570066 
L 547.449445 154.014155 
L 547.973865 153.147993 
L 548.498285 153.192408 
L 549.022705 153.981792 
L 549.547125 154.217656 
L 550.071545 153.484921 
L 550.595965 153.387415 
L 551.120385 152.724049 
L 551.644805 150.295775 
L 552.169225 148.455501 
L 552.693645 145.293565 
L 553.218065 143.246322 
L 553.742485 142.355868 
L 554.266905 142.149211 
L 554.791325 140.866336 
L 555.315745 141.049665 
L 555.840165 140.236537 
L 556.364584 140.315581 
L 556.889004 139.77789 
L 557.413424 140.891105 
L 557.937844 141.302281 
L 558.986684 143.037288 
L 560.035524 143.470453 
L 560.559944 144.189643 
L 561.608784 142.560421 
L 562.657624 142.575565 
L 563.182044 142.104913 
L 563.706464 142.06696 
L 564.230884 141.598667 
L 564.755304 140.520359 
L 565.279724 138.024465 
L 566.328564 137.365744 
L 566.852984 137.795557 
L 567.377404 138.03781 
L 567.901824 138.452955 
L 570.523924 141.272235 
L 571.048344 142.530677 
L 571.572764 143.324308 
L 572.097184 143.658047 
L 573.146024 145.520344 
L 573.670444 145.850877 
L 574.194864 146.550551 
L 574.719284 146.168347 
L 575.243704 145.270774 
L 575.768124 145.517773 
L 576.292544 146.081029 
L 576.816964 146.824507 
L 577.341384 146.746951 
L 577.865804 146.335564 
L 578.914644 146.678939 
L 579.439064 147.181205 
L 579.963484 147.437141 
L 581.012324 148.645169 
L 581.536744 148.558268 
L 582.585583 149.768688 
L 583.110003 149.7258 
L 583.634423 149.437938 
L 584.158843 148.700528 
L 585.207683 145.451931 
L 586.256523 139.787124 
L 586.780943 139.842998 
L 587.305363 139.294484 
L 587.829783 139.819753 
L 588.354203 138.337149 
L 589.403043 138.853154 
L 589.927463 139.157542 
L 590.976303 139.49126 
L 592.025143 140.63099 
L 592.549563 141.488962 
L 593.598403 142.326572 
L 594.122823 140.570687 
L 594.647243 138.119397 
L 595.171663 137.763394 
L 595.696083 137.858452 
L 596.220503 137.569689 
L 596.744923 138.14707 
L 597.269343 138.445449 
L 597.793763 138.209782 
L 598.842603 136.761609 
L 599.367023 135.372245 
L 599.891443 134.858311 
L 600.415863 134.762077 
L 600.940283 135.225905 
L 601.464703 135.395845 
L 601.989123 136.837435 
L 602.513543 136.984358 
L 603.037963 135.931616 
L 604.086803 138.216834 
L 604.611223 139.546313 
L 605.135643 139.704485 
L 605.660063 140.874202 
L 606.708903 142.574941 
L 607.233323 142.874404 
L 607.757742 140.770167 
L 608.282162 139.899109 
L 608.806582 139.694911 
L 609.331002 139.994016 
L 609.855422 141.054847 
L 610.379842 140.900647 
L 610.904262 140.571413 
L 611.428682 140.662952 
L 611.953102 140.619701 
L 612.477522 140.690292 
L 613.526362 141.49623 
L 614.575202 143.106198 
L 615.099622 143.175317 
L 615.624042 143.491725 
L 616.148462 141.781607 
L 616.672882 141.895173 
L 617.197302 141.399076 
L 617.721722 141.507327 
L 618.246142 141.731036 
L 618.770562 142.607345 
L 619.294982 142.858359 
L 619.819402 142.456256 
L 620.343822 141.461804 
L 620.868242 141.298744 
L 621.917082 137.551925 
L 622.441502 136.23979 
L 622.965922 135.347325 
L 623.490342 135.167378 
L 624.014762 135.786436 
L 624.539182 135.679728 
L 625.063602 136.568951 
L 625.588022 136.351865 
L 626.112442 137.530505 
L 626.636862 137.681544 
L 627.161282 137.700589 
L 628.210122 139.830558 
L 628.734542 140.599897 
L 629.258962 141.069617 
L 629.783382 139.85654 
L 630.307802 139.001549 
L 630.832222 139.694662 
L 631.356642 140.947793 
L 631.881062 141.350942 
L 632.405482 140.549313 
L 632.929902 139.952573 
L 633.454321 139.95927 
L 633.978741 140.241382 
L 634.503161 140.776796 
L 635.027581 141.48457 
L 636.076421 143.11665 
L 637.125261 144.466741 
L 637.649681 144.983246 
L 638.174101 144.105797 
L 638.698521 144.233466 
L 639.222941 143.692609 
L 640.271781 144.229608 
L 640.796201 144.783017 
L 641.320621 145.556488 
L 641.845041 144.827472 
L 642.369461 144.425072 
L 642.893881 143.772245 
L 643.418301 142.699154 
L 643.942721 141.00829 
L 644.467141 141.080847 
L 644.991561 140.864521 
L 645.515981 140.851979 
L 646.040401 141.526958 
L 647.089241 141.245963 
L 647.613661 141.990314 
L 648.138081 143.395081 
L 648.662501 143.471178 
L 649.186921 143.796962 
L 649.711341 144.428266 
L 650.235761 145.344686 
L 651.284601 146.077024 
L 651.809021 144.509709 
L 652.333441 142.116156 
L 652.857861 141.816348 
L 653.382281 142.773331 
L 653.906701 143.261132 
L 654.431121 142.787382 
L 654.955541 141.51225 
L 655.479961 141.920377 
L 656.004381 142.485833 
L 656.528801 143.218016 
L 657.053221 142.857708 
L 657.577641 143.816204 
L 658.102061 143.660717 
L 658.626481 143.824005 
L 659.150901 144.317787 
L 659.67532 144.512856 
L 660.72416 143.259509 
L 661.24858 142.935012 
L 661.773 141.719858 
L 662.29742 141.318532 
L 662.82184 140.256399 
L 663.34626 139.95016 
L 663.87068 138.108454 
L 664.3951 138.103747 
L 664.91952 136.82726 
L 665.44394 135.151191 
L 665.96836 132.505393 
L 666.49278 132.694886 
L 667.0172 132.680788 
L 667.54162 133.05886 
L 668.06604 133.122921 
L 668.59046 133.312926 
L 669.11488 133.779402 
L 670.16372 134.053349 
L 670.68814 133.333023 
L 671.21256 133.07463 
L 671.73698 132.318233 
L 672.78582 128.876518 
L 673.31024 126.723194 
L 673.83466 126.526066 
L 674.35908 125.55584 
L 674.8835 124.315247 
L 675.93234 122.351434 
L 676.45676 122.009006 
L 676.98118 121.421994 
L 676.98118 121.421994 
" clip-path="url(#pd3a7d3ebd9)" style="fill: none; stroke: #008fd5; stroke-width: 4"/>
   </g>
   <g id="patch_9">
    <path d="M 395.60364 182.16 
L 395.60364 7.2 
" style="fill: none; stroke: #f0f0f0; stroke-width: 3; stroke-linejoin: miter; stroke-linecap: square"/>
   </g>
   <g id="patch_10">
    <path d="M 690.38011 182.16 
L 690.38011 7.2 
" style="fill: none; stroke: #f0f0f0; stroke-width: 3; stroke-linejoin: miter; stroke-linecap: square"/>
   </g>
   <g id="patch_11">
    <path d="M 395.60364 182.16 
L 690.38011 182.16 
" style="fill: none; stroke: #f0f0f0; stroke-width: 3; stroke-linejoin: miter; stroke-linecap: square"/>
   </g>
   <g id="patch_12">
    <path d="M 395.60364 7.2 
L 690.38011 7.2 
" style="fill: none; stroke: #f0f0f0; stroke-width: 3; stroke-linejoin: miter; stroke-linecap: square"/>
   </g>
   <g id="legend_2">
    <g id="patch_13">
     <path d="M 565.425735 38.949375 
L 680.58011 38.949375 
Q 683.38011 38.949375 683.38011 36.149375 
L 683.38011 17 
Q 683.38011 14.2 680.58011 14.2 
L 565.425735 14.2 
Q 562.625735 14.2 562.625735 17 
L 562.625735 36.149375 
Q 562.625735 38.949375 565.425735 38.949375 
z
" style="fill: #f0f0f0; opacity: 0.8; stroke: #cccccc; stroke-width: 0.5; stroke-linejoin: miter"/>
    </g>
    <g id="line2d_51">
     <path d="M 568.225735 25.537813 
L 582.225735 25.537813 
L 596.225735 25.537813 
" style="fill: none; stroke: #008fd5; stroke-width: 4"/>
    </g>
    <g id="text_25">
     <!-- perplexity -->
     <g transform="translate(607.425735 30.437813) scale(0.14 -0.14)">
      <defs>
       <path id="DejaVuSans-70" d="M 1159 525 
L 1159 -1331 
L 581 -1331 
L 581 3500 
L 1159 3500 
L 1159 2969 
Q 1341 3281 1617 3432 
Q 1894 3584 2278 3584 
Q 2916 3584 3314 3078 
Q 3713 2572 3713 1747 
Q 3713 922 3314 415 
Q 2916 -91 2278 -91 
Q 1894 -91 1617 61 
Q 1341 213 1159 525 
z
M 3116 1747 
Q 3116 2381 2855 2742 
Q 2594 3103 2138 3103 
Q 1681 3103 1420 2742 
Q 1159 2381 1159 1747 
Q 1159 1113 1420 752 
Q 1681 391 2138 391 
Q 2594 391 2855 752 
Q 3116 1113 3116 1747 
z
" transform="scale(0.015625)"/>
       <path id="DejaVuSans-65" d="M 3597 1894 
L 3597 1613 
L 953 1613 
Q 991 1019 1311 708 
Q 1631 397 2203 397 
Q 2534 397 2845 478 
Q 3156 559 3463 722 
L 3463 178 
Q 3153 47 2828 -22 
Q 2503 -91 2169 -91 
Q 1331 -91 842 396 
Q 353 884 353 1716 
Q 353 2575 817 3079 
Q 1281 3584 2069 3584 
Q 2775 3584 3186 3129 
Q 3597 2675 3597 1894 
z
M 3022 2063 
Q 3016 2534 2758 2815 
Q 2500 3097 2075 3097 
Q 1594 3097 1305 2825 
Q 1016 2553 972 2059 
L 3022 2063 
z
" transform="scale(0.015625)"/>
       <path id="DejaVuSans-6c" d="M 603 4863 
L 1178 4863 
L 1178 0 
L 603 0 
L 603 4863 
z
" transform="scale(0.015625)"/>
       <path id="DejaVuSans-78" d="M 3513 3500 
L 2247 1797 
L 3578 0 
L 2900 0 
L 1881 1375 
L 863 0 
L 184 0 
L 1544 1831 
L 300 3500 
L 978 3500 
L 1906 2253 
L 2834 3500 
L 3513 3500 
z
" transform="scale(0.015625)"/>
       <path id="DejaVuSans-69" d="M 603 3500 
L 1178 3500 
L 1178 0 
L 603 0 
L 603 3500 
z
M 603 4863 
L 1178 4863 
L 1178 4134 
L 603 4134 
L 603 4863 
z
" transform="scale(0.015625)"/>
       <path id="DejaVuSans-74" d="M 1172 4494 
L 1172 3500 
L 2356 3500 
L 2356 3053 
L 1172 3053 
L 1172 1153 
Q 1172 725 1289 603 
Q 1406 481 1766 481 
L 2356 481 
L 2356 0 
L 1766 0 
Q 1100 0 847 248 
Q 594 497 594 1153 
L 594 3053 
L 172 3053 
L 172 3500 
L 594 3500 
L 594 4494 
L 1172 4494 
z
" transform="scale(0.015625)"/>
      </defs>
      <use xlink:href="#DejaVuSans-70"/>
      <use xlink:href="#DejaVuSans-65" x="63.476562"/>
      <use xlink:href="#DejaVuSans-72" x="125"/>
      <use xlink:href="#DejaVuSans-70" x="166.113281"/>
      <use xlink:href="#DejaVuSans-6c" x="229.589844"/>
      <use xlink:href="#DejaVuSans-65" x="257.373047"/>
      <use xlink:href="#DejaVuSans-78" x="317.146484"/>
      <use xlink:href="#DejaVuSans-69" x="376.326172"/>
      <use xlink:href="#DejaVuSans-74" x="404.109375"/>
      <use xlink:href="#DejaVuSans-79" x="443.318359"/>
     </g>
    </g>
   </g>
  </g>
  <g id="axes_3">
   <g id="patch_14">
    <path d="M 749.335404 182.16 
L 1044.111875 182.16 
L 1044.111875 7.2 
L 749.335404 7.2 
L 749.335404 182.16 
z
" style="fill: none"/>
   </g>
   <g id="matplotlib.axis_5">
    <g id="xtick_13">
     <g id="line2d_52">
      <path d="M 762.734335 182.16 
L 762.734335 7.2 
" clip-path="url(#pb07c6fa965)" style="fill: none; stroke: #cbcbcb"/>
     </g>
     <g id="line2d_53"/>
     <g id="text_26">
      <!-- 0 -->
      <g transform="translate(758.280585 196.297813) scale(0.14 -0.14)">
       <use xlink:href="#DejaVuSans-30"/>
      </g>
     </g>
    </g>
    <g id="xtick_14">
     <g id="line2d_54">
      <path d="M 815.176333 182.16 
L 815.176333 7.2 
" clip-path="url(#pb07c6fa965)" style="fill: none; stroke: #cbcbcb"/>
     </g>
     <g id="line2d_55"/>
     <g id="text_27">
      <!-- 100 -->
      <g transform="translate(801.815083 196.297813) scale(0.14 -0.14)">
       <use xlink:href="#DejaVuSans-31"/>
       <use xlink:href="#DejaVuSans-30" x="63.623047"/>
       <use xlink:href="#DejaVuSans-30" x="127.246094"/>
      </g>
     </g>
    </g>
    <g id="xtick_15">
     <g id="line2d_56">
      <path d="M 867.618331 182.16 
L 867.618331 7.2 
" clip-path="url(#pb07c6fa965)" style="fill: none; stroke: #cbcbcb"/>
     </g>
     <g id="line2d_57"/>
     <g id="text_28">
      <!-- 200 -->
      <g transform="translate(854.257081 196.297813) scale(0.14 -0.14)">
       <use xlink:href="#DejaVuSans-32"/>
       <use xlink:href="#DejaVuSans-30" x="63.623047"/>
       <use xlink:href="#DejaVuSans-30" x="127.246094"/>
      </g>
     </g>
    </g>
    <g id="xtick_16">
     <g id="line2d_58">
      <path d="M 920.060329 182.16 
L 920.060329 7.2 
" clip-path="url(#pb07c6fa965)" style="fill: none; stroke: #cbcbcb"/>
     </g>
     <g id="line2d_59"/>
     <g id="text_29">
      <!-- 300 -->
      <g transform="translate(906.699079 196.297813) scale(0.14 -0.14)">
       <use xlink:href="#DejaVuSans-33"/>
       <use xlink:href="#DejaVuSans-30" x="63.623047"/>
       <use xlink:href="#DejaVuSans-30" x="127.246094"/>
      </g>
     </g>
    </g>
    <g id="xtick_17">
     <g id="line2d_60">
      <path d="M 972.502327 182.16 
L 972.502327 7.2 
" clip-path="url(#pb07c6fa965)" style="fill: none; stroke: #cbcbcb"/>
     </g>
     <g id="line2d_61"/>
     <g id="text_30">
      <!-- 400 -->
      <g transform="translate(959.141077 196.297813) scale(0.14 -0.14)">
       <use xlink:href="#DejaVuSans-34"/>
       <use xlink:href="#DejaVuSans-30" x="63.623047"/>
       <use xlink:href="#DejaVuSans-30" x="127.246094"/>
      </g>
     </g>
    </g>
    <g id="xtick_18">
     <g id="line2d_62">
      <path d="M 1024.944325 182.16 
L 1024.944325 7.2 
" clip-path="url(#pb07c6fa965)" style="fill: none; stroke: #cbcbcb"/>
     </g>
     <g id="line2d_63"/>
     <g id="text_31">
      <!-- 500 -->
      <g transform="translate(1011.583075 196.297813) scale(0.14 -0.14)">
       <use xlink:href="#DejaVuSans-35"/>
       <use xlink:href="#DejaVuSans-30" x="63.623047"/>
       <use xlink:href="#DejaVuSans-30" x="127.246094"/>
      </g>
     </g>
    </g>
   </g>
   <g id="matplotlib.axis_6">
    <g id="ytick_12">
     <g id="line2d_64">
      <path d="M 749.335404 153.168051 
L 1044.111875 153.168051 
" clip-path="url(#pb07c6fa965)" style="fill: none; stroke: #cbcbcb"/>
     </g>
     <g id="line2d_65"/>
     <g id="text_32">
      <!-- 2000 -->
      <g transform="translate(710.205404 158.486958) scale(0.14 -0.14)">
       <use xlink:href="#DejaVuSans-32"/>
       <use xlink:href="#DejaVuSans-30" x="63.623047"/>
       <use xlink:href="#DejaVuSans-30" x="127.246094"/>
       <use xlink:href="#DejaVuSans-30" x="190.869141"/>
      </g>
     </g>
    </g>
    <g id="ytick_13">
     <g id="line2d_66">
      <path d="M 749.335404 121.230546 
L 1044.111875 121.230546 
" clip-path="url(#pb07c6fa965)" style="fill: none; stroke: #cbcbcb"/>
     </g>
     <g id="line2d_67"/>
     <g id="text_33">
      <!-- 2200 -->
      <g transform="translate(710.205404 126.549452) scale(0.14 -0.14)">
       <use xlink:href="#DejaVuSans-32"/>
       <use xlink:href="#DejaVuSans-32" x="63.623047"/>
       <use xlink:href="#DejaVuSans-30" x="127.246094"/>
       <use xlink:href="#DejaVuSans-30" x="190.869141"/>
      </g>
     </g>
    </g>
    <g id="ytick_14">
     <g id="line2d_68">
      <path d="M 749.335404 89.293041 
L 1044.111875 89.293041 
" clip-path="url(#pb07c6fa965)" style="fill: none; stroke: #cbcbcb"/>
     </g>
     <g id="line2d_69"/>
     <g id="text_34">
      <!-- 2400 -->
      <g transform="translate(710.205404 94.611947) scale(0.14 -0.14)">
       <use xlink:href="#DejaVuSans-32"/>
       <use xlink:href="#DejaVuSans-34" x="63.623047"/>
       <use xlink:href="#DejaVuSans-30" x="127.246094"/>
       <use xlink:href="#DejaVuSans-30" x="190.869141"/>
      </g>
     </g>
    </g>
    <g id="ytick_15">
     <g id="line2d_70">
      <path d="M 749.335404 57.355536 
L 1044.111875 57.355536 
" clip-path="url(#pb07c6fa965)" style="fill: none; stroke: #cbcbcb"/>
     </g>
     <g id="line2d_71"/>
     <g id="text_35">
      <!-- 2600 -->
      <g transform="translate(710.205404 62.674442) scale(0.14 -0.14)">
       <use xlink:href="#DejaVuSans-32"/>
       <use xlink:href="#DejaVuSans-36" x="63.623047"/>
       <use xlink:href="#DejaVuSans-30" x="127.246094"/>
       <use xlink:href="#DejaVuSans-30" x="190.869141"/>
      </g>
     </g>
    </g>
    <g id="ytick_16">
     <g id="line2d_72">
      <path d="M 749.335404 25.418031 
L 1044.111875 25.418031 
" clip-path="url(#pb07c6fa965)" style="fill: none; stroke: #cbcbcb"/>
     </g>
     <g id="line2d_73"/>
     <g id="text_36">
      <!-- 2800 -->
      <g transform="translate(710.205404 30.736937) scale(0.14 -0.14)">
       <use xlink:href="#DejaVuSans-32"/>
       <use xlink:href="#DejaVuSans-38" x="63.623047"/>
       <use xlink:href="#DejaVuSans-30" x="127.246094"/>
       <use xlink:href="#DejaVuSans-30" x="190.869141"/>
      </g>
     </g>
    </g>
   </g>
   <g id="line2d_74">
    <path d="M 762.734335 45.47363 
L 764.307595 45.47363 
L 765.356435 45.840178 
L 768.502955 47.248633 
L 769.551795 48.339857 
L 772.698315 51.96269 
L 773.222734 51.763042 
L 776.893674 49.026054 
L 782.662294 46.552379 
L 785.284394 45.110824 
L 788.955334 41.386511 
L 789.479754 41.219377 
L 793.675114 46.533275 
L 797.346054 48.680168 
L 797.870474 49.22426 
L 801.541413 54.413831 
L 802.065833 53.526466 
L 805.736773 41.680038 
L 806.261193 40.839417 
L 809.932133 36.517678 
L 810.980973 39.253536 
L 814.127493 47.921769 
L 818.322853 46.050821 
L 821.993793 49.124026 
L 822.518213 49.228119 
L 826.713572 43.148804 
L 830.384512 34.944741 
L 830.908932 34.851018 
L 835.628712 42.411224 
L 838.775232 46.930701 
L 840.348492 50.337979 
L 842.970592 56.170394 
L 844.019432 56.683453 
L 847.165952 57.900953 
L 851.361311 47.812218 
L 855.556671 43.97925 
L 859.752031 42.407676 
L 863.422971 39.221918 
L 863.947391 39.082075 
L 867.618331 40.178406 
L 868.667171 40.004956 
L 871.813691 39.162581 
L 872.338111 40.08671 
L 876.009051 48.88929 
L 876.53347 49.171316 
L 881.25325 50.650921 
L 884.39977 51.937544 
L 888.07071 58.668631 
L 888.59513 58.852918 
L 892.26607 44.148801 
L 892.79049 42.875862 
L 896.46143 43.542604 
L 896.98585 43.882603 
L 900.65679 47.975375 
L 901.18121 47.966759 
L 904.852149 45.394488 
L 905.900989 45.212189 
L 909.047509 44.906186 
L 911.145189 43.528335 
L 913.242869 42.110835 
L 919.011489 44.235701 
L 921.633589 45.049616 
L 925.304529 47.003722 
L 925.828949 47.501381 
L 929.499888 53.685686 
L 930.024308 53.685647 
L 934.219668 46.302477 
L 937.890608 41.268226 
L 938.415028 41.519259 
L 942.085968 45.778697 
L 942.610388 45.669107 
L 946.805748 43.711843 
L 950.476688 41.436725 
L 954.147627 42.382998 
L 954.672047 42.298008 
L 958.342987 36.335028 
L 958.867407 36.192689 
L 962.538347 44.577649 
L 963.062767 45.384274 
L 966.733707 47.932724 
L 967.782547 48.294049 
L 970.929067 49.096229 
L 971.453487 49.80648 
L 975.124427 56.384 
L 975.648847 55.452034 
L 979.319787 46.404114 
L 980.893046 47.545085 
L 983.515146 49.578995 
L 987.186086 54.353988 
L 987.710506 54.835467 
L 992.430286 52.199453 
L 995.576806 50.134354 
L 996.101226 49.515682 
L 999.772166 42.873055 
L 1000.296586 42.224519 
L 1003.967526 39.226246 
L 1004.491946 39.187649 
L 1008.162885 40.08671 
L 1009.211725 41.603898 
L 1012.358245 46.52232 
L 1016.553605 58.963912 
L 1020.748965 47.858924 
L 1025.468745 46.79421 
L 1029.664105 46.457252 
L 1030.712945 46.457252 
L 1030.712945 46.457252 
" clip-path="url(#pb07c6fa965)" style="fill: none; stroke: #008fd5; stroke-width: 4"/>
   </g>
   <g id="line2d_75">
    <path d="M 762.734335 45.47363 
L 764.307595 45.47363 
L 765.356435 45.840178 
L 768.502955 47.248633 
L 769.551795 48.339857 
L 772.698315 51.96269 
L 773.222734 51.763042 
L 776.893674 49.026054 
L 782.662294 46.552379 
L 785.284394 45.110824 
L 788.955334 41.386511 
L 789.479754 41.219377 
L 793.675114 46.533275 
L 797.346054 48.680168 
L 797.870474 49.22426 
L 801.541413 54.413831 
L 802.065833 53.526466 
L 805.736773 41.680038 
L 806.261193 40.839417 
L 809.932133 36.517678 
L 810.980973 39.253536 
L 814.127493 47.921769 
L 818.322853 46.050821 
L 821.993793 49.124026 
L 822.518213 49.228119 
L 826.713572 43.148804 
L 830.384512 34.944741 
L 830.908932 34.851018 
L 835.628712 42.411224 
L 838.775232 46.930701 
L 840.348492 50.337979 
L 842.970592 56.170394 
L 844.019432 56.683453 
L 847.165952 57.900953 
L 851.361311 47.812218 
L 855.556671 43.97925 
L 859.752031 42.407676 
L 863.422971 39.221918 
L 863.947391 39.082075 
L 867.618331 40.178406 
L 868.667171 40.004956 
L 871.813691 39.162581 
L 872.338111 40.08671 
L 876.009051 48.88929 
L 876.53347 49.171316 
L 881.25325 50.650921 
L 884.39977 51.937544 
L 888.07071 58.668631 
L 888.59513 58.852918 
L 892.26607 44.148801 
L 892.79049 42.875862 
L 896.46143 43.542604 
L 896.98585 43.882603 
L 900.65679 51.482224 
L 901.18121 51.97462 
L 904.852149 52.909197 
L 905.900989 53.728844 
L 909.047509 56.428756 
L 910.620769 56.908208 
L 913.242869 57.641227 
L 919.535909 65.934803 
L 922.158009 69.375843 
L 925.304529 74.056684 
L 925.828949 75.055315 
L 929.499888 84.746469 
L 930.024308 85.247403 
L 934.219668 81.872094 
L 937.890608 80.344692 
L 938.415028 81.096697 
L 942.085968 88.863023 
L 943.134808 89.522826 
L 946.805748 91.305003 
L 950.476688 92.536733 
L 954.147627 96.989855 
L 954.672047 97.405877 
L 958.342987 94.949746 
L 958.867407 95.30838 
L 962.538347 107.200227 
L 963.062767 108.507825 
L 967.258127 115.291699 
L 970.929067 119.734489 
L 971.977907 122.386331 
L 975.124427 131.030082 
L 975.648847 130.599089 
L 979.319787 125.058057 
L 981.417466 128.604983 
L 983.515146 132.240759 
L 987.710506 141.505092 
L 992.430286 143.377912 
L 995.576806 144.318688 
L 996.101226 144.200989 
L 999.772166 141.065211 
L 1000.296586 140.917687 
L 1003.967526 141.426262 
L 1004.491946 141.888638 
L 1008.162885 146.294568 
L 1009.736145 150.134417 
L 1012.358245 156.738019 
L 1016.553605 173.187452 
L 1020.224545 166.760516 
L 1020.748965 166.090324 
L 1025.468745 169.534424 
L 1030.188525 173.7063 
L 1030.712945 174.207273 
L 1030.712945 174.207273 
" clip-path="url(#pb07c6fa965)" style="fill: none; stroke: #fc4f30; stroke-width: 4"/>
   </g>
   <g id="line2d_76">
    <path d="M 762.734335 27.927807 
L 764.307595 27.927807 
L 764.832015 28.121335 
L 768.502955 30.533685 
L 769.027375 32.036993 
L 772.698315 46.297136 
L 773.222734 46.689805 
L 776.893674 46.697875 
L 779.515774 48.675763 
L 781.089034 49.762932 
L 785.284394 36.042592 
L 789.479754 37.306253 
L 793.150694 40.04211 
L 793.675114 40.28168 
L 797.346054 40.515286 
L 797.870474 41.432709 
L 801.541413 52.997618 
L 802.065833 51.709514 
L 805.736773 32.520266 
L 806.261193 31.191655 
L 809.932133 24.483531 
L 810.980973 27.282702 
L 814.127493 36.250194 
L 820.944953 37.101965 
L 823.567053 37.446954 
L 826.189152 37.88894 
L 826.713572 37.639975 
L 830.384512 32.465335 
L 830.908932 33.1504 
L 834.579872 46.759668 
L 835.104292 48.006135 
L 838.775232 54.145801 
L 839.299652 54.504708 
L 842.970592 55.975658 
L 845.592692 55.69215 
L 847.165952 55.465991 
L 851.361311 41.126395 
L 855.032251 24.375267 
L 855.556671 22.793752 
L 859.227611 27.142781 
L 859.752031 27.370733 
L 863.422971 24.701932 
L 863.947391 24.573044 
L 867.618331 25.332339 
L 868.142751 25.698147 
L 871.813691 29.278641 
L 872.862531 32.626543 
L 876.009051 43.614378 
L 877.05789 44.694374 
L 880.20441 47.458418 
L 884.39977 49.582855 
L 888.07071 53.463542 
L 888.59513 52.904714 
L 892.26607 26.087931 
L 892.79049 23.26416 
L 896.46143 15.152727 
L 896.98585 16.764261 
L 900.65679 47.43682 
L 901.18121 49.052798 
L 904.852149 48.652332 
L 905.376569 50.037005 
L 909.047509 63.163351 
L 909.571929 62.439416 
L 913.242869 54.634727 
L 917.438229 33.000264 
L 921.109169 32.951376 
L 921.633589 32.604866 
L 925.304529 22.590166 
L 925.828949 21.618747 
L 929.499888 20.495437 
L 930.024308 22.113871 
L 933.695248 46.685517 
L 934.219668 48.028241 
L 937.890608 47.632492 
L 938.415028 49.072486 
L 942.085968 63.012046 
L 943.134808 64.447713 
L 946.281328 68.152261 
L 950.476688 70.993459 
L 954.147627 75.163073 
L 954.672047 75.304593 
L 958.867407 64.015005 
L 962.538347 58.639976 
L 963.062767 59.204769 
L 966.733707 73.709784 
L 967.258127 74.775901 
L 970.929067 77.391798 
L 971.453487 79.207035 
L 975.124427 95.928378 
L 975.648847 95.224598 
L 979.319787 86.127829 
L 981.417466 84.907872 
L 983.515146 83.642496 
L 987.186086 74.625025 
L 987.710506 73.968341 
L 991.905866 87.824236 
L 995.576806 96.622176 
L 996.101226 97.364591 
L 999.772166 98.227862 
L 1000.296586 98.755619 
L 1003.967526 104.526163 
L 1004.491946 104.820431 
L 1008.162885 105.29002 
L 1009.211725 108.729578 
L 1012.358245 120.010551 
L 1014.455925 123.114126 
L 1016.553605 126.126669 
L 1021.273385 128.866074 
L 1024.419905 130.22026 
L 1024.944325 130.701272 
L 1028.615265 137.9476 
L 1029.139685 138.528885 
L 1030.712945 138.528885 
L 1030.712945 138.528885 
" clip-path="url(#pb07c6fa965)" style="fill: none; stroke: #e5ae38; stroke-width: 4"/>
   </g>
   <g id="patch_15">
    <path d="M 749.335404 182.16 
L 749.335404 7.2 
" style="fill: none; stroke: #f0f0f0; stroke-width: 3; stroke-linejoin: miter; stroke-linecap: square"/>
   </g>
   <g id="patch_16">
    <path d="M 1044.111875 182.16 
L 1044.111875 7.2 
" style="fill: none; stroke: #f0f0f0; stroke-width: 3; stroke-linejoin: miter; stroke-linecap: square"/>
   </g>
   <g id="patch_17">
    <path d="M 749.335404 182.16 
L 1044.111875 182.16 
" style="fill: none; stroke: #f0f0f0; stroke-width: 3; stroke-linejoin: miter; stroke-linecap: square"/>
   </g>
   <g id="patch_18">
    <path d="M 749.335404 7.2 
L 1044.111875 7.2 
" style="fill: none; stroke: #f0f0f0; stroke-width: 3; stroke-linejoin: miter; stroke-linecap: square"/>
   </g>
   <g id="legend_3">
    <g id="patch_19">
     <path d="M 759.135404 175.16 
L 908.410404 175.16 
Q 911.210404 175.16 911.210404 172.36 
L 911.210404 112.111875 
Q 911.210404 109.311875 908.410404 109.311875 
L 759.135404 109.311875 
Q 756.335404 109.311875 756.335404 112.111875 
L 756.335404 172.36 
Q 756.335404 175.16 759.135404 175.16 
z
" style="fill: #f0f0f0; opacity: 0.8; stroke: #cccccc; stroke-width: 0.5; stroke-linejoin: miter"/>
    </g>
    <g id="line2d_77">
     <path d="M 761.935404 120.649688 
L 775.935404 120.649688 
L 789.935404 120.649688 
" style="fill: none; stroke: #008fd5; stroke-width: 4"/>
    </g>
    <g id="text_37">
     <!-- target centroid -->
     <g transform="translate(801.135404 125.549688) scale(0.14 -0.14)">
      <defs>
       <path id="DejaVuSans-67" d="M 2906 1791 
Q 2906 2416 2648 2759 
Q 2391 3103 1925 3103 
Q 1463 3103 1205 2759 
Q 947 2416 947 1791 
Q 947 1169 1205 825 
Q 1463 481 1925 481 
Q 2391 481 2648 825 
Q 2906 1169 2906 1791 
z
M 3481 434 
Q 3481 -459 3084 -895 
Q 2688 -1331 1869 -1331 
Q 1566 -1331 1297 -1286 
Q 1028 -1241 775 -1147 
L 775 -588 
Q 1028 -725 1275 -790 
Q 1522 -856 1778 -856 
Q 2344 -856 2625 -561 
Q 2906 -266 2906 331 
L 2906 616 
Q 2728 306 2450 153 
Q 2172 0 1784 0 
Q 1141 0 747 490 
Q 353 981 353 1791 
Q 353 2603 747 3093 
Q 1141 3584 1784 3584 
Q 2172 3584 2450 3431 
Q 2728 3278 2906 2969 
L 2906 3500 
L 3481 3500 
L 3481 434 
z
" transform="scale(0.015625)"/>
       <path id="DejaVuSans-20" transform="scale(0.015625)"/>
       <path id="DejaVuSans-6e" d="M 3513 2113 
L 3513 0 
L 2938 0 
L 2938 2094 
Q 2938 2591 2744 2837 
Q 2550 3084 2163 3084 
Q 1697 3084 1428 2787 
Q 1159 2491 1159 1978 
L 1159 0 
L 581 0 
L 581 3500 
L 1159 3500 
L 1159 2956 
Q 1366 3272 1645 3428 
Q 1925 3584 2291 3584 
Q 2894 3584 3203 3211 
Q 3513 2838 3513 2113 
z
" transform="scale(0.015625)"/>
       <path id="DejaVuSans-6f" d="M 1959 3097 
Q 1497 3097 1228 2736 
Q 959 2375 959 1747 
Q 959 1119 1226 758 
Q 1494 397 1959 397 
Q 2419 397 2687 759 
Q 2956 1122 2956 1747 
Q 2956 2369 2687 2733 
Q 2419 3097 1959 3097 
z
M 1959 3584 
Q 2709 3584 3137 3096 
Q 3566 2609 3566 1747 
Q 3566 888 3137 398 
Q 2709 -91 1959 -91 
Q 1206 -91 779 398 
Q 353 888 353 1747 
Q 353 2609 779 3096 
Q 1206 3584 1959 3584 
z
" transform="scale(0.015625)"/>
       <path id="DejaVuSans-64" d="M 2906 2969 
L 2906 4863 
L 3481 4863 
L 3481 0 
L 2906 0 
L 2906 525 
Q 2725 213 2448 61 
Q 2172 -91 1784 -91 
Q 1150 -91 751 415 
Q 353 922 353 1747 
Q 353 2572 751 3078 
Q 1150 3584 1784 3584 
Q 2172 3584 2448 3432 
Q 2725 3281 2906 2969 
z
M 947 1747 
Q 947 1113 1208 752 
Q 1469 391 1925 391 
Q 2381 391 2643 752 
Q 2906 1113 2906 1747 
Q 2906 2381 2643 2742 
Q 2381 3103 1925 3103 
Q 1469 3103 1208 2742 
Q 947 2381 947 1747 
z
" transform="scale(0.015625)"/>
      </defs>
      <use xlink:href="#DejaVuSans-74"/>
      <use xlink:href="#DejaVuSans-61" x="39.208984"/>
      <use xlink:href="#DejaVuSans-72" x="100.488281"/>
      <use xlink:href="#DejaVuSans-67" x="139.851562"/>
      <use xlink:href="#DejaVuSans-65" x="203.328125"/>
      <use xlink:href="#DejaVuSans-74" x="264.851562"/>
      <use xlink:href="#DejaVuSans-20" x="304.060547"/>
      <use xlink:href="#DejaVuSans-63" x="335.847656"/>
      <use xlink:href="#DejaVuSans-65" x="390.828125"/>
      <use xlink:href="#DejaVuSans-6e" x="452.351562"/>
      <use xlink:href="#DejaVuSans-74" x="515.730469"/>
      <use xlink:href="#DejaVuSans-72" x="554.939453"/>
      <use xlink:href="#DejaVuSans-6f" x="593.802734"/>
      <use xlink:href="#DejaVuSans-69" x="654.984375"/>
      <use xlink:href="#DejaVuSans-64" x="682.767578"/>
     </g>
    </g>
    <g id="line2d_78">
     <path d="M 761.935404 141.199063 
L 775.935404 141.199063 
L 789.935404 141.199063 
" style="fill: none; stroke: #fc4f30; stroke-width: 4"/>
    </g>
    <g id="text_38">
     <!-- biased target -->
     <g transform="translate(801.135404 146.099063) scale(0.14 -0.14)">
      <defs>
       <path id="DejaVuSans-62" d="M 3116 1747 
Q 3116 2381 2855 2742 
Q 2594 3103 2138 3103 
Q 1681 3103 1420 2742 
Q 1159 2381 1159 1747 
Q 1159 1113 1420 752 
Q 1681 391 2138 391 
Q 2594 391 2855 752 
Q 3116 1113 3116 1747 
z
M 1159 2969 
Q 1341 3281 1617 3432 
Q 1894 3584 2278 3584 
Q 2916 3584 3314 3078 
Q 3713 2572 3713 1747 
Q 3713 922 3314 415 
Q 2916 -91 2278 -91 
Q 1894 -91 1617 61 
Q 1341 213 1159 525 
L 1159 0 
L 581 0 
L 581 4863 
L 1159 4863 
L 1159 2969 
z
" transform="scale(0.015625)"/>
       <path id="DejaVuSans-73" d="M 2834 3397 
L 2834 2853 
Q 2591 2978 2328 3040 
Q 2066 3103 1784 3103 
Q 1356 3103 1142 2972 
Q 928 2841 928 2578 
Q 928 2378 1081 2264 
Q 1234 2150 1697 2047 
L 1894 2003 
Q 2506 1872 2764 1633 
Q 3022 1394 3022 966 
Q 3022 478 2636 193 
Q 2250 -91 1575 -91 
Q 1294 -91 989 -36 
Q 684 19 347 128 
L 347 722 
Q 666 556 975 473 
Q 1284 391 1588 391 
Q 1994 391 2212 530 
Q 2431 669 2431 922 
Q 2431 1156 2273 1281 
Q 2116 1406 1581 1522 
L 1381 1569 
Q 847 1681 609 1914 
Q 372 2147 372 2553 
Q 372 3047 722 3315 
Q 1072 3584 1716 3584 
Q 2034 3584 2315 3537 
Q 2597 3491 2834 3397 
z
" transform="scale(0.015625)"/>
      </defs>
      <use xlink:href="#DejaVuSans-62"/>
      <use xlink:href="#DejaVuSans-69" x="63.476562"/>
      <use xlink:href="#DejaVuSans-61" x="91.259766"/>
      <use xlink:href="#DejaVuSans-73" x="152.539062"/>
      <use xlink:href="#DejaVuSans-65" x="204.638672"/>
      <use xlink:href="#DejaVuSans-64" x="266.162109"/>
      <use xlink:href="#DejaVuSans-20" x="329.638672"/>
      <use xlink:href="#DejaVuSans-74" x="361.425781"/>
      <use xlink:href="#DejaVuSans-61" x="400.634766"/>
      <use xlink:href="#DejaVuSans-72" x="461.914062"/>
      <use xlink:href="#DejaVuSans-67" x="501.277344"/>
      <use xlink:href="#DejaVuSans-65" x="564.753906"/>
      <use xlink:href="#DejaVuSans-74" x="626.277344"/>
     </g>
    </g>
    <g id="line2d_79">
     <path d="M 761.935404 161.748438 
L 775.935404 161.748438 
L 789.935404 161.748438 
" style="fill: none; stroke: #e5ae38; stroke-width: 4"/>
    </g>
    <g id="text_39">
     <!-- gen centroid -->
     <g transform="translate(801.135404 166.648438) scale(0.14 -0.14)">
      <use xlink:href="#DejaVuSans-67"/>
      <use xlink:href="#DejaVuSans-65" x="63.476562"/>
      <use xlink:href="#DejaVuSans-6e" x="125"/>
      <use xlink:href="#DejaVuSans-20" x="188.378906"/>
      <use xlink:href="#DejaVuSans-63" x="220.166016"/>
      <use xlink:href="#DejaVuSans-65" x="275.146484"/>
      <use xlink:href="#DejaVuSans-6e" x="336.669922"/>
      <use xlink:href="#DejaVuSans-74" x="400.048828"/>
      <use xlink:href="#DejaVuSans-72" x="439.257812"/>
      <use xlink:href="#DejaVuSans-6f" x="478.121094"/>
      <use xlink:href="#DejaVuSans-69" x="539.302734"/>
      <use xlink:href="#DejaVuSans-64" x="567.085938"/>
     </g>
    </g>
   </g>
  </g>
 </g>
 <defs>
  <clipPath id="p84004142cd">
   <rect x="41.871875" y="7.2" width="294.776471" height="174.96"/>
  </clipPath>
  <clipPath id="pd3a7d3ebd9">
   <rect x="395.60364" y="7.2" width="294.776471" height="174.96"/>
  </clipPath>
  <clipPath id="pb07c6fa965">
   <rect x="749.335404" y="7.2" width="294.776471" height="174.96"/>
  </clipPath>
 </defs>
</svg>
