<?xml version="1.0" encoding="utf-8" standalone="no"?>
<!DOCTYPE svg PUBLIC "-//W3C//DTD SVG 1.1//EN"
  "http://www.w3.org/Graphics/SVG/1.1/DTD/svg11.dtd">
<svg xmlns:xlink="http://www.w3.org/1999/xlink" width="1051.311875pt" height="206.409375pt" viewBox="0 0 1051.311875 206.409375" xmlns="http://www.w3.org/2000/svg" version="1.1">
 <metadata>
  <rdf:RDF xmlns:dc="http://purl.org/dc/elements/1.1/" xmlns:cc="http://creativecommons.org/ns#" xmlns:rdf="http://www.w3.org/1999/02/22-rdf-syntax-ns#">
   <cc:Work>
    <dc:type rdf:resource="http://purl.org/dc/dcmitype/StillImage"/>
    <dc:date>2023-01-19T14:55:33.012971</dc:date>
    <dc:format>image/svg+xml</dc:format>
    <dc:creator>
     <cc:Agent>
      <dc:title>Matplotlib v3.6.0, https://matplotlib.org/</dc:title>
     </cc:Agent>
    </dc:creator>
   </cc:Work>
  </rdf:RDF>
 </metadata>
 <defs>
  <style type="text/css">*{stroke-linejoin: round; stroke-linecap: butt}</style>
 </defs>
 <g id="figure_1">
  <g id="patch_1">
   <path d="M 0 206.409375 
L 1051.311875 206.409375 
L 1051.311875 0 
L 0 0 
L 0 206.409375 
z
" style="fill: none"/>
  </g>
  <g id="axes_1">
   <g id="patch_2">
    <path d="M 41.871875 182.16 
L 336.648346 182.16 
L 336.648346 7.2 
L 41.871875 7.2 
L 41.871875 182.16 
z
" style="fill: none"/>
   </g>
   <g id="matplotlib.axis_1">
    <g id="xtick_1">
     <g id="line2d_1">
      <path d="M 55.270805 182.16 
L 55.270805 7.2 
" clip-path="url(#p5c8e4250c1)" style="fill: none; stroke: #cbcbcb"/>
     </g>
     <g id="line2d_2"/>
     <g id="text_1">
      <!-- 0 -->
      <g transform="translate(50.817055 196.297813) scale(0.14 -0.14)">
       <defs>
        <path id="DejaVuSans-30" d="M 2034 4250 
Q 1547 4250 1301 3770 
Q 1056 3291 1056 2328 
Q 1056 1369 1301 889 
Q 1547 409 2034 409 
Q 2525 409 2770 889 
Q 3016 1369 3016 2328 
Q 3016 3291 2770 3770 
Q 2525 4250 2034 4250 
z
M 2034 4750 
Q 2819 4750 3233 4129 
Q 3647 3509 3647 2328 
Q 3647 1150 3233 529 
Q 2819 -91 2034 -91 
Q 1250 -91 836 529 
Q 422 1150 422 2328 
Q 422 3509 836 4129 
Q 1250 4750 2034 4750 
z
" transform="scale(0.015625)"/>
       </defs>
       <use xlink:href="#DejaVuSans-30"/>
      </g>
     </g>
    </g>
    <g id="xtick_2">
     <g id="line2d_3">
      <path d="M 107.712803 182.16 
L 107.712803 7.2 
" clip-path="url(#p5c8e4250c1)" style="fill: none; stroke: #cbcbcb"/>
     </g>
     <g id="line2d_4"/>
     <g id="text_2">
      <!-- 100 -->
      <g transform="translate(94.351553 196.297813) scale(0.14 -0.14)">
       <defs>
        <path id="DejaVuSans-31" d="M 794 531 
L 1825 531 
L 1825 4091 
L 703 3866 
L 703 4441 
L 1819 4666 
L 2450 4666 
L 2450 531 
L 3481 531 
L 3481 0 
L 794 0 
L 794 531 
z
" transform="scale(0.015625)"/>
       </defs>
       <use xlink:href="#DejaVuSans-31"/>
       <use xlink:href="#DejaVuSans-30" x="63.623047"/>
       <use xlink:href="#DejaVuSans-30" x="127.246094"/>
      </g>
     </g>
    </g>
    <g id="xtick_3">
     <g id="line2d_5">
      <path d="M 160.154801 182.16 
L 160.154801 7.2 
" clip-path="url(#p5c8e4250c1)" style="fill: none; stroke: #cbcbcb"/>
     </g>
     <g id="line2d_6"/>
     <g id="text_3">
      <!-- 200 -->
      <g transform="translate(146.793551 196.297813) scale(0.14 -0.14)">
       <defs>
        <path id="DejaVuSans-32" d="M 1228 531 
L 3431 531 
L 3431 0 
L 469 0 
L 469 531 
Q 828 903 1448 1529 
Q 2069 2156 2228 2338 
Q 2531 2678 2651 2914 
Q 2772 3150 2772 3378 
Q 2772 3750 2511 3984 
Q 2250 4219 1831 4219 
Q 1534 4219 1204 4116 
Q 875 4013 500 3803 
L 500 4441 
Q 881 4594 1212 4672 
Q 1544 4750 1819 4750 
Q 2544 4750 2975 4387 
Q 3406 4025 3406 3419 
Q 3406 3131 3298 2873 
Q 3191 2616 2906 2266 
Q 2828 2175 2409 1742 
Q 1991 1309 1228 531 
z
" transform="scale(0.015625)"/>
       </defs>
       <use xlink:href="#DejaVuSans-32"/>
       <use xlink:href="#DejaVuSans-30" x="63.623047"/>
       <use xlink:href="#DejaVuSans-30" x="127.246094"/>
      </g>
     </g>
    </g>
    <g id="xtick_4">
     <g id="line2d_7">
      <path d="M 212.596799 182.16 
L 212.596799 7.2 
" clip-path="url(#p5c8e4250c1)" style="fill: none; stroke: #cbcbcb"/>
     </g>
     <g id="line2d_8"/>
     <g id="text_4">
      <!-- 300 -->
      <g transform="translate(199.235549 196.297813) scale(0.14 -0.14)">
       <defs>
        <path id="DejaVuSans-33" d="M 2597 2516 
Q 3050 2419 3304 2112 
Q 3559 1806 3559 1356 
Q 3559 666 3084 287 
Q 2609 -91 1734 -91 
Q 1441 -91 1130 -33 
Q 819 25 488 141 
L 488 750 
Q 750 597 1062 519 
Q 1375 441 1716 441 
Q 2309 441 2620 675 
Q 2931 909 2931 1356 
Q 2931 1769 2642 2001 
Q 2353 2234 1838 2234 
L 1294 2234 
L 1294 2753 
L 1863 2753 
Q 2328 2753 2575 2939 
Q 2822 3125 2822 3475 
Q 2822 3834 2567 4026 
Q 2313 4219 1838 4219 
Q 1578 4219 1281 4162 
Q 984 4106 628 3988 
L 628 4550 
Q 988 4650 1302 4700 
Q 1616 4750 1894 4750 
Q 2613 4750 3031 4423 
Q 3450 4097 3450 3541 
Q 3450 3153 3228 2886 
Q 3006 2619 2597 2516 
z
" transform="scale(0.015625)"/>
       </defs>
       <use xlink:href="#DejaVuSans-33"/>
       <use xlink:href="#DejaVuSans-30" x="63.623047"/>
       <use xlink:href="#DejaVuSans-30" x="127.246094"/>
      </g>
     </g>
    </g>
    <g id="xtick_5">
     <g id="line2d_9">
      <path d="M 265.038797 182.16 
L 265.038797 7.2 
" clip-path="url(#p5c8e4250c1)" style="fill: none; stroke: #cbcbcb"/>
     </g>
     <g id="line2d_10"/>
     <g id="text_5">
      <!-- 400 -->
      <g transform="translate(251.677547 196.297813) scale(0.14 -0.14)">
       <defs>
        <path id="DejaVuSans-34" d="M 2419 4116 
L 825 1625 
L 2419 1625 
L 2419 4116 
z
M 2253 4666 
L 3047 4666 
L 3047 1625 
L 3713 1625 
L 3713 1100 
L 3047 1100 
L 3047 0 
L 2419 0 
L 2419 1100 
L 313 1100 
L 313 1709 
L 2253 4666 
z
" transform="scale(0.015625)"/>
       </defs>
       <use xlink:href="#DejaVuSans-34"/>
       <use xlink:href="#DejaVuSans-30" x="63.623047"/>
       <use xlink:href="#DejaVuSans-30" x="127.246094"/>
      </g>
     </g>
    </g>
    <g id="xtick_6">
     <g id="line2d_11">
      <path d="M 317.480795 182.16 
L 317.480795 7.2 
" clip-path="url(#p5c8e4250c1)" style="fill: none; stroke: #cbcbcb"/>
     </g>
     <g id="line2d_12"/>
     <g id="text_6">
      <!-- 500 -->
      <g transform="translate(304.119545 196.297813) scale(0.14 -0.14)">
       <defs>
        <path id="DejaVuSans-35" d="M 691 4666 
L 3169 4666 
L 3169 4134 
L 1269 4134 
L 1269 2991 
Q 1406 3038 1543 3061 
Q 1681 3084 1819 3084 
Q 2600 3084 3056 2656 
Q 3513 2228 3513 1497 
Q 3513 744 3044 326 
Q 2575 -91 1722 -91 
Q 1428 -91 1123 -41 
Q 819 9 494 109 
L 494 744 
Q 775 591 1075 516 
Q 1375 441 1709 441 
Q 2250 441 2565 725 
Q 2881 1009 2881 1497 
Q 2881 1984 2565 2268 
Q 2250 2553 1709 2553 
Q 1456 2553 1204 2497 
Q 953 2441 691 2322 
L 691 4666 
z
" transform="scale(0.015625)"/>
       </defs>
       <use xlink:href="#DejaVuSans-35"/>
       <use xlink:href="#DejaVuSans-30" x="63.623047"/>
       <use xlink:href="#DejaVuSans-30" x="127.246094"/>
      </g>
     </g>
    </g>
   </g>
   <g id="matplotlib.axis_2">
    <g id="ytick_1">
     <g id="line2d_13">
      <path d="M 41.871875 174.207273 
L 336.648346 174.207273 
" clip-path="url(#p5c8e4250c1)" style="fill: none; stroke: #cbcbcb"/>
     </g>
     <g id="line2d_14"/>
     <g id="text_7">
      <!-- 0.00 -->
      <g transform="translate(7.2 179.526179) scale(0.14 -0.14)">
       <defs>
        <path id="DejaVuSans-2e" d="M 684 794 
L 1344 794 
L 1344 0 
L 684 0 
L 684 794 
z
" transform="scale(0.015625)"/>
       </defs>
       <use xlink:href="#DejaVuSans-30"/>
       <use xlink:href="#DejaVuSans-2e" x="63.623047"/>
       <use xlink:href="#DejaVuSans-30" x="95.410156"/>
       <use xlink:href="#DejaVuSans-30" x="159.033203"/>
      </g>
     </g>
    </g>
    <g id="ytick_2">
     <g id="line2d_15">
      <path d="M 41.871875 116.265977 
L 336.648346 116.265977 
" clip-path="url(#p5c8e4250c1)" style="fill: none; stroke: #cbcbcb"/>
     </g>
     <g id="line2d_16"/>
     <g id="text_8">
      <!-- 0.05 -->
      <g transform="translate(7.2 121.584883) scale(0.14 -0.14)">
       <use xlink:href="#DejaVuSans-30"/>
       <use xlink:href="#DejaVuSans-2e" x="63.623047"/>
       <use xlink:href="#DejaVuSans-30" x="95.410156"/>
       <use xlink:href="#DejaVuSans-35" x="159.033203"/>
      </g>
     </g>
    </g>
    <g id="ytick_3">
     <g id="line2d_17">
      <path d="M 41.871875 58.324681 
L 336.648346 58.324681 
" clip-path="url(#p5c8e4250c1)" style="fill: none; stroke: #cbcbcb"/>
     </g>
     <g id="line2d_18"/>
     <g id="text_9">
      <!-- 0.10 -->
      <g transform="translate(7.2 63.643587) scale(0.14 -0.14)">
       <use xlink:href="#DejaVuSans-30"/>
       <use xlink:href="#DejaVuSans-2e" x="63.623047"/>
       <use xlink:href="#DejaVuSans-31" x="95.410156"/>
       <use xlink:href="#DejaVuSans-30" x="159.033203"/>
      </g>
     </g>
    </g>
   </g>
   <g id="line2d_19">
    <path d="M 55.270805 15.152727 
L 188.9979 15.152727 
L 189.52232 174.207273 
L 323.249415 174.207273 
L 323.249415 174.207273 
" clip-path="url(#p5c8e4250c1)" style="fill: none; stroke: #008fd5; stroke-width: 4"/>
   </g>
   <g id="patch_3">
    <path d="M 41.871875 182.16 
L 41.871875 7.2 
" style="fill: none; stroke: #f0f0f0; stroke-width: 3; stroke-linejoin: miter; stroke-linecap: square"/>
   </g>
   <g id="patch_4">
    <path d="M 336.648346 182.16 
L 336.648346 7.2 
" style="fill: none; stroke: #f0f0f0; stroke-width: 3; stroke-linejoin: miter; stroke-linecap: square"/>
   </g>
   <g id="patch_5">
    <path d="M 41.871875 182.16 
L 336.648346 182.16 
" style="fill: none; stroke: #f0f0f0; stroke-width: 3; stroke-linejoin: miter; stroke-linecap: square"/>
   </g>
   <g id="patch_6">
    <path d="M 41.871875 7.2 
L 336.648346 7.2 
" style="fill: none; stroke: #f0f0f0; stroke-width: 3; stroke-linejoin: miter; stroke-linecap: square"/>
   </g>
   <g id="legend_1">
    <g id="patch_7">
     <path d="M 218.882096 38.949375 
L 326.848346 38.949375 
Q 329.648346 38.949375 329.648346 36.149375 
L 329.648346 17 
Q 329.648346 14.2 326.848346 14.2 
L 218.882096 14.2 
Q 216.082096 14.2 216.082096 17 
L 216.082096 36.149375 
Q 216.082096 38.949375 218.882096 38.949375 
z
" style="fill: #f0f0f0; opacity: 0.8; stroke: #cccccc; stroke-width: 0.5; stroke-linejoin: miter"/>
    </g>
    <g id="line2d_20">
     <path d="M 221.682096 25.537813 
L 235.682096 25.537813 
L 249.682096 25.537813 
" style="fill: none; stroke: #008fd5; stroke-width: 4"/>
    </g>
    <g id="text_10">
     <!-- accuracy -->
     <g transform="translate(260.882096 30.437813) scale(0.14 -0.14)">
      <defs>
       <path id="DejaVuSans-61" d="M 2194 1759 
Q 1497 1759 1228 1600 
Q 959 1441 959 1056 
Q 959 750 1161 570 
Q 1363 391 1709 391 
Q 2188 391 2477 730 
Q 2766 1069 2766 1631 
L 2766 1759 
L 2194 1759 
z
M 3341 1997 
L 3341 0 
L 2766 0 
L 2766 531 
Q 2569 213 2275 61 
Q 1981 -91 1556 -91 
Q 1019 -91 701 211 
Q 384 513 384 1019 
Q 384 1609 779 1909 
Q 1175 2209 1959 2209 
L 2766 2209 
L 2766 2266 
Q 2766 2663 2505 2880 
Q 2244 3097 1772 3097 
Q 1472 3097 1187 3025 
Q 903 2953 641 2809 
L 641 3341 
Q 956 3463 1253 3523 
Q 1550 3584 1831 3584 
Q 2591 3584 2966 3190 
Q 3341 2797 3341 1997 
z
" transform="scale(0.015625)"/>
       <path id="DejaVuSans-63" d="M 3122 3366 
L 3122 2828 
Q 2878 2963 2633 3030 
Q 2388 3097 2138 3097 
Q 1578 3097 1268 2742 
Q 959 2388 959 1747 
Q 959 1106 1268 751 
Q 1578 397 2138 397 
Q 2388 397 2633 464 
Q 2878 531 3122 666 
L 3122 134 
Q 2881 22 2623 -34 
Q 2366 -91 2075 -91 
Q 1284 -91 818 406 
Q 353 903 353 1747 
Q 353 2603 823 3093 
Q 1294 3584 2113 3584 
Q 2378 3584 2631 3529 
Q 2884 3475 3122 3366 
z
" transform="scale(0.015625)"/>
       <path id="DejaVuSans-75" d="M 544 1381 
L 544 3500 
L 1119 3500 
L 1119 1403 
Q 1119 906 1312 657 
Q 1506 409 1894 409 
Q 2359 409 2629 706 
Q 2900 1003 2900 1516 
L 2900 3500 
L 3475 3500 
L 3475 0 
L 2900 0 
L 2900 538 
Q 2691 219 2414 64 
Q 2138 -91 1772 -91 
Q 1169 -91 856 284 
Q 544 659 544 1381 
z
M 1991 3584 
L 1991 3584 
z
" transform="scale(0.015625)"/>
       <path id="DejaVuSans-72" d="M 2631 2963 
Q 2534 3019 2420 3045 
Q 2306 3072 2169 3072 
Q 1681 3072 1420 2755 
Q 1159 2438 1159 1844 
L 1159 0 
L 581 0 
L 581 3500 
L 1159 3500 
L 1159 2956 
Q 1341 3275 1631 3429 
Q 1922 3584 2338 3584 
Q 2397 3584 2469 3576 
Q 2541 3569 2628 3553 
L 2631 2963 
z
" transform="scale(0.015625)"/>
       <path id="DejaVuSans-79" d="M 2059 -325 
Q 1816 -950 1584 -1140 
Q 1353 -1331 966 -1331 
L 506 -1331 
L 506 -850 
L 844 -850 
Q 1081 -850 1212 -737 
Q 1344 -625 1503 -206 
L 1606 56 
L 191 3500 
L 800 3500 
L 1894 763 
L 2988 3500 
L 3597 3500 
L 2059 -325 
z
" transform="scale(0.015625)"/>
      </defs>
      <use xlink:href="#DejaVuSans-61"/>
      <use xlink:href="#DejaVuSans-63" x="61.279297"/>
      <use xlink:href="#DejaVuSans-63" x="116.259766"/>
      <use xlink:href="#DejaVuSans-75" x="171.240234"/>
      <use xlink:href="#DejaVuSans-72" x="234.619141"/>
      <use xlink:href="#DejaVuSans-61" x="275.732422"/>
      <use xlink:href="#DejaVuSans-63" x="337.011719"/>
      <use xlink:href="#DejaVuSans-79" x="391.992188"/>
     </g>
    </g>
   </g>
  </g>
  <g id="axes_2">
   <g id="patch_8">
    <path d="M 395.60364 182.16 
L 690.38011 182.16 
L 690.38011 7.2 
L 395.60364 7.2 
L 395.60364 182.16 
z
" style="fill: none"/>
   </g>
   <g id="matplotlib.axis_3">
    <g id="xtick_7">
     <g id="line2d_21">
      <path d="M 409.00257 182.16 
L 409.00257 7.2 
" clip-path="url(#p0782f269ef)" style="fill: none; stroke: #cbcbcb"/>
     </g>
     <g id="line2d_22"/>
     <g id="text_11">
      <!-- 0 -->
      <g transform="translate(404.54882 196.297813) scale(0.14 -0.14)">
       <use xlink:href="#DejaVuSans-30"/>
      </g>
     </g>
    </g>
    <g id="xtick_8">
     <g id="line2d_23">
      <path d="M 461.444568 182.16 
L 461.444568 7.2 
" clip-path="url(#p0782f269ef)" style="fill: none; stroke: #cbcbcb"/>
     </g>
     <g id="line2d_24"/>
     <g id="text_12">
      <!-- 100 -->
      <g transform="translate(448.083318 196.297813) scale(0.14 -0.14)">
       <use xlink:href="#DejaVuSans-31"/>
       <use xlink:href="#DejaVuSans-30" x="63.623047"/>
       <use xlink:href="#DejaVuSans-30" x="127.246094"/>
      </g>
     </g>
    </g>
    <g id="xtick_9">
     <g id="line2d_25">
      <path d="M 513.886566 182.16 
L 513.886566 7.2 
" clip-path="url(#p0782f269ef)" style="fill: none; stroke: #cbcbcb"/>
     </g>
     <g id="line2d_26"/>
     <g id="text_13">
      <!-- 200 -->
      <g transform="translate(500.525316 196.297813) scale(0.14 -0.14)">
       <use xlink:href="#DejaVuSans-32"/>
       <use xlink:href="#DejaVuSans-30" x="63.623047"/>
       <use xlink:href="#DejaVuSans-30" x="127.246094"/>
      </g>
     </g>
    </g>
    <g id="xtick_10">
     <g id="line2d_27">
      <path d="M 566.328564 182.16 
L 566.328564 7.2 
" clip-path="url(#p0782f269ef)" style="fill: none; stroke: #cbcbcb"/>
     </g>
     <g id="line2d_28"/>
     <g id="text_14">
      <!-- 300 -->
      <g transform="translate(552.967314 196.297813) scale(0.14 -0.14)">
       <use xlink:href="#DejaVuSans-33"/>
       <use xlink:href="#DejaVuSans-30" x="63.623047"/>
       <use xlink:href="#DejaVuSans-30" x="127.246094"/>
      </g>
     </g>
    </g>
    <g id="xtick_11">
     <g id="line2d_29">
      <path d="M 618.770562 182.16 
L 618.770562 7.2 
" clip-path="url(#p0782f269ef)" style="fill: none; stroke: #cbcbcb"/>
     </g>
     <g id="line2d_30"/>
     <g id="text_15">
      <!-- 400 -->
      <g transform="translate(605.409312 196.297813) scale(0.14 -0.14)">
       <use xlink:href="#DejaVuSans-34"/>
       <use xlink:href="#DejaVuSans-30" x="63.623047"/>
       <use xlink:href="#DejaVuSans-30" x="127.246094"/>
      </g>
     </g>
    </g>
    <g id="xtick_12">
     <g id="line2d_31">
      <path d="M 671.21256 182.16 
L 671.21256 7.2 
" clip-path="url(#p0782f269ef)" style="fill: none; stroke: #cbcbcb"/>
     </g>
     <g id="line2d_32"/>
     <g id="text_16">
      <!-- 500 -->
      <g transform="translate(657.85131 196.297813) scale(0.14 -0.14)">
       <use xlink:href="#DejaVuSans-35"/>
       <use xlink:href="#DejaVuSans-30" x="63.623047"/>
       <use xlink:href="#DejaVuSans-30" x="127.246094"/>
      </g>
     </g>
    </g>
   </g>
   <g id="matplotlib.axis_4">
    <g id="ytick_4">
     <g id="line2d_33">
      <path d="M 395.60364 141.177516 
L 690.38011 141.177516 
" clip-path="url(#p0782f269ef)" style="fill: none; stroke: #cbcbcb"/>
     </g>
     <g id="line2d_34"/>
     <g id="text_17">
      <!-- 20 -->
      <g transform="translate(374.28864 146.496423) scale(0.14 -0.14)">
       <use xlink:href="#DejaVuSans-32"/>
       <use xlink:href="#DejaVuSans-30" x="63.623047"/>
      </g>
     </g>
    </g>
    <g id="ytick_5">
     <g id="line2d_35">
      <path d="M 395.60364 99.166363 
L 690.38011 99.166363 
" clip-path="url(#p0782f269ef)" style="fill: none; stroke: #cbcbcb"/>
     </g>
     <g id="line2d_36"/>
     <g id="text_18">
      <!-- 40 -->
      <g transform="translate(374.28864 104.48527) scale(0.14 -0.14)">
       <use xlink:href="#DejaVuSans-34"/>
       <use xlink:href="#DejaVuSans-30" x="63.623047"/>
      </g>
     </g>
    </g>
    <g id="ytick_6">
     <g id="line2d_37">
      <path d="M 395.60364 57.15521 
L 690.38011 57.15521 
" clip-path="url(#p0782f269ef)" style="fill: none; stroke: #cbcbcb"/>
     </g>
     <g id="line2d_38"/>
     <g id="text_19">
      <!-- 60 -->
      <g transform="translate(374.28864 62.474116) scale(0.14 -0.14)">
       <defs>
        <path id="DejaVuSans-36" d="M 2113 2584 
Q 1688 2584 1439 2293 
Q 1191 2003 1191 1497 
Q 1191 994 1439 701 
Q 1688 409 2113 409 
Q 2538 409 2786 701 
Q 3034 994 3034 1497 
Q 3034 2003 2786 2293 
Q 2538 2584 2113 2584 
z
M 3366 4563 
L 3366 3988 
Q 3128 4100 2886 4159 
Q 2644 4219 2406 4219 
Q 1781 4219 1451 3797 
Q 1122 3375 1075 2522 
Q 1259 2794 1537 2939 
Q 1816 3084 2150 3084 
Q 2853 3084 3261 2657 
Q 3669 2231 3669 1497 
Q 3669 778 3244 343 
Q 2819 -91 2113 -91 
Q 1303 -91 875 529 
Q 447 1150 447 2328 
Q 447 3434 972 4092 
Q 1497 4750 2381 4750 
Q 2619 4750 2861 4703 
Q 3103 4656 3366 4563 
z
" transform="scale(0.015625)"/>
       </defs>
       <use xlink:href="#DejaVuSans-36"/>
       <use xlink:href="#DejaVuSans-30" x="63.623047"/>
      </g>
     </g>
    </g>
    <g id="ytick_7">
     <g id="line2d_39">
      <path d="M 395.60364 15.144057 
L 690.38011 15.144057 
" clip-path="url(#p0782f269ef)" style="fill: none; stroke: #cbcbcb"/>
     </g>
     <g id="line2d_40"/>
     <g id="text_20">
      <!-- 80 -->
      <g transform="translate(374.28864 20.462963) scale(0.14 -0.14)">
       <defs>
        <path id="DejaVuSans-38" d="M 2034 2216 
Q 1584 2216 1326 1975 
Q 1069 1734 1069 1313 
Q 1069 891 1326 650 
Q 1584 409 2034 409 
Q 2484 409 2743 651 
Q 3003 894 3003 1313 
Q 3003 1734 2745 1975 
Q 2488 2216 2034 2216 
z
M 1403 2484 
Q 997 2584 770 2862 
Q 544 3141 544 3541 
Q 544 4100 942 4425 
Q 1341 4750 2034 4750 
Q 2731 4750 3128 4425 
Q 3525 4100 3525 3541 
Q 3525 3141 3298 2862 
Q 3072 2584 2669 2484 
Q 3125 2378 3379 2068 
Q 3634 1759 3634 1313 
Q 3634 634 3220 271 
Q 2806 -91 2034 -91 
Q 1263 -91 848 271 
Q 434 634 434 1313 
Q 434 1759 690 2068 
Q 947 2378 1403 2484 
z
M 1172 3481 
Q 1172 3119 1398 2916 
Q 1625 2713 2034 2713 
Q 2441 2713 2670 2916 
Q 2900 3119 2900 3481 
Q 2900 3844 2670 4047 
Q 2441 4250 2034 4250 
Q 1625 4250 1398 4047 
Q 1172 3844 1172 3481 
z
" transform="scale(0.015625)"/>
       </defs>
       <use xlink:href="#DejaVuSans-38"/>
       <use xlink:href="#DejaVuSans-30" x="63.623047"/>
      </g>
     </g>
    </g>
   </g>
   <g id="line2d_41">
    <path d="M 409.00257 15.152727 
L 409.52699 72.185996 
L 410.05141 83.191687 
L 410.57583 112.225793 
L 411.10025 107.28257 
L 411.62467 115.418112 
L 412.14909 100.561201 
L 412.67351 124.968877 
L 413.19793 121.376785 
L 413.72235 77.618227 
L 414.24677 60.275798 
L 414.77119 73.981988 
L 415.29561 109.38675 
L 415.82003 125.36161 
L 416.86887 39.146284 
L 417.91771 122.08382 
L 418.44213 83.279854 
L 418.96655 120.890417 
L 419.49097 108.062507 
L 420.01539 141.333241 
L 420.53981 158.425334 
L 421.06423 162.707838 
L 422.11307 105.674491 
L 422.63749 129.209953 
L 423.16191 118.423032 
L 423.68633 133.384826 
L 424.21075 127.122312 
L 424.73517 134.537699 
L 425.25959 125.403554 
L 425.78401 165.548363 
L 426.30843 153.103236 
L 426.832849 125.690603 
L 427.357269 109.942042 
L 427.881689 110.935509 
L 428.406109 144.52766 
L 428.930529 143.675026 
L 429.454949 141.618099 
L 429.979369 140.458086 
L 430.503789 153.769896 
L 431.028209 158.372943 
L 431.552629 159.206924 
L 432.077049 167.404361 
L 432.601469 146.204867 
L 433.125889 158.820663 
L 433.650309 160.89473 
L 434.174729 163.474108 
L 434.699149 151.242835 
L 435.223569 153.176607 
L 435.747989 164.643846 
L 436.272409 170.225594 
L 436.796829 174.207273 
L 437.321249 158.238578 
L 437.845669 136.33436 
L 438.894509 153.951749 
L 439.418929 153.042986 
L 439.943349 135.012321 
L 440.467769 155.482715 
L 440.992189 162.140225 
L 442.041029 169.491981 
L 443.089869 153.457155 
L 443.614289 163.0917 
L 444.138709 166.494242 
L 444.663129 156.977759 
L 445.187549 160.199018 
L 445.711969 161.10837 
L 446.236389 169.668433 
L 446.760809 165.771122 
L 447.285229 174.151863 
L 447.809649 161.124749 
L 448.334069 156.959486 
L 448.858489 154.708723 
L 449.382909 148.741115 
L 449.907329 155.566682 
L 450.431749 166.077445 
L 450.956169 164.816402 
L 451.480589 164.317365 
L 452.005009 162.280286 
L 452.529429 172.501309 
L 453.053848 165.809534 
L 454.102688 144.666645 
L 454.627108 150.076532 
L 455.151528 168.027971 
L 455.675948 155.04766 
L 456.200368 155.128487 
L 456.724788 166.745254 
L 457.249208 171.511825 
L 457.773628 169.442132 
L 458.298048 157.091874 
L 458.822468 165.541273 
L 459.346888 152.877251 
L 459.871308 145.939184 
L 460.395728 146.840478 
L 460.920148 158.765915 
L 461.444568 166.898059 
L 461.968988 156.492587 
L 462.493408 167.953014 
L 463.017828 171.610701 
L 463.542248 163.73679 
L 464.066668 166.315617 
L 464.591088 154.928401 
L 465.115508 169.050235 
L 466.164348 160.501056 
L 467.213188 167.49408 
L 467.737608 157.376113 
L 468.262028 168.638045 
L 468.786448 163.401252 
L 469.310868 164.346364 
L 469.835288 128.757868 
L 470.359708 157.6937 
L 470.884128 162.221844 
L 471.408548 163.503858 
L 471.932968 168.436491 
L 472.457388 163.646734 
L 472.981808 170.51526 
L 473.506228 167.089536 
L 474.030648 168.378588 
L 474.555068 158.9237 
L 475.079488 142.808172 
L 475.603908 164.764807 
L 476.128328 154.004246 
L 476.652748 157.777867 
L 477.177168 160.573882 
L 477.701588 168.572454 
L 478.226008 162.293306 
L 478.750427 172.510808 
L 479.799267 154.948159 
L 480.323687 131.399431 
L 480.848107 156.372594 
L 481.372527 161.76437 
L 481.896947 159.607499 
L 482.421367 162.693172 
L 482.945787 150.372606 
L 483.470207 165.464313 
L 483.994627 169.281529 
L 484.519047 165.449475 
L 485.043467 165.074535 
L 485.567887 148.463509 
L 486.092307 165.319051 
L 486.616727 153.422782 
L 487.141147 167.003614 
L 487.665567 169.782223 
L 488.189987 155.370143 
L 488.714407 169.445795 
L 489.238827 167.715828 
L 489.763247 163.569374 
L 490.287667 163.977025 
L 490.812087 149.592215 
L 491.336507 149.289116 
L 491.860927 166.359795 
L 492.385347 167.295547 
L 492.909767 159.12973 
L 493.434187 156.247143 
L 493.958607 167.600795 
L 494.483027 168.925829 
L 495.007447 170.681244 
L 495.531867 158.080053 
L 496.056287 166.568515 
L 496.580707 165.918665 
L 497.105127 160.766881 
L 497.629547 167.969404 
L 498.678387 170.740547 
L 499.202807 166.414659 
L 499.727227 160.013393 
L 500.251647 170.639583 
L 501.300487 151.904362 
L 501.824907 159.631975 
L 502.349327 161.694831 
L 502.873747 141.710052 
L 503.398167 157.146194 
L 503.922587 159.467698 
L 504.447006 168.278027 
L 504.971426 170.266369 
L 505.495846 168.0776 
L 507.069106 144.443027 
L 507.593526 159.909026 
L 508.117946 165.426924 
L 508.642366 159.482546 
L 509.166786 144.776832 
L 509.691206 162.353084 
L 510.215626 163.45443 
L 510.740046 170.451601 
L 511.264466 169.782583 
L 512.313306 152.446885 
L 512.837726 158.203585 
L 513.362146 151.858405 
L 513.886566 167.660334 
L 514.410986 170.006774 
L 514.935406 159.4579 
L 515.459826 167.69437 
L 515.984246 166.628691 
L 516.508666 171.492679 
L 517.033086 161.049751 
L 517.557506 158.448382 
L 518.081926 161.511816 
L 518.606346 167.792727 
L 519.130766 159.580046 
L 519.655186 164.970466 
L 520.179606 158.081815 
L 520.704026 168.377891 
L 521.228446 162.533178 
L 521.752866 163.986266 
L 522.277286 166.846706 
L 522.801706 146.336048 
L 523.326126 144.028487 
L 524.374966 156.720024 
L 524.899386 162.796618 
L 525.423806 160.560863 
L 525.948226 171.360126 
L 526.472646 162.348529 
L 526.997066 159.881247 
L 527.521486 153.564421 
L 528.045906 140.551017 
L 528.570326 160.217382 
L 529.094746 163.89255 
L 529.619166 163.921295 
L 530.143585 162.553165 
L 530.668005 171.048262 
L 531.192425 154.934653 
L 531.716845 169.787139 
L 532.241265 159.927672 
L 532.765685 165.006919 
L 533.290105 152.786486 
L 533.814525 151.304922 
L 534.338945 162.485275 
L 534.863365 162.077251 
L 535.387785 171.047153 
L 535.912205 174.017756 
L 536.436625 171.743361 
L 536.961045 171.944322 
L 537.485465 160.649645 
L 538.009885 165.461825 
L 538.534305 163.109595 
L 539.058725 158.444107 
L 539.583145 150.308863 
L 540.107565 162.555651 
L 540.631985 159.290257 
L 541.156405 170.925653 
L 541.680825 169.771268 
L 542.205245 172.988013 
L 542.729665 167.637478 
L 543.254085 87.861242 
L 544.302925 130.8327 
L 544.827345 141.494935 
L 545.351765 139.90418 
L 545.876185 143.623402 
L 546.400605 160.970737 
L 546.925025 147.979749 
L 547.449445 165.887371 
L 547.973865 144.830996 
L 548.498285 139.669083 
L 549.022705 149.568845 
L 549.547125 134.155956 
L 550.071545 146.389282 
L 550.595965 151.879782 
L 551.120385 137.997837 
L 551.644805 147.658208 
L 552.169225 153.438814 
L 552.693645 157.175023 
L 553.218065 154.967704 
L 553.742485 113.343549 
L 554.266905 133.756408 
L 555.315745 155.320595 
L 555.840165 140.509794 
L 556.889004 155.328483 
L 557.413424 158.733338 
L 557.937844 163.947686 
L 558.462264 156.962398 
L 558.986684 123.082683 
L 559.511104 135.525981 
L 560.035524 155.57054 
L 560.559944 148.98812 
L 561.084364 158.530423 
L 561.608784 146.110799 
L 562.133204 156.705037 
L 562.657624 153.535016 
L 563.182044 153.652987 
L 563.706464 159.075202 
L 564.230884 132.077843 
L 564.755304 135.258055 
L 565.279724 134.078631 
L 565.804144 143.73574 
L 566.328564 138.781187 
L 566.852984 156.332241 
L 567.377404 155.139846 
L 567.901824 152.026852 
L 568.426244 152.894373 
L 569.475084 146.561341 
L 569.999504 136.908234 
L 570.523924 145.140033 
L 571.048344 155.668535 
L 571.572764 155.61394 
L 572.097184 137.301336 
L 572.621604 162.194537 
L 573.146024 156.860105 
L 573.670444 160.343166 
L 574.194864 154.99197 
L 574.719284 130.313126 
L 575.243704 121.357322 
L 575.768124 147.849153 
L 576.292544 163.606244 
L 576.816964 134.531313 
L 577.341384 149.961478 
L 577.865804 150.988767 
L 578.390224 154.639787 
L 578.914644 145.308586 
L 579.439064 150.131087 
L 579.963484 136.523859 
L 580.487904 150.373628 
L 581.012324 144.427049 
L 581.536744 150.785554 
L 582.061163 147.246596 
L 582.585583 147.628547 
L 583.110003 140.421434 
L 583.634423 161.187665 
L 584.158843 143.335098 
L 584.683263 161.584572 
L 585.207683 138.344131 
L 585.732103 153.526758 
L 586.256523 149.32531 
L 586.780943 150.877283 
L 587.305363 131.836476 
L 587.829783 146.946069 
L 588.354203 147.432634 
L 588.878623 146.479797 
L 589.403043 140.422793 
L 589.927463 167.048911 
L 590.451883 143.386682 
L 590.976303 142.236674 
L 591.500723 150.909729 
L 592.025143 161.800262 
L 592.549563 156.782919 
L 593.073983 147.555088 
L 593.598403 157.587065 
L 594.122823 162.893879 
L 594.647243 160.599479 
L 595.171663 149.235946 
L 595.696083 151.534947 
L 596.220503 136.549481 
L 596.744923 156.71159 
L 597.269343 138.706887 
L 597.793763 149.139493 
L 598.318183 152.39079 
L 598.842603 131.179763 
L 599.367023 158.695703 
L 599.891443 155.118691 
L 600.415863 161.907736 
L 600.940283 136.372879 
L 601.989123 143.426322 
L 602.513543 154.960847 
L 603.037963 157.896994 
L 603.562383 156.062185 
L 604.086803 135.66917 
L 604.611223 154.296779 
L 605.135643 154.520083 
L 605.660063 159.635086 
L 606.184483 151.977196 
L 606.708903 127.800809 
L 607.233323 135.930654 
L 607.757742 148.263845 
L 608.282162 154.017113 
L 608.806582 155.872776 
L 609.331002 145.627026 
L 609.855422 155.653867 
L 610.379842 160.762367 
L 610.904262 170.420915 
L 611.428682 149.343083 
L 611.953102 132.830491 
L 612.477522 152.556012 
L 613.001942 157.025401 
L 613.526362 154.069282 
L 614.050782 162.121647 
L 614.575202 153.680383 
L 615.099622 155.085774 
L 615.624042 151.214381 
L 616.148462 161.755948 
L 616.672882 158.809257 
L 617.197302 127.720098 
L 617.721722 145.003543 
L 618.246142 133.835685 
L 618.770562 154.064053 
L 619.294982 123.272711 
L 619.819402 145.870333 
L 620.343822 152.237712 
L 620.868242 144.368498 
L 621.392662 149.153159 
L 621.917082 145.555699 
L 622.441502 140.681019 
L 622.965922 138.784292 
L 624.014762 158.332973 
L 624.539182 154.488385 
L 625.063602 142.402855 
L 625.588022 155.291007 
L 626.112442 154.3407 
L 626.636862 162.167674 
L 627.161282 155.786021 
L 628.210122 129.695881 
L 628.734542 146.206185 
L 629.258962 152.378212 
L 629.783382 133.505446 
L 630.832222 152.469276 
L 631.356642 143.218966 
L 631.881062 151.660186 
L 632.405482 150.79782 
L 632.929902 127.049967 
L 633.454321 138.941106 
L 633.978741 134.769775 
L 634.503161 149.044231 
L 635.027581 143.531721 
L 635.552001 146.801947 
L 636.076421 145.129812 
L 636.600841 157.608394 
L 637.125261 155.063275 
L 637.649681 149.723328 
L 638.174101 135.962938 
L 638.698521 130.336371 
L 639.222941 151.425361 
L 639.747361 143.466471 
L 640.271781 138.440871 
L 640.796201 128.362315 
L 641.845041 159.931699 
L 642.369461 149.79016 
L 642.893881 164.812586 
L 643.418301 141.42644 
L 643.942721 134.576029 
L 644.467141 138.0738 
L 644.991561 149.954142 
L 645.515981 157.729829 
L 646.040401 152.797708 
L 646.564821 149.085454 
L 647.089241 148.802563 
L 647.613661 161.39447 
L 648.138081 141.138185 
L 648.662501 140.075898 
L 649.186921 104.365841 
L 649.711341 146.411903 
L 650.235761 140.544117 
L 650.760181 150.113651 
L 651.284601 149.258979 
L 651.809021 132.719014 
L 652.857861 152.839322 
L 653.382281 154.749703 
L 654.955541 122.521541 
L 655.479961 144.354487 
L 656.004381 159.39946 
L 656.528801 157.978199 
L 657.577641 146.53937 
L 658.102061 163.775805 
L 658.626481 158.961938 
L 659.150901 143.263206 
L 659.67532 114.573062 
L 660.19974 139.322004 
L 660.72416 142.185663 
L 661.24858 146.992472 
L 661.773 125.320884 
L 662.29742 142.166087 
L 662.82184 142.10774 
L 663.34626 142.348607 
L 663.87068 150.578847 
L 664.3951 131.739214 
L 664.91952 122.936698 
L 665.96836 148.939689 
L 666.49278 149.595743 
L 667.0172 148.813304 
L 667.54162 127.546003 
L 668.06604 127.353848 
L 668.59046 147.157564 
L 669.11488 151.469587 
L 669.6393 146.110839 
L 670.16372 145.992311 
L 670.68814 89.868841 
L 671.21256 94.332262 
L 671.73698 107.426299 
L 672.2614 85.930191 
L 672.78582 120.412534 
L 673.31024 108.199024 
L 673.83466 122.221447 
L 674.35908 144.142403 
L 675.40792 118.579298 
L 675.93234 102.982318 
L 676.45676 134.989227 
L 676.98118 131.654513 
L 676.98118 131.654513 
" clip-path="url(#p0782f269ef)" style="fill: none; stroke: #008fd5; stroke-opacity: 0.4; stroke-width: 4"/>
   </g>
   <g id="line2d_42">
    <path d="M 409.00257 15.152727 
L 410.05141 21.263755 
L 411.62467 34.162027 
L 412.14909 37.481986 
L 413.19793 45.832356 
L 413.72235 47.421653 
L 414.24677 48.064359 
L 414.77119 49.360244 
L 415.29561 52.361574 
L 415.82003 56.01158 
L 416.34445 57.215284 
L 416.86887 56.311835 
L 417.39329 57.67829 
L 417.91771 60.898567 
L 418.44213 62.01763 
L 418.96655 64.961266 
L 419.49097 67.116328 
L 420.53981 75.207086 
L 421.06423 79.582123 
L 421.58865 82.205072 
L 422.11307 83.378542 
L 422.63749 85.670114 
L 423.16191 87.307761 
L 424.21075 91.487145 
L 424.73517 93.639667 
L 425.25959 95.227866 
L 425.78401 98.743894 
L 426.30843 101.461861 
L 426.832849 102.673305 
L 427.881689 103.431679 
L 428.930529 107.395898 
L 430.503789 112.829331 
L 432.077049 119.816171 
L 432.601469 121.135606 
L 434.174729 126.841633 
L 435.223569 129.317435 
L 436.272409 133.040852 
L 436.796829 135.099177 
L 437.321249 136.256145 
L 437.845669 136.26006 
L 438.370089 136.678206 
L 439.418929 138.316938 
L 439.943349 138.151707 
L 440.467769 139.018255 
L 441.516609 141.465824 
L 442.041029 142.867132 
L 442.565449 143.759138 
L 443.089869 144.24404 
L 444.138709 146.251815 
L 445.187549 147.458656 
L 445.711969 148.141142 
L 447.285229 151.250522 
L 447.809649 151.744232 
L 448.334069 152.004997 
L 448.858489 152.140184 
L 449.382909 151.970231 
L 449.907329 152.150054 
L 450.956169 153.444922 
L 452.005009 154.403131 
L 452.529429 155.30804 
L 453.053848 155.833116 
L 453.578268 155.833795 
L 454.102688 155.275437 
L 454.627108 155.015494 
L 455.151528 155.666119 
L 456.200368 155.60986 
L 456.724788 156.16663 
L 457.773628 157.559302 
L 458.298048 157.535932 
L 458.822468 157.936199 
L 459.346888 157.683251 
L 460.395728 156.58327 
L 460.920148 156.692403 
L 461.444568 157.202686 
L 461.968988 157.16718 
L 463.542248 158.668438 
L 464.066668 159.050798 
L 464.591088 158.84468 
L 465.115508 159.354958 
L 465.639928 159.625362 
L 466.164348 159.669147 
L 466.688768 159.897133 
L 467.213188 160.276978 
L 467.737608 160.131935 
L 468.262028 160.557241 
L 469.310868 160.881789 
L 469.835288 159.275593 
L 470.359708 159.196499 
L 471.408548 159.555571 
L 471.932968 159.999617 
L 472.457388 160.181974 
L 472.981808 160.698638 
L 474.030648 161.386203 
L 474.555068 161.263077 
L 475.079488 160.340331 
L 475.603908 160.561554 
L 476.128328 160.233688 
L 476.652748 160.110897 
L 477.177168 160.134047 
L 477.701588 160.555967 
L 478.226008 160.642834 
L 478.750427 161.236232 
L 479.274847 161.333686 
L 479.799267 161.01441 
L 480.323687 159.533661 
L 480.848107 159.375609 
L 482.421367 159.660295 
L 482.945787 159.195912 
L 483.470207 159.509334 
L 483.994627 159.997944 
L 485.043467 160.510721 
L 485.567887 159.908361 
L 486.092307 160.178895 
L 486.616727 159.84109 
L 487.665567 160.678367 
L 488.189987 160.412955 
L 489.238827 161.207159 
L 490.287667 161.457859 
L 491.336507 160.285805 
L 492.385347 160.924805 
L 492.909767 160.835051 
L 493.434187 160.605657 
L 494.483027 161.353935 
L 495.007447 161.820299 
L 495.531867 161.633285 
L 496.580707 162.081979 
L 497.105127 162.016224 
L 498.153967 162.672232 
L 498.678387 163.075648 
L 499.202807 163.242599 
L 499.727227 163.081137 
L 500.251647 163.459058 
L 500.776067 163.310447 
L 501.300487 162.740142 
L 502.349327 162.540236 
L 502.873747 161.498727 
L 503.398167 161.281102 
L 503.922587 161.190431 
L 505.495846 162.285723 
L 506.020266 162.153986 
L 506.544686 161.53377 
L 507.069106 160.679233 
L 507.593526 160.640724 
L 508.117946 160.880034 
L 508.642366 160.810161 
L 509.166786 160.008495 
L 510.215626 160.292161 
L 511.264466 161.249257 
L 511.788886 161.217215 
L 512.313306 160.778698 
L 512.837726 160.649943 
L 513.362146 160.210366 
L 514.410986 161.05406 
L 514.935406 160.974253 
L 516.508666 162.072007 
L 517.033086 162.020894 
L 517.557506 161.84227 
L 518.081926 161.825747 
L 518.606346 162.124095 
L 519.130766 161.996893 
L 519.655186 162.145572 
L 520.179606 161.942385 
L 520.704026 162.26416 
L 521.752866 162.363045 
L 522.277286 162.587228 
L 523.326126 160.88736 
L 523.850546 160.387209 
L 524.374966 160.20385 
L 524.899386 160.333488 
L 525.423806 160.344856 
L 525.948226 160.895621 
L 526.472646 160.968267 
L 526.997066 160.913917 
L 527.521486 160.546443 
L 528.045906 159.546672 
L 528.570326 159.580209 
L 530.143585 160.129656 
L 530.668005 160.675587 
L 531.192425 160.388541 
L 531.716845 160.858471 
L 532.241265 160.811932 
L 532.765685 161.021682 
L 533.814525 160.144674 
L 534.863365 160.352481 
L 536.961045 162.548253 
L 537.485465 162.453323 
L 538.009885 162.603747 
L 538.534305 162.62904 
L 539.058725 162.419795 
L 539.583145 161.814249 
L 540.107565 161.851319 
L 540.631985 161.723265 
L 542.205245 163.084042 
L 542.729665 163.311715 
L 543.254085 159.53919 
L 543.778505 156.986311 
L 544.302925 155.678631 
L 545.876185 153.686545 
L 546.400605 154.050754 
L 546.925025 153.747204 
L 547.449445 154.354212 
L 547.973865 153.878052 
L 548.498285 153.167604 
L 549.022705 152.987666 
L 549.547125 152.046082 
L 550.071545 151.763243 
L 550.595965 151.76907 
L 551.120385 151.08051 
L 551.644805 150.909397 
L 552.169225 151.035868 
L 553.218065 151.524069 
L 553.742485 149.615044 
L 554.266905 148.822115 
L 554.791325 148.56759 
L 555.315745 148.905241 
L 555.840165 148.485469 
L 556.364584 148.474255 
L 556.889004 148.816966 
L 557.413424 149.312786 
L 557.937844 150.04453 
L 558.462264 150.390423 
L 558.986684 149.025036 
L 559.511104 148.350081 
L 560.035524 148.711107 
L 560.559944 148.724957 
L 561.084364 149.215232 
L 561.608784 149.060012 
L 562.133204 149.442264 
L 563.182044 149.847209 
L 563.706464 150.308609 
L 564.755304 148.690121 
L 565.279724 147.959548 
L 565.804144 147.748358 
L 566.328564 147.299999 
L 567.377404 148.121022 
L 568.950664 148.610427 
L 569.475084 148.507973 
L 569.999504 147.927989 
L 570.523924 147.788591 
L 571.572764 148.554156 
L 572.097184 147.991516 
L 572.621604 148.701667 
L 573.146024 149.109589 
L 573.670444 149.671267 
L 574.194864 149.937303 
L 574.719284 148.956096 
L 575.243704 147.576158 
L 575.768124 147.589809 
L 576.292544 148.390631 
L 576.816964 147.697667 
L 577.865804 147.969753 
L 578.390224 148.303257 
L 578.914644 148.153527 
L 579.439064 148.252407 
L 579.963484 147.66598 
L 580.487904 147.801364 
L 581.012324 147.632646 
L 581.536744 147.790294 
L 582.585583 147.756379 
L 583.110003 147.389632 
L 583.634423 148.079535 
L 584.158843 147.842314 
L 584.683263 148.529428 
L 585.207683 148.020162 
L 585.732103 148.295493 
L 586.780943 148.473497 
L 587.305363 147.641645 
L 588.878623 147.542239 
L 589.403043 147.186266 
L 589.927463 148.179401 
L 590.976303 147.65461 
L 591.500723 147.817366 
L 592.025143 148.516511 
L 592.549563 148.929833 
L 593.073983 148.861098 
L 593.598403 149.297397 
L 594.647243 150.508334 
L 595.171663 150.444715 
L 595.696083 150.499228 
L 596.220503 149.801741 
L 596.744923 150.147233 
L 597.269343 149.575216 
L 597.793763 149.553428 
L 598.318183 149.695296 
L 598.842603 148.769521 
L 599.367023 149.26583 
L 599.891443 149.558472 
L 600.415863 150.175936 
L 600.940283 149.485783 
L 601.464703 149.008557 
L 601.989123 148.729448 
L 602.513543 149.041017 
L 603.562383 149.812733 
L 604.086803 149.105554 
L 605.135643 149.622863 
L 605.660063 150.123474 
L 606.184483 150.216161 
L 606.708903 149.095394 
L 607.233323 148.437158 
L 607.757742 148.428492 
L 608.806582 149.066166 
L 609.331002 148.894211 
L 609.855422 149.232195 
L 610.379842 149.808704 
L 610.904262 150.839315 
L 611.428682 150.764504 
L 611.953102 149.867804 
L 612.477522 150.002214 
L 613.001942 150.353373 
L 613.526362 150.53917 
L 614.050782 151.118293 
L 615.624042 151.42717 
L 616.148462 151.943609 
L 616.672882 152.286892 
L 617.197302 151.058553 
L 617.721722 150.755804 
L 618.246142 149.909798 
L 618.770562 150.117511 
L 619.294982 148.775271 
L 619.819402 148.630023 
L 620.343822 148.810408 
L 620.868242 148.588311 
L 621.392662 148.616553 
L 621.917082 148.463513 
L 622.965922 147.609885 
L 623.490342 147.61301 
L 624.014762 148.149011 
L 624.539182 148.465981 
L 625.063602 148.162826 
L 626.112442 148.810311 
L 626.636862 149.478182 
L 627.161282 149.793574 
L 627.685702 149.472144 
L 628.210122 148.483333 
L 628.734542 148.369477 
L 629.258962 148.569914 
L 629.783382 147.816692 
L 630.307802 147.60682 
L 630.832222 147.849942 
L 631.356642 147.618395 
L 632.405482 147.969352 
L 632.929902 146.923384 
L 633.454321 146.524269 
L 633.978741 145.936544 
L 634.503161 146.091932 
L 635.027581 145.963925 
L 636.076421 145.962025 
L 637.125261 146.970296 
L 637.649681 147.107947 
L 638.174101 146.550696 
L 638.698521 145.739977 
L 639.222941 146.024246 
L 639.747361 145.896359 
L 640.271781 145.523583 
L 640.796201 144.665519 
L 641.320621 144.634177 
L 641.845041 145.399053 
L 642.369461 145.618605 
L 642.893881 146.578305 
L 643.418301 146.320711 
L 643.942721 145.733475 
L 644.467141 145.35049 
L 644.991561 145.580675 
L 645.515981 146.188132 
L 646.040401 146.518612 
L 647.089241 146.754739 
L 647.613661 147.486725 
L 648.662501 146.814628 
L 649.186921 144.692187 
L 649.711341 144.778174 
L 650.235761 144.566471 
L 651.284601 145.064586 
L 651.809021 144.44731 
L 652.333441 144.374251 
L 653.382281 145.295116 
L 653.906701 145.236193 
L 654.431121 144.704971 
L 654.955541 143.595797 
L 655.479961 143.633735 
L 656.528801 145.099832 
L 657.053221 145.462976 
L 657.577641 145.5168 
L 658.102061 146.429752 
L 658.626481 147.056364 
L 659.150901 146.866708 
L 659.67532 145.252026 
L 660.19974 144.955526 
L 660.72416 144.817033 
L 661.24858 144.925805 
L 661.773 143.945556 
L 663.34626 143.698115 
L 663.87068 144.042153 
L 664.3951 143.427003 
L 664.91952 142.402486 
L 665.44394 142.14692 
L 667.0172 143.140587 
L 668.06604 141.610506 
L 668.59046 141.88786 
L 669.11488 142.366945 
L 670.16372 142.726047 
L 671.21256 137.795641 
L 671.73698 136.277175 
L 672.2614 133.759826 
L 672.78582 133.092464 
L 673.31024 131.84779 
L 673.83466 131.366474 
L 674.35908 132.005269 
L 674.8835 131.98577 
L 675.40792 131.315447 
L 675.93234 129.89879 
L 676.45676 130.153315 
L 676.98118 130.228372 
L 676.98118 130.228372 
" clip-path="url(#p0782f269ef)" style="fill: none; stroke: #008fd5; stroke-width: 4"/>
   </g>
   <g id="patch_9">
    <path d="M 395.60364 182.16 
L 395.60364 7.2 
" style="fill: none; stroke: #f0f0f0; stroke-width: 3; stroke-linejoin: miter; stroke-linecap: square"/>
   </g>
   <g id="patch_10">
    <path d="M 690.38011 182.16 
L 690.38011 7.2 
" style="fill: none; stroke: #f0f0f0; stroke-width: 3; stroke-linejoin: miter; stroke-linecap: square"/>
   </g>
   <g id="patch_11">
    <path d="M 395.60364 182.16 
L 690.38011 182.16 
" style="fill: none; stroke: #f0f0f0; stroke-width: 3; stroke-linejoin: miter; stroke-linecap: square"/>
   </g>
   <g id="patch_12">
    <path d="M 395.60364 7.2 
L 690.38011 7.2 
" style="fill: none; stroke: #f0f0f0; stroke-width: 3; stroke-linejoin: miter; stroke-linecap: square"/>
   </g>
   <g id="legend_2">
    <g id="patch_13">
     <path d="M 565.425735 38.949375 
L 680.58011 38.949375 
Q 683.38011 38.949375 683.38011 36.149375 
L 683.38011 17 
Q 683.38011 14.2 680.58011 14.2 
L 565.425735 14.2 
Q 562.625735 14.2 562.625735 17 
L 562.625735 36.149375 
Q 562.625735 38.949375 565.425735 38.949375 
z
" style="fill: #f0f0f0; opacity: 0.8; stroke: #cccccc; stroke-width: 0.5; stroke-linejoin: miter"/>
    </g>
    <g id="line2d_43">
     <path d="M 568.225735 25.537813 
L 582.225735 25.537813 
L 596.225735 25.537813 
" style="fill: none; stroke: #008fd5; stroke-width: 4"/>
    </g>
    <g id="text_21">
     <!-- perplexity -->
     <g transform="translate(607.425735 30.437813) scale(0.14 -0.14)">
      <defs>
       <path id="DejaVuSans-70" d="M 1159 525 
L 1159 -1331 
L 581 -1331 
L 581 3500 
L 1159 3500 
L 1159 2969 
Q 1341 3281 1617 3432 
Q 1894 3584 2278 3584 
Q 2916 3584 3314 3078 
Q 3713 2572 3713 1747 
Q 3713 922 3314 415 
Q 2916 -91 2278 -91 
Q 1894 -91 1617 61 
Q 1341 213 1159 525 
z
M 3116 1747 
Q 3116 2381 2855 2742 
Q 2594 3103 2138 3103 
Q 1681 3103 1420 2742 
Q 1159 2381 1159 1747 
Q 1159 1113 1420 752 
Q 1681 391 2138 391 
Q 2594 391 2855 752 
Q 3116 1113 3116 1747 
z
" transform="scale(0.015625)"/>
       <path id="DejaVuSans-65" d="M 3597 1894 
L 3597 1613 
L 953 1613 
Q 991 1019 1311 708 
Q 1631 397 2203 397 
Q 2534 397 2845 478 
Q 3156 559 3463 722 
L 3463 178 
Q 3153 47 2828 -22 
Q 2503 -91 2169 -91 
Q 1331 -91 842 396 
Q 353 884 353 1716 
Q 353 2575 817 3079 
Q 1281 3584 2069 3584 
Q 2775 3584 3186 3129 
Q 3597 2675 3597 1894 
z
M 3022 2063 
Q 3016 2534 2758 2815 
Q 2500 3097 2075 3097 
Q 1594 3097 1305 2825 
Q 1016 2553 972 2059 
L 3022 2063 
z
" transform="scale(0.015625)"/>
       <path id="DejaVuSans-6c" d="M 603 4863 
L 1178 4863 
L 1178 0 
L 603 0 
L 603 4863 
z
" transform="scale(0.015625)"/>
       <path id="DejaVuSans-78" d="M 3513 3500 
L 2247 1797 
L 3578 0 
L 2900 0 
L 1881 1375 
L 863 0 
L 184 0 
L 1544 1831 
L 300 3500 
L 978 3500 
L 1906 2253 
L 2834 3500 
L 3513 3500 
z
" transform="scale(0.015625)"/>
       <path id="DejaVuSans-69" d="M 603 3500 
L 1178 3500 
L 1178 0 
L 603 0 
L 603 3500 
z
M 603 4863 
L 1178 4863 
L 1178 4134 
L 603 4134 
L 603 4863 
z
" transform="scale(0.015625)"/>
       <path id="DejaVuSans-74" d="M 1172 4494 
L 1172 3500 
L 2356 3500 
L 2356 3053 
L 1172 3053 
L 1172 1153 
Q 1172 725 1289 603 
Q 1406 481 1766 481 
L 2356 481 
L 2356 0 
L 1766 0 
Q 1100 0 847 248 
Q 594 497 594 1153 
L 594 3053 
L 172 3053 
L 172 3500 
L 594 3500 
L 594 4494 
L 1172 4494 
z
" transform="scale(0.015625)"/>
      </defs>
      <use xlink:href="#DejaVuSans-70"/>
      <use xlink:href="#DejaVuSans-65" x="63.476562"/>
      <use xlink:href="#DejaVuSans-72" x="125"/>
      <use xlink:href="#DejaVuSans-70" x="166.113281"/>
      <use xlink:href="#DejaVuSans-6c" x="229.589844"/>
      <use xlink:href="#DejaVuSans-65" x="257.373047"/>
      <use xlink:href="#DejaVuSans-78" x="317.146484"/>
      <use xlink:href="#DejaVuSans-69" x="376.326172"/>
      <use xlink:href="#DejaVuSans-74" x="404.109375"/>
      <use xlink:href="#DejaVuSans-79" x="443.318359"/>
     </g>
    </g>
   </g>
  </g>
  <g id="axes_3">
   <g id="patch_14">
    <path d="M 749.335404 182.16 
L 1044.111875 182.16 
L 1044.111875 7.2 
L 749.335404 7.2 
L 749.335404 182.16 
z
" style="fill: none"/>
   </g>
   <g id="matplotlib.axis_5">
    <g id="xtick_13">
     <g id="line2d_44">
      <path d="M 762.734335 182.16 
L 762.734335 7.2 
" clip-path="url(#pd0c3ff0a68)" style="fill: none; stroke: #cbcbcb"/>
     </g>
     <g id="line2d_45"/>
     <g id="text_22">
      <!-- 0 -->
      <g transform="translate(758.280585 196.297813) scale(0.14 -0.14)">
       <use xlink:href="#DejaVuSans-30"/>
      </g>
     </g>
    </g>
    <g id="xtick_14">
     <g id="line2d_46">
      <path d="M 815.176333 182.16 
L 815.176333 7.2 
" clip-path="url(#pd0c3ff0a68)" style="fill: none; stroke: #cbcbcb"/>
     </g>
     <g id="line2d_47"/>
     <g id="text_23">
      <!-- 100 -->
      <g transform="translate(801.815083 196.297813) scale(0.14 -0.14)">
       <use xlink:href="#DejaVuSans-31"/>
       <use xlink:href="#DejaVuSans-30" x="63.623047"/>
       <use xlink:href="#DejaVuSans-30" x="127.246094"/>
      </g>
     </g>
    </g>
    <g id="xtick_15">
     <g id="line2d_48">
      <path d="M 867.618331 182.16 
L 867.618331 7.2 
" clip-path="url(#pd0c3ff0a68)" style="fill: none; stroke: #cbcbcb"/>
     </g>
     <g id="line2d_49"/>
     <g id="text_24">
      <!-- 200 -->
      <g transform="translate(854.257081 196.297813) scale(0.14 -0.14)">
       <use xlink:href="#DejaVuSans-32"/>
       <use xlink:href="#DejaVuSans-30" x="63.623047"/>
       <use xlink:href="#DejaVuSans-30" x="127.246094"/>
      </g>
     </g>
    </g>
    <g id="xtick_16">
     <g id="line2d_50">
      <path d="M 920.060329 182.16 
L 920.060329 7.2 
" clip-path="url(#pd0c3ff0a68)" style="fill: none; stroke: #cbcbcb"/>
     </g>
     <g id="line2d_51"/>
     <g id="text_25">
      <!-- 300 -->
      <g transform="translate(906.699079 196.297813) scale(0.14 -0.14)">
       <use xlink:href="#DejaVuSans-33"/>
       <use xlink:href="#DejaVuSans-30" x="63.623047"/>
       <use xlink:href="#DejaVuSans-30" x="127.246094"/>
      </g>
     </g>
    </g>
    <g id="xtick_17">
     <g id="line2d_52">
      <path d="M 972.502327 182.16 
L 972.502327 7.2 
" clip-path="url(#pd0c3ff0a68)" style="fill: none; stroke: #cbcbcb"/>
     </g>
     <g id="line2d_53"/>
     <g id="text_26">
      <!-- 400 -->
      <g transform="translate(959.141077 196.297813) scale(0.14 -0.14)">
       <use xlink:href="#DejaVuSans-34"/>
       <use xlink:href="#DejaVuSans-30" x="63.623047"/>
       <use xlink:href="#DejaVuSans-30" x="127.246094"/>
      </g>
     </g>
    </g>
    <g id="xtick_18">
     <g id="line2d_54">
      <path d="M 1024.944325 182.16 
L 1024.944325 7.2 
" clip-path="url(#pd0c3ff0a68)" style="fill: none; stroke: #cbcbcb"/>
     </g>
     <g id="line2d_55"/>
     <g id="text_27">
      <!-- 500 -->
      <g transform="translate(1011.583075 196.297813) scale(0.14 -0.14)">
       <use xlink:href="#DejaVuSans-35"/>
       <use xlink:href="#DejaVuSans-30" x="63.623047"/>
       <use xlink:href="#DejaVuSans-30" x="127.246094"/>
      </g>
     </g>
    </g>
   </g>
   <g id="matplotlib.axis_6">
    <g id="ytick_8">
     <g id="line2d_56">
      <path d="M 749.335404 173.518121 
L 1044.111875 173.518121 
" clip-path="url(#pd0c3ff0a68)" style="fill: none; stroke: #cbcbcb"/>
     </g>
     <g id="line2d_57"/>
     <g id="text_28">
      <!-- 2800 -->
      <g transform="translate(710.205404 178.837028) scale(0.14 -0.14)">
       <use xlink:href="#DejaVuSans-32"/>
       <use xlink:href="#DejaVuSans-38" x="63.623047"/>
       <use xlink:href="#DejaVuSans-30" x="127.246094"/>
       <use xlink:href="#DejaVuSans-30" x="190.869141"/>
      </g>
     </g>
    </g>
    <g id="ytick_9">
     <g id="line2d_58">
      <path d="M 749.335404 136.849321 
L 1044.111875 136.849321 
" clip-path="url(#pd0c3ff0a68)" style="fill: none; stroke: #cbcbcb"/>
     </g>
     <g id="line2d_59"/>
     <g id="text_29">
      <!-- 3000 -->
      <g transform="translate(710.205404 142.168228) scale(0.14 -0.14)">
       <use xlink:href="#DejaVuSans-33"/>
       <use xlink:href="#DejaVuSans-30" x="63.623047"/>
       <use xlink:href="#DejaVuSans-30" x="127.246094"/>
       <use xlink:href="#DejaVuSans-30" x="190.869141"/>
      </g>
     </g>
    </g>
    <g id="ytick_10">
     <g id="line2d_60">
      <path d="M 749.335404 100.180521 
L 1044.111875 100.180521 
" clip-path="url(#pd0c3ff0a68)" style="fill: none; stroke: #cbcbcb"/>
     </g>
     <g id="line2d_61"/>
     <g id="text_30">
      <!-- 3200 -->
      <g transform="translate(710.205404 105.499428) scale(0.14 -0.14)">
       <use xlink:href="#DejaVuSans-33"/>
       <use xlink:href="#DejaVuSans-32" x="63.623047"/>
       <use xlink:href="#DejaVuSans-30" x="127.246094"/>
       <use xlink:href="#DejaVuSans-30" x="190.869141"/>
      </g>
     </g>
    </g>
    <g id="ytick_11">
     <g id="line2d_62">
      <path d="M 749.335404 63.511721 
L 1044.111875 63.511721 
" clip-path="url(#pd0c3ff0a68)" style="fill: none; stroke: #cbcbcb"/>
     </g>
     <g id="line2d_63"/>
     <g id="text_31">
      <!-- 3400 -->
      <g transform="translate(710.205404 68.830628) scale(0.14 -0.14)">
       <use xlink:href="#DejaVuSans-33"/>
       <use xlink:href="#DejaVuSans-34" x="63.623047"/>
       <use xlink:href="#DejaVuSans-30" x="127.246094"/>
       <use xlink:href="#DejaVuSans-30" x="190.869141"/>
      </g>
     </g>
    </g>
    <g id="ytick_12">
     <g id="line2d_64">
      <path d="M 749.335404 26.842922 
L 1044.111875 26.842922 
" clip-path="url(#pd0c3ff0a68)" style="fill: none; stroke: #cbcbcb"/>
     </g>
     <g id="line2d_65"/>
     <g id="text_32">
      <!-- 3600 -->
      <g transform="translate(710.205404 32.161828) scale(0.14 -0.14)">
       <use xlink:href="#DejaVuSans-33"/>
       <use xlink:href="#DejaVuSans-36" x="63.623047"/>
       <use xlink:href="#DejaVuSans-30" x="127.246094"/>
       <use xlink:href="#DejaVuSans-30" x="190.869141"/>
      </g>
     </g>
    </g>
   </g>
   <g id="line2d_66">
    <path d="M 762.734335 111.618528 
L 764.307595 111.618528 
L 764.832015 113.06845 
L 768.502955 131.142739 
L 769.027375 131.528854 
L 772.698315 127.150486 
L 773.747154 126.88863 
L 776.893674 126.418811 
L 778.466934 133.459203 
L 781.089034 145.246978 
L 784.759974 131.829339 
L 785.284394 130.40162 
L 788.955334 136.33671 
L 789.479754 136.460297 
L 793.675114 124.200421 
L 797.346054 117.743722 
L 797.870474 118.045102 
L 801.541413 127.273805 
L 802.065833 127.853245 
L 805.736773 129.352897 
L 806.785613 131.314311 
L 809.932133 137.731485 
L 810.980973 137.672668 
L 814.127493 137.199582 
L 817.798433 135.647827 
L 818.322853 135.56569 
L 821.993793 140.060303 
L 822.518213 140.043786 
L 826.189152 128.33985 
L 826.713572 127.603386 
L 830.384512 131.962953 
L 830.908932 132.300904 
L 834.579872 132.903665 
L 835.104292 131.892632 
L 838.775232 120.749471 
L 839.299652 121.5922 
L 842.970592 132.384429 
L 843.495012 131.505981 
L 847.165952 123.526712 
L 851.361311 132.370732 
L 855.032251 136.959614 
L 855.556671 137.102538 
L 859.227611 128.36241 
L 859.752031 128.173113 
L 863.422971 138.334023 
L 863.947391 138.340245 
L 867.618331 128.869963 
L 868.142751 128.543964 
L 871.813691 130.332776 
L 872.862531 131.859285 
L 876.009051 136.851157 
L 877.05789 133.780413 
L 880.20441 123.724783 
L 884.39977 137.348056 
L 888.07071 137.912188 
L 888.59513 138.127671 
L 892.26607 142.411233 
L 892.79049 143.41215 
L 896.46143 154.919269 
L 896.98585 154.955839 
L 900.65679 143.96066 
L 901.18121 144.135097 
L 904.852149 152.746446 
L 905.376569 151.743873 
L 909.047509 139.408975 
L 909.571929 139.169097 
L 913.242869 139.093003 
L 916.913809 142.68052 
L 917.438229 142.92098 
L 921.109169 129.973339 
L 921.633589 128.897223 
L 925.304529 138.657337 
L 925.828949 139.204862 
L 929.499888 132.569385 
L 930.024308 132.567371 
L 934.744088 141.363988 
L 937.890608 146.496815 
L 938.415028 146.737498 
L 942.085968 146.836467 
L 943.134808 148.976659 
L 946.281328 155.89682 
L 949.427848 157.311872 
L 950.476688 157.732409 
L 954.147627 156.274833 
L 954.672047 155.84794 
L 958.342987 147.528169 
L 958.867407 146.615702 
L 962.538347 143.878299 
L 963.062767 144.041366 
L 966.733707 149.570199 
L 967.258127 150.068352 
L 970.929067 152.150354 
L 971.977907 153.871487 
L 975.124427 159.595481 
L 975.648847 159.681155 
L 979.319787 159.109727 
L 983.515146 159.546198 
L 988.234926 162.704809 
L 991.905866 165.682717 
L 996.101226 165.903974 
L 999.772166 164.575088 
L 1000.296586 164.990835 
L 1003.967526 171.00954 
L 1004.491946 171.28948 
L 1008.162885 171.509305 
L 1009.736145 172.486453 
L 1012.358245 174.207273 
L 1014.455925 170.464029 
L 1016.553605 166.725128 
L 1020.748965 167.633835 
L 1024.419905 167.125387 
L 1024.944325 166.865545 
L 1028.615265 162.202045 
L 1029.139685 161.827927 
L 1030.712945 161.827927 
L 1030.712945 161.827927 
" clip-path="url(#pd0c3ff0a68)" style="fill: none; stroke: #008fd5; stroke-width: 4"/>
   </g>
   <g id="line2d_67">
    <path d="M 762.734335 111.618528 
L 764.307595 111.618528 
L 764.832015 113.06845 
L 768.502955 131.142739 
L 769.027375 131.528854 
L 772.698315 127.150486 
L 773.747154 126.88863 
L 776.893674 126.418811 
L 778.466934 133.459203 
L 781.089034 145.246978 
L 784.759974 131.829339 
L 785.284394 130.40162 
L 788.955334 136.33671 
L 789.479754 136.460297 
L 793.675114 124.200421 
L 797.346054 117.743722 
L 797.870474 118.045102 
L 801.541413 127.273805 
L 802.065833 127.853245 
L 805.736773 129.352897 
L 806.785613 131.314311 
L 809.932133 137.731485 
L 810.980973 137.672668 
L 814.127493 137.199582 
L 817.798433 135.647827 
L 818.322853 135.56569 
L 821.993793 140.060303 
L 822.518213 140.043786 
L 826.189152 128.33985 
L 826.713572 127.603386 
L 830.384512 131.962953 
L 830.908932 132.300904 
L 834.579872 132.903665 
L 835.104292 131.892632 
L 838.775232 120.749471 
L 839.299652 121.5922 
L 842.970592 132.384429 
L 843.495012 131.505981 
L 847.165952 123.526712 
L 851.361311 132.370732 
L 855.032251 136.959614 
L 855.556671 137.102538 
L 859.227611 128.36241 
L 859.752031 128.173113 
L 863.422971 138.334023 
L 863.947391 138.340245 
L 867.618331 128.869963 
L 868.142751 128.543964 
L 871.813691 130.332776 
L 872.862531 131.859285 
L 876.009051 136.851157 
L 877.05789 133.780413 
L 880.20441 123.724783 
L 884.39977 137.348056 
L 888.07071 137.912188 
L 888.59513 138.127671 
L 892.26607 142.411233 
L 892.79049 143.41215 
L 896.46143 154.919269 
L 896.98585 154.955839 
L 900.65679 139.934299 
L 901.18121 139.533503 
L 904.852149 144.11849 
L 905.376569 142.540729 
L 909.047509 126.179426 
L 909.571929 125.36436 
L 913.242869 121.261903 
L 916.913809 120.823059 
L 917.438229 120.488287 
L 921.109169 103.514285 
L 921.633589 101.86298 
L 925.304529 107.596688 
L 925.828949 107.569025 
L 929.499888 96.907186 
L 930.024308 96.329984 
L 934.219668 99.669522 
L 937.890608 101.631473 
L 938.415028 101.296968 
L 942.085968 97.36953 
L 942.610388 97.781204 
L 946.281328 101.828335 
L 949.952268 99.449249 
L 950.476688 99.062329 
L 954.147627 93.578392 
L 954.672047 92.576266 
L 958.867407 78.742478 
L 962.538347 71.978669 
L 963.062767 71.566548 
L 966.733707 73.06902 
L 967.258127 72.991985 
L 970.929067 71.047581 
L 971.453487 71.239519 
L 975.124427 73.891158 
L 975.648847 73.401644 
L 979.844206 68.275666 
L 983.515146 64.638732 
L 987.710506 62.75122 
L 991.381446 61.83638 
L 991.905866 61.572107 
L 996.101226 57.19177 
L 999.772166 51.836522 
L 1000.296586 51.677036 
L 1003.967526 53.66938 
L 1004.491946 53.374132 
L 1008.162885 49.567551 
L 1009.736145 48.819135 
L 1012.358245 47.663969 
L 1014.980345 40.09145 
L 1016.553605 35.58023 
L 1020.748965 31.887388 
L 1024.419905 27.352534 
L 1024.944325 26.517504 
L 1028.615265 17.827643 
L 1029.139685 16.878336 
L 1030.712945 15.152727 
L 1030.712945 15.152727 
" clip-path="url(#pd0c3ff0a68)" style="fill: none; stroke: #fc4f30; stroke-width: 4"/>
   </g>
   <g id="line2d_68">
    <path d="M 762.734335 102.896439 
L 764.307595 102.896439 
L 764.832015 105.392397 
L 768.502955 136.506357 
L 769.027375 136.580169 
L 772.698315 123.001478 
L 773.747154 120.820374 
L 776.893674 114.819081 
L 778.466934 125.052415 
L 781.089034 142.196332 
L 784.759974 110.558794 
L 785.284394 107.328252 
L 788.955334 126.694812 
L 789.479754 127.787983 
L 793.150694 108.106748 
L 793.675114 106.114806 
L 797.346054 99.995476 
L 797.870474 100.832879 
L 801.541413 116.650954 
L 802.065833 116.642628 
L 805.736773 108.736948 
L 806.261193 110.597513 
L 809.932133 129.107603 
L 810.456553 128.66679 
L 814.127493 123.626754 
L 818.322853 126.563929 
L 821.993793 130.838181 
L 822.518213 130.559584 
L 826.189152 112.963707 
L 826.713572 112.036245 
L 830.384512 121.676352 
L 830.908932 122.035296 
L 834.579872 118.247023 
L 835.104292 117.108195 
L 838.775232 106.921323 
L 839.299652 106.82334 
L 842.970592 108.865548 
L 844.019432 107.005475 
L 847.165952 101.146614 
L 851.361311 129.899483 
L 855.032251 132.389085 
L 855.556671 132.515537 
L 859.227611 129.046011 
L 859.752031 129.744786 
L 863.422971 147.587121 
L 863.947391 147.037268 
L 867.618331 122.792351 
L 868.142751 121.856026 
L 871.813691 125.319329 
L 872.338111 125.417984 
L 876.009051 125.240235 
L 877.05789 113.755587 
L 880.20441 77.283962 
L 884.39977 113.574212 
L 888.07071 102.390363 
L 888.59513 101.775158 
L 892.26607 117.682712 
L 892.79049 119.440146 
L 896.46143 125.78221 
L 896.98585 125.170586 
L 900.65679 110.266187 
L 901.18121 110.837705 
L 904.852149 126.2745 
L 905.376569 123.196505 
L 909.047509 89.068693 
L 909.571929 90.157612 
L 913.242869 104.061497 
L 916.913809 102.954405 
L 917.438229 102.585479 
L 921.109169 88.817312 
L 921.633589 88.634818 
L 925.304529 127.24753 
L 925.828949 130.282419 
L 929.499888 120.855064 
L 930.024308 120.421547 
L 934.744088 125.115753 
L 937.890608 127.798233 
L 938.415028 123.4858 
L 942.085968 81.023938 
L 942.610388 84.325563 
L 946.281328 118.661158 
L 947.330168 119.956786 
L 950.476688 123.467403 
L 954.147627 122.186725 
L 954.672047 122.226742 
L 958.342987 127.942053 
L 958.867407 126.475211 
L 962.538347 86.016839 
L 963.062767 85.065698 
L 966.733707 116.640972 
L 967.258127 117.859162 
L 972.502327 107.574352 
L 975.124427 102.696622 
L 975.648847 103.082334 
L 979.319787 107.617994 
L 981.941886 81.525851 
L 983.515146 66.213315 
L 987.186086 69.008684 
L 987.710506 69.691211 
L 991.381446 82.031166 
L 991.905866 83.317036 
L 995.576806 85.562687 
L 996.101226 86.149245 
L 999.772166 92.493726 
L 1000.296586 92.125919 
L 1003.967526 83.01015 
L 1004.491946 86.55125 
L 1008.162885 125.869137 
L 1008.687305 120.663036 
L 1012.358245 67.935119 
L 1013.407085 74.33609 
L 1016.553605 94.901682 
L 1020.748965 74.887241 
L 1024.419905 72.357353 
L 1024.944325 72.220203 
L 1028.615265 74.668267 
L 1029.139685 74.864636 
L 1030.712945 74.864636 
L 1030.712945 74.864636 
" clip-path="url(#pd0c3ff0a68)" style="fill: none; stroke: #e5ae38; stroke-width: 4"/>
   </g>
   <g id="patch_15">
    <path d="M 749.335404 182.16 
L 749.335404 7.2 
" style="fill: none; stroke: #f0f0f0; stroke-width: 3; stroke-linejoin: miter; stroke-linecap: square"/>
   </g>
   <g id="patch_16">
    <path d="M 1044.111875 182.16 
L 1044.111875 7.2 
" style="fill: none; stroke: #f0f0f0; stroke-width: 3; stroke-linejoin: miter; stroke-linecap: square"/>
   </g>
   <g id="patch_17">
    <path d="M 749.335404 182.16 
L 1044.111875 182.16 
" style="fill: none; stroke: #f0f0f0; stroke-width: 3; stroke-linejoin: miter; stroke-linecap: square"/>
   </g>
   <g id="patch_18">
    <path d="M 749.335404 7.2 
L 1044.111875 7.2 
" style="fill: none; stroke: #f0f0f0; stroke-width: 3; stroke-linejoin: miter; stroke-linecap: square"/>
   </g>
   <g id="legend_3">
    <g id="patch_19">
     <path d="M 759.135404 80.048125 
L 908.410404 80.048125 
Q 911.210404 80.048125 911.210404 77.248125 
L 911.210404 17 
Q 911.210404 14.2 908.410404 14.2 
L 759.135404 14.2 
Q 756.335404 14.2 756.335404 17 
L 756.335404 77.248125 
Q 756.335404 80.048125 759.135404 80.048125 
z
" style="fill: #f0f0f0; opacity: 0.8; stroke: #cccccc; stroke-width: 0.5; stroke-linejoin: miter"/>
    </g>
    <g id="line2d_69">
     <path d="M 761.935404 25.537813 
L 775.935404 25.537813 
L 789.935404 25.537813 
" style="fill: none; stroke: #008fd5; stroke-width: 4"/>
    </g>
    <g id="text_33">
     <!-- target centroid -->
     <g transform="translate(801.135404 30.437813) scale(0.14 -0.14)">
      <defs>
       <path id="DejaVuSans-67" d="M 2906 1791 
Q 2906 2416 2648 2759 
Q 2391 3103 1925 3103 
Q 1463 3103 1205 2759 
Q 947 2416 947 1791 
Q 947 1169 1205 825 
Q 1463 481 1925 481 
Q 2391 481 2648 825 
Q 2906 1169 2906 1791 
z
M 3481 434 
Q 3481 -459 3084 -895 
Q 2688 -1331 1869 -1331 
Q 1566 -1331 1297 -1286 
Q 1028 -1241 775 -1147 
L 775 -588 
Q 1028 -725 1275 -790 
Q 1522 -856 1778 -856 
Q 2344 -856 2625 -561 
Q 2906 -266 2906 331 
L 2906 616 
Q 2728 306 2450 153 
Q 2172 0 1784 0 
Q 1141 0 747 490 
Q 353 981 353 1791 
Q 353 2603 747 3093 
Q 1141 3584 1784 3584 
Q 2172 3584 2450 3431 
Q 2728 3278 2906 2969 
L 2906 3500 
L 3481 3500 
L 3481 434 
z
" transform="scale(0.015625)"/>
       <path id="DejaVuSans-20" transform="scale(0.015625)"/>
       <path id="DejaVuSans-6e" d="M 3513 2113 
L 3513 0 
L 2938 0 
L 2938 2094 
Q 2938 2591 2744 2837 
Q 2550 3084 2163 3084 
Q 1697 3084 1428 2787 
Q 1159 2491 1159 1978 
L 1159 0 
L 581 0 
L 581 3500 
L 1159 3500 
L 1159 2956 
Q 1366 3272 1645 3428 
Q 1925 3584 2291 3584 
Q 2894 3584 3203 3211 
Q 3513 2838 3513 2113 
z
" transform="scale(0.015625)"/>
       <path id="DejaVuSans-6f" d="M 1959 3097 
Q 1497 3097 1228 2736 
Q 959 2375 959 1747 
Q 959 1119 1226 758 
Q 1494 397 1959 397 
Q 2419 397 2687 759 
Q 2956 1122 2956 1747 
Q 2956 2369 2687 2733 
Q 2419 3097 1959 3097 
z
M 1959 3584 
Q 2709 3584 3137 3096 
Q 3566 2609 3566 1747 
Q 3566 888 3137 398 
Q 2709 -91 1959 -91 
Q 1206 -91 779 398 
Q 353 888 353 1747 
Q 353 2609 779 3096 
Q 1206 3584 1959 3584 
z
" transform="scale(0.015625)"/>
       <path id="DejaVuSans-64" d="M 2906 2969 
L 2906 4863 
L 3481 4863 
L 3481 0 
L 2906 0 
L 2906 525 
Q 2725 213 2448 61 
Q 2172 -91 1784 -91 
Q 1150 -91 751 415 
Q 353 922 353 1747 
Q 353 2572 751 3078 
Q 1150 3584 1784 3584 
Q 2172 3584 2448 3432 
Q 2725 3281 2906 2969 
z
M 947 1747 
Q 947 1113 1208 752 
Q 1469 391 1925 391 
Q 2381 391 2643 752 
Q 2906 1113 2906 1747 
Q 2906 2381 2643 2742 
Q 2381 3103 1925 3103 
Q 1469 3103 1208 2742 
Q 947 2381 947 1747 
z
" transform="scale(0.015625)"/>
      </defs>
      <use xlink:href="#DejaVuSans-74"/>
      <use xlink:href="#DejaVuSans-61" x="39.208984"/>
      <use xlink:href="#DejaVuSans-72" x="100.488281"/>
      <use xlink:href="#DejaVuSans-67" x="139.851562"/>
      <use xlink:href="#DejaVuSans-65" x="203.328125"/>
      <use xlink:href="#DejaVuSans-74" x="264.851562"/>
      <use xlink:href="#DejaVuSans-20" x="304.060547"/>
      <use xlink:href="#DejaVuSans-63" x="335.847656"/>
      <use xlink:href="#DejaVuSans-65" x="390.828125"/>
      <use xlink:href="#DejaVuSans-6e" x="452.351562"/>
      <use xlink:href="#DejaVuSans-74" x="515.730469"/>
      <use xlink:href="#DejaVuSans-72" x="554.939453"/>
      <use xlink:href="#DejaVuSans-6f" x="593.802734"/>
      <use xlink:href="#DejaVuSans-69" x="654.984375"/>
      <use xlink:href="#DejaVuSans-64" x="682.767578"/>
     </g>
    </g>
    <g id="line2d_70">
     <path d="M 761.935404 46.087188 
L 775.935404 46.087188 
L 789.935404 46.087188 
" style="fill: none; stroke: #fc4f30; stroke-width: 4"/>
    </g>
    <g id="text_34">
     <!-- biased target -->
     <g transform="translate(801.135404 50.987188) scale(0.14 -0.14)">
      <defs>
       <path id="DejaVuSans-62" d="M 3116 1747 
Q 3116 2381 2855 2742 
Q 2594 3103 2138 3103 
Q 1681 3103 1420 2742 
Q 1159 2381 1159 1747 
Q 1159 1113 1420 752 
Q 1681 391 2138 391 
Q 2594 391 2855 752 
Q 3116 1113 3116 1747 
z
M 1159 2969 
Q 1341 3281 1617 3432 
Q 1894 3584 2278 3584 
Q 2916 3584 3314 3078 
Q 3713 2572 3713 1747 
Q 3713 922 3314 415 
Q 2916 -91 2278 -91 
Q 1894 -91 1617 61 
Q 1341 213 1159 525 
L 1159 0 
L 581 0 
L 581 4863 
L 1159 4863 
L 1159 2969 
z
" transform="scale(0.015625)"/>
       <path id="DejaVuSans-73" d="M 2834 3397 
L 2834 2853 
Q 2591 2978 2328 3040 
Q 2066 3103 1784 3103 
Q 1356 3103 1142 2972 
Q 928 2841 928 2578 
Q 928 2378 1081 2264 
Q 1234 2150 1697 2047 
L 1894 2003 
Q 2506 1872 2764 1633 
Q 3022 1394 3022 966 
Q 3022 478 2636 193 
Q 2250 -91 1575 -91 
Q 1294 -91 989 -36 
Q 684 19 347 128 
L 347 722 
Q 666 556 975 473 
Q 1284 391 1588 391 
Q 1994 391 2212 530 
Q 2431 669 2431 922 
Q 2431 1156 2273 1281 
Q 2116 1406 1581 1522 
L 1381 1569 
Q 847 1681 609 1914 
Q 372 2147 372 2553 
Q 372 3047 722 3315 
Q 1072 3584 1716 3584 
Q 2034 3584 2315 3537 
Q 2597 3491 2834 3397 
z
" transform="scale(0.015625)"/>
      </defs>
      <use xlink:href="#DejaVuSans-62"/>
      <use xlink:href="#DejaVuSans-69" x="63.476562"/>
      <use xlink:href="#DejaVuSans-61" x="91.259766"/>
      <use xlink:href="#DejaVuSans-73" x="152.539062"/>
      <use xlink:href="#DejaVuSans-65" x="204.638672"/>
      <use xlink:href="#DejaVuSans-64" x="266.162109"/>
      <use xlink:href="#DejaVuSans-20" x="329.638672"/>
      <use xlink:href="#DejaVuSans-74" x="361.425781"/>
      <use xlink:href="#DejaVuSans-61" x="400.634766"/>
      <use xlink:href="#DejaVuSans-72" x="461.914062"/>
      <use xlink:href="#DejaVuSans-67" x="501.277344"/>
      <use xlink:href="#DejaVuSans-65" x="564.753906"/>
      <use xlink:href="#DejaVuSans-74" x="626.277344"/>
     </g>
    </g>
    <g id="line2d_71">
     <path d="M 761.935404 66.636563 
L 775.935404 66.636563 
L 789.935404 66.636563 
" style="fill: none; stroke: #e5ae38; stroke-width: 4"/>
    </g>
    <g id="text_35">
     <!-- gen centroid -->
     <g transform="translate(801.135404 71.536563) scale(0.14 -0.14)">
      <use xlink:href="#DejaVuSans-67"/>
      <use xlink:href="#DejaVuSans-65" x="63.476562"/>
      <use xlink:href="#DejaVuSans-6e" x="125"/>
      <use xlink:href="#DejaVuSans-20" x="188.378906"/>
      <use xlink:href="#DejaVuSans-63" x="220.166016"/>
      <use xlink:href="#DejaVuSans-65" x="275.146484"/>
      <use xlink:href="#DejaVuSans-6e" x="336.669922"/>
      <use xlink:href="#DejaVuSans-74" x="400.048828"/>
      <use xlink:href="#DejaVuSans-72" x="439.257812"/>
      <use xlink:href="#DejaVuSans-6f" x="478.121094"/>
      <use xlink:href="#DejaVuSans-69" x="539.302734"/>
      <use xlink:href="#DejaVuSans-64" x="567.085938"/>
     </g>
    </g>
   </g>
  </g>
 </g>
 <defs>
  <clipPath id="p5c8e4250c1">
   <rect x="41.871875" y="7.2" width="294.776471" height="174.96"/>
  </clipPath>
  <clipPath id="p0782f269ef">
   <rect x="395.60364" y="7.2" width="294.776471" height="174.96"/>
  </clipPath>
  <clipPath id="pd0c3ff0a68">
   <rect x="749.335404" y="7.2" width="294.776471" height="174.96"/>
  </clipPath>
 </defs>
</svg>
