<?xml version="1.0" encoding="utf-8" standalone="no"?>
<!DOCTYPE svg PUBLIC "-//W3C//DTD SVG 1.1//EN"
  "http://www.w3.org/Graphics/SVG/1.1/DTD/svg11.dtd">
<svg xmlns:xlink="http://www.w3.org/1999/xlink" width="1051.311875pt" height="206.409375pt" viewBox="0 0 1051.311875 206.409375" xmlns="http://www.w3.org/2000/svg" version="1.1">
 <metadata>
  <rdf:RDF xmlns:dc="http://purl.org/dc/elements/1.1/" xmlns:cc="http://creativecommons.org/ns#" xmlns:rdf="http://www.w3.org/1999/02/22-rdf-syntax-ns#">
   <cc:Work>
    <dc:type rdf:resource="http://purl.org/dc/dcmitype/StillImage"/>
    <dc:date>2023-01-19T14:56:01.771512</dc:date>
    <dc:format>image/svg+xml</dc:format>
    <dc:creator>
     <cc:Agent>
      <dc:title>Matplotlib v3.6.0, https://matplotlib.org/</dc:title>
     </cc:Agent>
    </dc:creator>
   </cc:Work>
  </rdf:RDF>
 </metadata>
 <defs>
  <style type="text/css">*{stroke-linejoin: round; stroke-linecap: butt}</style>
 </defs>
 <g id="figure_1">
  <g id="patch_1">
   <path d="M 0 206.409375 
L 1051.311875 206.409375 
L 1051.311875 0 
L 0 0 
L 0 206.409375 
z
" style="fill: none"/>
  </g>
  <g id="axes_1">
   <g id="patch_2">
    <path d="M 41.871875 182.16 
L 336.648346 182.16 
L 336.648346 7.2 
L 41.871875 7.2 
L 41.871875 182.16 
z
" style="fill: none"/>
   </g>
   <g id="matplotlib.axis_1">
    <g id="xtick_1">
     <g id="line2d_1">
      <path d="M 55.270805 182.16 
L 55.270805 7.2 
" clip-path="url(#pc8e76633e7)" style="fill: none; stroke: #cbcbcb"/>
     </g>
     <g id="line2d_2"/>
     <g id="text_1">
      <!-- 0 -->
      <g transform="translate(50.817055 196.297813) scale(0.14 -0.14)">
       <defs>
        <path id="DejaVuSans-30" d="M 2034 4250 
Q 1547 4250 1301 3770 
Q 1056 3291 1056 2328 
Q 1056 1369 1301 889 
Q 1547 409 2034 409 
Q 2525 409 2770 889 
Q 3016 1369 3016 2328 
Q 3016 3291 2770 3770 
Q 2525 4250 2034 4250 
z
M 2034 4750 
Q 2819 4750 3233 4129 
Q 3647 3509 3647 2328 
Q 3647 1150 3233 529 
Q 2819 -91 2034 -91 
Q 1250 -91 836 529 
Q 422 1150 422 2328 
Q 422 3509 836 4129 
Q 1250 4750 2034 4750 
z
" transform="scale(0.015625)"/>
       </defs>
       <use xlink:href="#DejaVuSans-30"/>
      </g>
     </g>
    </g>
    <g id="xtick_2">
     <g id="line2d_3">
      <path d="M 107.712803 182.16 
L 107.712803 7.2 
" clip-path="url(#pc8e76633e7)" style="fill: none; stroke: #cbcbcb"/>
     </g>
     <g id="line2d_4"/>
     <g id="text_2">
      <!-- 100 -->
      <g transform="translate(94.351553 196.297813) scale(0.14 -0.14)">
       <defs>
        <path id="DejaVuSans-31" d="M 794 531 
L 1825 531 
L 1825 4091 
L 703 3866 
L 703 4441 
L 1819 4666 
L 2450 4666 
L 2450 531 
L 3481 531 
L 3481 0 
L 794 0 
L 794 531 
z
" transform="scale(0.015625)"/>
       </defs>
       <use xlink:href="#DejaVuSans-31"/>
       <use xlink:href="#DejaVuSans-30" x="63.623047"/>
       <use xlink:href="#DejaVuSans-30" x="127.246094"/>
      </g>
     </g>
    </g>
    <g id="xtick_3">
     <g id="line2d_5">
      <path d="M 160.154801 182.16 
L 160.154801 7.2 
" clip-path="url(#pc8e76633e7)" style="fill: none; stroke: #cbcbcb"/>
     </g>
     <g id="line2d_6"/>
     <g id="text_3">
      <!-- 200 -->
      <g transform="translate(146.793551 196.297813) scale(0.14 -0.14)">
       <defs>
        <path id="DejaVuSans-32" d="M 1228 531 
L 3431 531 
L 3431 0 
L 469 0 
L 469 531 
Q 828 903 1448 1529 
Q 2069 2156 2228 2338 
Q 2531 2678 2651 2914 
Q 2772 3150 2772 3378 
Q 2772 3750 2511 3984 
Q 2250 4219 1831 4219 
Q 1534 4219 1204 4116 
Q 875 4013 500 3803 
L 500 4441 
Q 881 4594 1212 4672 
Q 1544 4750 1819 4750 
Q 2544 4750 2975 4387 
Q 3406 4025 3406 3419 
Q 3406 3131 3298 2873 
Q 3191 2616 2906 2266 
Q 2828 2175 2409 1742 
Q 1991 1309 1228 531 
z
" transform="scale(0.015625)"/>
       </defs>
       <use xlink:href="#DejaVuSans-32"/>
       <use xlink:href="#DejaVuSans-30" x="63.623047"/>
       <use xlink:href="#DejaVuSans-30" x="127.246094"/>
      </g>
     </g>
    </g>
    <g id="xtick_4">
     <g id="line2d_7">
      <path d="M 212.596799 182.16 
L 212.596799 7.2 
" clip-path="url(#pc8e76633e7)" style="fill: none; stroke: #cbcbcb"/>
     </g>
     <g id="line2d_8"/>
     <g id="text_4">
      <!-- 300 -->
      <g transform="translate(199.235549 196.297813) scale(0.14 -0.14)">
       <defs>
        <path id="DejaVuSans-33" d="M 2597 2516 
Q 3050 2419 3304 2112 
Q 3559 1806 3559 1356 
Q 3559 666 3084 287 
Q 2609 -91 1734 -91 
Q 1441 -91 1130 -33 
Q 819 25 488 141 
L 488 750 
Q 750 597 1062 519 
Q 1375 441 1716 441 
Q 2309 441 2620 675 
Q 2931 909 2931 1356 
Q 2931 1769 2642 2001 
Q 2353 2234 1838 2234 
L 1294 2234 
L 1294 2753 
L 1863 2753 
Q 2328 2753 2575 2939 
Q 2822 3125 2822 3475 
Q 2822 3834 2567 4026 
Q 2313 4219 1838 4219 
Q 1578 4219 1281 4162 
Q 984 4106 628 3988 
L 628 4550 
Q 988 4650 1302 4700 
Q 1616 4750 1894 4750 
Q 2613 4750 3031 4423 
Q 3450 4097 3450 3541 
Q 3450 3153 3228 2886 
Q 3006 2619 2597 2516 
z
" transform="scale(0.015625)"/>
       </defs>
       <use xlink:href="#DejaVuSans-33"/>
       <use xlink:href="#DejaVuSans-30" x="63.623047"/>
       <use xlink:href="#DejaVuSans-30" x="127.246094"/>
      </g>
     </g>
    </g>
    <g id="xtick_5">
     <g id="line2d_9">
      <path d="M 265.038797 182.16 
L 265.038797 7.2 
" clip-path="url(#pc8e76633e7)" style="fill: none; stroke: #cbcbcb"/>
     </g>
     <g id="line2d_10"/>
     <g id="text_5">
      <!-- 400 -->
      <g transform="translate(251.677547 196.297813) scale(0.14 -0.14)">
       <defs>
        <path id="DejaVuSans-34" d="M 2419 4116 
L 825 1625 
L 2419 1625 
L 2419 4116 
z
M 2253 4666 
L 3047 4666 
L 3047 1625 
L 3713 1625 
L 3713 1100 
L 3047 1100 
L 3047 0 
L 2419 0 
L 2419 1100 
L 313 1100 
L 313 1709 
L 2253 4666 
z
" transform="scale(0.015625)"/>
       </defs>
       <use xlink:href="#DejaVuSans-34"/>
       <use xlink:href="#DejaVuSans-30" x="63.623047"/>
       <use xlink:href="#DejaVuSans-30" x="127.246094"/>
      </g>
     </g>
    </g>
    <g id="xtick_6">
     <g id="line2d_11">
      <path d="M 317.480795 182.16 
L 317.480795 7.2 
" clip-path="url(#pc8e76633e7)" style="fill: none; stroke: #cbcbcb"/>
     </g>
     <g id="line2d_12"/>
     <g id="text_6">
      <!-- 500 -->
      <g transform="translate(304.119545 196.297813) scale(0.14 -0.14)">
       <defs>
        <path id="DejaVuSans-35" d="M 691 4666 
L 3169 4666 
L 3169 4134 
L 1269 4134 
L 1269 2991 
Q 1406 3038 1543 3061 
Q 1681 3084 1819 3084 
Q 2600 3084 3056 2656 
Q 3513 2228 3513 1497 
Q 3513 744 3044 326 
Q 2575 -91 1722 -91 
Q 1428 -91 1123 -41 
Q 819 9 494 109 
L 494 744 
Q 775 591 1075 516 
Q 1375 441 1709 441 
Q 2250 441 2565 725 
Q 2881 1009 2881 1497 
Q 2881 1984 2565 2268 
Q 2250 2553 1709 2553 
Q 1456 2553 1204 2497 
Q 953 2441 691 2322 
L 691 4666 
z
" transform="scale(0.015625)"/>
       </defs>
       <use xlink:href="#DejaVuSans-35"/>
       <use xlink:href="#DejaVuSans-30" x="63.623047"/>
       <use xlink:href="#DejaVuSans-30" x="127.246094"/>
      </g>
     </g>
    </g>
   </g>
   <g id="matplotlib.axis_2">
    <g id="ytick_1">
     <g id="line2d_13">
      <path d="M 41.871875 174.207273 
L 336.648346 174.207273 
" clip-path="url(#pc8e76633e7)" style="fill: none; stroke: #cbcbcb"/>
     </g>
     <g id="line2d_14"/>
     <g id="text_7">
      <!-- 0.00 -->
      <g transform="translate(7.2 179.526179) scale(0.14 -0.14)">
       <defs>
        <path id="DejaVuSans-2e" d="M 684 794 
L 1344 794 
L 1344 0 
L 684 0 
L 684 794 
z
" transform="scale(0.015625)"/>
       </defs>
       <use xlink:href="#DejaVuSans-30"/>
       <use xlink:href="#DejaVuSans-2e" x="63.623047"/>
       <use xlink:href="#DejaVuSans-30" x="95.410156"/>
       <use xlink:href="#DejaVuSans-30" x="159.033203"/>
      </g>
     </g>
    </g>
    <g id="ytick_2">
     <g id="line2d_15">
      <path d="M 41.871875 136.696144 
L 336.648346 136.696144 
" clip-path="url(#pc8e76633e7)" style="fill: none; stroke: #cbcbcb"/>
     </g>
     <g id="line2d_16"/>
     <g id="text_8">
      <!-- 0.02 -->
      <g transform="translate(7.2 142.01505) scale(0.14 -0.14)">
       <use xlink:href="#DejaVuSans-30"/>
       <use xlink:href="#DejaVuSans-2e" x="63.623047"/>
       <use xlink:href="#DejaVuSans-30" x="95.410156"/>
       <use xlink:href="#DejaVuSans-32" x="159.033203"/>
      </g>
     </g>
    </g>
    <g id="ytick_3">
     <g id="line2d_17">
      <path d="M 41.871875 99.185015 
L 336.648346 99.185015 
" clip-path="url(#pc8e76633e7)" style="fill: none; stroke: #cbcbcb"/>
     </g>
     <g id="line2d_18"/>
     <g id="text_9">
      <!-- 0.04 -->
      <g transform="translate(7.2 104.503922) scale(0.14 -0.14)">
       <use xlink:href="#DejaVuSans-30"/>
       <use xlink:href="#DejaVuSans-2e" x="63.623047"/>
       <use xlink:href="#DejaVuSans-30" x="95.410156"/>
       <use xlink:href="#DejaVuSans-34" x="159.033203"/>
      </g>
     </g>
    </g>
    <g id="ytick_4">
     <g id="line2d_19">
      <path d="M 41.871875 61.673887 
L 336.648346 61.673887 
" clip-path="url(#pc8e76633e7)" style="fill: none; stroke: #cbcbcb"/>
     </g>
     <g id="line2d_20"/>
     <g id="text_10">
      <!-- 0.06 -->
      <g transform="translate(7.2 66.992793) scale(0.14 -0.14)">
       <defs>
        <path id="DejaVuSans-36" d="M 2113 2584 
Q 1688 2584 1439 2293 
Q 1191 2003 1191 1497 
Q 1191 994 1439 701 
Q 1688 409 2113 409 
Q 2538 409 2786 701 
Q 3034 994 3034 1497 
Q 3034 2003 2786 2293 
Q 2538 2584 2113 2584 
z
M 3366 4563 
L 3366 3988 
Q 3128 4100 2886 4159 
Q 2644 4219 2406 4219 
Q 1781 4219 1451 3797 
Q 1122 3375 1075 2522 
Q 1259 2794 1537 2939 
Q 1816 3084 2150 3084 
Q 2853 3084 3261 2657 
Q 3669 2231 3669 1497 
Q 3669 778 3244 343 
Q 2819 -91 2113 -91 
Q 1303 -91 875 529 
Q 447 1150 447 2328 
Q 447 3434 972 4092 
Q 1497 4750 2381 4750 
Q 2619 4750 2861 4703 
Q 3103 4656 3366 4563 
z
" transform="scale(0.015625)"/>
       </defs>
       <use xlink:href="#DejaVuSans-30"/>
       <use xlink:href="#DejaVuSans-2e" x="63.623047"/>
       <use xlink:href="#DejaVuSans-30" x="95.410156"/>
       <use xlink:href="#DejaVuSans-36" x="159.033203"/>
      </g>
     </g>
    </g>
    <g id="ytick_5">
     <g id="line2d_21">
      <path d="M 41.871875 24.162758 
L 336.648346 24.162758 
" clip-path="url(#pc8e76633e7)" style="fill: none; stroke: #cbcbcb"/>
     </g>
     <g id="line2d_22"/>
     <g id="text_11">
      <!-- 0.08 -->
      <g transform="translate(7.2 29.481664) scale(0.14 -0.14)">
       <defs>
        <path id="DejaVuSans-38" d="M 2034 2216 
Q 1584 2216 1326 1975 
Q 1069 1734 1069 1313 
Q 1069 891 1326 650 
Q 1584 409 2034 409 
Q 2484 409 2743 651 
Q 3003 894 3003 1313 
Q 3003 1734 2745 1975 
Q 2488 2216 2034 2216 
z
M 1403 2484 
Q 997 2584 770 2862 
Q 544 3141 544 3541 
Q 544 4100 942 4425 
Q 1341 4750 2034 4750 
Q 2731 4750 3128 4425 
Q 3525 4100 3525 3541 
Q 3525 3141 3298 2862 
Q 3072 2584 2669 2484 
Q 3125 2378 3379 2068 
Q 3634 1759 3634 1313 
Q 3634 634 3220 271 
Q 2806 -91 2034 -91 
Q 1263 -91 848 271 
Q 434 634 434 1313 
Q 434 1759 690 2068 
Q 947 2378 1403 2484 
z
M 1172 3481 
Q 1172 3119 1398 2916 
Q 1625 2713 2034 2713 
Q 2441 2713 2670 2916 
Q 2900 3119 2900 3481 
Q 2900 3844 2670 4047 
Q 2441 4250 2034 4250 
Q 1625 4250 1398 4047 
Q 1172 3844 1172 3481 
z
" transform="scale(0.015625)"/>
       </defs>
       <use xlink:href="#DejaVuSans-30"/>
       <use xlink:href="#DejaVuSans-2e" x="63.623047"/>
       <use xlink:href="#DejaVuSans-30" x="95.410156"/>
       <use xlink:href="#DejaVuSans-38" x="159.033203"/>
      </g>
     </g>
    </g>
   </g>
   <g id="line2d_23">
    <path d="M 55.270805 15.152727 
L 188.9979 15.152727 
L 189.52232 174.207273 
L 323.249415 174.207273 
L 323.249415 174.207273 
" clip-path="url(#pc8e76633e7)" style="fill: none; stroke: #008fd5; stroke-width: 4"/>
   </g>
   <g id="patch_3">
    <path d="M 41.871875 182.16 
L 41.871875 7.2 
" style="fill: none; stroke: #f0f0f0; stroke-width: 3; stroke-linejoin: miter; stroke-linecap: square"/>
   </g>
   <g id="patch_4">
    <path d="M 336.648346 182.16 
L 336.648346 7.2 
" style="fill: none; stroke: #f0f0f0; stroke-width: 3; stroke-linejoin: miter; stroke-linecap: square"/>
   </g>
   <g id="patch_5">
    <path d="M 41.871875 182.16 
L 336.648346 182.16 
" style="fill: none; stroke: #f0f0f0; stroke-width: 3; stroke-linejoin: miter; stroke-linecap: square"/>
   </g>
   <g id="patch_6">
    <path d="M 41.871875 7.2 
L 336.648346 7.2 
" style="fill: none; stroke: #f0f0f0; stroke-width: 3; stroke-linejoin: miter; stroke-linecap: square"/>
   </g>
   <g id="legend_1">
    <g id="patch_7">
     <path d="M 218.882096 38.949375 
L 326.848346 38.949375 
Q 329.648346 38.949375 329.648346 36.149375 
L 329.648346 17 
Q 329.648346 14.2 326.848346 14.2 
L 218.882096 14.2 
Q 216.082096 14.2 216.082096 17 
L 216.082096 36.149375 
Q 216.082096 38.949375 218.882096 38.949375 
z
" style="fill: #f0f0f0; opacity: 0.8; stroke: #cccccc; stroke-width: 0.5; stroke-linejoin: miter"/>
    </g>
    <g id="line2d_24">
     <path d="M 221.682096 25.537813 
L 235.682096 25.537813 
L 249.682096 25.537813 
" style="fill: none; stroke: #008fd5; stroke-width: 4"/>
    </g>
    <g id="text_12">
     <!-- accuracy -->
     <g transform="translate(260.882096 30.437813) scale(0.14 -0.14)">
      <defs>
       <path id="DejaVuSans-61" d="M 2194 1759 
Q 1497 1759 1228 1600 
Q 959 1441 959 1056 
Q 959 750 1161 570 
Q 1363 391 1709 391 
Q 2188 391 2477 730 
Q 2766 1069 2766 1631 
L 2766 1759 
L 2194 1759 
z
M 3341 1997 
L 3341 0 
L 2766 0 
L 2766 531 
Q 2569 213 2275 61 
Q 1981 -91 1556 -91 
Q 1019 -91 701 211 
Q 384 513 384 1019 
Q 384 1609 779 1909 
Q 1175 2209 1959 2209 
L 2766 2209 
L 2766 2266 
Q 2766 2663 2505 2880 
Q 2244 3097 1772 3097 
Q 1472 3097 1187 3025 
Q 903 2953 641 2809 
L 641 3341 
Q 956 3463 1253 3523 
Q 1550 3584 1831 3584 
Q 2591 3584 2966 3190 
Q 3341 2797 3341 1997 
z
" transform="scale(0.015625)"/>
       <path id="DejaVuSans-63" d="M 3122 3366 
L 3122 2828 
Q 2878 2963 2633 3030 
Q 2388 3097 2138 3097 
Q 1578 3097 1268 2742 
Q 959 2388 959 1747 
Q 959 1106 1268 751 
Q 1578 397 2138 397 
Q 2388 397 2633 464 
Q 2878 531 3122 666 
L 3122 134 
Q 2881 22 2623 -34 
Q 2366 -91 2075 -91 
Q 1284 -91 818 406 
Q 353 903 353 1747 
Q 353 2603 823 3093 
Q 1294 3584 2113 3584 
Q 2378 3584 2631 3529 
Q 2884 3475 3122 3366 
z
" transform="scale(0.015625)"/>
       <path id="DejaVuSans-75" d="M 544 1381 
L 544 3500 
L 1119 3500 
L 1119 1403 
Q 1119 906 1312 657 
Q 1506 409 1894 409 
Q 2359 409 2629 706 
Q 2900 1003 2900 1516 
L 2900 3500 
L 3475 3500 
L 3475 0 
L 2900 0 
L 2900 538 
Q 2691 219 2414 64 
Q 2138 -91 1772 -91 
Q 1169 -91 856 284 
Q 544 659 544 1381 
z
M 1991 3584 
L 1991 3584 
z
" transform="scale(0.015625)"/>
       <path id="DejaVuSans-72" d="M 2631 2963 
Q 2534 3019 2420 3045 
Q 2306 3072 2169 3072 
Q 1681 3072 1420 2755 
Q 1159 2438 1159 1844 
L 1159 0 
L 581 0 
L 581 3500 
L 1159 3500 
L 1159 2956 
Q 1341 3275 1631 3429 
Q 1922 3584 2338 3584 
Q 2397 3584 2469 3576 
Q 2541 3569 2628 3553 
L 2631 2963 
z
" transform="scale(0.015625)"/>
       <path id="DejaVuSans-79" d="M 2059 -325 
Q 1816 -950 1584 -1140 
Q 1353 -1331 966 -1331 
L 506 -1331 
L 506 -850 
L 844 -850 
Q 1081 -850 1212 -737 
Q 1344 -625 1503 -206 
L 1606 56 
L 191 3500 
L 800 3500 
L 1894 763 
L 2988 3500 
L 3597 3500 
L 2059 -325 
z
" transform="scale(0.015625)"/>
      </defs>
      <use xlink:href="#DejaVuSans-61"/>
      <use xlink:href="#DejaVuSans-63" x="61.279297"/>
      <use xlink:href="#DejaVuSans-63" x="116.259766"/>
      <use xlink:href="#DejaVuSans-75" x="171.240234"/>
      <use xlink:href="#DejaVuSans-72" x="234.619141"/>
      <use xlink:href="#DejaVuSans-61" x="275.732422"/>
      <use xlink:href="#DejaVuSans-63" x="337.011719"/>
      <use xlink:href="#DejaVuSans-79" x="391.992188"/>
     </g>
    </g>
   </g>
  </g>
  <g id="axes_2">
   <g id="patch_8">
    <path d="M 395.60364 182.16 
L 690.38011 182.16 
L 690.38011 7.2 
L 395.60364 7.2 
L 395.60364 182.16 
z
" style="fill: none"/>
   </g>
   <g id="matplotlib.axis_3">
    <g id="xtick_7">
     <g id="line2d_25">
      <path d="M 409.00257 182.16 
L 409.00257 7.2 
" clip-path="url(#pcd37d3d1a8)" style="fill: none; stroke: #cbcbcb"/>
     </g>
     <g id="line2d_26"/>
     <g id="text_13">
      <!-- 0 -->
      <g transform="translate(404.54882 196.297813) scale(0.14 -0.14)">
       <use xlink:href="#DejaVuSans-30"/>
      </g>
     </g>
    </g>
    <g id="xtick_8">
     <g id="line2d_27">
      <path d="M 461.444568 182.16 
L 461.444568 7.2 
" clip-path="url(#pcd37d3d1a8)" style="fill: none; stroke: #cbcbcb"/>
     </g>
     <g id="line2d_28"/>
     <g id="text_14">
      <!-- 100 -->
      <g transform="translate(448.083318 196.297813) scale(0.14 -0.14)">
       <use xlink:href="#DejaVuSans-31"/>
       <use xlink:href="#DejaVuSans-30" x="63.623047"/>
       <use xlink:href="#DejaVuSans-30" x="127.246094"/>
      </g>
     </g>
    </g>
    <g id="xtick_9">
     <g id="line2d_29">
      <path d="M 513.886566 182.16 
L 513.886566 7.2 
" clip-path="url(#pcd37d3d1a8)" style="fill: none; stroke: #cbcbcb"/>
     </g>
     <g id="line2d_30"/>
     <g id="text_15">
      <!-- 200 -->
      <g transform="translate(500.525316 196.297813) scale(0.14 -0.14)">
       <use xlink:href="#DejaVuSans-32"/>
       <use xlink:href="#DejaVuSans-30" x="63.623047"/>
       <use xlink:href="#DejaVuSans-30" x="127.246094"/>
      </g>
     </g>
    </g>
    <g id="xtick_10">
     <g id="line2d_31">
      <path d="M 566.328564 182.16 
L 566.328564 7.2 
" clip-path="url(#pcd37d3d1a8)" style="fill: none; stroke: #cbcbcb"/>
     </g>
     <g id="line2d_32"/>
     <g id="text_16">
      <!-- 300 -->
      <g transform="translate(552.967314 196.297813) scale(0.14 -0.14)">
       <use xlink:href="#DejaVuSans-33"/>
       <use xlink:href="#DejaVuSans-30" x="63.623047"/>
       <use xlink:href="#DejaVuSans-30" x="127.246094"/>
      </g>
     </g>
    </g>
    <g id="xtick_11">
     <g id="line2d_33">
      <path d="M 618.770562 182.16 
L 618.770562 7.2 
" clip-path="url(#pcd37d3d1a8)" style="fill: none; stroke: #cbcbcb"/>
     </g>
     <g id="line2d_34"/>
     <g id="text_17">
      <!-- 400 -->
      <g transform="translate(605.409312 196.297813) scale(0.14 -0.14)">
       <use xlink:href="#DejaVuSans-34"/>
       <use xlink:href="#DejaVuSans-30" x="63.623047"/>
       <use xlink:href="#DejaVuSans-30" x="127.246094"/>
      </g>
     </g>
    </g>
    <g id="xtick_12">
     <g id="line2d_35">
      <path d="M 671.21256 182.16 
L 671.21256 7.2 
" clip-path="url(#pcd37d3d1a8)" style="fill: none; stroke: #cbcbcb"/>
     </g>
     <g id="line2d_36"/>
     <g id="text_18">
      <!-- 500 -->
      <g transform="translate(657.85131 196.297813) scale(0.14 -0.14)">
       <use xlink:href="#DejaVuSans-35"/>
       <use xlink:href="#DejaVuSans-30" x="63.623047"/>
       <use xlink:href="#DejaVuSans-30" x="127.246094"/>
      </g>
     </g>
    </g>
   </g>
   <g id="matplotlib.axis_4">
    <g id="ytick_6">
     <g id="line2d_37">
      <path d="M 395.60364 153.274427 
L 690.38011 153.274427 
" clip-path="url(#pcd37d3d1a8)" style="fill: none; stroke: #cbcbcb"/>
     </g>
     <g id="line2d_38"/>
     <g id="text_19">
      <!-- 20 -->
      <g transform="translate(374.28864 158.593333) scale(0.14 -0.14)">
       <use xlink:href="#DejaVuSans-32"/>
       <use xlink:href="#DejaVuSans-30" x="63.623047"/>
      </g>
     </g>
    </g>
    <g id="ytick_7">
     <g id="line2d_39">
      <path d="M 395.60364 123.841634 
L 690.38011 123.841634 
" clip-path="url(#pcd37d3d1a8)" style="fill: none; stroke: #cbcbcb"/>
     </g>
     <g id="line2d_40"/>
     <g id="text_20">
      <!-- 40 -->
      <g transform="translate(374.28864 129.16054) scale(0.14 -0.14)">
       <use xlink:href="#DejaVuSans-34"/>
       <use xlink:href="#DejaVuSans-30" x="63.623047"/>
      </g>
     </g>
    </g>
    <g id="ytick_8">
     <g id="line2d_41">
      <path d="M 395.60364 94.40884 
L 690.38011 94.40884 
" clip-path="url(#pcd37d3d1a8)" style="fill: none; stroke: #cbcbcb"/>
     </g>
     <g id="line2d_42"/>
     <g id="text_21">
      <!-- 60 -->
      <g transform="translate(374.28864 99.727747) scale(0.14 -0.14)">
       <use xlink:href="#DejaVuSans-36"/>
       <use xlink:href="#DejaVuSans-30" x="63.623047"/>
      </g>
     </g>
    </g>
    <g id="ytick_9">
     <g id="line2d_43">
      <path d="M 395.60364 64.976047 
L 690.38011 64.976047 
" clip-path="url(#pcd37d3d1a8)" style="fill: none; stroke: #cbcbcb"/>
     </g>
     <g id="line2d_44"/>
     <g id="text_22">
      <!-- 80 -->
      <g transform="translate(374.28864 70.294953) scale(0.14 -0.14)">
       <use xlink:href="#DejaVuSans-38"/>
       <use xlink:href="#DejaVuSans-30" x="63.623047"/>
      </g>
     </g>
    </g>
    <g id="ytick_10">
     <g id="line2d_45">
      <path d="M 395.60364 35.543254 
L 690.38011 35.543254 
" clip-path="url(#pcd37d3d1a8)" style="fill: none; stroke: #cbcbcb"/>
     </g>
     <g id="line2d_46"/>
     <g id="text_23">
      <!-- 100 -->
      <g transform="translate(365.38114 40.86216) scale(0.14 -0.14)">
       <use xlink:href="#DejaVuSans-31"/>
       <use xlink:href="#DejaVuSans-30" x="63.623047"/>
       <use xlink:href="#DejaVuSans-30" x="127.246094"/>
      </g>
     </g>
    </g>
   </g>
   <g id="line2d_47">
    <path d="M 409.00257 88.283165 
L 409.52699 110.477599 
L 410.05141 141.858738 
L 410.57583 104.814601 
L 411.10025 99.019846 
L 411.62467 75.182819 
L 412.14909 85.437062 
L 412.67351 133.897752 
L 413.19793 89.953664 
L 413.72235 15.152727 
L 414.24677 51.246275 
L 414.77119 96.048845 
L 415.29561 105.639765 
L 415.82003 123.750599 
L 416.34445 79.243896 
L 416.86887 97.986413 
L 417.39329 141.348621 
L 417.91771 118.622058 
L 418.44213 137.273773 
L 418.96655 104.399276 
L 419.49097 98.910246 
L 420.01539 102.670752 
L 421.06423 158.571277 
L 421.58865 171.467967 
L 422.11307 154.711336 
L 422.63749 167.188227 
L 423.16191 168.919266 
L 423.68633 164.156392 
L 424.21075 82.728644 
L 424.73517 111.454809 
L 425.25959 124.637937 
L 425.78401 148.694853 
L 426.30843 91.841998 
L 426.832849 115.374563 
L 427.357269 79.229839 
L 427.881689 91.036634 
L 428.406109 110.326698 
L 428.930529 138.226209 
L 429.454949 105.358011 
L 429.979369 121.063054 
L 430.503789 127.864054 
L 431.028209 128.593103 
L 431.552629 116.221627 
L 432.077049 75.031739 
L 432.601469 73.982722 
L 433.125889 101.467668 
L 433.650309 85.075237 
L 434.174729 109.887975 
L 434.699149 52.270939 
L 435.747989 150.610844 
L 436.272409 153.045881 
L 436.796829 138.514857 
L 437.321249 93.671404 
L 437.845669 125.698362 
L 438.370089 147.67413 
L 439.418929 156.013367 
L 439.943349 153.862119 
L 440.467769 73.155744 
L 441.516609 166.64358 
L 442.565449 169.992375 
L 443.089869 164.272618 
L 444.138709 167.371929 
L 444.663129 162.931158 
L 445.187549 115.261489 
L 445.711969 116.329795 
L 446.236389 163.073374 
L 446.760809 158.815854 
L 447.285229 145.355196 
L 447.809649 159.871638 
L 448.334069 92.238792 
L 448.858489 123.220432 
L 449.382909 138.163628 
L 450.431749 107.597077 
L 450.956169 139.548888 
L 451.480589 128.206247 
L 452.005009 123.671764 
L 452.529429 158.394719 
L 453.053848 156.678405 
L 453.578268 164.767502 
L 454.102688 167.855421 
L 454.627108 166.16402 
L 455.151528 163.138992 
L 455.675948 133.270532 
L 456.200368 112.055082 
L 456.724788 140.510609 
L 457.249208 148.876276 
L 457.773628 161.333705 
L 458.298048 136.921989 
L 458.822468 130.932427 
L 459.346888 126.259899 
L 459.871308 165.306436 
L 460.395728 141.489189 
L 460.920148 162.966879 
L 461.444568 88.72483 
L 461.968988 78.17449 
L 463.017828 135.1766 
L 463.542248 134.20309 
L 464.066668 155.505638 
L 465.115508 165.638807 
L 465.639928 147.126001 
L 466.164348 122.479335 
L 466.688768 126.053247 
L 467.213188 149.629252 
L 467.737608 149.583592 
L 468.262028 146.754201 
L 468.786448 133.700172 
L 469.310868 97.841233 
L 470.359708 156.381398 
L 470.884128 160.250946 
L 471.408548 144.765988 
L 471.932968 148.690087 
L 472.457388 151.585402 
L 472.981808 126.477616 
L 473.506228 136.688053 
L 474.030648 107.496959 
L 474.555068 128.668004 
L 475.079488 143.871638 
L 475.603908 147.092439 
L 476.128328 154.815266 
L 476.652748 118.399721 
L 477.177168 119.416009 
L 477.701588 115.151805 
L 478.226008 140.188803 
L 478.750427 139.343617 
L 479.274847 128.99473 
L 479.799267 129.256375 
L 480.323687 132.666043 
L 480.848107 152.979253 
L 481.372527 142.458203 
L 481.896947 119.358057 
L 482.421367 104.361372 
L 482.945787 105.184156 
L 483.994627 134.707068 
L 484.519047 158.455845 
L 485.567887 166.228154 
L 486.616727 172.893366 
L 487.141147 161.444642 
L 487.665567 112.096782 
L 488.189987 112.070616 
L 488.714407 127.466166 
L 489.238827 163.339137 
L 489.763247 165.114223 
L 490.287667 153.103678 
L 490.812087 100.578169 
L 491.336507 133.411636 
L 492.385347 160.090527 
L 492.909767 147.439681 
L 493.434187 110.319704 
L 493.958607 103.576829 
L 494.483027 122.3749 
L 495.007447 163.485117 
L 495.531867 145.022449 
L 496.580707 145.554965 
L 497.105127 123.500294 
L 497.629547 116.379736 
L 498.153967 118.632701 
L 498.678387 115.784588 
L 499.202807 158.668352 
L 499.727227 168.108742 
L 500.251647 164.841494 
L 500.776067 127.258638 
L 501.300487 137.82639 
L 501.824907 159.190933 
L 502.349327 169.48661 
L 502.873747 166.580721 
L 503.398167 157.637985 
L 503.922587 100.552733 
L 504.447006 135.159899 
L 504.971426 155.973256 
L 505.495846 166.687981 
L 506.020266 174.087581 
L 506.544686 171.865984 
L 507.069106 171.148062 
L 507.593526 165.253999 
L 508.117946 168.653777 
L 508.642366 162.393151 
L 509.166786 131.439757 
L 509.691206 164.805094 
L 510.215626 160.473801 
L 510.740046 166.913851 
L 511.264466 159.963141 
L 512.313306 131.320906 
L 512.837726 137.816234 
L 513.362146 150.01427 
L 513.886566 139.820234 
L 514.410986 86.641931 
L 514.935406 97.805989 
L 515.459826 133.750848 
L 515.984246 137.22894 
L 516.508666 139.763113 
L 517.033086 109.096157 
L 517.557506 140.590626 
L 518.081926 155.20704 
L 518.606346 149.184685 
L 519.655186 90.943321 
L 520.179606 125.077362 
L 520.704026 128.11711 
L 521.228446 139.483961 
L 521.752866 161.606546 
L 522.277286 147.101789 
L 522.801706 144.63937 
L 523.326126 156.47609 
L 523.850546 156.535639 
L 524.374966 137.150793 
L 524.899386 140.020042 
L 525.423806 122.224831 
L 525.948226 155.295209 
L 526.472646 166.040935 
L 526.997066 170.78078 
L 528.045906 118.565958 
L 528.570326 149.136577 
L 529.094746 151.920249 
L 529.619166 144.929048 
L 530.143585 126.228551 
L 531.192425 155.472904 
L 531.716845 152.339337 
L 532.241265 151.330847 
L 532.765685 139.815613 
L 533.290105 117.08587 
L 533.814525 140.909334 
L 534.338945 153.110477 
L 535.387785 131.02441 
L 535.912205 112.428971 
L 536.436625 156.955586 
L 536.961045 162.484298 
L 537.485465 169.899218 
L 538.009885 174.207273 
L 538.534305 172.756458 
L 539.058725 170.436635 
L 539.583145 165.460633 
L 540.107565 147.633239 
L 540.631985 146.546665 
L 541.156405 112.568217 
L 541.680825 144.07093 
L 542.205245 157.142486 
L 542.729665 163.237798 
L 543.254085 122.033443 
L 543.778505 131.557266 
L 544.302925 150.98377 
L 544.827345 153.949923 
L 545.351765 145.398645 
L 545.876185 131.234026 
L 546.400605 113.107445 
L 548.498285 164.782597 
L 549.022705 162.524266 
L 549.547125 165.84965 
L 550.071545 161.392354 
L 550.595965 160.211325 
L 551.120385 141.825583 
L 551.644805 149.995862 
L 552.169225 146.201769 
L 552.693645 139.336308 
L 553.218065 129.267244 
L 553.742485 124.899841 
L 554.266905 136.642126 
L 554.791325 140.782227 
L 555.315745 153.133084 
L 555.840165 156.75132 
L 556.364584 149.310713 
L 556.889004 148.019029 
L 557.937844 153.170281 
L 558.462264 153.908919 
L 558.986684 140.608504 
L 559.511104 147.229872 
L 560.559944 154.316932 
L 561.084364 152.236438 
L 561.608784 130.25205 
L 562.133204 125.389307 
L 562.657624 138.973992 
L 563.182044 139.389544 
L 563.706464 147.116284 
L 564.230884 152.512648 
L 564.755304 155.698242 
L 565.279724 161.064923 
L 565.804144 152.959916 
L 566.328564 154.215568 
L 566.852984 152.806921 
L 567.377404 126.523857 
L 567.901824 130.930586 
L 568.426244 117.827287 
L 568.950664 142.680722 
L 569.475084 148.504844 
L 569.999504 144.449975 
L 570.523924 153.945814 
L 571.048344 152.261223 
L 571.572764 156.598258 
L 572.097184 151.020207 
L 572.621604 131.766214 
L 573.146024 130.315862 
L 574.194864 142.507861 
L 574.719284 141.669568 
L 575.243704 114.248384 
L 575.768124 115.464374 
L 576.292544 115.380907 
L 576.816964 130.104613 
L 577.341384 149.606836 
L 577.865804 119.351349 
L 578.390224 135.797061 
L 578.914644 158.486851 
L 579.439064 145.269335 
L 579.963484 162.793397 
L 580.487904 159.878807 
L 581.012324 158.348738 
L 581.536744 164.213584 
L 582.061163 149.10709 
L 582.585583 151.831095 
L 583.110003 134.150162 
L 583.634423 109.377176 
L 584.158843 139.369281 
L 584.683263 153.400772 
L 585.207683 149.93674 
L 585.732103 142.774713 
L 586.256523 156.533037 
L 586.780943 158.538288 
L 587.305363 150.844861 
L 587.829783 159.237289 
L 588.354203 120.112622 
L 588.878623 153.994797 
L 589.403043 142.30915 
L 590.451883 161.707853 
L 590.976303 145.976959 
L 591.500723 148.303609 
L 592.025143 158.286686 
L 592.549563 161.634931 
L 593.073983 152.028989 
L 593.598403 148.326301 
L 594.122823 138.102412 
L 594.647243 135.792208 
L 595.696083 160.5894 
L 596.744923 122.463976 
L 597.269343 119.884907 
L 597.793763 144.6136 
L 598.318183 156.527487 
L 598.842603 132.976192 
L 599.367023 145.109323 
L 599.891443 149.068082 
L 600.415863 139.163157 
L 600.940283 150.63493 
L 601.464703 158.052282 
L 601.989123 155.703934 
L 602.513543 152.032554 
L 603.037963 154.43105 
L 603.562383 151.555269 
L 604.086803 144.363783 
L 604.611223 123.295674 
L 605.135643 125.90896 
L 605.660063 137.54424 
L 606.184483 158.242912 
L 606.708903 142.238246 
L 607.233323 144.474659 
L 607.757742 143.13327 
L 608.282162 148.499797 
L 608.806582 150.106043 
L 609.331002 134.553905 
L 609.855422 130.527538 
L 610.379842 133.194734 
L 610.904262 155.152572 
L 611.428682 160.489721 
L 611.953102 145.987381 
L 612.477522 149.279851 
L 613.001942 156.351532 
L 613.526362 156.793054 
L 614.050782 135.568964 
L 614.575202 144.236076 
L 615.099622 107.749061 
L 615.624042 111.964132 
L 616.148462 145.845109 
L 616.672882 135.038286 
L 617.197302 110.906823 
L 617.721722 73.123431 
L 618.246142 79.291244 
L 619.294982 140.789444 
L 619.819402 124.300932 
L 620.343822 137.945968 
L 620.868242 117.117818 
L 621.392662 143.172744 
L 621.917082 133.044995 
L 622.441502 137.051326 
L 622.965922 144.096844 
L 623.490342 159.034064 
L 624.014762 156.474838 
L 624.539182 155.554743 
L 625.063602 153.948561 
L 626.112442 89.357186 
L 626.636862 118.723567 
L 627.161282 130.752261 
L 627.685702 147.672948 
L 628.210122 144.541114 
L 628.734542 142.934025 
L 629.258962 151.994818 
L 629.783382 157.701222 
L 630.307802 150.276235 
L 630.832222 144.459432 
L 631.356642 146.395094 
L 631.881062 154.344224 
L 632.405482 150.869921 
L 632.929902 159.260415 
L 633.454321 155.766026 
L 633.978741 151.497682 
L 634.503161 163.325041 
L 635.027581 156.860249 
L 635.552001 139.284312 
L 636.076421 82.764707 
L 636.600841 106.735625 
L 637.125261 110.431824 
L 637.649681 137.22889 
L 638.174101 150.599417 
L 638.698521 156.663941 
L 639.222941 156.225683 
L 639.747361 158.262552 
L 640.271781 156.397678 
L 640.796201 159.75766 
L 641.320621 137.405053 
L 641.845041 119.905465 
L 642.369461 132.861804 
L 642.893881 138.623797 
L 643.418301 148.537598 
L 643.942721 155.732893 
L 644.467141 126.167119 
L 644.991561 157.215339 
L 645.515981 151.451143 
L 646.040401 147.416013 
L 646.564821 141.586974 
L 647.089241 106.048146 
L 647.613661 125.982872 
L 648.138081 139.120881 
L 648.662501 141.950059 
L 649.186921 156.200721 
L 649.711341 157.083652 
L 650.235761 149.989993 
L 650.760181 154.086528 
L 651.284601 155.764527 
L 651.809021 132.352284 
L 652.333441 115.740267 
L 652.857861 154.478072 
L 653.382281 152.662867 
L 653.906701 148.964257 
L 654.431121 147.709071 
L 654.955541 131.680232 
L 656.004381 154.405283 
L 656.528801 149.888525 
L 657.053221 148.741111 
L 657.577641 142.84513 
L 658.102061 138.741811 
L 658.626481 149.119227 
L 659.150901 150.848928 
L 659.67532 153.051851 
L 660.19974 150.023283 
L 660.72416 163.497939 
L 661.24858 161.119827 
L 661.773 169.702975 
L 662.29742 162.261837 
L 662.82184 163.303493 
L 663.34626 159.909825 
L 663.87068 166.326251 
L 664.91952 162.908874 
L 665.44394 160.313564 
L 665.96836 158.921619 
L 666.49278 156.516989 
L 667.0172 166.860393 
L 667.54162 163.341117 
L 668.06604 162.49792 
L 668.59046 152.547443 
L 669.11488 161.911384 
L 669.6393 160.964206 
L 670.16372 161.472315 
L 670.68814 170.104113 
L 671.21256 160.468157 
L 671.73698 163.725692 
L 672.2614 159.034236 
L 672.78582 169.589844 
L 673.31024 161.166596 
L 673.83466 161.436098 
L 674.35908 171.991301 
L 674.8835 156.204407 
L 675.40792 161.373831 
L 675.93234 148.301793 
L 676.45676 156.742318 
L 676.98118 155.421723 
L 676.98118 155.421723 
" clip-path="url(#pcd37d3d1a8)" style="fill: none; stroke: #008fd5; stroke-opacity: 0.4; stroke-width: 4"/>
   </g>
   <g id="line2d_48">
    <path d="M 409.00257 88.283165 
L 409.52699 89.39289 
L 410.05141 92.016185 
L 410.57583 92.656104 
L 411.10025 92.974292 
L 411.62467 92.084719 
L 412.14909 91.752339 
L 412.67351 93.859608 
L 413.19793 93.664313 
L 413.72235 89.738732 
L 414.24677 87.814116 
L 414.77119 88.225848 
L 415.29561 89.096546 
L 415.82003 90.829247 
L 416.34445 90.249981 
L 416.86887 90.636804 
L 417.39329 93.172393 
L 417.91771 94.444881 
L 418.44213 96.586327 
L 418.96655 96.976974 
L 419.49097 97.073639 
L 420.01539 97.353495 
L 420.53981 99.07791 
L 423.68633 116.357573 
L 424.21075 114.676126 
L 424.73517 114.515059 
L 425.25959 115.021204 
L 425.78401 116.704891 
L 426.30843 115.461746 
L 426.832849 115.45739 
L 427.357269 113.646017 
L 427.881689 112.515548 
L 428.406109 112.406106 
L 428.930529 113.697114 
L 429.454949 113.280161 
L 429.979369 113.669308 
L 431.028209 115.08975 
L 431.552629 115.146343 
L 432.601469 111.182717 
L 433.125889 110.696966 
L 433.650309 109.415883 
L 434.174729 109.43949 
L 434.699149 106.581064 
L 435.223569 106.212924 
L 436.272409 110.663474 
L 436.796829 112.056042 
L 437.321249 111.136812 
L 437.845669 111.86489 
L 439.943349 119.403934 
L 440.467769 117.091529 
L 440.992189 117.233851 
L 442.565449 124.521186 
L 444.663129 132.044701 
L 445.711969 130.461755 
L 446.760809 133.428517 
L 447.285229 134.024855 
L 447.809649 135.317194 
L 448.334069 133.163274 
L 448.858489 132.666133 
L 449.382909 132.941004 
L 449.907329 132.495292 
L 450.431749 131.250379 
L 450.956169 131.665305 
L 451.480589 131.492353 
L 452.005009 131.101325 
L 454.102688 136.862375 
L 455.151528 139.568034 
L 455.675948 139.253161 
L 456.200368 137.893259 
L 456.724788 138.024127 
L 457.249208 138.566737 
L 457.773628 139.705085 
L 458.298048 139.565931 
L 458.822468 139.134256 
L 459.346888 138.49054 
L 459.871308 139.831335 
L 460.395728 139.914229 
L 460.920148 141.066861 
L 461.968988 135.435994 
L 462.493408 134.019724 
L 463.542248 134.083846 
L 464.591088 136.403178 
L 465.115508 137.86496 
L 465.639928 138.328013 
L 466.164348 137.535578 
L 466.688768 136.961462 
L 467.737608 138.194289 
L 468.262028 138.622286 
L 468.786448 138.376183 
L 469.310868 136.349434 
L 469.835288 135.861508 
L 470.884128 138.055674 
L 471.408548 138.391192 
L 472.457388 139.540099 
L 472.981808 138.886977 
L 473.506228 138.777032 
L 474.030648 137.213028 
L 474.555068 136.785777 
L 475.079488 137.14007 
L 475.603908 137.637688 
L 476.128328 138.496567 
L 477.701588 135.516132 
L 478.750427 135.929461 
L 479.799267 135.266411 
L 480.323687 135.136394 
L 480.848107 136.028537 
L 481.372527 136.350021 
L 481.896947 135.500425 
L 482.945787 132.505509 
L 483.470207 131.818227 
L 483.994627 131.962666 
L 485.043467 134.755825 
L 487.141147 140.817743 
L 488.189987 138.016141 
L 488.714407 137.488643 
L 489.763247 140.097819 
L 490.287667 140.748112 
L 490.812087 138.739616 
L 491.336507 138.473219 
L 491.860927 138.826131 
L 492.385347 139.889351 
L 492.909767 140.266867 
L 493.958607 137.009876 
L 494.483027 136.278129 
L 495.007447 137.63848 
L 496.580707 138.731706 
L 497.105127 137.970136 
L 498.678387 134.968062 
L 499.202807 136.153078 
L 500.251647 139.105396 
L 500.776067 138.513058 
L 501.300487 138.478723 
L 501.824907 139.514334 
L 502.873747 142.29134 
L 503.398167 143.058673 
L 503.922587 140.933378 
L 504.447006 140.644705 
L 504.971426 141.411131 
L 505.495846 142.674974 
L 506.544686 145.626623 
L 507.069106 146.902696 
L 508.642366 149.538496 
L 509.166786 148.633558 
L 509.691206 149.442134 
L 510.215626 149.993718 
L 510.740046 150.839727 
L 511.264466 151.295898 
L 511.788886 151.062327 
L 512.313306 150.075256 
L 512.837726 149.462304 
L 513.362146 149.489905 
L 513.886566 149.006422 
L 514.410986 145.888198 
L 514.935406 143.484088 
L 515.459826 142.997426 
L 515.984246 142.709002 
L 516.508666 142.561709 
L 517.033086 140.88843 
L 517.557506 140.873542 
L 518.081926 141.590219 
L 518.606346 141.969943 
L 519.130766 140.767707 
L 519.655186 138.276489 
L 520.179606 137.616533 
L 520.704026 137.141561 
L 521.228446 137.258683 
L 521.752866 138.476079 
L 522.277286 138.907364 
L 522.801706 139.193963 
L 523.850546 140.881946 
L 524.374966 140.695389 
L 524.899386 140.661622 
L 525.423806 139.739784 
L 525.948226 140.517556 
L 526.997066 143.243082 
L 527.521486 143.36508 
L 528.045906 142.125124 
L 529.619166 143.046982 
L 530.143585 142.206059 
L 530.668005 142.19571 
L 531.192425 142.859572 
L 532.241265 143.733425 
L 532.765685 143.537535 
L 533.290105 142.214952 
L 533.814525 142.149671 
L 534.338945 142.697713 
L 534.863365 142.632603 
L 535.387785 142.052195 
L 535.912205 140.571034 
L 536.436625 141.390262 
L 536.961045 142.444963 
L 539.058725 147.894547 
L 539.583145 148.772852 
L 540.631985 148.607412 
L 541.156405 146.805453 
L 541.680825 146.668727 
L 542.205245 147.192416 
L 542.729665 147.994684 
L 543.254085 146.696622 
L 543.778505 145.939655 
L 544.302925 146.191861 
L 544.827345 146.579764 
L 545.351765 146.520709 
L 545.876185 145.756377 
L 546.400605 144.123931 
L 546.925025 143.197613 
L 547.449445 142.921998 
L 547.973865 143.186304 
L 549.547125 146.212559 
L 550.595965 147.633539 
L 551.120385 147.343142 
L 551.644805 147.475778 
L 552.169225 147.412078 
L 552.693645 147.008287 
L 553.742485 145.060165 
L 554.266905 144.639263 
L 554.791325 144.446413 
L 555.315745 144.880746 
L 555.840165 145.474275 
L 557.413424 146.033819 
L 558.462264 146.766557 
L 558.986684 146.458654 
L 559.511104 146.497215 
L 560.035524 146.703918 
L 561.084364 147.34216 
L 562.133204 145.432738 
L 563.182044 144.823791 
L 563.706464 144.938418 
L 564.230884 145.317129 
L 564.755304 145.836186 
L 565.279724 146.597625 
L 566.852984 147.557042 
L 567.377404 146.505383 
L 567.901824 145.726646 
L 568.426244 144.331677 
L 568.950664 144.249131 
L 569.475084 144.461916 
L 569.999504 144.461321 
L 571.572764 145.866652 
L 572.097184 146.124329 
L 573.146024 144.651895 
L 573.670444 144.263587 
L 574.719284 144.05049 
L 576.292544 139.914353 
L 576.816964 139.423867 
L 577.341384 139.933016 
L 577.865804 138.903931 
L 578.390224 138.74859 
L 578.914644 139.735504 
L 579.439064 140.012197 
L 580.487904 142.087635 
L 581.012324 142.90069 
L 581.536744 143.966336 
L 582.585583 144.603761 
L 583.110003 144.08108 
L 583.634423 142.345887 
L 584.158843 142.197058 
L 584.683263 142.757245 
L 585.207683 143.11622 
L 585.732103 143.099146 
L 586.780943 144.509213 
L 587.305363 144.825994 
L 587.829783 145.546561 
L 588.354203 144.274865 
L 588.878623 144.760862 
L 589.403043 144.638278 
L 589.927463 144.972019 
L 590.451883 145.80881 
L 590.976303 145.81722 
L 591.500723 145.941541 
L 592.549563 147.312606 
L 593.073983 147.548425 
L 593.598403 147.58732 
L 594.647243 146.547033 
L 595.171663 146.691362 
L 595.696083 147.386265 
L 596.220503 147.067089 
L 597.269343 144.539337 
L 597.793763 144.54305 
L 598.318183 145.142274 
L 598.842603 144.53397 
L 599.367023 144.562738 
L 599.891443 144.788005 
L 600.415863 144.506762 
L 600.940283 144.813172 
L 601.989123 145.98657 
L 603.562383 146.938942 
L 604.086803 146.810185 
L 605.135643 144.648184 
L 605.660063 144.292987 
L 606.184483 144.990483 
L 606.708903 144.852874 
L 607.757742 144.74893 
L 608.806582 145.194951 
L 609.331002 144.662898 
L 610.379842 143.418061 
L 610.904262 144.004788 
L 611.428682 144.829034 
L 611.953102 144.88695 
L 612.477522 145.106595 
L 613.526362 146.225052 
L 614.050782 145.692249 
L 614.575202 145.619441 
L 615.624042 142.137831 
L 616.148462 142.323195 
L 616.672882 141.958951 
L 617.197302 140.406343 
L 618.246142 134.154653 
L 618.770562 133.091293 
L 619.294982 133.476201 
L 619.819402 133.017437 
L 620.343822 133.263868 
L 620.868242 132.456567 
L 621.392662 132.992377 
L 621.917082 132.995009 
L 622.441502 133.197827 
L 622.965922 133.742781 
L 624.014762 136.080724 
L 625.063602 137.899131 
L 625.588022 137.018755 
L 626.112442 134.635677 
L 626.636862 133.840069 
L 627.161282 133.685683 
L 627.685702 134.385046 
L 628.734542 135.294912 
L 629.258962 136.129907 
L 629.783382 137.208472 
L 630.307802 137.861861 
L 631.356642 138.601908 
L 631.881062 139.389025 
L 632.405482 139.96307 
L 633.454321 141.669843 
L 633.978741 142.161236 
L 634.503161 143.219426 
L 635.027581 143.901465 
L 635.552001 143.670606 
L 636.076421 140.625312 
L 637.125261 137.505878 
L 637.649681 137.492028 
L 638.174101 138.147399 
L 639.747361 140.847438 
L 640.796201 142.531587 
L 641.320621 142.275261 
L 641.845041 141.156773 
L 642.369461 140.742027 
L 642.893881 140.636118 
L 643.418301 141.031194 
L 643.942721 141.766281 
L 644.467141 140.986322 
L 644.991561 141.797775 
L 645.515981 142.280443 
L 646.040401 142.537224 
L 646.564821 142.489714 
L 647.089241 140.667637 
L 647.613661 139.933401 
L 648.138081 139.892776 
L 648.662501 139.995639 
L 649.711341 141.619782 
L 650.235761 142.038292 
L 651.284601 143.296894 
L 651.809021 142.749666 
L 652.333441 141.399196 
L 653.382281 142.583628 
L 654.431121 143.142982 
L 654.955541 142.569843 
L 655.479961 142.58221 
L 656.004381 143.173364 
L 657.053221 143.770724 
L 657.577641 143.724443 
L 658.102061 143.475314 
L 659.150901 144.11208 
L 659.67532 144.559069 
L 660.19974 144.832279 
L 662.29742 148.420268 
L 662.82184 149.16443 
L 663.34626 149.701702 
L 664.3951 151.2421 
L 665.44394 152.249847 
L 665.96836 152.583436 
L 666.49278 152.780115 
L 667.0172 153.48413 
L 668.06604 154.403029 
L 668.59046 154.310248 
L 670.16372 155.327415 
L 670.68814 156.06625 
L 671.21256 156.286344 
L 671.73698 156.658313 
L 672.2614 156.77711 
L 672.78582 157.417747 
L 673.83466 157.796736 
L 674.35908 158.506465 
L 674.8835 158.391362 
L 675.40792 158.540485 
L 675.93234 158.028552 
L 676.98118 157.837114 
L 676.98118 157.837114 
" clip-path="url(#pcd37d3d1a8)" style="fill: none; stroke: #008fd5; stroke-width: 4"/>
   </g>
   <g id="patch_9">
    <path d="M 395.60364 182.16 
L 395.60364 7.2 
" style="fill: none; stroke: #f0f0f0; stroke-width: 3; stroke-linejoin: miter; stroke-linecap: square"/>
   </g>
   <g id="patch_10">
    <path d="M 690.38011 182.16 
L 690.38011 7.2 
" style="fill: none; stroke: #f0f0f0; stroke-width: 3; stroke-linejoin: miter; stroke-linecap: square"/>
   </g>
   <g id="patch_11">
    <path d="M 395.60364 182.16 
L 690.38011 182.16 
" style="fill: none; stroke: #f0f0f0; stroke-width: 3; stroke-linejoin: miter; stroke-linecap: square"/>
   </g>
   <g id="patch_12">
    <path d="M 395.60364 7.2 
L 690.38011 7.2 
" style="fill: none; stroke: #f0f0f0; stroke-width: 3; stroke-linejoin: miter; stroke-linecap: square"/>
   </g>
   <g id="legend_2">
    <g id="patch_13">
     <path d="M 565.425735 38.949375 
L 680.58011 38.949375 
Q 683.38011 38.949375 683.38011 36.149375 
L 683.38011 17 
Q 683.38011 14.2 680.58011 14.2 
L 565.425735 14.2 
Q 562.625735 14.2 562.625735 17 
L 562.625735 36.149375 
Q 562.625735 38.949375 565.425735 38.949375 
z
" style="fill: #f0f0f0; opacity: 0.8; stroke: #cccccc; stroke-width: 0.5; stroke-linejoin: miter"/>
    </g>
    <g id="line2d_49">
     <path d="M 568.225735 25.537813 
L 582.225735 25.537813 
L 596.225735 25.537813 
" style="fill: none; stroke: #008fd5; stroke-width: 4"/>
    </g>
    <g id="text_24">
     <!-- perplexity -->
     <g transform="translate(607.425735 30.437813) scale(0.14 -0.14)">
      <defs>
       <path id="DejaVuSans-70" d="M 1159 525 
L 1159 -1331 
L 581 -1331 
L 581 3500 
L 1159 3500 
L 1159 2969 
Q 1341 3281 1617 3432 
Q 1894 3584 2278 3584 
Q 2916 3584 3314 3078 
Q 3713 2572 3713 1747 
Q 3713 922 3314 415 
Q 2916 -91 2278 -91 
Q 1894 -91 1617 61 
Q 1341 213 1159 525 
z
M 3116 1747 
Q 3116 2381 2855 2742 
Q 2594 3103 2138 3103 
Q 1681 3103 1420 2742 
Q 1159 2381 1159 1747 
Q 1159 1113 1420 752 
Q 1681 391 2138 391 
Q 2594 391 2855 752 
Q 3116 1113 3116 1747 
z
" transform="scale(0.015625)"/>
       <path id="DejaVuSans-65" d="M 3597 1894 
L 3597 1613 
L 953 1613 
Q 991 1019 1311 708 
Q 1631 397 2203 397 
Q 2534 397 2845 478 
Q 3156 559 3463 722 
L 3463 178 
Q 3153 47 2828 -22 
Q 2503 -91 2169 -91 
Q 1331 -91 842 396 
Q 353 884 353 1716 
Q 353 2575 817 3079 
Q 1281 3584 2069 3584 
Q 2775 3584 3186 3129 
Q 3597 2675 3597 1894 
z
M 3022 2063 
Q 3016 2534 2758 2815 
Q 2500 3097 2075 3097 
Q 1594 3097 1305 2825 
Q 1016 2553 972 2059 
L 3022 2063 
z
" transform="scale(0.015625)"/>
       <path id="DejaVuSans-6c" d="M 603 4863 
L 1178 4863 
L 1178 0 
L 603 0 
L 603 4863 
z
" transform="scale(0.015625)"/>
       <path id="DejaVuSans-78" d="M 3513 3500 
L 2247 1797 
L 3578 0 
L 2900 0 
L 1881 1375 
L 863 0 
L 184 0 
L 1544 1831 
L 300 3500 
L 978 3500 
L 1906 2253 
L 2834 3500 
L 3513 3500 
z
" transform="scale(0.015625)"/>
       <path id="DejaVuSans-69" d="M 603 3500 
L 1178 3500 
L 1178 0 
L 603 0 
L 603 3500 
z
M 603 4863 
L 1178 4863 
L 1178 4134 
L 603 4134 
L 603 4863 
z
" transform="scale(0.015625)"/>
       <path id="DejaVuSans-74" d="M 1172 4494 
L 1172 3500 
L 2356 3500 
L 2356 3053 
L 1172 3053 
L 1172 1153 
Q 1172 725 1289 603 
Q 1406 481 1766 481 
L 2356 481 
L 2356 0 
L 1766 0 
Q 1100 0 847 248 
Q 594 497 594 1153 
L 594 3053 
L 172 3053 
L 172 3500 
L 594 3500 
L 594 4494 
L 1172 4494 
z
" transform="scale(0.015625)"/>
      </defs>
      <use xlink:href="#DejaVuSans-70"/>
      <use xlink:href="#DejaVuSans-65" x="63.476562"/>
      <use xlink:href="#DejaVuSans-72" x="125"/>
      <use xlink:href="#DejaVuSans-70" x="166.113281"/>
      <use xlink:href="#DejaVuSans-6c" x="229.589844"/>
      <use xlink:href="#DejaVuSans-65" x="257.373047"/>
      <use xlink:href="#DejaVuSans-78" x="317.146484"/>
      <use xlink:href="#DejaVuSans-69" x="376.326172"/>
      <use xlink:href="#DejaVuSans-74" x="404.109375"/>
      <use xlink:href="#DejaVuSans-79" x="443.318359"/>
     </g>
    </g>
   </g>
  </g>
  <g id="axes_3">
   <g id="patch_14">
    <path d="M 749.335404 182.16 
L 1044.111875 182.16 
L 1044.111875 7.2 
L 749.335404 7.2 
L 749.335404 182.16 
z
" style="fill: none"/>
   </g>
   <g id="matplotlib.axis_5">
    <g id="xtick_13">
     <g id="line2d_50">
      <path d="M 762.734335 182.16 
L 762.734335 7.2 
" clip-path="url(#p8f497993a2)" style="fill: none; stroke: #cbcbcb"/>
     </g>
     <g id="line2d_51"/>
     <g id="text_25">
      <!-- 0 -->
      <g transform="translate(758.280585 196.297813) scale(0.14 -0.14)">
       <use xlink:href="#DejaVuSans-30"/>
      </g>
     </g>
    </g>
    <g id="xtick_14">
     <g id="line2d_52">
      <path d="M 815.176333 182.16 
L 815.176333 7.2 
" clip-path="url(#p8f497993a2)" style="fill: none; stroke: #cbcbcb"/>
     </g>
     <g id="line2d_53"/>
     <g id="text_26">
      <!-- 100 -->
      <g transform="translate(801.815083 196.297813) scale(0.14 -0.14)">
       <use xlink:href="#DejaVuSans-31"/>
       <use xlink:href="#DejaVuSans-30" x="63.623047"/>
       <use xlink:href="#DejaVuSans-30" x="127.246094"/>
      </g>
     </g>
    </g>
    <g id="xtick_15">
     <g id="line2d_54">
      <path d="M 867.618331 182.16 
L 867.618331 7.2 
" clip-path="url(#p8f497993a2)" style="fill: none; stroke: #cbcbcb"/>
     </g>
     <g id="line2d_55"/>
     <g id="text_27">
      <!-- 200 -->
      <g transform="translate(854.257081 196.297813) scale(0.14 -0.14)">
       <use xlink:href="#DejaVuSans-32"/>
       <use xlink:href="#DejaVuSans-30" x="63.623047"/>
       <use xlink:href="#DejaVuSans-30" x="127.246094"/>
      </g>
     </g>
    </g>
    <g id="xtick_16">
     <g id="line2d_56">
      <path d="M 920.060329 182.16 
L 920.060329 7.2 
" clip-path="url(#p8f497993a2)" style="fill: none; stroke: #cbcbcb"/>
     </g>
     <g id="line2d_57"/>
     <g id="text_28">
      <!-- 300 -->
      <g transform="translate(906.699079 196.297813) scale(0.14 -0.14)">
       <use xlink:href="#DejaVuSans-33"/>
       <use xlink:href="#DejaVuSans-30" x="63.623047"/>
       <use xlink:href="#DejaVuSans-30" x="127.246094"/>
      </g>
     </g>
    </g>
    <g id="xtick_17">
     <g id="line2d_58">
      <path d="M 972.502327 182.16 
L 972.502327 7.2 
" clip-path="url(#p8f497993a2)" style="fill: none; stroke: #cbcbcb"/>
     </g>
     <g id="line2d_59"/>
     <g id="text_29">
      <!-- 400 -->
      <g transform="translate(959.141077 196.297813) scale(0.14 -0.14)">
       <use xlink:href="#DejaVuSans-34"/>
       <use xlink:href="#DejaVuSans-30" x="63.623047"/>
       <use xlink:href="#DejaVuSans-30" x="127.246094"/>
      </g>
     </g>
    </g>
    <g id="xtick_18">
     <g id="line2d_60">
      <path d="M 1024.944325 182.16 
L 1024.944325 7.2 
" clip-path="url(#p8f497993a2)" style="fill: none; stroke: #cbcbcb"/>
     </g>
     <g id="line2d_61"/>
     <g id="text_30">
      <!-- 500 -->
      <g transform="translate(1011.583075 196.297813) scale(0.14 -0.14)">
       <use xlink:href="#DejaVuSans-35"/>
       <use xlink:href="#DejaVuSans-30" x="63.623047"/>
       <use xlink:href="#DejaVuSans-30" x="127.246094"/>
      </g>
     </g>
    </g>
   </g>
   <g id="matplotlib.axis_6">
    <g id="ytick_11">
     <g id="line2d_62">
      <path d="M 749.335404 156.659807 
L 1044.111875 156.659807 
" clip-path="url(#p8f497993a2)" style="fill: none; stroke: #cbcbcb"/>
     </g>
     <g id="line2d_63"/>
     <g id="text_31">
      <!-- 2200 -->
      <g transform="translate(710.205404 161.978713) scale(0.14 -0.14)">
       <use xlink:href="#DejaVuSans-32"/>
       <use xlink:href="#DejaVuSans-32" x="63.623047"/>
       <use xlink:href="#DejaVuSans-30" x="127.246094"/>
       <use xlink:href="#DejaVuSans-30" x="190.869141"/>
      </g>
     </g>
    </g>
    <g id="ytick_12">
     <g id="line2d_64">
      <path d="M 749.335404 122.143213 
L 1044.111875 122.143213 
" clip-path="url(#p8f497993a2)" style="fill: none; stroke: #cbcbcb"/>
     </g>
     <g id="line2d_65"/>
     <g id="text_32">
      <!-- 2400 -->
      <g transform="translate(710.205404 127.462119) scale(0.14 -0.14)">
       <use xlink:href="#DejaVuSans-32"/>
       <use xlink:href="#DejaVuSans-34" x="63.623047"/>
       <use xlink:href="#DejaVuSans-30" x="127.246094"/>
       <use xlink:href="#DejaVuSans-30" x="190.869141"/>
      </g>
     </g>
    </g>
    <g id="ytick_13">
     <g id="line2d_66">
      <path d="M 749.335404 87.626619 
L 1044.111875 87.626619 
" clip-path="url(#p8f497993a2)" style="fill: none; stroke: #cbcbcb"/>
     </g>
     <g id="line2d_67"/>
     <g id="text_33">
      <!-- 2600 -->
      <g transform="translate(710.205404 92.945525) scale(0.14 -0.14)">
       <use xlink:href="#DejaVuSans-32"/>
       <use xlink:href="#DejaVuSans-36" x="63.623047"/>
       <use xlink:href="#DejaVuSans-30" x="127.246094"/>
       <use xlink:href="#DejaVuSans-30" x="190.869141"/>
      </g>
     </g>
    </g>
    <g id="ytick_14">
     <g id="line2d_68">
      <path d="M 749.335404 53.110025 
L 1044.111875 53.110025 
" clip-path="url(#p8f497993a2)" style="fill: none; stroke: #cbcbcb"/>
     </g>
     <g id="line2d_69"/>
     <g id="text_34">
      <!-- 2800 -->
      <g transform="translate(710.205404 58.428932) scale(0.14 -0.14)">
       <use xlink:href="#DejaVuSans-32"/>
       <use xlink:href="#DejaVuSans-38" x="63.623047"/>
       <use xlink:href="#DejaVuSans-30" x="127.246094"/>
       <use xlink:href="#DejaVuSans-30" x="190.869141"/>
      </g>
     </g>
    </g>
    <g id="ytick_15">
     <g id="line2d_70">
      <path d="M 749.335404 18.593432 
L 1044.111875 18.593432 
" clip-path="url(#p8f497993a2)" style="fill: none; stroke: #cbcbcb"/>
     </g>
     <g id="line2d_71"/>
     <g id="text_35">
      <!-- 3000 -->
      <g transform="translate(710.205404 23.912338) scale(0.14 -0.14)">
       <use xlink:href="#DejaVuSans-33"/>
       <use xlink:href="#DejaVuSans-30" x="63.623047"/>
       <use xlink:href="#DejaVuSans-30" x="127.246094"/>
       <use xlink:href="#DejaVuSans-30" x="190.869141"/>
      </g>
     </g>
    </g>
   </g>
   <g id="line2d_72">
    <path d="M 762.734335 37.157856 
L 764.307595 37.157856 
L 764.832015 36.918827 
L 769.027375 33.590074 
L 772.698315 31.392464 
L 773.222734 33.180569 
L 776.893674 49.200575 
L 777.942514 50.130905 
L 781.089034 52.637066 
L 785.284394 71.337753 
L 788.955334 68.917926 
L 789.479754 68.204336 
L 793.150694 57.201371 
L 793.675114 56.54007 
L 797.346054 60.602132 
L 797.870474 59.528713 
L 801.541413 42.395724 
L 802.065833 42.485429 
L 805.736773 51.89158 
L 806.261193 51.766819 
L 809.932133 48.199332 
L 812.029813 41.631868 
L 814.127493 35.144248 
L 818.322853 58.18222 
L 821.993793 52.848159 
L 822.518213 53.010799 
L 826.189152 70.417114 
L 826.713572 71.503932 
L 830.384512 64.875836 
L 830.908932 63.426282 
L 834.579872 50.168446 
L 835.104292 49.928575 
L 838.775232 54.379496 
L 839.299652 52.536153 
L 842.970592 34.649462 
L 843.495012 35.727305 
L 847.165952 46.052663 
L 851.361311 42.063451 
L 855.032251 31.860705 
L 855.556671 31.238463 
L 859.227611 42.753699 
L 859.752031 43.481826 
L 863.422971 38.636399 
L 863.947391 39.883959 
L 867.618331 61.384612 
L 868.142751 62.460222 
L 871.813691 62.078272 
L 872.862531 61.112044 
L 876.009051 57.865242 
L 877.05789 58.722722 
L 880.20441 61.63131 
L 884.39977 44.879048 
L 888.07071 47.246881 
L 888.59513 47.426459 
L 892.26607 45.418918 
L 892.79049 44.723572 
L 896.46143 35.128447 
L 896.98585 36.13403 
L 900.65679 59.807433 
L 901.18121 61.089502 
L 904.852149 61.172043 
L 905.376569 63.045934 
L 909.047509 80.59736 
L 909.571929 80.791938 
L 913.242869 79.718434 
L 917.438229 71.012601 
L 921.109169 68.155249 
L 921.633589 66.843349 
L 925.304529 37.45718 
L 925.828949 34.839826 
L 930.548728 36.336697 
L 933.695248 37.097267 
L 934.219668 37.015105 
L 937.890608 35.495818 
L 938.415028 36.39775 
L 942.085968 45.596978 
L 942.610388 45.340716 
L 946.281328 41.66528 
L 950.476688 56.773664 
L 954.147627 60.135281 
L 954.672047 60.437765 
L 958.342987 58.222248 
L 958.867407 58.130184 
L 962.538347 60.45306 
L 963.062767 59.407745 
L 966.733707 41.186169 
L 967.258127 40.788756 
L 970.929067 48.633992 
L 971.453487 49.096966 
L 975.124427 50.506239 
L 976.173267 49.904347 
L 979.319787 47.833815 
L 981.941886 53.227159 
L 983.515146 56.335591 
L 987.186086 50.666729 
L 987.710506 50.237421 
L 991.905866 58.277065 
L 995.576806 62.497005 
L 996.101226 62.375405 
L 999.772166 55.421609 
L 1000.296586 54.860588 
L 1003.967526 53.153129 
L 1004.491946 51.390895 
L 1008.162885 34.50039 
L 1008.687305 34.16639 
L 1012.358245 34.956497 
L 1016.553605 37.791475 
L 1020.748965 38.128888 
L 1024.419905 42.014449 
L 1024.944325 42.096696 
L 1028.615265 35.488276 
L 1029.139685 34.95814 
L 1030.712945 34.95814 
L 1030.712945 34.95814 
" clip-path="url(#p8f497993a2)" style="fill: none; stroke: #008fd5; stroke-width: 4"/>
   </g>
   <g id="line2d_73">
    <path d="M 762.734335 37.157856 
L 764.307595 37.157856 
L 764.832015 36.918827 
L 769.027375 33.590074 
L 772.698315 31.392464 
L 773.222734 33.180569 
L 776.893674 49.200575 
L 777.942514 50.130905 
L 781.089034 52.637066 
L 785.284394 71.337753 
L 788.955334 68.917926 
L 789.479754 68.204336 
L 793.150694 57.201371 
L 793.675114 56.54007 
L 797.346054 60.602132 
L 797.870474 59.528713 
L 801.541413 42.395724 
L 802.065833 42.485429 
L 805.736773 51.89158 
L 806.261193 51.766819 
L 809.932133 48.199332 
L 812.029813 41.631868 
L 814.127493 35.144248 
L 818.322853 58.18222 
L 821.993793 52.848159 
L 822.518213 53.010799 
L 826.189152 70.417114 
L 826.713572 71.503932 
L 830.384512 64.875836 
L 830.908932 63.426282 
L 834.579872 50.168446 
L 835.104292 49.928575 
L 838.775232 54.379496 
L 839.299652 52.536153 
L 842.970592 34.649462 
L 843.495012 35.727305 
L 847.165952 46.052663 
L 851.361311 42.063451 
L 855.032251 31.860705 
L 855.556671 31.238463 
L 859.227611 42.753699 
L 859.752031 43.481826 
L 863.422971 38.636399 
L 863.947391 39.883959 
L 867.618331 61.384612 
L 868.142751 62.460222 
L 871.813691 62.078272 
L 872.862531 61.112044 
L 876.009051 57.865242 
L 877.05789 58.722722 
L 880.20441 61.63131 
L 884.39977 44.879048 
L 888.07071 47.246881 
L 888.59513 47.426459 
L 892.26607 45.418918 
L 892.79049 44.723572 
L 896.46143 35.128447 
L 896.98585 36.13403 
L 900.65679 63.597474 
L 901.18121 65.421014 
L 904.852149 69.293597 
L 905.376569 71.708916 
L 909.047509 93.050427 
L 909.571929 93.786432 
L 913.242869 96.502971 
L 917.438229 92.12865 
L 921.109169 93.061339 
L 921.633589 92.290868 
L 925.304529 66.694783 
L 925.828949 64.618857 
L 931.597568 72.325049 
L 933.695248 74.997852 
L 934.744088 75.78147 
L 937.890608 77.727874 
L 938.415028 79.171233 
L 942.085968 92.160546 
L 942.610388 92.445712 
L 946.281328 92.560318 
L 950.476688 112.000214 
L 954.672047 119.995827 
L 958.342987 121.570352 
L 958.867407 122.019717 
L 962.538347 128.132676 
L 963.062767 127.62879 
L 966.733707 113.197255 
L 967.258127 113.341271 
L 970.929067 124.97659 
L 971.453487 125.980993 
L 975.124427 131.180308 
L 976.173267 131.661315 
L 979.319787 132.839396 
L 983.515146 145.672642 
L 987.186086 143.793864 
L 987.710506 143.905984 
L 991.905866 156.277099 
L 995.576806 164.287123 
L 996.101226 164.706951 
L 999.772166 161.543197 
L 1000.296586 161.523646 
L 1003.967526 163.606229 
L 1004.491946 162.385424 
L 1008.162885 149.285003 
L 1008.687305 149.492431 
L 1012.358245 154.072579 
L 1016.553605 161.23907 
L 1020.748965 165.907953 
L 1024.419905 173.583598 
L 1024.944325 174.207273 
L 1028.615265 171.388895 
L 1029.139685 171.400187 
L 1030.712945 173.024515 
L 1030.712945 173.024515 
" clip-path="url(#p8f497993a2)" style="fill: none; stroke: #fc4f30; stroke-width: 4"/>
   </g>
   <g id="line2d_74">
    <path d="M 762.734335 30.840924 
L 764.307595 30.840924 
L 764.832015 30.443511 
L 768.502955 25.489293 
L 769.551795 23.049072 
L 772.698315 15.152727 
L 773.222734 17.605504 
L 776.893674 41.055889 
L 777.418094 41.37885 
L 780.564614 41.965404 
L 781.089034 42.207931 
L 785.284394 63.943315 
L 788.955334 61.614793 
L 789.479754 60.679322 
L 793.150694 44.285331 
L 793.675114 43.600561 
L 797.346054 54.626447 
L 797.870474 53.853531 
L 801.541413 34.78522 
L 802.065833 35.120948 
L 805.736773 48.057128 
L 806.261193 48.956574 
L 809.932133 53.512073 
L 810.980973 48.029488 
L 814.127493 30.954308 
L 817.798433 60.169368 
L 818.322853 63.39624 
L 821.993793 51.587453 
L 822.518213 50.907065 
L 826.189152 63.854242 
L 826.713572 64.728913 
L 830.384512 60.936975 
L 830.908932 59.267985 
L 834.579872 40.609137 
L 835.104292 40.283015 
L 838.775232 46.669344 
L 839.299652 44.706676 
L 842.970592 25.189379 
L 843.495012 25.819964 
L 847.165952 32.868184 
L 850.836891 32.353216 
L 851.361311 31.968317 
L 855.032251 16.542576 
L 855.556671 15.539354 
L 859.227611 31.326313 
L 859.752031 32.39358 
L 863.422971 26.982624 
L 863.947391 28.641502 
L 867.618331 56.259917 
L 868.142751 58.410252 
L 871.813691 66.347131 
L 872.338111 66.73283 
L 876.009051 67.792934 
L 878.10673 69.664634 
L 880.20441 71.553187 
L 884.39977 54.004541 
L 890.16839 47.053358 
L 892.26607 44.667322 
L 892.79049 43.845067 
L 896.46143 35.476816 
L 896.98585 35.775844 
L 900.65679 48.330413 
L 901.18121 48.650846 
L 904.852149 44.65544 
L 905.376569 49.161937 
L 909.047509 92.798252 
L 909.571929 93.227981 
L 913.242869 90.12389 
L 917.438229 92.118875 
L 921.109169 85.413251 
L 921.633589 83.731157 
L 925.304529 55.767196 
L 925.828949 53.467579 
L 929.499888 58.326489 
L 930.024308 58.526122 
L 933.695248 56.242895 
L 934.219668 54.134947 
L 937.890608 31.327451 
L 938.415028 35.463375 
L 942.085968 83.484375 
L 942.610388 84.269173 
L 946.281328 82.483428 
L 950.476688 86.93949 
L 954.147627 87.015795 
L 954.672047 86.596472 
L 958.342987 73.172585 
L 958.867407 73.414226 
L 962.538347 103.657116 
L 963.062767 106.56503 
L 967.258127 117.308067 
L 970.929067 129.578227 
L 971.453487 130.326325 
L 975.124427 132.764776 
L 976.173267 135.992069 
L 979.319787 146.341022 
L 981.417466 133.933166 
L 984.039566 118.650599 
L 987.186086 102.310919 
L 987.710506 100.220794 
L 991.905866 102.746505 
L 995.576806 103.367694 
L 996.101226 105.528984 
L 999.772166 138.116744 
L 1000.296586 140.352781 
L 1003.967526 143.585804 
L 1004.491946 142.94161 
L 1008.162885 135.113649 
L 1008.687305 136.303528 
L 1012.358245 148.105405 
L 1013.407085 147.5901 
L 1016.029185 146.032977 
L 1016.553605 145.175287 
L 1020.224545 87.763767 
L 1020.748965 81.330543 
L 1024.944325 89.207001 
L 1028.615265 94.453169 
L 1029.139685 94.874008 
L 1030.712945 94.874008 
L 1030.712945 94.874008 
" clip-path="url(#p8f497993a2)" style="fill: none; stroke: #e5ae38; stroke-width: 4"/>
   </g>
   <g id="patch_15">
    <path d="M 749.335404 182.16 
L 749.335404 7.2 
" style="fill: none; stroke: #f0f0f0; stroke-width: 3; stroke-linejoin: miter; stroke-linecap: square"/>
   </g>
   <g id="patch_16">
    <path d="M 1044.111875 182.16 
L 1044.111875 7.2 
" style="fill: none; stroke: #f0f0f0; stroke-width: 3; stroke-linejoin: miter; stroke-linecap: square"/>
   </g>
   <g id="patch_17">
    <path d="M 749.335404 182.16 
L 1044.111875 182.16 
" style="fill: none; stroke: #f0f0f0; stroke-width: 3; stroke-linejoin: miter; stroke-linecap: square"/>
   </g>
   <g id="patch_18">
    <path d="M 749.335404 7.2 
L 1044.111875 7.2 
" style="fill: none; stroke: #f0f0f0; stroke-width: 3; stroke-linejoin: miter; stroke-linecap: square"/>
   </g>
   <g id="legend_3">
    <g id="patch_19">
     <path d="M 759.135404 175.16 
L 908.410404 175.16 
Q 911.210404 175.16 911.210404 172.36 
L 911.210404 112.111875 
Q 911.210404 109.311875 908.410404 109.311875 
L 759.135404 109.311875 
Q 756.335404 109.311875 756.335404 112.111875 
L 756.335404 172.36 
Q 756.335404 175.16 759.135404 175.16 
z
" style="fill: #f0f0f0; opacity: 0.8; stroke: #cccccc; stroke-width: 0.5; stroke-linejoin: miter"/>
    </g>
    <g id="line2d_75">
     <path d="M 761.935404 120.649688 
L 775.935404 120.649688 
L 789.935404 120.649688 
" style="fill: none; stroke: #008fd5; stroke-width: 4"/>
    </g>
    <g id="text_36">
     <!-- target centroid -->
     <g transform="translate(801.135404 125.549688) scale(0.14 -0.14)">
      <defs>
       <path id="DejaVuSans-67" d="M 2906 1791 
Q 2906 2416 2648 2759 
Q 2391 3103 1925 3103 
Q 1463 3103 1205 2759 
Q 947 2416 947 1791 
Q 947 1169 1205 825 
Q 1463 481 1925 481 
Q 2391 481 2648 825 
Q 2906 1169 2906 1791 
z
M 3481 434 
Q 3481 -459 3084 -895 
Q 2688 -1331 1869 -1331 
Q 1566 -1331 1297 -1286 
Q 1028 -1241 775 -1147 
L 775 -588 
Q 1028 -725 1275 -790 
Q 1522 -856 1778 -856 
Q 2344 -856 2625 -561 
Q 2906 -266 2906 331 
L 2906 616 
Q 2728 306 2450 153 
Q 2172 0 1784 0 
Q 1141 0 747 490 
Q 353 981 353 1791 
Q 353 2603 747 3093 
Q 1141 3584 1784 3584 
Q 2172 3584 2450 3431 
Q 2728 3278 2906 2969 
L 2906 3500 
L 3481 3500 
L 3481 434 
z
" transform="scale(0.015625)"/>
       <path id="DejaVuSans-20" transform="scale(0.015625)"/>
       <path id="DejaVuSans-6e" d="M 3513 2113 
L 3513 0 
L 2938 0 
L 2938 2094 
Q 2938 2591 2744 2837 
Q 2550 3084 2163 3084 
Q 1697 3084 1428 2787 
Q 1159 2491 1159 1978 
L 1159 0 
L 581 0 
L 581 3500 
L 1159 3500 
L 1159 2956 
Q 1366 3272 1645 3428 
Q 1925 3584 2291 3584 
Q 2894 3584 3203 3211 
Q 3513 2838 3513 2113 
z
" transform="scale(0.015625)"/>
       <path id="DejaVuSans-6f" d="M 1959 3097 
Q 1497 3097 1228 2736 
Q 959 2375 959 1747 
Q 959 1119 1226 758 
Q 1494 397 1959 397 
Q 2419 397 2687 759 
Q 2956 1122 2956 1747 
Q 2956 2369 2687 2733 
Q 2419 3097 1959 3097 
z
M 1959 3584 
Q 2709 3584 3137 3096 
Q 3566 2609 3566 1747 
Q 3566 888 3137 398 
Q 2709 -91 1959 -91 
Q 1206 -91 779 398 
Q 353 888 353 1747 
Q 353 2609 779 3096 
Q 1206 3584 1959 3584 
z
" transform="scale(0.015625)"/>
       <path id="DejaVuSans-64" d="M 2906 2969 
L 2906 4863 
L 3481 4863 
L 3481 0 
L 2906 0 
L 2906 525 
Q 2725 213 2448 61 
Q 2172 -91 1784 -91 
Q 1150 -91 751 415 
Q 353 922 353 1747 
Q 353 2572 751 3078 
Q 1150 3584 1784 3584 
Q 2172 3584 2448 3432 
Q 2725 3281 2906 2969 
z
M 947 1747 
Q 947 1113 1208 752 
Q 1469 391 1925 391 
Q 2381 391 2643 752 
Q 2906 1113 2906 1747 
Q 2906 2381 2643 2742 
Q 2381 3103 1925 3103 
Q 1469 3103 1208 2742 
Q 947 2381 947 1747 
z
" transform="scale(0.015625)"/>
      </defs>
      <use xlink:href="#DejaVuSans-74"/>
      <use xlink:href="#DejaVuSans-61" x="39.208984"/>
      <use xlink:href="#DejaVuSans-72" x="100.488281"/>
      <use xlink:href="#DejaVuSans-67" x="139.851562"/>
      <use xlink:href="#DejaVuSans-65" x="203.328125"/>
      <use xlink:href="#DejaVuSans-74" x="264.851562"/>
      <use xlink:href="#DejaVuSans-20" x="304.060547"/>
      <use xlink:href="#DejaVuSans-63" x="335.847656"/>
      <use xlink:href="#DejaVuSans-65" x="390.828125"/>
      <use xlink:href="#DejaVuSans-6e" x="452.351562"/>
      <use xlink:href="#DejaVuSans-74" x="515.730469"/>
      <use xlink:href="#DejaVuSans-72" x="554.939453"/>
      <use xlink:href="#DejaVuSans-6f" x="593.802734"/>
      <use xlink:href="#DejaVuSans-69" x="654.984375"/>
      <use xlink:href="#DejaVuSans-64" x="682.767578"/>
     </g>
    </g>
    <g id="line2d_76">
     <path d="M 761.935404 141.199063 
L 775.935404 141.199063 
L 789.935404 141.199063 
" style="fill: none; stroke: #fc4f30; stroke-width: 4"/>
    </g>
    <g id="text_37">
     <!-- biased target -->
     <g transform="translate(801.135404 146.099063) scale(0.14 -0.14)">
      <defs>
       <path id="DejaVuSans-62" d="M 3116 1747 
Q 3116 2381 2855 2742 
Q 2594 3103 2138 3103 
Q 1681 3103 1420 2742 
Q 1159 2381 1159 1747 
Q 1159 1113 1420 752 
Q 1681 391 2138 391 
Q 2594 391 2855 752 
Q 3116 1113 3116 1747 
z
M 1159 2969 
Q 1341 3281 1617 3432 
Q 1894 3584 2278 3584 
Q 2916 3584 3314 3078 
Q 3713 2572 3713 1747 
Q 3713 922 3314 415 
Q 2916 -91 2278 -91 
Q 1894 -91 1617 61 
Q 1341 213 1159 525 
L 1159 0 
L 581 0 
L 581 4863 
L 1159 4863 
L 1159 2969 
z
" transform="scale(0.015625)"/>
       <path id="DejaVuSans-73" d="M 2834 3397 
L 2834 2853 
Q 2591 2978 2328 3040 
Q 2066 3103 1784 3103 
Q 1356 3103 1142 2972 
Q 928 2841 928 2578 
Q 928 2378 1081 2264 
Q 1234 2150 1697 2047 
L 1894 2003 
Q 2506 1872 2764 1633 
Q 3022 1394 3022 966 
Q 3022 478 2636 193 
Q 2250 -91 1575 -91 
Q 1294 -91 989 -36 
Q 684 19 347 128 
L 347 722 
Q 666 556 975 473 
Q 1284 391 1588 391 
Q 1994 391 2212 530 
Q 2431 669 2431 922 
Q 2431 1156 2273 1281 
Q 2116 1406 1581 1522 
L 1381 1569 
Q 847 1681 609 1914 
Q 372 2147 372 2553 
Q 372 3047 722 3315 
Q 1072 3584 1716 3584 
Q 2034 3584 2315 3537 
Q 2597 3491 2834 3397 
z
" transform="scale(0.015625)"/>
      </defs>
      <use xlink:href="#DejaVuSans-62"/>
      <use xlink:href="#DejaVuSans-69" x="63.476562"/>
      <use xlink:href="#DejaVuSans-61" x="91.259766"/>
      <use xlink:href="#DejaVuSans-73" x="152.539062"/>
      <use xlink:href="#DejaVuSans-65" x="204.638672"/>
      <use xlink:href="#DejaVuSans-64" x="266.162109"/>
      <use xlink:href="#DejaVuSans-20" x="329.638672"/>
      <use xlink:href="#DejaVuSans-74" x="361.425781"/>
      <use xlink:href="#DejaVuSans-61" x="400.634766"/>
      <use xlink:href="#DejaVuSans-72" x="461.914062"/>
      <use xlink:href="#DejaVuSans-67" x="501.277344"/>
      <use xlink:href="#DejaVuSans-65" x="564.753906"/>
      <use xlink:href="#DejaVuSans-74" x="626.277344"/>
     </g>
    </g>
    <g id="line2d_77">
     <path d="M 761.935404 161.748438 
L 775.935404 161.748438 
L 789.935404 161.748438 
" style="fill: none; stroke: #e5ae38; stroke-width: 4"/>
    </g>
    <g id="text_38">
     <!-- gen centroid -->
     <g transform="translate(801.135404 166.648438) scale(0.14 -0.14)">
      <use xlink:href="#DejaVuSans-67"/>
      <use xlink:href="#DejaVuSans-65" x="63.476562"/>
      <use xlink:href="#DejaVuSans-6e" x="125"/>
      <use xlink:href="#DejaVuSans-20" x="188.378906"/>
      <use xlink:href="#DejaVuSans-63" x="220.166016"/>
      <use xlink:href="#DejaVuSans-65" x="275.146484"/>
      <use xlink:href="#DejaVuSans-6e" x="336.669922"/>
      <use xlink:href="#DejaVuSans-74" x="400.048828"/>
      <use xlink:href="#DejaVuSans-72" x="439.257812"/>
      <use xlink:href="#DejaVuSans-6f" x="478.121094"/>
      <use xlink:href="#DejaVuSans-69" x="539.302734"/>
      <use xlink:href="#DejaVuSans-64" x="567.085938"/>
     </g>
    </g>
   </g>
  </g>
 </g>
 <defs>
  <clipPath id="pc8e76633e7">
   <rect x="41.871875" y="7.2" width="294.776471" height="174.96"/>
  </clipPath>
  <clipPath id="pcd37d3d1a8">
   <rect x="395.60364" y="7.2" width="294.776471" height="174.96"/>
  </clipPath>
  <clipPath id="p8f497993a2">
   <rect x="749.335404" y="7.2" width="294.776471" height="174.96"/>
  </clipPath>
 </defs>
</svg>
