<?xml version="1.0" encoding="utf-8" standalone="no"?>
<!DOCTYPE svg PUBLIC "-//W3C//DTD SVG 1.1//EN"
  "http://www.w3.org/Graphics/SVG/1.1/DTD/svg11.dtd">
<svg xmlns:xlink="http://www.w3.org/1999/xlink" width="1051.311875pt" height="206.409375pt" viewBox="0 0 1051.311875 206.409375" xmlns="http://www.w3.org/2000/svg" version="1.1">
 <metadata>
  <rdf:RDF xmlns:dc="http://purl.org/dc/elements/1.1/" xmlns:cc="http://creativecommons.org/ns#" xmlns:rdf="http://www.w3.org/1999/02/22-rdf-syntax-ns#">
   <cc:Work>
    <dc:type rdf:resource="http://purl.org/dc/dcmitype/StillImage"/>
    <dc:date>2023-01-19T14:55:20.730783</dc:date>
    <dc:format>image/svg+xml</dc:format>
    <dc:creator>
     <cc:Agent>
      <dc:title>Matplotlib v3.6.0, https://matplotlib.org/</dc:title>
     </cc:Agent>
    </dc:creator>
   </cc:Work>
  </rdf:RDF>
 </metadata>
 <defs>
  <style type="text/css">*{stroke-linejoin: round; stroke-linecap: butt}</style>
 </defs>
 <g id="figure_1">
  <g id="patch_1">
   <path d="M 0 206.409375 
L 1051.311875 206.409375 
L 1051.311875 0 
L 0 0 
L 0 206.409375 
z
" style="fill: none"/>
  </g>
  <g id="axes_1">
   <g id="patch_2">
    <path d="M 41.871875 182.16 
L 336.648346 182.16 
L 336.648346 7.2 
L 41.871875 7.2 
L 41.871875 182.16 
z
" style="fill: none"/>
   </g>
   <g id="matplotlib.axis_1">
    <g id="xtick_1">
     <g id="line2d_1">
      <path d="M 55.270805 182.16 
L 55.270805 7.2 
" clip-path="url(#p4274e4f2ce)" style="fill: none; stroke: #cbcbcb"/>
     </g>
     <g id="line2d_2"/>
     <g id="text_1">
      <!-- 0 -->
      <g transform="translate(50.817055 196.297813) scale(0.14 -0.14)">
       <defs>
        <path id="DejaVuSans-30" d="M 2034 4250 
Q 1547 4250 1301 3770 
Q 1056 3291 1056 2328 
Q 1056 1369 1301 889 
Q 1547 409 2034 409 
Q 2525 409 2770 889 
Q 3016 1369 3016 2328 
Q 3016 3291 2770 3770 
Q 2525 4250 2034 4250 
z
M 2034 4750 
Q 2819 4750 3233 4129 
Q 3647 3509 3647 2328 
Q 3647 1150 3233 529 
Q 2819 -91 2034 -91 
Q 1250 -91 836 529 
Q 422 1150 422 2328 
Q 422 3509 836 4129 
Q 1250 4750 2034 4750 
z
" transform="scale(0.015625)"/>
       </defs>
       <use xlink:href="#DejaVuSans-30"/>
      </g>
     </g>
    </g>
    <g id="xtick_2">
     <g id="line2d_3">
      <path d="M 107.712803 182.16 
L 107.712803 7.2 
" clip-path="url(#p4274e4f2ce)" style="fill: none; stroke: #cbcbcb"/>
     </g>
     <g id="line2d_4"/>
     <g id="text_2">
      <!-- 100 -->
      <g transform="translate(94.351553 196.297813) scale(0.14 -0.14)">
       <defs>
        <path id="DejaVuSans-31" d="M 794 531 
L 1825 531 
L 1825 4091 
L 703 3866 
L 703 4441 
L 1819 4666 
L 2450 4666 
L 2450 531 
L 3481 531 
L 3481 0 
L 794 0 
L 794 531 
z
" transform="scale(0.015625)"/>
       </defs>
       <use xlink:href="#DejaVuSans-31"/>
       <use xlink:href="#DejaVuSans-30" x="63.623047"/>
       <use xlink:href="#DejaVuSans-30" x="127.246094"/>
      </g>
     </g>
    </g>
    <g id="xtick_3">
     <g id="line2d_5">
      <path d="M 160.154801 182.16 
L 160.154801 7.2 
" clip-path="url(#p4274e4f2ce)" style="fill: none; stroke: #cbcbcb"/>
     </g>
     <g id="line2d_6"/>
     <g id="text_3">
      <!-- 200 -->
      <g transform="translate(146.793551 196.297813) scale(0.14 -0.14)">
       <defs>
        <path id="DejaVuSans-32" d="M 1228 531 
L 3431 531 
L 3431 0 
L 469 0 
L 469 531 
Q 828 903 1448 1529 
Q 2069 2156 2228 2338 
Q 2531 2678 2651 2914 
Q 2772 3150 2772 3378 
Q 2772 3750 2511 3984 
Q 2250 4219 1831 4219 
Q 1534 4219 1204 4116 
Q 875 4013 500 3803 
L 500 4441 
Q 881 4594 1212 4672 
Q 1544 4750 1819 4750 
Q 2544 4750 2975 4387 
Q 3406 4025 3406 3419 
Q 3406 3131 3298 2873 
Q 3191 2616 2906 2266 
Q 2828 2175 2409 1742 
Q 1991 1309 1228 531 
z
" transform="scale(0.015625)"/>
       </defs>
       <use xlink:href="#DejaVuSans-32"/>
       <use xlink:href="#DejaVuSans-30" x="63.623047"/>
       <use xlink:href="#DejaVuSans-30" x="127.246094"/>
      </g>
     </g>
    </g>
    <g id="xtick_4">
     <g id="line2d_7">
      <path d="M 212.596799 182.16 
L 212.596799 7.2 
" clip-path="url(#p4274e4f2ce)" style="fill: none; stroke: #cbcbcb"/>
     </g>
     <g id="line2d_8"/>
     <g id="text_4">
      <!-- 300 -->
      <g transform="translate(199.235549 196.297813) scale(0.14 -0.14)">
       <defs>
        <path id="DejaVuSans-33" d="M 2597 2516 
Q 3050 2419 3304 2112 
Q 3559 1806 3559 1356 
Q 3559 666 3084 287 
Q 2609 -91 1734 -91 
Q 1441 -91 1130 -33 
Q 819 25 488 141 
L 488 750 
Q 750 597 1062 519 
Q 1375 441 1716 441 
Q 2309 441 2620 675 
Q 2931 909 2931 1356 
Q 2931 1769 2642 2001 
Q 2353 2234 1838 2234 
L 1294 2234 
L 1294 2753 
L 1863 2753 
Q 2328 2753 2575 2939 
Q 2822 3125 2822 3475 
Q 2822 3834 2567 4026 
Q 2313 4219 1838 4219 
Q 1578 4219 1281 4162 
Q 984 4106 628 3988 
L 628 4550 
Q 988 4650 1302 4700 
Q 1616 4750 1894 4750 
Q 2613 4750 3031 4423 
Q 3450 4097 3450 3541 
Q 3450 3153 3228 2886 
Q 3006 2619 2597 2516 
z
" transform="scale(0.015625)"/>
       </defs>
       <use xlink:href="#DejaVuSans-33"/>
       <use xlink:href="#DejaVuSans-30" x="63.623047"/>
       <use xlink:href="#DejaVuSans-30" x="127.246094"/>
      </g>
     </g>
    </g>
    <g id="xtick_5">
     <g id="line2d_9">
      <path d="M 265.038797 182.16 
L 265.038797 7.2 
" clip-path="url(#p4274e4f2ce)" style="fill: none; stroke: #cbcbcb"/>
     </g>
     <g id="line2d_10"/>
     <g id="text_5">
      <!-- 400 -->
      <g transform="translate(251.677547 196.297813) scale(0.14 -0.14)">
       <defs>
        <path id="DejaVuSans-34" d="M 2419 4116 
L 825 1625 
L 2419 1625 
L 2419 4116 
z
M 2253 4666 
L 3047 4666 
L 3047 1625 
L 3713 1625 
L 3713 1100 
L 3047 1100 
L 3047 0 
L 2419 0 
L 2419 1100 
L 313 1100 
L 313 1709 
L 2253 4666 
z
" transform="scale(0.015625)"/>
       </defs>
       <use xlink:href="#DejaVuSans-34"/>
       <use xlink:href="#DejaVuSans-30" x="63.623047"/>
       <use xlink:href="#DejaVuSans-30" x="127.246094"/>
      </g>
     </g>
    </g>
    <g id="xtick_6">
     <g id="line2d_11">
      <path d="M 317.480795 182.16 
L 317.480795 7.2 
" clip-path="url(#p4274e4f2ce)" style="fill: none; stroke: #cbcbcb"/>
     </g>
     <g id="line2d_12"/>
     <g id="text_6">
      <!-- 500 -->
      <g transform="translate(304.119545 196.297813) scale(0.14 -0.14)">
       <defs>
        <path id="DejaVuSans-35" d="M 691 4666 
L 3169 4666 
L 3169 4134 
L 1269 4134 
L 1269 2991 
Q 1406 3038 1543 3061 
Q 1681 3084 1819 3084 
Q 2600 3084 3056 2656 
Q 3513 2228 3513 1497 
Q 3513 744 3044 326 
Q 2575 -91 1722 -91 
Q 1428 -91 1123 -41 
Q 819 9 494 109 
L 494 744 
Q 775 591 1075 516 
Q 1375 441 1709 441 
Q 2250 441 2565 725 
Q 2881 1009 2881 1497 
Q 2881 1984 2565 2268 
Q 2250 2553 1709 2553 
Q 1456 2553 1204 2497 
Q 953 2441 691 2322 
L 691 4666 
z
" transform="scale(0.015625)"/>
       </defs>
       <use xlink:href="#DejaVuSans-35"/>
       <use xlink:href="#DejaVuSans-30" x="63.623047"/>
       <use xlink:href="#DejaVuSans-30" x="127.246094"/>
      </g>
     </g>
    </g>
   </g>
   <g id="matplotlib.axis_2">
    <g id="ytick_1">
     <g id="line2d_13">
      <path d="M 41.871875 174.207273 
L 336.648346 174.207273 
" clip-path="url(#p4274e4f2ce)" style="fill: none; stroke: #cbcbcb"/>
     </g>
     <g id="line2d_14"/>
     <g id="text_7">
      <!-- 0.00 -->
      <g transform="translate(7.2 179.526179) scale(0.14 -0.14)">
       <defs>
        <path id="DejaVuSans-2e" d="M 684 794 
L 1344 794 
L 1344 0 
L 684 0 
L 684 794 
z
" transform="scale(0.015625)"/>
       </defs>
       <use xlink:href="#DejaVuSans-30"/>
       <use xlink:href="#DejaVuSans-2e" x="63.623047"/>
       <use xlink:href="#DejaVuSans-30" x="95.410156"/>
       <use xlink:href="#DejaVuSans-30" x="159.033203"/>
      </g>
     </g>
    </g>
    <g id="ytick_2">
     <g id="line2d_15">
      <path d="M 41.871875 141.921574 
L 336.648346 141.921574 
" clip-path="url(#p4274e4f2ce)" style="fill: none; stroke: #cbcbcb"/>
     </g>
     <g id="line2d_16"/>
     <g id="text_8">
      <!-- 0.02 -->
      <g transform="translate(7.2 147.240481) scale(0.14 -0.14)">
       <use xlink:href="#DejaVuSans-30"/>
       <use xlink:href="#DejaVuSans-2e" x="63.623047"/>
       <use xlink:href="#DejaVuSans-30" x="95.410156"/>
       <use xlink:href="#DejaVuSans-32" x="159.033203"/>
      </g>
     </g>
    </g>
    <g id="ytick_3">
     <g id="line2d_17">
      <path d="M 41.871875 109.635876 
L 336.648346 109.635876 
" clip-path="url(#p4274e4f2ce)" style="fill: none; stroke: #cbcbcb"/>
     </g>
     <g id="line2d_18"/>
     <g id="text_9">
      <!-- 0.04 -->
      <g transform="translate(7.2 114.954782) scale(0.14 -0.14)">
       <use xlink:href="#DejaVuSans-30"/>
       <use xlink:href="#DejaVuSans-2e" x="63.623047"/>
       <use xlink:href="#DejaVuSans-30" x="95.410156"/>
       <use xlink:href="#DejaVuSans-34" x="159.033203"/>
      </g>
     </g>
    </g>
    <g id="ytick_4">
     <g id="line2d_19">
      <path d="M 41.871875 77.350178 
L 336.648346 77.350178 
" clip-path="url(#p4274e4f2ce)" style="fill: none; stroke: #cbcbcb"/>
     </g>
     <g id="line2d_20"/>
     <g id="text_10">
      <!-- 0.06 -->
      <g transform="translate(7.2 82.669084) scale(0.14 -0.14)">
       <defs>
        <path id="DejaVuSans-36" d="M 2113 2584 
Q 1688 2584 1439 2293 
Q 1191 2003 1191 1497 
Q 1191 994 1439 701 
Q 1688 409 2113 409 
Q 2538 409 2786 701 
Q 3034 994 3034 1497 
Q 3034 2003 2786 2293 
Q 2538 2584 2113 2584 
z
M 3366 4563 
L 3366 3988 
Q 3128 4100 2886 4159 
Q 2644 4219 2406 4219 
Q 1781 4219 1451 3797 
Q 1122 3375 1075 2522 
Q 1259 2794 1537 2939 
Q 1816 3084 2150 3084 
Q 2853 3084 3261 2657 
Q 3669 2231 3669 1497 
Q 3669 778 3244 343 
Q 2819 -91 2113 -91 
Q 1303 -91 875 529 
Q 447 1150 447 2328 
Q 447 3434 972 4092 
Q 1497 4750 2381 4750 
Q 2619 4750 2861 4703 
Q 3103 4656 3366 4563 
z
" transform="scale(0.015625)"/>
       </defs>
       <use xlink:href="#DejaVuSans-30"/>
       <use xlink:href="#DejaVuSans-2e" x="63.623047"/>
       <use xlink:href="#DejaVuSans-30" x="95.410156"/>
       <use xlink:href="#DejaVuSans-36" x="159.033203"/>
      </g>
     </g>
    </g>
    <g id="ytick_5">
     <g id="line2d_21">
      <path d="M 41.871875 45.06448 
L 336.648346 45.06448 
" clip-path="url(#p4274e4f2ce)" style="fill: none; stroke: #cbcbcb"/>
     </g>
     <g id="line2d_22"/>
     <g id="text_11">
      <!-- 0.08 -->
      <g transform="translate(7.2 50.383386) scale(0.14 -0.14)">
       <defs>
        <path id="DejaVuSans-38" d="M 2034 2216 
Q 1584 2216 1326 1975 
Q 1069 1734 1069 1313 
Q 1069 891 1326 650 
Q 1584 409 2034 409 
Q 2484 409 2743 651 
Q 3003 894 3003 1313 
Q 3003 1734 2745 1975 
Q 2488 2216 2034 2216 
z
M 1403 2484 
Q 997 2584 770 2862 
Q 544 3141 544 3541 
Q 544 4100 942 4425 
Q 1341 4750 2034 4750 
Q 2731 4750 3128 4425 
Q 3525 4100 3525 3541 
Q 3525 3141 3298 2862 
Q 3072 2584 2669 2484 
Q 3125 2378 3379 2068 
Q 3634 1759 3634 1313 
Q 3634 634 3220 271 
Q 2806 -91 2034 -91 
Q 1263 -91 848 271 
Q 434 634 434 1313 
Q 434 1759 690 2068 
Q 947 2378 1403 2484 
z
M 1172 3481 
Q 1172 3119 1398 2916 
Q 1625 2713 2034 2713 
Q 2441 2713 2670 2916 
Q 2900 3119 2900 3481 
Q 2900 3844 2670 4047 
Q 2441 4250 2034 4250 
Q 1625 4250 1398 4047 
Q 1172 3844 1172 3481 
z
" transform="scale(0.015625)"/>
       </defs>
       <use xlink:href="#DejaVuSans-30"/>
       <use xlink:href="#DejaVuSans-2e" x="63.623047"/>
       <use xlink:href="#DejaVuSans-30" x="95.410156"/>
       <use xlink:href="#DejaVuSans-38" x="159.033203"/>
      </g>
     </g>
    </g>
    <g id="ytick_6">
     <g id="line2d_23">
      <path d="M 41.871875 12.778781 
L 336.648346 12.778781 
" clip-path="url(#p4274e4f2ce)" style="fill: none; stroke: #cbcbcb"/>
     </g>
     <g id="line2d_24"/>
     <g id="text_12">
      <!-- 0.10 -->
      <g transform="translate(7.2 18.097688) scale(0.14 -0.14)">
       <use xlink:href="#DejaVuSans-30"/>
       <use xlink:href="#DejaVuSans-2e" x="63.623047"/>
       <use xlink:href="#DejaVuSans-31" x="95.410156"/>
       <use xlink:href="#DejaVuSans-30" x="159.033203"/>
      </g>
     </g>
    </g>
   </g>
   <g id="line2d_25">
    <path d="M 55.270805 15.152727 
L 188.9979 15.152727 
L 189.52232 174.207273 
L 323.249415 174.207273 
L 323.249415 174.207273 
" clip-path="url(#p4274e4f2ce)" style="fill: none; stroke: #008fd5; stroke-width: 4"/>
   </g>
   <g id="patch_3">
    <path d="M 41.871875 182.16 
L 41.871875 7.2 
" style="fill: none; stroke: #f0f0f0; stroke-width: 3; stroke-linejoin: miter; stroke-linecap: square"/>
   </g>
   <g id="patch_4">
    <path d="M 336.648346 182.16 
L 336.648346 7.2 
" style="fill: none; stroke: #f0f0f0; stroke-width: 3; stroke-linejoin: miter; stroke-linecap: square"/>
   </g>
   <g id="patch_5">
    <path d="M 41.871875 182.16 
L 336.648346 182.16 
" style="fill: none; stroke: #f0f0f0; stroke-width: 3; stroke-linejoin: miter; stroke-linecap: square"/>
   </g>
   <g id="patch_6">
    <path d="M 41.871875 7.2 
L 336.648346 7.2 
" style="fill: none; stroke: #f0f0f0; stroke-width: 3; stroke-linejoin: miter; stroke-linecap: square"/>
   </g>
   <g id="legend_1">
    <g id="patch_7">
     <path d="M 218.882096 38.949375 
L 326.848346 38.949375 
Q 329.648346 38.949375 329.648346 36.149375 
L 329.648346 17 
Q 329.648346 14.2 326.848346 14.2 
L 218.882096 14.2 
Q 216.082096 14.2 216.082096 17 
L 216.082096 36.149375 
Q 216.082096 38.949375 218.882096 38.949375 
z
" style="fill: #f0f0f0; opacity: 0.8; stroke: #cccccc; stroke-width: 0.5; stroke-linejoin: miter"/>
    </g>
    <g id="line2d_26">
     <path d="M 221.682096 25.537813 
L 235.682096 25.537813 
L 249.682096 25.537813 
" style="fill: none; stroke: #008fd5; stroke-width: 4"/>
    </g>
    <g id="text_13">
     <!-- accuracy -->
     <g transform="translate(260.882096 30.437813) scale(0.14 -0.14)">
      <defs>
       <path id="DejaVuSans-61" d="M 2194 1759 
Q 1497 1759 1228 1600 
Q 959 1441 959 1056 
Q 959 750 1161 570 
Q 1363 391 1709 391 
Q 2188 391 2477 730 
Q 2766 1069 2766 1631 
L 2766 1759 
L 2194 1759 
z
M 3341 1997 
L 3341 0 
L 2766 0 
L 2766 531 
Q 2569 213 2275 61 
Q 1981 -91 1556 -91 
Q 1019 -91 701 211 
Q 384 513 384 1019 
Q 384 1609 779 1909 
Q 1175 2209 1959 2209 
L 2766 2209 
L 2766 2266 
Q 2766 2663 2505 2880 
Q 2244 3097 1772 3097 
Q 1472 3097 1187 3025 
Q 903 2953 641 2809 
L 641 3341 
Q 956 3463 1253 3523 
Q 1550 3584 1831 3584 
Q 2591 3584 2966 3190 
Q 3341 2797 3341 1997 
z
" transform="scale(0.015625)"/>
       <path id="DejaVuSans-63" d="M 3122 3366 
L 3122 2828 
Q 2878 2963 2633 3030 
Q 2388 3097 2138 3097 
Q 1578 3097 1268 2742 
Q 959 2388 959 1747 
Q 959 1106 1268 751 
Q 1578 397 2138 397 
Q 2388 397 2633 464 
Q 2878 531 3122 666 
L 3122 134 
Q 2881 22 2623 -34 
Q 2366 -91 2075 -91 
Q 1284 -91 818 406 
Q 353 903 353 1747 
Q 353 2603 823 3093 
Q 1294 3584 2113 3584 
Q 2378 3584 2631 3529 
Q 2884 3475 3122 3366 
z
" transform="scale(0.015625)"/>
       <path id="DejaVuSans-75" d="M 544 1381 
L 544 3500 
L 1119 3500 
L 1119 1403 
Q 1119 906 1312 657 
Q 1506 409 1894 409 
Q 2359 409 2629 706 
Q 2900 1003 2900 1516 
L 2900 3500 
L 3475 3500 
L 3475 0 
L 2900 0 
L 2900 538 
Q 2691 219 2414 64 
Q 2138 -91 1772 -91 
Q 1169 -91 856 284 
Q 544 659 544 1381 
z
M 1991 3584 
L 1991 3584 
z
" transform="scale(0.015625)"/>
       <path id="DejaVuSans-72" d="M 2631 2963 
Q 2534 3019 2420 3045 
Q 2306 3072 2169 3072 
Q 1681 3072 1420 2755 
Q 1159 2438 1159 1844 
L 1159 0 
L 581 0 
L 581 3500 
L 1159 3500 
L 1159 2956 
Q 1341 3275 1631 3429 
Q 1922 3584 2338 3584 
Q 2397 3584 2469 3576 
Q 2541 3569 2628 3553 
L 2631 2963 
z
" transform="scale(0.015625)"/>
       <path id="DejaVuSans-79" d="M 2059 -325 
Q 1816 -950 1584 -1140 
Q 1353 -1331 966 -1331 
L 506 -1331 
L 506 -850 
L 844 -850 
Q 1081 -850 1212 -737 
Q 1344 -625 1503 -206 
L 1606 56 
L 191 3500 
L 800 3500 
L 1894 763 
L 2988 3500 
L 3597 3500 
L 2059 -325 
z
" transform="scale(0.015625)"/>
      </defs>
      <use xlink:href="#DejaVuSans-61"/>
      <use xlink:href="#DejaVuSans-63" x="61.279297"/>
      <use xlink:href="#DejaVuSans-63" x="116.259766"/>
      <use xlink:href="#DejaVuSans-75" x="171.240234"/>
      <use xlink:href="#DejaVuSans-72" x="234.619141"/>
      <use xlink:href="#DejaVuSans-61" x="275.732422"/>
      <use xlink:href="#DejaVuSans-63" x="337.011719"/>
      <use xlink:href="#DejaVuSans-79" x="391.992188"/>
     </g>
    </g>
   </g>
  </g>
  <g id="axes_2">
   <g id="patch_8">
    <path d="M 395.60364 182.16 
L 690.38011 182.16 
L 690.38011 7.2 
L 395.60364 7.2 
L 395.60364 182.16 
z
" style="fill: none"/>
   </g>
   <g id="matplotlib.axis_3">
    <g id="xtick_7">
     <g id="line2d_27">
      <path d="M 409.00257 182.16 
L 409.00257 7.2 
" clip-path="url(#p8f3c052ca4)" style="fill: none; stroke: #cbcbcb"/>
     </g>
     <g id="line2d_28"/>
     <g id="text_14">
      <!-- 0 -->
      <g transform="translate(404.54882 196.297813) scale(0.14 -0.14)">
       <use xlink:href="#DejaVuSans-30"/>
      </g>
     </g>
    </g>
    <g id="xtick_8">
     <g id="line2d_29">
      <path d="M 461.444568 182.16 
L 461.444568 7.2 
" clip-path="url(#p8f3c052ca4)" style="fill: none; stroke: #cbcbcb"/>
     </g>
     <g id="line2d_30"/>
     <g id="text_15">
      <!-- 100 -->
      <g transform="translate(448.083318 196.297813) scale(0.14 -0.14)">
       <use xlink:href="#DejaVuSans-31"/>
       <use xlink:href="#DejaVuSans-30" x="63.623047"/>
       <use xlink:href="#DejaVuSans-30" x="127.246094"/>
      </g>
     </g>
    </g>
    <g id="xtick_9">
     <g id="line2d_31">
      <path d="M 513.886566 182.16 
L 513.886566 7.2 
" clip-path="url(#p8f3c052ca4)" style="fill: none; stroke: #cbcbcb"/>
     </g>
     <g id="line2d_32"/>
     <g id="text_16">
      <!-- 200 -->
      <g transform="translate(500.525316 196.297813) scale(0.14 -0.14)">
       <use xlink:href="#DejaVuSans-32"/>
       <use xlink:href="#DejaVuSans-30" x="63.623047"/>
       <use xlink:href="#DejaVuSans-30" x="127.246094"/>
      </g>
     </g>
    </g>
    <g id="xtick_10">
     <g id="line2d_33">
      <path d="M 566.328564 182.16 
L 566.328564 7.2 
" clip-path="url(#p8f3c052ca4)" style="fill: none; stroke: #cbcbcb"/>
     </g>
     <g id="line2d_34"/>
     <g id="text_17">
      <!-- 300 -->
      <g transform="translate(552.967314 196.297813) scale(0.14 -0.14)">
       <use xlink:href="#DejaVuSans-33"/>
       <use xlink:href="#DejaVuSans-30" x="63.623047"/>
       <use xlink:href="#DejaVuSans-30" x="127.246094"/>
      </g>
     </g>
    </g>
    <g id="xtick_11">
     <g id="line2d_35">
      <path d="M 618.770562 182.16 
L 618.770562 7.2 
" clip-path="url(#p8f3c052ca4)" style="fill: none; stroke: #cbcbcb"/>
     </g>
     <g id="line2d_36"/>
     <g id="text_18">
      <!-- 400 -->
      <g transform="translate(605.409312 196.297813) scale(0.14 -0.14)">
       <use xlink:href="#DejaVuSans-34"/>
       <use xlink:href="#DejaVuSans-30" x="63.623047"/>
       <use xlink:href="#DejaVuSans-30" x="127.246094"/>
      </g>
     </g>
    </g>
    <g id="xtick_12">
     <g id="line2d_37">
      <path d="M 671.21256 182.16 
L 671.21256 7.2 
" clip-path="url(#p8f3c052ca4)" style="fill: none; stroke: #cbcbcb"/>
     </g>
     <g id="line2d_38"/>
     <g id="text_19">
      <!-- 500 -->
      <g transform="translate(657.85131 196.297813) scale(0.14 -0.14)">
       <use xlink:href="#DejaVuSans-35"/>
       <use xlink:href="#DejaVuSans-30" x="63.623047"/>
       <use xlink:href="#DejaVuSans-30" x="127.246094"/>
      </g>
     </g>
    </g>
   </g>
   <g id="matplotlib.axis_4">
    <g id="ytick_7">
     <g id="line2d_39">
      <path d="M 395.60364 149.405139 
L 690.38011 149.405139 
" clip-path="url(#p8f3c052ca4)" style="fill: none; stroke: #cbcbcb"/>
     </g>
     <g id="line2d_40"/>
     <g id="text_20">
      <!-- 20 -->
      <g transform="translate(374.28864 154.724046) scale(0.14 -0.14)">
       <use xlink:href="#DejaVuSans-32"/>
       <use xlink:href="#DejaVuSans-30" x="63.623047"/>
      </g>
     </g>
    </g>
    <g id="ytick_8">
     <g id="line2d_41">
      <path d="M 395.60364 115.384851 
L 690.38011 115.384851 
" clip-path="url(#p8f3c052ca4)" style="fill: none; stroke: #cbcbcb"/>
     </g>
     <g id="line2d_42"/>
     <g id="text_21">
      <!-- 40 -->
      <g transform="translate(374.28864 120.703757) scale(0.14 -0.14)">
       <use xlink:href="#DejaVuSans-34"/>
       <use xlink:href="#DejaVuSans-30" x="63.623047"/>
      </g>
     </g>
    </g>
    <g id="ytick_9">
     <g id="line2d_43">
      <path d="M 395.60364 81.364563 
L 690.38011 81.364563 
" clip-path="url(#p8f3c052ca4)" style="fill: none; stroke: #cbcbcb"/>
     </g>
     <g id="line2d_44"/>
     <g id="text_22">
      <!-- 60 -->
      <g transform="translate(374.28864 86.683469) scale(0.14 -0.14)">
       <use xlink:href="#DejaVuSans-36"/>
       <use xlink:href="#DejaVuSans-30" x="63.623047"/>
      </g>
     </g>
    </g>
    <g id="ytick_10">
     <g id="line2d_45">
      <path d="M 395.60364 47.344275 
L 690.38011 47.344275 
" clip-path="url(#p8f3c052ca4)" style="fill: none; stroke: #cbcbcb"/>
     </g>
     <g id="line2d_46"/>
     <g id="text_23">
      <!-- 80 -->
      <g transform="translate(374.28864 52.663181) scale(0.14 -0.14)">
       <use xlink:href="#DejaVuSans-38"/>
       <use xlink:href="#DejaVuSans-30" x="63.623047"/>
      </g>
     </g>
    </g>
    <g id="ytick_11">
     <g id="line2d_47">
      <path d="M 395.60364 13.323986 
L 690.38011 13.323986 
" clip-path="url(#p8f3c052ca4)" style="fill: none; stroke: #cbcbcb"/>
     </g>
     <g id="line2d_48"/>
     <g id="text_24">
      <!-- 100 -->
      <g transform="translate(365.38114 18.642892) scale(0.14 -0.14)">
       <use xlink:href="#DejaVuSans-31"/>
       <use xlink:href="#DejaVuSans-30" x="63.623047"/>
       <use xlink:href="#DejaVuSans-30" x="127.246094"/>
      </g>
     </g>
    </g>
   </g>
   <g id="line2d_49">
    <path d="M 409.00257 15.152727 
L 409.52699 82.206849 
L 410.05141 58.801983 
L 410.57583 101.237778 
L 411.10025 101.120375 
L 411.62467 55.436772 
L 412.14909 90.221169 
L 412.67351 116.069906 
L 413.72235 79.225681 
L 414.24677 22.889947 
L 414.77119 42.354397 
L 415.29561 73.468301 
L 415.82003 125.902234 
L 416.34445 79.85569 
L 416.86887 132.741724 
L 417.39329 136.937281 
L 417.91771 106.82611 
L 418.44213 54.415349 
L 418.96655 111.888513 
L 419.49097 105.809657 
L 420.01539 83.034671 
L 420.53981 104.587085 
L 421.06423 86.769922 
L 421.58865 83.834812 
L 422.11307 128.223609 
L 422.63749 137.436466 
L 423.16191 150.044688 
L 423.68633 118.961177 
L 424.21075 148.612763 
L 424.73517 143.831388 
L 425.25959 105.821979 
L 425.78401 126.526793 
L 426.30843 135.909006 
L 426.832849 155.776339 
L 427.357269 143.370102 
L 427.881689 160.903603 
L 428.406109 169.80227 
L 428.930529 163.694972 
L 429.454949 152.967037 
L 429.979369 157.66329 
L 430.503789 139.321559 
L 431.028209 139.233966 
L 431.552629 146.515925 
L 432.077049 143.426805 
L 432.601469 149.918541 
L 433.125889 151.465851 
L 433.650309 157.362088 
L 434.174729 151.86302 
L 434.699149 153.318821 
L 435.223569 131.493768 
L 435.747989 139.542119 
L 436.272409 116.392389 
L 436.796829 137.472988 
L 437.321249 136.535735 
L 437.845669 132.561662 
L 438.370089 142.311069 
L 438.894509 120.39062 
L 439.418929 136.137037 
L 439.943349 134.765066 
L 440.467769 119.297748 
L 440.992189 145.238704 
L 441.516609 129.161284 
L 442.041029 118.389042 
L 442.565449 143.286824 
L 443.089869 102.737768 
L 443.614289 140.412177 
L 444.138709 159.712738 
L 444.663129 146.517826 
L 445.187549 148.722587 
L 445.711969 139.193641 
L 446.236389 143.984561 
L 446.760809 120.746307 
L 447.285229 117.479531 
L 447.809649 147.620344 
L 448.334069 143.293193 
L 448.858489 110.837591 
L 449.907329 75.787762 
L 450.431749 47.740536 
L 450.956169 116.126605 
L 451.480589 147.229816 
L 452.005009 152.601631 
L 452.529429 129.662681 
L 453.053848 137.237342 
L 453.578268 147.119541 
L 454.102688 128.101969 
L 454.627108 163.040581 
L 455.151528 152.468622 
L 455.675948 159.309158 
L 456.200368 169.380765 
L 456.724788 162.856484 
L 457.249208 162.041641 
L 457.773628 149.846661 
L 458.298048 141.042764 
L 458.822468 135.332678 
L 459.346888 155.602171 
L 459.871308 153.601148 
L 460.395728 168.570288 
L 461.444568 173.046349 
L 462.493408 146.790095 
L 463.017828 152.01191 
L 463.542248 136.91019 
L 464.066668 137.980219 
L 464.591088 159.672516 
L 465.115508 135.033818 
L 465.639928 141.424795 
L 466.164348 162.048974 
L 466.688768 167.253538 
L 467.213188 160.272426 
L 468.786448 166.06259 
L 469.310868 136.456645 
L 469.835288 156.238478 
L 470.359708 144.110016 
L 470.884128 161.378793 
L 471.408548 162.016489 
L 471.932968 171.699443 
L 472.457388 173.764825 
L 472.981808 158.362365 
L 473.506228 156.57445 
L 474.030648 163.196541 
L 474.555068 133.651406 
L 475.079488 152.001162 
L 475.603908 138.800699 
L 476.128328 144.626993 
L 476.652748 166.023551 
L 477.177168 170.343948 
L 477.701588 161.371881 
L 478.750427 169.487682 
L 479.274847 151.542215 
L 479.799267 158.523989 
L 480.323687 156.500896 
L 480.848107 165.968352 
L 481.372527 147.277301 
L 481.896947 154.049956 
L 482.421367 164.929573 
L 482.945787 153.189952 
L 483.470207 159.157366 
L 483.994627 149.439277 
L 484.519047 133.328054 
L 485.043467 155.073907 
L 485.567887 152.749482 
L 486.092307 146.629522 
L 486.616727 154.97891 
L 487.141147 138.848519 
L 487.665567 156.100421 
L 488.189987 159.703248 
L 488.714407 154.119377 
L 489.238827 163.353354 
L 489.763247 158.585705 
L 490.287667 171.292767 
L 490.812087 169.360006 
L 491.336507 160.080966 
L 491.860927 169.959825 
L 492.385347 152.845579 
L 492.909767 158.703406 
L 493.434187 157.97109 
L 493.958607 147.288864 
L 494.483027 156.664763 
L 495.007447 163.895507 
L 495.531867 147.202358 
L 496.056287 160.053824 
L 496.580707 152.125787 
L 497.105127 160.675968 
L 497.629547 164.228969 
L 498.153967 135.129525 
L 498.678387 155.387403 
L 499.202807 148.966847 
L 499.727227 166.405182 
L 500.251647 151.030387 
L 500.776067 150.486008 
L 501.300487 154.312534 
L 501.824907 153.331413 
L 502.349327 122.693047 
L 502.873747 156.928237 
L 503.398167 166.684751 
L 503.922587 168.269704 
L 504.447006 167.196383 
L 504.971426 172.647314 
L 505.495846 167.662482 
L 506.020266 163.955464 
L 506.544686 147.401284 
L 507.069106 161.517856 
L 507.593526 148.751601 
L 508.117946 155.96811 
L 508.642366 155.518744 
L 509.166786 140.563877 
L 509.691206 161.637316 
L 510.215626 166.551872 
L 510.740046 169.894179 
L 511.264466 169.69741 
L 511.788886 165.888987 
L 512.313306 171.103787 
L 512.837726 168.439591 
L 513.362146 139.880892 
L 514.410986 164.283429 
L 514.935406 162.453035 
L 515.459826 174.207273 
L 515.984246 171.775243 
L 516.508666 173.29859 
L 517.033086 169.340524 
L 517.557506 153.361209 
L 518.081926 163.120079 
L 518.606346 149.6338 
L 519.130766 160.955048 
L 519.655186 155.416953 
L 520.179606 135.589465 
L 520.704026 151.343896 
L 521.228446 159.145665 
L 521.752866 164.016654 
L 522.801706 152.564868 
L 523.326126 160.666525 
L 523.850546 162.113337 
L 524.374966 162.174338 
L 524.899386 159.01018 
L 525.423806 164.920771 
L 525.948226 159.000527 
L 526.472646 169.163285 
L 526.997066 151.500787 
L 527.521486 150.05968 
L 528.045906 161.828077 
L 528.570326 149.890593 
L 529.094746 149.880341 
L 529.619166 143.48599 
L 530.143585 166.772727 
L 530.668005 140.78403 
L 531.192425 146.09277 
L 531.716845 164.096851 
L 532.241265 162.824471 
L 532.765685 137.076873 
L 533.290105 161.338762 
L 533.814525 157.986391 
L 534.338945 161.664165 
L 534.863365 156.066777 
L 535.387785 158.825573 
L 535.912205 165.042914 
L 536.961045 126.089762 
L 537.485465 143.893045 
L 538.009885 120.969867 
L 538.534305 135.227916 
L 539.058725 144.576594 
L 539.583145 157.705808 
L 540.107565 160.703187 
L 540.631985 155.82751 
L 541.156405 158.10649 
L 541.680825 157.713547 
L 542.205245 159.866128 
L 542.729665 162.697064 
L 543.254085 147.876644 
L 543.778505 143.8312 
L 544.302925 136.196854 
L 544.827345 131.888138 
L 545.351765 136.847096 
L 545.876185 116.197373 
L 546.400605 117.009167 
L 546.925025 138.669176 
L 547.449445 146.444794 
L 547.973865 150.756674 
L 548.498285 162.878412 
L 549.022705 166.541649 
L 549.547125 159.309582 
L 550.071545 134.626214 
L 550.595965 134.794087 
L 551.120385 146.885339 
L 551.644805 140.725381 
L 552.169225 114.61125 
L 552.693645 131.31316 
L 553.218065 121.841223 
L 553.742485 148.830201 
L 554.266905 142.61418 
L 554.791325 158.076247 
L 555.315745 156.481645 
L 555.840165 151.975411 
L 556.364584 154.492989 
L 556.889004 125.698503 
L 557.413424 118.614809 
L 557.937844 143.600823 
L 558.462264 151.517109 
L 558.986684 145.92249 
L 559.511104 166.199554 
L 560.035524 165.414559 
L 560.559944 159.011245 
L 561.084364 161.546031 
L 561.608784 136.181667 
L 562.133204 156.261432 
L 562.657624 144.63927 
L 563.182044 154.701356 
L 563.706464 131.724888 
L 564.230884 124.848042 
L 564.755304 161.567744 
L 565.279724 163.1906 
L 565.804144 163.484633 
L 566.852984 153.827833 
L 567.377404 155.810833 
L 567.901824 152.69788 
L 568.426244 152.726239 
L 568.950664 150.153759 
L 569.475084 158.741093 
L 569.999504 142.303383 
L 570.523924 159.792854 
L 571.048344 124.728173 
L 571.572764 149.951293 
L 572.097184 141.567148 
L 572.621604 127.757962 
L 573.146024 131.069637 
L 573.670444 150.369338 
L 574.194864 149.541285 
L 574.719284 141.478052 
L 575.243704 117.844393 
L 575.768124 143.779795 
L 576.292544 136.607751 
L 576.816964 122.100167 
L 577.341384 148.504522 
L 577.865804 148.596797 
L 578.390224 150.91263 
L 578.914644 140.270133 
L 579.963484 153.431571 
L 580.487904 150.100222 
L 581.012324 139.121641 
L 581.536744 151.029705 
L 582.585583 132.232664 
L 583.110003 146.587938 
L 583.634423 148.09807 
L 584.158843 162.933555 
L 584.683263 153.058423 
L 585.207683 146.13669 
L 585.732103 149.876451 
L 586.256523 127.156341 
L 586.780943 156.377341 
L 587.305363 162.256057 
L 587.829783 136.604562 
L 588.878623 154.844656 
L 589.927463 138.534646 
L 590.451883 122.926841 
L 590.976303 152.196009 
L 591.500723 152.782258 
L 592.025143 154.153894 
L 592.549563 154.018018 
L 593.073983 160.82848 
L 593.598403 164.210977 
L 594.122823 154.996378 
L 594.647243 137.257289 
L 595.171663 132.705529 
L 595.696083 154.961822 
L 596.744923 134.61896 
L 597.269343 118.367557 
L 597.793763 140.395685 
L 598.842603 123.292228 
L 599.367023 132.469731 
L 599.891443 148.94508 
L 600.415863 145.605668 
L 600.940283 131.736286 
L 601.464703 127.493892 
L 601.989123 144.100903 
L 602.513543 156.694521 
L 603.037963 152.678861 
L 603.562383 157.557851 
L 604.611223 162.624313 
L 605.135643 161.475477 
L 605.660063 149.219143 
L 606.184483 156.605089 
L 606.708903 152.629649 
L 607.233323 142.263191 
L 607.757742 150.074199 
L 608.282162 122.007429 
L 608.806582 152.254811 
L 609.331002 147.434877 
L 610.379842 129.960335 
L 610.904262 162.159031 
L 611.428682 156.527312 
L 611.953102 146.386235 
L 612.477522 152.665361 
L 613.001942 153.493446 
L 613.526362 158.313921 
L 614.050782 145.856242 
L 614.575202 151.081334 
L 615.099622 129.491713 
L 615.624042 145.36535 
L 616.148462 142.691209 
L 616.672882 133.402059 
L 617.197302 134.249565 
L 617.721722 155.916426 
L 618.246142 143.050477 
L 618.770562 147.610734 
L 619.294982 118.294382 
L 619.819402 155.097913 
L 620.868242 129.180293 
L 621.392662 145.28081 
L 621.917082 166.568438 
L 622.441502 153.47543 
L 622.965922 148.037383 
L 623.490342 146.300826 
L 624.014762 153.272062 
L 624.539182 152.929532 
L 625.063602 135.837768 
L 625.588022 141.870265 
L 626.112442 143.636051 
L 626.636862 125.290582 
L 627.161282 146.847797 
L 627.685702 148.139362 
L 628.210122 148.914056 
L 628.734542 153.066726 
L 629.258962 154.953438 
L 629.783382 157.419172 
L 630.307802 133.361822 
L 630.832222 152.045156 
L 631.356642 154.116386 
L 631.881062 148.552296 
L 632.405482 140.634187 
L 632.929902 153.77161 
L 633.454321 144.312229 
L 633.978741 122.671368 
L 634.503161 140.482594 
L 635.552001 157.453662 
L 636.076421 150.503635 
L 636.600841 160.234172 
L 637.125261 159.732422 
L 637.649681 157.209493 
L 638.174101 151.844287 
L 638.698521 130.384732 
L 639.222941 138.016274 
L 639.747361 120.88825 
L 640.271781 134.019464 
L 640.796201 139.807938 
L 641.320621 135.706307 
L 641.845041 150.87785 
L 642.369461 160.408828 
L 642.893881 145.247691 
L 643.418301 159.323757 
L 643.942721 157.147061 
L 644.467141 160.333593 
L 644.991561 143.340331 
L 645.515981 152.108143 
L 646.040401 153.858875 
L 646.564821 152.94542 
L 647.089241 137.970969 
L 647.613661 149.487687 
L 648.138081 134.526328 
L 648.662501 136.955908 
L 649.186921 129.30813 
L 649.711341 147.761951 
L 650.235761 140.479314 
L 650.760181 150.211325 
L 651.284601 153.06096 
L 651.809021 152.620708 
L 652.333441 112.329126 
L 652.857861 145.382114 
L 653.382281 154.808974 
L 653.906701 145.728246 
L 654.431121 142.37636 
L 654.955541 162.953149 
L 655.479961 164.459192 
L 656.004381 156.893942 
L 656.528801 156.962934 
L 657.053221 153.280001 
L 657.577641 158.590213 
L 658.102061 137.397267 
L 658.626481 149.407602 
L 659.150901 98.357823 
L 659.67532 129.846621 
L 660.19974 130.292068 
L 660.72416 144.749334 
L 661.24858 144.616562 
L 661.773 153.297333 
L 662.29742 143.545943 
L 662.82184 147.315326 
L 663.34626 137.820252 
L 663.87068 152.483705 
L 664.3951 149.089437 
L 664.91952 128.786017 
L 665.96836 151.952771 
L 666.49278 155.105518 
L 667.0172 155.516382 
L 667.54162 148.190053 
L 668.06604 145.596172 
L 668.59046 146.99465 
L 669.11488 141.689502 
L 669.6393 157.810541 
L 670.16372 163.783351 
L 670.68814 158.035888 
L 671.21256 136.938222 
L 671.73698 129.460592 
L 672.2614 141.879661 
L 672.78582 134.622509 
L 673.31024 148.091062 
L 673.83466 123.915223 
L 674.35908 132.899705 
L 674.8835 86.997103 
L 675.40792 118.425801 
L 675.93234 133.361296 
L 676.45676 100.077253 
L 676.98118 116.814735 
L 676.98118 116.814735 
" clip-path="url(#p8f3c052ca4)" style="fill: none; stroke: #008fd5; stroke-opacity: 0.4; stroke-width: 4"/>
   </g>
   <g id="line2d_50">
    <path d="M 409.00257 15.152727 
L 409.52699 18.505428 
L 410.05141 20.520256 
L 411.10025 28.384346 
L 411.62467 29.736961 
L 412.14909 32.76117 
L 412.67351 36.926599 
L 413.19793 40.002706 
L 413.72235 41.963846 
L 414.24677 41.010153 
L 414.77119 41.077364 
L 415.29561 42.696918 
L 415.82003 46.857182 
L 416.34445 48.507116 
L 417.39329 56.929767 
L 417.91771 59.424589 
L 418.44213 59.174132 
L 419.49097 64.009848 
L 420.01539 64.961101 
L 420.53981 66.942408 
L 421.58865 68.728841 
L 422.63749 74.990236 
L 423.16191 78.742962 
L 423.68633 80.753871 
L 424.73517 87.13104 
L 425.25959 88.065584 
L 426.30843 92.284657 
L 426.832849 95.459238 
L 427.357269 97.854781 
L 428.930529 107.409373 
L 429.979369 112.086054 
L 432.077049 117.681114 
L 434.699149 125.63843 
L 435.223569 125.9312 
L 435.747989 126.611745 
L 436.272409 126.10078 
L 437.321249 127.162714 
L 437.845669 127.432663 
L 438.370089 128.176584 
L 438.894509 127.787285 
L 439.943349 128.53279 
L 440.467769 128.071036 
L 440.992189 128.929421 
L 441.516609 128.941017 
L 442.041029 128.413421 
L 442.565449 129.157089 
L 443.089869 127.836127 
L 443.614289 128.464929 
L 444.138709 130.027322 
L 445.187549 131.745386 
L 445.711969 132.117798 
L 446.236389 132.711136 
L 447.285229 131.381229 
L 447.809649 132.193182 
L 448.334069 132.748184 
L 448.858489 131.652654 
L 449.382909 129.644873 
L 449.907329 126.952014 
L 450.431749 122.991437 
L 450.956169 122.648196 
L 452.005009 125.3135 
L 452.529429 125.530961 
L 453.053848 126.116282 
L 453.578268 127.166445 
L 454.102688 127.213223 
L 454.627108 129.004591 
L 455.151528 130.177792 
L 455.675948 131.634362 
L 456.200368 133.521681 
L 457.249208 136.341085 
L 457.773628 137.016364 
L 458.298048 137.217684 
L 458.822468 137.123437 
L 459.871308 138.825065 
L 461.444568 143.395068 
L 461.968988 144.152411 
L 462.493408 144.284294 
L 463.017828 144.670676 
L 464.066668 143.967531 
L 464.591088 144.75278 
L 465.115508 144.266833 
L 465.639928 144.124733 
L 468.786448 149.351013 
L 469.310868 148.706293 
L 469.835288 149.082903 
L 470.359708 148.83426 
L 471.408548 150.089237 
L 472.457388 152.2995 
L 474.030648 153.321001 
L 474.555068 152.337524 
L 475.079488 152.320705 
L 475.603908 151.644706 
L 476.128328 151.293821 
L 477.701588 153.36729 
L 478.750427 154.763409 
L 479.274847 154.602352 
L 480.323687 154.88356 
L 480.848107 155.437799 
L 481.372527 155.029773 
L 481.896947 154.980782 
L 482.421367 155.478221 
L 482.945787 155.363806 
L 483.470207 155.553485 
L 483.994627 155.247776 
L 484.519047 154.151789 
L 485.043467 154.197895 
L 485.567887 154.125477 
L 486.092307 153.75068 
L 486.616727 153.812094 
L 487.141147 153.063913 
L 487.665567 153.215739 
L 488.189987 153.540117 
L 488.714407 153.56908 
L 489.238827 154.058291 
L 489.763247 154.284661 
L 490.812087 155.846314 
L 491.336507 156.058049 
L 491.860927 156.753138 
L 492.385347 156.557762 
L 493.434187 156.730346 
L 493.958607 156.258272 
L 494.483027 156.278597 
L 495.007447 156.659443 
L 495.531867 156.186587 
L 496.056287 156.37995 
L 496.580707 156.16724 
L 497.105127 156.392676 
L 497.629547 156.784491 
L 498.153967 155.701743 
L 498.678387 155.686027 
L 499.202807 155.350066 
L 499.727227 155.902823 
L 500.776067 155.400543 
L 501.824907 155.245408 
L 502.349327 153.617789 
L 502.873747 153.783313 
L 504.447006 155.724253 
L 504.971426 156.570406 
L 505.495846 157.12501 
L 506.020266 157.466533 
L 506.544686 156.96327 
L 507.069106 157.191 
L 507.593526 156.769031 
L 508.642366 156.668473 
L 509.166786 155.863244 
L 509.691206 156.151949 
L 510.740046 157.333059 
L 511.264466 157.951276 
L 511.788886 158.348161 
L 512.837726 159.458624 
L 513.362146 158.479738 
L 513.886566 158.216946 
L 514.935406 158.716909 
L 515.984246 160.105618 
L 516.508666 160.765267 
L 517.033086 161.19403 
L 517.557506 160.802388 
L 518.081926 160.918273 
L 518.606346 160.354049 
L 519.130766 160.384099 
L 519.655186 160.135743 
L 520.179606 158.908429 
L 520.704026 158.530202 
L 521.228446 158.560976 
L 521.752866 158.833759 
L 522.277286 158.832328 
L 522.801706 158.518955 
L 523.850546 158.800684 
L 524.374966 158.969366 
L 524.899386 158.971407 
L 525.423806 159.268876 
L 525.948226 159.255458 
L 526.472646 159.75085 
L 527.521486 158.874413 
L 528.045906 159.022096 
L 529.094746 158.131264 
L 529.619166 157.399 
L 530.143585 157.867687 
L 530.668005 157.013504 
L 531.192425 156.467468 
L 532.241265 157.147716 
L 532.765685 156.144176 
L 533.290105 156.403905 
L 533.814525 156.48303 
L 534.338945 156.742088 
L 534.863365 156.708323 
L 535.387785 156.814186 
L 535.912205 157.225623 
L 536.436625 156.606957 
L 536.961045 155.081097 
L 537.485465 154.521693 
L 538.009885 152.844103 
L 538.534305 151.963293 
L 539.058725 151.593957 
L 539.583145 151.899549 
L 540.107565 152.339734 
L 541.156405 152.79374 
L 542.205245 153.381049 
L 542.729665 153.846848 
L 543.254085 153.548338 
L 543.778505 153.062482 
L 545.351765 150.484872 
L 546.400605 147.182431 
L 546.925025 146.756768 
L 547.449445 146.741169 
L 547.973865 146.941947 
L 549.547125 149.210448 
L 550.595965 147.796877 
L 551.120385 147.751299 
L 551.644805 147.400005 
L 552.169225 145.760567 
L 552.693645 145.038198 
L 553.218065 143.878348 
L 553.742485 144.125943 
L 554.266905 144.050355 
L 555.315745 145.338149 
L 556.364584 146.111163 
L 556.889004 145.090531 
L 557.413424 143.766746 
L 557.937844 143.75845 
L 558.462264 144.146383 
L 558.986684 144.23519 
L 560.035524 146.337465 
L 561.084364 147.699898 
L 561.608784 147.123989 
L 562.133204 147.580863 
L 562.657624 147.433783 
L 563.182044 147.797162 
L 563.706464 146.99355 
L 564.230884 145.886276 
L 566.328564 148.83399 
L 568.426244 149.741051 
L 568.950664 149.761686 
L 569.475084 150.210656 
L 569.999504 149.815294 
L 570.523924 150.31417 
L 571.048344 149.034869 
L 571.572764 149.08069 
L 572.097184 148.705011 
L 573.146024 146.828259 
L 574.194864 147.132113 
L 574.719284 146.84941 
L 575.243704 145.39916 
L 575.768124 145.318193 
L 576.292544 144.88267 
L 576.816964 143.743545 
L 578.390224 144.547372 
L 578.914644 144.333509 
L 579.439064 144.473295 
L 579.963484 144.921211 
L 580.487904 145.180162 
L 581.012324 144.877236 
L 581.536744 145.18486 
L 582.061163 144.968927 
L 582.585583 144.332114 
L 583.634423 144.627564 
L 584.158843 145.542866 
L 584.683263 145.918645 
L 585.207683 145.92955 
L 585.732103 146.126895 
L 586.256523 145.178367 
L 586.780943 145.738317 
L 587.305363 146.564205 
L 587.829783 146.066225 
L 588.354203 146.01845 
L 588.878623 146.459764 
L 589.403043 146.490281 
L 589.927463 146.092498 
L 590.451883 144.934215 
L 592.549563 146.491786 
L 593.598403 148.058741 
L 594.122823 148.405625 
L 594.647243 147.84821 
L 595.171663 147.091078 
L 595.696083 147.484614 
L 596.220503 147.29267 
L 596.744923 146.658985 
L 597.269343 145.244414 
L 597.793763 145.001978 
L 598.318183 144.314863 
L 598.842603 143.263733 
L 599.367023 142.724036 
L 599.891443 143.035089 
L 600.415863 143.163617 
L 600.940283 142.59225 
L 601.464703 141.837334 
L 601.989123 141.950512 
L 602.513543 142.687715 
L 603.037963 143.187272 
L 604.086803 144.718499 
L 605.135643 146.406873 
L 605.660063 146.54749 
L 606.184483 147.05037 
L 606.708903 147.329335 
L 607.233323 147.076027 
L 607.757742 147.225935 
L 608.282162 145.965011 
L 608.806582 146.2795 
L 609.331002 146.337267 
L 609.855422 145.931519 
L 610.379842 145.132958 
L 610.904262 145.984264 
L 611.428682 146.511415 
L 611.953102 146.505157 
L 613.001942 147.14718 
L 613.526362 147.70552 
L 614.050782 147.613057 
L 614.575202 147.786472 
L 615.099622 146.871731 
L 615.624042 146.796415 
L 616.148462 146.591153 
L 617.197302 145.347594 
L 617.721722 145.876036 
L 618.246142 145.734758 
L 618.770562 145.828557 
L 619.294982 144.451849 
L 619.819402 144.984153 
L 620.343822 144.826062 
L 620.868242 144.043772 
L 621.392662 144.105623 
L 621.917082 145.228763 
L 622.441502 145.641094 
L 623.490342 145.787905 
L 624.539182 146.500485 
L 625.063602 145.967351 
L 626.112442 145.656174 
L 626.636862 144.637898 
L 627.685702 144.91794 
L 628.210122 145.117749 
L 629.258962 145.987109 
L 629.783382 146.558716 
L 630.307802 145.89887 
L 631.881062 146.699222 
L 632.405482 146.395972 
L 632.929902 146.764756 
L 633.454321 146.64213 
L 633.978741 145.443593 
L 634.503161 145.195543 
L 635.027581 145.377024 
L 635.552001 145.980857 
L 636.076421 146.206997 
L 637.125261 147.549561 
L 637.649681 148.032558 
L 638.174101 148.223146 
L 638.698521 147.331227 
L 639.222941 146.865479 
L 639.747361 145.566618 
L 640.271781 144.989263 
L 640.796201 144.730195 
L 641.320621 144.279002 
L 641.845041 144.608944 
L 642.369461 145.398937 
L 642.893881 145.391374 
L 644.467141 147.325578 
L 644.991561 147.126315 
L 646.564821 147.961872 
L 647.089241 147.462328 
L 647.613661 147.563596 
L 649.186921 145.55865 
L 649.711341 145.668818 
L 650.235761 145.409345 
L 650.760181 145.649442 
L 651.809021 146.35005 
L 652.333441 144.649003 
L 652.857861 144.685659 
L 653.382281 145.191825 
L 653.906701 145.218647 
L 654.431121 145.076531 
L 655.479961 146.894806 
L 656.528801 147.873169 
L 657.053221 148.143511 
L 657.577641 148.665848 
L 658.102061 148.102417 
L 658.626481 148.167676 
L 659.150901 145.677185 
L 660.19974 144.15598 
L 661.24858 144.207193 
L 661.773 144.661702 
L 662.29742 144.605914 
L 662.82184 144.741385 
L 663.34626 144.395328 
L 663.87068 144.799749 
L 664.3951 145.014235 
L 664.91952 144.202826 
L 665.44394 144.067761 
L 666.49278 144.994191 
L 667.0172 145.520301 
L 667.54162 145.65379 
L 668.59046 145.718097 
L 669.11488 145.516667 
L 669.6393 146.131363 
L 670.16372 147.013961 
L 670.68814 147.565059 
L 671.21256 147.033719 
L 671.73698 146.155063 
L 672.2614 145.941295 
L 672.78582 145.375356 
L 673.31024 145.511142 
L 673.83466 144.431348 
L 674.35908 143.854764 
L 674.8835 141.01188 
L 675.40792 139.882576 
L 675.93234 139.556514 
L 676.45676 137.582553 
L 676.98118 136.544164 
L 676.98118 136.544164 
" clip-path="url(#p8f3c052ca4)" style="fill: none; stroke: #008fd5; stroke-width: 4"/>
   </g>
   <g id="patch_9">
    <path d="M 395.60364 182.16 
L 395.60364 7.2 
" style="fill: none; stroke: #f0f0f0; stroke-width: 3; stroke-linejoin: miter; stroke-linecap: square"/>
   </g>
   <g id="patch_10">
    <path d="M 690.38011 182.16 
L 690.38011 7.2 
" style="fill: none; stroke: #f0f0f0; stroke-width: 3; stroke-linejoin: miter; stroke-linecap: square"/>
   </g>
   <g id="patch_11">
    <path d="M 395.60364 182.16 
L 690.38011 182.16 
" style="fill: none; stroke: #f0f0f0; stroke-width: 3; stroke-linejoin: miter; stroke-linecap: square"/>
   </g>
   <g id="patch_12">
    <path d="M 395.60364 7.2 
L 690.38011 7.2 
" style="fill: none; stroke: #f0f0f0; stroke-width: 3; stroke-linejoin: miter; stroke-linecap: square"/>
   </g>
   <g id="legend_2">
    <g id="patch_13">
     <path d="M 565.425735 38.949375 
L 680.58011 38.949375 
Q 683.38011 38.949375 683.38011 36.149375 
L 683.38011 17 
Q 683.38011 14.2 680.58011 14.2 
L 565.425735 14.2 
Q 562.625735 14.2 562.625735 17 
L 562.625735 36.149375 
Q 562.625735 38.949375 565.425735 38.949375 
z
" style="fill: #f0f0f0; opacity: 0.8; stroke: #cccccc; stroke-width: 0.5; stroke-linejoin: miter"/>
    </g>
    <g id="line2d_51">
     <path d="M 568.225735 25.537813 
L 582.225735 25.537813 
L 596.225735 25.537813 
" style="fill: none; stroke: #008fd5; stroke-width: 4"/>
    </g>
    <g id="text_25">
     <!-- perplexity -->
     <g transform="translate(607.425735 30.437813) scale(0.14 -0.14)">
      <defs>
       <path id="DejaVuSans-70" d="M 1159 525 
L 1159 -1331 
L 581 -1331 
L 581 3500 
L 1159 3500 
L 1159 2969 
Q 1341 3281 1617 3432 
Q 1894 3584 2278 3584 
Q 2916 3584 3314 3078 
Q 3713 2572 3713 1747 
Q 3713 922 3314 415 
Q 2916 -91 2278 -91 
Q 1894 -91 1617 61 
Q 1341 213 1159 525 
z
M 3116 1747 
Q 3116 2381 2855 2742 
Q 2594 3103 2138 3103 
Q 1681 3103 1420 2742 
Q 1159 2381 1159 1747 
Q 1159 1113 1420 752 
Q 1681 391 2138 391 
Q 2594 391 2855 752 
Q 3116 1113 3116 1747 
z
" transform="scale(0.015625)"/>
       <path id="DejaVuSans-65" d="M 3597 1894 
L 3597 1613 
L 953 1613 
Q 991 1019 1311 708 
Q 1631 397 2203 397 
Q 2534 397 2845 478 
Q 3156 559 3463 722 
L 3463 178 
Q 3153 47 2828 -22 
Q 2503 -91 2169 -91 
Q 1331 -91 842 396 
Q 353 884 353 1716 
Q 353 2575 817 3079 
Q 1281 3584 2069 3584 
Q 2775 3584 3186 3129 
Q 3597 2675 3597 1894 
z
M 3022 2063 
Q 3016 2534 2758 2815 
Q 2500 3097 2075 3097 
Q 1594 3097 1305 2825 
Q 1016 2553 972 2059 
L 3022 2063 
z
" transform="scale(0.015625)"/>
       <path id="DejaVuSans-6c" d="M 603 4863 
L 1178 4863 
L 1178 0 
L 603 0 
L 603 4863 
z
" transform="scale(0.015625)"/>
       <path id="DejaVuSans-78" d="M 3513 3500 
L 2247 1797 
L 3578 0 
L 2900 0 
L 1881 1375 
L 863 0 
L 184 0 
L 1544 1831 
L 300 3500 
L 978 3500 
L 1906 2253 
L 2834 3500 
L 3513 3500 
z
" transform="scale(0.015625)"/>
       <path id="DejaVuSans-69" d="M 603 3500 
L 1178 3500 
L 1178 0 
L 603 0 
L 603 3500 
z
M 603 4863 
L 1178 4863 
L 1178 4134 
L 603 4134 
L 603 4863 
z
" transform="scale(0.015625)"/>
       <path id="DejaVuSans-74" d="M 1172 4494 
L 1172 3500 
L 2356 3500 
L 2356 3053 
L 1172 3053 
L 1172 1153 
Q 1172 725 1289 603 
Q 1406 481 1766 481 
L 2356 481 
L 2356 0 
L 1766 0 
Q 1100 0 847 248 
Q 594 497 594 1153 
L 594 3053 
L 172 3053 
L 172 3500 
L 594 3500 
L 594 4494 
L 1172 4494 
z
" transform="scale(0.015625)"/>
      </defs>
      <use xlink:href="#DejaVuSans-70"/>
      <use xlink:href="#DejaVuSans-65" x="63.476562"/>
      <use xlink:href="#DejaVuSans-72" x="125"/>
      <use xlink:href="#DejaVuSans-70" x="166.113281"/>
      <use xlink:href="#DejaVuSans-6c" x="229.589844"/>
      <use xlink:href="#DejaVuSans-65" x="257.373047"/>
      <use xlink:href="#DejaVuSans-78" x="317.146484"/>
      <use xlink:href="#DejaVuSans-69" x="376.326172"/>
      <use xlink:href="#DejaVuSans-74" x="404.109375"/>
      <use xlink:href="#DejaVuSans-79" x="443.318359"/>
     </g>
    </g>
   </g>
  </g>
  <g id="axes_3">
   <g id="patch_14">
    <path d="M 749.335404 182.16 
L 1044.111875 182.16 
L 1044.111875 7.2 
L 749.335404 7.2 
L 749.335404 182.16 
z
" style="fill: none"/>
   </g>
   <g id="matplotlib.axis_5">
    <g id="xtick_13">
     <g id="line2d_52">
      <path d="M 762.734335 182.16 
L 762.734335 7.2 
" clip-path="url(#pfcc121a7ba)" style="fill: none; stroke: #cbcbcb"/>
     </g>
     <g id="line2d_53"/>
     <g id="text_26">
      <!-- 0 -->
      <g transform="translate(758.280585 196.297813) scale(0.14 -0.14)">
       <use xlink:href="#DejaVuSans-30"/>
      </g>
     </g>
    </g>
    <g id="xtick_14">
     <g id="line2d_54">
      <path d="M 815.176333 182.16 
L 815.176333 7.2 
" clip-path="url(#pfcc121a7ba)" style="fill: none; stroke: #cbcbcb"/>
     </g>
     <g id="line2d_55"/>
     <g id="text_27">
      <!-- 100 -->
      <g transform="translate(801.815083 196.297813) scale(0.14 -0.14)">
       <use xlink:href="#DejaVuSans-31"/>
       <use xlink:href="#DejaVuSans-30" x="63.623047"/>
       <use xlink:href="#DejaVuSans-30" x="127.246094"/>
      </g>
     </g>
    </g>
    <g id="xtick_15">
     <g id="line2d_56">
      <path d="M 867.618331 182.16 
L 867.618331 7.2 
" clip-path="url(#pfcc121a7ba)" style="fill: none; stroke: #cbcbcb"/>
     </g>
     <g id="line2d_57"/>
     <g id="text_28">
      <!-- 200 -->
      <g transform="translate(854.257081 196.297813) scale(0.14 -0.14)">
       <use xlink:href="#DejaVuSans-32"/>
       <use xlink:href="#DejaVuSans-30" x="63.623047"/>
       <use xlink:href="#DejaVuSans-30" x="127.246094"/>
      </g>
     </g>
    </g>
    <g id="xtick_16">
     <g id="line2d_58">
      <path d="M 920.060329 182.16 
L 920.060329 7.2 
" clip-path="url(#pfcc121a7ba)" style="fill: none; stroke: #cbcbcb"/>
     </g>
     <g id="line2d_59"/>
     <g id="text_29">
      <!-- 300 -->
      <g transform="translate(906.699079 196.297813) scale(0.14 -0.14)">
       <use xlink:href="#DejaVuSans-33"/>
       <use xlink:href="#DejaVuSans-30" x="63.623047"/>
       <use xlink:href="#DejaVuSans-30" x="127.246094"/>
      </g>
     </g>
    </g>
    <g id="xtick_17">
     <g id="line2d_60">
      <path d="M 972.502327 182.16 
L 972.502327 7.2 
" clip-path="url(#pfcc121a7ba)" style="fill: none; stroke: #cbcbcb"/>
     </g>
     <g id="line2d_61"/>
     <g id="text_30">
      <!-- 400 -->
      <g transform="translate(959.141077 196.297813) scale(0.14 -0.14)">
       <use xlink:href="#DejaVuSans-34"/>
       <use xlink:href="#DejaVuSans-30" x="63.623047"/>
       <use xlink:href="#DejaVuSans-30" x="127.246094"/>
      </g>
     </g>
    </g>
    <g id="xtick_18">
     <g id="line2d_62">
      <path d="M 1024.944325 182.16 
L 1024.944325 7.2 
" clip-path="url(#pfcc121a7ba)" style="fill: none; stroke: #cbcbcb"/>
     </g>
     <g id="line2d_63"/>
     <g id="text_31">
      <!-- 500 -->
      <g transform="translate(1011.583075 196.297813) scale(0.14 -0.14)">
       <use xlink:href="#DejaVuSans-35"/>
       <use xlink:href="#DejaVuSans-30" x="63.623047"/>
       <use xlink:href="#DejaVuSans-30" x="127.246094"/>
      </g>
     </g>
    </g>
   </g>
   <g id="matplotlib.axis_6">
    <g id="ytick_12">
     <g id="line2d_64">
      <path d="M 749.335404 160.35971 
L 1044.111875 160.35971 
" clip-path="url(#pfcc121a7ba)" style="fill: none; stroke: #cbcbcb"/>
     </g>
     <g id="line2d_65"/>
     <g id="text_32">
      <!-- 2750 -->
      <g transform="translate(710.205404 165.678617) scale(0.14 -0.14)">
       <defs>
        <path id="DejaVuSans-37" d="M 525 4666 
L 3525 4666 
L 3525 4397 
L 1831 0 
L 1172 0 
L 2766 4134 
L 525 4134 
L 525 4666 
z
" transform="scale(0.015625)"/>
       </defs>
       <use xlink:href="#DejaVuSans-32"/>
       <use xlink:href="#DejaVuSans-37" x="63.623047"/>
       <use xlink:href="#DejaVuSans-35" x="127.246094"/>
       <use xlink:href="#DejaVuSans-30" x="190.869141"/>
      </g>
     </g>
    </g>
    <g id="ytick_13">
     <g id="line2d_66">
      <path d="M 749.335404 129.449097 
L 1044.111875 129.449097 
" clip-path="url(#pfcc121a7ba)" style="fill: none; stroke: #cbcbcb"/>
     </g>
     <g id="line2d_67"/>
     <g id="text_33">
      <!-- 3000 -->
      <g transform="translate(710.205404 134.768003) scale(0.14 -0.14)">
       <use xlink:href="#DejaVuSans-33"/>
       <use xlink:href="#DejaVuSans-30" x="63.623047"/>
       <use xlink:href="#DejaVuSans-30" x="127.246094"/>
       <use xlink:href="#DejaVuSans-30" x="190.869141"/>
      </g>
     </g>
    </g>
    <g id="ytick_14">
     <g id="line2d_68">
      <path d="M 749.335404 98.538484 
L 1044.111875 98.538484 
" clip-path="url(#pfcc121a7ba)" style="fill: none; stroke: #cbcbcb"/>
     </g>
     <g id="line2d_69"/>
     <g id="text_34">
      <!-- 3250 -->
      <g transform="translate(710.205404 103.85739) scale(0.14 -0.14)">
       <use xlink:href="#DejaVuSans-33"/>
       <use xlink:href="#DejaVuSans-32" x="63.623047"/>
       <use xlink:href="#DejaVuSans-35" x="127.246094"/>
       <use xlink:href="#DejaVuSans-30" x="190.869141"/>
      </g>
     </g>
    </g>
    <g id="ytick_15">
     <g id="line2d_70">
      <path d="M 749.335404 67.62787 
L 1044.111875 67.62787 
" clip-path="url(#pfcc121a7ba)" style="fill: none; stroke: #cbcbcb"/>
     </g>
     <g id="line2d_71"/>
     <g id="text_35">
      <!-- 3500 -->
      <g transform="translate(710.205404 72.946777) scale(0.14 -0.14)">
       <use xlink:href="#DejaVuSans-33"/>
       <use xlink:href="#DejaVuSans-35" x="63.623047"/>
       <use xlink:href="#DejaVuSans-30" x="127.246094"/>
       <use xlink:href="#DejaVuSans-30" x="190.869141"/>
      </g>
     </g>
    </g>
    <g id="ytick_16">
     <g id="line2d_72">
      <path d="M 749.335404 36.717257 
L 1044.111875 36.717257 
" clip-path="url(#pfcc121a7ba)" style="fill: none; stroke: #cbcbcb"/>
     </g>
     <g id="line2d_73"/>
     <g id="text_36">
      <!-- 3750 -->
      <g transform="translate(710.205404 42.036163) scale(0.14 -0.14)">
       <use xlink:href="#DejaVuSans-33"/>
       <use xlink:href="#DejaVuSans-37" x="63.623047"/>
       <use xlink:href="#DejaVuSans-35" x="127.246094"/>
       <use xlink:href="#DejaVuSans-30" x="190.869141"/>
      </g>
     </g>
    </g>
   </g>
   <g id="line2d_74">
    <path d="M 762.734335 147.542431 
L 764.307595 147.542431 
L 764.832015 149.274995 
L 768.502955 170.872639 
L 769.027375 171.559284 
L 773.222734 168.090895 
L 776.893674 164.112331 
L 777.942514 164.856088 
L 780.564614 166.884114 
L 781.089034 167.022034 
L 784.759974 135.06526 
L 785.284394 131.755741 
L 789.479754 151.849602 
L 793.150694 165.72572 
L 793.675114 166.789359 
L 797.346054 165.465848 
L 797.870474 165.657228 
L 801.541413 169.209956 
L 802.065833 168.696973 
L 805.736773 161.575397 
L 807.834453 155.925637 
L 809.932133 150.189304 
L 810.980973 154.148005 
L 814.127493 166.824406 
L 818.322853 162.282507 
L 822.518213 164.202648 
L 826.189152 167.529856 
L 826.713572 165.596131 
L 830.384512 127.560682 
L 830.908932 127.807242 
L 834.579872 164.684087 
L 835.104292 166.226086 
L 838.775232 163.211697 
L 840.348492 162.575826 
L 842.970592 161.603832 
L 844.019432 162.831775 
L 847.165952 166.635048 
L 850.836891 130.048141 
L 851.361311 126.321178 
L 855.032251 161.563806 
L 855.556671 165.188739 
L 859.752031 163.532667 
L 863.422971 161.335206 
L 863.947391 161.48016 
L 867.618331 165.515323 
L 868.142751 162.613257 
L 871.813691 128.510549 
L 872.338111 129.390717 
L 876.53347 150.547372 
L 880.20441 166.972529 
L 884.39977 166.607941 
L 888.07071 169.772294 
L 888.59513 169.904811 
L 892.26607 164.257617 
L 892.79049 163.22516 
L 896.46143 153.386228 
L 896.98585 153.67852 
L 900.65679 167.609759 
L 901.18121 167.977848 
L 904.852149 163.685469 
L 905.376569 163.532999 
L 909.047509 163.563004 
L 910.620769 165.109682 
L 913.242869 167.804006 
L 917.438229 117.016057 
L 921.109169 155.258976 
L 921.633589 159.36233 
L 925.828949 157.486774 
L 929.499888 156.605067 
L 930.024308 156.982273 
L 933.695248 163.368696 
L 934.219668 160.576085 
L 937.890608 124.285244 
L 938.415028 126.69443 
L 942.085968 163.142028 
L 942.610388 163.782729 
L 946.281328 162.796608 
L 950.476688 159.373801 
L 954.147627 163.769568 
L 954.672047 163.140337 
L 958.342987 128.085679 
L 958.867407 125.715946 
L 963.587187 148.879315 
L 966.733707 163.104899 
L 967.258127 164.073331 
L 970.929067 164.095095 
L 971.977907 164.834052 
L 975.124427 167.415662 
L 975.648847 166.728444 
L 979.319787 160.410846 
L 983.515146 149.415904 
L 987.186086 163.762202 
L 987.710506 165.254726 
L 991.381446 160.829407 
L 991.905866 160.470282 
L 995.576806 161.82395 
L 996.101226 162.166955 
L 999.772166 165.828112 
L 1000.296586 162.980773 
L 1003.967526 125.748215 
L 1004.491946 127.83124 
L 1008.162885 164.618372 
L 1008.687305 165.236765 
L 1012.882665 162.33968 
L 1016.553605 160.705825 
L 1020.224545 164.60989 
L 1020.748965 163.99216 
L 1024.419905 125.111378 
L 1024.944325 121.018801 
L 1028.615265 114.582964 
L 1029.139685 114.06669 
L 1030.712945 114.06669 
L 1030.712945 114.06669 
" clip-path="url(#pfcc121a7ba)" style="fill: none; stroke: #008fd5; stroke-width: 4"/>
   </g>
   <g id="line2d_75">
    <path d="M 762.734335 147.542431 
L 764.307595 147.542431 
L 764.832015 149.274995 
L 768.502955 170.872639 
L 769.027375 171.559284 
L 773.222734 168.090895 
L 776.893674 164.112331 
L 777.942514 164.856088 
L 780.564614 166.884114 
L 781.089034 167.022034 
L 784.759974 135.06526 
L 785.284394 131.755741 
L 789.479754 151.849602 
L 793.150694 165.72572 
L 793.675114 166.789359 
L 797.346054 165.465848 
L 797.870474 165.657228 
L 801.541413 169.209956 
L 802.065833 168.696973 
L 805.736773 161.575397 
L 807.834453 155.925637 
L 809.932133 150.189304 
L 810.980973 154.148005 
L 814.127493 166.824406 
L 818.322853 162.282507 
L 822.518213 164.202648 
L 826.189152 167.529856 
L 826.713572 165.596131 
L 830.384512 127.560682 
L 830.908932 127.807242 
L 834.579872 164.684087 
L 835.104292 166.226086 
L 838.775232 163.211697 
L 840.348492 162.575826 
L 842.970592 161.603832 
L 844.019432 162.831775 
L 847.165952 166.635048 
L 850.836891 130.048141 
L 851.361311 126.321178 
L 855.032251 161.563806 
L 855.556671 165.188739 
L 859.752031 163.532667 
L 863.422971 161.335206 
L 863.947391 161.48016 
L 867.618331 165.515323 
L 868.142751 162.613257 
L 871.813691 128.510549 
L 872.338111 129.390717 
L 876.53347 150.547372 
L 880.20441 166.972529 
L 884.39977 166.607941 
L 888.07071 169.772294 
L 888.59513 169.904811 
L 892.26607 164.257617 
L 892.79049 163.22516 
L 896.46143 153.386228 
L 896.98585 153.67852 
L 900.65679 164.894485 
L 901.18121 164.874652 
L 904.852149 157.866999 
L 905.900989 156.943031 
L 909.047509 154.641337 
L 910.096349 154.873378 
L 913.242869 155.779174 
L 917.438229 101.888029 
L 921.109169 137.415674 
L 921.633589 141.131135 
L 926.353369 135.638555 
L 929.499888 132.555402 
L 930.024308 132.544716 
L 933.695248 136.215835 
L 934.219668 133.035332 
L 937.890608 94.029217 
L 938.415028 96.050511 
L 942.085968 129.782805 
L 942.610388 130.035614 
L 946.281328 126.334219 
L 950.476688 119.808216 
L 954.147627 121.488709 
L 954.672047 120.471556 
L 958.342987 82.701624 
L 958.867407 79.943999 
L 963.587187 99.61628 
L 966.733707 111.514481 
L 967.258127 112.095021 
L 970.929067 109.401481 
L 971.453487 109.322273 
L 975.124427 109.618882 
L 976.173267 107.253345 
L 979.319787 99.51087 
L 983.515146 85.412763 
L 987.186086 97.043756 
L 987.710506 98.148388 
L 991.381446 91.007795 
L 991.905866 90.260778 
L 995.576806 88.899142 
L 996.101226 88.854255 
L 999.772166 89.800138 
L 1000.296586 86.564877 
L 1003.967526 46.617045 
L 1004.491946 48.312178 
L 1008.162885 82.384006 
L 1008.687305 82.614507 
L 1012.882665 76.614256 
L 1016.553605 72.265096 
L 1020.224545 73.453887 
L 1020.748965 72.448266 
L 1024.419905 30.852179 
L 1024.944325 26.37171 
L 1028.615265 17.220599 
L 1029.139685 16.316433 
L 1030.712945 15.152727 
L 1030.712945 15.152727 
" clip-path="url(#pfcc121a7ba)" style="fill: none; stroke: #fc4f30; stroke-width: 4"/>
   </g>
   <g id="line2d_76">
    <path d="M 762.734335 139.83461 
L 764.307595 139.83461 
L 764.832015 142.170082 
L 768.502955 171.283382 
L 769.027375 172.357164 
L 772.698315 169.924432 
L 773.747154 167.92777 
L 776.893674 161.52242 
L 777.942514 162.891996 
L 780.564614 166.630067 
L 781.089034 167.085757 
L 784.759974 134.369982 
L 785.284394 130.749667 
L 788.955334 139.711149 
L 789.479754 141.539011 
L 793.150694 163.279013 
L 793.675114 165.022534 
L 797.346054 164.224382 
L 797.870474 164.741169 
L 801.541413 172.027954 
L 802.065833 171.682171 
L 805.736773 164.463607 
L 807.834453 158.959767 
L 809.932133 153.380402 
L 810.980973 156.823464 
L 814.127493 167.87751 
L 817.798433 162.477691 
L 818.322853 161.933978 
L 822.518213 166.990309 
L 826.189152 170.238187 
L 826.713572 168.389195 
L 830.384512 131.923637 
L 830.908932 132.307755 
L 834.579872 169.611221 
L 835.104292 170.949705 
L 838.775232 165.530537 
L 839.299652 165.257382 
L 842.970592 164.352311 
L 844.019432 166.135014 
L 847.165952 171.644771 
L 850.836891 129.538116 
L 851.361311 125.181078 
L 855.032251 162.492543 
L 855.556671 166.330741 
L 859.227611 164.849869 
L 859.752031 164.453827 
L 863.422971 159.680915 
L 863.947391 159.951986 
L 867.618331 168.122078 
L 868.142751 165.175367 
L 871.813691 128.241591 
L 872.338111 128.936174 
L 876.53347 149.735938 
L 880.20441 169.923285 
L 883.87535 168.087273 
L 884.39977 167.968672 
L 888.07071 173.823939 
L 888.59513 174.207273 
L 892.79049 166.390691 
L 896.46143 155.515317 
L 896.98585 155.441693 
L 900.65679 165.28612 
L 901.18121 165.203772 
L 904.852149 158.323293 
L 905.376569 158.402833 
L 909.047509 161.489487 
L 911.669609 162.56674 
L 913.242869 163.194914 
L 917.438229 116.545999 
L 921.109169 146.390226 
L 921.633589 149.495656 
L 925.828949 144.865071 
L 929.499888 142.865963 
L 930.024308 143.022328 
L 933.695248 147.407288 
L 934.219668 145.355324 
L 937.890608 118.887931 
L 938.415028 120.082759 
L 942.085968 141.278957 
L 942.610388 141.274399 
L 946.805748 137.227825 
L 950.476688 134.66804 
L 954.147627 137.891921 
L 954.672047 137.29176 
L 958.342987 107.230675 
L 958.867407 105.440123 
L 962.538347 126.013642 
L 963.062767 128.073001 
L 966.733707 135.522851 
L 967.258127 135.411616 
L 970.929067 128.969137 
L 971.453487 129.292914 
L 975.124427 135.024297 
L 975.648847 133.407225 
L 979.319787 118.802655 
L 982.466306 113.01425 
L 983.515146 111.220468 
L 987.186086 114.543631 
L 987.710506 114.714454 
L 991.381446 107.79413 
L 991.905866 107.058644 
L 996.101226 105.311138 
L 999.772166 104.361089 
L 1000.296586 103.271913 
L 1003.967526 90.753235 
L 1004.491946 90.959105 
L 1008.162885 98.383085 
L 1008.687305 97.358175 
L 1012.358245 87.045833 
L 1013.407085 87.110281 
L 1016.553605 87.563616 
L 1020.224545 89.093027 
L 1020.748965 88.781778 
L 1024.944325 69.03059 
L 1028.615265 63.214263 
L 1029.139685 62.747676 
L 1030.712945 62.747676 
L 1030.712945 62.747676 
" clip-path="url(#pfcc121a7ba)" style="fill: none; stroke: #e5ae38; stroke-width: 4"/>
   </g>
   <g id="patch_15">
    <path d="M 749.335404 182.16 
L 749.335404 7.2 
" style="fill: none; stroke: #f0f0f0; stroke-width: 3; stroke-linejoin: miter; stroke-linecap: square"/>
   </g>
   <g id="patch_16">
    <path d="M 1044.111875 182.16 
L 1044.111875 7.2 
" style="fill: none; stroke: #f0f0f0; stroke-width: 3; stroke-linejoin: miter; stroke-linecap: square"/>
   </g>
   <g id="patch_17">
    <path d="M 749.335404 182.16 
L 1044.111875 182.16 
" style="fill: none; stroke: #f0f0f0; stroke-width: 3; stroke-linejoin: miter; stroke-linecap: square"/>
   </g>
   <g id="patch_18">
    <path d="M 749.335404 7.2 
L 1044.111875 7.2 
" style="fill: none; stroke: #f0f0f0; stroke-width: 3; stroke-linejoin: miter; stroke-linecap: square"/>
   </g>
   <g id="legend_3">
    <g id="patch_19">
     <path d="M 759.135404 80.048125 
L 908.410404 80.048125 
Q 911.210404 80.048125 911.210404 77.248125 
L 911.210404 17 
Q 911.210404 14.2 908.410404 14.2 
L 759.135404 14.2 
Q 756.335404 14.2 756.335404 17 
L 756.335404 77.248125 
Q 756.335404 80.048125 759.135404 80.048125 
z
" style="fill: #f0f0f0; opacity: 0.8; stroke: #cccccc; stroke-width: 0.5; stroke-linejoin: miter"/>
    </g>
    <g id="line2d_77">
     <path d="M 761.935404 25.537813 
L 775.935404 25.537813 
L 789.935404 25.537813 
" style="fill: none; stroke: #008fd5; stroke-width: 4"/>
    </g>
    <g id="text_37">
     <!-- target centroid -->
     <g transform="translate(801.135404 30.437813) scale(0.14 -0.14)">
      <defs>
       <path id="DejaVuSans-67" d="M 2906 1791 
Q 2906 2416 2648 2759 
Q 2391 3103 1925 3103 
Q 1463 3103 1205 2759 
Q 947 2416 947 1791 
Q 947 1169 1205 825 
Q 1463 481 1925 481 
Q 2391 481 2648 825 
Q 2906 1169 2906 1791 
z
M 3481 434 
Q 3481 -459 3084 -895 
Q 2688 -1331 1869 -1331 
Q 1566 -1331 1297 -1286 
Q 1028 -1241 775 -1147 
L 775 -588 
Q 1028 -725 1275 -790 
Q 1522 -856 1778 -856 
Q 2344 -856 2625 -561 
Q 2906 -266 2906 331 
L 2906 616 
Q 2728 306 2450 153 
Q 2172 0 1784 0 
Q 1141 0 747 490 
Q 353 981 353 1791 
Q 353 2603 747 3093 
Q 1141 3584 1784 3584 
Q 2172 3584 2450 3431 
Q 2728 3278 2906 2969 
L 2906 3500 
L 3481 3500 
L 3481 434 
z
" transform="scale(0.015625)"/>
       <path id="DejaVuSans-20" transform="scale(0.015625)"/>
       <path id="DejaVuSans-6e" d="M 3513 2113 
L 3513 0 
L 2938 0 
L 2938 2094 
Q 2938 2591 2744 2837 
Q 2550 3084 2163 3084 
Q 1697 3084 1428 2787 
Q 1159 2491 1159 1978 
L 1159 0 
L 581 0 
L 581 3500 
L 1159 3500 
L 1159 2956 
Q 1366 3272 1645 3428 
Q 1925 3584 2291 3584 
Q 2894 3584 3203 3211 
Q 3513 2838 3513 2113 
z
" transform="scale(0.015625)"/>
       <path id="DejaVuSans-6f" d="M 1959 3097 
Q 1497 3097 1228 2736 
Q 959 2375 959 1747 
Q 959 1119 1226 758 
Q 1494 397 1959 397 
Q 2419 397 2687 759 
Q 2956 1122 2956 1747 
Q 2956 2369 2687 2733 
Q 2419 3097 1959 3097 
z
M 1959 3584 
Q 2709 3584 3137 3096 
Q 3566 2609 3566 1747 
Q 3566 888 3137 398 
Q 2709 -91 1959 -91 
Q 1206 -91 779 398 
Q 353 888 353 1747 
Q 353 2609 779 3096 
Q 1206 3584 1959 3584 
z
" transform="scale(0.015625)"/>
       <path id="DejaVuSans-64" d="M 2906 2969 
L 2906 4863 
L 3481 4863 
L 3481 0 
L 2906 0 
L 2906 525 
Q 2725 213 2448 61 
Q 2172 -91 1784 -91 
Q 1150 -91 751 415 
Q 353 922 353 1747 
Q 353 2572 751 3078 
Q 1150 3584 1784 3584 
Q 2172 3584 2448 3432 
Q 2725 3281 2906 2969 
z
M 947 1747 
Q 947 1113 1208 752 
Q 1469 391 1925 391 
Q 2381 391 2643 752 
Q 2906 1113 2906 1747 
Q 2906 2381 2643 2742 
Q 2381 3103 1925 3103 
Q 1469 3103 1208 2742 
Q 947 2381 947 1747 
z
" transform="scale(0.015625)"/>
      </defs>
      <use xlink:href="#DejaVuSans-74"/>
      <use xlink:href="#DejaVuSans-61" x="39.208984"/>
      <use xlink:href="#DejaVuSans-72" x="100.488281"/>
      <use xlink:href="#DejaVuSans-67" x="139.851562"/>
      <use xlink:href="#DejaVuSans-65" x="203.328125"/>
      <use xlink:href="#DejaVuSans-74" x="264.851562"/>
      <use xlink:href="#DejaVuSans-20" x="304.060547"/>
      <use xlink:href="#DejaVuSans-63" x="335.847656"/>
      <use xlink:href="#DejaVuSans-65" x="390.828125"/>
      <use xlink:href="#DejaVuSans-6e" x="452.351562"/>
      <use xlink:href="#DejaVuSans-74" x="515.730469"/>
      <use xlink:href="#DejaVuSans-72" x="554.939453"/>
      <use xlink:href="#DejaVuSans-6f" x="593.802734"/>
      <use xlink:href="#DejaVuSans-69" x="654.984375"/>
      <use xlink:href="#DejaVuSans-64" x="682.767578"/>
     </g>
    </g>
    <g id="line2d_78">
     <path d="M 761.935404 46.087188 
L 775.935404 46.087188 
L 789.935404 46.087188 
" style="fill: none; stroke: #fc4f30; stroke-width: 4"/>
    </g>
    <g id="text_38">
     <!-- biased target -->
     <g transform="translate(801.135404 50.987188) scale(0.14 -0.14)">
      <defs>
       <path id="DejaVuSans-62" d="M 3116 1747 
Q 3116 2381 2855 2742 
Q 2594 3103 2138 3103 
Q 1681 3103 1420 2742 
Q 1159 2381 1159 1747 
Q 1159 1113 1420 752 
Q 1681 391 2138 391 
Q 2594 391 2855 752 
Q 3116 1113 3116 1747 
z
M 1159 2969 
Q 1341 3281 1617 3432 
Q 1894 3584 2278 3584 
Q 2916 3584 3314 3078 
Q 3713 2572 3713 1747 
Q 3713 922 3314 415 
Q 2916 -91 2278 -91 
Q 1894 -91 1617 61 
Q 1341 213 1159 525 
L 1159 0 
L 581 0 
L 581 4863 
L 1159 4863 
L 1159 2969 
z
" transform="scale(0.015625)"/>
       <path id="DejaVuSans-73" d="M 2834 3397 
L 2834 2853 
Q 2591 2978 2328 3040 
Q 2066 3103 1784 3103 
Q 1356 3103 1142 2972 
Q 928 2841 928 2578 
Q 928 2378 1081 2264 
Q 1234 2150 1697 2047 
L 1894 2003 
Q 2506 1872 2764 1633 
Q 3022 1394 3022 966 
Q 3022 478 2636 193 
Q 2250 -91 1575 -91 
Q 1294 -91 989 -36 
Q 684 19 347 128 
L 347 722 
Q 666 556 975 473 
Q 1284 391 1588 391 
Q 1994 391 2212 530 
Q 2431 669 2431 922 
Q 2431 1156 2273 1281 
Q 2116 1406 1581 1522 
L 1381 1569 
Q 847 1681 609 1914 
Q 372 2147 372 2553 
Q 372 3047 722 3315 
Q 1072 3584 1716 3584 
Q 2034 3584 2315 3537 
Q 2597 3491 2834 3397 
z
" transform="scale(0.015625)"/>
      </defs>
      <use xlink:href="#DejaVuSans-62"/>
      <use xlink:href="#DejaVuSans-69" x="63.476562"/>
      <use xlink:href="#DejaVuSans-61" x="91.259766"/>
      <use xlink:href="#DejaVuSans-73" x="152.539062"/>
      <use xlink:href="#DejaVuSans-65" x="204.638672"/>
      <use xlink:href="#DejaVuSans-64" x="266.162109"/>
      <use xlink:href="#DejaVuSans-20" x="329.638672"/>
      <use xlink:href="#DejaVuSans-74" x="361.425781"/>
      <use xlink:href="#DejaVuSans-61" x="400.634766"/>
      <use xlink:href="#DejaVuSans-72" x="461.914062"/>
      <use xlink:href="#DejaVuSans-67" x="501.277344"/>
      <use xlink:href="#DejaVuSans-65" x="564.753906"/>
      <use xlink:href="#DejaVuSans-74" x="626.277344"/>
     </g>
    </g>
    <g id="line2d_79">
     <path d="M 761.935404 66.636563 
L 775.935404 66.636563 
L 789.935404 66.636563 
" style="fill: none; stroke: #e5ae38; stroke-width: 4"/>
    </g>
    <g id="text_39">
     <!-- gen centroid -->
     <g transform="translate(801.135404 71.536563) scale(0.14 -0.14)">
      <use xlink:href="#DejaVuSans-67"/>
      <use xlink:href="#DejaVuSans-65" x="63.476562"/>
      <use xlink:href="#DejaVuSans-6e" x="125"/>
      <use xlink:href="#DejaVuSans-20" x="188.378906"/>
      <use xlink:href="#DejaVuSans-63" x="220.166016"/>
      <use xlink:href="#DejaVuSans-65" x="275.146484"/>
      <use xlink:href="#DejaVuSans-6e" x="336.669922"/>
      <use xlink:href="#DejaVuSans-74" x="400.048828"/>
      <use xlink:href="#DejaVuSans-72" x="439.257812"/>
      <use xlink:href="#DejaVuSans-6f" x="478.121094"/>
      <use xlink:href="#DejaVuSans-69" x="539.302734"/>
      <use xlink:href="#DejaVuSans-64" x="567.085938"/>
     </g>
    </g>
   </g>
  </g>
 </g>
 <defs>
  <clipPath id="p4274e4f2ce">
   <rect x="41.871875" y="7.2" width="294.776471" height="174.96"/>
  </clipPath>
  <clipPath id="p8f3c052ca4">
   <rect x="395.60364" y="7.2" width="294.776471" height="174.96"/>
  </clipPath>
  <clipPath id="pfcc121a7ba">
   <rect x="749.335404" y="7.2" width="294.776471" height="174.96"/>
  </clipPath>
 </defs>
</svg>
