<?xml version="1.0" encoding="utf-8" standalone="no"?>
<!DOCTYPE svg PUBLIC "-//W3C//DTD SVG 1.1//EN"
  "http://www.w3.org/Graphics/SVG/1.1/DTD/svg11.dtd">
<svg xmlns:xlink="http://www.w3.org/1999/xlink" width="1051.311875pt" height="207.744155pt" viewBox="0 0 1051.311875 207.744155" xmlns="http://www.w3.org/2000/svg" version="1.1">
 <metadata>
  <rdf:RDF xmlns:dc="http://purl.org/dc/elements/1.1/" xmlns:cc="http://creativecommons.org/ns#" xmlns:rdf="http://www.w3.org/1999/02/22-rdf-syntax-ns#">
   <cc:Work>
    <dc:type rdf:resource="http://purl.org/dc/dcmitype/StillImage"/>
    <dc:date>2023-01-19T14:54:19.116075</dc:date>
    <dc:format>image/svg+xml</dc:format>
    <dc:creator>
     <cc:Agent>
      <dc:title>Matplotlib v3.6.0, https://matplotlib.org/</dc:title>
     </cc:Agent>
    </dc:creator>
   </cc:Work>
  </rdf:RDF>
 </metadata>
 <defs>
  <style type="text/css">*{stroke-linejoin: round; stroke-linecap: butt}</style>
 </defs>
 <g id="figure_1">
  <g id="patch_1">
   <path d="M 0 207.744155 
L 1051.311875 207.744155 
L 1051.311875 0 
L 0 0 
L 0 207.744155 
z
" style="fill: none"/>
  </g>
  <g id="axes_1">
   <g id="patch_2">
    <path d="M 41.871875 183.49478 
L 336.648346 183.49478 
L 336.648346 8.53478 
L 41.871875 8.53478 
L 41.871875 183.49478 
z
" style="fill: none"/>
   </g>
   <g id="matplotlib.axis_1">
    <g id="xtick_1">
     <g id="line2d_1">
      <path d="M 55.270805 183.49478 
L 55.270805 8.53478 
" clip-path="url(#p02d79d6f8a)" style="fill: none; stroke: #cbcbcb"/>
     </g>
     <g id="line2d_2"/>
     <g id="text_1">
      <!-- 0 -->
      <g transform="translate(50.817055 197.632592) scale(0.14 -0.14)">
       <defs>
        <path id="DejaVuSans-30" d="M 2034 4250 
Q 1547 4250 1301 3770 
Q 1056 3291 1056 2328 
Q 1056 1369 1301 889 
Q 1547 409 2034 409 
Q 2525 409 2770 889 
Q 3016 1369 3016 2328 
Q 3016 3291 2770 3770 
Q 2525 4250 2034 4250 
z
M 2034 4750 
Q 2819 4750 3233 4129 
Q 3647 3509 3647 2328 
Q 3647 1150 3233 529 
Q 2819 -91 2034 -91 
Q 1250 -91 836 529 
Q 422 1150 422 2328 
Q 422 3509 836 4129 
Q 1250 4750 2034 4750 
z
" transform="scale(0.015625)"/>
       </defs>
       <use xlink:href="#DejaVuSans-30"/>
      </g>
     </g>
    </g>
    <g id="xtick_2">
     <g id="line2d_3">
      <path d="M 107.712803 183.49478 
L 107.712803 8.53478 
" clip-path="url(#p02d79d6f8a)" style="fill: none; stroke: #cbcbcb"/>
     </g>
     <g id="line2d_4"/>
     <g id="text_2">
      <!-- 100 -->
      <g transform="translate(94.351553 197.632592) scale(0.14 -0.14)">
       <defs>
        <path id="DejaVuSans-31" d="M 794 531 
L 1825 531 
L 1825 4091 
L 703 3866 
L 703 4441 
L 1819 4666 
L 2450 4666 
L 2450 531 
L 3481 531 
L 3481 0 
L 794 0 
L 794 531 
z
" transform="scale(0.015625)"/>
       </defs>
       <use xlink:href="#DejaVuSans-31"/>
       <use xlink:href="#DejaVuSans-30" x="63.623047"/>
       <use xlink:href="#DejaVuSans-30" x="127.246094"/>
      </g>
     </g>
    </g>
    <g id="xtick_3">
     <g id="line2d_5">
      <path d="M 160.154801 183.49478 
L 160.154801 8.53478 
" clip-path="url(#p02d79d6f8a)" style="fill: none; stroke: #cbcbcb"/>
     </g>
     <g id="line2d_6"/>
     <g id="text_3">
      <!-- 200 -->
      <g transform="translate(146.793551 197.632592) scale(0.14 -0.14)">
       <defs>
        <path id="DejaVuSans-32" d="M 1228 531 
L 3431 531 
L 3431 0 
L 469 0 
L 469 531 
Q 828 903 1448 1529 
Q 2069 2156 2228 2338 
Q 2531 2678 2651 2914 
Q 2772 3150 2772 3378 
Q 2772 3750 2511 3984 
Q 2250 4219 1831 4219 
Q 1534 4219 1204 4116 
Q 875 4013 500 3803 
L 500 4441 
Q 881 4594 1212 4672 
Q 1544 4750 1819 4750 
Q 2544 4750 2975 4387 
Q 3406 4025 3406 3419 
Q 3406 3131 3298 2873 
Q 3191 2616 2906 2266 
Q 2828 2175 2409 1742 
Q 1991 1309 1228 531 
z
" transform="scale(0.015625)"/>
       </defs>
       <use xlink:href="#DejaVuSans-32"/>
       <use xlink:href="#DejaVuSans-30" x="63.623047"/>
       <use xlink:href="#DejaVuSans-30" x="127.246094"/>
      </g>
     </g>
    </g>
    <g id="xtick_4">
     <g id="line2d_7">
      <path d="M 212.596799 183.49478 
L 212.596799 8.53478 
" clip-path="url(#p02d79d6f8a)" style="fill: none; stroke: #cbcbcb"/>
     </g>
     <g id="line2d_8"/>
     <g id="text_4">
      <!-- 300 -->
      <g transform="translate(199.235549 197.632592) scale(0.14 -0.14)">
       <defs>
        <path id="DejaVuSans-33" d="M 2597 2516 
Q 3050 2419 3304 2112 
Q 3559 1806 3559 1356 
Q 3559 666 3084 287 
Q 2609 -91 1734 -91 
Q 1441 -91 1130 -33 
Q 819 25 488 141 
L 488 750 
Q 750 597 1062 519 
Q 1375 441 1716 441 
Q 2309 441 2620 675 
Q 2931 909 2931 1356 
Q 2931 1769 2642 2001 
Q 2353 2234 1838 2234 
L 1294 2234 
L 1294 2753 
L 1863 2753 
Q 2328 2753 2575 2939 
Q 2822 3125 2822 3475 
Q 2822 3834 2567 4026 
Q 2313 4219 1838 4219 
Q 1578 4219 1281 4162 
Q 984 4106 628 3988 
L 628 4550 
Q 988 4650 1302 4700 
Q 1616 4750 1894 4750 
Q 2613 4750 3031 4423 
Q 3450 4097 3450 3541 
Q 3450 3153 3228 2886 
Q 3006 2619 2597 2516 
z
" transform="scale(0.015625)"/>
       </defs>
       <use xlink:href="#DejaVuSans-33"/>
       <use xlink:href="#DejaVuSans-30" x="63.623047"/>
       <use xlink:href="#DejaVuSans-30" x="127.246094"/>
      </g>
     </g>
    </g>
    <g id="xtick_5">
     <g id="line2d_9">
      <path d="M 265.038797 183.49478 
L 265.038797 8.53478 
" clip-path="url(#p02d79d6f8a)" style="fill: none; stroke: #cbcbcb"/>
     </g>
     <g id="line2d_10"/>
     <g id="text_5">
      <!-- 400 -->
      <g transform="translate(251.677547 197.632592) scale(0.14 -0.14)">
       <defs>
        <path id="DejaVuSans-34" d="M 2419 4116 
L 825 1625 
L 2419 1625 
L 2419 4116 
z
M 2253 4666 
L 3047 4666 
L 3047 1625 
L 3713 1625 
L 3713 1100 
L 3047 1100 
L 3047 0 
L 2419 0 
L 2419 1100 
L 313 1100 
L 313 1709 
L 2253 4666 
z
" transform="scale(0.015625)"/>
       </defs>
       <use xlink:href="#DejaVuSans-34"/>
       <use xlink:href="#DejaVuSans-30" x="63.623047"/>
       <use xlink:href="#DejaVuSans-30" x="127.246094"/>
      </g>
     </g>
    </g>
    <g id="xtick_6">
     <g id="line2d_11">
      <path d="M 317.480795 183.49478 
L 317.480795 8.53478 
" clip-path="url(#p02d79d6f8a)" style="fill: none; stroke: #cbcbcb"/>
     </g>
     <g id="line2d_12"/>
     <g id="text_6">
      <!-- 500 -->
      <g transform="translate(304.119545 197.632592) scale(0.14 -0.14)">
       <defs>
        <path id="DejaVuSans-35" d="M 691 4666 
L 3169 4666 
L 3169 4134 
L 1269 4134 
L 1269 2991 
Q 1406 3038 1543 3061 
Q 1681 3084 1819 3084 
Q 2600 3084 3056 2656 
Q 3513 2228 3513 1497 
Q 3513 744 3044 326 
Q 2575 -91 1722 -91 
Q 1428 -91 1123 -41 
Q 819 9 494 109 
L 494 744 
Q 775 591 1075 516 
Q 1375 441 1709 441 
Q 2250 441 2565 725 
Q 2881 1009 2881 1497 
Q 2881 1984 2565 2268 
Q 2250 2553 1709 2553 
Q 1456 2553 1204 2497 
Q 953 2441 691 2322 
L 691 4666 
z
" transform="scale(0.015625)"/>
       </defs>
       <use xlink:href="#DejaVuSans-35"/>
       <use xlink:href="#DejaVuSans-30" x="63.623047"/>
       <use xlink:href="#DejaVuSans-30" x="127.246094"/>
      </g>
     </g>
    </g>
   </g>
   <g id="matplotlib.axis_2">
    <g id="ytick_1">
     <g id="line2d_13">
      <path d="M 41.871875 175.542053 
L 336.648346 175.542053 
" clip-path="url(#p02d79d6f8a)" style="fill: none; stroke: #cbcbcb"/>
     </g>
     <g id="line2d_14"/>
     <g id="text_7">
      <!-- 0.00 -->
      <g transform="translate(7.2 180.860959) scale(0.14 -0.14)">
       <defs>
        <path id="DejaVuSans-2e" d="M 684 794 
L 1344 794 
L 1344 0 
L 684 0 
L 684 794 
z
" transform="scale(0.015625)"/>
       </defs>
       <use xlink:href="#DejaVuSans-30"/>
       <use xlink:href="#DejaVuSans-2e" x="63.623047"/>
       <use xlink:href="#DejaVuSans-30" x="95.410156"/>
       <use xlink:href="#DejaVuSans-30" x="159.033203"/>
      </g>
     </g>
    </g>
    <g id="ytick_2">
     <g id="line2d_15">
      <path d="M 41.871875 137.368963 
L 336.648346 137.368963 
" clip-path="url(#p02d79d6f8a)" style="fill: none; stroke: #cbcbcb"/>
     </g>
     <g id="line2d_16"/>
     <g id="text_8">
      <!-- 0.02 -->
      <g transform="translate(7.2 142.687869) scale(0.14 -0.14)">
       <use xlink:href="#DejaVuSans-30"/>
       <use xlink:href="#DejaVuSans-2e" x="63.623047"/>
       <use xlink:href="#DejaVuSans-30" x="95.410156"/>
       <use xlink:href="#DejaVuSans-32" x="159.033203"/>
      </g>
     </g>
    </g>
    <g id="ytick_3">
     <g id="line2d_17">
      <path d="M 41.871875 99.195873 
L 336.648346 99.195873 
" clip-path="url(#p02d79d6f8a)" style="fill: none; stroke: #cbcbcb"/>
     </g>
     <g id="line2d_18"/>
     <g id="text_9">
      <!-- 0.04 -->
      <g transform="translate(7.2 104.514779) scale(0.14 -0.14)">
       <use xlink:href="#DejaVuSans-30"/>
       <use xlink:href="#DejaVuSans-2e" x="63.623047"/>
       <use xlink:href="#DejaVuSans-30" x="95.410156"/>
       <use xlink:href="#DejaVuSans-34" x="159.033203"/>
      </g>
     </g>
    </g>
    <g id="ytick_4">
     <g id="line2d_19">
      <path d="M 41.871875 61.022783 
L 336.648346 61.022783 
" clip-path="url(#p02d79d6f8a)" style="fill: none; stroke: #cbcbcb"/>
     </g>
     <g id="line2d_20"/>
     <g id="text_10">
      <!-- 0.06 -->
      <g transform="translate(7.2 66.34169) scale(0.14 -0.14)">
       <defs>
        <path id="DejaVuSans-36" d="M 2113 2584 
Q 1688 2584 1439 2293 
Q 1191 2003 1191 1497 
Q 1191 994 1439 701 
Q 1688 409 2113 409 
Q 2538 409 2786 701 
Q 3034 994 3034 1497 
Q 3034 2003 2786 2293 
Q 2538 2584 2113 2584 
z
M 3366 4563 
L 3366 3988 
Q 3128 4100 2886 4159 
Q 2644 4219 2406 4219 
Q 1781 4219 1451 3797 
Q 1122 3375 1075 2522 
Q 1259 2794 1537 2939 
Q 1816 3084 2150 3084 
Q 2853 3084 3261 2657 
Q 3669 2231 3669 1497 
Q 3669 778 3244 343 
Q 2819 -91 2113 -91 
Q 1303 -91 875 529 
Q 447 1150 447 2328 
Q 447 3434 972 4092 
Q 1497 4750 2381 4750 
Q 2619 4750 2861 4703 
Q 3103 4656 3366 4563 
z
" transform="scale(0.015625)"/>
       </defs>
       <use xlink:href="#DejaVuSans-30"/>
       <use xlink:href="#DejaVuSans-2e" x="63.623047"/>
       <use xlink:href="#DejaVuSans-30" x="95.410156"/>
       <use xlink:href="#DejaVuSans-36" x="159.033203"/>
      </g>
     </g>
    </g>
    <g id="ytick_5">
     <g id="line2d_21">
      <path d="M 41.871875 22.849694 
L 336.648346 22.849694 
" clip-path="url(#p02d79d6f8a)" style="fill: none; stroke: #cbcbcb"/>
     </g>
     <g id="line2d_22"/>
     <g id="text_11">
      <!-- 0.08 -->
      <g transform="translate(7.2 28.1686) scale(0.14 -0.14)">
       <defs>
        <path id="DejaVuSans-38" d="M 2034 2216 
Q 1584 2216 1326 1975 
Q 1069 1734 1069 1313 
Q 1069 891 1326 650 
Q 1584 409 2034 409 
Q 2484 409 2743 651 
Q 3003 894 3003 1313 
Q 3003 1734 2745 1975 
Q 2488 2216 2034 2216 
z
M 1403 2484 
Q 997 2584 770 2862 
Q 544 3141 544 3541 
Q 544 4100 942 4425 
Q 1341 4750 2034 4750 
Q 2731 4750 3128 4425 
Q 3525 4100 3525 3541 
Q 3525 3141 3298 2862 
Q 3072 2584 2669 2484 
Q 3125 2378 3379 2068 
Q 3634 1759 3634 1313 
Q 3634 634 3220 271 
Q 2806 -91 2034 -91 
Q 1263 -91 848 271 
Q 434 634 434 1313 
Q 434 1759 690 2068 
Q 947 2378 1403 2484 
z
M 1172 3481 
Q 1172 3119 1398 2916 
Q 1625 2713 2034 2713 
Q 2441 2713 2670 2916 
Q 2900 3119 2900 3481 
Q 2900 3844 2670 4047 
Q 2441 4250 2034 4250 
Q 1625 4250 1398 4047 
Q 1172 3844 1172 3481 
z
" transform="scale(0.015625)"/>
       </defs>
       <use xlink:href="#DejaVuSans-30"/>
       <use xlink:href="#DejaVuSans-2e" x="63.623047"/>
       <use xlink:href="#DejaVuSans-30" x="95.410156"/>
       <use xlink:href="#DejaVuSans-38" x="159.033203"/>
      </g>
     </g>
    </g>
   </g>
   <g id="line2d_23">
    <path d="M 55.270805 16.487507 
L 188.9979 16.487507 
L 189.52232 175.542053 
L 323.249415 175.542053 
L 323.249415 175.542053 
" clip-path="url(#p02d79d6f8a)" style="fill: none; stroke: #008fd5; stroke-width: 4"/>
   </g>
   <g id="patch_3">
    <path d="M 41.871875 183.49478 
L 41.871875 8.53478 
" style="fill: none; stroke: #f0f0f0; stroke-width: 3; stroke-linejoin: miter; stroke-linecap: square"/>
   </g>
   <g id="patch_4">
    <path d="M 336.648346 183.49478 
L 336.648346 8.53478 
" style="fill: none; stroke: #f0f0f0; stroke-width: 3; stroke-linejoin: miter; stroke-linecap: square"/>
   </g>
   <g id="patch_5">
    <path d="M 41.871875 183.49478 
L 336.648346 183.49478 
" style="fill: none; stroke: #f0f0f0; stroke-width: 3; stroke-linejoin: miter; stroke-linecap: square"/>
   </g>
   <g id="patch_6">
    <path d="M 41.871875 8.53478 
L 336.648346 8.53478 
" style="fill: none; stroke: #f0f0f0; stroke-width: 3; stroke-linejoin: miter; stroke-linecap: square"/>
   </g>
   <g id="legend_1">
    <g id="patch_7">
     <path d="M 218.882096 40.284155 
L 326.848346 40.284155 
Q 329.648346 40.284155 329.648346 37.484155 
L 329.648346 18.33478 
Q 329.648346 15.53478 326.848346 15.53478 
L 218.882096 15.53478 
Q 216.082096 15.53478 216.082096 18.33478 
L 216.082096 37.484155 
Q 216.082096 40.284155 218.882096 40.284155 
z
" style="fill: #f0f0f0; opacity: 0.8; stroke: #cccccc; stroke-width: 0.5; stroke-linejoin: miter"/>
    </g>
    <g id="line2d_24">
     <path d="M 221.682096 26.872592 
L 235.682096 26.872592 
L 249.682096 26.872592 
" style="fill: none; stroke: #008fd5; stroke-width: 4"/>
    </g>
    <g id="text_12">
     <!-- accuracy -->
     <g transform="translate(260.882096 31.772592) scale(0.14 -0.14)">
      <defs>
       <path id="DejaVuSans-61" d="M 2194 1759 
Q 1497 1759 1228 1600 
Q 959 1441 959 1056 
Q 959 750 1161 570 
Q 1363 391 1709 391 
Q 2188 391 2477 730 
Q 2766 1069 2766 1631 
L 2766 1759 
L 2194 1759 
z
M 3341 1997 
L 3341 0 
L 2766 0 
L 2766 531 
Q 2569 213 2275 61 
Q 1981 -91 1556 -91 
Q 1019 -91 701 211 
Q 384 513 384 1019 
Q 384 1609 779 1909 
Q 1175 2209 1959 2209 
L 2766 2209 
L 2766 2266 
Q 2766 2663 2505 2880 
Q 2244 3097 1772 3097 
Q 1472 3097 1187 3025 
Q 903 2953 641 2809 
L 641 3341 
Q 956 3463 1253 3523 
Q 1550 3584 1831 3584 
Q 2591 3584 2966 3190 
Q 3341 2797 3341 1997 
z
" transform="scale(0.015625)"/>
       <path id="DejaVuSans-63" d="M 3122 3366 
L 3122 2828 
Q 2878 2963 2633 3030 
Q 2388 3097 2138 3097 
Q 1578 3097 1268 2742 
Q 959 2388 959 1747 
Q 959 1106 1268 751 
Q 1578 397 2138 397 
Q 2388 397 2633 464 
Q 2878 531 3122 666 
L 3122 134 
Q 2881 22 2623 -34 
Q 2366 -91 2075 -91 
Q 1284 -91 818 406 
Q 353 903 353 1747 
Q 353 2603 823 3093 
Q 1294 3584 2113 3584 
Q 2378 3584 2631 3529 
Q 2884 3475 3122 3366 
z
" transform="scale(0.015625)"/>
       <path id="DejaVuSans-75" d="M 544 1381 
L 544 3500 
L 1119 3500 
L 1119 1403 
Q 1119 906 1312 657 
Q 1506 409 1894 409 
Q 2359 409 2629 706 
Q 2900 1003 2900 1516 
L 2900 3500 
L 3475 3500 
L 3475 0 
L 2900 0 
L 2900 538 
Q 2691 219 2414 64 
Q 2138 -91 1772 -91 
Q 1169 -91 856 284 
Q 544 659 544 1381 
z
M 1991 3584 
L 1991 3584 
z
" transform="scale(0.015625)"/>
       <path id="DejaVuSans-72" d="M 2631 2963 
Q 2534 3019 2420 3045 
Q 2306 3072 2169 3072 
Q 1681 3072 1420 2755 
Q 1159 2438 1159 1844 
L 1159 0 
L 581 0 
L 581 3500 
L 1159 3500 
L 1159 2956 
Q 1341 3275 1631 3429 
Q 1922 3584 2338 3584 
Q 2397 3584 2469 3576 
Q 2541 3569 2628 3553 
L 2631 2963 
z
" transform="scale(0.015625)"/>
       <path id="DejaVuSans-79" d="M 2059 -325 
Q 1816 -950 1584 -1140 
Q 1353 -1331 966 -1331 
L 506 -1331 
L 506 -850 
L 844 -850 
Q 1081 -850 1212 -737 
Q 1344 -625 1503 -206 
L 1606 56 
L 191 3500 
L 800 3500 
L 1894 763 
L 2988 3500 
L 3597 3500 
L 2059 -325 
z
" transform="scale(0.015625)"/>
      </defs>
      <use xlink:href="#DejaVuSans-61"/>
      <use xlink:href="#DejaVuSans-63" x="61.279297"/>
      <use xlink:href="#DejaVuSans-63" x="116.259766"/>
      <use xlink:href="#DejaVuSans-75" x="171.240234"/>
      <use xlink:href="#DejaVuSans-72" x="234.619141"/>
      <use xlink:href="#DejaVuSans-61" x="275.732422"/>
      <use xlink:href="#DejaVuSans-63" x="337.011719"/>
      <use xlink:href="#DejaVuSans-79" x="391.992188"/>
     </g>
    </g>
   </g>
  </g>
  <g id="axes_2">
   <g id="patch_8">
    <path d="M 395.60364 183.49478 
L 690.38011 183.49478 
L 690.38011 8.53478 
L 395.60364 8.53478 
L 395.60364 183.49478 
z
" style="fill: none"/>
   </g>
   <g id="matplotlib.axis_3">
    <g id="xtick_7">
     <g id="line2d_25">
      <path d="M 409.00257 183.49478 
L 409.00257 8.53478 
" clip-path="url(#pef46d0ed4e)" style="fill: none; stroke: #cbcbcb"/>
     </g>
     <g id="line2d_26"/>
     <g id="text_13">
      <!-- 0 -->
      <g transform="translate(404.54882 197.632592) scale(0.14 -0.14)">
       <use xlink:href="#DejaVuSans-30"/>
      </g>
     </g>
    </g>
    <g id="xtick_8">
     <g id="line2d_27">
      <path d="M 461.444568 183.49478 
L 461.444568 8.53478 
" clip-path="url(#pef46d0ed4e)" style="fill: none; stroke: #cbcbcb"/>
     </g>
     <g id="line2d_28"/>
     <g id="text_14">
      <!-- 100 -->
      <g transform="translate(448.083318 197.632592) scale(0.14 -0.14)">
       <use xlink:href="#DejaVuSans-31"/>
       <use xlink:href="#DejaVuSans-30" x="63.623047"/>
       <use xlink:href="#DejaVuSans-30" x="127.246094"/>
      </g>
     </g>
    </g>
    <g id="xtick_9">
     <g id="line2d_29">
      <path d="M 513.886566 183.49478 
L 513.886566 8.53478 
" clip-path="url(#pef46d0ed4e)" style="fill: none; stroke: #cbcbcb"/>
     </g>
     <g id="line2d_30"/>
     <g id="text_15">
      <!-- 200 -->
      <g transform="translate(500.525316 197.632592) scale(0.14 -0.14)">
       <use xlink:href="#DejaVuSans-32"/>
       <use xlink:href="#DejaVuSans-30" x="63.623047"/>
       <use xlink:href="#DejaVuSans-30" x="127.246094"/>
      </g>
     </g>
    </g>
    <g id="xtick_10">
     <g id="line2d_31">
      <path d="M 566.328564 183.49478 
L 566.328564 8.53478 
" clip-path="url(#pef46d0ed4e)" style="fill: none; stroke: #cbcbcb"/>
     </g>
     <g id="line2d_32"/>
     <g id="text_16">
      <!-- 300 -->
      <g transform="translate(552.967314 197.632592) scale(0.14 -0.14)">
       <use xlink:href="#DejaVuSans-33"/>
       <use xlink:href="#DejaVuSans-30" x="63.623047"/>
       <use xlink:href="#DejaVuSans-30" x="127.246094"/>
      </g>
     </g>
    </g>
    <g id="xtick_11">
     <g id="line2d_33">
      <path d="M 618.770562 183.49478 
L 618.770562 8.53478 
" clip-path="url(#pef46d0ed4e)" style="fill: none; stroke: #cbcbcb"/>
     </g>
     <g id="line2d_34"/>
     <g id="text_17">
      <!-- 400 -->
      <g transform="translate(605.409312 197.632592) scale(0.14 -0.14)">
       <use xlink:href="#DejaVuSans-34"/>
       <use xlink:href="#DejaVuSans-30" x="63.623047"/>
       <use xlink:href="#DejaVuSans-30" x="127.246094"/>
      </g>
     </g>
    </g>
    <g id="xtick_12">
     <g id="line2d_35">
      <path d="M 671.21256 183.49478 
L 671.21256 8.53478 
" clip-path="url(#pef46d0ed4e)" style="fill: none; stroke: #cbcbcb"/>
     </g>
     <g id="line2d_36"/>
     <g id="text_18">
      <!-- 500 -->
      <g transform="translate(657.85131 197.632592) scale(0.14 -0.14)">
       <use xlink:href="#DejaVuSans-35"/>
       <use xlink:href="#DejaVuSans-30" x="63.623047"/>
       <use xlink:href="#DejaVuSans-30" x="127.246094"/>
      </g>
     </g>
    </g>
   </g>
   <g id="matplotlib.axis_4">
    <g id="ytick_6">
     <g id="line2d_37">
      <path d="M 395.60364 183.442228 
L 690.38011 183.442228 
" clip-path="url(#pef46d0ed4e)" style="fill: none; stroke: #cbcbcb"/>
     </g>
     <g id="line2d_38"/>
     <g id="text_19">
      <!-- 0 -->
      <g transform="translate(383.19614 188.761134) scale(0.14 -0.14)">
       <use xlink:href="#DejaVuSans-30"/>
      </g>
     </g>
    </g>
    <g id="ytick_7">
     <g id="line2d_39">
      <path d="M 395.60364 153.087645 
L 690.38011 153.087645 
" clip-path="url(#pef46d0ed4e)" style="fill: none; stroke: #cbcbcb"/>
     </g>
     <g id="line2d_40"/>
     <g id="text_20">
      <!-- 20 -->
      <g transform="translate(374.28864 158.406551) scale(0.14 -0.14)">
       <use xlink:href="#DejaVuSans-32"/>
       <use xlink:href="#DejaVuSans-30" x="63.623047"/>
      </g>
     </g>
    </g>
    <g id="ytick_8">
     <g id="line2d_41">
      <path d="M 395.60364 122.733063 
L 690.38011 122.733063 
" clip-path="url(#pef46d0ed4e)" style="fill: none; stroke: #cbcbcb"/>
     </g>
     <g id="line2d_42"/>
     <g id="text_21">
      <!-- 40 -->
      <g transform="translate(374.28864 128.051969) scale(0.14 -0.14)">
       <use xlink:href="#DejaVuSans-34"/>
       <use xlink:href="#DejaVuSans-30" x="63.623047"/>
      </g>
     </g>
    </g>
    <g id="ytick_9">
     <g id="line2d_43">
      <path d="M 395.60364 92.37848 
L 690.38011 92.37848 
" clip-path="url(#pef46d0ed4e)" style="fill: none; stroke: #cbcbcb"/>
     </g>
     <g id="line2d_44"/>
     <g id="text_22">
      <!-- 60 -->
      <g transform="translate(374.28864 97.697386) scale(0.14 -0.14)">
       <use xlink:href="#DejaVuSans-36"/>
       <use xlink:href="#DejaVuSans-30" x="63.623047"/>
      </g>
     </g>
    </g>
    <g id="ytick_10">
     <g id="line2d_45">
      <path d="M 395.60364 62.023897 
L 690.38011 62.023897 
" clip-path="url(#pef46d0ed4e)" style="fill: none; stroke: #cbcbcb"/>
     </g>
     <g id="line2d_46"/>
     <g id="text_23">
      <!-- 80 -->
      <g transform="translate(374.28864 67.342803) scale(0.14 -0.14)">
       <use xlink:href="#DejaVuSans-38"/>
       <use xlink:href="#DejaVuSans-30" x="63.623047"/>
      </g>
     </g>
    </g>
    <g id="ytick_11">
     <g id="line2d_47">
      <path d="M 395.60364 31.669315 
L 690.38011 31.669315 
" clip-path="url(#pef46d0ed4e)" style="fill: none; stroke: #cbcbcb"/>
     </g>
     <g id="line2d_48"/>
     <g id="text_24">
      <!-- 100 -->
      <g transform="translate(365.38114 36.988221) scale(0.14 -0.14)">
       <use xlink:href="#DejaVuSans-31"/>
       <use xlink:href="#DejaVuSans-30" x="63.623047"/>
       <use xlink:href="#DejaVuSans-30" x="127.246094"/>
      </g>
     </g>
    </g>
   </g>
   <g id="line2d_49">
    <path d="M 409.00257 56.904908 
L 409.52699 108.456257 
L 410.05141 147.782599 
L 410.57583 84.606348 
L 411.10025 113.283082 
L 411.62467 79.55079 
L 412.14909 79.241772 
L 412.67351 127.472029 
L 413.19793 60.753133 
L 413.72235 16.487507 
L 414.24677 54.126812 
L 414.77119 61.390819 
L 415.29561 114.120235 
L 415.82003 132.388536 
L 416.34445 87.99786 
L 416.86887 77.788667 
L 417.39329 148.511895 
L 417.91771 148.425838 
L 418.44213 138.55788 
L 418.96655 99.68716 
L 419.49097 77.617339 
L 420.01539 89.502666 
L 421.06423 151.463768 
L 421.58865 166.93184 
L 422.11307 158.214972 
L 422.63749 167.887589 
L 423.16191 161.76585 
L 423.68633 150.787166 
L 424.21075 86.357528 
L 424.73517 112.106903 
L 425.25959 108.804234 
L 425.78401 134.70091 
L 426.30843 84.949676 
L 426.832849 78.673121 
L 427.357269 58.570019 
L 427.881689 105.743081 
L 428.406109 101.494796 
L 428.930529 138.425699 
L 429.454949 109.675216 
L 429.979369 135.558489 
L 430.503789 140.621631 
L 431.028209 143.296997 
L 431.552629 86.730059 
L 432.077049 45.02764 
L 432.601469 62.685576 
L 433.125889 94.645521 
L 433.650309 109.710307 
L 434.174729 84.205459 
L 434.699149 44.070849 
L 435.747989 163.876707 
L 436.272409 163.749754 
L 436.796829 155.706635 
L 437.321249 92.529011 
L 437.845669 147.291788 
L 438.370089 146.802742 
L 438.894509 159.415506 
L 439.418929 139.874919 
L 439.943349 144.139444 
L 440.467769 51.932895 
L 440.992189 121.934556 
L 441.516609 162.699405 
L 442.041029 162.761248 
L 442.565449 165.828496 
L 443.089869 151.903659 
L 443.614289 165.026514 
L 444.138709 168.203239 
L 444.663129 162.59402 
L 445.187549 101.630164 
L 446.236389 164.636366 
L 446.760809 139.434628 
L 447.285229 140.154685 
L 447.809649 151.747601 
L 448.334069 102.091619 
L 448.858489 129.505317 
L 449.382909 133.473678 
L 449.907329 127.637417 
L 450.431749 124.426433 
L 450.956169 143.175897 
L 451.480589 129.80634 
L 452.005009 144.315992 
L 452.529429 166.168623 
L 453.053848 165.181244 
L 453.578268 169.219368 
L 454.102688 168.728407 
L 454.627108 158.011925 
L 455.151528 160.599498 
L 456.200368 99.8107 
L 456.724788 146.743968 
L 457.249208 151.769767 
L 457.773628 172.466409 
L 458.298048 159.492819 
L 458.822468 159.784675 
L 459.871308 169.041102 
L 460.395728 142.999489 
L 460.920148 151.49078 
L 461.444568 84.611651 
L 461.968988 87.488663 
L 462.493408 94.483873 
L 463.017828 135.644992 
L 463.542248 135.433585 
L 464.066668 165.64921 
L 465.115508 161.181125 
L 465.639928 148.121526 
L 466.164348 121.518608 
L 466.688768 122.716162 
L 467.213188 158.516423 
L 467.737608 154.9615 
L 468.786448 123.771157 
L 469.310868 100.390449 
L 469.835288 141.983354 
L 470.359708 161.484621 
L 470.884128 158.622652 
L 471.408548 158.545007 
L 471.932968 153.649603 
L 472.457388 151.048781 
L 472.981808 141.818204 
L 473.506228 147.041184 
L 474.030648 121.25519 
L 474.555068 131.683325 
L 475.079488 145.220125 
L 475.603908 154.450495 
L 476.128328 156.330675 
L 476.652748 129.212279 
L 477.177168 133.694259 
L 477.701588 109.970675 
L 478.226008 136.593735 
L 478.750427 140.603625 
L 479.274847 136.938195 
L 479.799267 139.71957 
L 480.323687 123.636507 
L 480.848107 150.755494 
L 481.372527 133.077155 
L 481.896947 125.167987 
L 482.421367 107.01787 
L 482.945787 96.344206 
L 483.470207 113.5289 
L 483.994627 126.24577 
L 484.519047 161.066603 
L 485.043467 166.686303 
L 485.567887 169.097666 
L 486.092307 169.06203 
L 486.616727 175.542053 
L 487.141147 166.362818 
L 487.665567 104.597669 
L 489.238827 163.151019 
L 489.763247 160.987935 
L 490.287667 155.844058 
L 490.812087 114.649625 
L 491.860927 157.460635 
L 492.385347 161.855939 
L 492.909767 159.967261 
L 493.434187 104.928943 
L 493.958607 117.08782 
L 494.483027 125.549306 
L 495.007447 158.906824 
L 495.531867 135.681502 
L 496.056287 142.269063 
L 496.580707 140.395399 
L 497.105127 132.157401 
L 497.629547 126.595599 
L 498.153967 112.949365 
L 498.678387 125.260338 
L 499.202807 160.912149 
L 499.727227 171.274793 
L 500.251647 166.466469 
L 500.776067 136.853506 
L 501.300487 131.821605 
L 501.824907 159.12988 
L 502.349327 174.251846 
L 502.873747 164.313462 
L 503.398167 160.550471 
L 503.922587 88.884618 
L 504.971426 159.260981 
L 505.495846 173.801631 
L 506.020266 172.935475 
L 506.544686 172.593687 
L 507.069106 171.386899 
L 507.593526 171.515549 
L 508.117946 171.385944 
L 508.642366 161.228629 
L 509.166786 142.773208 
L 509.691206 165.83564 
L 510.215626 163.347884 
L 510.740046 170.357065 
L 511.264466 160.117727 
L 511.788886 145.070401 
L 512.313306 121.067315 
L 512.837726 141.144647 
L 513.362146 142.881597 
L 513.886566 127.281746 
L 514.410986 105.844933 
L 514.935406 96.341688 
L 515.459826 129.757637 
L 515.984246 128.063584 
L 516.508666 139.529596 
L 517.033086 125.239234 
L 517.557506 140.556152 
L 518.081926 160.807951 
L 518.606346 160.179299 
L 519.130766 129.243213 
L 519.655186 86.332737 
L 520.179606 127.514114 
L 520.704026 145.21585 
L 521.228446 145.17641 
L 521.752866 156.751263 
L 522.277286 134.849479 
L 522.801706 154.639884 
L 523.326126 154.03816 
L 523.850546 162.167542 
L 524.374966 131.749859 
L 524.899386 143.50749 
L 525.423806 134.479854 
L 525.948226 156.296305 
L 526.472646 166.338162 
L 526.997066 168.456479 
L 527.521486 159.069276 
L 528.045906 131.905463 
L 528.570326 157.63099 
L 529.094746 164.945577 
L 529.619166 149.236584 
L 530.143585 140.020917 
L 530.668005 143.471976 
L 531.192425 153.81715 
L 531.716845 144.127237 
L 532.241265 147.982901 
L 532.765685 138.044611 
L 533.290105 113.000187 
L 533.814525 149.253666 
L 534.863365 158.780374 
L 535.387785 114.116257 
L 535.912205 113.982707 
L 536.436625 149.272199 
L 536.961045 166.085156 
L 537.485465 167.440465 
L 538.534305 172.137615 
L 539.058725 167.526203 
L 539.583145 167.636936 
L 540.107565 156.764852 
L 540.631985 150.888685 
L 541.156405 111.21498 
L 541.680825 154.54588 
L 542.205245 155.694158 
L 542.729665 159.567694 
L 543.254085 143.635221 
L 543.778505 138.233531 
L 544.302925 153.015124 
L 544.827345 156.962821 
L 545.876185 108.991675 
L 546.400605 120.199147 
L 546.925025 123.868719 
L 547.449445 145.506005 
L 547.973865 149.758491 
L 548.498285 150.887828 
L 549.022705 156.427021 
L 549.547125 165.193812 
L 550.071545 159.379253 
L 550.595965 151.301151 
L 551.120385 117.444685 
L 551.644805 110.309585 
L 552.169225 113.181971 
L 552.693645 139.486373 
L 553.218065 140.287914 
L 553.742485 127.088075 
L 554.266905 125.391578 
L 554.791325 147.273854 
L 555.315745 146.270674 
L 555.840165 139.959607 
L 556.889004 152.327264 
L 557.413424 138.688394 
L 557.937844 154.776448 
L 558.462264 160.10696 
L 558.986684 150.421907 
L 559.511104 151.774558 
L 560.035524 147.993667 
L 560.559944 158.19282 
L 561.084364 156.770986 
L 561.608784 142.910947 
L 562.133204 140.106057 
L 562.657624 146.67587 
L 563.182044 145.618976 
L 563.706464 165.508558 
L 564.755304 134.310072 
L 565.279724 136.177257 
L 565.804144 146.831592 
L 566.328564 149.209835 
L 566.852984 125.118653 
L 567.377404 115.124663 
L 567.901824 129.509498 
L 568.426244 132.108553 
L 568.950664 135.496927 
L 569.475084 151.786899 
L 569.999504 146.647715 
L 570.523924 156.458598 
L 571.048344 161.960988 
L 571.572764 162.04165 
L 572.621604 132.805561 
L 573.146024 116.519124 
L 573.670444 142.048789 
L 574.194864 128.223054 
L 574.719284 121.949071 
L 575.243704 125.27392 
L 575.768124 79.725453 
L 576.292544 112.016891 
L 576.816964 114.205985 
L 577.341384 102.982748 
L 577.865804 112.012757 
L 578.390224 91.09767 
L 578.914644 135.707949 
L 579.439064 118.876066 
L 579.963484 151.500564 
L 580.487904 155.060284 
L 581.012324 108.048067 
L 581.536744 140.119275 
L 582.061163 126.128477 
L 582.585583 96.753044 
L 583.110003 101.71863 
L 583.634423 101.809424 
L 584.158843 149.617426 
L 584.683263 150.246917 
L 585.207683 156.946656 
L 585.732103 143.02133 
L 586.256523 139.493483 
L 586.780943 134.022927 
L 587.305363 144.446995 
L 587.829783 126.333605 
L 588.354203 136.035083 
L 588.878623 129.66183 
L 589.927463 152.102231 
L 590.451883 152.423094 
L 590.976303 159.762156 
L 591.500723 160.132365 
L 592.025143 161.810062 
L 592.549563 165.025874 
L 593.073983 153.085341 
L 593.598403 153.765463 
L 594.122823 136.169676 
L 594.647243 146.094045 
L 595.171663 149.498103 
L 595.696083 149.003297 
L 596.220503 142.338169 
L 596.744923 124.459226 
L 597.269343 115.60102 
L 597.793763 137.908041 
L 598.318183 138.415726 
L 598.842603 151.158377 
L 599.367023 113.44946 
L 599.891443 130.194717 
L 600.415863 160.258567 
L 600.940283 146.271319 
L 601.464703 146.648497 
L 601.989123 79.625975 
L 602.513543 124.728388 
L 603.037963 135.618125 
L 603.562383 112.815907 
L 604.086803 111.529099 
L 604.611223 106.965375 
L 605.660063 161.431006 
L 606.184483 162.677629 
L 607.233323 145.558821 
L 607.757742 147.429003 
L 608.282162 157.154482 
L 608.806582 149.957752 
L 609.331002 117.276309 
L 609.855422 137.27727 
L 610.379842 126.204159 
L 610.904262 140.421126 
L 611.428682 146.021312 
L 611.953102 160.788382 
L 612.477522 165.934227 
L 613.001942 158.01825 
L 613.526362 170.101261 
L 614.050782 168.000503 
L 614.575202 161.120197 
L 615.099622 112.056608 
L 615.624042 140.099217 
L 616.148462 153.505266 
L 616.672882 153.681979 
L 617.721722 129.052796 
L 618.246142 140.171359 
L 618.770562 140.799553 
L 619.294982 145.609087 
L 619.819402 131.400985 
L 620.343822 126.427953 
L 620.868242 118.864638 
L 621.392662 151.179423 
L 621.917082 150.427338 
L 622.441502 148.304842 
L 622.965922 144.042224 
L 623.490342 135.744806 
L 624.014762 152.293067 
L 624.539182 156.445493 
L 625.063602 149.47379 
L 625.588022 114.535378 
L 626.112442 126.168958 
L 627.161282 157.95232 
L 627.685702 150.880687 
L 628.210122 136.928772 
L 628.734542 158.544028 
L 629.258962 152.6061 
L 629.783382 159.161999 
L 630.307802 159.032248 
L 630.832222 135.991788 
L 631.356642 132.432335 
L 631.881062 135.238835 
L 632.405482 134.304618 
L 632.929902 161.372801 
L 633.978741 145.387806 
L 634.503161 155.873267 
L 635.027581 146.558823 
L 635.552001 152.564021 
L 636.076421 138.279518 
L 636.600841 148.798551 
L 637.125261 155.982823 
L 637.649681 158.762267 
L 638.174101 159.385455 
L 638.698521 157.790464 
L 639.222941 130.872098 
L 639.747361 148.559458 
L 640.271781 149.987111 
L 640.796201 154.493246 
L 641.320621 130.791627 
L 641.845041 120.59098 
L 642.369461 128.391847 
L 642.893881 150.749991 
L 643.418301 155.878747 
L 643.942721 153.13768 
L 644.467141 154.189664 
L 644.991561 161.978012 
L 645.515981 157.972344 
L 646.040401 159.063087 
L 646.564821 138.41493 
L 647.089241 108.693738 
L 647.613661 137.384605 
L 648.138081 140.898169 
L 648.662501 158.499222 
L 649.186921 156.253059 
L 649.711341 155.106743 
L 650.235761 131.117644 
L 650.760181 161.76967 
L 651.284601 167.923903 
L 651.809021 139.659137 
L 652.333441 134.890924 
L 652.857861 138.476289 
L 653.382281 150.912212 
L 653.906701 150.694815 
L 654.431121 151.914576 
L 654.955541 136.505416 
L 655.479961 154.533386 
L 656.004381 162.149835 
L 656.528801 157.808571 
L 657.053221 151.193946 
L 657.577641 121.560583 
L 658.102061 136.181918 
L 658.626481 157.284608 
L 659.150901 163.235131 
L 659.67532 152.988949 
L 660.19974 134.272648 
L 660.72416 135.426501 
L 661.24858 142.696729 
L 661.773 160.302127 
L 662.29742 142.779374 
L 662.82184 120.802645 
L 663.34626 144.940588 
L 663.87068 154.646273 
L 664.3951 151.394741 
L 664.91952 160.043216 
L 665.44394 144.57935 
L 665.96836 140.128773 
L 666.49278 150.67271 
L 667.0172 149.814066 
L 667.54162 150.147407 
L 668.06604 117.010534 
L 668.59046 133.560703 
L 669.11488 130.486645 
L 669.6393 151.859406 
L 670.16372 156.896436 
L 670.68814 158.536646 
L 671.21256 152.102888 
L 671.73698 115.735201 
L 672.2614 132.551649 
L 672.78582 136.338367 
L 673.31024 124.013907 
L 673.83466 117.881429 
L 674.35908 94.382218 
L 674.8835 132.6712 
L 675.40792 146.981177 
L 675.93234 130.978756 
L 676.98118 142.962623 
L 676.98118 142.962623 
" clip-path="url(#pef46d0ed4e)" style="fill: none; stroke: #008fd5; stroke-opacity: 0.4; stroke-width: 4"/>
   </g>
   <g id="line2d_50">
    <path d="M 409.00257 56.904908 
L 409.52699 59.482472 
L 410.05141 63.897483 
L 410.57583 64.932932 
L 411.10025 67.350447 
L 412.14909 68.524535 
L 412.67351 71.471909 
L 413.19793 70.93597 
L 413.72235 68.213548 
L 414.24677 67.509211 
L 414.77119 67.203285 
L 415.29561 69.549134 
L 415.82003 72.691111 
L 416.34445 73.456449 
L 416.86887 73.673063 
L 417.91771 80.965556 
L 418.44213 83.845167 
L 418.96655 84.637265 
L 419.49097 84.286271 
L 420.01539 84.547096 
L 420.53981 86.354622 
L 422.11307 96.713107 
L 423.16191 103.346537 
L 423.68633 105.718568 
L 424.21075 104.750516 
L 424.73517 105.11834 
L 425.25959 105.302637 
L 425.78401 106.772549 
L 426.30843 105.681404 
L 426.832849 104.330991 
L 427.357269 102.042945 
L 427.881689 102.227948 
L 428.406109 102.191294 
L 428.930529 104.003017 
L 429.454949 104.28663 
L 430.503789 107.588796 
L 431.028209 109.374205 
L 431.552629 108.241998 
L 432.077049 105.081281 
L 432.601469 102.961494 
L 433.125889 102.545697 
L 433.650309 102.903928 
L 434.174729 101.969005 
L 434.699149 99.074097 
L 435.223569 99.343896 
L 436.272409 105.629499 
L 436.796829 108.133361 
L 437.321249 107.353144 
L 439.418929 114.944476 
L 439.943349 116.404227 
L 440.467769 113.180663 
L 440.992189 113.618356 
L 442.565449 120.777941 
L 443.089869 122.334229 
L 444.663129 128.452488 
L 445.187549 127.111373 
L 445.711969 127.292208 
L 446.236389 129.159413 
L 447.285229 130.197253 
L 447.809649 131.27477 
L 448.334069 129.815609 
L 448.858489 129.800099 
L 449.382909 129.983782 
L 449.907329 129.86646 
L 450.431749 129.594461 
L 450.956169 130.273538 
L 451.480589 130.250177 
L 452.005009 130.953466 
L 454.102688 137.714003 
L 455.151528 139.822432 
L 455.675948 139.399734 
L 456.200368 137.420281 
L 456.724788 137.886466 
L 457.249208 138.580631 
L 457.773628 140.274919 
L 459.346888 143.289772 
L 459.871308 144.577338 
L 460.395728 144.498445 
L 460.920148 144.848063 
L 461.968988 139.118862 
L 462.493408 136.887115 
L 463.542248 136.755438 
L 464.591088 139.455842 
L 465.115508 140.542107 
L 465.639928 140.921079 
L 466.688768 139.089219 
L 467.737608 140.805627 
L 468.262028 140.692728 
L 468.786448 139.846651 
L 469.310868 137.873841 
L 469.835288 138.079317 
L 470.884128 140.218238 
L 471.408548 141.134576 
L 472.457388 142.224752 
L 472.981808 142.204424 
L 473.506228 142.446262 
L 474.030648 141.386708 
L 474.555068 140.901538 
L 475.079488 141.117467 
L 476.128328 142.511448 
L 476.652748 141.846492 
L 477.177168 141.438881 
L 477.701588 139.86547 
L 478.226008 139.701883 
L 478.750427 139.746973 
L 479.274847 139.606535 
L 479.799267 139.612189 
L 480.323687 138.813405 
L 480.848107 139.410511 
L 481.372527 139.093842 
L 481.896947 138.397549 
L 482.421367 136.828564 
L 482.945787 134.804348 
L 483.470207 133.740576 
L 483.994627 133.365834 
L 485.043467 136.347648 
L 487.141147 142.590327 
L 487.665567 140.690693 
L 488.189987 139.814805 
L 488.714407 140.009876 
L 489.763247 142.157985 
L 490.287667 142.84229 
L 490.812087 141.432657 
L 491.336507 141.064061 
L 492.385347 142.882494 
L 492.909767 143.736735 
L 493.434187 141.796345 
L 493.958607 140.56092 
L 494.483027 139.810341 
L 495.007447 140.765166 
L 495.531867 140.510984 
L 496.580707 140.588714 
L 497.105127 140.167147 
L 497.629547 139.488571 
L 498.153967 138.161611 
L 498.678387 137.516546 
L 499.202807 138.686327 
L 500.251647 141.623288 
L 500.776067 141.3848 
L 501.300487 140.906639 
L 501.824907 141.817801 
L 502.349327 143.439504 
L 503.398167 145.286568 
L 503.922587 142.466471 
L 504.447006 141.480194 
L 504.971426 142.369233 
L 506.544686 146.750742 
L 508.117946 150.270539 
L 508.642366 150.818445 
L 509.166786 150.416184 
L 510.740046 152.723289 
L 511.264466 153.093009 
L 511.788886 152.691877 
L 512.313306 151.11065 
L 513.362146 150.225814 
L 513.886566 149.078609 
L 514.935406 144.388166 
L 515.984246 142.876988 
L 516.508666 142.70962 
L 517.033086 141.836102 
L 517.557506 141.772106 
L 518.606346 143.596671 
L 519.130766 142.878997 
L 519.655186 140.051683 
L 520.179606 139.424806 
L 521.228446 139.987458 
L 521.752866 140.825647 
L 522.277286 140.526839 
L 523.326126 141.872774 
L 523.850546 142.887514 
L 524.374966 142.330631 
L 524.899386 142.389474 
L 525.423806 141.993993 
L 525.948226 142.709108 
L 526.997066 145.118858 
L 527.521486 145.816378 
L 528.045906 145.120832 
L 528.570326 145.74634 
L 529.094746 146.706304 
L 529.619166 146.832817 
L 530.143585 146.492222 
L 530.668005 146.341209 
L 531.192425 146.715005 
L 531.716845 146.585618 
L 532.241265 146.655482 
L 532.765685 146.224938 
L 533.290105 144.563703 
L 533.814525 144.798203 
L 534.338945 145.282961 
L 534.863365 145.957831 
L 535.912205 142.846601 
L 536.436625 143.167882 
L 539.583145 149.868703 
L 540.107565 150.213511 
L 540.631985 150.24727 
L 541.156405 148.295654 
L 542.205245 148.962465 
L 542.729665 149.492728 
L 543.254085 149.199854 
L 543.778505 148.65154 
L 544.302925 148.869718 
L 544.827345 149.274373 
L 545.351765 148.556933 
L 545.876185 146.57867 
L 546.925025 144.190145 
L 547.449445 144.255938 
L 548.498285 144.8489 
L 549.022705 145.427807 
L 549.547125 146.416108 
L 550.071545 147.064265 
L 550.595965 147.276109 
L 552.169225 142.469351 
L 553.218065 142.218592 
L 554.266905 140.658543 
L 555.315745 141.253377 
L 555.840165 141.188689 
L 556.364584 141.420305 
L 556.889004 141.965655 
L 557.413424 141.801793 
L 557.937844 142.450526 
L 558.462264 143.333348 
L 560.035524 144.287194 
L 561.084364 145.571903 
L 561.608784 145.438856 
L 562.133204 145.172216 
L 563.182044 145.265977 
L 563.706464 146.278105 
L 564.230884 146.51472 
L 565.279724 145.418129 
L 565.804144 145.488804 
L 566.328564 145.674855 
L 566.852984 144.647046 
L 567.377404 143.170927 
L 568.426244 141.968892 
L 568.950664 141.645295 
L 569.475084 142.152375 
L 569.999504 142.377142 
L 570.523924 143.081213 
L 571.572764 144.926024 
L 572.097184 145.106648 
L 572.621604 144.491593 
L 573.146024 143.092969 
L 573.670444 143.040761 
L 574.194864 142.299876 
L 575.243704 140.481917 
L 575.768124 137.444094 
L 577.865804 132.396966 
L 578.390224 130.332002 
L 578.914644 130.6008 
L 579.439064 130.014566 
L 580.487904 132.287443 
L 581.012324 131.075478 
L 581.536744 131.527669 
L 582.061163 131.257708 
L 583.110003 128.141785 
L 583.634423 126.825166 
L 585.207683 130.472275 
L 585.732103 131.099731 
L 586.256523 131.519419 
L 586.780943 131.644597 
L 587.305363 132.284721 
L 587.829783 131.987167 
L 588.354203 132.189562 
L 588.878623 132.063174 
L 589.403043 132.457167 
L 590.451883 134.388603 
L 592.549563 139.472412 
L 593.598403 140.833678 
L 594.122823 140.600478 
L 594.647243 140.875158 
L 595.696083 141.691158 
L 596.220503 141.723511 
L 596.744923 140.860299 
L 597.269343 139.597333 
L 598.318183 139.45801 
L 598.842603 140.043028 
L 599.367023 138.713347 
L 599.891443 138.287418 
L 600.415863 139.385975 
L 601.464703 140.076156 
L 601.989123 137.053647 
L 602.513543 136.437385 
L 603.037963 136.39642 
L 604.611223 132.679601 
L 605.135643 132.807083 
L 606.184483 135.660248 
L 606.708903 136.586038 
L 607.757742 137.554393 
L 608.282162 138.534397 
L 608.806582 139.105566 
L 609.331002 138.014102 
L 609.855422 137.977259 
L 610.379842 137.388606 
L 610.904262 137.540231 
L 611.428682 137.964285 
L 613.526362 142.764283 
L 614.050782 144.026097 
L 614.575202 144.880801 
L 615.099622 143.239593 
L 615.624042 143.082574 
L 616.672882 144.107621 
L 617.197302 143.963551 
L 617.721722 143.218014 
L 618.770562 142.952378 
L 619.294982 143.085214 
L 619.819402 142.501001 
L 620.343822 141.69735 
L 620.868242 140.555715 
L 621.917082 141.553922 
L 622.441502 141.891469 
L 622.965922 141.999007 
L 623.490342 141.686294 
L 624.014762 142.216635 
L 624.539182 142.928079 
L 625.063602 143.255364 
L 625.588022 141.819367 
L 626.112442 141.036846 
L 626.636862 141.127156 
L 627.161282 141.968414 
L 627.685702 142.414028 
L 628.210122 142.139765 
L 628.734542 142.959977 
L 629.258962 143.442283 
L 630.307802 144.968468 
L 630.832222 144.519635 
L 631.356642 143.915271 
L 632.405482 143.02261 
L 632.929902 143.94012 
L 633.454321 144.39688 
L 633.978741 144.446425 
L 634.503161 145.017767 
L 635.027581 145.094819 
L 635.552001 145.46828 
L 636.076421 145.108842 
L 636.600841 145.293327 
L 637.649681 146.474528 
L 638.698521 147.653599 
L 639.222941 146.814524 
L 640.271781 147.056038 
L 640.796201 147.4279 
L 641.320621 146.596085 
L 641.845041 145.295831 
L 642.369461 144.450631 
L 642.893881 144.765601 
L 643.418301 145.321259 
L 644.467141 146.13596 
L 644.991561 146.928063 
L 646.040401 148.059418 
L 646.564821 147.577193 
L 647.089241 145.633019 
L 647.613661 145.220597 
L 648.138081 145.004477 
L 649.186921 146.207905 
L 649.711341 146.652847 
L 650.235761 145.876087 
L 650.760181 146.670767 
L 651.284601 147.733424 
L 651.809021 147.32971 
L 652.333441 146.707771 
L 652.857861 146.296198 
L 654.431121 146.994352 
L 654.955541 146.469905 
L 655.479961 146.873081 
L 656.004381 147.636919 
L 656.528801 148.145502 
L 657.053221 148.297923 
L 657.577641 146.961058 
L 658.102061 146.4221 
L 658.626481 146.965224 
L 659.150901 147.77872 
L 659.67532 148.039232 
L 660.72416 146.754685 
L 661.24858 146.551789 
L 661.773 147.239304 
L 662.29742 147.016306 
L 662.82184 145.705624 
L 663.34626 145.667372 
L 663.87068 146.116318 
L 664.3951 146.380241 
L 664.91952 147.063388 
L 665.44394 146.939188 
L 665.96836 146.598668 
L 667.54162 147.112678 
L 668.06604 145.60757 
L 669.11488 144.2793 
L 669.6393 144.658307 
L 670.68814 145.933538 
L 671.21256 146.242006 
L 671.73698 144.716667 
L 672.2614 144.108418 
L 672.78582 143.719913 
L 673.31024 142.734614 
L 673.83466 141.491955 
L 674.35908 139.136469 
L 674.8835 138.813208 
L 675.40792 139.221606 
L 675.93234 138.809465 
L 676.45676 138.733559 
L 676.98118 138.945013 
L 676.98118 138.945013 
" clip-path="url(#pef46d0ed4e)" style="fill: none; stroke: #008fd5; stroke-width: 4"/>
   </g>
   <g id="patch_9">
    <path d="M 395.60364 183.49478 
L 395.60364 8.53478 
" style="fill: none; stroke: #f0f0f0; stroke-width: 3; stroke-linejoin: miter; stroke-linecap: square"/>
   </g>
   <g id="patch_10">
    <path d="M 690.38011 183.49478 
L 690.38011 8.53478 
" style="fill: none; stroke: #f0f0f0; stroke-width: 3; stroke-linejoin: miter; stroke-linecap: square"/>
   </g>
   <g id="patch_11">
    <path d="M 395.60364 183.49478 
L 690.38011 183.49478 
" style="fill: none; stroke: #f0f0f0; stroke-width: 3; stroke-linejoin: miter; stroke-linecap: square"/>
   </g>
   <g id="patch_12">
    <path d="M 395.60364 8.53478 
L 690.38011 8.53478 
" style="fill: none; stroke: #f0f0f0; stroke-width: 3; stroke-linejoin: miter; stroke-linecap: square"/>
   </g>
   <g id="legend_2">
    <g id="patch_13">
     <path d="M 565.425735 40.284155 
L 680.58011 40.284155 
Q 683.38011 40.284155 683.38011 37.484155 
L 683.38011 18.33478 
Q 683.38011 15.53478 680.58011 15.53478 
L 565.425735 15.53478 
Q 562.625735 15.53478 562.625735 18.33478 
L 562.625735 37.484155 
Q 562.625735 40.284155 565.425735 40.284155 
z
" style="fill: #f0f0f0; opacity: 0.8; stroke: #cccccc; stroke-width: 0.5; stroke-linejoin: miter"/>
    </g>
    <g id="line2d_51">
     <path d="M 568.225735 26.872592 
L 582.225735 26.872592 
L 596.225735 26.872592 
" style="fill: none; stroke: #008fd5; stroke-width: 4"/>
    </g>
    <g id="text_25">
     <!-- perplexity -->
     <g transform="translate(607.425735 31.772592) scale(0.14 -0.14)">
      <defs>
       <path id="DejaVuSans-70" d="M 1159 525 
L 1159 -1331 
L 581 -1331 
L 581 3500 
L 1159 3500 
L 1159 2969 
Q 1341 3281 1617 3432 
Q 1894 3584 2278 3584 
Q 2916 3584 3314 3078 
Q 3713 2572 3713 1747 
Q 3713 922 3314 415 
Q 2916 -91 2278 -91 
Q 1894 -91 1617 61 
Q 1341 213 1159 525 
z
M 3116 1747 
Q 3116 2381 2855 2742 
Q 2594 3103 2138 3103 
Q 1681 3103 1420 2742 
Q 1159 2381 1159 1747 
Q 1159 1113 1420 752 
Q 1681 391 2138 391 
Q 2594 391 2855 752 
Q 3116 1113 3116 1747 
z
" transform="scale(0.015625)"/>
       <path id="DejaVuSans-65" d="M 3597 1894 
L 3597 1613 
L 953 1613 
Q 991 1019 1311 708 
Q 1631 397 2203 397 
Q 2534 397 2845 478 
Q 3156 559 3463 722 
L 3463 178 
Q 3153 47 2828 -22 
Q 2503 -91 2169 -91 
Q 1331 -91 842 396 
Q 353 884 353 1716 
Q 353 2575 817 3079 
Q 1281 3584 2069 3584 
Q 2775 3584 3186 3129 
Q 3597 2675 3597 1894 
z
M 3022 2063 
Q 3016 2534 2758 2815 
Q 2500 3097 2075 3097 
Q 1594 3097 1305 2825 
Q 1016 2553 972 2059 
L 3022 2063 
z
" transform="scale(0.015625)"/>
       <path id="DejaVuSans-6c" d="M 603 4863 
L 1178 4863 
L 1178 0 
L 603 0 
L 603 4863 
z
" transform="scale(0.015625)"/>
       <path id="DejaVuSans-78" d="M 3513 3500 
L 2247 1797 
L 3578 0 
L 2900 0 
L 1881 1375 
L 863 0 
L 184 0 
L 1544 1831 
L 300 3500 
L 978 3500 
L 1906 2253 
L 2834 3500 
L 3513 3500 
z
" transform="scale(0.015625)"/>
       <path id="DejaVuSans-69" d="M 603 3500 
L 1178 3500 
L 1178 0 
L 603 0 
L 603 3500 
z
M 603 4863 
L 1178 4863 
L 1178 4134 
L 603 4134 
L 603 4863 
z
" transform="scale(0.015625)"/>
       <path id="DejaVuSans-74" d="M 1172 4494 
L 1172 3500 
L 2356 3500 
L 2356 3053 
L 1172 3053 
L 1172 1153 
Q 1172 725 1289 603 
Q 1406 481 1766 481 
L 2356 481 
L 2356 0 
L 1766 0 
Q 1100 0 847 248 
Q 594 497 594 1153 
L 594 3053 
L 172 3053 
L 172 3500 
L 594 3500 
L 594 4494 
L 1172 4494 
z
" transform="scale(0.015625)"/>
      </defs>
      <use xlink:href="#DejaVuSans-70"/>
      <use xlink:href="#DejaVuSans-65" x="63.476562"/>
      <use xlink:href="#DejaVuSans-72" x="125"/>
      <use xlink:href="#DejaVuSans-70" x="166.113281"/>
      <use xlink:href="#DejaVuSans-6c" x="229.589844"/>
      <use xlink:href="#DejaVuSans-65" x="257.373047"/>
      <use xlink:href="#DejaVuSans-78" x="317.146484"/>
      <use xlink:href="#DejaVuSans-69" x="376.326172"/>
      <use xlink:href="#DejaVuSans-74" x="404.109375"/>
      <use xlink:href="#DejaVuSans-79" x="443.318359"/>
     </g>
    </g>
   </g>
  </g>
  <g id="axes_3">
   <g id="patch_14">
    <path d="M 749.335404 183.49478 
L 1044.111875 183.49478 
L 1044.111875 8.53478 
L 749.335404 8.53478 
L 749.335404 183.49478 
z
" style="fill: none"/>
   </g>
   <g id="matplotlib.axis_5">
    <g id="xtick_13">
     <g id="line2d_52">
      <path d="M 762.734335 183.49478 
L 762.734335 8.53478 
" clip-path="url(#pcbe6fe3b1f)" style="fill: none; stroke: #cbcbcb"/>
     </g>
     <g id="line2d_53"/>
     <g id="text_26">
      <!-- 0 -->
      <g transform="translate(758.280585 197.632592) scale(0.14 -0.14)">
       <use xlink:href="#DejaVuSans-30"/>
      </g>
     </g>
    </g>
    <g id="xtick_14">
     <g id="line2d_54">
      <path d="M 815.176333 183.49478 
L 815.176333 8.53478 
" clip-path="url(#pcbe6fe3b1f)" style="fill: none; stroke: #cbcbcb"/>
     </g>
     <g id="line2d_55"/>
     <g id="text_27">
      <!-- 100 -->
      <g transform="translate(801.815083 197.632592) scale(0.14 -0.14)">
       <use xlink:href="#DejaVuSans-31"/>
       <use xlink:href="#DejaVuSans-30" x="63.623047"/>
       <use xlink:href="#DejaVuSans-30" x="127.246094"/>
      </g>
     </g>
    </g>
    <g id="xtick_15">
     <g id="line2d_56">
      <path d="M 867.618331 183.49478 
L 867.618331 8.53478 
" clip-path="url(#pcbe6fe3b1f)" style="fill: none; stroke: #cbcbcb"/>
     </g>
     <g id="line2d_57"/>
     <g id="text_28">
      <!-- 200 -->
      <g transform="translate(854.257081 197.632592) scale(0.14 -0.14)">
       <use xlink:href="#DejaVuSans-32"/>
       <use xlink:href="#DejaVuSans-30" x="63.623047"/>
       <use xlink:href="#DejaVuSans-30" x="127.246094"/>
      </g>
     </g>
    </g>
    <g id="xtick_16">
     <g id="line2d_58">
      <path d="M 920.060329 183.49478 
L 920.060329 8.53478 
" clip-path="url(#pcbe6fe3b1f)" style="fill: none; stroke: #cbcbcb"/>
     </g>
     <g id="line2d_59"/>
     <g id="text_29">
      <!-- 300 -->
      <g transform="translate(906.699079 197.632592) scale(0.14 -0.14)">
       <use xlink:href="#DejaVuSans-33"/>
       <use xlink:href="#DejaVuSans-30" x="63.623047"/>
       <use xlink:href="#DejaVuSans-30" x="127.246094"/>
      </g>
     </g>
    </g>
    <g id="xtick_17">
     <g id="line2d_60">
      <path d="M 972.502327 183.49478 
L 972.502327 8.53478 
" clip-path="url(#pcbe6fe3b1f)" style="fill: none; stroke: #cbcbcb"/>
     </g>
     <g id="line2d_61"/>
     <g id="text_30">
      <!-- 400 -->
      <g transform="translate(959.141077 197.632592) scale(0.14 -0.14)">
       <use xlink:href="#DejaVuSans-34"/>
       <use xlink:href="#DejaVuSans-30" x="63.623047"/>
       <use xlink:href="#DejaVuSans-30" x="127.246094"/>
      </g>
     </g>
    </g>
    <g id="xtick_18">
     <g id="line2d_62">
      <path d="M 1024.944325 183.49478 
L 1024.944325 8.53478 
" clip-path="url(#pcbe6fe3b1f)" style="fill: none; stroke: #cbcbcb"/>
     </g>
     <g id="line2d_63"/>
     <g id="text_31">
      <!-- 500 -->
      <g transform="translate(1011.583075 197.632592) scale(0.14 -0.14)">
       <use xlink:href="#DejaVuSans-35"/>
       <use xlink:href="#DejaVuSans-30" x="63.623047"/>
       <use xlink:href="#DejaVuSans-30" x="127.246094"/>
      </g>
     </g>
    </g>
   </g>
   <g id="matplotlib.axis_6">
    <g id="ytick_12">
     <g id="line2d_64">
      <path d="M 749.335404 175.542053 
L 1044.111875 175.542053 
" clip-path="url(#pcbe6fe3b1f)" style="fill: none; stroke: #cbcbcb"/>
     </g>
     <g id="line2d_65"/>
     <g id="text_32">
      <!-- 0.0 -->
      <g transform="translate(723.571029 180.860959) scale(0.14 -0.14)">
       <use xlink:href="#DejaVuSans-30"/>
       <use xlink:href="#DejaVuSans-2e" x="63.623047"/>
       <use xlink:href="#DejaVuSans-30" x="95.410156"/>
      </g>
     </g>
    </g>
    <g id="ytick_13">
     <g id="line2d_66">
      <path d="M 749.335404 142.937423 
L 1044.111875 142.937423 
" clip-path="url(#pcbe6fe3b1f)" style="fill: none; stroke: #cbcbcb"/>
     </g>
     <g id="line2d_67"/>
     <g id="text_33">
      <!-- 0.2 -->
      <g transform="translate(723.571029 148.25633) scale(0.14 -0.14)">
       <use xlink:href="#DejaVuSans-30"/>
       <use xlink:href="#DejaVuSans-2e" x="63.623047"/>
       <use xlink:href="#DejaVuSans-32" x="95.410156"/>
      </g>
     </g>
    </g>
    <g id="ytick_14">
     <g id="line2d_68">
      <path d="M 749.335404 110.332794 
L 1044.111875 110.332794 
" clip-path="url(#pcbe6fe3b1f)" style="fill: none; stroke: #cbcbcb"/>
     </g>
     <g id="line2d_69"/>
     <g id="text_34">
      <!-- 0.4 -->
      <g transform="translate(723.571029 115.6517) scale(0.14 -0.14)">
       <use xlink:href="#DejaVuSans-30"/>
       <use xlink:href="#DejaVuSans-2e" x="63.623047"/>
       <use xlink:href="#DejaVuSans-34" x="95.410156"/>
      </g>
     </g>
    </g>
    <g id="ytick_15">
     <g id="line2d_70">
      <path d="M 749.335404 77.728165 
L 1044.111875 77.728165 
" clip-path="url(#pcbe6fe3b1f)" style="fill: none; stroke: #cbcbcb"/>
     </g>
     <g id="line2d_71"/>
     <g id="text_35">
      <!-- 0.6 -->
      <g transform="translate(723.571029 83.047071) scale(0.14 -0.14)">
       <use xlink:href="#DejaVuSans-30"/>
       <use xlink:href="#DejaVuSans-2e" x="63.623047"/>
       <use xlink:href="#DejaVuSans-36" x="95.410156"/>
      </g>
     </g>
    </g>
    <g id="ytick_16">
     <g id="line2d_72">
      <path d="M 749.335404 45.123536 
L 1044.111875 45.123536 
" clip-path="url(#pcbe6fe3b1f)" style="fill: none; stroke: #cbcbcb"/>
     </g>
     <g id="line2d_73"/>
     <g id="text_36">
      <!-- 0.8 -->
      <g transform="translate(723.571029 50.442442) scale(0.14 -0.14)">
       <use xlink:href="#DejaVuSans-30"/>
       <use xlink:href="#DejaVuSans-2e" x="63.623047"/>
       <use xlink:href="#DejaVuSans-38" x="95.410156"/>
      </g>
     </g>
    </g>
    <g id="ytick_17">
     <g id="line2d_74">
      <path d="M 749.335404 12.518906 
L 1044.111875 12.518906 
" clip-path="url(#pcbe6fe3b1f)" style="fill: none; stroke: #cbcbcb"/>
     </g>
     <g id="line2d_75"/>
     <g id="text_37">
      <!-- 1.0 -->
      <g transform="translate(723.571029 17.837813) scale(0.14 -0.14)">
       <use xlink:href="#DejaVuSans-31"/>
       <use xlink:href="#DejaVuSans-2e" x="63.623047"/>
       <use xlink:href="#DejaVuSans-30" x="95.410156"/>
      </g>
     </g>
    </g>
   </g>
   <g id="line2d_76">
    <path d="M 762.734335 175.542053 
L 767.978535 175.542053 
L 777.942514 20.662506 
L 778.466934 175.542053 
L 788.955334 16.487507 
L 789.479754 171.466275 
L 799.443733 16.586727 
L 799.968153 171.565689 
L 809.932133 20.463872 
L 810.456553 175.542053 
L 820.420533 20.662506 
L 820.944953 175.542053 
L 831.433352 16.487507 
L 831.957772 171.466275 
L 841.921752 16.586727 
L 842.446172 171.565689 
L 852.410151 20.463872 
L 852.934571 175.542053 
L 862.898551 20.662506 
L 863.422971 175.542053 
L 873.911371 16.487507 
L 874.435791 171.466275 
L 884.39977 16.586727 
L 884.92419 171.565689 
L 894.88817 20.463872 
L 895.41259 175.542053 
L 905.376569 20.662506 
L 905.900989 175.542053 
L 916.389389 16.487507 
L 916.913809 171.466275 
L 926.877789 16.586727 
L 927.402209 171.565689 
L 937.366188 20.463872 
L 937.890608 175.542053 
L 947.854588 20.662506 
L 948.379008 175.542053 
L 958.867407 16.487507 
L 959.391827 171.466275 
L 969.355807 16.586727 
L 969.880227 171.565689 
L 979.844206 20.463872 
L 980.368626 175.542053 
L 990.332606 20.662506 
L 990.857026 175.542053 
L 1001.345426 16.487507 
L 1001.869846 171.466275 
L 1011.833825 16.586727 
L 1012.358245 175.542053 
L 1030.712945 175.542053 
L 1030.712945 175.542053 
" clip-path="url(#pcbe6fe3b1f)" style="fill: none; stroke: #008fd5; stroke-width: 4"/>
   </g>
   <g id="patch_15">
    <path d="M 749.335404 183.49478 
L 749.335404 8.53478 
" style="fill: none; stroke: #f0f0f0; stroke-width: 3; stroke-linejoin: miter; stroke-linecap: square"/>
   </g>
   <g id="patch_16">
    <path d="M 1044.111875 183.49478 
L 1044.111875 8.53478 
" style="fill: none; stroke: #f0f0f0; stroke-width: 3; stroke-linejoin: miter; stroke-linecap: square"/>
   </g>
   <g id="patch_17">
    <path d="M 749.335404 183.49478 
L 1044.111875 183.49478 
" style="fill: none; stroke: #f0f0f0; stroke-width: 3; stroke-linejoin: miter; stroke-linecap: square"/>
   </g>
   <g id="patch_18">
    <path d="M 749.335404 8.53478 
L 1044.111875 8.53478 
" style="fill: none; stroke: #f0f0f0; stroke-width: 3; stroke-linejoin: miter; stroke-linecap: square"/>
   </g>
   <g id="legend_3">
    <g id="patch_19">
     <path d="M 957.362187 40.284155 
L 1034.311875 40.284155 
Q 1037.111875 40.284155 1037.111875 37.484155 
L 1037.111875 18.33478 
Q 1037.111875 15.53478 1034.311875 15.53478 
L 957.362187 15.53478 
Q 954.562187 15.53478 954.562187 18.33478 
L 954.562187 37.484155 
Q 954.562187 40.284155 957.362187 40.284155 
z
" style="fill: #f0f0f0; opacity: 0.8; stroke: #cccccc; stroke-width: 0.5; stroke-linejoin: miter"/>
    </g>
    <g id="line2d_77">
     <path d="M 960.162187 26.872592 
L 974.162187 26.872592 
L 988.162187 26.872592 
" style="fill: none; stroke: #008fd5; stroke-width: 4"/>
    </g>
    <g id="text_38">
     <!-- sync -->
     <g transform="translate(999.362187 31.772592) scale(0.14 -0.14)">
      <defs>
       <path id="DejaVuSans-73" d="M 2834 3397 
L 2834 2853 
Q 2591 2978 2328 3040 
Q 2066 3103 1784 3103 
Q 1356 3103 1142 2972 
Q 928 2841 928 2578 
Q 928 2378 1081 2264 
Q 1234 2150 1697 2047 
L 1894 2003 
Q 2506 1872 2764 1633 
Q 3022 1394 3022 966 
Q 3022 478 2636 193 
Q 2250 -91 1575 -91 
Q 1294 -91 989 -36 
Q 684 19 347 128 
L 347 722 
Q 666 556 975 473 
Q 1284 391 1588 391 
Q 1994 391 2212 530 
Q 2431 669 2431 922 
Q 2431 1156 2273 1281 
Q 2116 1406 1581 1522 
L 1381 1569 
Q 847 1681 609 1914 
Q 372 2147 372 2553 
Q 372 3047 722 3315 
Q 1072 3584 1716 3584 
Q 2034 3584 2315 3537 
Q 2597 3491 2834 3397 
z
" transform="scale(0.015625)"/>
       <path id="DejaVuSans-6e" d="M 3513 2113 
L 3513 0 
L 2938 0 
L 2938 2094 
Q 2938 2591 2744 2837 
Q 2550 3084 2163 3084 
Q 1697 3084 1428 2787 
Q 1159 2491 1159 1978 
L 1159 0 
L 581 0 
L 581 3500 
L 1159 3500 
L 1159 2956 
Q 1366 3272 1645 3428 
Q 1925 3584 2291 3584 
Q 2894 3584 3203 3211 
Q 3513 2838 3513 2113 
z
" transform="scale(0.015625)"/>
      </defs>
      <use xlink:href="#DejaVuSans-73"/>
      <use xlink:href="#DejaVuSans-79" x="52.099609"/>
      <use xlink:href="#DejaVuSans-6e" x="111.279297"/>
      <use xlink:href="#DejaVuSans-63" x="174.658203"/>
     </g>
    </g>
   </g>
  </g>
 </g>
 <defs>
  <clipPath id="p02d79d6f8a">
   <rect x="41.871875" y="8.53478" width="294.776471" height="174.96"/>
  </clipPath>
  <clipPath id="pef46d0ed4e">
   <rect x="395.60364" y="8.53478" width="294.776471" height="174.96"/>
  </clipPath>
  <clipPath id="pcbe6fe3b1f">
   <rect x="749.335404" y="8.53478" width="294.776471" height="174.96"/>
  </clipPath>
 </defs>
</svg>
