<?xml version="1.0" encoding="utf-8" standalone="no"?>
<!DOCTYPE svg PUBLIC "-//W3C//DTD SVG 1.1//EN"
  "http://www.w3.org/Graphics/SVG/1.1/DTD/svg11.dtd">
<svg xmlns:xlink="http://www.w3.org/1999/xlink" width="1051.311875pt" height="206.409375pt" viewBox="0 0 1051.311875 206.409375" xmlns="http://www.w3.org/2000/svg" version="1.1">
 <metadata>
  <rdf:RDF xmlns:dc="http://purl.org/dc/elements/1.1/" xmlns:cc="http://creativecommons.org/ns#" xmlns:rdf="http://www.w3.org/1999/02/22-rdf-syntax-ns#">
   <cc:Work>
    <dc:type rdf:resource="http://purl.org/dc/dcmitype/StillImage"/>
    <dc:date>2023-01-19T14:54:25.019702</dc:date>
    <dc:format>image/svg+xml</dc:format>
    <dc:creator>
     <cc:Agent>
      <dc:title>Matplotlib v3.6.0, https://matplotlib.org/</dc:title>
     </cc:Agent>
    </dc:creator>
   </cc:Work>
  </rdf:RDF>
 </metadata>
 <defs>
  <style type="text/css">*{stroke-linejoin: round; stroke-linecap: butt}</style>
 </defs>
 <g id="figure_1">
  <g id="patch_1">
   <path d="M 0 206.409375 
L 1051.311875 206.409375 
L 1051.311875 0 
L 0 0 
L 0 206.409375 
z
" style="fill: none"/>
  </g>
  <g id="axes_1">
   <g id="patch_2">
    <path d="M 41.871875 182.16 
L 336.648346 182.16 
L 336.648346 7.2 
L 41.871875 7.2 
L 41.871875 182.16 
z
" style="fill: none"/>
   </g>
   <g id="matplotlib.axis_1">
    <g id="xtick_1">
     <g id="line2d_1">
      <path d="M 55.270805 182.16 
L 55.270805 7.2 
" clip-path="url(#p88ed58ed88)" style="fill: none; stroke: #cbcbcb"/>
     </g>
     <g id="line2d_2"/>
     <g id="text_1">
      <!-- 0 -->
      <g transform="translate(50.817055 196.297813) scale(0.14 -0.14)">
       <defs>
        <path id="DejaVuSans-30" d="M 2034 4250 
Q 1547 4250 1301 3770 
Q 1056 3291 1056 2328 
Q 1056 1369 1301 889 
Q 1547 409 2034 409 
Q 2525 409 2770 889 
Q 3016 1369 3016 2328 
Q 3016 3291 2770 3770 
Q 2525 4250 2034 4250 
z
M 2034 4750 
Q 2819 4750 3233 4129 
Q 3647 3509 3647 2328 
Q 3647 1150 3233 529 
Q 2819 -91 2034 -91 
Q 1250 -91 836 529 
Q 422 1150 422 2328 
Q 422 3509 836 4129 
Q 1250 4750 2034 4750 
z
" transform="scale(0.015625)"/>
       </defs>
       <use xlink:href="#DejaVuSans-30"/>
      </g>
     </g>
    </g>
    <g id="xtick_2">
     <g id="line2d_3">
      <path d="M 107.712803 182.16 
L 107.712803 7.2 
" clip-path="url(#p88ed58ed88)" style="fill: none; stroke: #cbcbcb"/>
     </g>
     <g id="line2d_4"/>
     <g id="text_2">
      <!-- 100 -->
      <g transform="translate(94.351553 196.297813) scale(0.14 -0.14)">
       <defs>
        <path id="DejaVuSans-31" d="M 794 531 
L 1825 531 
L 1825 4091 
L 703 3866 
L 703 4441 
L 1819 4666 
L 2450 4666 
L 2450 531 
L 3481 531 
L 3481 0 
L 794 0 
L 794 531 
z
" transform="scale(0.015625)"/>
       </defs>
       <use xlink:href="#DejaVuSans-31"/>
       <use xlink:href="#DejaVuSans-30" x="63.623047"/>
       <use xlink:href="#DejaVuSans-30" x="127.246094"/>
      </g>
     </g>
    </g>
    <g id="xtick_3">
     <g id="line2d_5">
      <path d="M 160.154801 182.16 
L 160.154801 7.2 
" clip-path="url(#p88ed58ed88)" style="fill: none; stroke: #cbcbcb"/>
     </g>
     <g id="line2d_6"/>
     <g id="text_3">
      <!-- 200 -->
      <g transform="translate(146.793551 196.297813) scale(0.14 -0.14)">
       <defs>
        <path id="DejaVuSans-32" d="M 1228 531 
L 3431 531 
L 3431 0 
L 469 0 
L 469 531 
Q 828 903 1448 1529 
Q 2069 2156 2228 2338 
Q 2531 2678 2651 2914 
Q 2772 3150 2772 3378 
Q 2772 3750 2511 3984 
Q 2250 4219 1831 4219 
Q 1534 4219 1204 4116 
Q 875 4013 500 3803 
L 500 4441 
Q 881 4594 1212 4672 
Q 1544 4750 1819 4750 
Q 2544 4750 2975 4387 
Q 3406 4025 3406 3419 
Q 3406 3131 3298 2873 
Q 3191 2616 2906 2266 
Q 2828 2175 2409 1742 
Q 1991 1309 1228 531 
z
" transform="scale(0.015625)"/>
       </defs>
       <use xlink:href="#DejaVuSans-32"/>
       <use xlink:href="#DejaVuSans-30" x="63.623047"/>
       <use xlink:href="#DejaVuSans-30" x="127.246094"/>
      </g>
     </g>
    </g>
    <g id="xtick_4">
     <g id="line2d_7">
      <path d="M 212.596799 182.16 
L 212.596799 7.2 
" clip-path="url(#p88ed58ed88)" style="fill: none; stroke: #cbcbcb"/>
     </g>
     <g id="line2d_8"/>
     <g id="text_4">
      <!-- 300 -->
      <g transform="translate(199.235549 196.297813) scale(0.14 -0.14)">
       <defs>
        <path id="DejaVuSans-33" d="M 2597 2516 
Q 3050 2419 3304 2112 
Q 3559 1806 3559 1356 
Q 3559 666 3084 287 
Q 2609 -91 1734 -91 
Q 1441 -91 1130 -33 
Q 819 25 488 141 
L 488 750 
Q 750 597 1062 519 
Q 1375 441 1716 441 
Q 2309 441 2620 675 
Q 2931 909 2931 1356 
Q 2931 1769 2642 2001 
Q 2353 2234 1838 2234 
L 1294 2234 
L 1294 2753 
L 1863 2753 
Q 2328 2753 2575 2939 
Q 2822 3125 2822 3475 
Q 2822 3834 2567 4026 
Q 2313 4219 1838 4219 
Q 1578 4219 1281 4162 
Q 984 4106 628 3988 
L 628 4550 
Q 988 4650 1302 4700 
Q 1616 4750 1894 4750 
Q 2613 4750 3031 4423 
Q 3450 4097 3450 3541 
Q 3450 3153 3228 2886 
Q 3006 2619 2597 2516 
z
" transform="scale(0.015625)"/>
       </defs>
       <use xlink:href="#DejaVuSans-33"/>
       <use xlink:href="#DejaVuSans-30" x="63.623047"/>
       <use xlink:href="#DejaVuSans-30" x="127.246094"/>
      </g>
     </g>
    </g>
    <g id="xtick_5">
     <g id="line2d_9">
      <path d="M 265.038797 182.16 
L 265.038797 7.2 
" clip-path="url(#p88ed58ed88)" style="fill: none; stroke: #cbcbcb"/>
     </g>
     <g id="line2d_10"/>
     <g id="text_5">
      <!-- 400 -->
      <g transform="translate(251.677547 196.297813) scale(0.14 -0.14)">
       <defs>
        <path id="DejaVuSans-34" d="M 2419 4116 
L 825 1625 
L 2419 1625 
L 2419 4116 
z
M 2253 4666 
L 3047 4666 
L 3047 1625 
L 3713 1625 
L 3713 1100 
L 3047 1100 
L 3047 0 
L 2419 0 
L 2419 1100 
L 313 1100 
L 313 1709 
L 2253 4666 
z
" transform="scale(0.015625)"/>
       </defs>
       <use xlink:href="#DejaVuSans-34"/>
       <use xlink:href="#DejaVuSans-30" x="63.623047"/>
       <use xlink:href="#DejaVuSans-30" x="127.246094"/>
      </g>
     </g>
    </g>
    <g id="xtick_6">
     <g id="line2d_11">
      <path d="M 317.480795 182.16 
L 317.480795 7.2 
" clip-path="url(#p88ed58ed88)" style="fill: none; stroke: #cbcbcb"/>
     </g>
     <g id="line2d_12"/>
     <g id="text_6">
      <!-- 500 -->
      <g transform="translate(304.119545 196.297813) scale(0.14 -0.14)">
       <defs>
        <path id="DejaVuSans-35" d="M 691 4666 
L 3169 4666 
L 3169 4134 
L 1269 4134 
L 1269 2991 
Q 1406 3038 1543 3061 
Q 1681 3084 1819 3084 
Q 2600 3084 3056 2656 
Q 3513 2228 3513 1497 
Q 3513 744 3044 326 
Q 2575 -91 1722 -91 
Q 1428 -91 1123 -41 
Q 819 9 494 109 
L 494 744 
Q 775 591 1075 516 
Q 1375 441 1709 441 
Q 2250 441 2565 725 
Q 2881 1009 2881 1497 
Q 2881 1984 2565 2268 
Q 2250 2553 1709 2553 
Q 1456 2553 1204 2497 
Q 953 2441 691 2322 
L 691 4666 
z
" transform="scale(0.015625)"/>
       </defs>
       <use xlink:href="#DejaVuSans-35"/>
       <use xlink:href="#DejaVuSans-30" x="63.623047"/>
       <use xlink:href="#DejaVuSans-30" x="127.246094"/>
      </g>
     </g>
    </g>
   </g>
   <g id="matplotlib.axis_2">
    <g id="ytick_1">
     <g id="line2d_13">
      <path d="M 41.871875 174.207273 
L 336.648346 174.207273 
" clip-path="url(#p88ed58ed88)" style="fill: none; stroke: #cbcbcb"/>
     </g>
     <g id="line2d_14"/>
     <g id="text_7">
      <!-- 0.00 -->
      <g transform="translate(7.2 179.526179) scale(0.14 -0.14)">
       <defs>
        <path id="DejaVuSans-2e" d="M 684 794 
L 1344 794 
L 1344 0 
L 684 0 
L 684 794 
z
" transform="scale(0.015625)"/>
       </defs>
       <use xlink:href="#DejaVuSans-30"/>
       <use xlink:href="#DejaVuSans-2e" x="63.623047"/>
       <use xlink:href="#DejaVuSans-30" x="95.410156"/>
       <use xlink:href="#DejaVuSans-30" x="159.033203"/>
      </g>
     </g>
    </g>
    <g id="ytick_2">
     <g id="line2d_15">
      <path d="M 41.871875 137.749827 
L 336.648346 137.749827 
" clip-path="url(#p88ed58ed88)" style="fill: none; stroke: #cbcbcb"/>
     </g>
     <g id="line2d_16"/>
     <g id="text_8">
      <!-- 0.02 -->
      <g transform="translate(7.2 143.068734) scale(0.14 -0.14)">
       <use xlink:href="#DejaVuSans-30"/>
       <use xlink:href="#DejaVuSans-2e" x="63.623047"/>
       <use xlink:href="#DejaVuSans-30" x="95.410156"/>
       <use xlink:href="#DejaVuSans-32" x="159.033203"/>
      </g>
     </g>
    </g>
    <g id="ytick_3">
     <g id="line2d_17">
      <path d="M 41.871875 101.292382 
L 336.648346 101.292382 
" clip-path="url(#p88ed58ed88)" style="fill: none; stroke: #cbcbcb"/>
     </g>
     <g id="line2d_18"/>
     <g id="text_9">
      <!-- 0.04 -->
      <g transform="translate(7.2 106.611288) scale(0.14 -0.14)">
       <use xlink:href="#DejaVuSans-30"/>
       <use xlink:href="#DejaVuSans-2e" x="63.623047"/>
       <use xlink:href="#DejaVuSans-30" x="95.410156"/>
       <use xlink:href="#DejaVuSans-34" x="159.033203"/>
      </g>
     </g>
    </g>
    <g id="ytick_4">
     <g id="line2d_19">
      <path d="M 41.871875 64.834936 
L 336.648346 64.834936 
" clip-path="url(#p88ed58ed88)" style="fill: none; stroke: #cbcbcb"/>
     </g>
     <g id="line2d_20"/>
     <g id="text_10">
      <!-- 0.06 -->
      <g transform="translate(7.2 70.153843) scale(0.14 -0.14)">
       <defs>
        <path id="DejaVuSans-36" d="M 2113 2584 
Q 1688 2584 1439 2293 
Q 1191 2003 1191 1497 
Q 1191 994 1439 701 
Q 1688 409 2113 409 
Q 2538 409 2786 701 
Q 3034 994 3034 1497 
Q 3034 2003 2786 2293 
Q 2538 2584 2113 2584 
z
M 3366 4563 
L 3366 3988 
Q 3128 4100 2886 4159 
Q 2644 4219 2406 4219 
Q 1781 4219 1451 3797 
Q 1122 3375 1075 2522 
Q 1259 2794 1537 2939 
Q 1816 3084 2150 3084 
Q 2853 3084 3261 2657 
Q 3669 2231 3669 1497 
Q 3669 778 3244 343 
Q 2819 -91 2113 -91 
Q 1303 -91 875 529 
Q 447 1150 447 2328 
Q 447 3434 972 4092 
Q 1497 4750 2381 4750 
Q 2619 4750 2861 4703 
Q 3103 4656 3366 4563 
z
" transform="scale(0.015625)"/>
       </defs>
       <use xlink:href="#DejaVuSans-30"/>
       <use xlink:href="#DejaVuSans-2e" x="63.623047"/>
       <use xlink:href="#DejaVuSans-30" x="95.410156"/>
       <use xlink:href="#DejaVuSans-36" x="159.033203"/>
      </g>
     </g>
    </g>
    <g id="ytick_5">
     <g id="line2d_21">
      <path d="M 41.871875 28.377491 
L 336.648346 28.377491 
" clip-path="url(#p88ed58ed88)" style="fill: none; stroke: #cbcbcb"/>
     </g>
     <g id="line2d_22"/>
     <g id="text_11">
      <!-- 0.08 -->
      <g transform="translate(7.2 33.696397) scale(0.14 -0.14)">
       <defs>
        <path id="DejaVuSans-38" d="M 2034 2216 
Q 1584 2216 1326 1975 
Q 1069 1734 1069 1313 
Q 1069 891 1326 650 
Q 1584 409 2034 409 
Q 2484 409 2743 651 
Q 3003 894 3003 1313 
Q 3003 1734 2745 1975 
Q 2488 2216 2034 2216 
z
M 1403 2484 
Q 997 2584 770 2862 
Q 544 3141 544 3541 
Q 544 4100 942 4425 
Q 1341 4750 2034 4750 
Q 2731 4750 3128 4425 
Q 3525 4100 3525 3541 
Q 3525 3141 3298 2862 
Q 3072 2584 2669 2484 
Q 3125 2378 3379 2068 
Q 3634 1759 3634 1313 
Q 3634 634 3220 271 
Q 2806 -91 2034 -91 
Q 1263 -91 848 271 
Q 434 634 434 1313 
Q 434 1759 690 2068 
Q 947 2378 1403 2484 
z
M 1172 3481 
Q 1172 3119 1398 2916 
Q 1625 2713 2034 2713 
Q 2441 2713 2670 2916 
Q 2900 3119 2900 3481 
Q 2900 3844 2670 4047 
Q 2441 4250 2034 4250 
Q 1625 4250 1398 4047 
Q 1172 3844 1172 3481 
z
" transform="scale(0.015625)"/>
       </defs>
       <use xlink:href="#DejaVuSans-30"/>
       <use xlink:href="#DejaVuSans-2e" x="63.623047"/>
       <use xlink:href="#DejaVuSans-30" x="95.410156"/>
       <use xlink:href="#DejaVuSans-38" x="159.033203"/>
      </g>
     </g>
    </g>
   </g>
   <g id="line2d_23">
    <path d="M 55.270805 15.152727 
L 188.9979 15.152727 
L 189.52232 174.207273 
L 323.249415 174.207273 
L 323.249415 174.207273 
" clip-path="url(#p88ed58ed88)" style="fill: none; stroke: #008fd5; stroke-width: 4"/>
   </g>
   <g id="patch_3">
    <path d="M 41.871875 182.16 
L 41.871875 7.2 
" style="fill: none; stroke: #f0f0f0; stroke-width: 3; stroke-linejoin: miter; stroke-linecap: square"/>
   </g>
   <g id="patch_4">
    <path d="M 336.648346 182.16 
L 336.648346 7.2 
" style="fill: none; stroke: #f0f0f0; stroke-width: 3; stroke-linejoin: miter; stroke-linecap: square"/>
   </g>
   <g id="patch_5">
    <path d="M 41.871875 182.16 
L 336.648346 182.16 
" style="fill: none; stroke: #f0f0f0; stroke-width: 3; stroke-linejoin: miter; stroke-linecap: square"/>
   </g>
   <g id="patch_6">
    <path d="M 41.871875 7.2 
L 336.648346 7.2 
" style="fill: none; stroke: #f0f0f0; stroke-width: 3; stroke-linejoin: miter; stroke-linecap: square"/>
   </g>
   <g id="legend_1">
    <g id="patch_7">
     <path d="M 218.882096 38.949375 
L 326.848346 38.949375 
Q 329.648346 38.949375 329.648346 36.149375 
L 329.648346 17 
Q 329.648346 14.2 326.848346 14.2 
L 218.882096 14.2 
Q 216.082096 14.2 216.082096 17 
L 216.082096 36.149375 
Q 216.082096 38.949375 218.882096 38.949375 
z
" style="fill: #f0f0f0; opacity: 0.8; stroke: #cccccc; stroke-width: 0.5; stroke-linejoin: miter"/>
    </g>
    <g id="line2d_24">
     <path d="M 221.682096 25.537813 
L 235.682096 25.537813 
L 249.682096 25.537813 
" style="fill: none; stroke: #008fd5; stroke-width: 4"/>
    </g>
    <g id="text_12">
     <!-- accuracy -->
     <g transform="translate(260.882096 30.437813) scale(0.14 -0.14)">
      <defs>
       <path id="DejaVuSans-61" d="M 2194 1759 
Q 1497 1759 1228 1600 
Q 959 1441 959 1056 
Q 959 750 1161 570 
Q 1363 391 1709 391 
Q 2188 391 2477 730 
Q 2766 1069 2766 1631 
L 2766 1759 
L 2194 1759 
z
M 3341 1997 
L 3341 0 
L 2766 0 
L 2766 531 
Q 2569 213 2275 61 
Q 1981 -91 1556 -91 
Q 1019 -91 701 211 
Q 384 513 384 1019 
Q 384 1609 779 1909 
Q 1175 2209 1959 2209 
L 2766 2209 
L 2766 2266 
Q 2766 2663 2505 2880 
Q 2244 3097 1772 3097 
Q 1472 3097 1187 3025 
Q 903 2953 641 2809 
L 641 3341 
Q 956 3463 1253 3523 
Q 1550 3584 1831 3584 
Q 2591 3584 2966 3190 
Q 3341 2797 3341 1997 
z
" transform="scale(0.015625)"/>
       <path id="DejaVuSans-63" d="M 3122 3366 
L 3122 2828 
Q 2878 2963 2633 3030 
Q 2388 3097 2138 3097 
Q 1578 3097 1268 2742 
Q 959 2388 959 1747 
Q 959 1106 1268 751 
Q 1578 397 2138 397 
Q 2388 397 2633 464 
Q 2878 531 3122 666 
L 3122 134 
Q 2881 22 2623 -34 
Q 2366 -91 2075 -91 
Q 1284 -91 818 406 
Q 353 903 353 1747 
Q 353 2603 823 3093 
Q 1294 3584 2113 3584 
Q 2378 3584 2631 3529 
Q 2884 3475 3122 3366 
z
" transform="scale(0.015625)"/>
       <path id="DejaVuSans-75" d="M 544 1381 
L 544 3500 
L 1119 3500 
L 1119 1403 
Q 1119 906 1312 657 
Q 1506 409 1894 409 
Q 2359 409 2629 706 
Q 2900 1003 2900 1516 
L 2900 3500 
L 3475 3500 
L 3475 0 
L 2900 0 
L 2900 538 
Q 2691 219 2414 64 
Q 2138 -91 1772 -91 
Q 1169 -91 856 284 
Q 544 659 544 1381 
z
M 1991 3584 
L 1991 3584 
z
" transform="scale(0.015625)"/>
       <path id="DejaVuSans-72" d="M 2631 2963 
Q 2534 3019 2420 3045 
Q 2306 3072 2169 3072 
Q 1681 3072 1420 2755 
Q 1159 2438 1159 1844 
L 1159 0 
L 581 0 
L 581 3500 
L 1159 3500 
L 1159 2956 
Q 1341 3275 1631 3429 
Q 1922 3584 2338 3584 
Q 2397 3584 2469 3576 
Q 2541 3569 2628 3553 
L 2631 2963 
z
" transform="scale(0.015625)"/>
       <path id="DejaVuSans-79" d="M 2059 -325 
Q 1816 -950 1584 -1140 
Q 1353 -1331 966 -1331 
L 506 -1331 
L 506 -850 
L 844 -850 
Q 1081 -850 1212 -737 
Q 1344 -625 1503 -206 
L 1606 56 
L 191 3500 
L 800 3500 
L 1894 763 
L 2988 3500 
L 3597 3500 
L 2059 -325 
z
" transform="scale(0.015625)"/>
      </defs>
      <use xlink:href="#DejaVuSans-61"/>
      <use xlink:href="#DejaVuSans-63" x="61.279297"/>
      <use xlink:href="#DejaVuSans-63" x="116.259766"/>
      <use xlink:href="#DejaVuSans-75" x="171.240234"/>
      <use xlink:href="#DejaVuSans-72" x="234.619141"/>
      <use xlink:href="#DejaVuSans-61" x="275.732422"/>
      <use xlink:href="#DejaVuSans-63" x="337.011719"/>
      <use xlink:href="#DejaVuSans-79" x="391.992188"/>
     </g>
    </g>
   </g>
  </g>
  <g id="axes_2">
   <g id="patch_8">
    <path d="M 395.60364 182.16 
L 690.38011 182.16 
L 690.38011 7.2 
L 395.60364 7.2 
L 395.60364 182.16 
z
" style="fill: none"/>
   </g>
   <g id="matplotlib.axis_3">
    <g id="xtick_7">
     <g id="line2d_25">
      <path d="M 409.00257 182.16 
L 409.00257 7.2 
" clip-path="url(#p4c1c563627)" style="fill: none; stroke: #cbcbcb"/>
     </g>
     <g id="line2d_26"/>
     <g id="text_13">
      <!-- 0 -->
      <g transform="translate(404.54882 196.297813) scale(0.14 -0.14)">
       <use xlink:href="#DejaVuSans-30"/>
      </g>
     </g>
    </g>
    <g id="xtick_8">
     <g id="line2d_27">
      <path d="M 461.444568 182.16 
L 461.444568 7.2 
" clip-path="url(#p4c1c563627)" style="fill: none; stroke: #cbcbcb"/>
     </g>
     <g id="line2d_28"/>
     <g id="text_14">
      <!-- 100 -->
      <g transform="translate(448.083318 196.297813) scale(0.14 -0.14)">
       <use xlink:href="#DejaVuSans-31"/>
       <use xlink:href="#DejaVuSans-30" x="63.623047"/>
       <use xlink:href="#DejaVuSans-30" x="127.246094"/>
      </g>
     </g>
    </g>
    <g id="xtick_9">
     <g id="line2d_29">
      <path d="M 513.886566 182.16 
L 513.886566 7.2 
" clip-path="url(#p4c1c563627)" style="fill: none; stroke: #cbcbcb"/>
     </g>
     <g id="line2d_30"/>
     <g id="text_15">
      <!-- 200 -->
      <g transform="translate(500.525316 196.297813) scale(0.14 -0.14)">
       <use xlink:href="#DejaVuSans-32"/>
       <use xlink:href="#DejaVuSans-30" x="63.623047"/>
       <use xlink:href="#DejaVuSans-30" x="127.246094"/>
      </g>
     </g>
    </g>
    <g id="xtick_10">
     <g id="line2d_31">
      <path d="M 566.328564 182.16 
L 566.328564 7.2 
" clip-path="url(#p4c1c563627)" style="fill: none; stroke: #cbcbcb"/>
     </g>
     <g id="line2d_32"/>
     <g id="text_16">
      <!-- 300 -->
      <g transform="translate(552.967314 196.297813) scale(0.14 -0.14)">
       <use xlink:href="#DejaVuSans-33"/>
       <use xlink:href="#DejaVuSans-30" x="63.623047"/>
       <use xlink:href="#DejaVuSans-30" x="127.246094"/>
      </g>
     </g>
    </g>
    <g id="xtick_11">
     <g id="line2d_33">
      <path d="M 618.770562 182.16 
L 618.770562 7.2 
" clip-path="url(#p4c1c563627)" style="fill: none; stroke: #cbcbcb"/>
     </g>
     <g id="line2d_34"/>
     <g id="text_17">
      <!-- 400 -->
      <g transform="translate(605.409312 196.297813) scale(0.14 -0.14)">
       <use xlink:href="#DejaVuSans-34"/>
       <use xlink:href="#DejaVuSans-30" x="63.623047"/>
       <use xlink:href="#DejaVuSans-30" x="127.246094"/>
      </g>
     </g>
    </g>
    <g id="xtick_12">
     <g id="line2d_35">
      <path d="M 671.21256 182.16 
L 671.21256 7.2 
" clip-path="url(#p4c1c563627)" style="fill: none; stroke: #cbcbcb"/>
     </g>
     <g id="line2d_36"/>
     <g id="text_18">
      <!-- 500 -->
      <g transform="translate(657.85131 196.297813) scale(0.14 -0.14)">
       <use xlink:href="#DejaVuSans-35"/>
       <use xlink:href="#DejaVuSans-30" x="63.623047"/>
       <use xlink:href="#DejaVuSans-30" x="127.246094"/>
      </g>
     </g>
    </g>
   </g>
   <g id="matplotlib.axis_4">
    <g id="ytick_6">
     <g id="line2d_37">
      <path d="M 395.60364 148.510016 
L 690.38011 148.510016 
" clip-path="url(#p4c1c563627)" style="fill: none; stroke: #cbcbcb"/>
     </g>
     <g id="line2d_38"/>
     <g id="text_19">
      <!-- 20 -->
      <g transform="translate(374.28864 153.828922) scale(0.14 -0.14)">
       <use xlink:href="#DejaVuSans-32"/>
       <use xlink:href="#DejaVuSans-30" x="63.623047"/>
      </g>
     </g>
    </g>
    <g id="ytick_7">
     <g id="line2d_39">
      <path d="M 395.60364 112.572731 
L 690.38011 112.572731 
" clip-path="url(#p4c1c563627)" style="fill: none; stroke: #cbcbcb"/>
     </g>
     <g id="line2d_40"/>
     <g id="text_20">
      <!-- 40 -->
      <g transform="translate(374.28864 117.891637) scale(0.14 -0.14)">
       <use xlink:href="#DejaVuSans-34"/>
       <use xlink:href="#DejaVuSans-30" x="63.623047"/>
      </g>
     </g>
    </g>
    <g id="ytick_8">
     <g id="line2d_41">
      <path d="M 395.60364 76.635446 
L 690.38011 76.635446 
" clip-path="url(#p4c1c563627)" style="fill: none; stroke: #cbcbcb"/>
     </g>
     <g id="line2d_42"/>
     <g id="text_21">
      <!-- 60 -->
      <g transform="translate(374.28864 81.954353) scale(0.14 -0.14)">
       <use xlink:href="#DejaVuSans-36"/>
       <use xlink:href="#DejaVuSans-30" x="63.623047"/>
      </g>
     </g>
    </g>
    <g id="ytick_9">
     <g id="line2d_43">
      <path d="M 395.60364 40.698162 
L 690.38011 40.698162 
" clip-path="url(#p4c1c563627)" style="fill: none; stroke: #cbcbcb"/>
     </g>
     <g id="line2d_44"/>
     <g id="text_22">
      <!-- 80 -->
      <g transform="translate(374.28864 46.017068) scale(0.14 -0.14)">
       <use xlink:href="#DejaVuSans-38"/>
       <use xlink:href="#DejaVuSans-30" x="63.623047"/>
      </g>
     </g>
    </g>
   </g>
   <g id="line2d_45">
    <path d="M 409.00257 15.152727 
L 409.52699 57.943902 
L 410.05141 61.347171 
L 411.10025 111.043966 
L 411.62467 63.972141 
L 412.14909 123.453759 
L 412.67351 109.490361 
L 413.19793 121.679062 
L 413.72235 108.743235 
L 414.24677 40.183705 
L 414.77119 57.208661 
L 415.82003 146.533742 
L 416.34445 103.171739 
L 416.86887 133.780406 
L 417.39329 129.516647 
L 417.91771 130.428771 
L 418.44213 106.178915 
L 418.96655 124.130976 
L 419.49097 122.292807 
L 420.01539 74.667556 
L 420.53981 101.562982 
L 421.06423 97.783744 
L 421.58865 100.036795 
L 422.11307 125.942557 
L 422.63749 139.883225 
L 423.16191 139.065689 
L 423.68633 140.247651 
L 424.21075 154.291904 
L 424.73517 149.911293 
L 425.25959 126.58145 
L 425.78401 129.170529 
L 426.30843 148.12797 
L 426.832849 156.848595 
L 427.357269 155.641129 
L 427.881689 163.955749 
L 428.406109 170.170208 
L 428.930529 159.188428 
L 429.454949 155.017606 
L 429.979369 159.430138 
L 430.503789 151.528093 
L 431.028209 125.240478 
L 431.552629 124.407089 
L 432.077049 144.956071 
L 432.601469 144.350332 
L 433.125889 161.193881 
L 433.650309 156.609204 
L 434.174729 162.225352 
L 434.699149 158.721284 
L 435.223569 137.781264 
L 435.747989 122.64048 
L 436.272409 123.591054 
L 436.796829 142.660686 
L 437.321249 131.579253 
L 437.845669 116.779793 
L 438.370089 138.09656 
L 438.894509 87.404821 
L 439.943349 123.954891 
L 440.467769 118.664497 
L 440.992189 133.697974 
L 441.516609 143.179455 
L 442.041029 123.385043 
L 442.565449 143.147221 
L 443.089869 111.924659 
L 443.614289 135.107888 
L 444.138709 152.743522 
L 444.663129 144.819961 
L 445.187549 153.183673 
L 445.711969 135.339402 
L 446.236389 143.980944 
L 446.760809 120.46753 
L 447.285229 128.131471 
L 447.809649 157.991596 
L 448.334069 141.625459 
L 448.858489 97.6106 
L 449.382909 69.081123 
L 449.907329 56.901704 
L 450.431749 61.851182 
L 450.956169 116.698635 
L 451.480589 141.048879 
L 452.005009 157.823316 
L 452.529429 127.208232 
L 453.578268 144.786377 
L 454.102688 142.733443 
L 454.627108 162.587324 
L 455.151528 154.836456 
L 455.675948 169.72943 
L 456.200368 173.614751 
L 456.724788 163.637496 
L 457.249208 162.097238 
L 457.773628 155.067394 
L 458.298048 145.488959 
L 458.822468 159.535624 
L 459.346888 155.63655 
L 459.871308 158.654002 
L 460.395728 170.11109 
L 460.920148 171.110107 
L 461.444568 173.871577 
L 461.968988 163.830149 
L 462.493408 151.291675 
L 463.017828 148.234588 
L 464.066668 128.811998 
L 464.591088 153.384629 
L 465.115508 135.217214 
L 465.639928 154.641349 
L 466.164348 167.006127 
L 466.688768 167.449045 
L 467.213188 170.207516 
L 467.737608 166.812033 
L 468.262028 167.205006 
L 468.786448 162.146025 
L 469.310868 138.110824 
L 469.835288 155.784393 
L 470.359708 158.88707 
L 470.884128 164.184283 
L 471.408548 162.013106 
L 471.932968 170.926751 
L 472.457388 174.207273 
L 472.981808 162.0948 
L 473.506228 164.036998 
L 474.030648 163.891902 
L 474.555068 132.872775 
L 475.079488 151.807424 
L 475.603908 135.557721 
L 476.128328 142.146983 
L 476.652748 163.606661 
L 477.177168 169.400334 
L 477.701588 168.923707 
L 478.226008 172.014047 
L 478.750427 169.789195 
L 479.274847 160.437598 
L 479.799267 160.599256 
L 480.323687 160.455721 
L 480.848107 165.050152 
L 481.372527 151.68257 
L 481.896947 147.138329 
L 482.421367 160.857355 
L 482.945787 143.287917 
L 483.470207 138.424078 
L 483.994627 136.759516 
L 484.519047 136.20812 
L 485.043467 150.013624 
L 485.567887 158.975809 
L 486.092307 148.328012 
L 486.616727 153.337268 
L 487.141147 148.430843 
L 487.665567 157.273053 
L 488.189987 159.862763 
L 488.714407 146.450926 
L 489.238827 164.05599 
L 489.763247 160.659891 
L 490.287667 168.77906 
L 490.812087 166.240867 
L 491.336507 162.364596 
L 491.860927 169.704062 
L 492.909767 139.857644 
L 493.434187 150.969394 
L 493.958607 150.633688 
L 494.483027 154.925489 
L 495.007447 161.844986 
L 495.531867 158.532837 
L 496.056287 168.218835 
L 496.580707 157.319688 
L 497.105127 156.869431 
L 497.629547 163.325032 
L 498.153967 146.200466 
L 498.678387 159.612605 
L 499.202807 156.424275 
L 499.727227 165.502439 
L 500.251647 144.795648 
L 500.776067 156.26901 
L 501.300487 154.887809 
L 501.824907 148.378245 
L 502.349327 134.806016 
L 502.873747 159.708341 
L 503.398167 167.975381 
L 503.922587 170.49622 
L 504.447006 167.740094 
L 504.971426 172.129425 
L 505.495846 171.829169 
L 506.544686 154.497432 
L 507.069106 145.030418 
L 507.593526 149.603071 
L 508.117946 161.841782 
L 508.642366 148.071496 
L 509.166786 144.91249 
L 509.691206 161.180522 
L 510.215626 170.171649 
L 510.740046 172.199331 
L 511.264466 168.862366 
L 511.788886 167.691058 
L 512.837726 165.983918 
L 513.362146 139.362804 
L 513.886566 157.547346 
L 514.410986 170.4715 
L 514.935406 168.804237 
L 515.459826 173.056501 
L 515.984246 170.87092 
L 516.508666 170.854293 
L 517.033086 170.462044 
L 517.557506 156.804206 
L 518.081926 163.234197 
L 518.606346 148.944683 
L 519.130766 157.064757 
L 519.655186 146.994227 
L 520.179606 140.814154 
L 520.704026 161.912664 
L 521.752866 159.825468 
L 522.277286 154.642494 
L 522.801706 155.715387 
L 523.326126 165.1876 
L 523.850546 156.973083 
L 524.374966 160.992572 
L 524.899386 161.05443 
L 525.423806 161.568647 
L 525.948226 159.902529 
L 526.472646 168.476527 
L 526.997066 144.49804 
L 527.521486 150.389048 
L 528.045906 162.111791 
L 528.570326 151.98304 
L 529.094746 155.565602 
L 529.619166 141.857679 
L 530.143585 166.278496 
L 530.668005 141.606578 
L 531.192425 149.050619 
L 531.716845 165.395304 
L 532.241265 166.866934 
L 532.765685 135.913894 
L 533.290105 163.380413 
L 533.814525 160.543333 
L 534.338945 167.591231 
L 534.863365 157.175596 
L 535.387785 165.670227 
L 535.912205 169.373372 
L 536.961045 116.136862 
L 537.485465 128.921927 
L 538.009885 107.922471 
L 538.534305 131.341012 
L 539.058725 141.294301 
L 539.583145 157.754379 
L 540.107565 168.10282 
L 540.631985 159.554917 
L 541.156405 159.806038 
L 541.680825 151.42701 
L 542.205245 163.826987 
L 542.729665 163.042889 
L 543.254085 138.882434 
L 543.778505 143.972238 
L 544.302925 162.550883 
L 544.827345 149.048388 
L 545.351765 156.535986 
L 545.876185 127.971007 
L 546.400605 145.887963 
L 546.925025 130.802348 
L 547.449445 150.743545 
L 547.973865 153.259734 
L 548.498285 161.048811 
L 549.547125 164.150449 
L 550.595965 137.638718 
L 551.120385 136.892959 
L 551.644805 135.765193 
L 552.169225 131.087532 
L 552.693645 118.370789 
L 553.218065 128.278212 
L 553.742485 152.958887 
L 554.266905 145.777667 
L 554.791325 145.159769 
L 555.315745 159.072947 
L 555.840165 166.117325 
L 556.364584 153.955993 
L 556.889004 137.806591 
L 557.413424 135.0233 
L 557.937844 134.348722 
L 558.462264 165.484443 
L 558.986684 160.807473 
L 559.511104 167.663077 
L 560.035524 165.365462 
L 560.559944 168.813063 
L 561.084364 162.982131 
L 561.608784 155.846393 
L 562.133204 158.18518 
L 562.657624 150.415297 
L 563.182044 157.827599 
L 563.706464 135.077588 
L 564.755304 155.036854 
L 565.279724 156.569066 
L 565.804144 162.136019 
L 566.328564 160.036949 
L 566.852984 152.179695 
L 567.377404 152.472577 
L 567.901824 145.304957 
L 568.426244 159.725289 
L 568.950664 153.684753 
L 569.999504 145.299275 
L 570.523924 135.131138 
L 571.048344 116.076145 
L 572.097184 136.588249 
L 572.621604 134.500624 
L 573.146024 149.548204 
L 573.670444 134.911939 
L 574.194864 144.195116 
L 574.719284 127.827278 
L 575.243704 140.875985 
L 575.768124 142.711005 
L 576.292544 121.543796 
L 576.816964 144.36485 
L 577.341384 149.589961 
L 577.865804 159.628601 
L 578.390224 154.463564 
L 578.914644 146.820602 
L 579.439064 145.825213 
L 579.963484 148.239177 
L 580.487904 134.763004 
L 581.012324 144.048978 
L 581.536744 119.496166 
L 582.061163 130.400877 
L 582.585583 130.908366 
L 583.110003 132.330488 
L 583.634423 147.884461 
L 584.158843 152.496222 
L 584.683263 149.54113 
L 585.207683 156.595769 
L 585.732103 143.35495 
L 586.256523 148.248664 
L 586.780943 154.407858 
L 587.305363 128.242267 
L 587.829783 150.037162 
L 588.354203 147.136594 
L 588.878623 151.6125 
L 589.403043 144.203286 
L 589.927463 143.826292 
L 590.451883 127.598962 
L 590.976303 152.517539 
L 591.500723 152.444998 
L 592.025143 158.843082 
L 592.549563 154.246352 
L 593.073983 162.367862 
L 593.598403 141.84775 
L 594.122823 116.853931 
L 594.647243 124.916446 
L 595.171663 122.517072 
L 595.696083 125.231163 
L 596.220503 130.386595 
L 596.744923 148.172816 
L 597.793763 157.681228 
L 598.318183 151.786148 
L 598.842603 150.609567 
L 599.367023 156.814397 
L 599.891443 156.439538 
L 600.415863 140.981877 
L 600.940283 131.238359 
L 601.989123 151.04613 
L 602.513543 156.575557 
L 603.037963 157.405604 
L 603.562383 165.693347 
L 604.086803 164.229346 
L 605.135643 145.705956 
L 605.660063 148.264467 
L 606.184483 149.528573 
L 606.708903 159.300552 
L 607.233323 140.502199 
L 607.757742 148.790392 
L 608.282162 154.647186 
L 608.806582 144.008687 
L 609.331002 148.743315 
L 609.855422 145.255286 
L 610.379842 138.806953 
L 610.904262 118.946045 
L 611.428682 115.456533 
L 611.953102 144.587439 
L 612.477522 152.829117 
L 613.001942 156.172083 
L 613.526362 160.716163 
L 614.050782 168.125967 
L 614.575202 156.171097 
L 615.099622 149.885932 
L 615.624042 129.728633 
L 616.148462 135.149796 
L 616.672882 126.995475 
L 617.197302 123.191129 
L 617.721722 122.083978 
L 618.246142 122.745854 
L 618.770562 142.234429 
L 619.294982 154.112823 
L 619.819402 156.110908 
L 620.343822 151.259771 
L 620.868242 155.335497 
L 621.392662 139.123233 
L 621.917082 138.980574 
L 622.441502 112.581073 
L 622.965922 148.654824 
L 623.490342 157.2738 
L 624.014762 152.106157 
L 625.063602 163.327764 
L 625.588022 149.705765 
L 626.112442 148.353507 
L 626.636862 155.573769 
L 627.161282 154.74561 
L 627.685702 151.616294 
L 628.210122 142.547669 
L 628.734542 128.581019 
L 629.258962 160.991072 
L 629.783382 147.589512 
L 630.307802 97.793052 
L 630.832222 104.220853 
L 631.881062 127.347399 
L 632.405482 116.635252 
L 632.929902 114.358141 
L 633.454321 141.545038 
L 633.978741 143.754975 
L 634.503161 158.605145 
L 635.027581 163.078082 
L 635.552001 160.309707 
L 636.076421 166.705259 
L 636.600841 141.244479 
L 637.125261 124.490734 
L 637.649681 139.771675 
L 638.174101 128.733024 
L 638.698521 142.829577 
L 639.222941 130.214592 
L 639.747361 108.143179 
L 640.271781 122.053317 
L 640.796201 143.27294 
L 641.320621 130.874766 
L 641.845041 149.759525 
L 642.369461 149.983673 
L 642.893881 146.655378 
L 643.418301 115.531631 
L 643.942721 115.752098 
L 644.467141 140.771834 
L 644.991561 145.347716 
L 645.515981 158.3365 
L 646.040401 161.503024 
L 646.564821 155.35104 
L 647.089241 143.713872 
L 647.613661 147.432212 
L 648.138081 141.984069 
L 648.662501 140.448025 
L 649.186921 155.546468 
L 649.711341 148.1771 
L 650.235761 127.670838 
L 650.760181 134.294914 
L 651.284601 149.256288 
L 652.333441 125.690695 
L 652.857861 127.348362 
L 653.382281 147.365031 
L 653.906701 140.480882 
L 654.431121 124.453158 
L 654.955541 103.462835 
L 655.479961 126.945061 
L 656.004381 128.105982 
L 656.528801 134.614368 
L 657.053221 131.27078 
L 657.577641 62.980419 
L 658.102061 68.525731 
L 658.626481 76.577848 
L 659.150901 118.158307 
L 659.67532 134.447403 
L 660.19974 143.989152 
L 660.72416 135.148117 
L 661.24858 96.868155 
L 661.773 101.636065 
L 662.29742 119.15704 
L 662.82184 131.047735 
L 663.34626 98.311958 
L 663.87068 127.288114 
L 664.91952 139.304229 
L 665.44394 127.171057 
L 665.96836 123.275686 
L 666.49278 112.618183 
L 667.0172 119.549323 
L 667.54162 124.589987 
L 668.59046 97.159471 
L 669.11488 103.646899 
L 669.6393 85.525038 
L 670.16372 137.079771 
L 670.68814 146.81152 
L 671.21256 153.951191 
L 671.73698 156.546412 
L 672.2614 115.64523 
L 672.78582 140.861025 
L 673.31024 130.652344 
L 673.83466 109.982733 
L 674.35908 114.397973 
L 674.8835 114.096163 
L 676.45676 136.952196 
L 676.98118 147.264952 
L 676.98118 147.264952 
" clip-path="url(#p4c1c563627)" style="fill: none; stroke: #008fd5; stroke-opacity: 0.4; stroke-width: 4"/>
   </g>
   <g id="line2d_46">
    <path d="M 409.00257 15.152727 
L 410.05141 19.495035 
L 410.57583 22.878413 
L 411.10025 27.286688 
L 411.62467 29.120964 
L 412.67351 37.620248 
L 413.72235 45.169197 
L 414.24677 44.919926 
L 414.77119 45.534363 
L 415.29561 48.326952 
L 415.82003 53.237292 
L 416.34445 55.734013 
L 417.39329 63.130368 
L 417.91771 66.495279 
L 418.44213 68.479463 
L 419.49097 73.813575 
L 420.01539 73.856272 
L 421.06423 76.368717 
L 421.58865 77.552125 
L 422.11307 79.971645 
L 424.73517 94.692004 
L 425.78401 97.930677 
L 427.357269 105.879956 
L 428.930529 114.219845 
L 430.503789 120.073747 
L 431.552629 120.535842 
L 432.601469 122.886529 
L 433.650309 126.392259 
L 434.699149 129.710787 
L 435.223569 130.114314 
L 436.272409 129.433146 
L 436.796829 130.094522 
L 437.321249 130.16876 
L 437.845669 129.499312 
L 438.370089 129.929174 
L 438.894509 127.802959 
L 439.418929 126.714146 
L 439.943349 126.576186 
L 440.467769 126.1806 
L 440.992189 126.556466 
L 441.516609 127.387618 
L 442.041029 127.18749 
L 442.565449 127.985477 
L 443.089869 127.182435 
L 443.614289 127.578711 
L 444.138709 128.836949 
L 444.663129 129.6361 
L 445.187549 130.813479 
L 445.711969 131.039774 
L 446.236389 131.686834 
L 446.760809 131.12587 
L 447.285229 130.97615 
L 447.809649 132.326921 
L 448.334069 132.791847 
L 448.858489 131.032786 
L 450.431749 121.256914 
L 450.956169 121.028996 
L 451.480589 122.029992 
L 452.005009 123.819659 
L 452.529429 123.989088 
L 453.053848 124.602161 
L 454.102688 126.467474 
L 454.627108 128.273465 
L 455.151528 129.601615 
L 456.724788 135.204797 
L 457.249208 136.549422 
L 457.773628 137.47532 
L 458.298048 137.876003 
L 459.346888 139.792862 
L 459.871308 140.735917 
L 461.444568 145.16103 
L 461.968988 146.094485 
L 462.493408 146.354346 
L 463.017828 146.448359 
L 463.542248 146.051024 
L 464.066668 145.189072 
L 464.591088 145.598851 
L 465.115508 145.07977 
L 465.639928 145.557851 
L 467.737608 149.698722 
L 468.262028 150.574037 
L 468.786448 151.152635 
L 469.310868 150.500547 
L 469.835288 150.764739 
L 470.359708 151.170858 
L 471.932968 153.260889 
L 472.457388 154.308211 
L 474.030648 155.600886 
L 474.555068 154.464479 
L 475.079488 154.331626 
L 475.603908 153.39293 
L 476.128328 152.830632 
L 476.652748 153.369436 
L 478.750427 156.465153 
L 480.323687 157.040309 
L 480.848107 157.440801 
L 481.372527 157.15289 
L 481.896947 156.652163 
L 482.421367 156.862423 
L 482.945787 156.183698 
L 484.519047 153.460869 
L 485.043467 153.288505 
L 485.567887 153.572871 
L 486.092307 153.310628 
L 486.616727 153.311962 
L 487.141147 153.067907 
L 488.189987 153.607397 
L 488.714407 153.249575 
L 489.238827 153.789898 
L 489.763247 154.133397 
L 490.812087 155.434438 
L 491.336507 155.780946 
L 491.860927 156.477103 
L 492.385347 156.366293 
L 492.909767 155.540861 
L 493.958607 155.078358 
L 494.483027 155.070715 
L 495.007447 155.40943 
L 495.531867 155.565602 
L 496.056287 156.198265 
L 497.105127 156.285093 
L 497.629547 156.63709 
L 498.153967 156.115259 
L 498.678387 156.290127 
L 499.202807 156.296836 
L 499.727227 156.757117 
L 500.251647 156.159044 
L 501.300487 156.100705 
L 501.824907 155.714581 
L 502.349327 154.669155 
L 502.873747 154.921115 
L 505.495846 158.361697 
L 506.020266 158.632374 
L 506.544686 158.425629 
L 507.069106 157.75587 
L 507.593526 157.34823 
L 508.117946 157.572906 
L 509.166786 156.48857 
L 509.691206 156.723167 
L 511.264466 158.672107 
L 512.313306 159.509801 
L 512.837726 159.833508 
L 513.362146 158.809973 
L 513.886566 158.746843 
L 515.984246 160.98922 
L 517.033086 161.931454 
L 517.557506 161.675091 
L 518.081926 161.753045 
L 518.606346 161.112628 
L 519.130766 160.910236 
L 519.655186 160.214434 
L 520.179606 159.244421 
L 521.228446 159.451492 
L 521.752866 159.470191 
L 522.801706 159.053136 
L 523.326126 159.359861 
L 523.850546 159.240522 
L 525.948226 159.541171 
L 526.472646 159.98794 
L 526.997066 159.213445 
L 527.521486 158.772225 
L 528.045906 158.939204 
L 528.570326 158.591397 
L 529.094746 158.440106 
L 529.619166 157.610986 
L 530.143585 158.044364 
L 530.668005 157.222476 
L 531.192425 156.813884 
L 532.241265 157.724154 
L 532.765685 156.633642 
L 533.290105 156.970981 
L 533.814525 157.149599 
L 534.338945 157.671681 
L 534.863365 157.646878 
L 535.387785 158.048046 
L 535.912205 158.614313 
L 536.436625 157.93128 
L 536.961045 155.841559 
L 537.485465 154.495578 
L 538.009885 152.166922 
L 538.534305 151.125628 
L 539.058725 150.634062 
L 539.583145 150.990077 
L 540.107565 151.845717 
L 541.156405 152.609921 
L 541.680825 152.550777 
L 542.729665 153.611006 
L 543.254085 152.87458 
L 543.778505 152.429463 
L 544.302925 152.935533 
L 544.827345 152.741174 
L 545.351765 152.930917 
L 545.876185 151.682923 
L 546.400605 151.393176 
L 546.925025 150.363635 
L 547.449445 150.382632 
L 547.973865 150.526491 
L 549.547125 152.26002 
L 550.071545 152.238966 
L 551.644805 150.027508 
L 552.169225 149.080508 
L 552.693645 147.545023 
L 553.218065 146.581682 
L 553.742485 146.900543 
L 554.791325 146.76017 
L 555.315745 147.375809 
L 555.840165 148.312887 
L 556.364584 148.595042 
L 557.413424 147.404005 
L 557.937844 146.751242 
L 558.462264 147.687901 
L 558.986684 148.34388 
L 560.559944 151.047648 
L 561.084364 151.644373 
L 562.133204 152.171011 
L 562.657624 152.083225 
L 563.182044 152.370445 
L 563.706464 151.505803 
L 564.230884 151.141784 
L 565.279724 151.598163 
L 566.328564 152.520648 
L 567.377404 152.502052 
L 567.901824 152.142198 
L 568.426244 152.521351 
L 568.950664 152.579521 
L 569.475084 152.414702 
L 569.999504 152.058933 
L 570.523924 151.212543 
L 571.048344 149.455723 
L 571.572764 148.330154 
L 572.621604 147.080936 
L 573.146024 147.2043 
L 573.670444 146.589681 
L 574.194864 146.469954 
L 574.719284 145.537822 
L 575.768124 145.175041 
L 576.292544 143.99348 
L 576.816964 144.012049 
L 577.341384 144.290945 
L 577.865804 145.057829 
L 578.390224 145.528116 
L 579.963484 145.736105 
L 580.487904 145.187451 
L 581.012324 145.130528 
L 581.536744 143.848809 
L 582.585583 142.563009 
L 583.110003 142.051383 
L 583.634423 142.343038 
L 584.158843 142.850699 
L 584.683263 143.185223 
L 585.207683 143.85575 
L 585.732103 143.83071 
L 586.256523 144.051607 
L 586.780943 144.569419 
L 587.305363 143.753059 
L 587.829783 144.067262 
L 588.354203 144.220727 
L 588.878623 144.590315 
L 589.927463 144.533731 
L 590.451883 143.686992 
L 591.500723 144.544345 
L 592.025143 145.259282 
L 592.549563 145.708636 
L 593.073983 146.541597 
L 593.598403 146.306903 
L 594.122823 144.834253 
L 595.696083 141.895245 
L 596.220503 141.319813 
L 596.744923 141.662466 
L 597.269343 142.215517 
L 597.793763 142.988804 
L 599.367023 144.43905 
L 599.891443 145.039075 
L 600.415863 144.836216 
L 600.940283 144.156323 
L 601.464703 144.020648 
L 601.989123 144.37192 
L 603.037963 145.603279 
L 604.086803 147.488861 
L 604.611223 147.836284 
L 605.135643 147.729769 
L 606.184483 147.845109 
L 606.708903 148.417881 
L 607.233323 148.022096 
L 607.757742 148.060508 
L 608.282162 148.389843 
L 608.806582 148.170783 
L 609.331002 148.199411 
L 609.855422 148.052207 
L 610.379842 147.589944 
L 611.428682 144.622689 
L 611.953102 144.620927 
L 612.477522 145.031336 
L 613.001942 145.588374 
L 613.526362 146.344763 
L 614.050782 147.433826 
L 614.575202 147.87069 
L 615.099622 147.971451 
L 615.624042 147.05931 
L 616.148462 146.463833 
L 617.197302 144.375454 
L 618.246142 142.235128 
L 618.770562 142.235094 
L 620.868242 144.454119 
L 621.917082 143.927221 
L 622.441502 142.359914 
L 622.965922 142.674662 
L 623.490342 143.404621 
L 624.014762 143.8397 
L 624.539182 144.548732 
L 625.063602 145.487684 
L 626.112442 145.831338 
L 627.161282 146.739819 
L 627.685702 146.98364 
L 628.210122 146.761839 
L 628.734542 145.852796 
L 629.258962 146.60971 
L 629.783382 146.658703 
L 630.832222 142.215696 
L 631.356642 140.877808 
L 631.881062 140.201287 
L 632.929902 137.789743 
L 633.978741 138.266384 
L 635.552001 141.464892 
L 636.076421 142.726911 
L 636.600841 142.65279 
L 637.125261 141.744686 
L 637.649681 141.646036 
L 638.174101 141.000387 
L 638.698521 141.091847 
L 639.222941 140.547987 
L 639.747361 138.927746 
L 640.271781 138.084027 
L 640.796201 138.343473 
L 641.320621 137.97004 
L 642.369461 139.130725 
L 642.893881 139.506958 
L 643.942721 137.180388 
L 644.467141 137.359962 
L 644.991561 137.75935 
L 646.564821 140.695304 
L 647.089241 140.846233 
L 647.613661 141.175533 
L 648.662501 141.177566 
L 649.186921 141.896012 
L 649.711341 142.210068 
L 650.235761 141.483108 
L 650.760181 141.123696 
L 651.284601 141.530325 
L 651.809021 141.289277 
L 652.857861 139.8513 
L 653.382281 140.226988 
L 653.906701 140.239682 
L 654.431121 139.450357 
L 654.955541 137.65098 
L 656.004381 136.665198 
L 656.528801 136.562658 
L 657.053221 136.298064 
L 658.102061 129.42686 
L 658.626481 126.784412 
L 659.150901 126.353107 
L 659.67532 126.757823 
L 660.19974 127.619389 
L 660.72416 127.995827 
L 661.773 125.199276 
L 662.29742 124.897164 
L 662.82184 125.204691 
L 663.34626 123.860052 
L 663.87068 124.031456 
L 664.3951 124.479486 
L 664.91952 125.220724 
L 665.44394 125.318243 
L 665.96836 125.216118 
L 666.49278 124.586224 
L 667.0172 124.334383 
L 667.54162 124.347167 
L 668.06604 123.663993 
L 668.59046 122.338766 
L 669.11488 121.404176 
L 669.6393 119.610218 
L 670.16372 120.483693 
L 671.21256 123.407642 
L 671.73698 125.064578 
L 672.2614 124.593613 
L 672.78582 125.406988 
L 673.31024 125.669254 
L 673.83466 124.884929 
L 674.8835 123.847364 
L 675.40792 123.740948 
L 675.93234 123.945219 
L 676.45676 124.595567 
L 676.98118 125.729032 
L 676.98118 125.729032 
" clip-path="url(#p4c1c563627)" style="fill: none; stroke: #008fd5; stroke-width: 4"/>
   </g>
   <g id="patch_9">
    <path d="M 395.60364 182.16 
L 395.60364 7.2 
" style="fill: none; stroke: #f0f0f0; stroke-width: 3; stroke-linejoin: miter; stroke-linecap: square"/>
   </g>
   <g id="patch_10">
    <path d="M 690.38011 182.16 
L 690.38011 7.2 
" style="fill: none; stroke: #f0f0f0; stroke-width: 3; stroke-linejoin: miter; stroke-linecap: square"/>
   </g>
   <g id="patch_11">
    <path d="M 395.60364 182.16 
L 690.38011 182.16 
" style="fill: none; stroke: #f0f0f0; stroke-width: 3; stroke-linejoin: miter; stroke-linecap: square"/>
   </g>
   <g id="patch_12">
    <path d="M 395.60364 7.2 
L 690.38011 7.2 
" style="fill: none; stroke: #f0f0f0; stroke-width: 3; stroke-linejoin: miter; stroke-linecap: square"/>
   </g>
   <g id="legend_2">
    <g id="patch_13">
     <path d="M 565.425735 38.949375 
L 680.58011 38.949375 
Q 683.38011 38.949375 683.38011 36.149375 
L 683.38011 17 
Q 683.38011 14.2 680.58011 14.2 
L 565.425735 14.2 
Q 562.625735 14.2 562.625735 17 
L 562.625735 36.149375 
Q 562.625735 38.949375 565.425735 38.949375 
z
" style="fill: #f0f0f0; opacity: 0.8; stroke: #cccccc; stroke-width: 0.5; stroke-linejoin: miter"/>
    </g>
    <g id="line2d_47">
     <path d="M 568.225735 25.537813 
L 582.225735 25.537813 
L 596.225735 25.537813 
" style="fill: none; stroke: #008fd5; stroke-width: 4"/>
    </g>
    <g id="text_23">
     <!-- perplexity -->
     <g transform="translate(607.425735 30.437813) scale(0.14 -0.14)">
      <defs>
       <path id="DejaVuSans-70" d="M 1159 525 
L 1159 -1331 
L 581 -1331 
L 581 3500 
L 1159 3500 
L 1159 2969 
Q 1341 3281 1617 3432 
Q 1894 3584 2278 3584 
Q 2916 3584 3314 3078 
Q 3713 2572 3713 1747 
Q 3713 922 3314 415 
Q 2916 -91 2278 -91 
Q 1894 -91 1617 61 
Q 1341 213 1159 525 
z
M 3116 1747 
Q 3116 2381 2855 2742 
Q 2594 3103 2138 3103 
Q 1681 3103 1420 2742 
Q 1159 2381 1159 1747 
Q 1159 1113 1420 752 
Q 1681 391 2138 391 
Q 2594 391 2855 752 
Q 3116 1113 3116 1747 
z
" transform="scale(0.015625)"/>
       <path id="DejaVuSans-65" d="M 3597 1894 
L 3597 1613 
L 953 1613 
Q 991 1019 1311 708 
Q 1631 397 2203 397 
Q 2534 397 2845 478 
Q 3156 559 3463 722 
L 3463 178 
Q 3153 47 2828 -22 
Q 2503 -91 2169 -91 
Q 1331 -91 842 396 
Q 353 884 353 1716 
Q 353 2575 817 3079 
Q 1281 3584 2069 3584 
Q 2775 3584 3186 3129 
Q 3597 2675 3597 1894 
z
M 3022 2063 
Q 3016 2534 2758 2815 
Q 2500 3097 2075 3097 
Q 1594 3097 1305 2825 
Q 1016 2553 972 2059 
L 3022 2063 
z
" transform="scale(0.015625)"/>
       <path id="DejaVuSans-6c" d="M 603 4863 
L 1178 4863 
L 1178 0 
L 603 0 
L 603 4863 
z
" transform="scale(0.015625)"/>
       <path id="DejaVuSans-78" d="M 3513 3500 
L 2247 1797 
L 3578 0 
L 2900 0 
L 1881 1375 
L 863 0 
L 184 0 
L 1544 1831 
L 300 3500 
L 978 3500 
L 1906 2253 
L 2834 3500 
L 3513 3500 
z
" transform="scale(0.015625)"/>
       <path id="DejaVuSans-69" d="M 603 3500 
L 1178 3500 
L 1178 0 
L 603 0 
L 603 3500 
z
M 603 4863 
L 1178 4863 
L 1178 4134 
L 603 4134 
L 603 4863 
z
" transform="scale(0.015625)"/>
       <path id="DejaVuSans-74" d="M 1172 4494 
L 1172 3500 
L 2356 3500 
L 2356 3053 
L 1172 3053 
L 1172 1153 
Q 1172 725 1289 603 
Q 1406 481 1766 481 
L 2356 481 
L 2356 0 
L 1766 0 
Q 1100 0 847 248 
Q 594 497 594 1153 
L 594 3053 
L 172 3053 
L 172 3500 
L 594 3500 
L 594 4494 
L 1172 4494 
z
" transform="scale(0.015625)"/>
      </defs>
      <use xlink:href="#DejaVuSans-70"/>
      <use xlink:href="#DejaVuSans-65" x="63.476562"/>
      <use xlink:href="#DejaVuSans-72" x="125"/>
      <use xlink:href="#DejaVuSans-70" x="166.113281"/>
      <use xlink:href="#DejaVuSans-6c" x="229.589844"/>
      <use xlink:href="#DejaVuSans-65" x="257.373047"/>
      <use xlink:href="#DejaVuSans-78" x="317.146484"/>
      <use xlink:href="#DejaVuSans-69" x="376.326172"/>
      <use xlink:href="#DejaVuSans-74" x="404.109375"/>
      <use xlink:href="#DejaVuSans-79" x="443.318359"/>
     </g>
    </g>
   </g>
  </g>
  <g id="axes_3">
   <g id="patch_14">
    <path d="M 749.335404 182.16 
L 1044.111875 182.16 
L 1044.111875 7.2 
L 749.335404 7.2 
L 749.335404 182.16 
z
" style="fill: none"/>
   </g>
   <g id="matplotlib.axis_5">
    <g id="xtick_13">
     <g id="line2d_48">
      <path d="M 762.734335 182.16 
L 762.734335 7.2 
" clip-path="url(#p085e60d0c9)" style="fill: none; stroke: #cbcbcb"/>
     </g>
     <g id="line2d_49"/>
     <g id="text_24">
      <!-- 0 -->
      <g transform="translate(758.280585 196.297813) scale(0.14 -0.14)">
       <use xlink:href="#DejaVuSans-30"/>
      </g>
     </g>
    </g>
    <g id="xtick_14">
     <g id="line2d_50">
      <path d="M 815.176333 182.16 
L 815.176333 7.2 
" clip-path="url(#p085e60d0c9)" style="fill: none; stroke: #cbcbcb"/>
     </g>
     <g id="line2d_51"/>
     <g id="text_25">
      <!-- 100 -->
      <g transform="translate(801.815083 196.297813) scale(0.14 -0.14)">
       <use xlink:href="#DejaVuSans-31"/>
       <use xlink:href="#DejaVuSans-30" x="63.623047"/>
       <use xlink:href="#DejaVuSans-30" x="127.246094"/>
      </g>
     </g>
    </g>
    <g id="xtick_15">
     <g id="line2d_52">
      <path d="M 867.618331 182.16 
L 867.618331 7.2 
" clip-path="url(#p085e60d0c9)" style="fill: none; stroke: #cbcbcb"/>
     </g>
     <g id="line2d_53"/>
     <g id="text_26">
      <!-- 200 -->
      <g transform="translate(854.257081 196.297813) scale(0.14 -0.14)">
       <use xlink:href="#DejaVuSans-32"/>
       <use xlink:href="#DejaVuSans-30" x="63.623047"/>
       <use xlink:href="#DejaVuSans-30" x="127.246094"/>
      </g>
     </g>
    </g>
    <g id="xtick_16">
     <g id="line2d_54">
      <path d="M 920.060329 182.16 
L 920.060329 7.2 
" clip-path="url(#p085e60d0c9)" style="fill: none; stroke: #cbcbcb"/>
     </g>
     <g id="line2d_55"/>
     <g id="text_27">
      <!-- 300 -->
      <g transform="translate(906.699079 196.297813) scale(0.14 -0.14)">
       <use xlink:href="#DejaVuSans-33"/>
       <use xlink:href="#DejaVuSans-30" x="63.623047"/>
       <use xlink:href="#DejaVuSans-30" x="127.246094"/>
      </g>
     </g>
    </g>
    <g id="xtick_17">
     <g id="line2d_56">
      <path d="M 972.502327 182.16 
L 972.502327 7.2 
" clip-path="url(#p085e60d0c9)" style="fill: none; stroke: #cbcbcb"/>
     </g>
     <g id="line2d_57"/>
     <g id="text_28">
      <!-- 400 -->
      <g transform="translate(959.141077 196.297813) scale(0.14 -0.14)">
       <use xlink:href="#DejaVuSans-34"/>
       <use xlink:href="#DejaVuSans-30" x="63.623047"/>
       <use xlink:href="#DejaVuSans-30" x="127.246094"/>
      </g>
     </g>
    </g>
    <g id="xtick_18">
     <g id="line2d_58">
      <path d="M 1024.944325 182.16 
L 1024.944325 7.2 
" clip-path="url(#p085e60d0c9)" style="fill: none; stroke: #cbcbcb"/>
     </g>
     <g id="line2d_59"/>
     <g id="text_29">
      <!-- 500 -->
      <g transform="translate(1011.583075 196.297813) scale(0.14 -0.14)">
       <use xlink:href="#DejaVuSans-35"/>
       <use xlink:href="#DejaVuSans-30" x="63.623047"/>
       <use xlink:href="#DejaVuSans-30" x="127.246094"/>
      </g>
     </g>
    </g>
   </g>
   <g id="matplotlib.axis_6">
    <g id="ytick_10">
     <g id="line2d_60">
      <path d="M 749.335404 174.207273 
L 1044.111875 174.207273 
" clip-path="url(#p085e60d0c9)" style="fill: none; stroke: #cbcbcb"/>
     </g>
     <g id="line2d_61"/>
     <g id="text_30">
      <!-- 0.0 -->
      <g transform="translate(723.571029 179.526179) scale(0.14 -0.14)">
       <use xlink:href="#DejaVuSans-30"/>
       <use xlink:href="#DejaVuSans-2e" x="63.623047"/>
       <use xlink:href="#DejaVuSans-30" x="95.410156"/>
      </g>
     </g>
    </g>
    <g id="ytick_11">
     <g id="line2d_62">
      <path d="M 749.335404 142.29116 
L 1044.111875 142.29116 
" clip-path="url(#p085e60d0c9)" style="fill: none; stroke: #cbcbcb"/>
     </g>
     <g id="line2d_63"/>
     <g id="text_31">
      <!-- 0.2 -->
      <g transform="translate(723.571029 147.610066) scale(0.14 -0.14)">
       <use xlink:href="#DejaVuSans-30"/>
       <use xlink:href="#DejaVuSans-2e" x="63.623047"/>
       <use xlink:href="#DejaVuSans-32" x="95.410156"/>
      </g>
     </g>
    </g>
    <g id="ytick_12">
     <g id="line2d_64">
      <path d="M 749.335404 110.375047 
L 1044.111875 110.375047 
" clip-path="url(#p085e60d0c9)" style="fill: none; stroke: #cbcbcb"/>
     </g>
     <g id="line2d_65"/>
     <g id="text_32">
      <!-- 0.4 -->
      <g transform="translate(723.571029 115.693953) scale(0.14 -0.14)">
       <use xlink:href="#DejaVuSans-30"/>
       <use xlink:href="#DejaVuSans-2e" x="63.623047"/>
       <use xlink:href="#DejaVuSans-34" x="95.410156"/>
      </g>
     </g>
    </g>
    <g id="ytick_13">
     <g id="line2d_66">
      <path d="M 749.335404 78.458934 
L 1044.111875 78.458934 
" clip-path="url(#p085e60d0c9)" style="fill: none; stroke: #cbcbcb"/>
     </g>
     <g id="line2d_67"/>
     <g id="text_33">
      <!-- 0.6 -->
      <g transform="translate(723.571029 83.777841) scale(0.14 -0.14)">
       <use xlink:href="#DejaVuSans-30"/>
       <use xlink:href="#DejaVuSans-2e" x="63.623047"/>
       <use xlink:href="#DejaVuSans-36" x="95.410156"/>
      </g>
     </g>
    </g>
    <g id="ytick_14">
     <g id="line2d_68">
      <path d="M 749.335404 46.542822 
L 1044.111875 46.542822 
" clip-path="url(#p085e60d0c9)" style="fill: none; stroke: #cbcbcb"/>
     </g>
     <g id="line2d_69"/>
     <g id="text_34">
      <!-- 0.8 -->
      <g transform="translate(723.571029 51.861728) scale(0.14 -0.14)">
       <use xlink:href="#DejaVuSans-30"/>
       <use xlink:href="#DejaVuSans-2e" x="63.623047"/>
       <use xlink:href="#DejaVuSans-38" x="95.410156"/>
      </g>
     </g>
    </g>
    <g id="ytick_15">
     <g id="line2d_70">
      <path d="M 749.335404 14.626709 
L 1044.111875 14.626709 
" clip-path="url(#p085e60d0c9)" style="fill: none; stroke: #cbcbcb"/>
     </g>
     <g id="line2d_71"/>
     <g id="text_35">
      <!-- 1.0 -->
      <g transform="translate(723.571029 19.945615) scale(0.14 -0.14)">
       <use xlink:href="#DejaVuSans-31"/>
       <use xlink:href="#DejaVuSans-2e" x="63.623047"/>
       <use xlink:href="#DejaVuSans-30" x="95.410156"/>
      </g>
     </g>
    </g>
   </g>
   <g id="line2d_72">
    <path d="M 762.734335 174.207273 
L 768.502955 174.207273 
L 778.991354 22.218716 
L 779.515774 174.207273 
L 790.004174 22.218716 
L 790.528594 174.207273 
L 801.016993 22.218716 
L 801.541413 174.207273 
L 812.029813 22.218716 
L 812.554233 174.207273 
L 823.042633 22.218716 
L 823.567053 174.207273 
L 834.055452 22.218716 
L 834.579872 174.207273 
L 845.068272 22.218716 
L 845.592692 174.207273 
L 856.081091 22.218716 
L 856.605511 174.207273 
L 867.093911 22.218716 
L 867.618331 174.207273 
L 878.10673 22.218716 
L 878.63115 174.207273 
L 889.11955 22.218716 
L 889.64397 174.207273 
L 900.13237 22.093551 
L 900.65679 174.040424 
L 911.145189 19.965745 
L 911.669609 171.78758 
L 922.158009 15.209569 
L 922.682429 166.906351 
L 932.646408 15.83568 
L 933.170828 167.405558 
L 942.610388 22.201737 
L 943.134808 173.658353 
L 953.098788 18.17904 
L 953.623208 169.516458 
L 963.062767 20.12871 
L 963.587187 171.352889 
L 973.026747 22.279753 
L 973.551167 173.587657 
L 979.319787 81.196144 
L 982.990726 19.821481 
L 983.515146 170.609811 
L 992.430286 21.696036 
L 992.954706 172.586429 
L 1002.394266 15.152727 
L 1002.918686 165.929875 
L 1011.833825 15.368558 
L 1012.358245 166.038423 
L 1020.748965 22.656589 
L 1021.273385 173.225126 
L 1021.797805 164.215945 
L 1030.712945 164.215945 
L 1030.712945 164.215945 
" clip-path="url(#p085e60d0c9)" style="fill: none; stroke: #008fd5; stroke-width: 4"/>
   </g>
   <g id="patch_15">
    <path d="M 749.335404 182.16 
L 749.335404 7.2 
" style="fill: none; stroke: #f0f0f0; stroke-width: 3; stroke-linejoin: miter; stroke-linecap: square"/>
   </g>
   <g id="patch_16">
    <path d="M 1044.111875 182.16 
L 1044.111875 7.2 
" style="fill: none; stroke: #f0f0f0; stroke-width: 3; stroke-linejoin: miter; stroke-linecap: square"/>
   </g>
   <g id="patch_17">
    <path d="M 749.335404 182.16 
L 1044.111875 182.16 
" style="fill: none; stroke: #f0f0f0; stroke-width: 3; stroke-linejoin: miter; stroke-linecap: square"/>
   </g>
   <g id="patch_18">
    <path d="M 749.335404 7.2 
L 1044.111875 7.2 
" style="fill: none; stroke: #f0f0f0; stroke-width: 3; stroke-linejoin: miter; stroke-linecap: square"/>
   </g>
   <g id="legend_3">
    <g id="patch_19">
     <path d="M 957.362187 38.949375 
L 1034.311875 38.949375 
Q 1037.111875 38.949375 1037.111875 36.149375 
L 1037.111875 17 
Q 1037.111875 14.2 1034.311875 14.2 
L 957.362187 14.2 
Q 954.562187 14.2 954.562187 17 
L 954.562187 36.149375 
Q 954.562187 38.949375 957.362187 38.949375 
z
" style="fill: #f0f0f0; opacity: 0.8; stroke: #cccccc; stroke-width: 0.5; stroke-linejoin: miter"/>
    </g>
    <g id="line2d_73">
     <path d="M 960.162187 25.537813 
L 974.162187 25.537813 
L 988.162187 25.537813 
" style="fill: none; stroke: #008fd5; stroke-width: 4"/>
    </g>
    <g id="text_36">
     <!-- sync -->
     <g transform="translate(999.362187 30.437813) scale(0.14 -0.14)">
      <defs>
       <path id="DejaVuSans-73" d="M 2834 3397 
L 2834 2853 
Q 2591 2978 2328 3040 
Q 2066 3103 1784 3103 
Q 1356 3103 1142 2972 
Q 928 2841 928 2578 
Q 928 2378 1081 2264 
Q 1234 2150 1697 2047 
L 1894 2003 
Q 2506 1872 2764 1633 
Q 3022 1394 3022 966 
Q 3022 478 2636 193 
Q 2250 -91 1575 -91 
Q 1294 -91 989 -36 
Q 684 19 347 128 
L 347 722 
Q 666 556 975 473 
Q 1284 391 1588 391 
Q 1994 391 2212 530 
Q 2431 669 2431 922 
Q 2431 1156 2273 1281 
Q 2116 1406 1581 1522 
L 1381 1569 
Q 847 1681 609 1914 
Q 372 2147 372 2553 
Q 372 3047 722 3315 
Q 1072 3584 1716 3584 
Q 2034 3584 2315 3537 
Q 2597 3491 2834 3397 
z
" transform="scale(0.015625)"/>
       <path id="DejaVuSans-6e" d="M 3513 2113 
L 3513 0 
L 2938 0 
L 2938 2094 
Q 2938 2591 2744 2837 
Q 2550 3084 2163 3084 
Q 1697 3084 1428 2787 
Q 1159 2491 1159 1978 
L 1159 0 
L 581 0 
L 581 3500 
L 1159 3500 
L 1159 2956 
Q 1366 3272 1645 3428 
Q 1925 3584 2291 3584 
Q 2894 3584 3203 3211 
Q 3513 2838 3513 2113 
z
" transform="scale(0.015625)"/>
      </defs>
      <use xlink:href="#DejaVuSans-73"/>
      <use xlink:href="#DejaVuSans-79" x="52.099609"/>
      <use xlink:href="#DejaVuSans-6e" x="111.279297"/>
      <use xlink:href="#DejaVuSans-63" x="174.658203"/>
     </g>
    </g>
   </g>
  </g>
 </g>
 <defs>
  <clipPath id="p88ed58ed88">
   <rect x="41.871875" y="7.2" width="294.776471" height="174.96"/>
  </clipPath>
  <clipPath id="p4c1c563627">
   <rect x="395.60364" y="7.2" width="294.776471" height="174.96"/>
  </clipPath>
  <clipPath id="p085e60d0c9">
   <rect x="749.335404" y="7.2" width="294.776471" height="174.96"/>
  </clipPath>
 </defs>
</svg>
