<?xml version="1.0" encoding="utf-8" standalone="no"?>
<!DOCTYPE svg PUBLIC "-//W3C//DTD SVG 1.1//EN"
  "http://www.w3.org/Graphics/SVG/1.1/DTD/svg11.dtd">
<svg xmlns:xlink="http://www.w3.org/1999/xlink" width="1051.311875pt" height="207.555166pt" viewBox="0 0 1051.311875 207.555166" xmlns="http://www.w3.org/2000/svg" version="1.1">
 <metadata>
  <rdf:RDF xmlns:dc="http://purl.org/dc/elements/1.1/" xmlns:cc="http://creativecommons.org/ns#" xmlns:rdf="http://www.w3.org/1999/02/22-rdf-syntax-ns#">
   <cc:Work>
    <dc:type rdf:resource="http://purl.org/dc/dcmitype/StillImage"/>
    <dc:date>2023-01-19T14:54:01.483190</dc:date>
    <dc:format>image/svg+xml</dc:format>
    <dc:creator>
     <cc:Agent>
      <dc:title>Matplotlib v3.6.0, https://matplotlib.org/</dc:title>
     </cc:Agent>
    </dc:creator>
   </cc:Work>
  </rdf:RDF>
 </metadata>
 <defs>
  <style type="text/css">*{stroke-linejoin: round; stroke-linecap: butt}</style>
 </defs>
 <g id="figure_1">
  <g id="patch_1">
   <path d="M 0 207.555166 
L 1051.311875 207.555166 
L 1051.311875 0 
L 0 0 
L 0 207.555166 
z
" style="fill: none"/>
  </g>
  <g id="axes_1">
   <g id="patch_2">
    <path d="M 41.871875 183.305791 
L 336.648346 183.305791 
L 336.648346 8.345791 
L 41.871875 8.345791 
L 41.871875 183.305791 
z
" style="fill: none"/>
   </g>
   <g id="matplotlib.axis_1">
    <g id="xtick_1">
     <g id="line2d_1">
      <path d="M 55.270805 183.305791 
L 55.270805 8.345791 
" clip-path="url(#p081b1a40da)" style="fill: none; stroke: #cbcbcb"/>
     </g>
     <g id="line2d_2"/>
     <g id="text_1">
      <!-- 0 -->
      <g transform="translate(50.817055 197.443603) scale(0.14 -0.14)">
       <defs>
        <path id="DejaVuSans-30" d="M 2034 4250 
Q 1547 4250 1301 3770 
Q 1056 3291 1056 2328 
Q 1056 1369 1301 889 
Q 1547 409 2034 409 
Q 2525 409 2770 889 
Q 3016 1369 3016 2328 
Q 3016 3291 2770 3770 
Q 2525 4250 2034 4250 
z
M 2034 4750 
Q 2819 4750 3233 4129 
Q 3647 3509 3647 2328 
Q 3647 1150 3233 529 
Q 2819 -91 2034 -91 
Q 1250 -91 836 529 
Q 422 1150 422 2328 
Q 422 3509 836 4129 
Q 1250 4750 2034 4750 
z
" transform="scale(0.015625)"/>
       </defs>
       <use xlink:href="#DejaVuSans-30"/>
      </g>
     </g>
    </g>
    <g id="xtick_2">
     <g id="line2d_3">
      <path d="M 107.712803 183.305791 
L 107.712803 8.345791 
" clip-path="url(#p081b1a40da)" style="fill: none; stroke: #cbcbcb"/>
     </g>
     <g id="line2d_4"/>
     <g id="text_2">
      <!-- 100 -->
      <g transform="translate(94.351553 197.443603) scale(0.14 -0.14)">
       <defs>
        <path id="DejaVuSans-31" d="M 794 531 
L 1825 531 
L 1825 4091 
L 703 3866 
L 703 4441 
L 1819 4666 
L 2450 4666 
L 2450 531 
L 3481 531 
L 3481 0 
L 794 0 
L 794 531 
z
" transform="scale(0.015625)"/>
       </defs>
       <use xlink:href="#DejaVuSans-31"/>
       <use xlink:href="#DejaVuSans-30" x="63.623047"/>
       <use xlink:href="#DejaVuSans-30" x="127.246094"/>
      </g>
     </g>
    </g>
    <g id="xtick_3">
     <g id="line2d_5">
      <path d="M 160.154801 183.305791 
L 160.154801 8.345791 
" clip-path="url(#p081b1a40da)" style="fill: none; stroke: #cbcbcb"/>
     </g>
     <g id="line2d_6"/>
     <g id="text_3">
      <!-- 200 -->
      <g transform="translate(146.793551 197.443603) scale(0.14 -0.14)">
       <defs>
        <path id="DejaVuSans-32" d="M 1228 531 
L 3431 531 
L 3431 0 
L 469 0 
L 469 531 
Q 828 903 1448 1529 
Q 2069 2156 2228 2338 
Q 2531 2678 2651 2914 
Q 2772 3150 2772 3378 
Q 2772 3750 2511 3984 
Q 2250 4219 1831 4219 
Q 1534 4219 1204 4116 
Q 875 4013 500 3803 
L 500 4441 
Q 881 4594 1212 4672 
Q 1544 4750 1819 4750 
Q 2544 4750 2975 4387 
Q 3406 4025 3406 3419 
Q 3406 3131 3298 2873 
Q 3191 2616 2906 2266 
Q 2828 2175 2409 1742 
Q 1991 1309 1228 531 
z
" transform="scale(0.015625)"/>
       </defs>
       <use xlink:href="#DejaVuSans-32"/>
       <use xlink:href="#DejaVuSans-30" x="63.623047"/>
       <use xlink:href="#DejaVuSans-30" x="127.246094"/>
      </g>
     </g>
    </g>
    <g id="xtick_4">
     <g id="line2d_7">
      <path d="M 212.596799 183.305791 
L 212.596799 8.345791 
" clip-path="url(#p081b1a40da)" style="fill: none; stroke: #cbcbcb"/>
     </g>
     <g id="line2d_8"/>
     <g id="text_4">
      <!-- 300 -->
      <g transform="translate(199.235549 197.443603) scale(0.14 -0.14)">
       <defs>
        <path id="DejaVuSans-33" d="M 2597 2516 
Q 3050 2419 3304 2112 
Q 3559 1806 3559 1356 
Q 3559 666 3084 287 
Q 2609 -91 1734 -91 
Q 1441 -91 1130 -33 
Q 819 25 488 141 
L 488 750 
Q 750 597 1062 519 
Q 1375 441 1716 441 
Q 2309 441 2620 675 
Q 2931 909 2931 1356 
Q 2931 1769 2642 2001 
Q 2353 2234 1838 2234 
L 1294 2234 
L 1294 2753 
L 1863 2753 
Q 2328 2753 2575 2939 
Q 2822 3125 2822 3475 
Q 2822 3834 2567 4026 
Q 2313 4219 1838 4219 
Q 1578 4219 1281 4162 
Q 984 4106 628 3988 
L 628 4550 
Q 988 4650 1302 4700 
Q 1616 4750 1894 4750 
Q 2613 4750 3031 4423 
Q 3450 4097 3450 3541 
Q 3450 3153 3228 2886 
Q 3006 2619 2597 2516 
z
" transform="scale(0.015625)"/>
       </defs>
       <use xlink:href="#DejaVuSans-33"/>
       <use xlink:href="#DejaVuSans-30" x="63.623047"/>
       <use xlink:href="#DejaVuSans-30" x="127.246094"/>
      </g>
     </g>
    </g>
    <g id="xtick_5">
     <g id="line2d_9">
      <path d="M 265.038797 183.305791 
L 265.038797 8.345791 
" clip-path="url(#p081b1a40da)" style="fill: none; stroke: #cbcbcb"/>
     </g>
     <g id="line2d_10"/>
     <g id="text_5">
      <!-- 400 -->
      <g transform="translate(251.677547 197.443603) scale(0.14 -0.14)">
       <defs>
        <path id="DejaVuSans-34" d="M 2419 4116 
L 825 1625 
L 2419 1625 
L 2419 4116 
z
M 2253 4666 
L 3047 4666 
L 3047 1625 
L 3713 1625 
L 3713 1100 
L 3047 1100 
L 3047 0 
L 2419 0 
L 2419 1100 
L 313 1100 
L 313 1709 
L 2253 4666 
z
" transform="scale(0.015625)"/>
       </defs>
       <use xlink:href="#DejaVuSans-34"/>
       <use xlink:href="#DejaVuSans-30" x="63.623047"/>
       <use xlink:href="#DejaVuSans-30" x="127.246094"/>
      </g>
     </g>
    </g>
    <g id="xtick_6">
     <g id="line2d_11">
      <path d="M 317.480795 183.305791 
L 317.480795 8.345791 
" clip-path="url(#p081b1a40da)" style="fill: none; stroke: #cbcbcb"/>
     </g>
     <g id="line2d_12"/>
     <g id="text_6">
      <!-- 500 -->
      <g transform="translate(304.119545 197.443603) scale(0.14 -0.14)">
       <defs>
        <path id="DejaVuSans-35" d="M 691 4666 
L 3169 4666 
L 3169 4134 
L 1269 4134 
L 1269 2991 
Q 1406 3038 1543 3061 
Q 1681 3084 1819 3084 
Q 2600 3084 3056 2656 
Q 3513 2228 3513 1497 
Q 3513 744 3044 326 
Q 2575 -91 1722 -91 
Q 1428 -91 1123 -41 
Q 819 9 494 109 
L 494 744 
Q 775 591 1075 516 
Q 1375 441 1709 441 
Q 2250 441 2565 725 
Q 2881 1009 2881 1497 
Q 2881 1984 2565 2268 
Q 2250 2553 1709 2553 
Q 1456 2553 1204 2497 
Q 953 2441 691 2322 
L 691 4666 
z
" transform="scale(0.015625)"/>
       </defs>
       <use xlink:href="#DejaVuSans-35"/>
       <use xlink:href="#DejaVuSans-30" x="63.623047"/>
       <use xlink:href="#DejaVuSans-30" x="127.246094"/>
      </g>
     </g>
    </g>
   </g>
   <g id="matplotlib.axis_2">
    <g id="ytick_1">
     <g id="line2d_13">
      <path d="M 41.871875 175.353064 
L 336.648346 175.353064 
" clip-path="url(#p081b1a40da)" style="fill: none; stroke: #cbcbcb"/>
     </g>
     <g id="line2d_14"/>
     <g id="text_7">
      <!-- 0.00 -->
      <g transform="translate(7.2 180.67197) scale(0.14 -0.14)">
       <defs>
        <path id="DejaVuSans-2e" d="M 684 794 
L 1344 794 
L 1344 0 
L 684 0 
L 684 794 
z
" transform="scale(0.015625)"/>
       </defs>
       <use xlink:href="#DejaVuSans-30"/>
       <use xlink:href="#DejaVuSans-2e" x="63.623047"/>
       <use xlink:href="#DejaVuSans-30" x="95.410156"/>
       <use xlink:href="#DejaVuSans-30" x="159.033203"/>
      </g>
     </g>
    </g>
    <g id="ytick_2">
     <g id="line2d_15">
      <path d="M 41.871875 138.895618 
L 336.648346 138.895618 
" clip-path="url(#p081b1a40da)" style="fill: none; stroke: #cbcbcb"/>
     </g>
     <g id="line2d_16"/>
     <g id="text_8">
      <!-- 0.02 -->
      <g transform="translate(7.2 144.214524) scale(0.14 -0.14)">
       <use xlink:href="#DejaVuSans-30"/>
       <use xlink:href="#DejaVuSans-2e" x="63.623047"/>
       <use xlink:href="#DejaVuSans-30" x="95.410156"/>
       <use xlink:href="#DejaVuSans-32" x="159.033203"/>
      </g>
     </g>
    </g>
    <g id="ytick_3">
     <g id="line2d_17">
      <path d="M 41.871875 102.438173 
L 336.648346 102.438173 
" clip-path="url(#p081b1a40da)" style="fill: none; stroke: #cbcbcb"/>
     </g>
     <g id="line2d_18"/>
     <g id="text_9">
      <!-- 0.04 -->
      <g transform="translate(7.2 107.757079) scale(0.14 -0.14)">
       <use xlink:href="#DejaVuSans-30"/>
       <use xlink:href="#DejaVuSans-2e" x="63.623047"/>
       <use xlink:href="#DejaVuSans-30" x="95.410156"/>
       <use xlink:href="#DejaVuSans-34" x="159.033203"/>
      </g>
     </g>
    </g>
    <g id="ytick_4">
     <g id="line2d_19">
      <path d="M 41.871875 65.980727 
L 336.648346 65.980727 
" clip-path="url(#p081b1a40da)" style="fill: none; stroke: #cbcbcb"/>
     </g>
     <g id="line2d_20"/>
     <g id="text_10">
      <!-- 0.06 -->
      <g transform="translate(7.2 71.299634) scale(0.14 -0.14)">
       <defs>
        <path id="DejaVuSans-36" d="M 2113 2584 
Q 1688 2584 1439 2293 
Q 1191 2003 1191 1497 
Q 1191 994 1439 701 
Q 1688 409 2113 409 
Q 2538 409 2786 701 
Q 3034 994 3034 1497 
Q 3034 2003 2786 2293 
Q 2538 2584 2113 2584 
z
M 3366 4563 
L 3366 3988 
Q 3128 4100 2886 4159 
Q 2644 4219 2406 4219 
Q 1781 4219 1451 3797 
Q 1122 3375 1075 2522 
Q 1259 2794 1537 2939 
Q 1816 3084 2150 3084 
Q 2853 3084 3261 2657 
Q 3669 2231 3669 1497 
Q 3669 778 3244 343 
Q 2819 -91 2113 -91 
Q 1303 -91 875 529 
Q 447 1150 447 2328 
Q 447 3434 972 4092 
Q 1497 4750 2381 4750 
Q 2619 4750 2861 4703 
Q 3103 4656 3366 4563 
z
" transform="scale(0.015625)"/>
       </defs>
       <use xlink:href="#DejaVuSans-30"/>
       <use xlink:href="#DejaVuSans-2e" x="63.623047"/>
       <use xlink:href="#DejaVuSans-30" x="95.410156"/>
       <use xlink:href="#DejaVuSans-36" x="159.033203"/>
      </g>
     </g>
    </g>
    <g id="ytick_5">
     <g id="line2d_21">
      <path d="M 41.871875 29.523282 
L 336.648346 29.523282 
" clip-path="url(#p081b1a40da)" style="fill: none; stroke: #cbcbcb"/>
     </g>
     <g id="line2d_22"/>
     <g id="text_11">
      <!-- 0.08 -->
      <g transform="translate(7.2 34.842188) scale(0.14 -0.14)">
       <defs>
        <path id="DejaVuSans-38" d="M 2034 2216 
Q 1584 2216 1326 1975 
Q 1069 1734 1069 1313 
Q 1069 891 1326 650 
Q 1584 409 2034 409 
Q 2484 409 2743 651 
Q 3003 894 3003 1313 
Q 3003 1734 2745 1975 
Q 2488 2216 2034 2216 
z
M 1403 2484 
Q 997 2584 770 2862 
Q 544 3141 544 3541 
Q 544 4100 942 4425 
Q 1341 4750 2034 4750 
Q 2731 4750 3128 4425 
Q 3525 4100 3525 3541 
Q 3525 3141 3298 2862 
Q 3072 2584 2669 2484 
Q 3125 2378 3379 2068 
Q 3634 1759 3634 1313 
Q 3634 634 3220 271 
Q 2806 -91 2034 -91 
Q 1263 -91 848 271 
Q 434 634 434 1313 
Q 434 1759 690 2068 
Q 947 2378 1403 2484 
z
M 1172 3481 
Q 1172 3119 1398 2916 
Q 1625 2713 2034 2713 
Q 2441 2713 2670 2916 
Q 2900 3119 2900 3481 
Q 2900 3844 2670 4047 
Q 2441 4250 2034 4250 
Q 1625 4250 1398 4047 
Q 1172 3844 1172 3481 
z
" transform="scale(0.015625)"/>
       </defs>
       <use xlink:href="#DejaVuSans-30"/>
       <use xlink:href="#DejaVuSans-2e" x="63.623047"/>
       <use xlink:href="#DejaVuSans-30" x="95.410156"/>
       <use xlink:href="#DejaVuSans-38" x="159.033203"/>
      </g>
     </g>
    </g>
   </g>
   <g id="line2d_23">
    <path d="M 55.270805 16.298518 
L 188.9979 16.298518 
L 189.52232 175.353064 
L 323.249415 175.353064 
L 323.249415 175.353064 
" clip-path="url(#p081b1a40da)" style="fill: none; stroke: #008fd5; stroke-width: 4"/>
   </g>
   <g id="patch_3">
    <path d="M 41.871875 183.305791 
L 41.871875 8.345791 
" style="fill: none; stroke: #f0f0f0; stroke-width: 3; stroke-linejoin: miter; stroke-linecap: square"/>
   </g>
   <g id="patch_4">
    <path d="M 336.648346 183.305791 
L 336.648346 8.345791 
" style="fill: none; stroke: #f0f0f0; stroke-width: 3; stroke-linejoin: miter; stroke-linecap: square"/>
   </g>
   <g id="patch_5">
    <path d="M 41.871875 183.305791 
L 336.648346 183.305791 
" style="fill: none; stroke: #f0f0f0; stroke-width: 3; stroke-linejoin: miter; stroke-linecap: square"/>
   </g>
   <g id="patch_6">
    <path d="M 41.871875 8.345791 
L 336.648346 8.345791 
" style="fill: none; stroke: #f0f0f0; stroke-width: 3; stroke-linejoin: miter; stroke-linecap: square"/>
   </g>
   <g id="legend_1">
    <g id="patch_7">
     <path d="M 218.882096 40.095166 
L 326.848346 40.095166 
Q 329.648346 40.095166 329.648346 37.295166 
L 329.648346 18.145791 
Q 329.648346 15.345791 326.848346 15.345791 
L 218.882096 15.345791 
Q 216.082096 15.345791 216.082096 18.145791 
L 216.082096 37.295166 
Q 216.082096 40.095166 218.882096 40.095166 
z
" style="fill: #f0f0f0; opacity: 0.8; stroke: #cccccc; stroke-width: 0.5; stroke-linejoin: miter"/>
    </g>
    <g id="line2d_24">
     <path d="M 221.682096 26.683603 
L 235.682096 26.683603 
L 249.682096 26.683603 
" style="fill: none; stroke: #008fd5; stroke-width: 4"/>
    </g>
    <g id="text_12">
     <!-- accuracy -->
     <g transform="translate(260.882096 31.583603) scale(0.14 -0.14)">
      <defs>
       <path id="DejaVuSans-61" d="M 2194 1759 
Q 1497 1759 1228 1600 
Q 959 1441 959 1056 
Q 959 750 1161 570 
Q 1363 391 1709 391 
Q 2188 391 2477 730 
Q 2766 1069 2766 1631 
L 2766 1759 
L 2194 1759 
z
M 3341 1997 
L 3341 0 
L 2766 0 
L 2766 531 
Q 2569 213 2275 61 
Q 1981 -91 1556 -91 
Q 1019 -91 701 211 
Q 384 513 384 1019 
Q 384 1609 779 1909 
Q 1175 2209 1959 2209 
L 2766 2209 
L 2766 2266 
Q 2766 2663 2505 2880 
Q 2244 3097 1772 3097 
Q 1472 3097 1187 3025 
Q 903 2953 641 2809 
L 641 3341 
Q 956 3463 1253 3523 
Q 1550 3584 1831 3584 
Q 2591 3584 2966 3190 
Q 3341 2797 3341 1997 
z
" transform="scale(0.015625)"/>
       <path id="DejaVuSans-63" d="M 3122 3366 
L 3122 2828 
Q 2878 2963 2633 3030 
Q 2388 3097 2138 3097 
Q 1578 3097 1268 2742 
Q 959 2388 959 1747 
Q 959 1106 1268 751 
Q 1578 397 2138 397 
Q 2388 397 2633 464 
Q 2878 531 3122 666 
L 3122 134 
Q 2881 22 2623 -34 
Q 2366 -91 2075 -91 
Q 1284 -91 818 406 
Q 353 903 353 1747 
Q 353 2603 823 3093 
Q 1294 3584 2113 3584 
Q 2378 3584 2631 3529 
Q 2884 3475 3122 3366 
z
" transform="scale(0.015625)"/>
       <path id="DejaVuSans-75" d="M 544 1381 
L 544 3500 
L 1119 3500 
L 1119 1403 
Q 1119 906 1312 657 
Q 1506 409 1894 409 
Q 2359 409 2629 706 
Q 2900 1003 2900 1516 
L 2900 3500 
L 3475 3500 
L 3475 0 
L 2900 0 
L 2900 538 
Q 2691 219 2414 64 
Q 2138 -91 1772 -91 
Q 1169 -91 856 284 
Q 544 659 544 1381 
z
M 1991 3584 
L 1991 3584 
z
" transform="scale(0.015625)"/>
       <path id="DejaVuSans-72" d="M 2631 2963 
Q 2534 3019 2420 3045 
Q 2306 3072 2169 3072 
Q 1681 3072 1420 2755 
Q 1159 2438 1159 1844 
L 1159 0 
L 581 0 
L 581 3500 
L 1159 3500 
L 1159 2956 
Q 1341 3275 1631 3429 
Q 1922 3584 2338 3584 
Q 2397 3584 2469 3576 
Q 2541 3569 2628 3553 
L 2631 2963 
z
" transform="scale(0.015625)"/>
       <path id="DejaVuSans-79" d="M 2059 -325 
Q 1816 -950 1584 -1140 
Q 1353 -1331 966 -1331 
L 506 -1331 
L 506 -850 
L 844 -850 
Q 1081 -850 1212 -737 
Q 1344 -625 1503 -206 
L 1606 56 
L 191 3500 
L 800 3500 
L 1894 763 
L 2988 3500 
L 3597 3500 
L 2059 -325 
z
" transform="scale(0.015625)"/>
      </defs>
      <use xlink:href="#DejaVuSans-61"/>
      <use xlink:href="#DejaVuSans-63" x="61.279297"/>
      <use xlink:href="#DejaVuSans-63" x="116.259766"/>
      <use xlink:href="#DejaVuSans-75" x="171.240234"/>
      <use xlink:href="#DejaVuSans-72" x="234.619141"/>
      <use xlink:href="#DejaVuSans-61" x="275.732422"/>
      <use xlink:href="#DejaVuSans-63" x="337.011719"/>
      <use xlink:href="#DejaVuSans-79" x="391.992188"/>
     </g>
    </g>
   </g>
  </g>
  <g id="axes_2">
   <g id="patch_8">
    <path d="M 395.60364 183.305791 
L 690.38011 183.305791 
L 690.38011 8.345791 
L 395.60364 8.345791 
L 395.60364 183.305791 
z
" style="fill: none"/>
   </g>
   <g id="matplotlib.axis_3">
    <g id="xtick_7">
     <g id="line2d_25">
      <path d="M 409.00257 183.305791 
L 409.00257 8.345791 
" clip-path="url(#p7e053ea8f3)" style="fill: none; stroke: #cbcbcb"/>
     </g>
     <g id="line2d_26"/>
     <g id="text_13">
      <!-- 0 -->
      <g transform="translate(404.54882 197.443603) scale(0.14 -0.14)">
       <use xlink:href="#DejaVuSans-30"/>
      </g>
     </g>
    </g>
    <g id="xtick_8">
     <g id="line2d_27">
      <path d="M 461.444568 183.305791 
L 461.444568 8.345791 
" clip-path="url(#p7e053ea8f3)" style="fill: none; stroke: #cbcbcb"/>
     </g>
     <g id="line2d_28"/>
     <g id="text_14">
      <!-- 100 -->
      <g transform="translate(448.083318 197.443603) scale(0.14 -0.14)">
       <use xlink:href="#DejaVuSans-31"/>
       <use xlink:href="#DejaVuSans-30" x="63.623047"/>
       <use xlink:href="#DejaVuSans-30" x="127.246094"/>
      </g>
     </g>
    </g>
    <g id="xtick_9">
     <g id="line2d_29">
      <path d="M 513.886566 183.305791 
L 513.886566 8.345791 
" clip-path="url(#p7e053ea8f3)" style="fill: none; stroke: #cbcbcb"/>
     </g>
     <g id="line2d_30"/>
     <g id="text_15">
      <!-- 200 -->
      <g transform="translate(500.525316 197.443603) scale(0.14 -0.14)">
       <use xlink:href="#DejaVuSans-32"/>
       <use xlink:href="#DejaVuSans-30" x="63.623047"/>
       <use xlink:href="#DejaVuSans-30" x="127.246094"/>
      </g>
     </g>
    </g>
    <g id="xtick_10">
     <g id="line2d_31">
      <path d="M 566.328564 183.305791 
L 566.328564 8.345791 
" clip-path="url(#p7e053ea8f3)" style="fill: none; stroke: #cbcbcb"/>
     </g>
     <g id="line2d_32"/>
     <g id="text_16">
      <!-- 300 -->
      <g transform="translate(552.967314 197.443603) scale(0.14 -0.14)">
       <use xlink:href="#DejaVuSans-33"/>
       <use xlink:href="#DejaVuSans-30" x="63.623047"/>
       <use xlink:href="#DejaVuSans-30" x="127.246094"/>
      </g>
     </g>
    </g>
    <g id="xtick_11">
     <g id="line2d_33">
      <path d="M 618.770562 183.305791 
L 618.770562 8.345791 
" clip-path="url(#p7e053ea8f3)" style="fill: none; stroke: #cbcbcb"/>
     </g>
     <g id="line2d_34"/>
     <g id="text_17">
      <!-- 400 -->
      <g transform="translate(605.409312 197.443603) scale(0.14 -0.14)">
       <use xlink:href="#DejaVuSans-34"/>
       <use xlink:href="#DejaVuSans-30" x="63.623047"/>
       <use xlink:href="#DejaVuSans-30" x="127.246094"/>
      </g>
     </g>
    </g>
    <g id="xtick_12">
     <g id="line2d_35">
      <path d="M 671.21256 183.305791 
L 671.21256 8.345791 
" clip-path="url(#p7e053ea8f3)" style="fill: none; stroke: #cbcbcb"/>
     </g>
     <g id="line2d_36"/>
     <g id="text_18">
      <!-- 500 -->
      <g transform="translate(657.85131 197.443603) scale(0.14 -0.14)">
       <use xlink:href="#DejaVuSans-35"/>
       <use xlink:href="#DejaVuSans-30" x="63.623047"/>
       <use xlink:href="#DejaVuSans-30" x="127.246094"/>
      </g>
     </g>
    </g>
   </g>
   <g id="matplotlib.axis_4">
    <g id="ytick_6">
     <g id="line2d_37">
      <path d="M 395.60364 149.655809 
L 690.38011 149.655809 
" clip-path="url(#p7e053ea8f3)" style="fill: none; stroke: #cbcbcb"/>
     </g>
     <g id="line2d_38"/>
     <g id="text_19">
      <!-- 20 -->
      <g transform="translate(374.28864 154.974715) scale(0.14 -0.14)">
       <use xlink:href="#DejaVuSans-32"/>
       <use xlink:href="#DejaVuSans-30" x="63.623047"/>
      </g>
     </g>
    </g>
    <g id="ytick_7">
     <g id="line2d_39">
      <path d="M 395.60364 113.718531 
L 690.38011 113.718531 
" clip-path="url(#p7e053ea8f3)" style="fill: none; stroke: #cbcbcb"/>
     </g>
     <g id="line2d_40"/>
     <g id="text_20">
      <!-- 40 -->
      <g transform="translate(374.28864 119.037437) scale(0.14 -0.14)">
       <use xlink:href="#DejaVuSans-34"/>
       <use xlink:href="#DejaVuSans-30" x="63.623047"/>
      </g>
     </g>
    </g>
    <g id="ytick_8">
     <g id="line2d_41">
      <path d="M 395.60364 77.781253 
L 690.38011 77.781253 
" clip-path="url(#p7e053ea8f3)" style="fill: none; stroke: #cbcbcb"/>
     </g>
     <g id="line2d_42"/>
     <g id="text_21">
      <!-- 60 -->
      <g transform="translate(374.28864 83.100159) scale(0.14 -0.14)">
       <use xlink:href="#DejaVuSans-36"/>
       <use xlink:href="#DejaVuSans-30" x="63.623047"/>
      </g>
     </g>
    </g>
    <g id="ytick_9">
     <g id="line2d_43">
      <path d="M 395.60364 41.843975 
L 690.38011 41.843975 
" clip-path="url(#p7e053ea8f3)" style="fill: none; stroke: #cbcbcb"/>
     </g>
     <g id="line2d_44"/>
     <g id="text_22">
      <!-- 80 -->
      <g transform="translate(374.28864 47.162881) scale(0.14 -0.14)">
       <use xlink:href="#DejaVuSans-38"/>
       <use xlink:href="#DejaVuSans-30" x="63.623047"/>
      </g>
     </g>
    </g>
   </g>
   <g id="line2d_45">
    <path d="M 409.00257 16.298518 
L 409.52699 59.089739 
L 410.05141 62.492912 
L 411.10025 112.189815 
L 411.62467 65.118046 
L 412.14909 124.59955 
L 412.67351 110.636107 
L 413.19793 122.824847 
L 413.72235 109.889002 
L 414.24677 41.329532 
L 414.77119 58.354499 
L 415.82003 147.679539 
L 416.34445 104.317595 
L 416.86887 134.926205 
L 417.39329 130.662437 
L 417.91771 131.574537 
L 418.44213 107.324819 
L 418.96655 125.276787 
L 419.49097 123.438618 
L 420.01539 75.813466 
L 420.53981 102.708709 
L 421.06423 98.929581 
L 421.58865 101.18255 
L 422.11307 127.088416 
L 422.63749 141.02902 
L 423.16191 140.211488 
L 423.68633 141.393439 
L 424.21075 155.437689 
L 424.73517 151.0571 
L 425.25959 127.727282 
L 425.78401 130.316354 
L 426.30843 149.273774 
L 426.832849 157.994394 
L 427.357269 156.786924 
L 427.881689 165.101547 
L 428.406109 171.316 
L 428.930529 160.334236 
L 429.454949 156.163402 
L 429.979369 160.575922 
L 430.503789 152.673862 
L 431.028209 126.38629 
L 431.552629 125.552921 
L 432.077049 146.101854 
L 432.601469 145.496133 
L 433.125889 162.339689 
L 433.650309 157.754991 
L 434.174729 163.371146 
L 434.699149 159.867057 
L 435.223569 138.927073 
L 435.747989 123.786299 
L 436.272409 124.736866 
L 436.796829 143.806508 
L 437.321249 132.725029 
L 437.845669 117.925626 
L 438.370089 139.242403 
L 438.894509 88.550633 
L 439.943349 125.100682 
L 440.467769 119.810248 
L 440.992189 134.843746 
L 441.516609 144.325252 
L 442.041029 124.530902 
L 442.565449 144.293019 
L 443.089869 113.070473 
L 443.614289 136.253704 
L 444.138709 153.889314 
L 444.663129 145.965748 
L 445.187549 154.329469 
L 445.711969 136.485194 
L 446.236389 145.126741 
L 446.760809 121.613329 
L 447.285229 129.277264 
L 447.809649 159.137382 
L 448.334069 142.771257 
L 448.858489 98.756423 
L 449.382909 70.226973 
L 449.907329 58.047391 
L 450.431749 62.997019 
L 450.956169 117.844414 
L 451.480589 142.194688 
L 452.005009 158.969101 
L 452.529429 128.354022 
L 453.578268 145.932192 
L 454.102688 143.879254 
L 454.627108 163.733106 
L 455.151528 155.982251 
L 455.675948 170.875233 
L 456.200368 174.760536 
L 456.724788 164.783287 
L 457.249208 163.243026 
L 457.773628 156.213193 
L 458.298048 146.634746 
L 458.822468 160.681413 
L 459.346888 156.782342 
L 459.871308 159.799795 
L 460.395728 171.256884 
L 460.920148 172.255901 
L 461.444568 175.017372 
L 461.968988 164.975941 
L 462.493408 152.437475 
L 463.017828 149.380378 
L 464.066668 129.957785 
L 464.591088 154.530422 
L 465.115508 136.363006 
L 465.639928 155.787165 
L 466.164348 168.151918 
L 466.688768 168.594828 
L 467.213188 171.35331 
L 467.737608 167.957819 
L 468.262028 168.350796 
L 468.786448 163.291814 
L 469.310868 139.256606 
L 469.835288 156.930176 
L 470.359708 160.032848 
L 470.884128 165.330071 
L 471.408548 163.158889 
L 471.932968 172.072536 
L 472.457388 175.353064 
L 472.981808 163.240587 
L 473.506228 165.182799 
L 474.030648 165.037679 
L 474.555068 134.018581 
L 475.079488 152.95321 
L 475.603908 136.703489 
L 476.128328 143.292815 
L 476.652748 164.752458 
L 477.177168 170.546129 
L 477.701588 170.069505 
L 478.226008 173.159838 
L 478.750427 170.934987 
L 479.274847 161.583377 
L 479.799267 161.745045 
L 480.323687 161.601522 
L 480.848107 166.195948 
L 481.372527 152.828366 
L 481.896947 148.284129 
L 482.421367 162.003144 
L 482.945787 144.433683 
L 483.470207 139.569877 
L 483.994627 137.90528 
L 484.519047 137.353943 
L 485.043467 151.159434 
L 485.567887 160.121612 
L 486.092307 149.473812 
L 486.616727 154.483061 
L 487.141147 149.576619 
L 487.665567 158.418846 
L 488.189987 161.008556 
L 488.714407 147.596723 
L 489.238827 165.201779 
L 489.763247 161.805682 
L 490.287667 169.924848 
L 490.812087 167.386659 
L 491.336507 163.510383 
L 491.860927 170.849854 
L 492.909767 141.003425 
L 493.434187 152.1152 
L 493.958607 151.779515 
L 494.483027 156.071284 
L 495.007447 162.990774 
L 495.531867 159.678628 
L 496.056287 169.364616 
L 496.580707 158.465489 
L 497.105127 158.015223 
L 497.629547 164.470833 
L 498.153967 147.346249 
L 498.678387 160.758416 
L 499.202807 157.570079 
L 499.727227 166.648241 
L 500.251647 145.941428 
L 500.776067 157.414814 
L 501.300487 156.033588 
L 501.824907 149.524038 
L 502.349327 135.951832 
L 502.873747 160.854156 
L 503.398167 169.121181 
L 503.922587 171.642011 
L 504.447006 168.885887 
L 504.971426 173.275217 
L 505.495846 172.974963 
L 506.544686 155.643218 
L 507.069106 146.176222 
L 507.593526 150.74886 
L 508.117946 162.987576 
L 508.642366 149.217296 
L 509.166786 146.058284 
L 509.691206 162.326323 
L 510.215626 171.317437 
L 510.740046 173.345118 
L 511.264466 170.008159 
L 511.788886 168.836848 
L 512.837726 167.129714 
L 513.362146 140.508592 
L 513.886566 158.693127 
L 514.410986 171.617287 
L 514.935406 169.950031 
L 515.459826 174.202288 
L 515.984246 172.016719 
L 516.508666 172.000084 
L 517.033086 171.607842 
L 517.557506 157.950006 
L 518.081926 164.379984 
L 518.606346 150.090479 
L 519.130766 158.210557 
L 519.655186 148.140017 
L 520.179606 141.959945 
L 520.704026 163.058455 
L 521.752866 160.971271 
L 522.277286 155.788283 
L 522.801706 156.861184 
L 523.326126 166.333396 
L 523.850546 158.118865 
L 524.374966 162.138342 
L 524.899386 162.200221 
L 525.423806 162.714445 
L 525.948226 161.048324 
L 526.472646 169.622314 
L 526.997066 145.64383 
L 527.521486 151.534837 
L 528.045906 163.257557 
L 528.570326 153.128839 
L 529.094746 156.711391 
L 529.619166 143.003473 
L 530.143585 167.424303 
L 530.668005 142.752383 
L 531.192425 150.196405 
L 531.716845 166.54109 
L 532.241265 168.01272 
L 532.765685 137.059673 
L 533.290105 164.526199 
L 533.814525 161.689119 
L 534.338945 168.737016 
L 534.863365 158.321387 
L 535.387785 166.816029 
L 535.912205 170.519156 
L 536.961045 117.282654 
L 537.485465 130.067731 
L 538.009885 109.068252 
L 538.534305 132.486774 
L 539.058725 142.440085 
L 539.583145 158.900165 
L 540.107565 169.248613 
L 540.631985 160.700722 
L 541.156405 160.95183 
L 541.680825 152.572786 
L 542.205245 164.972769 
L 542.729665 164.188689 
L 543.254085 133.069234 
L 543.778505 150.862014 
L 544.302925 152.566034 
L 544.827345 144.164902 
L 545.876185 135.831697 
L 546.400605 113.298926 
L 546.925025 131.5452 
L 547.449445 126.116682 
L 547.973865 143.014197 
L 548.498285 165.839774 
L 549.022705 170.101193 
L 549.547125 164.442452 
L 550.071545 153.434399 
L 550.595965 123.523827 
L 551.120385 132.418133 
L 551.644805 130.63371 
L 552.169225 138.802314 
L 552.693645 126.46596 
L 553.218065 131.626045 
L 554.266905 165.130139 
L 554.791325 162.517431 
L 555.315745 156.695643 
L 555.840165 163.296151 
L 556.364584 145.660171 
L 556.889004 123.337803 
L 557.413424 135.619674 
L 557.937844 150.853662 
L 558.462264 155.504681 
L 559.511104 169.953947 
L 560.035524 164.512344 
L 560.559944 163.048512 
L 561.084364 145.075761 
L 561.608784 133.497736 
L 562.133204 155.693464 
L 562.657624 148.021609 
L 563.182044 149.029003 
L 563.706464 156.38571 
L 564.230884 137.900023 
L 564.755304 163.362633 
L 565.279724 152.315814 
L 565.804144 115.096112 
L 566.852984 160.808171 
L 567.377404 157.077037 
L 567.901824 144.915633 
L 568.426244 159.750923 
L 568.950664 158.017607 
L 569.475084 151.848921 
L 569.999504 149.833282 
L 570.523924 152.057863 
L 571.048344 122.600143 
L 571.572764 142.327706 
L 572.097184 152.224314 
L 572.621604 133.791903 
L 573.146024 148.707397 
L 573.670444 138.74038 
L 574.194864 142.102251 
L 574.719284 127.501721 
L 575.243704 122.490834 
L 575.768124 150.130565 
L 576.292544 140.207965 
L 576.816964 139.987188 
L 577.341384 156.518971 
L 577.865804 165.576238 
L 578.390224 152.655718 
L 578.914644 145.497415 
L 579.439064 154.27465 
L 580.487904 134.965121 
L 581.536744 106.819437 
L 582.061163 122.202 
L 582.585583 159.417686 
L 583.634423 146.69971 
L 584.158843 162.625035 
L 584.683263 152.581909 
L 585.207683 160.177992 
L 585.732103 153.525468 
L 586.256523 148.874424 
L 586.780943 159.34562 
L 587.305363 157.261491 
L 587.829783 156.476621 
L 588.354203 134.865587 
L 588.878623 160.603203 
L 589.403043 146.392848 
L 589.927463 126.720672 
L 590.451883 130.850288 
L 590.976303 149.916482 
L 591.500723 148.123549 
L 592.025143 147.733059 
L 592.549563 167.75123 
L 593.598403 162.17191 
L 594.122823 144.193111 
L 594.647243 130.936891 
L 595.171663 143.255338 
L 595.696083 142.64912 
L 596.744923 132.589622 
L 597.269343 135.63327 
L 598.318183 155.846015 
L 598.842603 161.599509 
L 599.367023 153.277756 
L 599.891443 163.845664 
L 600.415863 154.629027 
L 601.464703 127.470725 
L 601.989123 149.787634 
L 602.513543 165.857137 
L 603.037963 160.217143 
L 603.562383 165.478395 
L 604.086803 165.445427 
L 604.611223 168.157912 
L 605.135643 153.347717 
L 605.660063 147.098521 
L 606.184483 160.216876 
L 606.708903 145.005557 
L 607.233323 155.641196 
L 607.757742 139.178235 
L 608.282162 142.988174 
L 608.806582 158.178422 
L 609.331002 155.849414 
L 609.855422 160.377418 
L 610.379842 157.182044 
L 610.904262 159.836007 
L 611.428682 141.258206 
L 611.953102 146.517627 
L 612.477522 149.221865 
L 613.001942 145.303666 
L 613.526362 148.909276 
L 614.050782 154.677104 
L 614.575202 154.215163 
L 615.099622 115.5691 
L 616.148462 144.935717 
L 616.672882 143.214639 
L 617.197302 143.411943 
L 617.721722 142.696416 
L 618.246142 124.823829 
L 618.770562 144.019007 
L 619.294982 112.688637 
L 619.819402 131.095367 
L 620.343822 127.521633 
L 620.868242 119.899041 
L 621.392662 156.050333 
L 621.917082 148.018312 
L 622.441502 120.309097 
L 622.965922 122.792788 
L 623.490342 112.756297 
L 624.014762 146.042121 
L 624.539182 145.886188 
L 625.063602 160.598789 
L 625.588022 166.30296 
L 626.112442 165.873577 
L 626.636862 154.594258 
L 627.161282 157.652187 
L 627.685702 146.167325 
L 628.210122 130.864326 
L 628.734542 146.164364 
L 629.258962 146.48235 
L 629.783382 131.42916 
L 630.307802 132.64612 
L 630.832222 158.374496 
L 631.356642 151.107953 
L 631.881062 113.631383 
L 632.405482 148.477402 
L 632.929902 150.802582 
L 633.454321 157.224986 
L 633.978741 153.166059 
L 635.027581 140.195572 
L 635.552001 141.889522 
L 636.076421 147.90426 
L 636.600841 147.798451 
L 637.125261 119.897739 
L 637.649681 125.152776 
L 638.174101 161.4602 
L 639.222941 109.980105 
L 639.747361 146.321962 
L 640.271781 145.565089 
L 640.796201 135.673677 
L 641.320621 116.603381 
L 641.845041 140.513695 
L 642.369461 142.360436 
L 642.893881 133.476987 
L 643.418301 151.531232 
L 643.942721 151.930513 
L 644.467141 149.230083 
L 644.991561 132.123167 
L 645.515981 134.545582 
L 646.040401 147.354691 
L 646.564821 148.056574 
L 647.089241 157.230951 
L 647.613661 146.02057 
L 648.138081 155.873909 
L 648.662501 153.109506 
L 649.186921 154.957086 
L 649.711341 137.88799 
L 650.235761 148.608285 
L 650.760181 145.494508 
L 651.284601 130.61317 
L 651.809021 136.925763 
L 652.333441 121.67796 
L 652.857861 146.114737 
L 653.382281 153.864336 
L 653.906701 139.979563 
L 654.431121 153.587206 
L 654.955541 155.349475 
L 656.004381 141.852929 
L 656.528801 142.591254 
L 657.053221 156.066674 
L 657.577641 154.764252 
L 658.102061 139.016544 
L 658.626481 140.32895 
L 659.150901 91.116564 
L 660.19974 143.919521 
L 660.72416 139.3952 
L 661.24858 132.046301 
L 661.773 137.993522 
L 662.29742 137.030198 
L 662.82184 138.319041 
L 663.34626 117.968206 
L 663.87068 142.143018 
L 664.3951 134.7776 
L 664.91952 95.396886 
L 665.44394 148.147601 
L 665.96836 156.473197 
L 666.49278 146.599127 
L 667.0172 161.206601 
L 667.54162 150.266558 
L 668.06604 146.659868 
L 668.59046 128.320124 
L 669.11488 144.852976 
L 669.6393 117.833851 
L 670.16372 81.376941 
L 671.21256 130.424233 
L 671.73698 123.100767 
L 672.2614 150.327456 
L 672.78582 150.348746 
L 673.31024 156.832544 
L 673.83466 152.692945 
L 674.35908 131.295388 
L 674.8835 133.287964 
L 675.40792 120.953097 
L 675.93234 104.154287 
L 676.45676 145.62679 
L 676.98118 119.262074 
L 676.98118 119.262074 
" clip-path="url(#p7e053ea8f3)" style="fill: none; stroke: #008fd5; stroke-opacity: 0.4; stroke-width: 4"/>
   </g>
   <g id="line2d_46">
    <path d="M 409.00257 16.298518 
L 410.05141 20.640825 
L 410.57583 24.024202 
L 411.10025 28.432477 
L 411.62467 30.266752 
L 412.67351 38.766034 
L 413.72235 46.314982 
L 414.24677 46.065712 
L 414.77119 46.680148 
L 415.29561 49.472737 
L 415.82003 54.383075 
L 416.34445 56.879796 
L 417.39329 64.27615 
L 417.91771 67.641074 
L 418.44213 69.625272 
L 419.49097 74.959389 
L 420.01539 75.002093 
L 421.06423 77.514531 
L 421.58865 78.697932 
L 422.11307 81.117451 
L 424.73517 95.837815 
L 425.78401 99.0765 
L 427.357269 107.025778 
L 428.930529 115.365665 
L 430.503789 121.219566 
L 431.552629 121.681654 
L 432.601469 124.032341 
L 433.650309 127.538071 
L 434.699149 130.856594 
L 435.223569 131.260118 
L 436.272409 130.578946 
L 436.796829 131.240326 
L 437.321249 131.31456 
L 437.845669 130.645112 
L 438.370089 131.074978 
L 438.894509 128.948759 
L 439.418929 127.859951 
L 439.943349 127.721983 
L 440.467769 127.326397 
L 440.992189 127.702263 
L 441.516609 128.533415 
L 442.041029 128.333288 
L 442.565449 129.131274 
L 443.089869 128.328236 
L 443.614289 128.724511 
L 444.138709 129.982752 
L 444.663129 130.781904 
L 445.187549 131.959283 
L 445.711969 132.185577 
L 446.236389 132.832638 
L 446.760809 132.271673 
L 447.285229 132.121954 
L 447.809649 133.472724 
L 448.334069 133.93765 
L 448.858489 132.178589 
L 450.431749 122.402713 
L 450.956169 122.174794 
L 451.480589 123.17579 
L 452.005009 124.965456 
L 452.529429 125.134886 
L 453.053848 125.747958 
L 454.102688 127.613278 
L 454.627108 129.419269 
L 455.151528 130.747419 
L 456.724788 136.350603 
L 457.249208 137.695224 
L 457.773628 138.621126 
L 458.298048 139.021808 
L 459.346888 140.938667 
L 459.871308 141.881722 
L 461.444568 146.306831 
L 461.968988 147.240286 
L 462.493408 147.500146 
L 463.017828 147.594159 
L 463.542248 147.196822 
L 464.066668 146.334869 
L 464.591088 146.744648 
L 465.115508 146.225567 
L 465.639928 146.703648 
L 467.737608 150.844515 
L 468.262028 151.71983 
L 468.786448 152.298428 
L 469.310868 151.646336 
L 469.835288 151.910529 
L 470.359708 152.316644 
L 471.932968 154.406674 
L 472.457388 155.453996 
L 474.030648 156.746667 
L 474.555068 155.610265 
L 475.079488 155.477411 
L 475.603908 154.538716 
L 476.128328 153.976421 
L 476.652748 154.515225 
L 478.750427 157.610945 
L 480.323687 158.1861 
L 480.848107 158.586593 
L 481.372527 158.298682 
L 481.896947 157.797955 
L 482.421367 158.008214 
L 482.945787 157.329488 
L 484.519047 154.606657 
L 485.043467 154.434294 
L 485.567887 154.71866 
L 486.092307 154.456417 
L 486.616727 154.45775 
L 487.141147 154.213696 
L 488.189987 154.753186 
L 488.714407 154.395364 
L 489.238827 154.935687 
L 489.763247 155.279186 
L 490.812087 156.580227 
L 491.336507 156.926735 
L 491.860927 157.622891 
L 492.385347 157.512081 
L 492.909767 156.686649 
L 493.958607 156.224149 
L 494.483027 156.216507 
L 495.007447 156.555221 
L 495.531867 156.711394 
L 496.056287 157.344057 
L 497.105127 157.430884 
L 497.629547 157.782881 
L 498.153967 157.261051 
L 498.678387 157.435919 
L 499.202807 157.442628 
L 499.727227 157.902909 
L 500.251647 157.304836 
L 501.300487 157.246497 
L 501.824907 156.860373 
L 502.349327 155.814947 
L 502.873747 156.066907 
L 505.495846 159.507489 
L 506.020266 159.778166 
L 506.544686 159.571419 
L 507.069106 158.90166 
L 507.593526 158.49402 
L 508.117946 158.718698 
L 509.166786 157.634362 
L 509.691206 157.86896 
L 511.264466 159.8179 
L 512.313306 160.655594 
L 512.837726 160.979301 
L 513.362146 159.955766 
L 513.886566 159.892634 
L 515.984246 162.135011 
L 517.033086 163.077245 
L 517.557506 162.820883 
L 518.081926 162.898838 
L 518.606346 162.258421 
L 519.130766 162.056028 
L 519.655186 161.360227 
L 520.179606 160.390214 
L 521.228446 160.597284 
L 521.752866 160.615983 
L 522.801706 160.198929 
L 523.326126 160.505654 
L 523.850546 160.386315 
L 525.948226 160.686962 
L 526.472646 161.133731 
L 526.997066 160.359236 
L 527.521486 159.918016 
L 528.045906 160.084993 
L 528.570326 159.737186 
L 529.094746 159.585896 
L 529.619166 158.756775 
L 530.143585 159.190151 
L 530.668005 158.368264 
L 531.192425 157.959673 
L 532.241265 158.869942 
L 532.765685 157.77943 
L 533.290105 158.116769 
L 533.814525 158.295387 
L 534.338945 158.817468 
L 534.863365 158.792665 
L 535.387785 159.193832 
L 535.912205 159.760099 
L 536.436625 159.077068 
L 536.961045 156.987347 
L 537.485465 155.641367 
L 538.009885 153.312711 
L 538.534305 152.271414 
L 539.058725 151.779848 
L 539.583145 152.135867 
L 540.107565 152.991506 
L 541.156405 153.75571 
L 541.680825 153.696566 
L 542.729665 154.756795 
L 543.254085 153.672418 
L 544.302925 153.483604 
L 544.827345 153.01767 
L 545.876185 151.52923 
L 546.400605 149.617715 
L 546.925025 148.714091 
L 547.449445 147.58422 
L 547.973865 147.355719 
L 549.547125 150.124557 
L 550.071545 150.290051 
L 550.595965 148.951739 
L 551.644805 147.250492 
L 552.169225 146.828084 
L 552.693645 145.80998 
L 553.218065 145.100783 
L 553.742485 145.348264 
L 554.791325 147.146366 
L 555.315745 147.623829 
L 555.840165 148.407448 
L 556.364584 148.270084 
L 556.889004 147.023468 
L 557.413424 146.453277 
L 557.937844 146.673296 
L 558.462264 147.114866 
L 558.986684 147.866485 
L 559.511104 148.97086 
L 560.559944 150.412966 
L 561.084364 150.146107 
L 561.608784 149.313687 
L 562.133204 149.632675 
L 563.182044 149.525971 
L 563.706464 149.868956 
L 564.230884 149.270511 
L 564.755304 149.975118 
L 565.279724 150.092155 
L 565.804144 148.342351 
L 566.328564 147.917311 
L 566.852984 148.561856 
L 567.377404 148.987616 
L 567.901824 148.784017 
L 568.950664 149.766625 
L 570.523924 149.978319 
L 571.048344 148.609412 
L 571.572764 148.295329 
L 572.097184 148.491779 
L 572.621604 147.756786 
L 573.146024 147.804318 
L 573.670444 147.35112 
L 574.194864 147.088675 
L 575.243704 144.928406 
L 575.768124 145.188514 
L 576.816964 144.691871 
L 577.341384 145.283226 
L 577.865804 146.297879 
L 578.390224 146.615773 
L 578.914644 146.559854 
L 579.439064 146.945594 
L 579.963484 146.838215 
L 580.487904 146.244561 
L 581.012324 145.040769 
L 581.536744 143.129702 
L 582.061163 142.083316 
L 582.585583 142.950035 
L 583.110003 143.421683 
L 583.634423 143.585587 
L 584.158843 144.53756 
L 584.683263 144.939778 
L 585.207683 145.701689 
L 585.732103 146.092878 
L 586.256523 146.231956 
L 587.305363 147.406332 
L 587.829783 147.85985 
L 588.354203 147.210136 
L 588.878623 147.879789 
L 589.403043 147.805442 
L 589.927463 146.751204 
L 590.451883 145.956159 
L 591.500723 146.252643 
L 592.025143 146.326664 
L 593.073983 148.266037 
L 593.598403 148.961329 
L 594.122823 148.722919 
L 594.647243 147.833618 
L 595.696083 147.356929 
L 596.220503 146.84642 
L 596.744923 146.13358 
L 597.269343 145.608567 
L 597.793763 145.619877 
L 598.318183 146.131185 
L 598.842603 146.904601 
L 599.367023 147.223259 
L 599.891443 148.05438 
L 600.415863 148.383111 
L 600.940283 147.954517 
L 601.464703 146.930326 
L 601.989123 147.07319 
L 602.513543 148.01239 
L 603.037963 148.622628 
L 604.611223 151.159091 
L 605.135643 151.268523 
L 605.660063 151.060023 
L 606.184483 151.517866 
L 606.708903 151.192253 
L 607.233323 151.414702 
L 607.757742 150.802881 
L 608.282162 150.412147 
L 609.855422 151.519134 
L 610.904262 152.203966 
L 611.428682 151.656679 
L 611.953102 151.399725 
L 612.477522 151.290831 
L 613.001942 150.991475 
L 613.526362 150.887366 
L 614.575202 151.233771 
L 615.099622 149.450537 
L 615.624042 148.538753 
L 616.672882 148.101405 
L 617.721722 147.608406 
L 618.246142 146.46918 
L 618.770562 146.346673 
L 619.294982 144.663772 
L 620.343822 143.162165 
L 620.868242 141.999009 
L 621.392662 142.701577 
L 621.917082 142.967415 
L 623.490342 139.47611 
L 624.539182 140.108502 
L 625.588022 142.391518 
L 626.112442 143.565624 
L 627.161282 144.793815 
L 627.685702 144.862494 
L 628.210122 144.162588 
L 629.258962 144.373662 
L 630.307802 143.172423 
L 630.832222 143.932527 
L 631.356642 144.291298 
L 631.881062 142.758305 
L 632.929902 143.432177 
L 633.454321 144.121821 
L 633.978741 144.574032 
L 634.503161 144.664406 
L 635.552001 144.313394 
L 636.600841 144.658213 
L 637.125261 143.420188 
L 637.649681 142.506817 
L 638.174101 143.454488 
L 638.698521 143.172433 
L 639.222941 141.512816 
L 640.271781 141.943868 
L 640.796201 141.630357 
L 641.320621 140.379008 
L 642.369461 140.484478 
L 642.893881 140.134104 
L 643.942721 141.265287 
L 644.467141 141.663526 
L 645.515981 140.854463 
L 646.564821 141.523331 
L 647.089241 142.308716 
L 647.613661 142.494311 
L 648.662501 143.660603 
L 649.186921 144.225427 
L 649.711341 143.908557 
L 650.235761 144.143546 
L 650.760181 144.211094 
L 651.284601 143.531197 
L 651.809021 143.200927 
L 652.333441 142.124779 
L 652.857861 142.324275 
L 653.382281 142.901279 
L 653.906701 142.755193 
L 654.955541 143.899431 
L 655.479961 144.095709 
L 656.528801 143.913952 
L 657.577641 145.033722 
L 658.626481 144.512671 
L 659.150901 141.842867 
L 659.67532 140.605693 
L 660.19974 140.771383 
L 660.72416 140.702574 
L 661.24858 140.269761 
L 662.82184 139.915627 
L 663.34626 138.818254 
L 663.87068 138.984493 
L 664.3951 138.774149 
L 664.91952 136.605285 
L 665.44394 137.182402 
L 665.96836 138.146942 
L 666.49278 138.569553 
L 667.0172 139.701404 
L 667.54162 140.229662 
L 668.06604 140.551172 
L 668.59046 139.939618 
L 669.11488 140.185286 
L 669.6393 139.067713 
L 670.16372 136.183175 
L 670.68814 134.685585 
L 671.21256 134.472517 
L 671.73698 133.90393 
L 673.83466 137.378622 
L 674.8835 136.885137 
L 675.40792 136.088535 
L 675.93234 134.491822 
L 676.45676 135.048571 
L 676.98118 134.259249 
L 676.98118 134.259249 
" clip-path="url(#p7e053ea8f3)" style="fill: none; stroke: #008fd5; stroke-width: 4"/>
   </g>
   <g id="patch_9">
    <path d="M 395.60364 183.305791 
L 395.60364 8.345791 
" style="fill: none; stroke: #f0f0f0; stroke-width: 3; stroke-linejoin: miter; stroke-linecap: square"/>
   </g>
   <g id="patch_10">
    <path d="M 690.38011 183.305791 
L 690.38011 8.345791 
" style="fill: none; stroke: #f0f0f0; stroke-width: 3; stroke-linejoin: miter; stroke-linecap: square"/>
   </g>
   <g id="patch_11">
    <path d="M 395.60364 183.305791 
L 690.38011 183.305791 
" style="fill: none; stroke: #f0f0f0; stroke-width: 3; stroke-linejoin: miter; stroke-linecap: square"/>
   </g>
   <g id="patch_12">
    <path d="M 395.60364 8.345791 
L 690.38011 8.345791 
" style="fill: none; stroke: #f0f0f0; stroke-width: 3; stroke-linejoin: miter; stroke-linecap: square"/>
   </g>
   <g id="legend_2">
    <g id="patch_13">
     <path d="M 565.425735 40.095166 
L 680.58011 40.095166 
Q 683.38011 40.095166 683.38011 37.295166 
L 683.38011 18.145791 
Q 683.38011 15.345791 680.58011 15.345791 
L 565.425735 15.345791 
Q 562.625735 15.345791 562.625735 18.145791 
L 562.625735 37.295166 
Q 562.625735 40.095166 565.425735 40.095166 
z
" style="fill: #f0f0f0; opacity: 0.8; stroke: #cccccc; stroke-width: 0.5; stroke-linejoin: miter"/>
    </g>
    <g id="line2d_47">
     <path d="M 568.225735 26.683603 
L 582.225735 26.683603 
L 596.225735 26.683603 
" style="fill: none; stroke: #008fd5; stroke-width: 4"/>
    </g>
    <g id="text_23">
     <!-- perplexity -->
     <g transform="translate(607.425735 31.583603) scale(0.14 -0.14)">
      <defs>
       <path id="DejaVuSans-70" d="M 1159 525 
L 1159 -1331 
L 581 -1331 
L 581 3500 
L 1159 3500 
L 1159 2969 
Q 1341 3281 1617 3432 
Q 1894 3584 2278 3584 
Q 2916 3584 3314 3078 
Q 3713 2572 3713 1747 
Q 3713 922 3314 415 
Q 2916 -91 2278 -91 
Q 1894 -91 1617 61 
Q 1341 213 1159 525 
z
M 3116 1747 
Q 3116 2381 2855 2742 
Q 2594 3103 2138 3103 
Q 1681 3103 1420 2742 
Q 1159 2381 1159 1747 
Q 1159 1113 1420 752 
Q 1681 391 2138 391 
Q 2594 391 2855 752 
Q 3116 1113 3116 1747 
z
" transform="scale(0.015625)"/>
       <path id="DejaVuSans-65" d="M 3597 1894 
L 3597 1613 
L 953 1613 
Q 991 1019 1311 708 
Q 1631 397 2203 397 
Q 2534 397 2845 478 
Q 3156 559 3463 722 
L 3463 178 
Q 3153 47 2828 -22 
Q 2503 -91 2169 -91 
Q 1331 -91 842 396 
Q 353 884 353 1716 
Q 353 2575 817 3079 
Q 1281 3584 2069 3584 
Q 2775 3584 3186 3129 
Q 3597 2675 3597 1894 
z
M 3022 2063 
Q 3016 2534 2758 2815 
Q 2500 3097 2075 3097 
Q 1594 3097 1305 2825 
Q 1016 2553 972 2059 
L 3022 2063 
z
" transform="scale(0.015625)"/>
       <path id="DejaVuSans-6c" d="M 603 4863 
L 1178 4863 
L 1178 0 
L 603 0 
L 603 4863 
z
" transform="scale(0.015625)"/>
       <path id="DejaVuSans-78" d="M 3513 3500 
L 2247 1797 
L 3578 0 
L 2900 0 
L 1881 1375 
L 863 0 
L 184 0 
L 1544 1831 
L 300 3500 
L 978 3500 
L 1906 2253 
L 2834 3500 
L 3513 3500 
z
" transform="scale(0.015625)"/>
       <path id="DejaVuSans-69" d="M 603 3500 
L 1178 3500 
L 1178 0 
L 603 0 
L 603 3500 
z
M 603 4863 
L 1178 4863 
L 1178 4134 
L 603 4134 
L 603 4863 
z
" transform="scale(0.015625)"/>
       <path id="DejaVuSans-74" d="M 1172 4494 
L 1172 3500 
L 2356 3500 
L 2356 3053 
L 1172 3053 
L 1172 1153 
Q 1172 725 1289 603 
Q 1406 481 1766 481 
L 2356 481 
L 2356 0 
L 1766 0 
Q 1100 0 847 248 
Q 594 497 594 1153 
L 594 3053 
L 172 3053 
L 172 3500 
L 594 3500 
L 594 4494 
L 1172 4494 
z
" transform="scale(0.015625)"/>
      </defs>
      <use xlink:href="#DejaVuSans-70"/>
      <use xlink:href="#DejaVuSans-65" x="63.476562"/>
      <use xlink:href="#DejaVuSans-72" x="125"/>
      <use xlink:href="#DejaVuSans-70" x="166.113281"/>
      <use xlink:href="#DejaVuSans-6c" x="229.589844"/>
      <use xlink:href="#DejaVuSans-65" x="257.373047"/>
      <use xlink:href="#DejaVuSans-78" x="317.146484"/>
      <use xlink:href="#DejaVuSans-69" x="376.326172"/>
      <use xlink:href="#DejaVuSans-74" x="404.109375"/>
      <use xlink:href="#DejaVuSans-79" x="443.318359"/>
     </g>
    </g>
   </g>
  </g>
  <g id="axes_3">
   <g id="patch_14">
    <path d="M 749.335404 183.305791 
L 1044.111875 183.305791 
L 1044.111875 8.345791 
L 749.335404 8.345791 
L 749.335404 183.305791 
z
" style="fill: none"/>
   </g>
   <g id="matplotlib.axis_5">
    <g id="xtick_13">
     <g id="line2d_48">
      <path d="M 762.734335 183.305791 
L 762.734335 8.345791 
" clip-path="url(#p6d702dada4)" style="fill: none; stroke: #cbcbcb"/>
     </g>
     <g id="line2d_49"/>
     <g id="text_24">
      <!-- 0 -->
      <g transform="translate(758.280585 197.443603) scale(0.14 -0.14)">
       <use xlink:href="#DejaVuSans-30"/>
      </g>
     </g>
    </g>
    <g id="xtick_14">
     <g id="line2d_50">
      <path d="M 815.176333 183.305791 
L 815.176333 8.345791 
" clip-path="url(#p6d702dada4)" style="fill: none; stroke: #cbcbcb"/>
     </g>
     <g id="line2d_51"/>
     <g id="text_25">
      <!-- 100 -->
      <g transform="translate(801.815083 197.443603) scale(0.14 -0.14)">
       <use xlink:href="#DejaVuSans-31"/>
       <use xlink:href="#DejaVuSans-30" x="63.623047"/>
       <use xlink:href="#DejaVuSans-30" x="127.246094"/>
      </g>
     </g>
    </g>
    <g id="xtick_15">
     <g id="line2d_52">
      <path d="M 867.618331 183.305791 
L 867.618331 8.345791 
" clip-path="url(#p6d702dada4)" style="fill: none; stroke: #cbcbcb"/>
     </g>
     <g id="line2d_53"/>
     <g id="text_26">
      <!-- 200 -->
      <g transform="translate(854.257081 197.443603) scale(0.14 -0.14)">
       <use xlink:href="#DejaVuSans-32"/>
       <use xlink:href="#DejaVuSans-30" x="63.623047"/>
       <use xlink:href="#DejaVuSans-30" x="127.246094"/>
      </g>
     </g>
    </g>
    <g id="xtick_16">
     <g id="line2d_54">
      <path d="M 920.060329 183.305791 
L 920.060329 8.345791 
" clip-path="url(#p6d702dada4)" style="fill: none; stroke: #cbcbcb"/>
     </g>
     <g id="line2d_55"/>
     <g id="text_27">
      <!-- 300 -->
      <g transform="translate(906.699079 197.443603) scale(0.14 -0.14)">
       <use xlink:href="#DejaVuSans-33"/>
       <use xlink:href="#DejaVuSans-30" x="63.623047"/>
       <use xlink:href="#DejaVuSans-30" x="127.246094"/>
      </g>
     </g>
    </g>
    <g id="xtick_17">
     <g id="line2d_56">
      <path d="M 972.502327 183.305791 
L 972.502327 8.345791 
" clip-path="url(#p6d702dada4)" style="fill: none; stroke: #cbcbcb"/>
     </g>
     <g id="line2d_57"/>
     <g id="text_28">
      <!-- 400 -->
      <g transform="translate(959.141077 197.443603) scale(0.14 -0.14)">
       <use xlink:href="#DejaVuSans-34"/>
       <use xlink:href="#DejaVuSans-30" x="63.623047"/>
       <use xlink:href="#DejaVuSans-30" x="127.246094"/>
      </g>
     </g>
    </g>
    <g id="xtick_18">
     <g id="line2d_58">
      <path d="M 1024.944325 183.305791 
L 1024.944325 8.345791 
" clip-path="url(#p6d702dada4)" style="fill: none; stroke: #cbcbcb"/>
     </g>
     <g id="line2d_59"/>
     <g id="text_29">
      <!-- 500 -->
      <g transform="translate(1011.583075 197.443603) scale(0.14 -0.14)">
       <use xlink:href="#DejaVuSans-35"/>
       <use xlink:href="#DejaVuSans-30" x="63.623047"/>
       <use xlink:href="#DejaVuSans-30" x="127.246094"/>
      </g>
     </g>
    </g>
   </g>
   <g id="matplotlib.axis_6">
    <g id="ytick_10">
     <g id="line2d_60">
      <path d="M 749.335404 175.353064 
L 1044.111875 175.353064 
" clip-path="url(#p6d702dada4)" style="fill: none; stroke: #cbcbcb"/>
     </g>
     <g id="line2d_61"/>
     <g id="text_30">
      <!-- 0.0 -->
      <g transform="translate(723.571029 180.67197) scale(0.14 -0.14)">
       <use xlink:href="#DejaVuSans-30"/>
       <use xlink:href="#DejaVuSans-2e" x="63.623047"/>
       <use xlink:href="#DejaVuSans-30" x="95.410156"/>
      </g>
     </g>
    </g>
    <g id="ytick_11">
     <g id="line2d_62">
      <path d="M 749.335404 142.786232 
L 1044.111875 142.786232 
" clip-path="url(#p6d702dada4)" style="fill: none; stroke: #cbcbcb"/>
     </g>
     <g id="line2d_63"/>
     <g id="text_31">
      <!-- 0.2 -->
      <g transform="translate(723.571029 148.105138) scale(0.14 -0.14)">
       <use xlink:href="#DejaVuSans-30"/>
       <use xlink:href="#DejaVuSans-2e" x="63.623047"/>
       <use xlink:href="#DejaVuSans-32" x="95.410156"/>
      </g>
     </g>
    </g>
    <g id="ytick_12">
     <g id="line2d_64">
      <path d="M 749.335404 110.219401 
L 1044.111875 110.219401 
" clip-path="url(#p6d702dada4)" style="fill: none; stroke: #cbcbcb"/>
     </g>
     <g id="line2d_65"/>
     <g id="text_32">
      <!-- 0.4 -->
      <g transform="translate(723.571029 115.538307) scale(0.14 -0.14)">
       <use xlink:href="#DejaVuSans-30"/>
       <use xlink:href="#DejaVuSans-2e" x="63.623047"/>
       <use xlink:href="#DejaVuSans-34" x="95.410156"/>
      </g>
     </g>
    </g>
    <g id="ytick_13">
     <g id="line2d_66">
      <path d="M 749.335404 77.652569 
L 1044.111875 77.652569 
" clip-path="url(#p6d702dada4)" style="fill: none; stroke: #cbcbcb"/>
     </g>
     <g id="line2d_67"/>
     <g id="text_33">
      <!-- 0.6 -->
      <g transform="translate(723.571029 82.971475) scale(0.14 -0.14)">
       <use xlink:href="#DejaVuSans-30"/>
       <use xlink:href="#DejaVuSans-2e" x="63.623047"/>
       <use xlink:href="#DejaVuSans-36" x="95.410156"/>
      </g>
     </g>
    </g>
    <g id="ytick_14">
     <g id="line2d_68">
      <path d="M 749.335404 45.085738 
L 1044.111875 45.085738 
" clip-path="url(#p6d702dada4)" style="fill: none; stroke: #cbcbcb"/>
     </g>
     <g id="line2d_69"/>
     <g id="text_34">
      <!-- 0.8 -->
      <g transform="translate(723.571029 50.404644) scale(0.14 -0.14)">
       <use xlink:href="#DejaVuSans-30"/>
       <use xlink:href="#DejaVuSans-2e" x="63.623047"/>
       <use xlink:href="#DejaVuSans-38" x="95.410156"/>
      </g>
     </g>
    </g>
    <g id="ytick_15">
     <g id="line2d_70">
      <path d="M 749.335404 12.518906 
L 1044.111875 12.518906 
" clip-path="url(#p6d702dada4)" style="fill: none; stroke: #cbcbcb"/>
     </g>
     <g id="line2d_71"/>
     <g id="text_35">
      <!-- 1.0 -->
      <g transform="translate(723.571029 17.837812) scale(0.14 -0.14)">
       <use xlink:href="#DejaVuSans-31"/>
       <use xlink:href="#DejaVuSans-2e" x="63.623047"/>
       <use xlink:href="#DejaVuSans-30" x="95.410156"/>
      </g>
     </g>
    </g>
   </g>
   <g id="line2d_72">
    <path d="M 762.734335 175.353064 
L 768.502955 175.353064 
L 778.991354 20.265702 
L 779.515774 175.353064 
L 790.004174 20.265702 
L 790.528594 175.353064 
L 801.016993 20.265702 
L 801.541413 175.353064 
L 812.029813 20.265702 
L 812.554233 175.353064 
L 823.042633 20.265702 
L 823.567053 175.353064 
L 834.055452 20.265702 
L 834.579872 175.353064 
L 845.068272 20.265702 
L 845.592692 175.353064 
L 856.081091 20.265702 
L 856.605511 175.353064 
L 867.093911 20.265702 
L 867.618331 175.353064 
L 878.10673 20.265702 
L 878.63115 175.353064 
L 889.11955 20.265702 
L 889.64397 175.353064 
L 900.13237 20.265702 
L 900.65679 175.353064 
L 911.145189 20.265702 
L 911.669609 175.353064 
L 922.158009 20.265702 
L 922.682429 175.353064 
L 933.170828 20.265702 
L 933.695248 175.353064 
L 944.183648 20.265702 
L 944.708068 175.353064 
L 955.196467 20.265702 
L 955.720887 175.353064 
L 966.209287 20.265702 
L 966.733707 175.353064 
L 977.746527 16.298518 
L 978.270947 171.38131 
L 988.234926 20.454662 
L 988.759346 175.353064 
L 999.247746 20.265702 
L 999.772166 175.353064 
L 1010.260565 20.265702 
L 1010.784985 175.353064 
L 1021.273385 20.265702 
L 1021.797805 175.353064 
L 1030.712945 175.353064 
L 1030.712945 175.353064 
" clip-path="url(#p6d702dada4)" style="fill: none; stroke: #008fd5; stroke-width: 4"/>
   </g>
   <g id="patch_15">
    <path d="M 749.335404 183.305791 
L 749.335404 8.345791 
" style="fill: none; stroke: #f0f0f0; stroke-width: 3; stroke-linejoin: miter; stroke-linecap: square"/>
   </g>
   <g id="patch_16">
    <path d="M 1044.111875 183.305791 
L 1044.111875 8.345791 
" style="fill: none; stroke: #f0f0f0; stroke-width: 3; stroke-linejoin: miter; stroke-linecap: square"/>
   </g>
   <g id="patch_17">
    <path d="M 749.335404 183.305791 
L 1044.111875 183.305791 
" style="fill: none; stroke: #f0f0f0; stroke-width: 3; stroke-linejoin: miter; stroke-linecap: square"/>
   </g>
   <g id="patch_18">
    <path d="M 749.335404 8.345791 
L 1044.111875 8.345791 
" style="fill: none; stroke: #f0f0f0; stroke-width: 3; stroke-linejoin: miter; stroke-linecap: square"/>
   </g>
   <g id="legend_3">
    <g id="patch_19">
     <path d="M 957.362187 40.095166 
L 1034.311875 40.095166 
Q 1037.111875 40.095166 1037.111875 37.295166 
L 1037.111875 18.145791 
Q 1037.111875 15.345791 1034.311875 15.345791 
L 957.362187 15.345791 
Q 954.562187 15.345791 954.562187 18.145791 
L 954.562187 37.295166 
Q 954.562187 40.095166 957.362187 40.095166 
z
" style="fill: #f0f0f0; opacity: 0.8; stroke: #cccccc; stroke-width: 0.5; stroke-linejoin: miter"/>
    </g>
    <g id="line2d_73">
     <path d="M 960.162187 26.683603 
L 974.162187 26.683603 
L 988.162187 26.683603 
" style="fill: none; stroke: #008fd5; stroke-width: 4"/>
    </g>
    <g id="text_36">
     <!-- sync -->
     <g transform="translate(999.362187 31.583603) scale(0.14 -0.14)">
      <defs>
       <path id="DejaVuSans-73" d="M 2834 3397 
L 2834 2853 
Q 2591 2978 2328 3040 
Q 2066 3103 1784 3103 
Q 1356 3103 1142 2972 
Q 928 2841 928 2578 
Q 928 2378 1081 2264 
Q 1234 2150 1697 2047 
L 1894 2003 
Q 2506 1872 2764 1633 
Q 3022 1394 3022 966 
Q 3022 478 2636 193 
Q 2250 -91 1575 -91 
Q 1294 -91 989 -36 
Q 684 19 347 128 
L 347 722 
Q 666 556 975 473 
Q 1284 391 1588 391 
Q 1994 391 2212 530 
Q 2431 669 2431 922 
Q 2431 1156 2273 1281 
Q 2116 1406 1581 1522 
L 1381 1569 
Q 847 1681 609 1914 
Q 372 2147 372 2553 
Q 372 3047 722 3315 
Q 1072 3584 1716 3584 
Q 2034 3584 2315 3537 
Q 2597 3491 2834 3397 
z
" transform="scale(0.015625)"/>
       <path id="DejaVuSans-6e" d="M 3513 2113 
L 3513 0 
L 2938 0 
L 2938 2094 
Q 2938 2591 2744 2837 
Q 2550 3084 2163 3084 
Q 1697 3084 1428 2787 
Q 1159 2491 1159 1978 
L 1159 0 
L 581 0 
L 581 3500 
L 1159 3500 
L 1159 2956 
Q 1366 3272 1645 3428 
Q 1925 3584 2291 3584 
Q 2894 3584 3203 3211 
Q 3513 2838 3513 2113 
z
" transform="scale(0.015625)"/>
      </defs>
      <use xlink:href="#DejaVuSans-73"/>
      <use xlink:href="#DejaVuSans-79" x="52.099609"/>
      <use xlink:href="#DejaVuSans-6e" x="111.279297"/>
      <use xlink:href="#DejaVuSans-63" x="174.658203"/>
     </g>
    </g>
   </g>
  </g>
 </g>
 <defs>
  <clipPath id="p081b1a40da">
   <rect x="41.871875" y="8.345791" width="294.776471" height="174.96"/>
  </clipPath>
  <clipPath id="p7e053ea8f3">
   <rect x="395.60364" y="8.345791" width="294.776471" height="174.96"/>
  </clipPath>
  <clipPath id="p6d702dada4">
   <rect x="749.335404" y="8.345791" width="294.776471" height="174.96"/>
  </clipPath>
 </defs>
</svg>
