<?xml version="1.0" encoding="utf-8" standalone="no"?>
<!DOCTYPE svg PUBLIC "-//W3C//DTD SVG 1.1//EN"
  "http://www.w3.org/Graphics/SVG/1.1/DTD/svg11.dtd">
<svg xmlns:xlink="http://www.w3.org/1999/xlink" width="1060.219375pt" height="207.130875pt" viewBox="0 0 1060.219375 207.130875" xmlns="http://www.w3.org/2000/svg" version="1.1">
 <metadata>
  <rdf:RDF xmlns:dc="http://purl.org/dc/elements/1.1/" xmlns:cc="http://creativecommons.org/ns#" xmlns:rdf="http://www.w3.org/1999/02/22-rdf-syntax-ns#">
   <cc:Work>
    <dc:type rdf:resource="http://purl.org/dc/dcmitype/StillImage"/>
    <dc:date>2023-01-19T14:54:30.907628</dc:date>
    <dc:format>image/svg+xml</dc:format>
    <dc:creator>
     <cc:Agent>
      <dc:title>Matplotlib v3.6.0, https://matplotlib.org/</dc:title>
     </cc:Agent>
    </dc:creator>
   </cc:Work>
  </rdf:RDF>
 </metadata>
 <defs>
  <style type="text/css">*{stroke-linejoin: round; stroke-linecap: butt}</style>
 </defs>
 <g id="figure_1">
  <g id="patch_1">
   <path d="M 0 207.130875 
L 1060.219375 207.130875 
L 1060.219375 0 
L 0 0 
L 0 207.130875 
z
" style="fill: none"/>
  </g>
  <g id="axes_1">
   <g id="patch_2">
    <path d="M 50.779375 182.8815 
L 345.555846 182.8815 
L 345.555846 7.9215 
L 50.779375 7.9215 
L 50.779375 182.8815 
z
" style="fill: none"/>
   </g>
   <g id="matplotlib.axis_1">
    <g id="xtick_1">
     <g id="line2d_1">
      <path d="M 64.178305 182.8815 
L 64.178305 7.9215 
" clip-path="url(#pc29785f9d4)" style="fill: none; stroke: #cbcbcb"/>
     </g>
     <g id="line2d_2"/>
     <g id="text_1">
      <!-- 0 -->
      <g transform="translate(59.724555 197.019312) scale(0.14 -0.14)">
       <defs>
        <path id="DejaVuSans-30" d="M 2034 4250 
Q 1547 4250 1301 3770 
Q 1056 3291 1056 2328 
Q 1056 1369 1301 889 
Q 1547 409 2034 409 
Q 2525 409 2770 889 
Q 3016 1369 3016 2328 
Q 3016 3291 2770 3770 
Q 2525 4250 2034 4250 
z
M 2034 4750 
Q 2819 4750 3233 4129 
Q 3647 3509 3647 2328 
Q 3647 1150 3233 529 
Q 2819 -91 2034 -91 
Q 1250 -91 836 529 
Q 422 1150 422 2328 
Q 422 3509 836 4129 
Q 1250 4750 2034 4750 
z
" transform="scale(0.015625)"/>
       </defs>
       <use xlink:href="#DejaVuSans-30"/>
      </g>
     </g>
    </g>
    <g id="xtick_2">
     <g id="line2d_3">
      <path d="M 116.620303 182.8815 
L 116.620303 7.9215 
" clip-path="url(#pc29785f9d4)" style="fill: none; stroke: #cbcbcb"/>
     </g>
     <g id="line2d_4"/>
     <g id="text_2">
      <!-- 100 -->
      <g transform="translate(103.259053 197.019312) scale(0.14 -0.14)">
       <defs>
        <path id="DejaVuSans-31" d="M 794 531 
L 1825 531 
L 1825 4091 
L 703 3866 
L 703 4441 
L 1819 4666 
L 2450 4666 
L 2450 531 
L 3481 531 
L 3481 0 
L 794 0 
L 794 531 
z
" transform="scale(0.015625)"/>
       </defs>
       <use xlink:href="#DejaVuSans-31"/>
       <use xlink:href="#DejaVuSans-30" x="63.623047"/>
       <use xlink:href="#DejaVuSans-30" x="127.246094"/>
      </g>
     </g>
    </g>
    <g id="xtick_3">
     <g id="line2d_5">
      <path d="M 169.062301 182.8815 
L 169.062301 7.9215 
" clip-path="url(#pc29785f9d4)" style="fill: none; stroke: #cbcbcb"/>
     </g>
     <g id="line2d_6"/>
     <g id="text_3">
      <!-- 200 -->
      <g transform="translate(155.701051 197.019312) scale(0.14 -0.14)">
       <defs>
        <path id="DejaVuSans-32" d="M 1228 531 
L 3431 531 
L 3431 0 
L 469 0 
L 469 531 
Q 828 903 1448 1529 
Q 2069 2156 2228 2338 
Q 2531 2678 2651 2914 
Q 2772 3150 2772 3378 
Q 2772 3750 2511 3984 
Q 2250 4219 1831 4219 
Q 1534 4219 1204 4116 
Q 875 4013 500 3803 
L 500 4441 
Q 881 4594 1212 4672 
Q 1544 4750 1819 4750 
Q 2544 4750 2975 4387 
Q 3406 4025 3406 3419 
Q 3406 3131 3298 2873 
Q 3191 2616 2906 2266 
Q 2828 2175 2409 1742 
Q 1991 1309 1228 531 
z
" transform="scale(0.015625)"/>
       </defs>
       <use xlink:href="#DejaVuSans-32"/>
       <use xlink:href="#DejaVuSans-30" x="63.623047"/>
       <use xlink:href="#DejaVuSans-30" x="127.246094"/>
      </g>
     </g>
    </g>
    <g id="xtick_4">
     <g id="line2d_7">
      <path d="M 221.504299 182.8815 
L 221.504299 7.9215 
" clip-path="url(#pc29785f9d4)" style="fill: none; stroke: #cbcbcb"/>
     </g>
     <g id="line2d_8"/>
     <g id="text_4">
      <!-- 300 -->
      <g transform="translate(208.143049 197.019312) scale(0.14 -0.14)">
       <defs>
        <path id="DejaVuSans-33" d="M 2597 2516 
Q 3050 2419 3304 2112 
Q 3559 1806 3559 1356 
Q 3559 666 3084 287 
Q 2609 -91 1734 -91 
Q 1441 -91 1130 -33 
Q 819 25 488 141 
L 488 750 
Q 750 597 1062 519 
Q 1375 441 1716 441 
Q 2309 441 2620 675 
Q 2931 909 2931 1356 
Q 2931 1769 2642 2001 
Q 2353 2234 1838 2234 
L 1294 2234 
L 1294 2753 
L 1863 2753 
Q 2328 2753 2575 2939 
Q 2822 3125 2822 3475 
Q 2822 3834 2567 4026 
Q 2313 4219 1838 4219 
Q 1578 4219 1281 4162 
Q 984 4106 628 3988 
L 628 4550 
Q 988 4650 1302 4700 
Q 1616 4750 1894 4750 
Q 2613 4750 3031 4423 
Q 3450 4097 3450 3541 
Q 3450 3153 3228 2886 
Q 3006 2619 2597 2516 
z
" transform="scale(0.015625)"/>
       </defs>
       <use xlink:href="#DejaVuSans-33"/>
       <use xlink:href="#DejaVuSans-30" x="63.623047"/>
       <use xlink:href="#DejaVuSans-30" x="127.246094"/>
      </g>
     </g>
    </g>
    <g id="xtick_5">
     <g id="line2d_9">
      <path d="M 273.946297 182.8815 
L 273.946297 7.9215 
" clip-path="url(#pc29785f9d4)" style="fill: none; stroke: #cbcbcb"/>
     </g>
     <g id="line2d_10"/>
     <g id="text_5">
      <!-- 400 -->
      <g transform="translate(260.585047 197.019312) scale(0.14 -0.14)">
       <defs>
        <path id="DejaVuSans-34" d="M 2419 4116 
L 825 1625 
L 2419 1625 
L 2419 4116 
z
M 2253 4666 
L 3047 4666 
L 3047 1625 
L 3713 1625 
L 3713 1100 
L 3047 1100 
L 3047 0 
L 2419 0 
L 2419 1100 
L 313 1100 
L 313 1709 
L 2253 4666 
z
" transform="scale(0.015625)"/>
       </defs>
       <use xlink:href="#DejaVuSans-34"/>
       <use xlink:href="#DejaVuSans-30" x="63.623047"/>
       <use xlink:href="#DejaVuSans-30" x="127.246094"/>
      </g>
     </g>
    </g>
    <g id="xtick_6">
     <g id="line2d_11">
      <path d="M 326.388295 182.8815 
L 326.388295 7.9215 
" clip-path="url(#pc29785f9d4)" style="fill: none; stroke: #cbcbcb"/>
     </g>
     <g id="line2d_12"/>
     <g id="text_6">
      <!-- 500 -->
      <g transform="translate(313.027045 197.019312) scale(0.14 -0.14)">
       <defs>
        <path id="DejaVuSans-35" d="M 691 4666 
L 3169 4666 
L 3169 4134 
L 1269 4134 
L 1269 2991 
Q 1406 3038 1543 3061 
Q 1681 3084 1819 3084 
Q 2600 3084 3056 2656 
Q 3513 2228 3513 1497 
Q 3513 744 3044 326 
Q 2575 -91 1722 -91 
Q 1428 -91 1123 -41 
Q 819 9 494 109 
L 494 744 
Q 775 591 1075 516 
Q 1375 441 1709 441 
Q 2250 441 2565 725 
Q 2881 1009 2881 1497 
Q 2881 1984 2565 2268 
Q 2250 2553 1709 2553 
Q 1456 2553 1204 2497 
Q 953 2441 691 2322 
L 691 4666 
z
" transform="scale(0.015625)"/>
       </defs>
       <use xlink:href="#DejaVuSans-35"/>
       <use xlink:href="#DejaVuSans-30" x="63.623047"/>
       <use xlink:href="#DejaVuSans-30" x="127.246094"/>
      </g>
     </g>
    </g>
   </g>
   <g id="matplotlib.axis_2">
    <g id="ytick_1">
     <g id="line2d_13">
      <path d="M 50.779375 174.928772 
L 345.555846 174.928772 
" clip-path="url(#pc29785f9d4)" style="fill: none; stroke: #cbcbcb"/>
     </g>
     <g id="line2d_14"/>
     <g id="text_7">
      <!-- 0.000 -->
      <g transform="translate(7.2 180.247678) scale(0.14 -0.14)">
       <defs>
        <path id="DejaVuSans-2e" d="M 684 794 
L 1344 794 
L 1344 0 
L 684 0 
L 684 794 
z
" transform="scale(0.015625)"/>
       </defs>
       <use xlink:href="#DejaVuSans-30"/>
       <use xlink:href="#DejaVuSans-2e" x="63.623047"/>
       <use xlink:href="#DejaVuSans-30" x="95.410156"/>
       <use xlink:href="#DejaVuSans-30" x="159.033203"/>
       <use xlink:href="#DejaVuSans-30" x="222.65625"/>
      </g>
     </g>
    </g>
    <g id="ytick_2">
     <g id="line2d_15">
      <path d="M 50.779375 143.487759 
L 345.555846 143.487759 
" clip-path="url(#pc29785f9d4)" style="fill: none; stroke: #cbcbcb"/>
     </g>
     <g id="line2d_16"/>
     <g id="text_8">
      <!-- 0.025 -->
      <g transform="translate(7.2 148.806666) scale(0.14 -0.14)">
       <use xlink:href="#DejaVuSans-30"/>
       <use xlink:href="#DejaVuSans-2e" x="63.623047"/>
       <use xlink:href="#DejaVuSans-30" x="95.410156"/>
       <use xlink:href="#DejaVuSans-32" x="159.033203"/>
       <use xlink:href="#DejaVuSans-35" x="222.65625"/>
      </g>
     </g>
    </g>
    <g id="ytick_3">
     <g id="line2d_17">
      <path d="M 50.779375 112.046746 
L 345.555846 112.046746 
" clip-path="url(#pc29785f9d4)" style="fill: none; stroke: #cbcbcb"/>
     </g>
     <g id="line2d_18"/>
     <g id="text_9">
      <!-- 0.050 -->
      <g transform="translate(7.2 117.365653) scale(0.14 -0.14)">
       <use xlink:href="#DejaVuSans-30"/>
       <use xlink:href="#DejaVuSans-2e" x="63.623047"/>
       <use xlink:href="#DejaVuSans-30" x="95.410156"/>
       <use xlink:href="#DejaVuSans-35" x="159.033203"/>
       <use xlink:href="#DejaVuSans-30" x="222.65625"/>
      </g>
     </g>
    </g>
    <g id="ytick_4">
     <g id="line2d_19">
      <path d="M 50.779375 80.605733 
L 345.555846 80.605733 
" clip-path="url(#pc29785f9d4)" style="fill: none; stroke: #cbcbcb"/>
     </g>
     <g id="line2d_20"/>
     <g id="text_10">
      <!-- 0.075 -->
      <g transform="translate(7.2 85.92464) scale(0.14 -0.14)">
       <defs>
        <path id="DejaVuSans-37" d="M 525 4666 
L 3525 4666 
L 3525 4397 
L 1831 0 
L 1172 0 
L 2766 4134 
L 525 4134 
L 525 4666 
z
" transform="scale(0.015625)"/>
       </defs>
       <use xlink:href="#DejaVuSans-30"/>
       <use xlink:href="#DejaVuSans-2e" x="63.623047"/>
       <use xlink:href="#DejaVuSans-30" x="95.410156"/>
       <use xlink:href="#DejaVuSans-37" x="159.033203"/>
       <use xlink:href="#DejaVuSans-35" x="222.65625"/>
      </g>
     </g>
    </g>
    <g id="ytick_5">
     <g id="line2d_21">
      <path d="M 50.779375 49.16472 
L 345.555846 49.16472 
" clip-path="url(#pc29785f9d4)" style="fill: none; stroke: #cbcbcb"/>
     </g>
     <g id="line2d_22"/>
     <g id="text_11">
      <!-- 0.100 -->
      <g transform="translate(7.2 54.483627) scale(0.14 -0.14)">
       <use xlink:href="#DejaVuSans-30"/>
       <use xlink:href="#DejaVuSans-2e" x="63.623047"/>
       <use xlink:href="#DejaVuSans-31" x="95.410156"/>
       <use xlink:href="#DejaVuSans-30" x="159.033203"/>
       <use xlink:href="#DejaVuSans-30" x="222.65625"/>
      </g>
     </g>
    </g>
    <g id="ytick_6">
     <g id="line2d_23">
      <path d="M 50.779375 17.723707 
L 345.555846 17.723707 
" clip-path="url(#pc29785f9d4)" style="fill: none; stroke: #cbcbcb"/>
     </g>
     <g id="line2d_24"/>
     <g id="text_12">
      <!-- 0.125 -->
      <g transform="translate(7.2 23.042614) scale(0.14 -0.14)">
       <use xlink:href="#DejaVuSans-30"/>
       <use xlink:href="#DejaVuSans-2e" x="63.623047"/>
       <use xlink:href="#DejaVuSans-31" x="95.410156"/>
       <use xlink:href="#DejaVuSans-32" x="159.033203"/>
       <use xlink:href="#DejaVuSans-35" x="222.65625"/>
      </g>
     </g>
    </g>
   </g>
   <g id="line2d_25">
    <path d="M 64.178305 15.874227 
L 197.9054 15.874227 
L 198.42982 174.928772 
L 332.156915 174.928772 
L 332.156915 174.928772 
" clip-path="url(#pc29785f9d4)" style="fill: none; stroke: #008fd5; stroke-width: 4"/>
   </g>
   <g id="patch_3">
    <path d="M 50.779375 182.8815 
L 50.779375 7.9215 
" style="fill: none; stroke: #f0f0f0; stroke-width: 3; stroke-linejoin: miter; stroke-linecap: square"/>
   </g>
   <g id="patch_4">
    <path d="M 345.555846 182.8815 
L 345.555846 7.9215 
" style="fill: none; stroke: #f0f0f0; stroke-width: 3; stroke-linejoin: miter; stroke-linecap: square"/>
   </g>
   <g id="patch_5">
    <path d="M 50.779375 182.8815 
L 345.555846 182.8815 
" style="fill: none; stroke: #f0f0f0; stroke-width: 3; stroke-linejoin: miter; stroke-linecap: square"/>
   </g>
   <g id="patch_6">
    <path d="M 50.779375 7.9215 
L 345.555846 7.9215 
" style="fill: none; stroke: #f0f0f0; stroke-width: 3; stroke-linejoin: miter; stroke-linecap: square"/>
   </g>
   <g id="legend_1">
    <g id="patch_7">
     <path d="M 227.789596 39.670875 
L 335.755846 39.670875 
Q 338.555846 39.670875 338.555846 36.870875 
L 338.555846 17.7215 
Q 338.555846 14.9215 335.755846 14.9215 
L 227.789596 14.9215 
Q 224.989596 14.9215 224.989596 17.7215 
L 224.989596 36.870875 
Q 224.989596 39.670875 227.789596 39.670875 
z
" style="fill: #f0f0f0; opacity: 0.8; stroke: #cccccc; stroke-width: 0.5; stroke-linejoin: miter"/>
    </g>
    <g id="line2d_26">
     <path d="M 230.589596 26.259312 
L 244.589596 26.259312 
L 258.589596 26.259312 
" style="fill: none; stroke: #008fd5; stroke-width: 4"/>
    </g>
    <g id="text_13">
     <!-- accuracy -->
     <g transform="translate(269.789596 31.159312) scale(0.14 -0.14)">
      <defs>
       <path id="DejaVuSans-61" d="M 2194 1759 
Q 1497 1759 1228 1600 
Q 959 1441 959 1056 
Q 959 750 1161 570 
Q 1363 391 1709 391 
Q 2188 391 2477 730 
Q 2766 1069 2766 1631 
L 2766 1759 
L 2194 1759 
z
M 3341 1997 
L 3341 0 
L 2766 0 
L 2766 531 
Q 2569 213 2275 61 
Q 1981 -91 1556 -91 
Q 1019 -91 701 211 
Q 384 513 384 1019 
Q 384 1609 779 1909 
Q 1175 2209 1959 2209 
L 2766 2209 
L 2766 2266 
Q 2766 2663 2505 2880 
Q 2244 3097 1772 3097 
Q 1472 3097 1187 3025 
Q 903 2953 641 2809 
L 641 3341 
Q 956 3463 1253 3523 
Q 1550 3584 1831 3584 
Q 2591 3584 2966 3190 
Q 3341 2797 3341 1997 
z
" transform="scale(0.015625)"/>
       <path id="DejaVuSans-63" d="M 3122 3366 
L 3122 2828 
Q 2878 2963 2633 3030 
Q 2388 3097 2138 3097 
Q 1578 3097 1268 2742 
Q 959 2388 959 1747 
Q 959 1106 1268 751 
Q 1578 397 2138 397 
Q 2388 397 2633 464 
Q 2878 531 3122 666 
L 3122 134 
Q 2881 22 2623 -34 
Q 2366 -91 2075 -91 
Q 1284 -91 818 406 
Q 353 903 353 1747 
Q 353 2603 823 3093 
Q 1294 3584 2113 3584 
Q 2378 3584 2631 3529 
Q 2884 3475 3122 3366 
z
" transform="scale(0.015625)"/>
       <path id="DejaVuSans-75" d="M 544 1381 
L 544 3500 
L 1119 3500 
L 1119 1403 
Q 1119 906 1312 657 
Q 1506 409 1894 409 
Q 2359 409 2629 706 
Q 2900 1003 2900 1516 
L 2900 3500 
L 3475 3500 
L 3475 0 
L 2900 0 
L 2900 538 
Q 2691 219 2414 64 
Q 2138 -91 1772 -91 
Q 1169 -91 856 284 
Q 544 659 544 1381 
z
M 1991 3584 
L 1991 3584 
z
" transform="scale(0.015625)"/>
       <path id="DejaVuSans-72" d="M 2631 2963 
Q 2534 3019 2420 3045 
Q 2306 3072 2169 3072 
Q 1681 3072 1420 2755 
Q 1159 2438 1159 1844 
L 1159 0 
L 581 0 
L 581 3500 
L 1159 3500 
L 1159 2956 
Q 1341 3275 1631 3429 
Q 1922 3584 2338 3584 
Q 2397 3584 2469 3576 
Q 2541 3569 2628 3553 
L 2631 2963 
z
" transform="scale(0.015625)"/>
       <path id="DejaVuSans-79" d="M 2059 -325 
Q 1816 -950 1584 -1140 
Q 1353 -1331 966 -1331 
L 506 -1331 
L 506 -850 
L 844 -850 
Q 1081 -850 1212 -737 
Q 1344 -625 1503 -206 
L 1606 56 
L 191 3500 
L 800 3500 
L 1894 763 
L 2988 3500 
L 3597 3500 
L 2059 -325 
z
" transform="scale(0.015625)"/>
      </defs>
      <use xlink:href="#DejaVuSans-61"/>
      <use xlink:href="#DejaVuSans-63" x="61.279297"/>
      <use xlink:href="#DejaVuSans-63" x="116.259766"/>
      <use xlink:href="#DejaVuSans-75" x="171.240234"/>
      <use xlink:href="#DejaVuSans-72" x="234.619141"/>
      <use xlink:href="#DejaVuSans-61" x="275.732422"/>
      <use xlink:href="#DejaVuSans-63" x="337.011719"/>
      <use xlink:href="#DejaVuSans-79" x="391.992188"/>
     </g>
    </g>
   </g>
  </g>
  <g id="axes_2">
   <g id="patch_8">
    <path d="M 404.51114 182.8815 
L 699.28761 182.8815 
L 699.28761 7.9215 
L 404.51114 7.9215 
L 404.51114 182.8815 
z
" style="fill: none"/>
   </g>
   <g id="matplotlib.axis_3">
    <g id="xtick_7">
     <g id="line2d_27">
      <path d="M 417.91007 182.8815 
L 417.91007 7.9215 
" clip-path="url(#p4cb8a3c922)" style="fill: none; stroke: #cbcbcb"/>
     </g>
     <g id="line2d_28"/>
     <g id="text_14">
      <!-- 0 -->
      <g transform="translate(413.45632 197.019312) scale(0.14 -0.14)">
       <use xlink:href="#DejaVuSans-30"/>
      </g>
     </g>
    </g>
    <g id="xtick_8">
     <g id="line2d_29">
      <path d="M 470.352068 182.8815 
L 470.352068 7.9215 
" clip-path="url(#p4cb8a3c922)" style="fill: none; stroke: #cbcbcb"/>
     </g>
     <g id="line2d_30"/>
     <g id="text_15">
      <!-- 100 -->
      <g transform="translate(456.990818 197.019312) scale(0.14 -0.14)">
       <use xlink:href="#DejaVuSans-31"/>
       <use xlink:href="#DejaVuSans-30" x="63.623047"/>
       <use xlink:href="#DejaVuSans-30" x="127.246094"/>
      </g>
     </g>
    </g>
    <g id="xtick_9">
     <g id="line2d_31">
      <path d="M 522.794066 182.8815 
L 522.794066 7.9215 
" clip-path="url(#p4cb8a3c922)" style="fill: none; stroke: #cbcbcb"/>
     </g>
     <g id="line2d_32"/>
     <g id="text_16">
      <!-- 200 -->
      <g transform="translate(509.432816 197.019312) scale(0.14 -0.14)">
       <use xlink:href="#DejaVuSans-32"/>
       <use xlink:href="#DejaVuSans-30" x="63.623047"/>
       <use xlink:href="#DejaVuSans-30" x="127.246094"/>
      </g>
     </g>
    </g>
    <g id="xtick_10">
     <g id="line2d_33">
      <path d="M 575.236064 182.8815 
L 575.236064 7.9215 
" clip-path="url(#p4cb8a3c922)" style="fill: none; stroke: #cbcbcb"/>
     </g>
     <g id="line2d_34"/>
     <g id="text_17">
      <!-- 300 -->
      <g transform="translate(561.874814 197.019312) scale(0.14 -0.14)">
       <use xlink:href="#DejaVuSans-33"/>
       <use xlink:href="#DejaVuSans-30" x="63.623047"/>
       <use xlink:href="#DejaVuSans-30" x="127.246094"/>
      </g>
     </g>
    </g>
    <g id="xtick_11">
     <g id="line2d_35">
      <path d="M 627.678062 182.8815 
L 627.678062 7.9215 
" clip-path="url(#p4cb8a3c922)" style="fill: none; stroke: #cbcbcb"/>
     </g>
     <g id="line2d_36"/>
     <g id="text_18">
      <!-- 400 -->
      <g transform="translate(614.316812 197.019312) scale(0.14 -0.14)">
       <use xlink:href="#DejaVuSans-34"/>
       <use xlink:href="#DejaVuSans-30" x="63.623047"/>
       <use xlink:href="#DejaVuSans-30" x="127.246094"/>
      </g>
     </g>
    </g>
    <g id="xtick_12">
     <g id="line2d_37">
      <path d="M 680.12006 182.8815 
L 680.12006 7.9215 
" clip-path="url(#p4cb8a3c922)" style="fill: none; stroke: #cbcbcb"/>
     </g>
     <g id="line2d_38"/>
     <g id="text_19">
      <!-- 500 -->
      <g transform="translate(666.75881 197.019312) scale(0.14 -0.14)">
       <use xlink:href="#DejaVuSans-35"/>
       <use xlink:href="#DejaVuSans-30" x="63.623047"/>
       <use xlink:href="#DejaVuSans-30" x="127.246094"/>
      </g>
     </g>
    </g>
   </g>
   <g id="matplotlib.axis_4">
    <g id="ytick_7">
     <g id="line2d_39">
      <path d="M 404.51114 179.619448 
L 699.28761 179.619448 
" clip-path="url(#p4cb8a3c922)" style="fill: none; stroke: #cbcbcb"/>
     </g>
     <g id="line2d_40"/>
     <g id="text_20">
      <!-- 0 -->
      <g transform="translate(392.10364 184.938354) scale(0.14 -0.14)">
       <use xlink:href="#DejaVuSans-30"/>
      </g>
     </g>
    </g>
    <g id="ytick_8">
     <g id="line2d_41">
      <path d="M 404.51114 146.19934 
L 699.28761 146.19934 
" clip-path="url(#p4cb8a3c922)" style="fill: none; stroke: #cbcbcb"/>
     </g>
     <g id="line2d_42"/>
     <g id="text_21">
      <!-- 25 -->
      <g transform="translate(383.19614 151.518246) scale(0.14 -0.14)">
       <use xlink:href="#DejaVuSans-32"/>
       <use xlink:href="#DejaVuSans-35" x="63.623047"/>
      </g>
     </g>
    </g>
    <g id="ytick_9">
     <g id="line2d_43">
      <path d="M 404.51114 112.779231 
L 699.28761 112.779231 
" clip-path="url(#p4cb8a3c922)" style="fill: none; stroke: #cbcbcb"/>
     </g>
     <g id="line2d_44"/>
     <g id="text_22">
      <!-- 50 -->
      <g transform="translate(383.19614 118.098137) scale(0.14 -0.14)">
       <use xlink:href="#DejaVuSans-35"/>
       <use xlink:href="#DejaVuSans-30" x="63.623047"/>
      </g>
     </g>
    </g>
    <g id="ytick_10">
     <g id="line2d_45">
      <path d="M 404.51114 79.359123 
L 699.28761 79.359123 
" clip-path="url(#p4cb8a3c922)" style="fill: none; stroke: #cbcbcb"/>
     </g>
     <g id="line2d_46"/>
     <g id="text_23">
      <!-- 75 -->
      <g transform="translate(383.19614 84.678029) scale(0.14 -0.14)">
       <use xlink:href="#DejaVuSans-37"/>
       <use xlink:href="#DejaVuSans-35" x="63.623047"/>
      </g>
     </g>
    </g>
    <g id="ytick_11">
     <g id="line2d_47">
      <path d="M 404.51114 45.939015 
L 699.28761 45.939015 
" clip-path="url(#p4cb8a3c922)" style="fill: none; stroke: #cbcbcb"/>
     </g>
     <g id="line2d_48"/>
     <g id="text_24">
      <!-- 100 -->
      <g transform="translate(374.28864 51.257921) scale(0.14 -0.14)">
       <use xlink:href="#DejaVuSans-31"/>
       <use xlink:href="#DejaVuSans-30" x="63.623047"/>
       <use xlink:href="#DejaVuSans-30" x="127.246094"/>
      </g>
     </g>
    </g>
    <g id="ytick_12">
     <g id="line2d_49">
      <path d="M 404.51114 12.518906 
L 699.28761 12.518906 
" clip-path="url(#p4cb8a3c922)" style="fill: none; stroke: #cbcbcb"/>
     </g>
     <g id="line2d_50"/>
     <g id="text_25">
      <!-- 125 -->
      <g transform="translate(374.28864 17.837813) scale(0.14 -0.14)">
       <use xlink:href="#DejaVuSans-31"/>
       <use xlink:href="#DejaVuSans-32" x="63.623047"/>
       <use xlink:href="#DejaVuSans-35" x="127.246094"/>
      </g>
     </g>
    </g>
   </g>
   <g id="line2d_51">
    <path d="M 417.91007 59.538371 
L 418.43449 100.833378 
L 418.95891 106.73254 
L 419.48333 144.286783 
L 420.00775 130.329867 
L 421.05659 137.384462 
L 421.58101 145.078313 
L 422.10543 144.497737 
L 422.62985 108.674865 
L 423.15427 115.303154 
L 423.67869 110.059345 
L 424.20311 132.538702 
L 424.72753 141.192468 
L 425.25195 119.422472 
L 425.77637 92.624493 
L 426.30079 116.660249 
L 426.82521 134.240692 
L 427.34963 114.060318 
L 427.87405 142.408029 
L 428.39847 135.36012 
L 428.92289 158.534114 
L 429.44731 167.411187 
L 429.97173 161.36954 
L 430.49615 139.443456 
L 431.02057 128.593501 
L 431.54499 141.194462 
L 432.06941 140.443772 
L 432.59383 144.55364 
L 433.11825 139.063856 
L 433.64267 142.900335 
L 434.16709 140.527447 
L 434.69151 166.906695 
L 435.21593 159.478255 
L 435.740349 138.618713 
L 436.264769 137.803019 
L 436.789189 123.171225 
L 437.313609 153.508168 
L 437.838029 157.600068 
L 438.362449 154.085906 
L 438.886869 152.671153 
L 439.411289 159.654586 
L 439.935709 164.688572 
L 440.460129 165.068827 
L 440.984549 170.356833 
L 441.508969 157.413396 
L 442.033389 159.683247 
L 442.557809 162.51409 
L 443.082229 161.745435 
L 443.606649 151.25076 
L 444.131069 163.940221 
L 444.655489 164.711418 
L 445.179909 164.693705 
L 445.704329 173.202331 
L 446.228749 155.651076 
L 446.753169 127.58304 
L 447.277589 152.478012 
L 447.802009 159.719251 
L 448.326429 159.681688 
L 448.850849 154.385262 
L 449.375269 161.997586 
L 449.899689 165.886716 
L 450.424109 167.610125 
L 451.472949 163.658056 
L 451.997369 157.87946 
L 452.521789 162.632168 
L 453.046209 166.103045 
L 453.570629 161.492911 
L 454.095049 167.44681 
L 454.619469 160.670909 
L 455.143889 168.484638 
L 455.668309 160.334667 
L 456.192729 174.49373 
L 457.241569 161.973505 
L 457.765989 165.355673 
L 458.290409 157.361406 
L 458.814829 159.09851 
L 459.339249 168.065909 
L 459.863669 169.13582 
L 460.388089 164.860436 
L 460.912509 169.470777 
L 461.436929 170.446415 
L 461.961348 168.462535 
L 462.485768 157.851793 
L 463.010188 163.073831 
L 463.534608 161.649986 
L 464.059028 168.135163 
L 464.583448 161.073552 
L 465.107868 158.020423 
L 465.632288 169.324407 
L 466.156708 170.486641 
L 466.681128 170.202044 
L 467.205548 162.782985 
L 467.729968 165.935937 
L 468.254388 155.680205 
L 468.778808 156.198352 
L 469.303228 155.401512 
L 469.827648 167.628036 
L 470.352068 170.091936 
L 470.876488 167.714402 
L 471.400908 171.945926 
L 471.925328 169.209162 
L 472.449748 169.567778 
L 472.974168 162.028764 
L 473.498588 156.441856 
L 474.023008 168.890414 
L 474.547428 169.35332 
L 475.071848 164.282505 
L 475.596268 147.732679 
L 476.120688 168.851047 
L 476.645108 164.523178 
L 477.169528 171.258885 
L 477.693948 164.52907 
L 478.218368 164.242349 
L 478.742788 143.224473 
L 479.267208 161.303536 
L 479.791628 167.806933 
L 480.316048 166.268035 
L 480.840468 171.444266 
L 481.364888 169.619655 
L 481.889308 168.580228 
L 482.413728 172.98487 
L 482.938148 172.368874 
L 483.462568 167.134441 
L 483.986988 164.274989 
L 484.511408 165.196927 
L 485.035828 164.786497 
L 485.560248 165.642321 
L 486.084668 163.195793 
L 486.609088 166.534163 
L 487.133508 163.554235 
L 487.657927 174.112965 
L 488.182347 167.739968 
L 488.706767 167.720157 
L 489.231187 153.489157 
L 489.755607 163.980361 
L 490.280027 168.353769 
L 490.804447 164.466565 
L 491.328867 168.55658 
L 491.853287 161.358171 
L 492.377707 167.34811 
L 492.902127 170.498887 
L 493.426547 172.188576 
L 493.950967 168.902791 
L 494.475387 156.836754 
L 494.999807 166.487543 
L 495.524227 165.263984 
L 496.573067 170.609407 
L 497.097487 163.40134 
L 497.621907 173.002395 
L 498.146327 171.404047 
L 499.195167 162.656701 
L 499.719587 153.202246 
L 500.244007 161.862986 
L 500.768427 165.698194 
L 501.292847 172.516055 
L 501.817267 167.148328 
L 502.341687 163.826735 
L 502.866107 169.789936 
L 503.390527 172.840958 
L 503.914947 170.312924 
L 504.439367 169.743859 
L 504.963787 168.271083 
L 505.488207 163.148407 
L 506.012627 168.893085 
L 506.537047 170.770484 
L 507.585887 165.761623 
L 508.110307 172.188564 
L 508.634727 166.311774 
L 509.159147 172.638524 
L 509.683567 163.280963 
L 510.207987 158.477235 
L 510.732407 161.293912 
L 511.256827 167.844422 
L 511.781247 151.419893 
L 512.305667 166.353755 
L 512.830087 167.988432 
L 513.354506 167.783693 
L 513.878926 168.662548 
L 514.403346 168.853762 
L 515.452186 160.511843 
L 515.976606 158.414486 
L 516.501026 164.592537 
L 517.025446 166.181895 
L 517.549866 161.289349 
L 518.074286 160.735192 
L 518.598706 163.330798 
L 519.123126 164.069556 
L 519.647546 173.985575 
L 520.171966 165.420773 
L 520.696386 163.043113 
L 521.220806 161.417691 
L 521.745226 162.408403 
L 522.269646 157.003949 
L 522.794066 170.323124 
L 523.318486 170.606042 
L 523.842906 170.047116 
L 524.367326 170.51264 
L 524.891746 170.67903 
L 525.416166 170.549632 
L 525.940586 166.118477 
L 526.465006 163.159555 
L 527.513846 171.481468 
L 528.038266 163.449787 
L 528.562686 165.534224 
L 529.087106 163.194209 
L 529.611526 172.522016 
L 530.135946 165.913682 
L 530.660366 167.083004 
L 531.184786 164.144228 
L 531.709206 152.428899 
L 532.233626 161.514379 
L 532.758046 159.289401 
L 533.282466 162.475949 
L 533.806886 162.457617 
L 534.331306 166.739212 
L 534.855726 172.157114 
L 535.380146 167.314006 
L 535.904566 170.985743 
L 536.428986 159.491678 
L 536.953406 154.593569 
L 537.477826 170.089433 
L 538.526666 166.920634 
L 539.051085 164.207377 
L 539.575505 172.038821 
L 540.099925 165.890783 
L 540.624345 168.343759 
L 541.148765 167.137803 
L 541.673185 165.329521 
L 542.197605 160.982782 
L 542.722025 160.547584 
L 543.770865 169.340349 
L 544.295285 169.107725 
L 544.819705 173.252797 
L 545.344125 172.573253 
L 545.868545 174.928772 
L 546.392965 165.571274 
L 546.917385 166.193651 
L 547.441805 162.218883 
L 547.966225 160.408753 
L 549.015065 167.684108 
L 549.539485 165.528099 
L 550.063905 171.771185 
L 550.588325 174.531732 
L 551.112745 171.956991 
L 551.637165 170.550791 
L 552.161585 106.760797 
L 552.686005 140.509453 
L 553.210425 146.337531 
L 553.734845 144.370612 
L 554.783685 161.031311 
L 555.308105 160.103529 
L 555.832525 151.897859 
L 556.356945 165.22228 
L 556.881365 157.969086 
L 557.405785 160.450867 
L 557.930205 153.006111 
L 558.454625 162.993921 
L 558.979045 164.241526 
L 559.503465 154.174436 
L 560.027885 150.174548 
L 560.552305 162.673192 
L 561.076725 165.096633 
L 561.601145 154.243238 
L 562.125565 157.175058 
L 562.649985 154.021038 
L 563.174405 155.155509 
L 564.223245 161.926019 
L 564.747665 157.368115 
L 565.272084 158.596539 
L 565.796504 154.660232 
L 566.320924 159.715534 
L 566.845344 165.978321 
L 567.369764 157.864942 
L 568.418604 147.967055 
L 568.943024 158.123627 
L 569.467444 161.653772 
L 569.991864 163.720528 
L 570.516284 154.881122 
L 571.040704 162.934235 
L 571.565124 163.317499 
L 572.089544 158.503763 
L 572.613964 160.480767 
L 573.138384 140.796405 
L 573.662804 151.828613 
L 575.236064 159.78113 
L 575.760484 160.51126 
L 576.284904 160.127962 
L 576.809324 160.437724 
L 577.333744 157.560698 
L 577.858164 151.492778 
L 578.382584 152.302553 
L 578.907004 152.330022 
L 579.431424 167.382403 
L 579.955844 162.616366 
L 580.480264 159.474832 
L 581.004684 149.453935 
L 581.529104 150.830722 
L 582.053524 162.047195 
L 582.577944 166.119769 
L 583.102364 156.645107 
L 583.626784 149.371736 
L 584.151204 147.895845 
L 584.675624 144.550331 
L 585.200044 152.431841 
L 585.724464 147.535144 
L 586.248884 159.050042 
L 586.773304 160.238274 
L 587.297724 158.809368 
L 587.822144 163.260343 
L 588.346564 156.895047 
L 588.870984 151.900294 
L 589.395404 150.300279 
L 589.919824 152.164301 
L 590.444244 161.395468 
L 590.968663 160.694069 
L 591.493083 138.729431 
L 592.017503 130.195689 
L 592.541923 146.223863 
L 593.066343 157.614813 
L 593.590763 128.865361 
L 594.115183 142.280169 
L 594.639603 141.381604 
L 595.164023 151.922158 
L 595.688443 137.226217 
L 596.212863 152.904236 
L 596.737283 158.493272 
L 597.261703 161.492328 
L 597.786123 161.496405 
L 598.310543 165.271202 
L 598.834963 154.536781 
L 599.359383 150.022381 
L 599.883803 150.459758 
L 600.408223 157.23359 
L 600.932643 152.421945 
L 601.457063 150.867359 
L 601.981483 145.107005 
L 602.505903 144.150616 
L 603.030323 156.737933 
L 603.554743 160.683074 
L 604.079163 135.360706 
L 604.603583 137.556729 
L 605.128003 150.137697 
L 605.652423 149.634024 
L 606.176843 153.612657 
L 606.701263 161.256657 
L 607.225683 157.582536 
L 607.750103 151.523948 
L 608.274523 159.483779 
L 608.798943 150.683453 
L 609.323363 155.477601 
L 610.372203 145.091386 
L 610.896623 148.953077 
L 611.421043 154.793077 
L 611.945463 146.480891 
L 612.469883 145.829075 
L 612.994303 156.134188 
L 613.518723 161.441813 
L 614.043143 162.148234 
L 614.567563 146.257798 
L 615.091983 140.872153 
L 615.616403 146.583623 
L 616.140823 148.077966 
L 616.665242 144.027361 
L 617.189662 144.753602 
L 617.714082 153.305437 
L 618.238502 158.733772 
L 618.762922 159.2372 
L 619.287342 158.836217 
L 619.811762 148.733706 
L 620.336182 149.501931 
L 620.860602 145.976295 
L 621.385022 161.112176 
L 621.909442 151.696424 
L 622.433862 144.797654 
L 622.958282 143.044019 
L 623.482702 161.376098 
L 624.007122 161.672874 
L 624.531542 160.50115 
L 625.055962 153.068384 
L 625.580382 141.178439 
L 626.104802 153.465385 
L 626.629222 147.034312 
L 627.153642 136.031821 
L 627.678062 152.416096 
L 628.202482 160.705893 
L 628.726902 160.698047 
L 629.251322 162.235363 
L 629.775742 151.325807 
L 630.300162 150.423029 
L 630.824582 156.682117 
L 631.349002 156.730399 
L 631.873422 152.467984 
L 632.397842 146.516445 
L 632.922262 153.072749 
L 633.446682 151.27292 
L 633.971102 159.15962 
L 634.495522 158.030612 
L 635.019942 155.783125 
L 635.544362 146.546368 
L 636.593202 148.177804 
L 637.117622 146.21292 
L 637.642042 145.864794 
L 638.166462 156.598248 
L 638.690882 161.661951 
L 639.215302 158.919836 
L 639.739722 155.295276 
L 640.264142 147.008317 
L 640.788562 148.264083 
L 641.312982 146.704076 
L 641.837402 154.307706 
L 642.361821 156.303142 
L 642.886241 141.319856 
L 643.410661 141.153026 
L 643.935081 160.340758 
L 644.459501 158.946499 
L 644.983921 152.889098 
L 645.508341 148.858302 
L 646.032761 149.98477 
L 646.557181 155.48124 
L 647.081601 157.988689 
L 647.606021 147.844761 
L 648.130441 150.630938 
L 648.654861 156.00475 
L 649.179281 162.798727 
L 649.703701 157.391208 
L 650.228121 159.339218 
L 650.752541 154.808251 
L 651.276961 142.985183 
L 651.801381 153.183503 
L 652.325801 160.285863 
L 652.850221 155.274817 
L 653.374641 156.127449 
L 653.899061 135.860427 
L 654.423481 154.82872 
L 654.947901 160.042747 
L 655.472321 153.522691 
L 655.996741 143.05587 
L 656.521161 145.798975 
L 657.045581 139.035518 
L 657.570001 146.204584 
L 658.618841 152.929912 
L 659.143261 150.705526 
L 659.667681 159.193542 
L 660.192101 159.148668 
L 660.716521 156.610469 
L 661.240941 133.694005 
L 661.765361 153.482066 
L 662.289781 143.192642 
L 662.814201 145.897005 
L 663.338621 140.004717 
L 663.863041 149.764081 
L 664.387461 134.675338 
L 664.911881 147.287584 
L 665.436301 152.150812 
L 665.960721 165.602699 
L 666.485141 137.465758 
L 667.009561 150.744744 
L 667.533981 135.106659 
L 668.058401 134.907605 
L 668.58282 105.001723 
L 669.10724 96.286737 
L 669.63166 90.800604 
L 670.15608 139.949485 
L 670.6805 135.998302 
L 671.20492 104.906046 
L 672.25376 20.209407 
L 672.77818 81.058288 
L 673.3026 23.076552 
L 673.82702 63.801628 
L 674.87586 42.9976 
L 675.40028 58.156171 
L 675.9247 39.918836 
L 676.44912 65.295783 
L 676.97354 45.066387 
L 677.49796 52.841968 
L 678.02238 71.227097 
L 678.5468 41.897586 
L 679.07122 23.432844 
L 679.59564 58.25192 
L 680.12006 47.732867 
L 680.64448 29.106266 
L 681.1689 67.233237 
L 681.69332 63.509732 
L 682.21774 33.398835 
L 682.74216 15.874227 
L 683.26658 20.940043 
L 683.791 37.951815 
L 684.31542 70.424527 
L 684.83984 64.0918 
L 685.88868 17.729844 
L 685.88868 17.729844 
" clip-path="url(#p4cb8a3c922)" style="fill: none; stroke: #008fd5; stroke-opacity: 0.4; stroke-width: 4"/>
   </g>
   <g id="line2d_52">
    <path d="M 417.91007 59.538371 
L 418.95891 63.859589 
L 419.48333 67.880956 
L 422.10543 83.899782 
L 423.67869 87.817405 
L 424.72753 92.610428 
L 425.25195 93.951037 
L 425.77637 93.884713 
L 426.30079 95.023493 
L 426.82521 96.984354 
L 427.34963 97.838154 
L 428.92289 104.666466 
L 429.97173 110.482002 
L 430.49615 111.930072 
L 431.02057 112.763244 
L 432.59383 116.950549 
L 434.16709 120.359873 
L 435.21593 124.52677 
L 436.264769 125.859948 
L 436.789189 125.72551 
L 440.460129 135.638925 
L 440.984549 137.374819 
L 442.557809 140.595673 
L 443.082229 141.653162 
L 443.606649 142.133044 
L 445.704329 146.711837 
L 446.228749 147.158798 
L 446.753169 146.18001 
L 447.277589 146.494909 
L 448.326429 147.782404 
L 448.850849 148.112548 
L 449.899689 149.660799 
L 450.948529 151.31469 
L 451.472949 151.931858 
L 451.997369 152.229238 
L 453.570629 153.820859 
L 454.095049 154.502158 
L 454.619469 154.810596 
L 455.143889 155.4943 
L 455.668309 155.736317 
L 456.192729 156.674187 
L 456.717149 157.222853 
L 457.241569 157.460385 
L 457.765989 157.855151 
L 458.814829 157.893866 
L 459.863669 158.939137 
L 460.388089 159.235202 
L 461.961348 160.690981 
L 462.485768 160.549021 
L 463.534608 160.723999 
L 464.059028 161.094557 
L 464.583448 161.093506 
L 465.107868 160.939852 
L 466.681128 162.234789 
L 467.205548 162.262199 
L 467.729968 162.445887 
L 469.303228 161.491611 
L 470.876488 162.488173 
L 471.400908 162.961061 
L 472.449748 163.588182 
L 472.974168 163.510211 
L 473.498588 163.156792 
L 474.547428 163.738967 
L 475.071848 163.766145 
L 475.596268 162.964472 
L 476.120688 163.258802 
L 476.645108 163.322021 
L 477.169528 163.718865 
L 478.218368 163.783524 
L 478.742788 162.755571 
L 479.267208 162.682969 
L 481.889308 164.065039 
L 482.938148 164.903923 
L 483.462568 165.015449 
L 485.035828 164.97921 
L 485.560248 165.012365 
L 486.084668 164.921537 
L 486.609088 165.002169 
L 487.133508 164.929773 
L 487.657927 165.388932 
L 488.706767 165.617169 
L 489.231187 165.010769 
L 489.755607 164.959249 
L 490.280027 165.128976 
L 490.804447 165.095854 
L 491.328867 165.268891 
L 491.853287 165.073355 
L 492.377707 165.187093 
L 493.950967 165.945145 
L 494.475387 165.489725 
L 496.048647 165.64545 
L 496.573067 165.893648 
L 497.097487 165.769032 
L 498.146327 166.394369 
L 498.670747 166.438945 
L 499.195167 166.249834 
L 499.719587 165.597454 
L 500.244007 165.410731 
L 500.768427 165.425104 
L 501.292847 165.779651 
L 501.817267 165.848085 
L 502.341687 165.747018 
L 502.866107 165.949163 
L 503.390527 166.293753 
L 504.439367 166.65717 
L 504.963787 166.737865 
L 505.488207 166.558392 
L 507.061467 166.946416 
L 507.585887 166.887176 
L 508.110307 167.152245 
L 508.634727 167.110222 
L 509.159147 167.386638 
L 509.683567 167.181355 
L 510.207987 166.74615 
L 510.732407 166.473538 
L 511.256827 166.542081 
L 511.781247 165.785973 
L 512.830087 165.923065 
L 514.927766 166.192745 
L 515.976606 165.53399 
L 517.549866 165.310051 
L 518.074286 165.081309 
L 519.123126 164.947572 
L 519.647546 165.399473 
L 520.171966 165.400537 
L 521.745226 164.955367 
L 522.269646 164.557796 
L 524.891746 165.888496 
L 525.416166 166.121552 
L 525.940586 166.121399 
L 526.465006 165.973307 
L 526.989426 166.040293 
L 527.513846 166.312351 
L 529.087106 165.99031 
L 529.611526 166.316895 
L 531.184786 166.226458 
L 531.709206 165.53658 
L 533.806886 164.782922 
L 534.331306 164.880737 
L 534.855726 165.244556 
L 535.380146 165.348029 
L 535.904566 165.629914 
L 536.428986 165.323003 
L 536.953406 164.786531 
L 538.002246 165.215528 
L 538.526666 165.300784 
L 539.051085 165.246114 
L 539.575505 165.58575 
L 540.099925 165.601002 
L 541.148765 165.808124 
L 541.673185 165.784193 
L 542.722025 165.294295 
L 543.246445 165.286513 
L 544.295285 165.670131 
L 545.868545 166.80313 
L 546.917385 166.714144 
L 548.490645 166.086475 
L 550.063905 166.416282 
L 550.588325 166.822054 
L 551.637165 167.252401 
L 552.161585 164.227822 
L 552.686005 163.041904 
L 553.734845 161.314882 
L 554.259265 160.917986 
L 555.308105 160.882647 
L 555.832525 160.433407 
L 556.356945 160.672851 
L 556.881365 160.537663 
L 557.405785 160.533323 
L 557.930205 160.156962 
L 558.979045 160.495946 
L 559.503465 160.17987 
L 560.027885 159.679605 
L 561.076725 160.092652 
L 561.601145 159.800182 
L 562.125565 159.668925 
L 563.174405 159.174981 
L 563.698825 159.139355 
L 564.223245 159.278689 
L 566.320924 158.968469 
L 566.845344 159.318962 
L 567.369764 159.246261 
L 567.894184 158.928949 
L 568.418604 158.380855 
L 568.943024 158.367994 
L 569.991864 158.791695 
L 570.516284 158.596166 
L 571.565124 159.038292 
L 572.613964 159.085025 
L 573.138384 158.170593 
L 573.662804 157.853496 
L 574.187224 157.678677 
L 574.711644 157.658195 
L 577.333744 158.105564 
L 578.907004 157.242746 
L 579.431424 157.749729 
L 579.955844 157.993062 
L 580.480264 158.06715 
L 581.529104 157.296202 
L 582.053524 157.533752 
L 582.577944 157.963053 
L 583.102364 157.897155 
L 584.151204 156.992133 
L 584.675624 156.370042 
L 585.200044 156.173133 
L 585.724464 155.741235 
L 587.297724 156.257565 
L 587.822144 156.607705 
L 588.346564 156.622073 
L 589.919824 155.885829 
L 590.968663 156.387947 
L 591.493083 155.505021 
L 592.017503 154.239554 
L 592.541923 153.838771 
L 593.066343 154.027575 
L 593.590763 152.769464 
L 594.639603 151.701829 
L 595.164023 151.712847 
L 595.688443 150.988516 
L 596.212863 151.084302 
L 597.261703 151.956631 
L 597.786123 152.433621 
L 598.310543 153.075498 
L 598.834963 153.148561 
L 599.883803 152.86563 
L 600.408223 153.084029 
L 601.457063 152.941748 
L 602.505903 152.130042 
L 603.030323 152.360438 
L 603.554743 152.77657 
L 604.603583 151.188324 
L 605.652423 151.060704 
L 606.176843 151.188301 
L 606.701263 151.691719 
L 607.225683 151.986262 
L 607.750103 151.963146 
L 608.274523 152.339178 
L 608.798943 152.25639 
L 609.323363 152.41745 
L 609.847783 152.329071 
L 610.372203 151.967187 
L 610.896623 151.816481 
L 611.421043 151.96531 
L 612.469883 151.397988 
L 612.994303 151.634799 
L 614.043143 152.626303 
L 614.567563 152.307877 
L 615.091983 151.73609 
L 617.189662 150.63485 
L 617.714082 150.76838 
L 619.287342 151.933477 
L 620.860602 151.375729 
L 621.385022 151.86255 
L 621.909442 151.854243 
L 622.958282 151.078545 
L 624.531542 152.517584 
L 625.055962 152.545124 
L 625.580382 151.976789 
L 626.104802 152.051219 
L 626.629222 151.800375 
L 627.153642 151.011945 
L 627.678062 151.082153 
L 629.251322 152.530838 
L 630.300162 152.368209 
L 631.349002 152.791228 
L 631.873422 152.775068 
L 632.397842 152.462137 
L 633.446682 152.431683 
L 634.495522 153.031206 
L 635.019942 153.168803 
L 636.068782 152.562077 
L 637.117622 152.036364 
L 637.642042 151.727788 
L 638.166462 151.971312 
L 638.690882 152.455844 
L 639.215302 152.779046 
L 639.739722 152.904858 
L 641.312982 152.108303 
L 642.361821 152.422517 
L 643.410661 151.331666 
L 644.459501 152.140341 
L 644.983921 152.177779 
L 646.032761 151.910452 
L 647.081601 152.383977 
L 647.606021 152.157016 
L 648.130441 152.080715 
L 648.654861 152.276918 
L 649.179281 152.803008 
L 650.752541 153.420785 
L 651.276961 152.899004 
L 651.801381 152.913229 
L 652.325801 153.281859 
L 653.374641 153.518808 
L 653.899061 152.635887 
L 654.423481 152.745529 
L 654.947901 153.110391 
L 655.472321 153.131006 
L 655.996741 152.627249 
L 656.521161 152.285835 
L 657.045581 151.623317 
L 657.570001 151.352381 
L 658.094421 151.257237 
L 658.618841 151.340871 
L 659.143261 151.309104 
L 660.192101 152.075592 
L 660.716521 152.302337 
L 661.240941 151.371919 
L 661.765361 151.477425 
L 662.289781 151.063185 
L 662.814201 150.804875 
L 663.338621 150.264868 
L 663.863041 150.239829 
L 664.387461 149.461604 
L 664.911881 149.352903 
L 665.436301 149.492801 
L 665.960721 150.298295 
L 666.485141 149.656671 
L 667.009561 149.711075 
L 668.058401 148.277191 
L 669.10724 143.622083 
L 669.63166 140.981012 
L 670.15608 140.929436 
L 670.6805 140.68288 
L 671.20492 138.89404 
L 671.72934 134.891996 
L 672.25376 129.157864 
L 672.77818 126.752887 
L 673.3026 121.569068 
L 674.35144 115.376643 
L 674.87586 111.757694 
L 675.40028 109.077619 
L 675.9247 105.619681 
L 676.44912 103.60349 
L 677.49796 98.284906 
L 678.02238 96.932013 
L 678.5468 94.18029 
L 679.07122 90.642917 
L 679.59564 89.023366 
L 680.12006 86.958842 
L 680.64448 84.06621 
L 681.69332 82.238823 
L 682.21774 79.796834 
L 683.26658 73.817665 
L 683.791 72.024374 
L 684.31542 71.944383 
L 684.83984 71.551752 
L 685.36426 70.11769 
L 685.88868 67.498299 
L 685.88868 67.498299 
" clip-path="url(#p4cb8a3c922)" style="fill: none; stroke: #008fd5; stroke-width: 4"/>
   </g>
   <g id="patch_9">
    <path d="M 404.51114 182.8815 
L 404.51114 7.9215 
" style="fill: none; stroke: #f0f0f0; stroke-width: 3; stroke-linejoin: miter; stroke-linecap: square"/>
   </g>
   <g id="patch_10">
    <path d="M 699.28761 182.8815 
L 699.28761 7.9215 
" style="fill: none; stroke: #f0f0f0; stroke-width: 3; stroke-linejoin: miter; stroke-linecap: square"/>
   </g>
   <g id="patch_11">
    <path d="M 404.51114 182.8815 
L 699.28761 182.8815 
" style="fill: none; stroke: #f0f0f0; stroke-width: 3; stroke-linejoin: miter; stroke-linecap: square"/>
   </g>
   <g id="patch_12">
    <path d="M 404.51114 7.9215 
L 699.28761 7.9215 
" style="fill: none; stroke: #f0f0f0; stroke-width: 3; stroke-linejoin: miter; stroke-linecap: square"/>
   </g>
   <g id="legend_2">
    <g id="patch_13">
     <path d="M 574.333235 39.670875 
L 689.48761 39.670875 
Q 692.28761 39.670875 692.28761 36.870875 
L 692.28761 17.7215 
Q 692.28761 14.9215 689.48761 14.9215 
L 574.333235 14.9215 
Q 571.533235 14.9215 571.533235 17.7215 
L 571.533235 36.870875 
Q 571.533235 39.670875 574.333235 39.670875 
z
" style="fill: #f0f0f0; opacity: 0.8; stroke: #cccccc; stroke-width: 0.5; stroke-linejoin: miter"/>
    </g>
    <g id="line2d_53">
     <path d="M 577.133235 26.259312 
L 591.133235 26.259312 
L 605.133235 26.259312 
" style="fill: none; stroke: #008fd5; stroke-width: 4"/>
    </g>
    <g id="text_26">
     <!-- perplexity -->
     <g transform="translate(616.333235 31.159312) scale(0.14 -0.14)">
      <defs>
       <path id="DejaVuSans-70" d="M 1159 525 
L 1159 -1331 
L 581 -1331 
L 581 3500 
L 1159 3500 
L 1159 2969 
Q 1341 3281 1617 3432 
Q 1894 3584 2278 3584 
Q 2916 3584 3314 3078 
Q 3713 2572 3713 1747 
Q 3713 922 3314 415 
Q 2916 -91 2278 -91 
Q 1894 -91 1617 61 
Q 1341 213 1159 525 
z
M 3116 1747 
Q 3116 2381 2855 2742 
Q 2594 3103 2138 3103 
Q 1681 3103 1420 2742 
Q 1159 2381 1159 1747 
Q 1159 1113 1420 752 
Q 1681 391 2138 391 
Q 2594 391 2855 752 
Q 3116 1113 3116 1747 
z
" transform="scale(0.015625)"/>
       <path id="DejaVuSans-65" d="M 3597 1894 
L 3597 1613 
L 953 1613 
Q 991 1019 1311 708 
Q 1631 397 2203 397 
Q 2534 397 2845 478 
Q 3156 559 3463 722 
L 3463 178 
Q 3153 47 2828 -22 
Q 2503 -91 2169 -91 
Q 1331 -91 842 396 
Q 353 884 353 1716 
Q 353 2575 817 3079 
Q 1281 3584 2069 3584 
Q 2775 3584 3186 3129 
Q 3597 2675 3597 1894 
z
M 3022 2063 
Q 3016 2534 2758 2815 
Q 2500 3097 2075 3097 
Q 1594 3097 1305 2825 
Q 1016 2553 972 2059 
L 3022 2063 
z
" transform="scale(0.015625)"/>
       <path id="DejaVuSans-6c" d="M 603 4863 
L 1178 4863 
L 1178 0 
L 603 0 
L 603 4863 
z
" transform="scale(0.015625)"/>
       <path id="DejaVuSans-78" d="M 3513 3500 
L 2247 1797 
L 3578 0 
L 2900 0 
L 1881 1375 
L 863 0 
L 184 0 
L 1544 1831 
L 300 3500 
L 978 3500 
L 1906 2253 
L 2834 3500 
L 3513 3500 
z
" transform="scale(0.015625)"/>
       <path id="DejaVuSans-69" d="M 603 3500 
L 1178 3500 
L 1178 0 
L 603 0 
L 603 3500 
z
M 603 4863 
L 1178 4863 
L 1178 4134 
L 603 4134 
L 603 4863 
z
" transform="scale(0.015625)"/>
       <path id="DejaVuSans-74" d="M 1172 4494 
L 1172 3500 
L 2356 3500 
L 2356 3053 
L 1172 3053 
L 1172 1153 
Q 1172 725 1289 603 
Q 1406 481 1766 481 
L 2356 481 
L 2356 0 
L 1766 0 
Q 1100 0 847 248 
Q 594 497 594 1153 
L 594 3053 
L 172 3053 
L 172 3500 
L 594 3500 
L 594 4494 
L 1172 4494 
z
" transform="scale(0.015625)"/>
      </defs>
      <use xlink:href="#DejaVuSans-70"/>
      <use xlink:href="#DejaVuSans-65" x="63.476562"/>
      <use xlink:href="#DejaVuSans-72" x="125"/>
      <use xlink:href="#DejaVuSans-70" x="166.113281"/>
      <use xlink:href="#DejaVuSans-6c" x="229.589844"/>
      <use xlink:href="#DejaVuSans-65" x="257.373047"/>
      <use xlink:href="#DejaVuSans-78" x="317.146484"/>
      <use xlink:href="#DejaVuSans-69" x="376.326172"/>
      <use xlink:href="#DejaVuSans-74" x="404.109375"/>
      <use xlink:href="#DejaVuSans-79" x="443.318359"/>
     </g>
    </g>
   </g>
  </g>
  <g id="axes_3">
   <g id="patch_14">
    <path d="M 758.242904 182.8815 
L 1053.019375 182.8815 
L 1053.019375 7.9215 
L 758.242904 7.9215 
L 758.242904 182.8815 
z
" style="fill: none"/>
   </g>
   <g id="matplotlib.axis_5">
    <g id="xtick_13">
     <g id="line2d_54">
      <path d="M 771.641835 182.8815 
L 771.641835 7.9215 
" clip-path="url(#pfe37e98c85)" style="fill: none; stroke: #cbcbcb"/>
     </g>
     <g id="line2d_55"/>
     <g id="text_27">
      <!-- 0 -->
      <g transform="translate(767.188085 197.019312) scale(0.14 -0.14)">
       <use xlink:href="#DejaVuSans-30"/>
      </g>
     </g>
    </g>
    <g id="xtick_14">
     <g id="line2d_56">
      <path d="M 824.083833 182.8815 
L 824.083833 7.9215 
" clip-path="url(#pfe37e98c85)" style="fill: none; stroke: #cbcbcb"/>
     </g>
     <g id="line2d_57"/>
     <g id="text_28">
      <!-- 100 -->
      <g transform="translate(810.722583 197.019312) scale(0.14 -0.14)">
       <use xlink:href="#DejaVuSans-31"/>
       <use xlink:href="#DejaVuSans-30" x="63.623047"/>
       <use xlink:href="#DejaVuSans-30" x="127.246094"/>
      </g>
     </g>
    </g>
    <g id="xtick_15">
     <g id="line2d_58">
      <path d="M 876.525831 182.8815 
L 876.525831 7.9215 
" clip-path="url(#pfe37e98c85)" style="fill: none; stroke: #cbcbcb"/>
     </g>
     <g id="line2d_59"/>
     <g id="text_29">
      <!-- 200 -->
      <g transform="translate(863.164581 197.019312) scale(0.14 -0.14)">
       <use xlink:href="#DejaVuSans-32"/>
       <use xlink:href="#DejaVuSans-30" x="63.623047"/>
       <use xlink:href="#DejaVuSans-30" x="127.246094"/>
      </g>
     </g>
    </g>
    <g id="xtick_16">
     <g id="line2d_60">
      <path d="M 928.967829 182.8815 
L 928.967829 7.9215 
" clip-path="url(#pfe37e98c85)" style="fill: none; stroke: #cbcbcb"/>
     </g>
     <g id="line2d_61"/>
     <g id="text_30">
      <!-- 300 -->
      <g transform="translate(915.606579 197.019312) scale(0.14 -0.14)">
       <use xlink:href="#DejaVuSans-33"/>
       <use xlink:href="#DejaVuSans-30" x="63.623047"/>
       <use xlink:href="#DejaVuSans-30" x="127.246094"/>
      </g>
     </g>
    </g>
    <g id="xtick_17">
     <g id="line2d_62">
      <path d="M 981.409827 182.8815 
L 981.409827 7.9215 
" clip-path="url(#pfe37e98c85)" style="fill: none; stroke: #cbcbcb"/>
     </g>
     <g id="line2d_63"/>
     <g id="text_31">
      <!-- 400 -->
      <g transform="translate(968.048577 197.019312) scale(0.14 -0.14)">
       <use xlink:href="#DejaVuSans-34"/>
       <use xlink:href="#DejaVuSans-30" x="63.623047"/>
       <use xlink:href="#DejaVuSans-30" x="127.246094"/>
      </g>
     </g>
    </g>
    <g id="xtick_18">
     <g id="line2d_64">
      <path d="M 1033.851825 182.8815 
L 1033.851825 7.9215 
" clip-path="url(#pfe37e98c85)" style="fill: none; stroke: #cbcbcb"/>
     </g>
     <g id="line2d_65"/>
     <g id="text_32">
      <!-- 500 -->
      <g transform="translate(1020.490575 197.019312) scale(0.14 -0.14)">
       <use xlink:href="#DejaVuSans-35"/>
       <use xlink:href="#DejaVuSans-30" x="63.623047"/>
       <use xlink:href="#DejaVuSans-30" x="127.246094"/>
      </g>
     </g>
    </g>
   </g>
   <g id="matplotlib.axis_6">
    <g id="ytick_13">
     <g id="line2d_66">
      <path d="M 758.242904 174.928772 
L 1053.019375 174.928772 
" clip-path="url(#pfe37e98c85)" style="fill: none; stroke: #cbcbcb"/>
     </g>
     <g id="line2d_67"/>
     <g id="text_33">
      <!-- 0.0 -->
      <g transform="translate(732.478529 180.247678) scale(0.14 -0.14)">
       <use xlink:href="#DejaVuSans-30"/>
       <use xlink:href="#DejaVuSans-2e" x="63.623047"/>
       <use xlink:href="#DejaVuSans-30" x="95.410156"/>
      </g>
     </g>
    </g>
    <g id="ytick_14">
     <g id="line2d_68">
      <path d="M 758.242904 142.701819 
L 1053.019375 142.701819 
" clip-path="url(#pfe37e98c85)" style="fill: none; stroke: #cbcbcb"/>
     </g>
     <g id="line2d_69"/>
     <g id="text_34">
      <!-- 0.2 -->
      <g transform="translate(732.478529 148.020725) scale(0.14 -0.14)">
       <use xlink:href="#DejaVuSans-30"/>
       <use xlink:href="#DejaVuSans-2e" x="63.623047"/>
       <use xlink:href="#DejaVuSans-32" x="95.410156"/>
      </g>
     </g>
    </g>
    <g id="ytick_15">
     <g id="line2d_70">
      <path d="M 758.242904 110.474865 
L 1053.019375 110.474865 
" clip-path="url(#pfe37e98c85)" style="fill: none; stroke: #cbcbcb"/>
     </g>
     <g id="line2d_71"/>
     <g id="text_35">
      <!-- 0.4 -->
      <g transform="translate(732.478529 115.793771) scale(0.14 -0.14)">
       <use xlink:href="#DejaVuSans-30"/>
       <use xlink:href="#DejaVuSans-2e" x="63.623047"/>
       <use xlink:href="#DejaVuSans-34" x="95.410156"/>
      </g>
     </g>
    </g>
    <g id="ytick_16">
     <g id="line2d_72">
      <path d="M 758.242904 78.247912 
L 1053.019375 78.247912 
" clip-path="url(#pfe37e98c85)" style="fill: none; stroke: #cbcbcb"/>
     </g>
     <g id="line2d_73"/>
     <g id="text_36">
      <!-- 0.6 -->
      <g transform="translate(732.478529 83.566818) scale(0.14 -0.14)">
       <defs>
        <path id="DejaVuSans-36" d="M 2113 2584 
Q 1688 2584 1439 2293 
Q 1191 2003 1191 1497 
Q 1191 994 1439 701 
Q 1688 409 2113 409 
Q 2538 409 2786 701 
Q 3034 994 3034 1497 
Q 3034 2003 2786 2293 
Q 2538 2584 2113 2584 
z
M 3366 4563 
L 3366 3988 
Q 3128 4100 2886 4159 
Q 2644 4219 2406 4219 
Q 1781 4219 1451 3797 
Q 1122 3375 1075 2522 
Q 1259 2794 1537 2939 
Q 1816 3084 2150 3084 
Q 2853 3084 3261 2657 
Q 3669 2231 3669 1497 
Q 3669 778 3244 343 
Q 2819 -91 2113 -91 
Q 1303 -91 875 529 
Q 447 1150 447 2328 
Q 447 3434 972 4092 
Q 1497 4750 2381 4750 
Q 2619 4750 2861 4703 
Q 3103 4656 3366 4563 
z
" transform="scale(0.015625)"/>
       </defs>
       <use xlink:href="#DejaVuSans-30"/>
       <use xlink:href="#DejaVuSans-2e" x="63.623047"/>
       <use xlink:href="#DejaVuSans-36" x="95.410156"/>
      </g>
     </g>
    </g>
    <g id="ytick_17">
     <g id="line2d_74">
      <path d="M 758.242904 46.020958 
L 1053.019375 46.020958 
" clip-path="url(#pfe37e98c85)" style="fill: none; stroke: #cbcbcb"/>
     </g>
     <g id="line2d_75"/>
     <g id="text_37">
      <!-- 0.8 -->
      <g transform="translate(732.478529 51.339864) scale(0.14 -0.14)">
       <defs>
        <path id="DejaVuSans-38" d="M 2034 2216 
Q 1584 2216 1326 1975 
Q 1069 1734 1069 1313 
Q 1069 891 1326 650 
Q 1584 409 2034 409 
Q 2484 409 2743 651 
Q 3003 894 3003 1313 
Q 3003 1734 2745 1975 
Q 2488 2216 2034 2216 
z
M 1403 2484 
Q 997 2584 770 2862 
Q 544 3141 544 3541 
Q 544 4100 942 4425 
Q 1341 4750 2034 4750 
Q 2731 4750 3128 4425 
Q 3525 4100 3525 3541 
Q 3525 3141 3298 2862 
Q 3072 2584 2669 2484 
Q 3125 2378 3379 2068 
Q 3634 1759 3634 1313 
Q 3634 634 3220 271 
Q 2806 -91 2034 -91 
Q 1263 -91 848 271 
Q 434 634 434 1313 
Q 434 1759 690 2068 
Q 947 2378 1403 2484 
z
M 1172 3481 
Q 1172 3119 1398 2916 
Q 1625 2713 2034 2713 
Q 2441 2713 2670 2916 
Q 2900 3119 2900 3481 
Q 2900 3844 2670 4047 
Q 2441 4250 2034 4250 
Q 1625 4250 1398 4047 
Q 1172 3844 1172 3481 
z
" transform="scale(0.015625)"/>
       </defs>
       <use xlink:href="#DejaVuSans-30"/>
       <use xlink:href="#DejaVuSans-2e" x="63.623047"/>
       <use xlink:href="#DejaVuSans-38" x="95.410156"/>
      </g>
     </g>
    </g>
    <g id="ytick_18">
     <g id="line2d_76">
      <path d="M 758.242904 13.794004 
L 1053.019375 13.794004 
" clip-path="url(#pfe37e98c85)" style="fill: none; stroke: #cbcbcb"/>
     </g>
     <g id="line2d_77"/>
     <g id="text_38">
      <!-- 1.0 -->
      <g transform="translate(732.478529 19.112911) scale(0.14 -0.14)">
       <use xlink:href="#DejaVuSans-31"/>
       <use xlink:href="#DejaVuSans-2e" x="63.623047"/>
       <use xlink:href="#DejaVuSans-30" x="95.410156"/>
      </g>
     </g>
    </g>
   </g>
   <g id="line2d_78">
    <path d="M 771.641835 174.928772 
L 776.886035 174.928772 
L 777.410455 170.998469 
L 787.374434 21.64694 
L 787.898854 174.928772 
L 797.862834 21.843272 
L 798.387254 174.928772 
L 808.875653 17.716635 
L 809.400073 170.900205 
L 819.364053 17.814705 
L 819.888473 170.900204 
L 829.852453 17.814705 
L 830.376873 170.998465 
L 840.340852 21.64694 
L 840.865272 174.928769 
L 850.829252 21.843272 
L 851.353672 174.928769 
L 861.317651 21.843272 
L 861.842071 174.928769 
L 872.330471 17.716635 
L 872.854891 170.900202 
L 882.818871 17.814705 
L 883.343291 170.9002 
L 893.30727 17.814696 
L 893.83169 170.998462 
L 903.79567 21.64693 
L 904.32009 174.928765 
L 914.284069 20.983834 
L 914.808489 173.962014 
L 924.772469 21.447735 
L 925.296889 174.493795 
L 931.589929 74.618624 
L 935.260869 15.874227 
L 935.785289 168.591668 
L 945.224848 16.007286 
L 945.749268 168.604656 
L 952.042308 67.86952 
L 955.188828 17.321204 
L 955.713248 170.009668 
L 960.957448 83.730127 
L 964.628387 22.508558 
L 965.152807 174.872123 
L 974.592367 15.918244 
L 975.116787 168.161727 
L 984.031927 18.457728 
L 984.556347 170.807113 
L 993.471486 20.520941 
L 993.995906 172.759345 
L 1002.386626 28.465022 
L 1002.911046 19.238824 
L 1003.435466 171.141061 
L 1011.826186 22.570334 
L 1012.350606 174.365144 
L 1020.741325 24.075676 
L 1039.620445 24.075676 
L 1039.620445 24.075676 
" clip-path="url(#pfe37e98c85)" style="fill: none; stroke: #008fd5; stroke-width: 4"/>
   </g>
   <g id="patch_15">
    <path d="M 758.242904 182.8815 
L 758.242904 7.9215 
" style="fill: none; stroke: #f0f0f0; stroke-width: 3; stroke-linejoin: miter; stroke-linecap: square"/>
   </g>
   <g id="patch_16">
    <path d="M 1053.019375 182.8815 
L 1053.019375 7.9215 
" style="fill: none; stroke: #f0f0f0; stroke-width: 3; stroke-linejoin: miter; stroke-linecap: square"/>
   </g>
   <g id="patch_17">
    <path d="M 758.242904 182.8815 
L 1053.019375 182.8815 
" style="fill: none; stroke: #f0f0f0; stroke-width: 3; stroke-linejoin: miter; stroke-linecap: square"/>
   </g>
   <g id="patch_18">
    <path d="M 758.242904 7.9215 
L 1053.019375 7.9215 
" style="fill: none; stroke: #f0f0f0; stroke-width: 3; stroke-linejoin: miter; stroke-linecap: square"/>
   </g>
   <g id="legend_3">
    <g id="patch_19">
     <path d="M 966.269687 39.670875 
L 1043.219375 39.670875 
Q 1046.019375 39.670875 1046.019375 36.870875 
L 1046.019375 17.7215 
Q 1046.019375 14.9215 1043.219375 14.9215 
L 966.269687 14.9215 
Q 963.469687 14.9215 963.469687 17.7215 
L 963.469687 36.870875 
Q 963.469687 39.670875 966.269687 39.670875 
z
" style="fill: #f0f0f0; opacity: 0.8; stroke: #cccccc; stroke-width: 0.5; stroke-linejoin: miter"/>
    </g>
    <g id="line2d_79">
     <path d="M 969.069687 26.259312 
L 983.069687 26.259312 
L 997.069687 26.259312 
" style="fill: none; stroke: #008fd5; stroke-width: 4"/>
    </g>
    <g id="text_39">
     <!-- sync -->
     <g transform="translate(1008.269687 31.159312) scale(0.14 -0.14)">
      <defs>
       <path id="DejaVuSans-73" d="M 2834 3397 
L 2834 2853 
Q 2591 2978 2328 3040 
Q 2066 3103 1784 3103 
Q 1356 3103 1142 2972 
Q 928 2841 928 2578 
Q 928 2378 1081 2264 
Q 1234 2150 1697 2047 
L 1894 2003 
Q 2506 1872 2764 1633 
Q 3022 1394 3022 966 
Q 3022 478 2636 193 
Q 2250 -91 1575 -91 
Q 1294 -91 989 -36 
Q 684 19 347 128 
L 347 722 
Q 666 556 975 473 
Q 1284 391 1588 391 
Q 1994 391 2212 530 
Q 2431 669 2431 922 
Q 2431 1156 2273 1281 
Q 2116 1406 1581 1522 
L 1381 1569 
Q 847 1681 609 1914 
Q 372 2147 372 2553 
Q 372 3047 722 3315 
Q 1072 3584 1716 3584 
Q 2034 3584 2315 3537 
Q 2597 3491 2834 3397 
z
" transform="scale(0.015625)"/>
       <path id="DejaVuSans-6e" d="M 3513 2113 
L 3513 0 
L 2938 0 
L 2938 2094 
Q 2938 2591 2744 2837 
Q 2550 3084 2163 3084 
Q 1697 3084 1428 2787 
Q 1159 2491 1159 1978 
L 1159 0 
L 581 0 
L 581 3500 
L 1159 3500 
L 1159 2956 
Q 1366 3272 1645 3428 
Q 1925 3584 2291 3584 
Q 2894 3584 3203 3211 
Q 3513 2838 3513 2113 
z
" transform="scale(0.015625)"/>
      </defs>
      <use xlink:href="#DejaVuSans-73"/>
      <use xlink:href="#DejaVuSans-79" x="52.099609"/>
      <use xlink:href="#DejaVuSans-6e" x="111.279297"/>
      <use xlink:href="#DejaVuSans-63" x="174.658203"/>
     </g>
    </g>
   </g>
  </g>
 </g>
 <defs>
  <clipPath id="pc29785f9d4">
   <rect x="50.779375" y="7.9215" width="294.776471" height="174.96"/>
  </clipPath>
  <clipPath id="p4cb8a3c922">
   <rect x="404.51114" y="7.9215" width="294.776471" height="174.96"/>
  </clipPath>
  <clipPath id="pfe37e98c85">
   <rect x="758.242904" y="7.9215" width="294.776471" height="174.96"/>
  </clipPath>
 </defs>
</svg>
