<?xml version="1.0" encoding="utf-8" standalone="no"?>
<!DOCTYPE svg PUBLIC "-//W3C//DTD SVG 1.1//EN"
  "http://www.w3.org/Graphics/SVG/1.1/DTD/svg11.dtd">
<svg xmlns:xlink="http://www.w3.org/1999/xlink" width="1060.219375pt" height="207.744155pt" viewBox="0 0 1060.219375 207.744155" xmlns="http://www.w3.org/2000/svg" version="1.1">
 <metadata>
  <rdf:RDF xmlns:dc="http://purl.org/dc/elements/1.1/" xmlns:cc="http://creativecommons.org/ns#" xmlns:rdf="http://www.w3.org/1999/02/22-rdf-syntax-ns#">
   <cc:Work>
    <dc:type rdf:resource="http://purl.org/dc/dcmitype/StillImage"/>
    <dc:date>2023-01-19T14:54:07.456940</dc:date>
    <dc:format>image/svg+xml</dc:format>
    <dc:creator>
     <cc:Agent>
      <dc:title>Matplotlib v3.6.0, https://matplotlib.org/</dc:title>
     </cc:Agent>
    </dc:creator>
   </cc:Work>
  </rdf:RDF>
 </metadata>
 <defs>
  <style type="text/css">*{stroke-linejoin: round; stroke-linecap: butt}</style>
 </defs>
 <g id="figure_1">
  <g id="patch_1">
   <path d="M 0 207.744155 
L 1060.219375 207.744155 
L 1060.219375 0 
L 0 0 
L 0 207.744155 
z
" style="fill: none"/>
  </g>
  <g id="axes_1">
   <g id="patch_2">
    <path d="M 50.779375 183.49478 
L 345.555846 183.49478 
L 345.555846 8.53478 
L 50.779375 8.53478 
L 50.779375 183.49478 
z
" style="fill: none"/>
   </g>
   <g id="matplotlib.axis_1">
    <g id="xtick_1">
     <g id="line2d_1">
      <path d="M 64.178305 183.49478 
L 64.178305 8.53478 
" clip-path="url(#p5856bcbcbe)" style="fill: none; stroke: #cbcbcb"/>
     </g>
     <g id="line2d_2"/>
     <g id="text_1">
      <!-- 0 -->
      <g transform="translate(59.724555 197.632592) scale(0.14 -0.14)">
       <defs>
        <path id="DejaVuSans-30" d="M 2034 4250 
Q 1547 4250 1301 3770 
Q 1056 3291 1056 2328 
Q 1056 1369 1301 889 
Q 1547 409 2034 409 
Q 2525 409 2770 889 
Q 3016 1369 3016 2328 
Q 3016 3291 2770 3770 
Q 2525 4250 2034 4250 
z
M 2034 4750 
Q 2819 4750 3233 4129 
Q 3647 3509 3647 2328 
Q 3647 1150 3233 529 
Q 2819 -91 2034 -91 
Q 1250 -91 836 529 
Q 422 1150 422 2328 
Q 422 3509 836 4129 
Q 1250 4750 2034 4750 
z
" transform="scale(0.015625)"/>
       </defs>
       <use xlink:href="#DejaVuSans-30"/>
      </g>
     </g>
    </g>
    <g id="xtick_2">
     <g id="line2d_3">
      <path d="M 116.620303 183.49478 
L 116.620303 8.53478 
" clip-path="url(#p5856bcbcbe)" style="fill: none; stroke: #cbcbcb"/>
     </g>
     <g id="line2d_4"/>
     <g id="text_2">
      <!-- 100 -->
      <g transform="translate(103.259053 197.632592) scale(0.14 -0.14)">
       <defs>
        <path id="DejaVuSans-31" d="M 794 531 
L 1825 531 
L 1825 4091 
L 703 3866 
L 703 4441 
L 1819 4666 
L 2450 4666 
L 2450 531 
L 3481 531 
L 3481 0 
L 794 0 
L 794 531 
z
" transform="scale(0.015625)"/>
       </defs>
       <use xlink:href="#DejaVuSans-31"/>
       <use xlink:href="#DejaVuSans-30" x="63.623047"/>
       <use xlink:href="#DejaVuSans-30" x="127.246094"/>
      </g>
     </g>
    </g>
    <g id="xtick_3">
     <g id="line2d_5">
      <path d="M 169.062301 183.49478 
L 169.062301 8.53478 
" clip-path="url(#p5856bcbcbe)" style="fill: none; stroke: #cbcbcb"/>
     </g>
     <g id="line2d_6"/>
     <g id="text_3">
      <!-- 200 -->
      <g transform="translate(155.701051 197.632592) scale(0.14 -0.14)">
       <defs>
        <path id="DejaVuSans-32" d="M 1228 531 
L 3431 531 
L 3431 0 
L 469 0 
L 469 531 
Q 828 903 1448 1529 
Q 2069 2156 2228 2338 
Q 2531 2678 2651 2914 
Q 2772 3150 2772 3378 
Q 2772 3750 2511 3984 
Q 2250 4219 1831 4219 
Q 1534 4219 1204 4116 
Q 875 4013 500 3803 
L 500 4441 
Q 881 4594 1212 4672 
Q 1544 4750 1819 4750 
Q 2544 4750 2975 4387 
Q 3406 4025 3406 3419 
Q 3406 3131 3298 2873 
Q 3191 2616 2906 2266 
Q 2828 2175 2409 1742 
Q 1991 1309 1228 531 
z
" transform="scale(0.015625)"/>
       </defs>
       <use xlink:href="#DejaVuSans-32"/>
       <use xlink:href="#DejaVuSans-30" x="63.623047"/>
       <use xlink:href="#DejaVuSans-30" x="127.246094"/>
      </g>
     </g>
    </g>
    <g id="xtick_4">
     <g id="line2d_7">
      <path d="M 221.504299 183.49478 
L 221.504299 8.53478 
" clip-path="url(#p5856bcbcbe)" style="fill: none; stroke: #cbcbcb"/>
     </g>
     <g id="line2d_8"/>
     <g id="text_4">
      <!-- 300 -->
      <g transform="translate(208.143049 197.632592) scale(0.14 -0.14)">
       <defs>
        <path id="DejaVuSans-33" d="M 2597 2516 
Q 3050 2419 3304 2112 
Q 3559 1806 3559 1356 
Q 3559 666 3084 287 
Q 2609 -91 1734 -91 
Q 1441 -91 1130 -33 
Q 819 25 488 141 
L 488 750 
Q 750 597 1062 519 
Q 1375 441 1716 441 
Q 2309 441 2620 675 
Q 2931 909 2931 1356 
Q 2931 1769 2642 2001 
Q 2353 2234 1838 2234 
L 1294 2234 
L 1294 2753 
L 1863 2753 
Q 2328 2753 2575 2939 
Q 2822 3125 2822 3475 
Q 2822 3834 2567 4026 
Q 2313 4219 1838 4219 
Q 1578 4219 1281 4162 
Q 984 4106 628 3988 
L 628 4550 
Q 988 4650 1302 4700 
Q 1616 4750 1894 4750 
Q 2613 4750 3031 4423 
Q 3450 4097 3450 3541 
Q 3450 3153 3228 2886 
Q 3006 2619 2597 2516 
z
" transform="scale(0.015625)"/>
       </defs>
       <use xlink:href="#DejaVuSans-33"/>
       <use xlink:href="#DejaVuSans-30" x="63.623047"/>
       <use xlink:href="#DejaVuSans-30" x="127.246094"/>
      </g>
     </g>
    </g>
    <g id="xtick_5">
     <g id="line2d_9">
      <path d="M 273.946297 183.49478 
L 273.946297 8.53478 
" clip-path="url(#p5856bcbcbe)" style="fill: none; stroke: #cbcbcb"/>
     </g>
     <g id="line2d_10"/>
     <g id="text_5">
      <!-- 400 -->
      <g transform="translate(260.585047 197.632592) scale(0.14 -0.14)">
       <defs>
        <path id="DejaVuSans-34" d="M 2419 4116 
L 825 1625 
L 2419 1625 
L 2419 4116 
z
M 2253 4666 
L 3047 4666 
L 3047 1625 
L 3713 1625 
L 3713 1100 
L 3047 1100 
L 3047 0 
L 2419 0 
L 2419 1100 
L 313 1100 
L 313 1709 
L 2253 4666 
z
" transform="scale(0.015625)"/>
       </defs>
       <use xlink:href="#DejaVuSans-34"/>
       <use xlink:href="#DejaVuSans-30" x="63.623047"/>
       <use xlink:href="#DejaVuSans-30" x="127.246094"/>
      </g>
     </g>
    </g>
    <g id="xtick_6">
     <g id="line2d_11">
      <path d="M 326.388295 183.49478 
L 326.388295 8.53478 
" clip-path="url(#p5856bcbcbe)" style="fill: none; stroke: #cbcbcb"/>
     </g>
     <g id="line2d_12"/>
     <g id="text_6">
      <!-- 500 -->
      <g transform="translate(313.027045 197.632592) scale(0.14 -0.14)">
       <defs>
        <path id="DejaVuSans-35" d="M 691 4666 
L 3169 4666 
L 3169 4134 
L 1269 4134 
L 1269 2991 
Q 1406 3038 1543 3061 
Q 1681 3084 1819 3084 
Q 2600 3084 3056 2656 
Q 3513 2228 3513 1497 
Q 3513 744 3044 326 
Q 2575 -91 1722 -91 
Q 1428 -91 1123 -41 
Q 819 9 494 109 
L 494 744 
Q 775 591 1075 516 
Q 1375 441 1709 441 
Q 2250 441 2565 725 
Q 2881 1009 2881 1497 
Q 2881 1984 2565 2268 
Q 2250 2553 1709 2553 
Q 1456 2553 1204 2497 
Q 953 2441 691 2322 
L 691 4666 
z
" transform="scale(0.015625)"/>
       </defs>
       <use xlink:href="#DejaVuSans-35"/>
       <use xlink:href="#DejaVuSans-30" x="63.623047"/>
       <use xlink:href="#DejaVuSans-30" x="127.246094"/>
      </g>
     </g>
    </g>
   </g>
   <g id="matplotlib.axis_2">
    <g id="ytick_1">
     <g id="line2d_13">
      <path d="M 50.779375 175.542053 
L 345.555846 175.542053 
" clip-path="url(#p5856bcbcbe)" style="fill: none; stroke: #cbcbcb"/>
     </g>
     <g id="line2d_14"/>
     <g id="text_7">
      <!-- 0.000 -->
      <g transform="translate(7.2 180.860959) scale(0.14 -0.14)">
       <defs>
        <path id="DejaVuSans-2e" d="M 684 794 
L 1344 794 
L 1344 0 
L 684 0 
L 684 794 
z
" transform="scale(0.015625)"/>
       </defs>
       <use xlink:href="#DejaVuSans-30"/>
       <use xlink:href="#DejaVuSans-2e" x="63.623047"/>
       <use xlink:href="#DejaVuSans-30" x="95.410156"/>
       <use xlink:href="#DejaVuSans-30" x="159.033203"/>
       <use xlink:href="#DejaVuSans-30" x="222.65625"/>
      </g>
     </g>
    </g>
    <g id="ytick_2">
     <g id="line2d_15">
      <path d="M 50.779375 144.10104 
L 345.555846 144.10104 
" clip-path="url(#p5856bcbcbe)" style="fill: none; stroke: #cbcbcb"/>
     </g>
     <g id="line2d_16"/>
     <g id="text_8">
      <!-- 0.025 -->
      <g transform="translate(7.2 149.419946) scale(0.14 -0.14)">
       <use xlink:href="#DejaVuSans-30"/>
       <use xlink:href="#DejaVuSans-2e" x="63.623047"/>
       <use xlink:href="#DejaVuSans-30" x="95.410156"/>
       <use xlink:href="#DejaVuSans-32" x="159.033203"/>
       <use xlink:href="#DejaVuSans-35" x="222.65625"/>
      </g>
     </g>
    </g>
    <g id="ytick_3">
     <g id="line2d_17">
      <path d="M 50.779375 112.660027 
L 345.555846 112.660027 
" clip-path="url(#p5856bcbcbe)" style="fill: none; stroke: #cbcbcb"/>
     </g>
     <g id="line2d_18"/>
     <g id="text_9">
      <!-- 0.050 -->
      <g transform="translate(7.2 117.978933) scale(0.14 -0.14)">
       <use xlink:href="#DejaVuSans-30"/>
       <use xlink:href="#DejaVuSans-2e" x="63.623047"/>
       <use xlink:href="#DejaVuSans-30" x="95.410156"/>
       <use xlink:href="#DejaVuSans-35" x="159.033203"/>
       <use xlink:href="#DejaVuSans-30" x="222.65625"/>
      </g>
     </g>
    </g>
    <g id="ytick_4">
     <g id="line2d_19">
      <path d="M 50.779375 81.219014 
L 345.555846 81.219014 
" clip-path="url(#p5856bcbcbe)" style="fill: none; stroke: #cbcbcb"/>
     </g>
     <g id="line2d_20"/>
     <g id="text_10">
      <!-- 0.075 -->
      <g transform="translate(7.2 86.53792) scale(0.14 -0.14)">
       <defs>
        <path id="DejaVuSans-37" d="M 525 4666 
L 3525 4666 
L 3525 4397 
L 1831 0 
L 1172 0 
L 2766 4134 
L 525 4134 
L 525 4666 
z
" transform="scale(0.015625)"/>
       </defs>
       <use xlink:href="#DejaVuSans-30"/>
       <use xlink:href="#DejaVuSans-2e" x="63.623047"/>
       <use xlink:href="#DejaVuSans-30" x="95.410156"/>
       <use xlink:href="#DejaVuSans-37" x="159.033203"/>
       <use xlink:href="#DejaVuSans-35" x="222.65625"/>
      </g>
     </g>
    </g>
    <g id="ytick_5">
     <g id="line2d_21">
      <path d="M 50.779375 49.778001 
L 345.555846 49.778001 
" clip-path="url(#p5856bcbcbe)" style="fill: none; stroke: #cbcbcb"/>
     </g>
     <g id="line2d_22"/>
     <g id="text_11">
      <!-- 0.100 -->
      <g transform="translate(7.2 55.096907) scale(0.14 -0.14)">
       <use xlink:href="#DejaVuSans-30"/>
       <use xlink:href="#DejaVuSans-2e" x="63.623047"/>
       <use xlink:href="#DejaVuSans-31" x="95.410156"/>
       <use xlink:href="#DejaVuSans-30" x="159.033203"/>
       <use xlink:href="#DejaVuSans-30" x="222.65625"/>
      </g>
     </g>
    </g>
    <g id="ytick_6">
     <g id="line2d_23">
      <path d="M 50.779375 18.336988 
L 345.555846 18.336988 
" clip-path="url(#p5856bcbcbe)" style="fill: none; stroke: #cbcbcb"/>
     </g>
     <g id="line2d_24"/>
     <g id="text_12">
      <!-- 0.125 -->
      <g transform="translate(7.2 23.655894) scale(0.14 -0.14)">
       <use xlink:href="#DejaVuSans-30"/>
       <use xlink:href="#DejaVuSans-2e" x="63.623047"/>
       <use xlink:href="#DejaVuSans-31" x="95.410156"/>
       <use xlink:href="#DejaVuSans-32" x="159.033203"/>
       <use xlink:href="#DejaVuSans-35" x="222.65625"/>
      </g>
     </g>
    </g>
   </g>
   <g id="line2d_25">
    <path d="M 64.178305 16.487507 
L 197.9054 16.487507 
L 198.42982 175.542053 
L 332.156915 175.542053 
L 332.156915 175.542053 
" clip-path="url(#p5856bcbcbe)" style="fill: none; stroke: #008fd5; stroke-width: 4"/>
   </g>
   <g id="patch_3">
    <path d="M 50.779375 183.49478 
L 50.779375 8.53478 
" style="fill: none; stroke: #f0f0f0; stroke-width: 3; stroke-linejoin: miter; stroke-linecap: square"/>
   </g>
   <g id="patch_4">
    <path d="M 345.555846 183.49478 
L 345.555846 8.53478 
" style="fill: none; stroke: #f0f0f0; stroke-width: 3; stroke-linejoin: miter; stroke-linecap: square"/>
   </g>
   <g id="patch_5">
    <path d="M 50.779375 183.49478 
L 345.555846 183.49478 
" style="fill: none; stroke: #f0f0f0; stroke-width: 3; stroke-linejoin: miter; stroke-linecap: square"/>
   </g>
   <g id="patch_6">
    <path d="M 50.779375 8.53478 
L 345.555846 8.53478 
" style="fill: none; stroke: #f0f0f0; stroke-width: 3; stroke-linejoin: miter; stroke-linecap: square"/>
   </g>
   <g id="legend_1">
    <g id="patch_7">
     <path d="M 227.789596 40.284155 
L 335.755846 40.284155 
Q 338.555846 40.284155 338.555846 37.484155 
L 338.555846 18.33478 
Q 338.555846 15.53478 335.755846 15.53478 
L 227.789596 15.53478 
Q 224.989596 15.53478 224.989596 18.33478 
L 224.989596 37.484155 
Q 224.989596 40.284155 227.789596 40.284155 
z
" style="fill: #f0f0f0; opacity: 0.8; stroke: #cccccc; stroke-width: 0.5; stroke-linejoin: miter"/>
    </g>
    <g id="line2d_26">
     <path d="M 230.589596 26.872592 
L 244.589596 26.872592 
L 258.589596 26.872592 
" style="fill: none; stroke: #008fd5; stroke-width: 4"/>
    </g>
    <g id="text_13">
     <!-- accuracy -->
     <g transform="translate(269.789596 31.772592) scale(0.14 -0.14)">
      <defs>
       <path id="DejaVuSans-61" d="M 2194 1759 
Q 1497 1759 1228 1600 
Q 959 1441 959 1056 
Q 959 750 1161 570 
Q 1363 391 1709 391 
Q 2188 391 2477 730 
Q 2766 1069 2766 1631 
L 2766 1759 
L 2194 1759 
z
M 3341 1997 
L 3341 0 
L 2766 0 
L 2766 531 
Q 2569 213 2275 61 
Q 1981 -91 1556 -91 
Q 1019 -91 701 211 
Q 384 513 384 1019 
Q 384 1609 779 1909 
Q 1175 2209 1959 2209 
L 2766 2209 
L 2766 2266 
Q 2766 2663 2505 2880 
Q 2244 3097 1772 3097 
Q 1472 3097 1187 3025 
Q 903 2953 641 2809 
L 641 3341 
Q 956 3463 1253 3523 
Q 1550 3584 1831 3584 
Q 2591 3584 2966 3190 
Q 3341 2797 3341 1997 
z
" transform="scale(0.015625)"/>
       <path id="DejaVuSans-63" d="M 3122 3366 
L 3122 2828 
Q 2878 2963 2633 3030 
Q 2388 3097 2138 3097 
Q 1578 3097 1268 2742 
Q 959 2388 959 1747 
Q 959 1106 1268 751 
Q 1578 397 2138 397 
Q 2388 397 2633 464 
Q 2878 531 3122 666 
L 3122 134 
Q 2881 22 2623 -34 
Q 2366 -91 2075 -91 
Q 1284 -91 818 406 
Q 353 903 353 1747 
Q 353 2603 823 3093 
Q 1294 3584 2113 3584 
Q 2378 3584 2631 3529 
Q 2884 3475 3122 3366 
z
" transform="scale(0.015625)"/>
       <path id="DejaVuSans-75" d="M 544 1381 
L 544 3500 
L 1119 3500 
L 1119 1403 
Q 1119 906 1312 657 
Q 1506 409 1894 409 
Q 2359 409 2629 706 
Q 2900 1003 2900 1516 
L 2900 3500 
L 3475 3500 
L 3475 0 
L 2900 0 
L 2900 538 
Q 2691 219 2414 64 
Q 2138 -91 1772 -91 
Q 1169 -91 856 284 
Q 544 659 544 1381 
z
M 1991 3584 
L 1991 3584 
z
" transform="scale(0.015625)"/>
       <path id="DejaVuSans-72" d="M 2631 2963 
Q 2534 3019 2420 3045 
Q 2306 3072 2169 3072 
Q 1681 3072 1420 2755 
Q 1159 2438 1159 1844 
L 1159 0 
L 581 0 
L 581 3500 
L 1159 3500 
L 1159 2956 
Q 1341 3275 1631 3429 
Q 1922 3584 2338 3584 
Q 2397 3584 2469 3576 
Q 2541 3569 2628 3553 
L 2631 2963 
z
" transform="scale(0.015625)"/>
       <path id="DejaVuSans-79" d="M 2059 -325 
Q 1816 -950 1584 -1140 
Q 1353 -1331 966 -1331 
L 506 -1331 
L 506 -850 
L 844 -850 
Q 1081 -850 1212 -737 
Q 1344 -625 1503 -206 
L 1606 56 
L 191 3500 
L 800 3500 
L 1894 763 
L 2988 3500 
L 3597 3500 
L 2059 -325 
z
" transform="scale(0.015625)"/>
      </defs>
      <use xlink:href="#DejaVuSans-61"/>
      <use xlink:href="#DejaVuSans-63" x="61.279297"/>
      <use xlink:href="#DejaVuSans-63" x="116.259766"/>
      <use xlink:href="#DejaVuSans-75" x="171.240234"/>
      <use xlink:href="#DejaVuSans-72" x="234.619141"/>
      <use xlink:href="#DejaVuSans-61" x="275.732422"/>
      <use xlink:href="#DejaVuSans-63" x="337.011719"/>
      <use xlink:href="#DejaVuSans-79" x="391.992188"/>
     </g>
    </g>
   </g>
  </g>
  <g id="axes_2">
   <g id="patch_8">
    <path d="M 404.51114 183.49478 
L 699.28761 183.49478 
L 699.28761 8.53478 
L 404.51114 8.53478 
L 404.51114 183.49478 
z
" style="fill: none"/>
   </g>
   <g id="matplotlib.axis_3">
    <g id="xtick_7">
     <g id="line2d_27">
      <path d="M 417.91007 183.49478 
L 417.91007 8.53478 
" clip-path="url(#p50583808ce)" style="fill: none; stroke: #cbcbcb"/>
     </g>
     <g id="line2d_28"/>
     <g id="text_14">
      <!-- 0 -->
      <g transform="translate(413.45632 197.632592) scale(0.14 -0.14)">
       <use xlink:href="#DejaVuSans-30"/>
      </g>
     </g>
    </g>
    <g id="xtick_8">
     <g id="line2d_29">
      <path d="M 470.352068 183.49478 
L 470.352068 8.53478 
" clip-path="url(#p50583808ce)" style="fill: none; stroke: #cbcbcb"/>
     </g>
     <g id="line2d_30"/>
     <g id="text_15">
      <!-- 100 -->
      <g transform="translate(456.990818 197.632592) scale(0.14 -0.14)">
       <use xlink:href="#DejaVuSans-31"/>
       <use xlink:href="#DejaVuSans-30" x="63.623047"/>
       <use xlink:href="#DejaVuSans-30" x="127.246094"/>
      </g>
     </g>
    </g>
    <g id="xtick_9">
     <g id="line2d_31">
      <path d="M 522.794066 183.49478 
L 522.794066 8.53478 
" clip-path="url(#p50583808ce)" style="fill: none; stroke: #cbcbcb"/>
     </g>
     <g id="line2d_32"/>
     <g id="text_16">
      <!-- 200 -->
      <g transform="translate(509.432816 197.632592) scale(0.14 -0.14)">
       <use xlink:href="#DejaVuSans-32"/>
       <use xlink:href="#DejaVuSans-30" x="63.623047"/>
       <use xlink:href="#DejaVuSans-30" x="127.246094"/>
      </g>
     </g>
    </g>
    <g id="xtick_10">
     <g id="line2d_33">
      <path d="M 575.236064 183.49478 
L 575.236064 8.53478 
" clip-path="url(#p50583808ce)" style="fill: none; stroke: #cbcbcb"/>
     </g>
     <g id="line2d_34"/>
     <g id="text_17">
      <!-- 300 -->
      <g transform="translate(561.874814 197.632592) scale(0.14 -0.14)">
       <use xlink:href="#DejaVuSans-33"/>
       <use xlink:href="#DejaVuSans-30" x="63.623047"/>
       <use xlink:href="#DejaVuSans-30" x="127.246094"/>
      </g>
     </g>
    </g>
    <g id="xtick_11">
     <g id="line2d_35">
      <path d="M 627.678062 183.49478 
L 627.678062 8.53478 
" clip-path="url(#p50583808ce)" style="fill: none; stroke: #cbcbcb"/>
     </g>
     <g id="line2d_36"/>
     <g id="text_18">
      <!-- 400 -->
      <g transform="translate(614.316812 197.632592) scale(0.14 -0.14)">
       <use xlink:href="#DejaVuSans-34"/>
       <use xlink:href="#DejaVuSans-30" x="63.623047"/>
       <use xlink:href="#DejaVuSans-30" x="127.246094"/>
      </g>
     </g>
    </g>
    <g id="xtick_12">
     <g id="line2d_37">
      <path d="M 680.12006 183.49478 
L 680.12006 8.53478 
" clip-path="url(#p50583808ce)" style="fill: none; stroke: #cbcbcb"/>
     </g>
     <g id="line2d_38"/>
     <g id="text_19">
      <!-- 500 -->
      <g transform="translate(666.75881 197.632592) scale(0.14 -0.14)">
       <use xlink:href="#DejaVuSans-35"/>
       <use xlink:href="#DejaVuSans-30" x="63.623047"/>
       <use xlink:href="#DejaVuSans-30" x="127.246094"/>
      </g>
     </g>
    </g>
   </g>
   <g id="matplotlib.axis_4">
    <g id="ytick_7">
     <g id="line2d_39">
      <path d="M 404.51114 182.007696 
L 699.28761 182.007696 
" clip-path="url(#p50583808ce)" style="fill: none; stroke: #cbcbcb"/>
     </g>
     <g id="line2d_40"/>
     <g id="text_20">
      <!-- 0 -->
      <g transform="translate(392.10364 187.326602) scale(0.14 -0.14)">
       <use xlink:href="#DejaVuSans-30"/>
      </g>
     </g>
    </g>
    <g id="ytick_8">
     <g id="line2d_41">
      <path d="M 404.51114 145.154577 
L 699.28761 145.154577 
" clip-path="url(#p50583808ce)" style="fill: none; stroke: #cbcbcb"/>
     </g>
     <g id="line2d_42"/>
     <g id="text_21">
      <!-- 20 -->
      <g transform="translate(383.19614 150.473484) scale(0.14 -0.14)">
       <use xlink:href="#DejaVuSans-32"/>
       <use xlink:href="#DejaVuSans-30" x="63.623047"/>
      </g>
     </g>
    </g>
    <g id="ytick_9">
     <g id="line2d_43">
      <path d="M 404.51114 108.301459 
L 699.28761 108.301459 
" clip-path="url(#p50583808ce)" style="fill: none; stroke: #cbcbcb"/>
     </g>
     <g id="line2d_44"/>
     <g id="text_22">
      <!-- 40 -->
      <g transform="translate(383.19614 113.620366) scale(0.14 -0.14)">
       <use xlink:href="#DejaVuSans-34"/>
       <use xlink:href="#DejaVuSans-30" x="63.623047"/>
      </g>
     </g>
    </g>
    <g id="ytick_10">
     <g id="line2d_45">
      <path d="M 404.51114 71.448341 
L 699.28761 71.448341 
" clip-path="url(#p50583808ce)" style="fill: none; stroke: #cbcbcb"/>
     </g>
     <g id="line2d_46"/>
     <g id="text_23">
      <!-- 60 -->
      <g transform="translate(383.19614 76.767247) scale(0.14 -0.14)">
       <defs>
        <path id="DejaVuSans-36" d="M 2113 2584 
Q 1688 2584 1439 2293 
Q 1191 2003 1191 1497 
Q 1191 994 1439 701 
Q 1688 409 2113 409 
Q 2538 409 2786 701 
Q 3034 994 3034 1497 
Q 3034 2003 2786 2293 
Q 2538 2584 2113 2584 
z
M 3366 4563 
L 3366 3988 
Q 3128 4100 2886 4159 
Q 2644 4219 2406 4219 
Q 1781 4219 1451 3797 
Q 1122 3375 1075 2522 
Q 1259 2794 1537 2939 
Q 1816 3084 2150 3084 
Q 2853 3084 3261 2657 
Q 3669 2231 3669 1497 
Q 3669 778 3244 343 
Q 2819 -91 2113 -91 
Q 1303 -91 875 529 
Q 447 1150 447 2328 
Q 447 3434 972 4092 
Q 1497 4750 2381 4750 
Q 2619 4750 2861 4703 
Q 3103 4656 3366 4563 
z
" transform="scale(0.015625)"/>
       </defs>
       <use xlink:href="#DejaVuSans-36"/>
       <use xlink:href="#DejaVuSans-30" x="63.623047"/>
      </g>
     </g>
    </g>
    <g id="ytick_11">
     <g id="line2d_47">
      <path d="M 404.51114 34.595223 
L 699.28761 34.595223 
" clip-path="url(#p50583808ce)" style="fill: none; stroke: #cbcbcb"/>
     </g>
     <g id="line2d_48"/>
     <g id="text_24">
      <!-- 80 -->
      <g transform="translate(383.19614 39.914129) scale(0.14 -0.14)">
       <defs>
        <path id="DejaVuSans-38" d="M 2034 2216 
Q 1584 2216 1326 1975 
Q 1069 1734 1069 1313 
Q 1069 891 1326 650 
Q 1584 409 2034 409 
Q 2484 409 2743 651 
Q 3003 894 3003 1313 
Q 3003 1734 2745 1975 
Q 2488 2216 2034 2216 
z
M 1403 2484 
Q 997 2584 770 2862 
Q 544 3141 544 3541 
Q 544 4100 942 4425 
Q 1341 4750 2034 4750 
Q 2731 4750 3128 4425 
Q 3525 4100 3525 3541 
Q 3525 3141 3298 2862 
Q 3072 2584 2669 2484 
Q 3125 2378 3379 2068 
Q 3634 1759 3634 1313 
Q 3634 634 3220 271 
Q 2806 -91 2034 -91 
Q 1263 -91 848 271 
Q 434 634 434 1313 
Q 434 1759 690 2068 
Q 947 2378 1403 2484 
z
M 1172 3481 
Q 1172 3119 1398 2916 
Q 1625 2713 2034 2713 
Q 2441 2713 2670 2916 
Q 2900 3119 2900 3481 
Q 2900 3844 2670 4047 
Q 2441 4250 2034 4250 
Q 1625 4250 1398 4047 
Q 1172 3844 1172 3481 
z
" transform="scale(0.015625)"/>
       </defs>
       <use xlink:href="#DejaVuSans-38"/>
       <use xlink:href="#DejaVuSans-30" x="63.623047"/>
      </g>
     </g>
    </g>
   </g>
   <g id="line2d_49">
    <path d="M 417.91007 16.487507 
L 418.43449 73.408694 
L 418.95891 81.54012 
L 419.48333 133.305024 
L 420.00775 114.06676 
L 421.05659 123.790839 
L 421.58101 134.396071 
L 422.10543 133.595803 
L 422.62985 84.217427 
L 423.15427 93.353885 
L 423.67869 86.125799 
L 424.20311 117.111426 
L 424.72753 129.039808 
L 425.25195 99.031967 
L 425.77637 62.093536 
L 426.30079 95.22451 
L 426.82521 119.457455 
L 427.34963 91.640755 
L 427.87405 130.715342 
L 428.39847 121.000478 
L 428.92289 152.943595 
L 429.44731 165.179785 
L 429.97173 156.851957 
L 430.49615 126.628963 
L 431.02057 111.673347 
L 431.54499 129.042557 
L 432.06941 128.007803 
L 432.59383 133.67286 
L 433.11825 126.105722 
L 433.64267 131.393939 
L 434.16709 128.123141 
L 434.69151 164.484391 
L 435.21593 154.245003 
L 435.740349 125.492135 
L 436.264769 124.36778 
L 436.789189 104.199261 
L 437.313609 146.015813 
L 437.838029 151.656103 
L 438.362449 146.812169 
L 438.886869 144.862069 
L 439.411289 154.488058 
L 439.935709 161.426923 
L 440.460129 161.951067 
L 440.984549 169.240074 
L 441.508969 151.398793 
L 442.033389 154.527565 
L 442.557809 158.429609 
L 443.082229 157.370091 
L 443.606649 142.904194 
L 444.131069 160.395393 
L 444.655489 161.458414 
L 445.179909 161.433998 
L 445.704329 173.162319 
L 446.228749 148.969606 
L 446.753169 110.280523 
L 447.277589 144.595842 
L 447.802009 154.577193 
L 448.326429 154.525416 
L 448.850849 147.224803 
L 449.375269 157.717658 
L 449.899689 163.078449 
L 450.424109 165.454002 
L 451.472949 160.006455 
L 451.997369 152.041218 
L 452.521789 158.592368 
L 453.046209 163.376637 
L 453.570629 157.022012 
L 454.095049 165.228888 
L 454.619469 155.888962 
L 455.143889 166.659433 
L 455.668309 155.425463 
L 456.192729 174.942389 
L 457.241569 157.684464 
L 457.765989 162.346448 
L 458.290409 151.327142 
L 458.814829 153.721568 
L 459.339249 166.082261 
L 459.863669 167.557023 
L 460.388089 161.663819 
L 460.912509 168.018731 
L 461.436929 169.36355 
L 461.961348 166.62898 
L 462.485768 152.00306 
L 463.010188 159.201137 
L 463.534608 157.238517 
L 464.059028 166.177707 
L 464.583448 156.44398 
L 465.107868 152.235518 
L 465.632288 167.816982 
L 466.156708 169.419001 
L 466.681128 169.026708 
L 467.205548 158.800259 
L 467.729968 163.146303 
L 468.254388 149.00976 
L 468.778808 149.723966 
L 469.303228 148.625605 
L 469.827648 165.478694 
L 470.352068 168.874943 
L 470.876488 165.597742 
L 471.400908 171.430494 
L 471.925328 167.658118 
L 472.449748 168.152432 
L 472.974168 157.760637 
L 473.498588 150.059627 
L 474.023008 167.218755 
L 474.547428 167.856832 
L 475.071848 160.867193 
L 475.596268 138.054834 
L 476.120688 167.164494 
L 476.645108 161.198935 
L 477.169528 170.48347 
L 477.693948 161.207054 
L 478.218368 160.811846 
L 478.742788 131.840727 
L 479.267208 156.760971 
L 479.791628 165.72529 
L 480.316048 163.604064 
L 480.840468 170.738996 
L 481.364888 168.223941 
L 481.889308 166.791199 
L 482.413728 172.862572 
L 482.938148 172.013484 
L 483.462568 164.79831 
L 483.986988 160.856843 
L 484.511408 162.127625 
L 485.035828 161.561911 
L 485.560248 162.741581 
L 486.084668 159.369276 
L 486.609088 163.970888 
L 487.133508 159.863345 
L 487.657927 174.417539 
L 488.182347 165.632968 
L 488.706767 165.605671 
L 489.231187 145.989594 
L 489.755607 160.450724 
L 490.280027 166.479054 
L 490.804447 161.12091 
L 491.328867 166.758596 
L 491.853287 156.836285 
L 492.377707 165.092827 
L 492.902127 169.435882 
L 493.426547 171.764952 
L 493.950967 167.235813 
L 494.475387 150.603934 
L 494.999807 163.906624 
L 495.524227 162.220083 
L 496.573067 169.588234 
L 497.097487 159.652594 
L 497.621907 172.886724 
L 498.146327 170.683553 
L 499.195167 158.626178 
L 499.719587 145.594136 
L 500.244007 157.532126 
L 500.768427 162.818599 
L 501.292847 172.216356 
L 501.817267 164.817466 
L 502.341687 160.238964 
L 502.866107 168.45866 
L 503.390527 172.664199 
L 503.914947 169.179552 
L 504.439367 168.395142 
L 504.963787 166.365071 
L 505.488207 159.30394 
L 506.012627 167.222435 
L 506.537047 169.810257 
L 507.585887 162.906004 
L 508.110307 171.764935 
L 508.634727 163.664351 
L 509.159147 172.385165 
L 509.683567 159.486669 
L 510.207987 152.865195 
L 510.732407 156.747709 
L 511.256827 165.776961 
L 511.781247 143.137341 
L 512.305667 163.722214 
L 512.830087 165.975472 
L 513.354506 165.693247 
L 513.878926 166.904674 
L 514.403346 167.16824 
L 515.452186 155.669699 
L 515.976606 152.778736 
L 516.501026 161.294555 
L 517.025446 163.485322 
L 517.549866 156.741442 
L 518.074286 155.977566 
L 518.598706 159.555361 
L 519.123126 160.573676 
L 519.647546 174.24195 
L 520.171966 162.436191 
L 520.696386 159.158825 
L 521.220806 156.91833 
L 521.745226 158.283933 
L 522.269646 150.8344 
L 522.794066 169.193614 
L 523.318486 169.583585 
L 523.842906 168.813158 
L 524.367326 169.454839 
L 524.891746 169.684195 
L 525.416166 169.505834 
L 525.940586 163.397907 
L 526.465006 159.319327 
L 527.513846 170.790267 
L 528.038266 159.719385 
L 528.562686 162.592573 
L 529.087106 159.367106 
L 529.611526 172.22457 
L 530.135946 163.115624 
L 530.660366 164.727416 
L 531.184786 160.676603 
L 531.709206 144.528151 
L 532.233626 157.05161 
L 532.758046 153.984691 
L 533.282466 158.377035 
L 533.806886 158.351766 
L 534.331306 164.25353 
L 534.855726 171.721587 
L 535.380146 165.045844 
L 535.904566 170.106965 
L 536.428986 154.263512 
L 536.953406 147.511941 
L 537.477826 168.871489 
L 538.526666 164.503594 
L 539.051085 160.76364 
L 539.575505 171.558532 
L 540.099925 163.084046 
L 540.624345 166.465238 
L 541.148765 164.802949 
L 541.673185 162.310409 
L 542.197605 156.318848 
L 542.722025 155.718972 
L 543.770865 167.838948 
L 544.295285 167.518291 
L 544.819705 173.231878 
L 545.344125 172.295199 
L 545.868545 175.542053 
L 546.392965 162.643638 
L 546.917385 163.501521 
L 547.441805 158.022687 
L 547.966225 155.527593 
L 549.015065 165.555974 
L 549.539485 162.584118 
L 550.063905 171.189616 
L 550.588325 174.994769 
L 551.112745 171.445737 
L 551.637165 169.507426 
L 552.161585 97.013182 
L 552.686005 120.345697 
L 553.210425 151.246007 
L 553.734845 157.09554 
L 554.259265 127.932046 
L 554.783685 153.625116 
L 555.308105 164.478082 
L 555.832525 154.279623 
L 556.356945 162.799071 
L 556.881365 148.839777 
L 557.405785 149.685534 
L 557.930205 133.620289 
L 558.454625 154.304561 
L 558.979045 154.91905 
L 559.503465 147.214575 
L 560.027885 158.130746 
L 560.552305 157.328688 
L 561.076725 157.16973 
L 561.601145 152.426772 
L 562.125565 153.44862 
L 562.649985 142.21853 
L 563.698825 152.827364 
L 564.223245 152.013101 
L 564.747665 137.988401 
L 565.272084 151.162799 
L 565.796504 119.212889 
L 566.320924 145.577804 
L 566.845344 150.771373 
L 567.369764 153.000166 
L 568.418604 145.43236 
L 568.943024 150.748271 
L 569.467444 161.672912 
L 569.991864 157.201298 
L 570.516284 149.21801 
L 571.040704 146.302477 
L 571.565124 160.192971 
L 572.089544 160.750368 
L 573.138384 135.800781 
L 573.662804 148.33129 
L 574.187224 153.798568 
L 574.711644 149.285616 
L 575.236064 148.645346 
L 575.760484 144.950749 
L 576.284904 157.471132 
L 576.809324 155.795235 
L 577.333744 161.929414 
L 577.858164 154.013899 
L 578.382584 144.305791 
L 578.907004 145.809134 
L 579.431424 129.650763 
L 579.955844 156.219298 
L 580.480264 159.945567 
L 581.004684 146.614115 
L 582.577944 166.303536 
L 583.102364 160.329918 
L 583.626784 147.565662 
L 584.151204 150.271317 
L 584.675624 149.00717 
L 585.200044 154.720859 
L 585.724464 138.206116 
L 586.248884 154.703934 
L 586.773304 153.125117 
L 587.297724 165.503041 
L 587.822144 160.748253 
L 588.346564 164.050859 
L 588.870984 145.767578 
L 589.395404 149.676769 
L 589.919824 147.414988 
L 590.444244 146.248222 
L 590.968663 161.521168 
L 591.493083 150.176975 
L 592.017503 152.261983 
L 592.541923 161.537995 
L 593.590763 155.990473 
L 594.115183 134.692425 
L 594.639603 126.04531 
L 595.164023 146.053064 
L 595.688443 150.96916 
L 596.212863 132.863201 
L 596.737283 158.789926 
L 597.261703 160.39633 
L 597.786123 154.334171 
L 598.310543 152.510317 
L 598.834963 155.505826 
L 599.359383 130.929468 
L 599.883803 144.85001 
L 600.408223 148.605206 
L 600.932643 155.790934 
L 601.457063 147.534174 
L 601.981483 159.820263 
L 602.505903 149.713046 
L 603.030323 153.388336 
L 603.554743 149.815286 
L 604.079163 160.958351 
L 604.603583 142.570435 
L 605.128003 142.06146 
L 605.652423 154.16686 
L 606.176843 143.253256 
L 606.701263 141.493942 
L 607.225683 143.798611 
L 607.750103 157.784698 
L 608.274523 165.877041 
L 608.798943 152.152532 
L 609.323363 163.95557 
L 610.372203 146.335127 
L 611.421043 157.043681 
L 611.945463 157.585989 
L 612.469883 153.202676 
L 612.994303 155.4338 
L 613.518723 153.583616 
L 614.043143 156.648139 
L 614.567563 158.130405 
L 615.091983 148.228421 
L 615.616403 126.916404 
L 616.140823 144.322994 
L 616.665242 142.235073 
L 617.189662 148.525109 
L 617.714082 140.461057 
L 618.238502 145.878386 
L 618.762922 145.912762 
L 619.287342 152.140944 
L 619.811762 156.478122 
L 620.336182 156.345535 
L 620.860602 142.476023 
L 621.385022 146.926945 
L 621.909442 153.472287 
L 622.958282 142.170373 
L 623.482702 155.776938 
L 624.007122 159.477232 
L 624.531542 154.153142 
L 625.055962 157.075379 
L 625.580382 158.63294 
L 626.104802 116.339138 
L 626.629222 143.446537 
L 627.153642 140.446405 
L 627.678062 152.172259 
L 628.202482 136.026256 
L 628.726902 138.077545 
L 629.251322 158.430788 
L 629.775742 146.446107 
L 630.300162 158.418823 
L 630.824582 153.596314 
L 631.349002 151.965387 
L 631.873422 135.836156 
L 632.397842 142.475267 
L 632.922262 163.031177 
L 633.446682 153.433077 
L 633.971102 137.566995 
L 635.544362 164.177061 
L 636.068782 163.77004 
L 636.593202 149.367728 
L 637.117622 152.738786 
L 637.642042 126.190332 
L 638.166462 154.836434 
L 638.690882 146.019658 
L 639.215302 150.317903 
L 639.739722 152.632965 
L 640.264142 152.769115 
L 640.788562 155.386873 
L 641.312982 142.462632 
L 641.837402 124.048472 
L 642.361821 138.838949 
L 642.886241 130.217968 
L 643.410661 148.081708 
L 643.935081 151.337362 
L 644.459501 138.74971 
L 644.983921 149.923584 
L 645.508341 149.859179 
L 646.032761 162.49721 
L 646.557181 159.650621 
L 647.081601 138.184423 
L 647.606021 147.051695 
L 648.130441 124.057087 
L 648.654861 153.813067 
L 649.179281 130.174616 
L 649.703701 148.04373 
L 650.228121 136.157347 
L 650.752541 146.715472 
L 651.276961 140.604396 
L 651.801381 154.188409 
L 652.325801 155.347959 
L 652.850221 136.183868 
L 653.374641 140.219141 
L 653.899061 158.369993 
L 654.423481 161.974675 
L 655.472321 130.97299 
L 655.996741 155.278669 
L 656.521161 156.319108 
L 657.045581 150.261673 
L 657.570001 138.480204 
L 658.094421 140.096289 
L 658.618841 139.657693 
L 659.143261 143.922824 
L 659.667681 101.655522 
L 660.192101 133.800552 
L 660.716521 120.97336 
L 661.240941 154.450657 
L 661.765361 150.417078 
L 662.289781 160.298907 
L 662.814201 147.563145 
L 663.863041 134.167823 
L 664.387461 150.620323 
L 664.911881 146.271141 
L 665.436301 137.35115 
L 665.960721 150.173482 
L 666.485141 155.095143 
L 667.009561 145.696442 
L 667.533981 145.471959 
L 668.058401 130.055612 
L 668.58282 133.359777 
L 669.10724 127.04528 
L 669.63166 149.490344 
L 670.15608 136.886342 
L 670.6805 136.103507 
L 671.20492 123.274648 
L 671.72934 150.327642 
L 672.25376 152.70658 
L 672.77818 158.871837 
L 673.82702 145.005594 
L 674.35144 144.275372 
L 674.87586 149.218955 
L 675.40028 152.303128 
L 675.9247 144.653267 
L 676.44912 143.805904 
L 676.97354 159.313245 
L 677.49796 148.92367 
L 678.02238 161.554938 
L 678.5468 142.539514 
L 679.07122 140.764145 
L 679.59564 140.947578 
L 680.12006 138.761649 
L 680.64448 129.044205 
L 681.1689 139.281354 
L 681.69332 126.170127 
L 682.21774 143.85036 
L 682.74216 148.247994 
L 683.26658 153.739965 
L 683.791 135.882727 
L 684.31542 150.218314 
L 684.83984 138.725593 
L 685.36426 153.021276 
L 685.88868 148.18295 
L 685.88868 148.18295 
" clip-path="url(#p50583808ce)" style="fill: none; stroke: #008fd5; stroke-opacity: 0.4; stroke-width: 4"/>
   </g>
   <g id="line2d_50">
    <path d="M 417.91007 16.487507 
L 418.95891 22.443889 
L 419.48333 27.986956 
L 422.10543 50.067364 
L 423.67869 55.467429 
L 424.72753 62.07415 
L 425.25195 63.922049 
L 425.77637 63.830628 
L 426.30079 65.400327 
L 426.82521 68.103185 
L 427.34963 69.280066 
L 428.92289 78.692236 
L 429.97173 86.708391 
L 430.49615 88.704416 
L 431.02057 89.852864 
L 432.59383 95.624659 
L 434.16709 100.324084 
L 435.21593 106.067749 
L 436.264769 107.905408 
L 436.789189 107.720097 
L 440.460129 121.384784 
L 440.984549 123.777547 
L 442.557809 128.217184 
L 443.082229 129.674831 
L 443.606649 130.336301 
L 445.704329 136.647726 
L 446.228749 137.26382 
L 446.753169 135.914654 
L 447.277589 136.348712 
L 448.326429 138.1234 
L 448.850849 138.578472 
L 449.899689 140.712586 
L 450.948529 142.992316 
L 451.472949 143.843021 
L 451.997369 144.252931 
L 452.521789 144.969903 
L 453.046209 145.89024 
L 453.570629 146.446828 
L 454.095049 147.385933 
L 454.619469 147.811085 
L 455.143889 148.753504 
L 455.668309 149.087102 
L 456.192729 150.379865 
L 456.717149 151.136148 
L 457.241569 151.463564 
L 457.765989 152.00771 
L 458.290409 151.973682 
L 458.814829 152.061075 
L 459.863669 153.50188 
L 460.388089 153.909978 
L 461.961348 155.91663 
L 462.485768 155.720952 
L 463.534608 155.962141 
L 464.059028 156.472919 
L 464.583448 156.471473 
L 465.107868 156.259675 
L 466.681128 158.044621 
L 467.205548 158.082403 
L 467.729968 158.335599 
L 469.303228 157.020221 
L 469.827648 157.443145 
L 470.352068 158.014735 
L 470.876488 158.393885 
L 471.400908 159.045716 
L 472.449748 159.910141 
L 472.974168 159.802665 
L 473.498588 159.315514 
L 474.547428 160.117985 
L 475.071848 160.155447 
L 475.596268 159.050417 
L 476.120688 159.456122 
L 476.645108 159.543264 
L 477.169528 160.090275 
L 478.218368 160.179401 
L 478.742788 158.762467 
L 479.267208 158.662393 
L 480.840468 159.819664 
L 482.413728 161.182199 
L 482.938148 161.723763 
L 483.462568 161.877491 
L 485.035828 161.827537 
L 485.560248 161.873239 
L 486.084668 161.748042 
L 486.609088 161.859186 
L 487.133508 161.759394 
L 487.657927 162.392301 
L 488.706767 162.706902 
L 489.231187 161.871039 
L 489.755607 161.800023 
L 490.280027 162.033975 
L 490.804447 161.988322 
L 491.328867 162.226836 
L 491.853287 161.957309 
L 492.377707 162.114086 
L 493.950967 163.158987 
L 494.475387 162.531234 
L 496.048647 162.745886 
L 496.573067 163.088003 
L 497.097487 162.916233 
L 498.146327 163.778198 
L 498.670747 163.839641 
L 499.195167 163.578968 
L 499.719587 162.679728 
L 500.244007 162.422347 
L 500.768427 162.442161 
L 501.292847 162.930871 
L 501.817267 163.025201 
L 502.341687 162.88589 
L 502.866107 163.164528 
L 503.390527 163.639512 
L 504.439367 164.140446 
L 504.963787 164.251678 
L 505.488207 164.004291 
L 506.012627 164.165198 
L 506.537047 164.447451 
L 507.061467 164.539144 
L 507.585887 164.457488 
L 508.110307 164.82286 
L 508.634727 164.764936 
L 509.159147 165.145949 
L 509.683567 164.862986 
L 510.207987 164.263097 
L 510.732407 163.887327 
L 511.256827 163.981808 
L 511.781247 162.939586 
L 512.830087 163.128556 
L 514.403346 163.625638 
L 514.927766 163.500282 
L 515.976606 162.592253 
L 516.501026 162.527368 
L 517.025446 162.575267 
L 518.074286 161.968275 
L 519.123126 161.783931 
L 519.647546 162.406832 
L 520.171966 162.408299 
L 521.220806 161.979451 
L 521.745226 161.794675 
L 522.269646 161.246662 
L 524.367326 162.733362 
L 525.416166 163.402149 
L 525.940586 163.401938 
L 526.465006 163.197808 
L 526.989426 163.290141 
L 527.513846 163.665147 
L 528.038266 163.46786 
L 528.562686 163.424096 
L 529.087106 163.221246 
L 529.611526 163.671412 
L 531.184786 163.546753 
L 531.709206 162.595822 
L 532.233626 162.318611 
L 532.758046 161.901916 
L 533.806886 161.556979 
L 534.331306 161.691807 
L 534.855726 162.193296 
L 535.380146 162.335924 
L 535.904566 162.724475 
L 536.428986 162.301428 
L 536.953406 161.561953 
L 537.477826 161.927432 
L 538.526666 162.2708 
L 539.051085 162.195442 
L 539.575505 162.663597 
L 540.099925 162.68462 
L 541.148765 162.970117 
L 541.673185 162.937131 
L 542.722025 162.261854 
L 543.246445 162.251127 
L 544.295285 162.779907 
L 545.868545 164.341637 
L 546.917385 164.218978 
L 548.490645 163.353797 
L 549.015065 163.463907 
L 549.539485 163.419919 
L 550.063905 163.808404 
L 550.588325 164.367722 
L 551.637165 164.960914 
L 552.161585 161.563528 
L 552.686005 159.502637 
L 553.210425 159.089807 
L 553.734845 158.990093 
L 554.259265 157.43719 
L 554.783685 157.246587 
L 555.308105 157.608162 
L 555.832525 157.441736 
L 556.356945 157.709604 
L 557.405785 156.887085 
L 557.930205 155.723746 
L 558.979045 155.6161 
L 559.503465 155.196024 
L 561.076725 155.528439 
L 562.125565 155.277119 
L 562.649985 154.62419 
L 563.174405 154.261941 
L 564.223245 154.081358 
L 564.747665 153.276711 
L 565.272084 153.171015 
L 565.796504 151.473109 
L 566.320924 151.178344 
L 566.845344 151.157995 
L 567.369764 151.250105 
L 567.894184 151.133203 
L 568.418604 150.84816 
L 568.943024 150.843165 
L 569.467444 151.384654 
L 569.991864 151.675486 
L 570.516284 151.552613 
L 571.040704 151.290105 
L 572.089544 152.186005 
L 572.613964 151.99466 
L 573.138384 151.184966 
L 573.662804 151.042284 
L 574.187224 151.180098 
L 575.236064 150.963371 
L 575.760484 150.66274 
L 577.333744 151.777097 
L 577.858164 151.888938 
L 578.907004 151.224748 
L 579.431424 150.14605 
L 579.955844 150.449711 
L 580.480264 150.924503 
L 581.004684 150.708985 
L 581.529104 150.82315 
L 582.053524 151.222881 
L 582.577944 151.976915 
L 583.102364 152.394564 
L 583.626784 152.153119 
L 584.675624 151.906437 
L 585.200044 152.047157 
L 585.724464 151.355107 
L 586.773304 151.602678 
L 587.297724 152.297695 
L 587.822144 152.720222 
L 588.346564 153.286754 
L 588.870984 152.910797 
L 589.919824 152.482393 
L 590.444244 152.170685 
L 590.968663 152.638209 
L 592.017503 152.50249 
L 592.541923 152.954265 
L 593.066343 153.252626 
L 593.590763 153.389519 
L 594.115183 152.454663 
L 594.639603 151.134198 
L 595.164023 150.880142 
L 595.688443 150.884595 
L 596.212863 149.983525 
L 597.261703 150.922468 
L 598.834963 151.381017 
L 599.359383 150.358441 
L 599.883803 150.08302 
L 600.408223 150.009129 
L 600.932643 150.298218 
L 601.457063 150.160017 
L 601.981483 150.643031 
L 602.505903 150.596533 
L 603.030323 150.736125 
L 603.554743 150.690084 
L 604.079163 151.203498 
L 605.128003 150.336327 
L 605.652423 150.527854 
L 607.225683 149.434013 
L 607.750103 149.851546 
L 608.274523 150.652819 
L 608.798943 150.727806 
L 609.323363 151.389195 
L 609.847783 151.537866 
L 610.372203 151.27773 
L 610.896623 151.275561 
L 611.945463 151.86507 
L 612.994303 152.107046 
L 613.518723 152.180877 
L 614.567563 152.690548 
L 615.091983 152.467442 
L 615.616403 151.18989 
L 616.665242 150.415974 
L 617.189662 150.321432 
L 617.714082 149.828413 
L 618.762922 149.445003 
L 619.287342 149.579801 
L 620.336182 150.245759 
L 620.860602 149.857274 
L 621.385022 149.710758 
L 621.909442 149.898834 
L 622.433862 149.77608 
L 622.958282 149.395795 
L 623.482702 149.714853 
L 624.007122 150.202973 
L 624.531542 150.400482 
L 625.580382 151.129165 
L 626.104802 149.389662 
L 626.629222 149.092507 
L 627.153642 148.660202 
L 627.678062 148.835805 
L 628.726902 147.689438 
L 629.251322 148.226506 
L 629.775742 148.137488 
L 630.300162 148.651557 
L 631.349002 149.052125 
L 631.873422 148.391326 
L 632.397842 148.095524 
L 632.922262 148.842307 
L 633.446682 149.071845 
L 633.971102 148.496602 
L 634.495522 148.417348 
L 635.019942 148.88367 
L 636.068782 150.354423 
L 636.593202 150.305089 
L 637.117622 150.426775 
L 637.642042 149.214955 
L 638.166462 149.496028 
L 638.690882 149.32221 
L 639.215302 149.371998 
L 640.264142 149.696753 
L 640.788562 149.981259 
L 641.312982 149.605328 
L 641.837402 148.327487 
L 642.361821 147.85306 
L 642.886241 146.971303 
L 643.410661 147.026826 
L 643.935081 147.242355 
L 644.459501 146.817726 
L 645.508341 147.117327 
L 646.557181 148.474537 
L 647.081601 147.960033 
L 647.606021 147.914618 
L 648.130441 146.721742 
L 648.654861 147.076308 
L 649.179281 146.231226 
L 649.703701 146.321849 
L 650.228121 145.813626 
L 650.752541 145.858718 
L 651.276961 145.596003 
L 652.325801 146.491737 
L 652.850221 145.976344 
L 653.374641 145.688482 
L 654.423481 147.105166 
L 654.947901 147.102418 
L 655.472321 146.295947 
L 656.521161 147.223787 
L 657.045581 147.375684 
L 658.094421 146.589183 
L 658.618841 146.242609 
L 659.143261 146.126621 
L 659.667681 143.903065 
L 660.192101 143.397941 
L 660.716521 142.276714 
L 661.240941 142.885412 
L 661.765361 143.261997 
L 662.289781 144.113845 
L 662.814201 144.286309 
L 663.338621 144.121233 
L 663.863041 143.623564 
L 664.387461 143.973402 
L 664.911881 144.08829 
L 665.436301 143.751435 
L 665.960721 144.072538 
L 666.485141 144.623671 
L 667.533981 144.717043 
L 668.058401 143.983974 
L 668.58282 143.452765 
L 669.10724 142.63239 
L 669.63166 142.975287 
L 670.6805 142.342479 
L 671.20492 141.389087 
L 672.25376 142.379544 
L 672.77818 143.204161 
L 673.3026 143.606479 
L 674.35144 143.706381 
L 674.87586 143.982013 
L 675.40028 144.39807 
L 676.44912 144.380585 
L 676.97354 145.127216 
L 677.49796 145.317039 
L 678.02238 146.128934 
L 679.07122 145.690201 
L 680.12006 145.118497 
L 680.64448 144.314781 
L 681.1689 144.063108 
L 681.69332 143.16846 
L 682.21774 143.202555 
L 682.74216 143.454825 
L 683.26658 143.969083 
L 683.791 143.564764 
L 684.31542 143.897441 
L 684.83984 143.638852 
L 685.36426 144.107972 
L 685.88868 144.311723 
L 685.88868 144.311723 
" clip-path="url(#p50583808ce)" style="fill: none; stroke: #008fd5; stroke-width: 4"/>
   </g>
   <g id="patch_9">
    <path d="M 404.51114 183.49478 
L 404.51114 8.53478 
" style="fill: none; stroke: #f0f0f0; stroke-width: 3; stroke-linejoin: miter; stroke-linecap: square"/>
   </g>
   <g id="patch_10">
    <path d="M 699.28761 183.49478 
L 699.28761 8.53478 
" style="fill: none; stroke: #f0f0f0; stroke-width: 3; stroke-linejoin: miter; stroke-linecap: square"/>
   </g>
   <g id="patch_11">
    <path d="M 404.51114 183.49478 
L 699.28761 183.49478 
" style="fill: none; stroke: #f0f0f0; stroke-width: 3; stroke-linejoin: miter; stroke-linecap: square"/>
   </g>
   <g id="patch_12">
    <path d="M 404.51114 8.53478 
L 699.28761 8.53478 
" style="fill: none; stroke: #f0f0f0; stroke-width: 3; stroke-linejoin: miter; stroke-linecap: square"/>
   </g>
   <g id="legend_2">
    <g id="patch_13">
     <path d="M 574.333235 40.284155 
L 689.48761 40.284155 
Q 692.28761 40.284155 692.28761 37.484155 
L 692.28761 18.33478 
Q 692.28761 15.53478 689.48761 15.53478 
L 574.333235 15.53478 
Q 571.533235 15.53478 571.533235 18.33478 
L 571.533235 37.484155 
Q 571.533235 40.284155 574.333235 40.284155 
z
" style="fill: #f0f0f0; opacity: 0.8; stroke: #cccccc; stroke-width: 0.5; stroke-linejoin: miter"/>
    </g>
    <g id="line2d_51">
     <path d="M 577.133235 26.872592 
L 591.133235 26.872592 
L 605.133235 26.872592 
" style="fill: none; stroke: #008fd5; stroke-width: 4"/>
    </g>
    <g id="text_25">
     <!-- perplexity -->
     <g transform="translate(616.333235 31.772592) scale(0.14 -0.14)">
      <defs>
       <path id="DejaVuSans-70" d="M 1159 525 
L 1159 -1331 
L 581 -1331 
L 581 3500 
L 1159 3500 
L 1159 2969 
Q 1341 3281 1617 3432 
Q 1894 3584 2278 3584 
Q 2916 3584 3314 3078 
Q 3713 2572 3713 1747 
Q 3713 922 3314 415 
Q 2916 -91 2278 -91 
Q 1894 -91 1617 61 
Q 1341 213 1159 525 
z
M 3116 1747 
Q 3116 2381 2855 2742 
Q 2594 3103 2138 3103 
Q 1681 3103 1420 2742 
Q 1159 2381 1159 1747 
Q 1159 1113 1420 752 
Q 1681 391 2138 391 
Q 2594 391 2855 752 
Q 3116 1113 3116 1747 
z
" transform="scale(0.015625)"/>
       <path id="DejaVuSans-65" d="M 3597 1894 
L 3597 1613 
L 953 1613 
Q 991 1019 1311 708 
Q 1631 397 2203 397 
Q 2534 397 2845 478 
Q 3156 559 3463 722 
L 3463 178 
Q 3153 47 2828 -22 
Q 2503 -91 2169 -91 
Q 1331 -91 842 396 
Q 353 884 353 1716 
Q 353 2575 817 3079 
Q 1281 3584 2069 3584 
Q 2775 3584 3186 3129 
Q 3597 2675 3597 1894 
z
M 3022 2063 
Q 3016 2534 2758 2815 
Q 2500 3097 2075 3097 
Q 1594 3097 1305 2825 
Q 1016 2553 972 2059 
L 3022 2063 
z
" transform="scale(0.015625)"/>
       <path id="DejaVuSans-6c" d="M 603 4863 
L 1178 4863 
L 1178 0 
L 603 0 
L 603 4863 
z
" transform="scale(0.015625)"/>
       <path id="DejaVuSans-78" d="M 3513 3500 
L 2247 1797 
L 3578 0 
L 2900 0 
L 1881 1375 
L 863 0 
L 184 0 
L 1544 1831 
L 300 3500 
L 978 3500 
L 1906 2253 
L 2834 3500 
L 3513 3500 
z
" transform="scale(0.015625)"/>
       <path id="DejaVuSans-69" d="M 603 3500 
L 1178 3500 
L 1178 0 
L 603 0 
L 603 3500 
z
M 603 4863 
L 1178 4863 
L 1178 4134 
L 603 4134 
L 603 4863 
z
" transform="scale(0.015625)"/>
       <path id="DejaVuSans-74" d="M 1172 4494 
L 1172 3500 
L 2356 3500 
L 2356 3053 
L 1172 3053 
L 1172 1153 
Q 1172 725 1289 603 
Q 1406 481 1766 481 
L 2356 481 
L 2356 0 
L 1766 0 
Q 1100 0 847 248 
Q 594 497 594 1153 
L 594 3053 
L 172 3053 
L 172 3500 
L 594 3500 
L 594 4494 
L 1172 4494 
z
" transform="scale(0.015625)"/>
      </defs>
      <use xlink:href="#DejaVuSans-70"/>
      <use xlink:href="#DejaVuSans-65" x="63.476562"/>
      <use xlink:href="#DejaVuSans-72" x="125"/>
      <use xlink:href="#DejaVuSans-70" x="166.113281"/>
      <use xlink:href="#DejaVuSans-6c" x="229.589844"/>
      <use xlink:href="#DejaVuSans-65" x="257.373047"/>
      <use xlink:href="#DejaVuSans-78" x="317.146484"/>
      <use xlink:href="#DejaVuSans-69" x="376.326172"/>
      <use xlink:href="#DejaVuSans-74" x="404.109375"/>
      <use xlink:href="#DejaVuSans-79" x="443.318359"/>
     </g>
    </g>
   </g>
  </g>
  <g id="axes_3">
   <g id="patch_14">
    <path d="M 758.242904 183.49478 
L 1053.019375 183.49478 
L 1053.019375 8.53478 
L 758.242904 8.53478 
L 758.242904 183.49478 
z
" style="fill: none"/>
   </g>
   <g id="matplotlib.axis_5">
    <g id="xtick_13">
     <g id="line2d_52">
      <path d="M 771.641835 183.49478 
L 771.641835 8.53478 
" clip-path="url(#p99aed8821f)" style="fill: none; stroke: #cbcbcb"/>
     </g>
     <g id="line2d_53"/>
     <g id="text_26">
      <!-- 0 -->
      <g transform="translate(767.188085 197.632592) scale(0.14 -0.14)">
       <use xlink:href="#DejaVuSans-30"/>
      </g>
     </g>
    </g>
    <g id="xtick_14">
     <g id="line2d_54">
      <path d="M 824.083833 183.49478 
L 824.083833 8.53478 
" clip-path="url(#p99aed8821f)" style="fill: none; stroke: #cbcbcb"/>
     </g>
     <g id="line2d_55"/>
     <g id="text_27">
      <!-- 100 -->
      <g transform="translate(810.722583 197.632592) scale(0.14 -0.14)">
       <use xlink:href="#DejaVuSans-31"/>
       <use xlink:href="#DejaVuSans-30" x="63.623047"/>
       <use xlink:href="#DejaVuSans-30" x="127.246094"/>
      </g>
     </g>
    </g>
    <g id="xtick_15">
     <g id="line2d_56">
      <path d="M 876.525831 183.49478 
L 876.525831 8.53478 
" clip-path="url(#p99aed8821f)" style="fill: none; stroke: #cbcbcb"/>
     </g>
     <g id="line2d_57"/>
     <g id="text_28">
      <!-- 200 -->
      <g transform="translate(863.164581 197.632592) scale(0.14 -0.14)">
       <use xlink:href="#DejaVuSans-32"/>
       <use xlink:href="#DejaVuSans-30" x="63.623047"/>
       <use xlink:href="#DejaVuSans-30" x="127.246094"/>
      </g>
     </g>
    </g>
    <g id="xtick_16">
     <g id="line2d_58">
      <path d="M 928.967829 183.49478 
L 928.967829 8.53478 
" clip-path="url(#p99aed8821f)" style="fill: none; stroke: #cbcbcb"/>
     </g>
     <g id="line2d_59"/>
     <g id="text_29">
      <!-- 300 -->
      <g transform="translate(915.606579 197.632592) scale(0.14 -0.14)">
       <use xlink:href="#DejaVuSans-33"/>
       <use xlink:href="#DejaVuSans-30" x="63.623047"/>
       <use xlink:href="#DejaVuSans-30" x="127.246094"/>
      </g>
     </g>
    </g>
    <g id="xtick_17">
     <g id="line2d_60">
      <path d="M 981.409827 183.49478 
L 981.409827 8.53478 
" clip-path="url(#p99aed8821f)" style="fill: none; stroke: #cbcbcb"/>
     </g>
     <g id="line2d_61"/>
     <g id="text_30">
      <!-- 400 -->
      <g transform="translate(968.048577 197.632592) scale(0.14 -0.14)">
       <use xlink:href="#DejaVuSans-34"/>
       <use xlink:href="#DejaVuSans-30" x="63.623047"/>
       <use xlink:href="#DejaVuSans-30" x="127.246094"/>
      </g>
     </g>
    </g>
    <g id="xtick_18">
     <g id="line2d_62">
      <path d="M 1033.851825 183.49478 
L 1033.851825 8.53478 
" clip-path="url(#p99aed8821f)" style="fill: none; stroke: #cbcbcb"/>
     </g>
     <g id="line2d_63"/>
     <g id="text_31">
      <!-- 500 -->
      <g transform="translate(1020.490575 197.632592) scale(0.14 -0.14)">
       <use xlink:href="#DejaVuSans-35"/>
       <use xlink:href="#DejaVuSans-30" x="63.623047"/>
       <use xlink:href="#DejaVuSans-30" x="127.246094"/>
      </g>
     </g>
    </g>
   </g>
   <g id="matplotlib.axis_6">
    <g id="ytick_12">
     <g id="line2d_64">
      <path d="M 758.242904 175.542053 
L 1053.019375 175.542053 
" clip-path="url(#p99aed8821f)" style="fill: none; stroke: #cbcbcb"/>
     </g>
     <g id="line2d_65"/>
     <g id="text_32">
      <!-- 0.0 -->
      <g transform="translate(732.478529 180.860959) scale(0.14 -0.14)">
       <use xlink:href="#DejaVuSans-30"/>
       <use xlink:href="#DejaVuSans-2e" x="63.623047"/>
       <use xlink:href="#DejaVuSans-30" x="95.410156"/>
      </g>
     </g>
    </g>
    <g id="ytick_13">
     <g id="line2d_66">
      <path d="M 758.242904 142.937423 
L 1053.019375 142.937423 
" clip-path="url(#p99aed8821f)" style="fill: none; stroke: #cbcbcb"/>
     </g>
     <g id="line2d_67"/>
     <g id="text_33">
      <!-- 0.2 -->
      <g transform="translate(732.478529 148.25633) scale(0.14 -0.14)">
       <use xlink:href="#DejaVuSans-30"/>
       <use xlink:href="#DejaVuSans-2e" x="63.623047"/>
       <use xlink:href="#DejaVuSans-32" x="95.410156"/>
      </g>
     </g>
    </g>
    <g id="ytick_14">
     <g id="line2d_68">
      <path d="M 758.242904 110.332794 
L 1053.019375 110.332794 
" clip-path="url(#p99aed8821f)" style="fill: none; stroke: #cbcbcb"/>
     </g>
     <g id="line2d_69"/>
     <g id="text_34">
      <!-- 0.4 -->
      <g transform="translate(732.478529 115.6517) scale(0.14 -0.14)">
       <use xlink:href="#DejaVuSans-30"/>
       <use xlink:href="#DejaVuSans-2e" x="63.623047"/>
       <use xlink:href="#DejaVuSans-34" x="95.410156"/>
      </g>
     </g>
    </g>
    <g id="ytick_15">
     <g id="line2d_70">
      <path d="M 758.242904 77.728165 
L 1053.019375 77.728165 
" clip-path="url(#p99aed8821f)" style="fill: none; stroke: #cbcbcb"/>
     </g>
     <g id="line2d_71"/>
     <g id="text_35">
      <!-- 0.6 -->
      <g transform="translate(732.478529 83.047071) scale(0.14 -0.14)">
       <use xlink:href="#DejaVuSans-30"/>
       <use xlink:href="#DejaVuSans-2e" x="63.623047"/>
       <use xlink:href="#DejaVuSans-36" x="95.410156"/>
      </g>
     </g>
    </g>
    <g id="ytick_16">
     <g id="line2d_72">
      <path d="M 758.242904 45.123536 
L 1053.019375 45.123536 
" clip-path="url(#p99aed8821f)" style="fill: none; stroke: #cbcbcb"/>
     </g>
     <g id="line2d_73"/>
     <g id="text_36">
      <!-- 0.8 -->
      <g transform="translate(732.478529 50.442442) scale(0.14 -0.14)">
       <use xlink:href="#DejaVuSans-30"/>
       <use xlink:href="#DejaVuSans-2e" x="63.623047"/>
       <use xlink:href="#DejaVuSans-38" x="95.410156"/>
      </g>
     </g>
    </g>
    <g id="ytick_17">
     <g id="line2d_74">
      <path d="M 758.242904 12.518906 
L 1053.019375 12.518906 
" clip-path="url(#p99aed8821f)" style="fill: none; stroke: #cbcbcb"/>
     </g>
     <g id="line2d_75"/>
     <g id="text_37">
      <!-- 1.0 -->
      <g transform="translate(732.478529 17.837813) scale(0.14 -0.14)">
       <use xlink:href="#DejaVuSans-31"/>
       <use xlink:href="#DejaVuSans-2e" x="63.623047"/>
       <use xlink:href="#DejaVuSans-30" x="95.410156"/>
      </g>
     </g>
    </g>
   </g>
   <g id="line2d_76">
    <path d="M 771.641835 175.542053 
L 776.886035 175.542053 
L 777.410455 171.565689 
L 787.374434 20.463872 
L 787.898854 175.542053 
L 797.862834 20.662506 
L 798.387254 175.542053 
L 808.875653 16.487507 
L 809.400073 171.466275 
L 819.364053 16.586727 
L 819.888473 171.466275 
L 829.852453 16.586727 
L 830.376873 171.565689 
L 840.340852 20.463872 
L 840.865272 175.542053 
L 850.829252 20.662506 
L 851.353672 175.542053 
L 861.317651 20.662506 
L 861.842071 175.542053 
L 872.330471 16.487507 
L 872.854891 171.466275 
L 882.818871 16.586727 
L 883.343291 171.466275 
L 893.30727 16.586727 
L 893.83169 171.565689 
L 903.79567 20.463872 
L 904.32009 175.542053 
L 914.284069 20.662506 
L 914.808489 175.542053 
L 925.296889 16.487507 
L 925.821309 171.466275 
L 935.785289 16.586727 
L 936.309709 171.466275 
L 946.273688 16.586727 
L 946.798108 171.565689 
L 956.762088 20.463872 
L 957.286508 175.542053 
L 967.250487 20.662506 
L 967.774907 175.542053 
L 977.738887 20.662506 
L 978.263307 175.542053 
L 988.751706 16.487507 
L 989.276126 171.565689 
L 999.240106 20.463872 
L 999.764526 175.542053 
L 1009.728506 20.662506 
L 1010.252926 175.542053 
L 1020.216905 20.662506 
L 1020.741325 175.542053 
L 1039.620445 175.542053 
L 1039.620445 175.542053 
" clip-path="url(#p99aed8821f)" style="fill: none; stroke: #008fd5; stroke-width: 4"/>
   </g>
   <g id="patch_15">
    <path d="M 758.242904 183.49478 
L 758.242904 8.53478 
" style="fill: none; stroke: #f0f0f0; stroke-width: 3; stroke-linejoin: miter; stroke-linecap: square"/>
   </g>
   <g id="patch_16">
    <path d="M 1053.019375 183.49478 
L 1053.019375 8.53478 
" style="fill: none; stroke: #f0f0f0; stroke-width: 3; stroke-linejoin: miter; stroke-linecap: square"/>
   </g>
   <g id="patch_17">
    <path d="M 758.242904 183.49478 
L 1053.019375 183.49478 
" style="fill: none; stroke: #f0f0f0; stroke-width: 3; stroke-linejoin: miter; stroke-linecap: square"/>
   </g>
   <g id="patch_18">
    <path d="M 758.242904 8.53478 
L 1053.019375 8.53478 
" style="fill: none; stroke: #f0f0f0; stroke-width: 3; stroke-linejoin: miter; stroke-linecap: square"/>
   </g>
   <g id="legend_3">
    <g id="patch_19">
     <path d="M 966.269687 40.284155 
L 1043.219375 40.284155 
Q 1046.019375 40.284155 1046.019375 37.484155 
L 1046.019375 18.33478 
Q 1046.019375 15.53478 1043.219375 15.53478 
L 966.269687 15.53478 
Q 963.469687 15.53478 963.469687 18.33478 
L 963.469687 37.484155 
Q 963.469687 40.284155 966.269687 40.284155 
z
" style="fill: #f0f0f0; opacity: 0.8; stroke: #cccccc; stroke-width: 0.5; stroke-linejoin: miter"/>
    </g>
    <g id="line2d_77">
     <path d="M 969.069687 26.872592 
L 983.069687 26.872592 
L 997.069687 26.872592 
" style="fill: none; stroke: #008fd5; stroke-width: 4"/>
    </g>
    <g id="text_38">
     <!-- sync -->
     <g transform="translate(1008.269687 31.772592) scale(0.14 -0.14)">
      <defs>
       <path id="DejaVuSans-73" d="M 2834 3397 
L 2834 2853 
Q 2591 2978 2328 3040 
Q 2066 3103 1784 3103 
Q 1356 3103 1142 2972 
Q 928 2841 928 2578 
Q 928 2378 1081 2264 
Q 1234 2150 1697 2047 
L 1894 2003 
Q 2506 1872 2764 1633 
Q 3022 1394 3022 966 
Q 3022 478 2636 193 
Q 2250 -91 1575 -91 
Q 1294 -91 989 -36 
Q 684 19 347 128 
L 347 722 
Q 666 556 975 473 
Q 1284 391 1588 391 
Q 1994 391 2212 530 
Q 2431 669 2431 922 
Q 2431 1156 2273 1281 
Q 2116 1406 1581 1522 
L 1381 1569 
Q 847 1681 609 1914 
Q 372 2147 372 2553 
Q 372 3047 722 3315 
Q 1072 3584 1716 3584 
Q 2034 3584 2315 3537 
Q 2597 3491 2834 3397 
z
" transform="scale(0.015625)"/>
       <path id="DejaVuSans-6e" d="M 3513 2113 
L 3513 0 
L 2938 0 
L 2938 2094 
Q 2938 2591 2744 2837 
Q 2550 3084 2163 3084 
Q 1697 3084 1428 2787 
Q 1159 2491 1159 1978 
L 1159 0 
L 581 0 
L 581 3500 
L 1159 3500 
L 1159 2956 
Q 1366 3272 1645 3428 
Q 1925 3584 2291 3584 
Q 2894 3584 3203 3211 
Q 3513 2838 3513 2113 
z
" transform="scale(0.015625)"/>
      </defs>
      <use xlink:href="#DejaVuSans-73"/>
      <use xlink:href="#DejaVuSans-79" x="52.099609"/>
      <use xlink:href="#DejaVuSans-6e" x="111.279297"/>
      <use xlink:href="#DejaVuSans-63" x="174.658203"/>
     </g>
    </g>
   </g>
  </g>
 </g>
 <defs>
  <clipPath id="p5856bcbcbe">
   <rect x="50.779375" y="8.53478" width="294.776471" height="174.96"/>
  </clipPath>
  <clipPath id="p50583808ce">
   <rect x="404.51114" y="8.53478" width="294.776471" height="174.96"/>
  </clipPath>
  <clipPath id="p99aed8821f">
   <rect x="758.242904" y="8.53478" width="294.776471" height="174.96"/>
  </clipPath>
 </defs>
</svg>
