<?xml version="1.0" encoding="utf-8" standalone="no"?>
<!DOCTYPE svg PUBLIC "-//W3C//DTD SVG 1.1//EN"
  "http://www.w3.org/Graphics/SVG/1.1/DTD/svg11.dtd">
<svg xmlns:xlink="http://www.w3.org/1999/xlink" width="1051.311875pt" height="206.409375pt" viewBox="0 0 1051.311875 206.409375" xmlns="http://www.w3.org/2000/svg" version="1.1">
 <metadata>
  <rdf:RDF xmlns:dc="http://purl.org/dc/elements/1.1/" xmlns:cc="http://creativecommons.org/ns#" xmlns:rdf="http://www.w3.org/1999/02/22-rdf-syntax-ns#">
   <cc:Work>
    <dc:type rdf:resource="http://purl.org/dc/dcmitype/StillImage"/>
    <dc:date>2023-01-19T14:54:42.500614</dc:date>
    <dc:format>image/svg+xml</dc:format>
    <dc:creator>
     <cc:Agent>
      <dc:title>Matplotlib v3.6.0, https://matplotlib.org/</dc:title>
     </cc:Agent>
    </dc:creator>
   </cc:Work>
  </rdf:RDF>
 </metadata>
 <defs>
  <style type="text/css">*{stroke-linejoin: round; stroke-linecap: butt}</style>
 </defs>
 <g id="figure_1">
  <g id="patch_1">
   <path d="M 0 206.409375 
L 1051.311875 206.409375 
L 1051.311875 0 
L 0 0 
L 0 206.409375 
z
" style="fill: none"/>
  </g>
  <g id="axes_1">
   <g id="patch_2">
    <path d="M 41.871875 182.16 
L 336.648346 182.16 
L 336.648346 7.2 
L 41.871875 7.2 
L 41.871875 182.16 
z
" style="fill: none"/>
   </g>
   <g id="matplotlib.axis_1">
    <g id="xtick_1">
     <g id="line2d_1">
      <path d="M 55.270805 182.16 
L 55.270805 7.2 
" clip-path="url(#p722506a576)" style="fill: none; stroke: #cbcbcb"/>
     </g>
     <g id="line2d_2"/>
     <g id="text_1">
      <!-- 0 -->
      <g transform="translate(50.817055 196.297813) scale(0.14 -0.14)">
       <defs>
        <path id="DejaVuSans-30" d="M 2034 4250 
Q 1547 4250 1301 3770 
Q 1056 3291 1056 2328 
Q 1056 1369 1301 889 
Q 1547 409 2034 409 
Q 2525 409 2770 889 
Q 3016 1369 3016 2328 
Q 3016 3291 2770 3770 
Q 2525 4250 2034 4250 
z
M 2034 4750 
Q 2819 4750 3233 4129 
Q 3647 3509 3647 2328 
Q 3647 1150 3233 529 
Q 2819 -91 2034 -91 
Q 1250 -91 836 529 
Q 422 1150 422 2328 
Q 422 3509 836 4129 
Q 1250 4750 2034 4750 
z
" transform="scale(0.015625)"/>
       </defs>
       <use xlink:href="#DejaVuSans-30"/>
      </g>
     </g>
    </g>
    <g id="xtick_2">
     <g id="line2d_3">
      <path d="M 107.712803 182.16 
L 107.712803 7.2 
" clip-path="url(#p722506a576)" style="fill: none; stroke: #cbcbcb"/>
     </g>
     <g id="line2d_4"/>
     <g id="text_2">
      <!-- 100 -->
      <g transform="translate(94.351553 196.297813) scale(0.14 -0.14)">
       <defs>
        <path id="DejaVuSans-31" d="M 794 531 
L 1825 531 
L 1825 4091 
L 703 3866 
L 703 4441 
L 1819 4666 
L 2450 4666 
L 2450 531 
L 3481 531 
L 3481 0 
L 794 0 
L 794 531 
z
" transform="scale(0.015625)"/>
       </defs>
       <use xlink:href="#DejaVuSans-31"/>
       <use xlink:href="#DejaVuSans-30" x="63.623047"/>
       <use xlink:href="#DejaVuSans-30" x="127.246094"/>
      </g>
     </g>
    </g>
    <g id="xtick_3">
     <g id="line2d_5">
      <path d="M 160.154801 182.16 
L 160.154801 7.2 
" clip-path="url(#p722506a576)" style="fill: none; stroke: #cbcbcb"/>
     </g>
     <g id="line2d_6"/>
     <g id="text_3">
      <!-- 200 -->
      <g transform="translate(146.793551 196.297813) scale(0.14 -0.14)">
       <defs>
        <path id="DejaVuSans-32" d="M 1228 531 
L 3431 531 
L 3431 0 
L 469 0 
L 469 531 
Q 828 903 1448 1529 
Q 2069 2156 2228 2338 
Q 2531 2678 2651 2914 
Q 2772 3150 2772 3378 
Q 2772 3750 2511 3984 
Q 2250 4219 1831 4219 
Q 1534 4219 1204 4116 
Q 875 4013 500 3803 
L 500 4441 
Q 881 4594 1212 4672 
Q 1544 4750 1819 4750 
Q 2544 4750 2975 4387 
Q 3406 4025 3406 3419 
Q 3406 3131 3298 2873 
Q 3191 2616 2906 2266 
Q 2828 2175 2409 1742 
Q 1991 1309 1228 531 
z
" transform="scale(0.015625)"/>
       </defs>
       <use xlink:href="#DejaVuSans-32"/>
       <use xlink:href="#DejaVuSans-30" x="63.623047"/>
       <use xlink:href="#DejaVuSans-30" x="127.246094"/>
      </g>
     </g>
    </g>
    <g id="xtick_4">
     <g id="line2d_7">
      <path d="M 212.596799 182.16 
L 212.596799 7.2 
" clip-path="url(#p722506a576)" style="fill: none; stroke: #cbcbcb"/>
     </g>
     <g id="line2d_8"/>
     <g id="text_4">
      <!-- 300 -->
      <g transform="translate(199.235549 196.297813) scale(0.14 -0.14)">
       <defs>
        <path id="DejaVuSans-33" d="M 2597 2516 
Q 3050 2419 3304 2112 
Q 3559 1806 3559 1356 
Q 3559 666 3084 287 
Q 2609 -91 1734 -91 
Q 1441 -91 1130 -33 
Q 819 25 488 141 
L 488 750 
Q 750 597 1062 519 
Q 1375 441 1716 441 
Q 2309 441 2620 675 
Q 2931 909 2931 1356 
Q 2931 1769 2642 2001 
Q 2353 2234 1838 2234 
L 1294 2234 
L 1294 2753 
L 1863 2753 
Q 2328 2753 2575 2939 
Q 2822 3125 2822 3475 
Q 2822 3834 2567 4026 
Q 2313 4219 1838 4219 
Q 1578 4219 1281 4162 
Q 984 4106 628 3988 
L 628 4550 
Q 988 4650 1302 4700 
Q 1616 4750 1894 4750 
Q 2613 4750 3031 4423 
Q 3450 4097 3450 3541 
Q 3450 3153 3228 2886 
Q 3006 2619 2597 2516 
z
" transform="scale(0.015625)"/>
       </defs>
       <use xlink:href="#DejaVuSans-33"/>
       <use xlink:href="#DejaVuSans-30" x="63.623047"/>
       <use xlink:href="#DejaVuSans-30" x="127.246094"/>
      </g>
     </g>
    </g>
    <g id="xtick_5">
     <g id="line2d_9">
      <path d="M 265.038797 182.16 
L 265.038797 7.2 
" clip-path="url(#p722506a576)" style="fill: none; stroke: #cbcbcb"/>
     </g>
     <g id="line2d_10"/>
     <g id="text_5">
      <!-- 400 -->
      <g transform="translate(251.677547 196.297813) scale(0.14 -0.14)">
       <defs>
        <path id="DejaVuSans-34" d="M 2419 4116 
L 825 1625 
L 2419 1625 
L 2419 4116 
z
M 2253 4666 
L 3047 4666 
L 3047 1625 
L 3713 1625 
L 3713 1100 
L 3047 1100 
L 3047 0 
L 2419 0 
L 2419 1100 
L 313 1100 
L 313 1709 
L 2253 4666 
z
" transform="scale(0.015625)"/>
       </defs>
       <use xlink:href="#DejaVuSans-34"/>
       <use xlink:href="#DejaVuSans-30" x="63.623047"/>
       <use xlink:href="#DejaVuSans-30" x="127.246094"/>
      </g>
     </g>
    </g>
    <g id="xtick_6">
     <g id="line2d_11">
      <path d="M 317.480795 182.16 
L 317.480795 7.2 
" clip-path="url(#p722506a576)" style="fill: none; stroke: #cbcbcb"/>
     </g>
     <g id="line2d_12"/>
     <g id="text_6">
      <!-- 500 -->
      <g transform="translate(304.119545 196.297813) scale(0.14 -0.14)">
       <defs>
        <path id="DejaVuSans-35" d="M 691 4666 
L 3169 4666 
L 3169 4134 
L 1269 4134 
L 1269 2991 
Q 1406 3038 1543 3061 
Q 1681 3084 1819 3084 
Q 2600 3084 3056 2656 
Q 3513 2228 3513 1497 
Q 3513 744 3044 326 
Q 2575 -91 1722 -91 
Q 1428 -91 1123 -41 
Q 819 9 494 109 
L 494 744 
Q 775 591 1075 516 
Q 1375 441 1709 441 
Q 2250 441 2565 725 
Q 2881 1009 2881 1497 
Q 2881 1984 2565 2268 
Q 2250 2553 1709 2553 
Q 1456 2553 1204 2497 
Q 953 2441 691 2322 
L 691 4666 
z
" transform="scale(0.015625)"/>
       </defs>
       <use xlink:href="#DejaVuSans-35"/>
       <use xlink:href="#DejaVuSans-30" x="63.623047"/>
       <use xlink:href="#DejaVuSans-30" x="127.246094"/>
      </g>
     </g>
    </g>
   </g>
   <g id="matplotlib.axis_2">
    <g id="ytick_1">
     <g id="line2d_13">
      <path d="M 41.871875 174.207273 
L 336.648346 174.207273 
" clip-path="url(#p722506a576)" style="fill: none; stroke: #cbcbcb"/>
     </g>
     <g id="line2d_14"/>
     <g id="text_7">
      <!-- 0.00 -->
      <g transform="translate(7.2 179.526179) scale(0.14 -0.14)">
       <defs>
        <path id="DejaVuSans-2e" d="M 684 794 
L 1344 794 
L 1344 0 
L 684 0 
L 684 794 
z
" transform="scale(0.015625)"/>
       </defs>
       <use xlink:href="#DejaVuSans-30"/>
       <use xlink:href="#DejaVuSans-2e" x="63.623047"/>
       <use xlink:href="#DejaVuSans-30" x="95.410156"/>
       <use xlink:href="#DejaVuSans-30" x="159.033203"/>
      </g>
     </g>
    </g>
    <g id="ytick_2">
     <g id="line2d_15">
      <path d="M 41.871875 136.034183 
L 336.648346 136.034183 
" clip-path="url(#p722506a576)" style="fill: none; stroke: #cbcbcb"/>
     </g>
     <g id="line2d_16"/>
     <g id="text_8">
      <!-- 0.02 -->
      <g transform="translate(7.2 141.353089) scale(0.14 -0.14)">
       <use xlink:href="#DejaVuSans-30"/>
       <use xlink:href="#DejaVuSans-2e" x="63.623047"/>
       <use xlink:href="#DejaVuSans-30" x="95.410156"/>
       <use xlink:href="#DejaVuSans-32" x="159.033203"/>
      </g>
     </g>
    </g>
    <g id="ytick_3">
     <g id="line2d_17">
      <path d="M 41.871875 97.861093 
L 336.648346 97.861093 
" clip-path="url(#p722506a576)" style="fill: none; stroke: #cbcbcb"/>
     </g>
     <g id="line2d_18"/>
     <g id="text_9">
      <!-- 0.04 -->
      <g transform="translate(7.2 103.179999) scale(0.14 -0.14)">
       <use xlink:href="#DejaVuSans-30"/>
       <use xlink:href="#DejaVuSans-2e" x="63.623047"/>
       <use xlink:href="#DejaVuSans-30" x="95.410156"/>
       <use xlink:href="#DejaVuSans-34" x="159.033203"/>
      </g>
     </g>
    </g>
    <g id="ytick_4">
     <g id="line2d_19">
      <path d="M 41.871875 59.688003 
L 336.648346 59.688003 
" clip-path="url(#p722506a576)" style="fill: none; stroke: #cbcbcb"/>
     </g>
     <g id="line2d_20"/>
     <g id="text_10">
      <!-- 0.06 -->
      <g transform="translate(7.2 65.00691) scale(0.14 -0.14)">
       <defs>
        <path id="DejaVuSans-36" d="M 2113 2584 
Q 1688 2584 1439 2293 
Q 1191 2003 1191 1497 
Q 1191 994 1439 701 
Q 1688 409 2113 409 
Q 2538 409 2786 701 
Q 3034 994 3034 1497 
Q 3034 2003 2786 2293 
Q 2538 2584 2113 2584 
z
M 3366 4563 
L 3366 3988 
Q 3128 4100 2886 4159 
Q 2644 4219 2406 4219 
Q 1781 4219 1451 3797 
Q 1122 3375 1075 2522 
Q 1259 2794 1537 2939 
Q 1816 3084 2150 3084 
Q 2853 3084 3261 2657 
Q 3669 2231 3669 1497 
Q 3669 778 3244 343 
Q 2819 -91 2113 -91 
Q 1303 -91 875 529 
Q 447 1150 447 2328 
Q 447 3434 972 4092 
Q 1497 4750 2381 4750 
Q 2619 4750 2861 4703 
Q 3103 4656 3366 4563 
z
" transform="scale(0.015625)"/>
       </defs>
       <use xlink:href="#DejaVuSans-30"/>
       <use xlink:href="#DejaVuSans-2e" x="63.623047"/>
       <use xlink:href="#DejaVuSans-30" x="95.410156"/>
       <use xlink:href="#DejaVuSans-36" x="159.033203"/>
      </g>
     </g>
    </g>
    <g id="ytick_5">
     <g id="line2d_21">
      <path d="M 41.871875 21.514914 
L 336.648346 21.514914 
" clip-path="url(#p722506a576)" style="fill: none; stroke: #cbcbcb"/>
     </g>
     <g id="line2d_22"/>
     <g id="text_11">
      <!-- 0.08 -->
      <g transform="translate(7.2 26.83382) scale(0.14 -0.14)">
       <defs>
        <path id="DejaVuSans-38" d="M 2034 2216 
Q 1584 2216 1326 1975 
Q 1069 1734 1069 1313 
Q 1069 891 1326 650 
Q 1584 409 2034 409 
Q 2484 409 2743 651 
Q 3003 894 3003 1313 
Q 3003 1734 2745 1975 
Q 2488 2216 2034 2216 
z
M 1403 2484 
Q 997 2584 770 2862 
Q 544 3141 544 3541 
Q 544 4100 942 4425 
Q 1341 4750 2034 4750 
Q 2731 4750 3128 4425 
Q 3525 4100 3525 3541 
Q 3525 3141 3298 2862 
Q 3072 2584 2669 2484 
Q 3125 2378 3379 2068 
Q 3634 1759 3634 1313 
Q 3634 634 3220 271 
Q 2806 -91 2034 -91 
Q 1263 -91 848 271 
Q 434 634 434 1313 
Q 434 1759 690 2068 
Q 947 2378 1403 2484 
z
M 1172 3481 
Q 1172 3119 1398 2916 
Q 1625 2713 2034 2713 
Q 2441 2713 2670 2916 
Q 2900 3119 2900 3481 
Q 2900 3844 2670 4047 
Q 2441 4250 2034 4250 
Q 1625 4250 1398 4047 
Q 1172 3844 1172 3481 
z
" transform="scale(0.015625)"/>
       </defs>
       <use xlink:href="#DejaVuSans-30"/>
       <use xlink:href="#DejaVuSans-2e" x="63.623047"/>
       <use xlink:href="#DejaVuSans-30" x="95.410156"/>
       <use xlink:href="#DejaVuSans-38" x="159.033203"/>
      </g>
     </g>
    </g>
   </g>
   <g id="line2d_23">
    <path d="M 55.270805 15.152727 
L 188.9979 15.152727 
L 189.52232 174.207273 
L 323.249415 174.207273 
L 323.249415 174.207273 
" clip-path="url(#p722506a576)" style="fill: none; stroke: #008fd5; stroke-width: 4"/>
   </g>
   <g id="patch_3">
    <path d="M 41.871875 182.16 
L 41.871875 7.2 
" style="fill: none; stroke: #f0f0f0; stroke-width: 3; stroke-linejoin: miter; stroke-linecap: square"/>
   </g>
   <g id="patch_4">
    <path d="M 336.648346 182.16 
L 336.648346 7.2 
" style="fill: none; stroke: #f0f0f0; stroke-width: 3; stroke-linejoin: miter; stroke-linecap: square"/>
   </g>
   <g id="patch_5">
    <path d="M 41.871875 182.16 
L 336.648346 182.16 
" style="fill: none; stroke: #f0f0f0; stroke-width: 3; stroke-linejoin: miter; stroke-linecap: square"/>
   </g>
   <g id="patch_6">
    <path d="M 41.871875 7.2 
L 336.648346 7.2 
" style="fill: none; stroke: #f0f0f0; stroke-width: 3; stroke-linejoin: miter; stroke-linecap: square"/>
   </g>
   <g id="legend_1">
    <g id="patch_7">
     <path d="M 218.882096 38.949375 
L 326.848346 38.949375 
Q 329.648346 38.949375 329.648346 36.149375 
L 329.648346 17 
Q 329.648346 14.2 326.848346 14.2 
L 218.882096 14.2 
Q 216.082096 14.2 216.082096 17 
L 216.082096 36.149375 
Q 216.082096 38.949375 218.882096 38.949375 
z
" style="fill: #f0f0f0; opacity: 0.8; stroke: #cccccc; stroke-width: 0.5; stroke-linejoin: miter"/>
    </g>
    <g id="line2d_24">
     <path d="M 221.682096 25.537813 
L 235.682096 25.537813 
L 249.682096 25.537813 
" style="fill: none; stroke: #008fd5; stroke-width: 4"/>
    </g>
    <g id="text_12">
     <!-- accuracy -->
     <g transform="translate(260.882096 30.437813) scale(0.14 -0.14)">
      <defs>
       <path id="DejaVuSans-61" d="M 2194 1759 
Q 1497 1759 1228 1600 
Q 959 1441 959 1056 
Q 959 750 1161 570 
Q 1363 391 1709 391 
Q 2188 391 2477 730 
Q 2766 1069 2766 1631 
L 2766 1759 
L 2194 1759 
z
M 3341 1997 
L 3341 0 
L 2766 0 
L 2766 531 
Q 2569 213 2275 61 
Q 1981 -91 1556 -91 
Q 1019 -91 701 211 
Q 384 513 384 1019 
Q 384 1609 779 1909 
Q 1175 2209 1959 2209 
L 2766 2209 
L 2766 2266 
Q 2766 2663 2505 2880 
Q 2244 3097 1772 3097 
Q 1472 3097 1187 3025 
Q 903 2953 641 2809 
L 641 3341 
Q 956 3463 1253 3523 
Q 1550 3584 1831 3584 
Q 2591 3584 2966 3190 
Q 3341 2797 3341 1997 
z
" transform="scale(0.015625)"/>
       <path id="DejaVuSans-63" d="M 3122 3366 
L 3122 2828 
Q 2878 2963 2633 3030 
Q 2388 3097 2138 3097 
Q 1578 3097 1268 2742 
Q 959 2388 959 1747 
Q 959 1106 1268 751 
Q 1578 397 2138 397 
Q 2388 397 2633 464 
Q 2878 531 3122 666 
L 3122 134 
Q 2881 22 2623 -34 
Q 2366 -91 2075 -91 
Q 1284 -91 818 406 
Q 353 903 353 1747 
Q 353 2603 823 3093 
Q 1294 3584 2113 3584 
Q 2378 3584 2631 3529 
Q 2884 3475 3122 3366 
z
" transform="scale(0.015625)"/>
       <path id="DejaVuSans-75" d="M 544 1381 
L 544 3500 
L 1119 3500 
L 1119 1403 
Q 1119 906 1312 657 
Q 1506 409 1894 409 
Q 2359 409 2629 706 
Q 2900 1003 2900 1516 
L 2900 3500 
L 3475 3500 
L 3475 0 
L 2900 0 
L 2900 538 
Q 2691 219 2414 64 
Q 2138 -91 1772 -91 
Q 1169 -91 856 284 
Q 544 659 544 1381 
z
M 1991 3584 
L 1991 3584 
z
" transform="scale(0.015625)"/>
       <path id="DejaVuSans-72" d="M 2631 2963 
Q 2534 3019 2420 3045 
Q 2306 3072 2169 3072 
Q 1681 3072 1420 2755 
Q 1159 2438 1159 1844 
L 1159 0 
L 581 0 
L 581 3500 
L 1159 3500 
L 1159 2956 
Q 1341 3275 1631 3429 
Q 1922 3584 2338 3584 
Q 2397 3584 2469 3576 
Q 2541 3569 2628 3553 
L 2631 2963 
z
" transform="scale(0.015625)"/>
       <path id="DejaVuSans-79" d="M 2059 -325 
Q 1816 -950 1584 -1140 
Q 1353 -1331 966 -1331 
L 506 -1331 
L 506 -850 
L 844 -850 
Q 1081 -850 1212 -737 
Q 1344 -625 1503 -206 
L 1606 56 
L 191 3500 
L 800 3500 
L 1894 763 
L 2988 3500 
L 3597 3500 
L 2059 -325 
z
" transform="scale(0.015625)"/>
      </defs>
      <use xlink:href="#DejaVuSans-61"/>
      <use xlink:href="#DejaVuSans-63" x="61.279297"/>
      <use xlink:href="#DejaVuSans-63" x="116.259766"/>
      <use xlink:href="#DejaVuSans-75" x="171.240234"/>
      <use xlink:href="#DejaVuSans-72" x="234.619141"/>
      <use xlink:href="#DejaVuSans-61" x="275.732422"/>
      <use xlink:href="#DejaVuSans-63" x="337.011719"/>
      <use xlink:href="#DejaVuSans-79" x="391.992188"/>
     </g>
    </g>
   </g>
  </g>
  <g id="axes_2">
   <g id="patch_8">
    <path d="M 395.60364 182.16 
L 690.38011 182.16 
L 690.38011 7.2 
L 395.60364 7.2 
L 395.60364 182.16 
z
" style="fill: none"/>
   </g>
   <g id="matplotlib.axis_3">
    <g id="xtick_7">
     <g id="line2d_25">
      <path d="M 409.00257 182.16 
L 409.00257 7.2 
" clip-path="url(#p65b8ab1672)" style="fill: none; stroke: #cbcbcb"/>
     </g>
     <g id="line2d_26"/>
     <g id="text_13">
      <!-- 0 -->
      <g transform="translate(404.54882 196.297813) scale(0.14 -0.14)">
       <use xlink:href="#DejaVuSans-30"/>
      </g>
     </g>
    </g>
    <g id="xtick_8">
     <g id="line2d_27">
      <path d="M 461.444568 182.16 
L 461.444568 7.2 
" clip-path="url(#p65b8ab1672)" style="fill: none; stroke: #cbcbcb"/>
     </g>
     <g id="line2d_28"/>
     <g id="text_14">
      <!-- 100 -->
      <g transform="translate(448.083318 196.297813) scale(0.14 -0.14)">
       <use xlink:href="#DejaVuSans-31"/>
       <use xlink:href="#DejaVuSans-30" x="63.623047"/>
       <use xlink:href="#DejaVuSans-30" x="127.246094"/>
      </g>
     </g>
    </g>
    <g id="xtick_9">
     <g id="line2d_29">
      <path d="M 513.886566 182.16 
L 513.886566 7.2 
" clip-path="url(#p65b8ab1672)" style="fill: none; stroke: #cbcbcb"/>
     </g>
     <g id="line2d_30"/>
     <g id="text_15">
      <!-- 200 -->
      <g transform="translate(500.525316 196.297813) scale(0.14 -0.14)">
       <use xlink:href="#DejaVuSans-32"/>
       <use xlink:href="#DejaVuSans-30" x="63.623047"/>
       <use xlink:href="#DejaVuSans-30" x="127.246094"/>
      </g>
     </g>
    </g>
    <g id="xtick_10">
     <g id="line2d_31">
      <path d="M 566.328564 182.16 
L 566.328564 7.2 
" clip-path="url(#p65b8ab1672)" style="fill: none; stroke: #cbcbcb"/>
     </g>
     <g id="line2d_32"/>
     <g id="text_16">
      <!-- 300 -->
      <g transform="translate(552.967314 196.297813) scale(0.14 -0.14)">
       <use xlink:href="#DejaVuSans-33"/>
       <use xlink:href="#DejaVuSans-30" x="63.623047"/>
       <use xlink:href="#DejaVuSans-30" x="127.246094"/>
      </g>
     </g>
    </g>
    <g id="xtick_11">
     <g id="line2d_33">
      <path d="M 618.770562 182.16 
L 618.770562 7.2 
" clip-path="url(#p65b8ab1672)" style="fill: none; stroke: #cbcbcb"/>
     </g>
     <g id="line2d_34"/>
     <g id="text_17">
      <!-- 400 -->
      <g transform="translate(605.409312 196.297813) scale(0.14 -0.14)">
       <use xlink:href="#DejaVuSans-34"/>
       <use xlink:href="#DejaVuSans-30" x="63.623047"/>
       <use xlink:href="#DejaVuSans-30" x="127.246094"/>
      </g>
     </g>
    </g>
    <g id="xtick_12">
     <g id="line2d_35">
      <path d="M 671.21256 182.16 
L 671.21256 7.2 
" clip-path="url(#p65b8ab1672)" style="fill: none; stroke: #cbcbcb"/>
     </g>
     <g id="line2d_36"/>
     <g id="text_18">
      <!-- 500 -->
      <g transform="translate(657.85131 196.297813) scale(0.14 -0.14)">
       <use xlink:href="#DejaVuSans-35"/>
       <use xlink:href="#DejaVuSans-30" x="63.623047"/>
       <use xlink:href="#DejaVuSans-30" x="127.246094"/>
      </g>
     </g>
    </g>
   </g>
   <g id="matplotlib.axis_4">
    <g id="ytick_6">
     <g id="line2d_37">
      <path d="M 395.60364 180.912923 
L 690.38011 180.912923 
" clip-path="url(#p65b8ab1672)" style="fill: none; stroke: #cbcbcb"/>
     </g>
     <g id="line2d_38"/>
     <g id="text_19">
      <!-- 0 -->
      <g transform="translate(383.19614 186.231829) scale(0.14 -0.14)">
       <use xlink:href="#DejaVuSans-30"/>
      </g>
     </g>
    </g>
    <g id="ytick_7">
     <g id="line2d_39">
      <path d="M 395.60364 148.706793 
L 690.38011 148.706793 
" clip-path="url(#p65b8ab1672)" style="fill: none; stroke: #cbcbcb"/>
     </g>
     <g id="line2d_40"/>
     <g id="text_20">
      <!-- 25 -->
      <g transform="translate(374.28864 154.0257) scale(0.14 -0.14)">
       <use xlink:href="#DejaVuSans-32"/>
       <use xlink:href="#DejaVuSans-35" x="63.623047"/>
      </g>
     </g>
    </g>
    <g id="ytick_8">
     <g id="line2d_41">
      <path d="M 395.60364 116.500664 
L 690.38011 116.500664 
" clip-path="url(#p65b8ab1672)" style="fill: none; stroke: #cbcbcb"/>
     </g>
     <g id="line2d_42"/>
     <g id="text_21">
      <!-- 50 -->
      <g transform="translate(374.28864 121.81957) scale(0.14 -0.14)">
       <use xlink:href="#DejaVuSans-35"/>
       <use xlink:href="#DejaVuSans-30" x="63.623047"/>
      </g>
     </g>
    </g>
    <g id="ytick_9">
     <g id="line2d_43">
      <path d="M 395.60364 84.294534 
L 690.38011 84.294534 
" clip-path="url(#p65b8ab1672)" style="fill: none; stroke: #cbcbcb"/>
     </g>
     <g id="line2d_44"/>
     <g id="text_22">
      <!-- 75 -->
      <g transform="translate(374.28864 89.613441) scale(0.14 -0.14)">
       <defs>
        <path id="DejaVuSans-37" d="M 525 4666 
L 3525 4666 
L 3525 4397 
L 1831 0 
L 1172 0 
L 2766 4134 
L 525 4134 
L 525 4666 
z
" transform="scale(0.015625)"/>
       </defs>
       <use xlink:href="#DejaVuSans-37"/>
       <use xlink:href="#DejaVuSans-35" x="63.623047"/>
      </g>
     </g>
    </g>
    <g id="ytick_10">
     <g id="line2d_45">
      <path d="M 395.60364 52.088405 
L 690.38011 52.088405 
" clip-path="url(#p65b8ab1672)" style="fill: none; stroke: #cbcbcb"/>
     </g>
     <g id="line2d_46"/>
     <g id="text_23">
      <!-- 100 -->
      <g transform="translate(365.38114 57.407311) scale(0.14 -0.14)">
       <use xlink:href="#DejaVuSans-31"/>
       <use xlink:href="#DejaVuSans-30" x="63.623047"/>
       <use xlink:href="#DejaVuSans-30" x="127.246094"/>
      </g>
     </g>
    </g>
    <g id="ytick_11">
     <g id="line2d_47">
      <path d="M 395.60364 19.882275 
L 690.38011 19.882275 
" clip-path="url(#p65b8ab1672)" style="fill: none; stroke: #cbcbcb"/>
     </g>
     <g id="line2d_48"/>
     <g id="text_24">
      <!-- 125 -->
      <g transform="translate(365.38114 25.201181) scale(0.14 -0.14)">
       <use xlink:href="#DejaVuSans-31"/>
       <use xlink:href="#DejaVuSans-32" x="63.623047"/>
       <use xlink:href="#DejaVuSans-35" x="127.246094"/>
      </g>
     </g>
    </g>
   </g>
   <g id="line2d_49">
    <path d="M 409.00257 73.508321 
L 409.52699 117.264994 
L 410.05141 150.645107 
L 410.57583 97.021243 
L 411.10025 121.361993 
L 411.62467 92.730097 
L 412.14909 92.467803 
L 412.67351 133.40554 
L 413.19793 76.774686 
L 413.72235 39.20212 
L 414.24677 71.15028 
L 414.77119 77.315953 
L 415.29561 122.072566 
L 415.82003 137.578661 
L 416.34445 99.899951 
L 416.86887 91.234411 
L 417.39329 151.264133 
L 417.91771 151.191087 
L 418.44213 142.815186 
L 418.96655 109.821804 
L 419.49097 91.088988 
L 420.01539 101.177228 
L 421.06423 153.769676 
L 421.58865 166.898942 
L 422.11307 159.500083 
L 422.63749 167.710179 
L 423.16191 162.514061 
L 423.68633 153.195378 
L 424.21075 98.507641 
L 424.73517 120.363655 
L 425.25959 117.560356 
L 425.78401 139.541399 
L 426.30843 97.312659 
L 426.832849 91.985134 
L 427.357269 74.921664 
L 427.881689 114.962057 
L 428.406109 111.356121 
L 428.930529 142.702991 
L 429.454949 118.299644 
L 429.979369 140.269309 
L 430.503789 144.566893 
L 431.028209 146.837739 
L 431.552629 98.823845 
L 432.077049 63.426922 
L 432.601469 78.41494 
L 433.125889 105.542471 
L 433.650309 118.329429 
L 434.174729 96.68097 
L 434.699149 62.614801 
L 435.747989 164.305748 
L 436.272409 164.197992 
L 436.796829 157.371 
L 437.321249 103.745949 
L 437.845669 150.228515 
L 438.370089 149.81342 
L 438.894509 160.519096 
L 439.418929 143.933093 
L 439.943349 147.552808 
L 440.467769 69.288098 
L 440.992189 128.70535 
L 441.516609 163.306453 
L 442.041029 163.358947 
L 442.565449 165.96243 
L 443.089869 154.143047 
L 443.614289 165.281709 
L 444.138709 167.9781 
L 444.663129 163.217012 
L 445.187549 111.471071 
L 446.236389 164.950544 
L 446.760809 143.559339 
L 447.285229 144.170553 
L 447.809649 154.010595 
L 448.334069 111.862737 
L 448.858489 135.131425 
L 449.382909 138.499746 
L 449.907329 133.545911 
L 450.431749 130.820435 
L 450.956169 146.734947 
L 451.480589 135.386874 
L 452.005009 147.702647 
L 452.529429 166.251123 
L 453.053848 165.413041 
L 453.578268 168.840601 
L 454.102688 168.423858 
L 454.627108 159.327737 
L 455.151528 161.524058 
L 456.200368 109.926655 
L 456.724788 149.76351 
L 457.249208 154.029402 
L 457.773628 171.596675 
L 458.298048 160.584725 
L 458.822468 160.832425 
L 459.871308 168.689289 
L 460.395728 146.585217 
L 460.920148 153.792604 
L 461.444568 97.025764 
L 461.968988 99.467737 
L 462.493408 105.405245 
L 463.017828 140.342748 
L 463.542248 140.163284 
L 464.066668 165.810245 
L 465.115508 162.017747 
L 465.639928 150.932754 
L 466.164348 128.352324 
L 466.688768 129.368761 
L 467.213188 159.755952 
L 467.737608 156.738529 
L 468.786448 130.264278 
L 469.310868 110.418725 
L 469.835288 145.722702 
L 470.359708 162.275355 
L 470.884128 159.846114 
L 471.408548 159.780208 
L 471.932968 155.625013 
L 472.457388 153.417441 
L 472.981808 145.582554 
L 473.506228 150.015787 
L 474.030648 128.1287 
L 474.555068 136.980098 
L 475.079488 148.470103 
L 475.603908 156.304808 
L 476.128328 157.900693 
L 476.652748 134.88265 
L 477.177168 138.68696 
L 477.701588 118.550389 
L 478.226008 141.14801 
L 478.750427 144.551622 
L 479.274847 141.440391 
L 479.799267 143.801236 
L 480.323687 130.149992 
L 480.848107 153.168509 
L 481.372527 138.163158 
L 481.896947 131.449864 
L 482.421367 116.044079 
L 482.945787 106.984307 
L 483.470207 121.570623 
L 483.994627 132.364709 
L 484.519047 161.920538 
L 485.043467 166.690523 
L 485.567887 168.737291 
L 486.092307 168.707043 
L 486.616727 174.207273 
L 487.141147 166.415968 
L 487.665567 113.989848 
L 489.238827 163.68978 
L 489.763247 161.85376 
L 490.287667 157.487672 
L 490.812087 122.521922 
L 491.860927 158.859818 
L 492.385347 162.590532 
L 492.909767 160.987415 
L 493.434187 114.271042 
L 493.958607 124.591412 
L 494.483027 131.773518 
L 495.007447 160.087323 
L 495.531867 140.373703 
L 496.056287 145.965218 
L 496.580707 144.374839 
L 497.105127 137.382478 
L 497.629547 132.661629 
L 498.153967 121.078695 
L 498.678387 131.528276 
L 499.202807 161.789459 
L 499.727227 170.585229 
L 500.251647 166.503934 
L 500.776067 141.368513 
L 501.300487 137.097451 
L 501.824907 160.276643 
L 502.349327 173.112145 
L 502.873747 164.676475 
L 503.398167 161.482453 
L 503.922587 100.652718 
L 504.971426 160.387942 
L 505.495846 172.730009 
L 506.020266 171.994813 
L 506.544686 171.704709 
L 507.069106 170.680385 
L 507.593526 170.789579 
L 508.117946 170.679577 
L 508.642366 162.058066 
L 509.166786 146.393143 
L 509.691206 165.968491 
L 510.215626 163.856874 
L 510.740046 169.806268 
L 511.264466 161.115122 
L 511.788886 148.342993 
L 512.313306 127.969237 
L 512.837726 145.010826 
L 513.362146 146.485143 
L 513.886566 133.244048 
L 514.410986 115.048543 
L 514.935406 106.982218 
L 515.459826 135.345559 
L 515.984246 133.90768 
L 516.508666 143.639989 
L 517.033086 131.510383 
L 517.557506 144.511343 
L 518.081926 161.701001 
L 518.606346 161.167403 
L 519.130766 134.908893 
L 519.655186 98.486589 
L 520.179606 133.441331 
L 520.704026 148.466476 
L 521.228446 148.433007 
L 521.752866 158.25768 
L 522.277286 139.667533 
L 522.801706 156.465561 
L 523.326126 155.954839 
L 523.850546 162.855013 
L 524.374966 137.036539 
L 524.899386 147.016419 
L 525.423806 139.353772 
L 525.948226 157.871535 
L 526.472646 166.395033 
L 526.997066 168.193055 
L 527.521486 160.225225 
L 528.045906 137.168624 
L 528.570326 159.004383 
L 529.094746 165.213004 
L 529.619166 151.879244 
L 530.143585 144.057041 
L 530.668005 146.986248 
L 531.192425 155.767224 
L 531.716845 147.542442 
L 532.241265 150.815126 
L 532.765685 142.379544 
L 533.290105 121.121823 
L 533.814525 151.893753 
L 534.863365 159.979986 
L 535.387785 122.069165 
L 535.912205 121.955847 
L 536.436625 151.909472 
L 536.961045 166.180267 
L 537.485465 167.330663 
L 538.534305 171.317597 
L 539.058725 167.403434 
L 539.583145 167.497426 
L 540.107565 158.269236 
L 540.631985 153.281535 
L 541.156405 119.606568 
L 541.680825 156.385768 
L 542.205245 157.360417 
L 542.729665 160.648276 
L 543.254085 152.758237 
L 543.778505 156.087592 
L 544.302925 163.243907 
L 544.827345 163.455901 
L 545.351765 150.446134 
L 545.876185 121.127002 
L 546.400605 111.633885 
L 546.925025 137.04735 
L 547.449445 136.063937 
L 547.973865 137.360418 
L 548.498285 146.336294 
L 549.022705 161.878307 
L 549.547125 162.367188 
L 550.071545 165.203917 
L 550.595965 166.142837 
L 551.120385 150.447033 
L 551.644805 147.627898 
L 552.169225 161.149033 
L 552.693645 161.27631 
L 553.218065 154.767515 
L 553.742485 131.701597 
L 554.266905 131.651939 
L 554.791325 135.632548 
L 555.315745 149.929561 
L 555.840165 157.507166 
L 556.889004 121.202142 
L 557.413424 141.845317 
L 557.937844 150.624637 
L 558.462264 152.925046 
L 558.986684 159.752374 
L 559.511104 147.347463 
L 560.035524 155.535236 
L 560.559944 139.276539 
L 561.084364 110.311043 
L 561.608784 113.428123 
L 562.133204 118.240152 
L 562.657624 141.398136 
L 563.182044 149.630211 
L 563.706464 165.284724 
L 564.230884 160.286134 
L 564.755304 118.098405 
L 565.279724 149.648951 
L 565.804144 154.433726 
L 566.328564 142.76556 
L 566.852984 143.928287 
L 567.377404 148.766202 
L 567.901824 145.580876 
L 568.426244 147.237841 
L 568.950664 164.301342 
L 569.475084 167.95759 
L 569.999504 167.078551 
L 570.523924 168.604994 
L 571.048344 167.825023 
L 571.572764 166.130085 
L 572.097184 158.393997 
L 572.621604 127.351342 
L 573.146024 128.91571 
L 573.670444 119.034086 
L 574.194864 130.675258 
L 574.719284 130.020629 
L 575.243704 137.199903 
L 575.768124 137.907425 
L 576.292544 157.041987 
L 577.341384 114.022336 
L 578.914644 165.901575 
L 579.439064 166.839887 
L 579.963484 167.316271 
L 580.487904 159.807672 
L 581.012324 147.022753 
L 581.536744 140.637351 
L 582.061163 125.000692 
L 582.585583 119.611851 
L 583.110003 142.500268 
L 583.634423 154.447655 
L 584.158843 161.078984 
L 584.683263 160.101734 
L 585.207683 139.943889 
L 585.732103 157.301404 
L 586.256523 153.964903 
L 586.780943 157.319714 
L 587.305363 155.209298 
L 587.829783 149.700674 
L 588.354203 139.847864 
L 588.878623 134.27798 
L 589.927463 159.109514 
L 590.451883 160.523722 
L 590.976303 164.673586 
L 591.500723 156.772877 
L 592.025143 167.669022 
L 592.549563 155.644031 
L 593.073983 122.967596 
L 593.598403 139.192137 
L 594.122823 159.274928 
L 594.647243 159.233541 
L 595.171663 153.949703 
L 595.696083 134.04354 
L 596.220503 130.394825 
L 596.744923 138.071778 
L 597.269343 139.408247 
L 597.793763 141.672398 
L 598.318183 129.428258 
L 598.842603 135.608252 
L 599.367023 136.735112 
L 599.891443 131.098199 
L 600.415863 101.630234 
L 600.940283 134.166421 
L 601.464703 154.128351 
L 602.513543 147.002197 
L 603.562383 86.261194 
L 604.086803 143.311043 
L 604.611223 152.335602 
L 605.660063 144.965251 
L 606.184483 148.106658 
L 606.708903 150.027416 
L 607.233323 137.528466 
L 607.757742 148.181326 
L 608.282162 130.380638 
L 608.806582 136.626905 
L 609.331002 149.712348 
L 609.855422 150.86007 
L 610.379842 147.318757 
L 610.904262 139.782424 
L 611.428682 138.312768 
L 611.953102 147.984126 
L 612.477522 127.153474 
L 614.050782 159.652428 
L 614.575202 134.264922 
L 615.099622 152.799445 
L 615.624042 156.947486 
L 616.148462 147.621947 
L 616.672882 147.544801 
L 617.197302 158.602674 
L 617.721722 164.622251 
L 618.770562 159.236909 
L 619.294982 151.270399 
L 619.819402 161.232038 
L 620.343822 148.023661 
L 620.868242 155.006002 
L 621.392662 145.977634 
L 621.917082 144.61139 
L 622.441502 157.072549 
L 622.965922 157.133999 
L 623.490342 154.661893 
L 624.014762 156.837445 
L 624.539182 156.999621 
L 625.063602 165.260735 
L 625.588022 165.589759 
L 626.112442 152.87226 
L 626.636862 164.533492 
L 628.210122 150.687658 
L 628.734542 160.80837 
L 629.258962 151.446428 
L 629.783382 153.267988 
L 630.307802 77.496857 
L 630.832222 126.850618 
L 631.356642 137.410834 
L 632.405482 166.943151 
L 632.929902 155.920394 
L 633.454321 158.925043 
L 633.978741 165.252745 
L 634.503161 162.876522 
L 635.027581 165.778706 
L 635.552001 156.182197 
L 636.076421 156.990586 
L 636.600841 160.820735 
L 637.125261 159.045356 
L 637.649681 160.477966 
L 638.174101 152.712539 
L 638.698521 163.862484 
L 639.222941 160.573388 
L 640.271781 129.858124 
L 640.796201 137.806112 
L 641.320621 143.663745 
L 641.845041 135.703854 
L 642.369461 153.864204 
L 642.893881 158.347516 
L 643.418301 164.343615 
L 643.942721 158.014999 
L 644.467141 145.56145 
L 644.991561 121.722027 
L 645.515981 128.471937 
L 646.040401 148.991297 
L 646.564821 154.039791 
L 647.089241 144.241213 
L 647.613661 149.13172 
L 648.138081 158.979421 
L 648.662501 159.696128 
L 649.186921 157.180031 
L 649.711341 150.631492 
L 650.235761 150.220321 
L 650.760181 157.893666 
L 651.284601 154.567576 
L 651.809021 132.165322 
L 652.333441 163.747272 
L 652.857861 152.350522 
L 653.382281 153.146319 
L 653.906701 147.010389 
L 654.431121 142.728135 
L 654.955541 152.899411 
L 655.479961 144.3321 
L 656.004381 153.735254 
L 656.528801 159.210601 
L 657.053221 163.289849 
L 657.577641 145.340964 
L 658.102061 148.184994 
L 658.626481 139.733394 
L 659.150901 136.889091 
L 659.67532 122.103005 
L 660.19974 129.832741 
L 660.72416 118.267224 
L 661.24858 93.343731 
L 661.773 143.460009 
L 662.29742 143.778235 
L 662.82184 156.481488 
L 663.34626 153.224763 
L 663.87068 136.529165 
L 664.3951 74.089227 
L 664.91952 60.269536 
L 665.44394 106.166214 
L 665.96836 68.562054 
L 666.49278 65.372608 
L 667.0172 70.739035 
L 667.54162 67.568685 
L 668.06604 78.248671 
L 669.11488 35.430913 
L 669.6393 54.66579 
L 670.16372 53.496745 
L 670.68814 69.197538 
L 671.21256 42.506521 
L 671.73698 70.596531 
L 672.2614 39.89107 
L 672.78582 78.449861 
L 673.31024 72.819567 
L 674.35908 50.202084 
L 674.8835 80.314333 
L 675.40792 18.440961 
L 675.93234 48.043493 
L 676.45676 67.294174 
L 676.98118 15.152727 
L 676.98118 15.152727 
" clip-path="url(#p65b8ab1672)" style="fill: none; stroke: #008fd5; stroke-opacity: 0.4; stroke-width: 4"/>
   </g>
   <g id="line2d_50">
    <path d="M 409.00257 73.508321 
L 409.52699 75.696152 
L 410.05141 79.443604 
L 410.57583 80.322491 
L 411.10025 82.374472 
L 412.14909 83.371036 
L 412.67351 85.87276 
L 413.19793 85.417857 
L 413.72235 83.107071 
L 414.24677 82.509231 
L 414.77119 82.249561 
L 415.29561 84.240713 
L 415.82003 86.907616 
L 416.34445 87.557233 
L 416.86887 87.741095 
L 417.91771 93.930947 
L 418.44213 96.375155 
L 418.96655 97.047485 
L 419.49097 96.749563 
L 420.01539 96.970951 
L 420.53981 98.505174 
L 422.11307 107.297434 
L 423.16191 112.927875 
L 423.68633 114.94125 
L 424.21075 114.11957 
L 424.73517 114.431778 
L 425.25959 114.588209 
L 425.78401 115.835867 
L 426.832849 113.763477 
L 427.357269 111.821389 
L 427.881689 111.978419 
L 428.406109 111.947307 
L 428.930529 113.485094 
L 429.454949 113.725824 
L 430.503789 116.528695 
L 431.028209 118.044146 
L 431.552629 117.083132 
L 432.077049 114.400322 
L 432.601469 112.601052 
L 433.125889 112.248124 
L 433.650309 112.552189 
L 434.174729 111.758629 
L 434.699149 109.301437 
L 435.223569 109.530442 
L 436.272409 114.865648 
L 436.796829 116.990921 
L 437.321249 116.328674 
L 439.418929 122.772181 
L 439.943349 124.011214 
L 440.467769 121.275059 
L 440.992189 121.646573 
L 442.565449 127.723613 
L 443.089869 129.044587 
L 444.663129 134.237751 
L 445.187549 133.099421 
L 445.711969 133.252913 
L 446.236389 134.837793 
L 447.285229 135.718705 
L 447.809649 136.633298 
L 448.334069 135.394771 
L 448.858489 135.381606 
L 449.382909 135.537516 
L 449.907329 135.437933 
L 450.431749 135.207061 
L 450.956169 135.78346 
L 451.480589 135.763631 
L 452.005009 136.360581 
L 454.102688 142.098908 
L 455.151528 143.888538 
L 455.675948 143.52975 
L 456.200368 141.849595 
L 456.724788 142.245291 
L 457.249208 142.834497 
L 457.773628 144.272605 
L 459.346888 146.831606 
L 459.871308 147.924489 
L 460.395728 147.857525 
L 460.920148 148.15428 
L 461.968988 143.291349 
L 462.493408 141.397045 
L 463.542248 141.28528 
L 464.591088 143.577377 
L 465.115508 144.499396 
L 465.639928 144.821064 
L 466.688768 143.266188 
L 467.737608 144.723069 
L 468.262028 144.627241 
L 468.786448 143.909094 
L 469.310868 142.234576 
L 469.835288 142.408983 
L 470.884128 144.224494 
L 471.408548 145.00228 
L 472.457388 145.927619 
L 472.981808 145.910365 
L 473.506228 146.115636 
L 474.030648 145.216289 
L 474.555068 144.804478 
L 475.079488 144.987761 
L 476.128328 146.170966 
L 476.652748 145.606553 
L 477.177168 145.260574 
L 477.701588 143.925066 
L 478.226008 143.786213 
L 478.750427 143.824486 
L 479.274847 143.705283 
L 479.799267 143.710081 
L 480.323687 143.032077 
L 480.848107 143.5389 
L 481.372527 143.270112 
L 481.896947 142.6791 
L 482.421367 141.347349 
L 482.945787 139.629197 
L 483.470207 138.726269 
L 483.994627 138.408194 
L 485.043467 140.939148 
L 487.141147 146.237925 
L 487.665567 144.625523 
L 488.189987 143.882071 
L 488.714407 144.047645 
L 489.763247 145.870955 
L 490.287667 146.451789 
L 490.812087 145.255296 
L 491.336507 144.942429 
L 492.909767 147.210987 
L 493.434187 145.56399 
L 493.958607 144.515362 
L 494.483027 143.87827 
L 495.007447 144.688723 
L 495.531867 144.472974 
L 496.580707 144.538951 
L 497.105127 144.181126 
L 497.629547 143.605152 
L 498.153967 142.478829 
L 498.678387 141.931304 
L 499.202807 142.924212 
L 500.251647 145.417098 
L 500.776067 145.21467 
L 501.300487 144.808808 
L 501.824907 145.5822 
L 502.349327 146.958698 
L 503.398167 148.526482 
L 503.922587 146.132792 
L 504.447006 145.295642 
L 504.971426 146.050257 
L 506.544686 149.769275 
L 508.117946 152.75687 
L 508.642366 153.22193 
L 509.166786 152.880491 
L 510.740046 154.838757 
L 511.264466 155.152575 
L 511.788886 154.812095 
L 512.313306 153.469953 
L 513.362146 152.718905 
L 513.886566 151.745163 
L 514.935406 147.763928 
L 515.984246 146.481243 
L 516.508666 146.339181 
L 517.033086 145.597744 
L 517.557506 145.543424 
L 518.606346 147.092108 
L 519.130766 146.482948 
L 519.655186 144.083131 
L 520.179606 143.551041 
L 521.228446 144.028624 
L 521.752866 144.740077 
L 522.277286 144.486452 
L 523.326126 145.628881 
L 523.850546 146.490187 
L 524.374966 146.017506 
L 524.899386 146.067452 
L 525.423806 145.731768 
L 525.948226 146.338759 
L 526.997066 148.384147 
L 527.521486 148.976203 
L 528.045906 148.385826 
L 528.570326 148.916755 
L 529.094746 149.73157 
L 529.619166 149.838954 
L 530.143585 149.54986 
L 530.668005 149.421681 
L 531.192425 149.738959 
L 531.716845 149.629135 
L 532.241265 149.688435 
L 532.765685 149.322991 
L 533.290105 147.912933 
L 533.814525 148.111973 
L 534.338945 148.523435 
L 534.863365 149.096261 
L 535.912205 146.455455 
L 536.436625 146.728155 
L 539.583145 152.415789 
L 540.107565 152.70846 
L 540.631985 152.737115 
L 541.156405 151.080588 
L 542.205245 151.646576 
L 542.729665 152.096661 
L 543.254085 152.129741 
L 543.778505 152.327634 
L 544.827345 153.402571 
L 545.351765 153.254749 
L 545.876185 151.648362 
L 546.400605 149.647637 
L 547.973865 147.819464 
L 548.498285 147.745305 
L 550.071545 149.950528 
L 550.595965 150.760145 
L 551.120385 150.744491 
L 551.644805 150.588662 
L 552.693645 151.624663 
L 553.218065 151.781807 
L 554.266905 149.821504 
L 554.791325 149.112056 
L 555.315745 149.152933 
L 555.840165 149.570645 
L 556.364584 149.06349 
L 556.889004 147.670424 
L 557.413424 147.379168 
L 558.462264 147.810623 
L 558.986684 148.407711 
L 559.511104 148.354699 
L 560.035524 148.713725 
L 560.559944 148.241865 
L 561.608784 144.699466 
L 562.133204 143.376501 
L 562.657624 143.277584 
L 563.182044 143.595218 
L 563.706464 144.679693 
L 564.230884 145.460014 
L 564.755304 144.091935 
L 565.279724 144.369787 
L 565.804144 144.872986 
L 566.852984 144.725649 
L 567.377404 144.927677 
L 568.426244 145.074213 
L 569.999504 148.129013 
L 571.048344 150.086422 
L 571.572764 150.888604 
L 572.097184 151.263875 
L 574.194864 146.66997 
L 574.719284 145.837504 
L 575.768124 145.030712 
L 576.292544 145.631274 
L 576.816964 145.181476 
L 577.341384 143.623522 
L 577.865804 143.060251 
L 578.390224 143.532087 
L 579.963484 146.837842 
L 580.487904 147.486333 
L 581.012324 147.463155 
L 581.536744 147.121867 
L 582.585583 144.69561 
L 583.110003 144.585843 
L 583.634423 145.078933 
L 584.683263 146.590077 
L 585.207683 146.257767 
L 585.732103 146.809948 
L 586.256523 147.167697 
L 587.305363 148.052 
L 587.829783 148.134434 
L 588.354203 147.720105 
L 588.878623 147.047998 
L 589.403043 147.09947 
L 590.451883 148.34116 
L 590.976303 149.15778 
L 591.500723 149.538535 
L 592.025143 150.44506 
L 592.549563 150.705007 
L 593.073983 149.318138 
L 593.598403 148.811838 
L 594.647243 149.829922 
L 595.171663 150.035913 
L 596.744923 147.783101 
L 597.793763 147.079761 
L 598.318183 146.197189 
L 599.891443 144.514967 
L 600.415863 142.37073 
L 600.940283 141.960514 
L 601.464703 142.568908 
L 601.989123 142.969971 
L 602.513543 143.171581 
L 603.037963 141.873176 
L 603.562383 139.092579 
L 604.086803 139.303504 
L 604.611223 139.955108 
L 605.135643 140.393552 
L 605.660063 140.622139 
L 606.708903 141.447917 
L 607.233323 141.251944 
L 607.757742 141.598412 
L 608.282162 141.037522 
L 608.806582 140.816992 
L 610.379842 142.020532 
L 611.428682 141.728836 
L 611.953102 142.0416 
L 612.477522 141.297194 
L 613.001942 141.124234 
L 613.526362 141.58387 
L 614.050782 142.487299 
L 614.575202 142.076182 
L 615.099622 142.612345 
L 615.624042 143.329103 
L 616.672882 143.743801 
L 617.197302 144.486747 
L 618.246142 146.30573 
L 618.770562 146.952288 
L 619.294982 147.168193 
L 619.819402 147.871386 
L 620.343822 147.879 
L 620.868242 148.235351 
L 621.917082 147.946915 
L 622.965922 148.839739 
L 624.014762 149.516178 
L 624.539182 149.89035 
L 625.588022 151.405413 
L 626.112442 151.478756 
L 626.636862 152.131493 
L 627.161282 152.512071 
L 627.685702 152.656664 
L 628.210122 152.558214 
L 628.734542 152.970722 
L 629.783382 152.913183 
L 630.307802 149.142369 
L 630.832222 148.027782 
L 631.356642 147.496933 
L 631.881062 147.734228 
L 632.405482 148.694675 
L 633.454321 149.549415 
L 634.503161 150.96168 
L 635.027581 151.702532 
L 636.076421 152.179717 
L 637.125261 152.93345 
L 637.649681 153.310676 
L 638.174101 153.28077 
L 638.698521 153.809858 
L 639.222941 154.148033 
L 639.747361 153.727121 
L 640.271781 152.533672 
L 640.796201 151.797294 
L 641.320621 151.390616 
L 641.845041 150.606277 
L 642.369461 150.769175 
L 642.893881 151.148092 
L 643.418301 151.807867 
L 643.942721 152.118225 
L 644.467141 151.790387 
L 644.991561 150.286968 
L 645.515981 149.196215 
L 646.040401 149.185969 
L 646.564821 149.42866 
L 647.089241 149.169287 
L 647.613661 149.16741 
L 649.186921 150.510923 
L 650.235761 150.502122 
L 650.760181 150.871699 
L 651.284601 151.056495 
L 651.809021 150.111937 
L 652.333441 150.793705 
L 653.382281 150.985288 
L 653.906701 150.786542 
L 654.431121 150.383622 
L 654.955541 150.50941 
L 655.479961 150.200546 
L 656.004381 150.377282 
L 656.528801 150.818947 
L 657.053221 151.442491 
L 657.577641 151.137416 
L 658.102061 150.989796 
L 659.150901 149.750082 
L 659.67532 148.367729 
L 660.19974 147.440979 
L 660.72416 145.982293 
L 661.24858 143.350365 
L 662.29742 143.376968 
L 662.82184 144.032194 
L 663.34626 144.491823 
L 663.87068 144.093689 
L 664.91952 136.577271 
L 665.44394 135.056719 
L 667.0172 125.530273 
L 667.54162 122.632193 
L 668.06604 120.413019 
L 668.59046 117.219832 
L 669.11488 113.130387 
L 670.16372 107.371639 
L 670.68814 105.462934 
L 671.21256 102.315116 
L 671.73698 100.729184 
L 672.2614 97.687274 
L 672.78582 96.725404 
L 673.31024 95.530118 
L 673.83466 93.818302 
L 674.35908 91.637498 
L 674.8835 91.071346 
L 675.40792 87.439831 
L 675.93234 85.470017 
L 676.45676 84.561222 
L 676.98118 81.090797 
L 676.98118 81.090797 
" clip-path="url(#p65b8ab1672)" style="fill: none; stroke: #008fd5; stroke-width: 4"/>
   </g>
   <g id="patch_9">
    <path d="M 395.60364 182.16 
L 395.60364 7.2 
" style="fill: none; stroke: #f0f0f0; stroke-width: 3; stroke-linejoin: miter; stroke-linecap: square"/>
   </g>
   <g id="patch_10">
    <path d="M 690.38011 182.16 
L 690.38011 7.2 
" style="fill: none; stroke: #f0f0f0; stroke-width: 3; stroke-linejoin: miter; stroke-linecap: square"/>
   </g>
   <g id="patch_11">
    <path d="M 395.60364 182.16 
L 690.38011 182.16 
" style="fill: none; stroke: #f0f0f0; stroke-width: 3; stroke-linejoin: miter; stroke-linecap: square"/>
   </g>
   <g id="patch_12">
    <path d="M 395.60364 7.2 
L 690.38011 7.2 
" style="fill: none; stroke: #f0f0f0; stroke-width: 3; stroke-linejoin: miter; stroke-linecap: square"/>
   </g>
   <g id="legend_2">
    <g id="patch_13">
     <path d="M 565.425735 38.949375 
L 680.58011 38.949375 
Q 683.38011 38.949375 683.38011 36.149375 
L 683.38011 17 
Q 683.38011 14.2 680.58011 14.2 
L 565.425735 14.2 
Q 562.625735 14.2 562.625735 17 
L 562.625735 36.149375 
Q 562.625735 38.949375 565.425735 38.949375 
z
" style="fill: #f0f0f0; opacity: 0.8; stroke: #cccccc; stroke-width: 0.5; stroke-linejoin: miter"/>
    </g>
    <g id="line2d_51">
     <path d="M 568.225735 25.537813 
L 582.225735 25.537813 
L 596.225735 25.537813 
" style="fill: none; stroke: #008fd5; stroke-width: 4"/>
    </g>
    <g id="text_25">
     <!-- perplexity -->
     <g transform="translate(607.425735 30.437813) scale(0.14 -0.14)">
      <defs>
       <path id="DejaVuSans-70" d="M 1159 525 
L 1159 -1331 
L 581 -1331 
L 581 3500 
L 1159 3500 
L 1159 2969 
Q 1341 3281 1617 3432 
Q 1894 3584 2278 3584 
Q 2916 3584 3314 3078 
Q 3713 2572 3713 1747 
Q 3713 922 3314 415 
Q 2916 -91 2278 -91 
Q 1894 -91 1617 61 
Q 1341 213 1159 525 
z
M 3116 1747 
Q 3116 2381 2855 2742 
Q 2594 3103 2138 3103 
Q 1681 3103 1420 2742 
Q 1159 2381 1159 1747 
Q 1159 1113 1420 752 
Q 1681 391 2138 391 
Q 2594 391 2855 752 
Q 3116 1113 3116 1747 
z
" transform="scale(0.015625)"/>
       <path id="DejaVuSans-65" d="M 3597 1894 
L 3597 1613 
L 953 1613 
Q 991 1019 1311 708 
Q 1631 397 2203 397 
Q 2534 397 2845 478 
Q 3156 559 3463 722 
L 3463 178 
Q 3153 47 2828 -22 
Q 2503 -91 2169 -91 
Q 1331 -91 842 396 
Q 353 884 353 1716 
Q 353 2575 817 3079 
Q 1281 3584 2069 3584 
Q 2775 3584 3186 3129 
Q 3597 2675 3597 1894 
z
M 3022 2063 
Q 3016 2534 2758 2815 
Q 2500 3097 2075 3097 
Q 1594 3097 1305 2825 
Q 1016 2553 972 2059 
L 3022 2063 
z
" transform="scale(0.015625)"/>
       <path id="DejaVuSans-6c" d="M 603 4863 
L 1178 4863 
L 1178 0 
L 603 0 
L 603 4863 
z
" transform="scale(0.015625)"/>
       <path id="DejaVuSans-78" d="M 3513 3500 
L 2247 1797 
L 3578 0 
L 2900 0 
L 1881 1375 
L 863 0 
L 184 0 
L 1544 1831 
L 300 3500 
L 978 3500 
L 1906 2253 
L 2834 3500 
L 3513 3500 
z
" transform="scale(0.015625)"/>
       <path id="DejaVuSans-69" d="M 603 3500 
L 1178 3500 
L 1178 0 
L 603 0 
L 603 3500 
z
M 603 4863 
L 1178 4863 
L 1178 4134 
L 603 4134 
L 603 4863 
z
" transform="scale(0.015625)"/>
       <path id="DejaVuSans-74" d="M 1172 4494 
L 1172 3500 
L 2356 3500 
L 2356 3053 
L 1172 3053 
L 1172 1153 
Q 1172 725 1289 603 
Q 1406 481 1766 481 
L 2356 481 
L 2356 0 
L 1766 0 
Q 1100 0 847 248 
Q 594 497 594 1153 
L 594 3053 
L 172 3053 
L 172 3500 
L 594 3500 
L 594 4494 
L 1172 4494 
z
" transform="scale(0.015625)"/>
      </defs>
      <use xlink:href="#DejaVuSans-70"/>
      <use xlink:href="#DejaVuSans-65" x="63.476562"/>
      <use xlink:href="#DejaVuSans-72" x="125"/>
      <use xlink:href="#DejaVuSans-70" x="166.113281"/>
      <use xlink:href="#DejaVuSans-6c" x="229.589844"/>
      <use xlink:href="#DejaVuSans-65" x="257.373047"/>
      <use xlink:href="#DejaVuSans-78" x="317.146484"/>
      <use xlink:href="#DejaVuSans-69" x="376.326172"/>
      <use xlink:href="#DejaVuSans-74" x="404.109375"/>
      <use xlink:href="#DejaVuSans-79" x="443.318359"/>
     </g>
    </g>
   </g>
  </g>
  <g id="axes_3">
   <g id="patch_14">
    <path d="M 749.335404 182.16 
L 1044.111875 182.16 
L 1044.111875 7.2 
L 749.335404 7.2 
L 749.335404 182.16 
z
" style="fill: none"/>
   </g>
   <g id="matplotlib.axis_5">
    <g id="xtick_13">
     <g id="line2d_52">
      <path d="M 762.734335 182.16 
L 762.734335 7.2 
" clip-path="url(#pd0125d9e90)" style="fill: none; stroke: #cbcbcb"/>
     </g>
     <g id="line2d_53"/>
     <g id="text_26">
      <!-- 0 -->
      <g transform="translate(758.280585 196.297813) scale(0.14 -0.14)">
       <use xlink:href="#DejaVuSans-30"/>
      </g>
     </g>
    </g>
    <g id="xtick_14">
     <g id="line2d_54">
      <path d="M 815.176333 182.16 
L 815.176333 7.2 
" clip-path="url(#pd0125d9e90)" style="fill: none; stroke: #cbcbcb"/>
     </g>
     <g id="line2d_55"/>
     <g id="text_27">
      <!-- 100 -->
      <g transform="translate(801.815083 196.297813) scale(0.14 -0.14)">
       <use xlink:href="#DejaVuSans-31"/>
       <use xlink:href="#DejaVuSans-30" x="63.623047"/>
       <use xlink:href="#DejaVuSans-30" x="127.246094"/>
      </g>
     </g>
    </g>
    <g id="xtick_15">
     <g id="line2d_56">
      <path d="M 867.618331 182.16 
L 867.618331 7.2 
" clip-path="url(#pd0125d9e90)" style="fill: none; stroke: #cbcbcb"/>
     </g>
     <g id="line2d_57"/>
     <g id="text_28">
      <!-- 200 -->
      <g transform="translate(854.257081 196.297813) scale(0.14 -0.14)">
       <use xlink:href="#DejaVuSans-32"/>
       <use xlink:href="#DejaVuSans-30" x="63.623047"/>
       <use xlink:href="#DejaVuSans-30" x="127.246094"/>
      </g>
     </g>
    </g>
    <g id="xtick_16">
     <g id="line2d_58">
      <path d="M 920.060329 182.16 
L 920.060329 7.2 
" clip-path="url(#pd0125d9e90)" style="fill: none; stroke: #cbcbcb"/>
     </g>
     <g id="line2d_59"/>
     <g id="text_29">
      <!-- 300 -->
      <g transform="translate(906.699079 196.297813) scale(0.14 -0.14)">
       <use xlink:href="#DejaVuSans-33"/>
       <use xlink:href="#DejaVuSans-30" x="63.623047"/>
       <use xlink:href="#DejaVuSans-30" x="127.246094"/>
      </g>
     </g>
    </g>
    <g id="xtick_17">
     <g id="line2d_60">
      <path d="M 972.502327 182.16 
L 972.502327 7.2 
" clip-path="url(#pd0125d9e90)" style="fill: none; stroke: #cbcbcb"/>
     </g>
     <g id="line2d_61"/>
     <g id="text_30">
      <!-- 400 -->
      <g transform="translate(959.141077 196.297813) scale(0.14 -0.14)">
       <use xlink:href="#DejaVuSans-34"/>
       <use xlink:href="#DejaVuSans-30" x="63.623047"/>
       <use xlink:href="#DejaVuSans-30" x="127.246094"/>
      </g>
     </g>
    </g>
    <g id="xtick_18">
     <g id="line2d_62">
      <path d="M 1024.944325 182.16 
L 1024.944325 7.2 
" clip-path="url(#pd0125d9e90)" style="fill: none; stroke: #cbcbcb"/>
     </g>
     <g id="line2d_63"/>
     <g id="text_31">
      <!-- 500 -->
      <g transform="translate(1011.583075 196.297813) scale(0.14 -0.14)">
       <use xlink:href="#DejaVuSans-35"/>
       <use xlink:href="#DejaVuSans-30" x="63.623047"/>
       <use xlink:href="#DejaVuSans-30" x="127.246094"/>
      </g>
     </g>
    </g>
   </g>
   <g id="matplotlib.axis_6">
    <g id="ytick_12">
     <g id="line2d_64">
      <path d="M 749.335404 174.207273 
L 1044.111875 174.207273 
" clip-path="url(#pd0125d9e90)" style="fill: none; stroke: #cbcbcb"/>
     </g>
     <g id="line2d_65"/>
     <g id="text_32">
      <!-- 0.0 -->
      <g transform="translate(723.571029 179.526179) scale(0.14 -0.14)">
       <use xlink:href="#DejaVuSans-30"/>
       <use xlink:href="#DejaVuSans-2e" x="63.623047"/>
       <use xlink:href="#DejaVuSans-30" x="95.410156"/>
      </g>
     </g>
    </g>
    <g id="ytick_13">
     <g id="line2d_66">
      <path d="M 749.335404 142.389574 
L 1044.111875 142.389574 
" clip-path="url(#pd0125d9e90)" style="fill: none; stroke: #cbcbcb"/>
     </g>
     <g id="line2d_67"/>
     <g id="text_33">
      <!-- 0.2 -->
      <g transform="translate(723.571029 147.70848) scale(0.14 -0.14)">
       <use xlink:href="#DejaVuSans-30"/>
       <use xlink:href="#DejaVuSans-2e" x="63.623047"/>
       <use xlink:href="#DejaVuSans-32" x="95.410156"/>
      </g>
     </g>
    </g>
    <g id="ytick_14">
     <g id="line2d_68">
      <path d="M 749.335404 110.571876 
L 1044.111875 110.571876 
" clip-path="url(#pd0125d9e90)" style="fill: none; stroke: #cbcbcb"/>
     </g>
     <g id="line2d_69"/>
     <g id="text_34">
      <!-- 0.4 -->
      <g transform="translate(723.571029 115.890782) scale(0.14 -0.14)">
       <use xlink:href="#DejaVuSans-30"/>
       <use xlink:href="#DejaVuSans-2e" x="63.623047"/>
       <use xlink:href="#DejaVuSans-34" x="95.410156"/>
      </g>
     </g>
    </g>
    <g id="ytick_15">
     <g id="line2d_70">
      <path d="M 749.335404 78.754177 
L 1044.111875 78.754177 
" clip-path="url(#pd0125d9e90)" style="fill: none; stroke: #cbcbcb"/>
     </g>
     <g id="line2d_71"/>
     <g id="text_35">
      <!-- 0.6 -->
      <g transform="translate(723.571029 84.073083) scale(0.14 -0.14)">
       <use xlink:href="#DejaVuSans-30"/>
       <use xlink:href="#DejaVuSans-2e" x="63.623047"/>
       <use xlink:href="#DejaVuSans-36" x="95.410156"/>
      </g>
     </g>
    </g>
    <g id="ytick_16">
     <g id="line2d_72">
      <path d="M 749.335404 46.936479 
L 1044.111875 46.936479 
" clip-path="url(#pd0125d9e90)" style="fill: none; stroke: #cbcbcb"/>
     </g>
     <g id="line2d_73"/>
     <g id="text_36">
      <!-- 0.8 -->
      <g transform="translate(723.571029 52.255385) scale(0.14 -0.14)">
       <use xlink:href="#DejaVuSans-30"/>
       <use xlink:href="#DejaVuSans-2e" x="63.623047"/>
       <use xlink:href="#DejaVuSans-38" x="95.410156"/>
      </g>
     </g>
    </g>
    <g id="ytick_17">
     <g id="line2d_74">
      <path d="M 749.335404 15.11878 
L 1044.111875 15.11878 
" clip-path="url(#pd0125d9e90)" style="fill: none; stroke: #cbcbcb"/>
     </g>
     <g id="line2d_75"/>
     <g id="text_37">
      <!-- 1.0 -->
      <g transform="translate(723.571029 20.437686) scale(0.14 -0.14)">
       <use xlink:href="#DejaVuSans-31"/>
       <use xlink:href="#DejaVuSans-2e" x="63.623047"/>
       <use xlink:href="#DejaVuSans-30" x="95.410156"/>
      </g>
     </g>
    </g>
   </g>
   <g id="line2d_76">
    <path d="M 762.734335 174.207273 
L 767.978535 174.207273 
L 777.942514 23.065829 
L 778.466934 174.207273 
L 788.955334 18.991597 
L 789.479754 170.229865 
L 799.443733 19.088422 
L 799.968153 170.326878 
L 809.932133 22.87199 
L 810.456553 174.20727 
L 820.420533 23.065829 
L 820.944953 174.20727 
L 831.433352 18.991597 
L 831.957772 170.229863 
L 841.921752 19.088422 
L 842.446172 170.326876 
L 852.410151 22.87198 
L 852.934571 174.207268 
L 862.898551 23.06582 
L 863.422971 174.207268 
L 873.911371 18.991587 
L 874.435791 170.22986 
L 884.39977 19.088412 
L 884.92419 170.326874 
L 894.88817 22.87198 
L 895.41259 174.207266 
L 905.376569 22.217305 
L 905.900989 173.252792 
L 915.864969 22.675315 
L 916.389389 173.777819 
L 922.682429 75.170978 
L 926.353369 17.172586 
L 926.877789 167.950644 
L 936.317348 20.877213 
L 936.841768 171.742318 
L 941.561548 96.02041 
L 946.281328 19.373454 
L 946.805748 169.914415 
L 954.147627 51.910752 
L 956.245307 18.152858 
L 956.769727 168.786665 
L 962.538347 74.009534 
L 965.684867 21.470338 
L 966.209287 171.780453 
L 975.648847 15.196166 
L 976.173267 165.604752 
L 982.990726 51.127201 
L 985.088406 15.152727 
L 985.612826 165.232002 
L 994.003546 21.575716 
L 994.527966 171.771258 
L 1003.443106 18.882122 
L 1003.967526 168.743027 
L 1011.833825 29.580598 
L 1012.358245 24.925994 
L 1030.712945 24.925994 
L 1030.712945 24.925994 
" clip-path="url(#pd0125d9e90)" style="fill: none; stroke: #008fd5; stroke-width: 4"/>
   </g>
   <g id="patch_15">
    <path d="M 749.335404 182.16 
L 749.335404 7.2 
" style="fill: none; stroke: #f0f0f0; stroke-width: 3; stroke-linejoin: miter; stroke-linecap: square"/>
   </g>
   <g id="patch_16">
    <path d="M 1044.111875 182.16 
L 1044.111875 7.2 
" style="fill: none; stroke: #f0f0f0; stroke-width: 3; stroke-linejoin: miter; stroke-linecap: square"/>
   </g>
   <g id="patch_17">
    <path d="M 749.335404 182.16 
L 1044.111875 182.16 
" style="fill: none; stroke: #f0f0f0; stroke-width: 3; stroke-linejoin: miter; stroke-linecap: square"/>
   </g>
   <g id="patch_18">
    <path d="M 749.335404 7.2 
L 1044.111875 7.2 
" style="fill: none; stroke: #f0f0f0; stroke-width: 3; stroke-linejoin: miter; stroke-linecap: square"/>
   </g>
   <g id="legend_3">
    <g id="patch_19">
     <path d="M 957.362187 38.949375 
L 1034.311875 38.949375 
Q 1037.111875 38.949375 1037.111875 36.149375 
L 1037.111875 17 
Q 1037.111875 14.2 1034.311875 14.2 
L 957.362187 14.2 
Q 954.562187 14.2 954.562187 17 
L 954.562187 36.149375 
Q 954.562187 38.949375 957.362187 38.949375 
z
" style="fill: #f0f0f0; opacity: 0.8; stroke: #cccccc; stroke-width: 0.5; stroke-linejoin: miter"/>
    </g>
    <g id="line2d_77">
     <path d="M 960.162187 25.537813 
L 974.162187 25.537813 
L 988.162187 25.537813 
" style="fill: none; stroke: #008fd5; stroke-width: 4"/>
    </g>
    <g id="text_38">
     <!-- sync -->
     <g transform="translate(999.362187 30.437813) scale(0.14 -0.14)">
      <defs>
       <path id="DejaVuSans-73" d="M 2834 3397 
L 2834 2853 
Q 2591 2978 2328 3040 
Q 2066 3103 1784 3103 
Q 1356 3103 1142 2972 
Q 928 2841 928 2578 
Q 928 2378 1081 2264 
Q 1234 2150 1697 2047 
L 1894 2003 
Q 2506 1872 2764 1633 
Q 3022 1394 3022 966 
Q 3022 478 2636 193 
Q 2250 -91 1575 -91 
Q 1294 -91 989 -36 
Q 684 19 347 128 
L 347 722 
Q 666 556 975 473 
Q 1284 391 1588 391 
Q 1994 391 2212 530 
Q 2431 669 2431 922 
Q 2431 1156 2273 1281 
Q 2116 1406 1581 1522 
L 1381 1569 
Q 847 1681 609 1914 
Q 372 2147 372 2553 
Q 372 3047 722 3315 
Q 1072 3584 1716 3584 
Q 2034 3584 2315 3537 
Q 2597 3491 2834 3397 
z
" transform="scale(0.015625)"/>
       <path id="DejaVuSans-6e" d="M 3513 2113 
L 3513 0 
L 2938 0 
L 2938 2094 
Q 2938 2591 2744 2837 
Q 2550 3084 2163 3084 
Q 1697 3084 1428 2787 
Q 1159 2491 1159 1978 
L 1159 0 
L 581 0 
L 581 3500 
L 1159 3500 
L 1159 2956 
Q 1366 3272 1645 3428 
Q 1925 3584 2291 3584 
Q 2894 3584 3203 3211 
Q 3513 2838 3513 2113 
z
" transform="scale(0.015625)"/>
      </defs>
      <use xlink:href="#DejaVuSans-73"/>
      <use xlink:href="#DejaVuSans-79" x="52.099609"/>
      <use xlink:href="#DejaVuSans-6e" x="111.279297"/>
      <use xlink:href="#DejaVuSans-63" x="174.658203"/>
     </g>
    </g>
   </g>
  </g>
 </g>
 <defs>
  <clipPath id="p722506a576">
   <rect x="41.871875" y="7.2" width="294.776471" height="174.96"/>
  </clipPath>
  <clipPath id="p65b8ab1672">
   <rect x="395.60364" y="7.2" width="294.776471" height="174.96"/>
  </clipPath>
  <clipPath id="pd0125d9e90">
   <rect x="749.335404" y="7.2" width="294.776471" height="174.96"/>
  </clipPath>
 </defs>
</svg>
