<?xml version="1.0" encoding="utf-8" standalone="no"?>
<!DOCTYPE svg PUBLIC "-//W3C//DTD SVG 1.1//EN"
  "http://www.w3.org/Graphics/SVG/1.1/DTD/svg11.dtd">
<svg xmlns:xlink="http://www.w3.org/1999/xlink" width="1051.311875pt" height="206.858004pt" viewBox="0 0 1051.311875 206.858004" xmlns="http://www.w3.org/2000/svg" version="1.1">
 <metadata>
  <rdf:RDF xmlns:dc="http://purl.org/dc/elements/1.1/" xmlns:cc="http://creativecommons.org/ns#" xmlns:rdf="http://www.w3.org/1999/02/22-rdf-syntax-ns#">
   <cc:Work>
    <dc:type rdf:resource="http://purl.org/dc/dcmitype/StillImage"/>
    <dc:date>2023-01-19T14:54:36.709870</dc:date>
    <dc:format>image/svg+xml</dc:format>
    <dc:creator>
     <cc:Agent>
      <dc:title>Matplotlib v3.6.0, https://matplotlib.org/</dc:title>
     </cc:Agent>
    </dc:creator>
   </cc:Work>
  </rdf:RDF>
 </metadata>
 <defs>
  <style type="text/css">*{stroke-linejoin: round; stroke-linecap: butt}</style>
 </defs>
 <g id="figure_1">
  <g id="patch_1">
   <path d="M 0 206.858004 
L 1051.311875 206.858004 
L 1051.311875 0 
L 0 0 
L 0 206.858004 
z
" style="fill: none"/>
  </g>
  <g id="axes_1">
   <g id="patch_2">
    <path d="M 41.871875 182.608629 
L 336.648346 182.608629 
L 336.648346 7.648629 
L 41.871875 7.648629 
L 41.871875 182.608629 
z
" style="fill: none"/>
   </g>
   <g id="matplotlib.axis_1">
    <g id="xtick_1">
     <g id="line2d_1">
      <path d="M 55.270805 182.608629 
L 55.270805 7.648629 
" clip-path="url(#p27b5ed596f)" style="fill: none; stroke: #cbcbcb"/>
     </g>
     <g id="line2d_2"/>
     <g id="text_1">
      <!-- 0 -->
      <g transform="translate(50.817055 196.746442) scale(0.14 -0.14)">
       <defs>
        <path id="DejaVuSans-30" d="M 2034 4250 
Q 1547 4250 1301 3770 
Q 1056 3291 1056 2328 
Q 1056 1369 1301 889 
Q 1547 409 2034 409 
Q 2525 409 2770 889 
Q 3016 1369 3016 2328 
Q 3016 3291 2770 3770 
Q 2525 4250 2034 4250 
z
M 2034 4750 
Q 2819 4750 3233 4129 
Q 3647 3509 3647 2328 
Q 3647 1150 3233 529 
Q 2819 -91 2034 -91 
Q 1250 -91 836 529 
Q 422 1150 422 2328 
Q 422 3509 836 4129 
Q 1250 4750 2034 4750 
z
" transform="scale(0.015625)"/>
       </defs>
       <use xlink:href="#DejaVuSans-30"/>
      </g>
     </g>
    </g>
    <g id="xtick_2">
     <g id="line2d_3">
      <path d="M 107.712803 182.608629 
L 107.712803 7.648629 
" clip-path="url(#p27b5ed596f)" style="fill: none; stroke: #cbcbcb"/>
     </g>
     <g id="line2d_4"/>
     <g id="text_2">
      <!-- 100 -->
      <g transform="translate(94.351553 196.746442) scale(0.14 -0.14)">
       <defs>
        <path id="DejaVuSans-31" d="M 794 531 
L 1825 531 
L 1825 4091 
L 703 3866 
L 703 4441 
L 1819 4666 
L 2450 4666 
L 2450 531 
L 3481 531 
L 3481 0 
L 794 0 
L 794 531 
z
" transform="scale(0.015625)"/>
       </defs>
       <use xlink:href="#DejaVuSans-31"/>
       <use xlink:href="#DejaVuSans-30" x="63.623047"/>
       <use xlink:href="#DejaVuSans-30" x="127.246094"/>
      </g>
     </g>
    </g>
    <g id="xtick_3">
     <g id="line2d_5">
      <path d="M 160.154801 182.608629 
L 160.154801 7.648629 
" clip-path="url(#p27b5ed596f)" style="fill: none; stroke: #cbcbcb"/>
     </g>
     <g id="line2d_6"/>
     <g id="text_3">
      <!-- 200 -->
      <g transform="translate(146.793551 196.746442) scale(0.14 -0.14)">
       <defs>
        <path id="DejaVuSans-32" d="M 1228 531 
L 3431 531 
L 3431 0 
L 469 0 
L 469 531 
Q 828 903 1448 1529 
Q 2069 2156 2228 2338 
Q 2531 2678 2651 2914 
Q 2772 3150 2772 3378 
Q 2772 3750 2511 3984 
Q 2250 4219 1831 4219 
Q 1534 4219 1204 4116 
Q 875 4013 500 3803 
L 500 4441 
Q 881 4594 1212 4672 
Q 1544 4750 1819 4750 
Q 2544 4750 2975 4387 
Q 3406 4025 3406 3419 
Q 3406 3131 3298 2873 
Q 3191 2616 2906 2266 
Q 2828 2175 2409 1742 
Q 1991 1309 1228 531 
z
" transform="scale(0.015625)"/>
       </defs>
       <use xlink:href="#DejaVuSans-32"/>
       <use xlink:href="#DejaVuSans-30" x="63.623047"/>
       <use xlink:href="#DejaVuSans-30" x="127.246094"/>
      </g>
     </g>
    </g>
    <g id="xtick_4">
     <g id="line2d_7">
      <path d="M 212.596799 182.608629 
L 212.596799 7.648629 
" clip-path="url(#p27b5ed596f)" style="fill: none; stroke: #cbcbcb"/>
     </g>
     <g id="line2d_8"/>
     <g id="text_4">
      <!-- 300 -->
      <g transform="translate(199.235549 196.746442) scale(0.14 -0.14)">
       <defs>
        <path id="DejaVuSans-33" d="M 2597 2516 
Q 3050 2419 3304 2112 
Q 3559 1806 3559 1356 
Q 3559 666 3084 287 
Q 2609 -91 1734 -91 
Q 1441 -91 1130 -33 
Q 819 25 488 141 
L 488 750 
Q 750 597 1062 519 
Q 1375 441 1716 441 
Q 2309 441 2620 675 
Q 2931 909 2931 1356 
Q 2931 1769 2642 2001 
Q 2353 2234 1838 2234 
L 1294 2234 
L 1294 2753 
L 1863 2753 
Q 2328 2753 2575 2939 
Q 2822 3125 2822 3475 
Q 2822 3834 2567 4026 
Q 2313 4219 1838 4219 
Q 1578 4219 1281 4162 
Q 984 4106 628 3988 
L 628 4550 
Q 988 4650 1302 4700 
Q 1616 4750 1894 4750 
Q 2613 4750 3031 4423 
Q 3450 4097 3450 3541 
Q 3450 3153 3228 2886 
Q 3006 2619 2597 2516 
z
" transform="scale(0.015625)"/>
       </defs>
       <use xlink:href="#DejaVuSans-33"/>
       <use xlink:href="#DejaVuSans-30" x="63.623047"/>
       <use xlink:href="#DejaVuSans-30" x="127.246094"/>
      </g>
     </g>
    </g>
    <g id="xtick_5">
     <g id="line2d_9">
      <path d="M 265.038797 182.608629 
L 265.038797 7.648629 
" clip-path="url(#p27b5ed596f)" style="fill: none; stroke: #cbcbcb"/>
     </g>
     <g id="line2d_10"/>
     <g id="text_5">
      <!-- 400 -->
      <g transform="translate(251.677547 196.746442) scale(0.14 -0.14)">
       <defs>
        <path id="DejaVuSans-34" d="M 2419 4116 
L 825 1625 
L 2419 1625 
L 2419 4116 
z
M 2253 4666 
L 3047 4666 
L 3047 1625 
L 3713 1625 
L 3713 1100 
L 3047 1100 
L 3047 0 
L 2419 0 
L 2419 1100 
L 313 1100 
L 313 1709 
L 2253 4666 
z
" transform="scale(0.015625)"/>
       </defs>
       <use xlink:href="#DejaVuSans-34"/>
       <use xlink:href="#DejaVuSans-30" x="63.623047"/>
       <use xlink:href="#DejaVuSans-30" x="127.246094"/>
      </g>
     </g>
    </g>
    <g id="xtick_6">
     <g id="line2d_11">
      <path d="M 317.480795 182.608629 
L 317.480795 7.648629 
" clip-path="url(#p27b5ed596f)" style="fill: none; stroke: #cbcbcb"/>
     </g>
     <g id="line2d_12"/>
     <g id="text_6">
      <!-- 500 -->
      <g transform="translate(304.119545 196.746442) scale(0.14 -0.14)">
       <defs>
        <path id="DejaVuSans-35" d="M 691 4666 
L 3169 4666 
L 3169 4134 
L 1269 4134 
L 1269 2991 
Q 1406 3038 1543 3061 
Q 1681 3084 1819 3084 
Q 2600 3084 3056 2656 
Q 3513 2228 3513 1497 
Q 3513 744 3044 326 
Q 2575 -91 1722 -91 
Q 1428 -91 1123 -41 
Q 819 9 494 109 
L 494 744 
Q 775 591 1075 516 
Q 1375 441 1709 441 
Q 2250 441 2565 725 
Q 2881 1009 2881 1497 
Q 2881 1984 2565 2268 
Q 2250 2553 1709 2553 
Q 1456 2553 1204 2497 
Q 953 2441 691 2322 
L 691 4666 
z
" transform="scale(0.015625)"/>
       </defs>
       <use xlink:href="#DejaVuSans-35"/>
       <use xlink:href="#DejaVuSans-30" x="63.623047"/>
       <use xlink:href="#DejaVuSans-30" x="127.246094"/>
      </g>
     </g>
    </g>
   </g>
   <g id="matplotlib.axis_2">
    <g id="ytick_1">
     <g id="line2d_13">
      <path d="M 41.871875 174.655902 
L 336.648346 174.655902 
" clip-path="url(#p27b5ed596f)" style="fill: none; stroke: #cbcbcb"/>
     </g>
     <g id="line2d_14"/>
     <g id="text_7">
      <!-- 0.00 -->
      <g transform="translate(7.2 179.974808) scale(0.14 -0.14)">
       <defs>
        <path id="DejaVuSans-2e" d="M 684 794 
L 1344 794 
L 1344 0 
L 684 0 
L 684 794 
z
" transform="scale(0.015625)"/>
       </defs>
       <use xlink:href="#DejaVuSans-30"/>
       <use xlink:href="#DejaVuSans-2e" x="63.623047"/>
       <use xlink:href="#DejaVuSans-30" x="95.410156"/>
       <use xlink:href="#DejaVuSans-30" x="159.033203"/>
      </g>
     </g>
    </g>
    <g id="ytick_2">
     <g id="line2d_15">
      <path d="M 41.871875 141.205256 
L 336.648346 141.205256 
" clip-path="url(#p27b5ed596f)" style="fill: none; stroke: #cbcbcb"/>
     </g>
     <g id="line2d_16"/>
     <g id="text_8">
      <!-- 0.02 -->
      <g transform="translate(7.2 146.524162) scale(0.14 -0.14)">
       <use xlink:href="#DejaVuSans-30"/>
       <use xlink:href="#DejaVuSans-2e" x="63.623047"/>
       <use xlink:href="#DejaVuSans-30" x="95.410156"/>
       <use xlink:href="#DejaVuSans-32" x="159.033203"/>
      </g>
     </g>
    </g>
    <g id="ytick_3">
     <g id="line2d_17">
      <path d="M 41.871875 107.75461 
L 336.648346 107.75461 
" clip-path="url(#p27b5ed596f)" style="fill: none; stroke: #cbcbcb"/>
     </g>
     <g id="line2d_18"/>
     <g id="text_9">
      <!-- 0.04 -->
      <g transform="translate(7.2 113.073516) scale(0.14 -0.14)">
       <use xlink:href="#DejaVuSans-30"/>
       <use xlink:href="#DejaVuSans-2e" x="63.623047"/>
       <use xlink:href="#DejaVuSans-30" x="95.410156"/>
       <use xlink:href="#DejaVuSans-34" x="159.033203"/>
      </g>
     </g>
    </g>
    <g id="ytick_4">
     <g id="line2d_19">
      <path d="M 41.871875 74.303964 
L 336.648346 74.303964 
" clip-path="url(#p27b5ed596f)" style="fill: none; stroke: #cbcbcb"/>
     </g>
     <g id="line2d_20"/>
     <g id="text_10">
      <!-- 0.06 -->
      <g transform="translate(7.2 79.62287) scale(0.14 -0.14)">
       <defs>
        <path id="DejaVuSans-36" d="M 2113 2584 
Q 1688 2584 1439 2293 
Q 1191 2003 1191 1497 
Q 1191 994 1439 701 
Q 1688 409 2113 409 
Q 2538 409 2786 701 
Q 3034 994 3034 1497 
Q 3034 2003 2786 2293 
Q 2538 2584 2113 2584 
z
M 3366 4563 
L 3366 3988 
Q 3128 4100 2886 4159 
Q 2644 4219 2406 4219 
Q 1781 4219 1451 3797 
Q 1122 3375 1075 2522 
Q 1259 2794 1537 2939 
Q 1816 3084 2150 3084 
Q 2853 3084 3261 2657 
Q 3669 2231 3669 1497 
Q 3669 778 3244 343 
Q 2819 -91 2113 -91 
Q 1303 -91 875 529 
Q 447 1150 447 2328 
Q 447 3434 972 4092 
Q 1497 4750 2381 4750 
Q 2619 4750 2861 4703 
Q 3103 4656 3366 4563 
z
" transform="scale(0.015625)"/>
       </defs>
       <use xlink:href="#DejaVuSans-30"/>
       <use xlink:href="#DejaVuSans-2e" x="63.623047"/>
       <use xlink:href="#DejaVuSans-30" x="95.410156"/>
       <use xlink:href="#DejaVuSans-36" x="159.033203"/>
      </g>
     </g>
    </g>
    <g id="ytick_5">
     <g id="line2d_21">
      <path d="M 41.871875 40.853318 
L 336.648346 40.853318 
" clip-path="url(#p27b5ed596f)" style="fill: none; stroke: #cbcbcb"/>
     </g>
     <g id="line2d_22"/>
     <g id="text_11">
      <!-- 0.08 -->
      <g transform="translate(7.2 46.172224) scale(0.14 -0.14)">
       <defs>
        <path id="DejaVuSans-38" d="M 2034 2216 
Q 1584 2216 1326 1975 
Q 1069 1734 1069 1313 
Q 1069 891 1326 650 
Q 1584 409 2034 409 
Q 2484 409 2743 651 
Q 3003 894 3003 1313 
Q 3003 1734 2745 1975 
Q 2488 2216 2034 2216 
z
M 1403 2484 
Q 997 2584 770 2862 
Q 544 3141 544 3541 
Q 544 4100 942 4425 
Q 1341 4750 2034 4750 
Q 2731 4750 3128 4425 
Q 3525 4100 3525 3541 
Q 3525 3141 3298 2862 
Q 3072 2584 2669 2484 
Q 3125 2378 3379 2068 
Q 3634 1759 3634 1313 
Q 3634 634 3220 271 
Q 2806 -91 2034 -91 
Q 1263 -91 848 271 
Q 434 634 434 1313 
Q 434 1759 690 2068 
Q 947 2378 1403 2484 
z
M 1172 3481 
Q 1172 3119 1398 2916 
Q 1625 2713 2034 2713 
Q 2441 2713 2670 2916 
Q 2900 3119 2900 3481 
Q 2900 3844 2670 4047 
Q 2441 4250 2034 4250 
Q 1625 4250 1398 4047 
Q 1172 3844 1172 3481 
z
" transform="scale(0.015625)"/>
       </defs>
       <use xlink:href="#DejaVuSans-30"/>
       <use xlink:href="#DejaVuSans-2e" x="63.623047"/>
       <use xlink:href="#DejaVuSans-30" x="95.410156"/>
       <use xlink:href="#DejaVuSans-38" x="159.033203"/>
      </g>
     </g>
    </g>
   </g>
   <g id="line2d_23">
    <path d="M 55.270805 15.601357 
L 188.9979 15.601357 
L 189.52232 174.655902 
L 323.249415 174.655902 
L 323.249415 174.655902 
" clip-path="url(#p27b5ed596f)" style="fill: none; stroke: #008fd5; stroke-width: 4"/>
   </g>
   <g id="patch_3">
    <path d="M 41.871875 182.608629 
L 41.871875 7.648629 
" style="fill: none; stroke: #f0f0f0; stroke-width: 3; stroke-linejoin: miter; stroke-linecap: square"/>
   </g>
   <g id="patch_4">
    <path d="M 336.648346 182.608629 
L 336.648346 7.648629 
" style="fill: none; stroke: #f0f0f0; stroke-width: 3; stroke-linejoin: miter; stroke-linecap: square"/>
   </g>
   <g id="patch_5">
    <path d="M 41.871875 182.608629 
L 336.648346 182.608629 
" style="fill: none; stroke: #f0f0f0; stroke-width: 3; stroke-linejoin: miter; stroke-linecap: square"/>
   </g>
   <g id="patch_6">
    <path d="M 41.871875 7.648629 
L 336.648346 7.648629 
" style="fill: none; stroke: #f0f0f0; stroke-width: 3; stroke-linejoin: miter; stroke-linecap: square"/>
   </g>
   <g id="legend_1">
    <g id="patch_7">
     <path d="M 218.882096 39.398004 
L 326.848346 39.398004 
Q 329.648346 39.398004 329.648346 36.598004 
L 329.648346 17.448629 
Q 329.648346 14.648629 326.848346 14.648629 
L 218.882096 14.648629 
Q 216.082096 14.648629 216.082096 17.448629 
L 216.082096 36.598004 
Q 216.082096 39.398004 218.882096 39.398004 
z
" style="fill: #f0f0f0; opacity: 0.8; stroke: #cccccc; stroke-width: 0.5; stroke-linejoin: miter"/>
    </g>
    <g id="line2d_24">
     <path d="M 221.682096 25.986442 
L 235.682096 25.986442 
L 249.682096 25.986442 
" style="fill: none; stroke: #008fd5; stroke-width: 4"/>
    </g>
    <g id="text_12">
     <!-- accuracy -->
     <g transform="translate(260.882096 30.886442) scale(0.14 -0.14)">
      <defs>
       <path id="DejaVuSans-61" d="M 2194 1759 
Q 1497 1759 1228 1600 
Q 959 1441 959 1056 
Q 959 750 1161 570 
Q 1363 391 1709 391 
Q 2188 391 2477 730 
Q 2766 1069 2766 1631 
L 2766 1759 
L 2194 1759 
z
M 3341 1997 
L 3341 0 
L 2766 0 
L 2766 531 
Q 2569 213 2275 61 
Q 1981 -91 1556 -91 
Q 1019 -91 701 211 
Q 384 513 384 1019 
Q 384 1609 779 1909 
Q 1175 2209 1959 2209 
L 2766 2209 
L 2766 2266 
Q 2766 2663 2505 2880 
Q 2244 3097 1772 3097 
Q 1472 3097 1187 3025 
Q 903 2953 641 2809 
L 641 3341 
Q 956 3463 1253 3523 
Q 1550 3584 1831 3584 
Q 2591 3584 2966 3190 
Q 3341 2797 3341 1997 
z
" transform="scale(0.015625)"/>
       <path id="DejaVuSans-63" d="M 3122 3366 
L 3122 2828 
Q 2878 2963 2633 3030 
Q 2388 3097 2138 3097 
Q 1578 3097 1268 2742 
Q 959 2388 959 1747 
Q 959 1106 1268 751 
Q 1578 397 2138 397 
Q 2388 397 2633 464 
Q 2878 531 3122 666 
L 3122 134 
Q 2881 22 2623 -34 
Q 2366 -91 2075 -91 
Q 1284 -91 818 406 
Q 353 903 353 1747 
Q 353 2603 823 3093 
Q 1294 3584 2113 3584 
Q 2378 3584 2631 3529 
Q 2884 3475 3122 3366 
z
" transform="scale(0.015625)"/>
       <path id="DejaVuSans-75" d="M 544 1381 
L 544 3500 
L 1119 3500 
L 1119 1403 
Q 1119 906 1312 657 
Q 1506 409 1894 409 
Q 2359 409 2629 706 
Q 2900 1003 2900 1516 
L 2900 3500 
L 3475 3500 
L 3475 0 
L 2900 0 
L 2900 538 
Q 2691 219 2414 64 
Q 2138 -91 1772 -91 
Q 1169 -91 856 284 
Q 544 659 544 1381 
z
M 1991 3584 
L 1991 3584 
z
" transform="scale(0.015625)"/>
       <path id="DejaVuSans-72" d="M 2631 2963 
Q 2534 3019 2420 3045 
Q 2306 3072 2169 3072 
Q 1681 3072 1420 2755 
Q 1159 2438 1159 1844 
L 1159 0 
L 581 0 
L 581 3500 
L 1159 3500 
L 1159 2956 
Q 1341 3275 1631 3429 
Q 1922 3584 2338 3584 
Q 2397 3584 2469 3576 
Q 2541 3569 2628 3553 
L 2631 2963 
z
" transform="scale(0.015625)"/>
       <path id="DejaVuSans-79" d="M 2059 -325 
Q 1816 -950 1584 -1140 
Q 1353 -1331 966 -1331 
L 506 -1331 
L 506 -850 
L 844 -850 
Q 1081 -850 1212 -737 
Q 1344 -625 1503 -206 
L 1606 56 
L 191 3500 
L 800 3500 
L 1894 763 
L 2988 3500 
L 3597 3500 
L 2059 -325 
z
" transform="scale(0.015625)"/>
      </defs>
      <use xlink:href="#DejaVuSans-61"/>
      <use xlink:href="#DejaVuSans-63" x="61.279297"/>
      <use xlink:href="#DejaVuSans-63" x="116.259766"/>
      <use xlink:href="#DejaVuSans-75" x="171.240234"/>
      <use xlink:href="#DejaVuSans-72" x="234.619141"/>
      <use xlink:href="#DejaVuSans-61" x="275.732422"/>
      <use xlink:href="#DejaVuSans-63" x="337.011719"/>
      <use xlink:href="#DejaVuSans-79" x="391.992188"/>
     </g>
    </g>
   </g>
  </g>
  <g id="axes_2">
   <g id="patch_8">
    <path d="M 395.60364 182.608629 
L 690.38011 182.608629 
L 690.38011 7.648629 
L 395.60364 7.648629 
L 395.60364 182.608629 
z
" style="fill: none"/>
   </g>
   <g id="matplotlib.axis_3">
    <g id="xtick_7">
     <g id="line2d_25">
      <path d="M 409.00257 182.608629 
L 409.00257 7.648629 
" clip-path="url(#p3409d210de)" style="fill: none; stroke: #cbcbcb"/>
     </g>
     <g id="line2d_26"/>
     <g id="text_13">
      <!-- 0 -->
      <g transform="translate(404.54882 196.746442) scale(0.14 -0.14)">
       <use xlink:href="#DejaVuSans-30"/>
      </g>
     </g>
    </g>
    <g id="xtick_8">
     <g id="line2d_27">
      <path d="M 461.444568 182.608629 
L 461.444568 7.648629 
" clip-path="url(#p3409d210de)" style="fill: none; stroke: #cbcbcb"/>
     </g>
     <g id="line2d_28"/>
     <g id="text_14">
      <!-- 100 -->
      <g transform="translate(448.083318 196.746442) scale(0.14 -0.14)">
       <use xlink:href="#DejaVuSans-31"/>
       <use xlink:href="#DejaVuSans-30" x="63.623047"/>
       <use xlink:href="#DejaVuSans-30" x="127.246094"/>
      </g>
     </g>
    </g>
    <g id="xtick_9">
     <g id="line2d_29">
      <path d="M 513.886566 182.608629 
L 513.886566 7.648629 
" clip-path="url(#p3409d210de)" style="fill: none; stroke: #cbcbcb"/>
     </g>
     <g id="line2d_30"/>
     <g id="text_15">
      <!-- 200 -->
      <g transform="translate(500.525316 196.746442) scale(0.14 -0.14)">
       <use xlink:href="#DejaVuSans-32"/>
       <use xlink:href="#DejaVuSans-30" x="63.623047"/>
       <use xlink:href="#DejaVuSans-30" x="127.246094"/>
      </g>
     </g>
    </g>
    <g id="xtick_10">
     <g id="line2d_31">
      <path d="M 566.328564 182.608629 
L 566.328564 7.648629 
" clip-path="url(#p3409d210de)" style="fill: none; stroke: #cbcbcb"/>
     </g>
     <g id="line2d_32"/>
     <g id="text_16">
      <!-- 300 -->
      <g transform="translate(552.967314 196.746442) scale(0.14 -0.14)">
       <use xlink:href="#DejaVuSans-33"/>
       <use xlink:href="#DejaVuSans-30" x="63.623047"/>
       <use xlink:href="#DejaVuSans-30" x="127.246094"/>
      </g>
     </g>
    </g>
    <g id="xtick_11">
     <g id="line2d_33">
      <path d="M 618.770562 182.608629 
L 618.770562 7.648629 
" clip-path="url(#p3409d210de)" style="fill: none; stroke: #cbcbcb"/>
     </g>
     <g id="line2d_34"/>
     <g id="text_17">
      <!-- 400 -->
      <g transform="translate(605.409312 196.746442) scale(0.14 -0.14)">
       <use xlink:href="#DejaVuSans-34"/>
       <use xlink:href="#DejaVuSans-30" x="63.623047"/>
       <use xlink:href="#DejaVuSans-30" x="127.246094"/>
      </g>
     </g>
    </g>
    <g id="xtick_12">
     <g id="line2d_35">
      <path d="M 671.21256 182.608629 
L 671.21256 7.648629 
" clip-path="url(#p3409d210de)" style="fill: none; stroke: #cbcbcb"/>
     </g>
     <g id="line2d_36"/>
     <g id="text_18">
      <!-- 500 -->
      <g transform="translate(657.85131 196.746442) scale(0.14 -0.14)">
       <use xlink:href="#DejaVuSans-35"/>
       <use xlink:href="#DejaVuSans-30" x="63.623047"/>
       <use xlink:href="#DejaVuSans-30" x="127.246094"/>
      </g>
     </g>
    </g>
   </g>
   <g id="matplotlib.axis_4">
    <g id="ytick_6">
     <g id="line2d_37">
      <path d="M 395.60364 151.986846 
L 690.38011 151.986846 
" clip-path="url(#p3409d210de)" style="fill: none; stroke: #cbcbcb"/>
     </g>
     <g id="line2d_38"/>
     <g id="text_19">
      <!-- 20 -->
      <g transform="translate(374.28864 157.305752) scale(0.14 -0.14)">
       <use xlink:href="#DejaVuSans-32"/>
       <use xlink:href="#DejaVuSans-30" x="63.623047"/>
      </g>
     </g>
    </g>
    <g id="ytick_7">
     <g id="line2d_39">
      <path d="M 395.60364 117.119861 
L 690.38011 117.119861 
" clip-path="url(#p3409d210de)" style="fill: none; stroke: #cbcbcb"/>
     </g>
     <g id="line2d_40"/>
     <g id="text_20">
      <!-- 40 -->
      <g transform="translate(374.28864 122.438767) scale(0.14 -0.14)">
       <use xlink:href="#DejaVuSans-34"/>
       <use xlink:href="#DejaVuSans-30" x="63.623047"/>
      </g>
     </g>
    </g>
    <g id="ytick_8">
     <g id="line2d_41">
      <path d="M 395.60364 82.252876 
L 690.38011 82.252876 
" clip-path="url(#p3409d210de)" style="fill: none; stroke: #cbcbcb"/>
     </g>
     <g id="line2d_42"/>
     <g id="text_21">
      <!-- 60 -->
      <g transform="translate(374.28864 87.571782) scale(0.14 -0.14)">
       <use xlink:href="#DejaVuSans-36"/>
       <use xlink:href="#DejaVuSans-30" x="63.623047"/>
      </g>
     </g>
    </g>
    <g id="ytick_9">
     <g id="line2d_43">
      <path d="M 395.60364 47.385891 
L 690.38011 47.385891 
" clip-path="url(#p3409d210de)" style="fill: none; stroke: #cbcbcb"/>
     </g>
     <g id="line2d_44"/>
     <g id="text_22">
      <!-- 80 -->
      <g transform="translate(374.28864 52.704797) scale(0.14 -0.14)">
       <use xlink:href="#DejaVuSans-38"/>
       <use xlink:href="#DejaVuSans-30" x="63.623047"/>
      </g>
     </g>
    </g>
    <g id="ytick_10">
     <g id="line2d_45">
      <path d="M 395.60364 12.518906 
L 690.38011 12.518906 
" clip-path="url(#p3409d210de)" style="fill: none; stroke: #cbcbcb"/>
     </g>
     <g id="line2d_46"/>
     <g id="text_23">
      <!-- 100 -->
      <g transform="translate(365.38114 17.837812) scale(0.14 -0.14)">
       <use xlink:href="#DejaVuSans-31"/>
       <use xlink:href="#DejaVuSans-30" x="63.623047"/>
       <use xlink:href="#DejaVuSans-30" x="127.246094"/>
      </g>
     </g>
    </g>
   </g>
   <g id="line2d_47">
    <path d="M 409.00257 15.601357 
L 409.52699 80.631016 
L 410.05141 123.576606 
L 410.57583 114.359248 
L 411.10025 62.033592 
L 411.62467 91.52474 
L 412.14909 142.11519 
L 412.67351 128.535412 
L 413.19793 37.573713 
L 413.72235 85.915097 
L 414.24677 61.629384 
L 414.77119 94.329831 
L 415.29561 114.495567 
L 415.82003 98.030299 
L 416.34445 105.303467 
L 416.86887 126.129249 
L 417.39329 136.984259 
L 417.91771 137.001284 
L 418.44213 105.925168 
L 418.96655 123.281224 
L 419.49097 99.990343 
L 420.01539 109.556485 
L 420.53981 92.220693 
L 421.06423 106.590569 
L 421.58865 23.438887 
L 422.63749 125.906296 
L 423.16191 120.911232 
L 424.21075 63.425816 
L 424.73517 89.973054 
L 425.25959 47.581478 
L 425.78401 116.58107 
L 426.30843 154.555098 
L 426.832849 158.511488 
L 427.357269 143.38158 
L 427.881689 141.417439 
L 428.406109 136.250576 
L 428.930529 145.699133 
L 429.454949 93.090838 
L 429.979369 55.854832 
L 431.028209 109.760817 
L 431.552629 84.262918 
L 432.077049 77.69321 
L 432.601469 75.587277 
L 433.125889 64.113117 
L 433.650309 99.957789 
L 434.174729 67.897166 
L 434.699149 83.219066 
L 435.223569 70.029281 
L 435.747989 125.447469 
L 436.272409 128.157121 
L 436.796829 152.335807 
L 437.321249 132.364055 
L 437.845669 150.398946 
L 438.370089 148.056224 
L 438.894509 156.646261 
L 439.943349 164.264339 
L 440.992189 69.144332 
L 441.516609 105.092378 
L 442.041029 88.23301 
L 442.565449 102.814706 
L 443.089869 90.217568 
L 443.614289 125.294351 
L 444.138709 105.106337 
L 444.663129 112.4657 
L 445.187549 70.77412 
L 446.236389 114.191825 
L 446.760809 108.591852 
L 447.809649 154.43222 
L 448.334069 162.327629 
L 448.858489 160.822316 
L 449.382909 141.657237 
L 449.907329 145.854575 
L 450.431749 154.894845 
L 450.956169 170.008469 
L 451.480589 142.310996 
L 452.005009 140.865776 
L 452.529429 139.803223 
L 453.053848 159.585492 
L 453.578268 138.550992 
L 454.102688 141.904647 
L 454.627108 122.871596 
L 455.151528 149.845321 
L 455.675948 161.766473 
L 456.200368 139.49985 
L 456.724788 150.961588 
L 457.249208 134.188436 
L 457.773628 133.369881 
L 458.298048 146.611149 
L 458.822468 169.972549 
L 459.346888 158.576648 
L 459.871308 162.963373 
L 460.395728 163.283273 
L 460.920148 166.160174 
L 461.444568 166.895623 
L 461.968988 169.308786 
L 462.493408 163.417864 
L 463.017828 132.901527 
L 463.542248 136.927206 
L 464.066668 108.762061 
L 464.591088 127.507368 
L 465.115508 137.533894 
L 465.639928 105.539494 
L 466.164348 149.899005 
L 466.688768 128.328394 
L 467.213188 124.399467 
L 467.737608 135.177569 
L 468.262028 142.186289 
L 468.786448 156.070829 
L 469.310868 157.255473 
L 469.835288 173.928316 
L 470.359708 156.875598 
L 471.408548 152.28673 
L 471.932968 168.274045 
L 472.457388 169.999564 
L 472.981808 158.631067 
L 474.030648 155.733627 
L 474.555068 155.689964 
L 475.079488 126.76056 
L 475.603908 122.373099 
L 476.128328 123.256418 
L 476.652748 112.669886 
L 477.701588 139.362953 
L 478.226008 130.797456 
L 478.750427 146.477211 
L 479.274847 147.697953 
L 479.799267 138.421802 
L 480.323687 163.423304 
L 480.848107 161.494693 
L 481.372527 134.335921 
L 481.896947 161.997568 
L 482.421367 166.977428 
L 482.945787 150.900083 
L 483.470207 168.892751 
L 483.994627 166.820291 
L 484.519047 139.671376 
L 485.043467 131.862862 
L 485.567887 142.066889 
L 486.616727 123.815274 
L 487.141147 153.54781 
L 487.665567 145.44523 
L 488.189987 125.280226 
L 489.238827 154.098419 
L 489.763247 142.846752 
L 490.287667 162.643012 
L 490.812087 137.731772 
L 491.336507 159.941447 
L 491.860927 161.591052 
L 492.385347 169.075875 
L 492.909767 167.779167 
L 493.434187 164.847041 
L 493.958607 150.966909 
L 494.483027 168.726456 
L 495.007447 159.26399 
L 495.531867 165.836342 
L 496.056287 168.791794 
L 496.580707 160.059844 
L 497.105127 169.004107 
L 497.629547 149.979584 
L 498.153967 142.098727 
L 498.678387 145.062998 
L 499.202807 168.998613 
L 499.727227 160.376 
L 500.251647 160.778866 
L 500.776067 162.180396 
L 501.300487 137.196937 
L 501.824907 151.971338 
L 502.349327 163.072475 
L 502.873747 165.925484 
L 503.398167 165.095666 
L 503.922587 166.295127 
L 504.447006 165.402121 
L 504.971426 170.062543 
L 506.020266 160.292092 
L 506.544686 166.101748 
L 507.069106 160.503882 
L 507.593526 125.818179 
L 508.117946 146.9258 
L 508.642366 105.313422 
L 509.166786 142.098002 
L 509.691206 142.561239 
L 510.215626 159.262156 
L 510.740046 137.541432 
L 511.264466 136.147373 
L 511.788886 121.001378 
L 512.313306 148.909217 
L 512.837726 145.56077 
L 513.362146 169.688595 
L 513.886566 167.637091 
L 514.410986 172.858205 
L 515.459826 160.68148 
L 515.984246 166.901116 
L 516.508666 170.206122 
L 517.033086 150.28034 
L 517.557506 153.338131 
L 518.081926 149.492234 
L 518.606346 147.777318 
L 519.130766 122.584906 
L 519.655186 153.269858 
L 520.179606 104.971202 
L 520.704026 155.859521 
L 521.228446 137.513022 
L 521.752866 124.610935 
L 522.277286 144.789183 
L 522.801706 137.146106 
L 523.326126 158.495763 
L 523.850546 138.204848 
L 524.374966 161.480461 
L 524.899386 165.774294 
L 525.423806 174.555376 
L 525.948226 163.589535 
L 526.472646 171.607733 
L 526.997066 170.268669 
L 527.521486 174.655902 
L 528.045906 157.322518 
L 528.570326 156.300948 
L 529.094746 138.406357 
L 529.619166 144.750142 
L 530.143585 152.586315 
L 530.668005 149.296224 
L 531.192425 154.72567 
L 531.716845 143.85818 
L 532.241265 125.75149 
L 532.765685 143.612636 
L 533.290105 146.540795 
L 533.814525 163.509239 
L 534.338945 158.119067 
L 534.863365 141.091652 
L 535.387785 159.533734 
L 535.912205 151.049995 
L 536.436625 156.739 
L 536.961045 142.164133 
L 537.485465 170.783125 
L 538.009885 170.462581 
L 538.534305 168.569553 
L 539.058725 161.714708 
L 539.583145 164.644084 
L 540.107565 169.915178 
L 540.631985 170.117448 
L 541.156405 169.55218 
L 541.680825 140.556741 
L 542.205245 156.451292 
L 542.729665 161.032973 
L 543.254085 130.618029 
L 543.778505 151.724064 
L 544.302925 128.529401 
L 544.827345 124.052698 
L 545.351765 135.151233 
L 545.876185 142.082929 
L 546.400605 138.034749 
L 546.925025 138.440174 
L 547.449445 146.991556 
L 548.498285 159.145829 
L 549.022705 159.796754 
L 549.547125 156.849519 
L 550.071545 122.363516 
L 550.595965 139.595346 
L 551.120385 122.684195 
L 551.644805 122.212174 
L 552.169225 84.691293 
L 552.693645 98.22262 
L 553.218065 122.4974 
L 553.742485 126.678116 
L 554.266905 132.591787 
L 554.791325 118.740019 
L 555.315745 96.003904 
L 555.840165 109.795991 
L 556.364584 145.467562 
L 556.889004 130.614352 
L 557.413424 141.360838 
L 558.462264 150.281051 
L 558.986684 157.975652 
L 559.511104 156.478831 
L 560.035524 152.938541 
L 560.559944 147.056111 
L 561.084364 132.468226 
L 561.608784 134.748488 
L 562.133204 140.918666 
L 562.657624 133.850661 
L 563.182044 109.550094 
L 563.706464 96.787761 
L 564.230884 91.456601 
L 564.755304 112.458804 
L 565.804144 119.060646 
L 566.328564 142.648252 
L 567.377404 157.39253 
L 567.901824 150.807673 
L 568.426244 147.55654 
L 568.950664 152.009427 
L 569.475084 155.243386 
L 569.999504 155.265871 
L 570.523924 148.07543 
L 571.048344 157.276019 
L 571.572764 131.767067 
L 572.097184 129.425981 
L 572.621604 134.058342 
L 573.670444 114.618073 
L 574.194864 135.866585 
L 574.719284 165.904671 
L 575.243704 129.651494 
L 576.292544 106.026845 
L 576.816964 129.70733 
L 577.865804 133.532904 
L 578.390224 143.468307 
L 578.914644 142.487939 
L 579.439064 140.101534 
L 579.963484 139.130929 
L 580.487904 141.122037 
L 581.012324 141.991504 
L 581.536744 164.594024 
L 582.061163 139.053363 
L 582.585583 149.436839 
L 583.110003 150.965891 
L 583.634423 165.143161 
L 584.158843 149.024415 
L 584.683263 150.63075 
L 585.207683 134.461366 
L 585.732103 126.753578 
L 586.256523 159.562471 
L 586.780943 163.749188 
L 587.305363 143.667684 
L 587.829783 110.050985 
L 588.354203 121.366954 
L 588.878623 146.399249 
L 589.403043 128.702117 
L 589.927463 159.315623 
L 590.451883 158.535465 
L 590.976303 147.471359 
L 591.500723 148.382799 
L 592.025143 156.590497 
L 592.549563 161.260996 
L 593.073983 132.65685 
L 593.598403 148.702584 
L 594.122823 132.127971 
L 595.171663 76.337357 
L 595.696083 97.318193 
L 596.220503 91.446845 
L 596.744923 154.368729 
L 597.269343 137.567472 
L 597.793763 143.445829 
L 598.318183 121.560486 
L 598.842603 139.518139 
L 599.367023 141.130164 
L 599.891443 147.712397 
L 600.415863 131.824885 
L 600.940283 160.724225 
L 601.464703 148.494069 
L 601.989123 153.91587 
L 602.513543 142.564268 
L 603.037963 159.129784 
L 603.562383 133.017485 
L 604.086803 136.709317 
L 604.611223 138.797976 
L 605.135643 99.234837 
L 605.660063 107.827447 
L 606.184483 94.940373 
L 606.708903 110.907544 
L 607.233323 96.967732 
L 607.757742 105.658143 
L 608.282162 111.848003 
L 608.806582 105.844293 
L 609.331002 91.10499 
L 609.855422 113.373161 
L 610.379842 141.678914 
L 610.904262 139.048541 
L 611.428682 147.288667 
L 611.953102 140.497732 
L 613.001942 158.587498 
L 613.526362 150.103873 
L 614.050782 158.820267 
L 614.575202 149.97579 
L 615.099622 127.117279 
L 615.624042 129.519159 
L 616.148462 121.507735 
L 616.672882 130.66681 
L 617.197302 116.785867 
L 617.721722 134.558385 
L 618.246142 135.415621 
L 618.770562 103.84446 
L 619.294982 94.548874 
L 619.819402 125.717879 
L 620.343822 125.344874 
L 620.868242 92.159443 
L 621.392662 147.965297 
L 621.917082 145.748133 
L 622.441502 155.88445 
L 622.965922 139.942335 
L 623.490342 145.960103 
L 624.014762 129.217891 
L 624.539182 139.039433 
L 625.063602 139.788921 
L 625.588022 149.951746 
L 626.112442 86.834455 
L 626.636862 130.807977 
L 627.161282 139.646198 
L 628.210122 83.666129 
L 628.734542 70.902432 
L 629.258962 93.193998 
L 629.783382 121.804853 
L 630.307802 112.544022 
L 630.832222 118.186903 
L 631.356642 116.820556 
L 631.881062 110.168537 
L 632.405482 134.925042 
L 632.929902 135.314932 
L 633.454321 138.034197 
L 633.978741 135.444072 
L 634.503161 147.941099 
L 635.027581 149.628044 
L 635.552001 148.251418 
L 636.600841 133.723596 
L 637.125261 121.52222 
L 637.649681 93.05996 
L 638.174101 114.77959 
L 638.698521 86.191266 
L 639.222941 84.66706 
L 639.747361 83.785256 
L 640.271781 112.434983 
L 640.796201 122.605668 
L 641.320621 114.847636 
L 641.845041 132.279124 
L 642.369461 111.560575 
L 643.418301 146.296611 
L 643.942721 150.152939 
L 644.991561 139.521388 
L 645.515981 139.419009 
L 646.040401 157.060158 
L 646.564821 144.670241 
L 647.089241 115.73615 
L 647.613661 113.531359 
L 648.138081 86.893178 
L 648.662501 98.691623 
L 649.186921 91.447171 
L 649.711341 64.166479 
L 650.235761 84.184617 
L 650.760181 84.885065 
L 651.284601 128.618974 
L 651.809021 96.870996 
L 652.333441 120.334527 
L 652.857861 124.779062 
L 653.382281 141.776348 
L 653.906701 138.963619 
L 654.431121 139.962406 
L 654.955541 143.402173 
L 655.479961 135.822307 
L 656.004381 144.764424 
L 656.528801 149.266813 
L 657.053221 149.404529 
L 657.577641 138.71599 
L 658.102061 116.687721 
L 658.626481 113.28773 
L 659.150901 124.709559 
L 659.67532 89.740957 
L 660.19974 65.477728 
L 660.72416 87.309596 
L 661.24858 88.090799 
L 661.773 134.029845 
L 662.29742 119.629896 
L 662.82184 131.153479 
L 663.34626 125.412501 
L 663.87068 130.100153 
L 664.3951 111.457142 
L 664.91952 123.702989 
L 665.44394 114.943554 
L 665.96836 116.785834 
L 666.49278 139.964334 
L 667.0172 120.889233 
L 667.54162 82.390306 
L 668.06604 119.852397 
L 669.11488 152.364403 
L 669.6393 147.006652 
L 670.16372 149.89994 
L 670.68814 112.274962 
L 671.21256 119.635442 
L 671.73698 110.802854 
L 672.2614 87.780866 
L 672.78582 117.193747 
L 673.31024 113.241776 
L 673.83466 103.274365 
L 674.35908 84.008529 
L 675.40792 107.221734 
L 675.93234 96.075096 
L 676.45676 109.426737 
L 676.98118 52.197765 
L 676.98118 52.197765 
" clip-path="url(#p3409d210de)" style="fill: none; stroke: #008fd5; stroke-opacity: 0.4; stroke-width: 4"/>
   </g>
   <g id="line2d_48">
    <path d="M 409.00257 15.601357 
L 409.52699 18.852846 
L 410.57583 28.602551 
L 411.10025 30.274103 
L 411.62467 33.336642 
L 412.67351 43.263552 
L 413.19793 42.979064 
L 413.72235 45.125863 
L 414.24677 45.951038 
L 414.77119 48.369983 
L 415.29561 51.676271 
L 416.34445 56.55945 
L 417.91771 67.541066 
L 418.44213 69.460277 
L 418.96655 72.151328 
L 419.49097 73.543286 
L 420.01539 75.343948 
L 420.53981 76.187784 
L 421.06423 77.707928 
L 421.58865 74.994472 
L 422.11307 75.13659 
L 423.16191 79.836884 
L 423.68633 80.346214 
L 424.21075 79.500197 
L 424.73517 80.023839 
L 425.25959 78.401725 
L 425.78401 80.310695 
L 426.832849 87.747342 
L 427.881689 93.073481 
L 428.930529 97.755672 
L 429.454949 97.522431 
L 429.979369 95.439056 
L 430.503789 94.718165 
L 431.028209 95.4703 
L 431.552629 94.909928 
L 432.601469 93.125998 
L 433.125889 91.675358 
L 433.650309 92.089481 
L 434.174729 90.879869 
L 434.699149 90.496829 
L 435.223569 89.473453 
L 436.272409 93.116409 
L 436.796829 96.077384 
L 437.321249 97.891719 
L 439.943349 111.108131 
L 440.467769 111.575465 
L 440.992189 109.45391 
L 441.516609 109.235838 
L 442.041029 108.185695 
L 442.565449 107.917147 
L 443.089869 107.032172 
L 443.614289 107.945278 
L 444.138709 107.803333 
L 444.663129 108.036455 
L 445.187549 106.173339 
L 445.711969 105.433022 
L 446.236389 105.870961 
L 446.760809 106.007007 
L 447.285229 107.373149 
L 448.858489 114.779483 
L 449.907329 117.609932 
L 450.431749 119.474178 
L 450.956169 122.000892 
L 452.005009 123.908871 
L 452.529429 124.703594 
L 453.053848 126.447695 
L 454.102688 127.795455 
L 454.627108 127.549265 
L 455.151528 128.66407 
L 455.675948 130.319189 
L 456.200368 130.778223 
L 456.724788 131.78739 
L 457.773628 131.980563 
L 458.298048 132.712095 
L 458.822468 134.575117 
L 460.395728 138.442039 
L 461.968988 142.587708 
L 462.493408 143.629215 
L 463.017828 143.092832 
L 463.542248 142.784551 
L 464.066668 141.083425 
L 464.591088 140.404624 
L 465.115508 140.261089 
L 465.639928 138.525009 
L 466.164348 139.09371 
L 466.688768 138.555448 
L 467.213188 137.847648 
L 467.737608 137.714145 
L 468.262028 137.937753 
L 469.310868 139.76496 
L 469.835288 141.473129 
L 470.884128 142.851833 
L 471.408548 143.323579 
L 472.457388 145.842525 
L 473.506228 147.021665 
L 474.555068 147.868903 
L 476.128328 144.474714 
L 476.652748 142.884476 
L 477.177168 142.099246 
L 477.701588 141.962432 
L 478.226008 141.404181 
L 479.274847 141.959841 
L 479.799267 141.782939 
L 480.848107 143.796445 
L 481.372527 143.323422 
L 482.421367 145.393141 
L 482.945787 145.668489 
L 483.994627 147.829234 
L 484.519047 147.421341 
L 485.043467 146.64342 
L 485.567887 146.414595 
L 486.092307 145.782589 
L 486.616727 144.684224 
L 487.141147 145.127403 
L 487.665567 145.143294 
L 488.189987 144.150141 
L 488.714407 144.010919 
L 489.238827 144.515295 
L 489.763247 144.431866 
L 490.287667 145.342425 
L 490.812087 144.961892 
L 491.860927 146.504883 
L 492.909767 148.640719 
L 493.434187 149.451035 
L 493.958607 149.526829 
L 494.483027 150.48681 
L 495.007447 150.92567 
L 496.056287 152.527234 
L 496.580707 152.903863 
L 497.105127 153.708874 
L 497.629547 153.522409 
L 498.153967 152.951223 
L 498.678387 152.556811 
L 499.202807 153.378904 
L 500.776067 154.48622 
L 501.300487 153.621758 
L 501.824907 153.539237 
L 502.873747 154.61138 
L 504.447006 156.179004 
L 504.971426 156.873181 
L 505.495846 157.267473 
L 506.020266 157.418702 
L 506.544686 157.852854 
L 507.069106 157.985405 
L 507.593526 156.377045 
L 508.117946 155.904484 
L 508.642366 153.37493 
L 509.691206 152.298591 
L 510.215626 152.646767 
L 511.264466 151.104295 
L 511.788886 149.599151 
L 512.313306 149.564653 
L 512.837726 149.364457 
L 514.410986 152.324225 
L 514.935406 153.021458 
L 515.459826 153.404461 
L 516.508666 154.885637 
L 517.033086 154.655375 
L 517.557506 154.589514 
L 518.606346 154.006783 
L 519.130766 152.435692 
L 519.655186 152.477399 
L 520.179606 150.102091 
L 520.704026 150.389964 
L 521.228446 149.746117 
L 521.752866 148.489361 
L 522.277286 148.304351 
L 522.801706 147.74644 
L 523.326126 148.283905 
L 523.850546 147.779955 
L 524.899386 149.330447 
L 525.423806 150.591696 
L 525.948226 151.241588 
L 527.521486 154.23511 
L 528.570326 154.48505 
L 529.094746 153.681116 
L 529.619166 153.234568 
L 530.143585 153.202154 
L 530.668005 153.00686 
L 531.192425 153.092799 
L 531.716845 152.631069 
L 532.241265 151.28709 
L 532.765685 150.903368 
L 533.290105 150.68524 
L 533.814525 151.32644 
L 534.338945 151.666073 
L 534.863365 151.137354 
L 535.387785 151.557174 
L 535.912205 151.531816 
L 536.436625 151.792174 
L 536.961045 151.310772 
L 538.009885 153.193299 
L 538.534305 153.962113 
L 539.583145 154.864459 
L 541.156405 157.002523 
L 541.680825 156.180234 
L 542.205245 156.193788 
L 542.729665 156.435747 
L 543.254085 155.144861 
L 543.778505 154.973824 
L 544.827345 152.171659 
L 545.351765 151.320637 
L 545.876185 150.858754 
L 546.925025 149.628685 
L 547.449445 149.496829 
L 547.973865 149.654492 
L 549.022705 150.612442 
L 549.547125 150.924297 
L 550.071545 149.496257 
L 550.595965 149.001212 
L 551.644805 146.411705 
L 552.169225 143.325684 
L 552.693645 141.07053 
L 553.218065 140.141875 
L 553.742485 139.46869 
L 554.266905 139.124844 
L 554.791325 138.105605 
L 555.315745 136.000523 
L 555.840165 134.690294 
L 556.364584 135.229159 
L 556.889004 134.998418 
L 557.413424 135.316541 
L 557.937844 135.854352 
L 558.462264 136.575685 
L 559.511104 138.587343 
L 560.035524 139.304902 
L 560.559944 139.692465 
L 561.608784 139.102113 
L 562.133204 139.19294 
L 562.657624 138.925829 
L 563.182044 137.457043 
L 564.230884 133.225232 
L 565.279724 131.362809 
L 565.804144 130.747704 
L 566.328564 131.342731 
L 566.852984 132.282864 
L 567.377404 133.538347 
L 568.426244 135.059552 
L 571.048344 139.255989 
L 572.621604 138.191248 
L 573.146024 137.460873 
L 573.670444 136.318732 
L 574.194864 136.296128 
L 574.719284 137.776555 
L 575.243704 137.370305 
L 575.768124 136.395833 
L 576.292544 134.877385 
L 577.341384 134.468203 
L 577.865804 134.421441 
L 578.914644 135.254493 
L 581.012324 136.252764 
L 581.536744 137.669827 
L 582.061163 137.739004 
L 583.110003 138.955995 
L 583.634423 140.265356 
L 584.683263 141.199683 
L 585.207683 140.86277 
L 585.732103 140.157311 
L 586.780943 142.258652 
L 587.305363 142.329102 
L 587.829783 140.715199 
L 588.354203 139.747789 
L 588.878623 140.080359 
L 589.403043 139.511449 
L 590.451883 141.403347 
L 591.500723 142.040553 
L 592.025143 142.768052 
L 592.549563 143.6927 
L 593.073983 143.14091 
L 593.598403 143.418995 
L 594.122823 142.854443 
L 594.647243 140.907244 
L 595.171663 137.678752 
L 596.220503 133.450031 
L 596.744923 134.495968 
L 597.269343 134.649544 
L 597.793763 135.089359 
L 598.318183 134.412915 
L 599.367023 134.991279 
L 599.891443 135.627335 
L 600.415863 135.437215 
L 600.940283 136.701566 
L 601.464703 137.291193 
L 601.989123 138.122427 
L 602.513543 138.344522 
L 603.037963 139.383785 
L 603.562383 139.06547 
L 604.611223 138.94018 
L 605.135643 136.954911 
L 605.660063 135.498538 
L 606.184483 133.47063 
L 606.708903 132.342478 
L 607.233323 130.573745 
L 607.757742 129.327968 
L 608.282162 128.453972 
L 608.806582 127.323486 
L 609.331002 125.512563 
L 609.855422 124.905592 
L 612.477522 129.220013 
L 613.001942 130.68839 
L 613.526362 131.659165 
L 614.050782 133.017223 
L 614.575202 133.865152 
L 615.099622 133.52776 
L 615.624042 133.327332 
L 616.148462 132.736355 
L 616.672882 132.632879 
L 617.197302 131.84053 
L 618.246142 132.148384 
L 618.770562 130.733187 
L 619.294982 128.923972 
L 620.343822 128.592725 
L 620.868242 126.771061 
L 622.441502 130.084532 
L 622.965922 130.577422 
L 623.490342 131.346558 
L 624.014762 131.240126 
L 625.063602 132.038035 
L 625.588022 132.933724 
L 626.112442 130.628763 
L 626.636862 130.637728 
L 627.161282 131.088152 
L 627.685702 130.116081 
L 628.210122 127.793586 
L 628.734542 124.949032 
L 629.258962 123.361281 
L 629.783382 123.283465 
L 630.307802 122.746496 
L 631.356642 122.233621 
L 631.881062 121.630368 
L 633.978741 124.287675 
L 635.552001 127.756896 
L 636.076421 128.403935 
L 636.600841 128.669922 
L 637.125261 128.312539 
L 637.649681 126.549911 
L 638.174101 125.961395 
L 639.747361 120.096478 
L 640.271781 119.713404 
L 640.796201 119.858023 
L 641.320621 119.607504 
L 641.845041 120.241083 
L 642.369461 119.807061 
L 642.893881 120.229598 
L 644.467141 124.063644 
L 645.515981 125.565659 
L 646.040401 127.140382 
L 646.564821 128.016878 
L 647.613661 126.709273 
L 648.138081 124.718471 
L 649.186921 121.818632 
L 649.711341 118.936025 
L 650.760181 115.582786 
L 651.284601 116.234593 
L 651.809021 115.266415 
L 652.333441 115.51982 
L 652.857861 115.982784 
L 653.906701 118.357019 
L 656.528801 123.898536 
L 657.053221 125.173834 
L 657.577641 125.850939 
L 658.626481 124.787528 
L 659.150901 124.783631 
L 659.67532 123.031497 
L 660.19974 120.153811 
L 661.24858 116.990558 
L 661.773 117.842521 
L 662.29742 117.931889 
L 662.82184 118.592967 
L 663.34626 118.933944 
L 663.87068 119.492254 
L 664.3951 119.090499 
L 664.91952 119.321127 
L 665.96836 118.986435 
L 666.49278 120.035328 
L 667.0172 120.078023 
L 667.54162 118.193633 
L 668.06604 118.27657 
L 668.59046 119.160415 
L 669.6393 122.129915 
L 670.16372 123.518422 
L 670.68814 122.956248 
L 671.21256 122.790209 
L 671.73698 122.190839 
L 672.2614 120.470341 
L 672.78582 120.306509 
L 673.31024 119.953276 
L 673.83466 119.119329 
L 674.35908 117.363789 
L 674.8835 116.299773 
L 675.40792 115.845874 
L 675.93234 114.857332 
L 676.45676 114.585805 
L 676.98118 111.466406 
L 676.98118 111.466406 
" clip-path="url(#p3409d210de)" style="fill: none; stroke: #008fd5; stroke-width: 4"/>
   </g>
   <g id="patch_9">
    <path d="M 395.60364 182.608629 
L 395.60364 7.648629 
" style="fill: none; stroke: #f0f0f0; stroke-width: 3; stroke-linejoin: miter; stroke-linecap: square"/>
   </g>
   <g id="patch_10">
    <path d="M 690.38011 182.608629 
L 690.38011 7.648629 
" style="fill: none; stroke: #f0f0f0; stroke-width: 3; stroke-linejoin: miter; stroke-linecap: square"/>
   </g>
   <g id="patch_11">
    <path d="M 395.60364 182.608629 
L 690.38011 182.608629 
" style="fill: none; stroke: #f0f0f0; stroke-width: 3; stroke-linejoin: miter; stroke-linecap: square"/>
   </g>
   <g id="patch_12">
    <path d="M 395.60364 7.648629 
L 690.38011 7.648629 
" style="fill: none; stroke: #f0f0f0; stroke-width: 3; stroke-linejoin: miter; stroke-linecap: square"/>
   </g>
   <g id="legend_2">
    <g id="patch_13">
     <path d="M 565.425735 39.398004 
L 680.58011 39.398004 
Q 683.38011 39.398004 683.38011 36.598004 
L 683.38011 17.448629 
Q 683.38011 14.648629 680.58011 14.648629 
L 565.425735 14.648629 
Q 562.625735 14.648629 562.625735 17.448629 
L 562.625735 36.598004 
Q 562.625735 39.398004 565.425735 39.398004 
z
" style="fill: #f0f0f0; opacity: 0.8; stroke: #cccccc; stroke-width: 0.5; stroke-linejoin: miter"/>
    </g>
    <g id="line2d_49">
     <path d="M 568.225735 25.986442 
L 582.225735 25.986442 
L 596.225735 25.986442 
" style="fill: none; stroke: #008fd5; stroke-width: 4"/>
    </g>
    <g id="text_24">
     <!-- perplexity -->
     <g transform="translate(607.425735 30.886442) scale(0.14 -0.14)">
      <defs>
       <path id="DejaVuSans-70" d="M 1159 525 
L 1159 -1331 
L 581 -1331 
L 581 3500 
L 1159 3500 
L 1159 2969 
Q 1341 3281 1617 3432 
Q 1894 3584 2278 3584 
Q 2916 3584 3314 3078 
Q 3713 2572 3713 1747 
Q 3713 922 3314 415 
Q 2916 -91 2278 -91 
Q 1894 -91 1617 61 
Q 1341 213 1159 525 
z
M 3116 1747 
Q 3116 2381 2855 2742 
Q 2594 3103 2138 3103 
Q 1681 3103 1420 2742 
Q 1159 2381 1159 1747 
Q 1159 1113 1420 752 
Q 1681 391 2138 391 
Q 2594 391 2855 752 
Q 3116 1113 3116 1747 
z
" transform="scale(0.015625)"/>
       <path id="DejaVuSans-65" d="M 3597 1894 
L 3597 1613 
L 953 1613 
Q 991 1019 1311 708 
Q 1631 397 2203 397 
Q 2534 397 2845 478 
Q 3156 559 3463 722 
L 3463 178 
Q 3153 47 2828 -22 
Q 2503 -91 2169 -91 
Q 1331 -91 842 396 
Q 353 884 353 1716 
Q 353 2575 817 3079 
Q 1281 3584 2069 3584 
Q 2775 3584 3186 3129 
Q 3597 2675 3597 1894 
z
M 3022 2063 
Q 3016 2534 2758 2815 
Q 2500 3097 2075 3097 
Q 1594 3097 1305 2825 
Q 1016 2553 972 2059 
L 3022 2063 
z
" transform="scale(0.015625)"/>
       <path id="DejaVuSans-6c" d="M 603 4863 
L 1178 4863 
L 1178 0 
L 603 0 
L 603 4863 
z
" transform="scale(0.015625)"/>
       <path id="DejaVuSans-78" d="M 3513 3500 
L 2247 1797 
L 3578 0 
L 2900 0 
L 1881 1375 
L 863 0 
L 184 0 
L 1544 1831 
L 300 3500 
L 978 3500 
L 1906 2253 
L 2834 3500 
L 3513 3500 
z
" transform="scale(0.015625)"/>
       <path id="DejaVuSans-69" d="M 603 3500 
L 1178 3500 
L 1178 0 
L 603 0 
L 603 3500 
z
M 603 4863 
L 1178 4863 
L 1178 4134 
L 603 4134 
L 603 4863 
z
" transform="scale(0.015625)"/>
       <path id="DejaVuSans-74" d="M 1172 4494 
L 1172 3500 
L 2356 3500 
L 2356 3053 
L 1172 3053 
L 1172 1153 
Q 1172 725 1289 603 
Q 1406 481 1766 481 
L 2356 481 
L 2356 0 
L 1766 0 
Q 1100 0 847 248 
Q 594 497 594 1153 
L 594 3053 
L 172 3053 
L 172 3500 
L 594 3500 
L 594 4494 
L 1172 4494 
z
" transform="scale(0.015625)"/>
      </defs>
      <use xlink:href="#DejaVuSans-70"/>
      <use xlink:href="#DejaVuSans-65" x="63.476562"/>
      <use xlink:href="#DejaVuSans-72" x="125"/>
      <use xlink:href="#DejaVuSans-70" x="166.113281"/>
      <use xlink:href="#DejaVuSans-6c" x="229.589844"/>
      <use xlink:href="#DejaVuSans-65" x="257.373047"/>
      <use xlink:href="#DejaVuSans-78" x="317.146484"/>
      <use xlink:href="#DejaVuSans-69" x="376.326172"/>
      <use xlink:href="#DejaVuSans-74" x="404.109375"/>
      <use xlink:href="#DejaVuSans-79" x="443.318359"/>
     </g>
    </g>
   </g>
  </g>
  <g id="axes_3">
   <g id="patch_14">
    <path d="M 749.335404 182.608629 
L 1044.111875 182.608629 
L 1044.111875 7.648629 
L 749.335404 7.648629 
L 749.335404 182.608629 
z
" style="fill: none"/>
   </g>
   <g id="matplotlib.axis_5">
    <g id="xtick_13">
     <g id="line2d_50">
      <path d="M 762.734335 182.608629 
L 762.734335 7.648629 
" clip-path="url(#p24adb240a2)" style="fill: none; stroke: #cbcbcb"/>
     </g>
     <g id="line2d_51"/>
     <g id="text_25">
      <!-- 0 -->
      <g transform="translate(758.280585 196.746442) scale(0.14 -0.14)">
       <use xlink:href="#DejaVuSans-30"/>
      </g>
     </g>
    </g>
    <g id="xtick_14">
     <g id="line2d_52">
      <path d="M 815.176333 182.608629 
L 815.176333 7.648629 
" clip-path="url(#p24adb240a2)" style="fill: none; stroke: #cbcbcb"/>
     </g>
     <g id="line2d_53"/>
     <g id="text_26">
      <!-- 100 -->
      <g transform="translate(801.815083 196.746442) scale(0.14 -0.14)">
       <use xlink:href="#DejaVuSans-31"/>
       <use xlink:href="#DejaVuSans-30" x="63.623047"/>
       <use xlink:href="#DejaVuSans-30" x="127.246094"/>
      </g>
     </g>
    </g>
    <g id="xtick_15">
     <g id="line2d_54">
      <path d="M 867.618331 182.608629 
L 867.618331 7.648629 
" clip-path="url(#p24adb240a2)" style="fill: none; stroke: #cbcbcb"/>
     </g>
     <g id="line2d_55"/>
     <g id="text_27">
      <!-- 200 -->
      <g transform="translate(854.257081 196.746442) scale(0.14 -0.14)">
       <use xlink:href="#DejaVuSans-32"/>
       <use xlink:href="#DejaVuSans-30" x="63.623047"/>
       <use xlink:href="#DejaVuSans-30" x="127.246094"/>
      </g>
     </g>
    </g>
    <g id="xtick_16">
     <g id="line2d_56">
      <path d="M 920.060329 182.608629 
L 920.060329 7.648629 
" clip-path="url(#p24adb240a2)" style="fill: none; stroke: #cbcbcb"/>
     </g>
     <g id="line2d_57"/>
     <g id="text_28">
      <!-- 300 -->
      <g transform="translate(906.699079 196.746442) scale(0.14 -0.14)">
       <use xlink:href="#DejaVuSans-33"/>
       <use xlink:href="#DejaVuSans-30" x="63.623047"/>
       <use xlink:href="#DejaVuSans-30" x="127.246094"/>
      </g>
     </g>
    </g>
    <g id="xtick_17">
     <g id="line2d_58">
      <path d="M 972.502327 182.608629 
L 972.502327 7.648629 
" clip-path="url(#p24adb240a2)" style="fill: none; stroke: #cbcbcb"/>
     </g>
     <g id="line2d_59"/>
     <g id="text_29">
      <!-- 400 -->
      <g transform="translate(959.141077 196.746442) scale(0.14 -0.14)">
       <use xlink:href="#DejaVuSans-34"/>
       <use xlink:href="#DejaVuSans-30" x="63.623047"/>
       <use xlink:href="#DejaVuSans-30" x="127.246094"/>
      </g>
     </g>
    </g>
    <g id="xtick_18">
     <g id="line2d_60">
      <path d="M 1024.944325 182.608629 
L 1024.944325 7.648629 
" clip-path="url(#p24adb240a2)" style="fill: none; stroke: #cbcbcb"/>
     </g>
     <g id="line2d_61"/>
     <g id="text_30">
      <!-- 500 -->
      <g transform="translate(1011.583075 196.746442) scale(0.14 -0.14)">
       <use xlink:href="#DejaVuSans-35"/>
       <use xlink:href="#DejaVuSans-30" x="63.623047"/>
       <use xlink:href="#DejaVuSans-30" x="127.246094"/>
      </g>
     </g>
    </g>
   </g>
   <g id="matplotlib.axis_6">
    <g id="ytick_11">
     <g id="line2d_62">
      <path d="M 749.335404 174.655902 
L 1044.111875 174.655902 
" clip-path="url(#p24adb240a2)" style="fill: none; stroke: #cbcbcb"/>
     </g>
     <g id="line2d_63"/>
     <g id="text_31">
      <!-- 0.0 -->
      <g transform="translate(723.571029 179.974808) scale(0.14 -0.14)">
       <use xlink:href="#DejaVuSans-30"/>
       <use xlink:href="#DejaVuSans-2e" x="63.623047"/>
       <use xlink:href="#DejaVuSans-30" x="95.410156"/>
      </g>
     </g>
    </g>
    <g id="ytick_12">
     <g id="line2d_64">
      <path d="M 749.335404 142.844993 
L 1044.111875 142.844993 
" clip-path="url(#p24adb240a2)" style="fill: none; stroke: #cbcbcb"/>
     </g>
     <g id="line2d_65"/>
     <g id="text_32">
      <!-- 0.2 -->
      <g transform="translate(723.571029 148.163899) scale(0.14 -0.14)">
       <use xlink:href="#DejaVuSans-30"/>
       <use xlink:href="#DejaVuSans-2e" x="63.623047"/>
       <use xlink:href="#DejaVuSans-32" x="95.410156"/>
      </g>
     </g>
    </g>
    <g id="ytick_13">
     <g id="line2d_66">
      <path d="M 749.335404 111.034084 
L 1044.111875 111.034084 
" clip-path="url(#p24adb240a2)" style="fill: none; stroke: #cbcbcb"/>
     </g>
     <g id="line2d_67"/>
     <g id="text_33">
      <!-- 0.4 -->
      <g transform="translate(723.571029 116.35299) scale(0.14 -0.14)">
       <use xlink:href="#DejaVuSans-30"/>
       <use xlink:href="#DejaVuSans-2e" x="63.623047"/>
       <use xlink:href="#DejaVuSans-34" x="95.410156"/>
      </g>
     </g>
    </g>
    <g id="ytick_14">
     <g id="line2d_68">
      <path d="M 749.335404 79.223175 
L 1044.111875 79.223175 
" clip-path="url(#p24adb240a2)" style="fill: none; stroke: #cbcbcb"/>
     </g>
     <g id="line2d_69"/>
     <g id="text_34">
      <!-- 0.6 -->
      <g transform="translate(723.571029 84.542081) scale(0.14 -0.14)">
       <use xlink:href="#DejaVuSans-30"/>
       <use xlink:href="#DejaVuSans-2e" x="63.623047"/>
       <use xlink:href="#DejaVuSans-36" x="95.410156"/>
      </g>
     </g>
    </g>
    <g id="ytick_15">
     <g id="line2d_70">
      <path d="M 749.335404 47.412266 
L 1044.111875 47.412266 
" clip-path="url(#p24adb240a2)" style="fill: none; stroke: #cbcbcb"/>
     </g>
     <g id="line2d_71"/>
     <g id="text_35">
      <!-- 0.8 -->
      <g transform="translate(723.571029 52.731172) scale(0.14 -0.14)">
       <use xlink:href="#DejaVuSans-30"/>
       <use xlink:href="#DejaVuSans-2e" x="63.623047"/>
       <use xlink:href="#DejaVuSans-38" x="95.410156"/>
      </g>
     </g>
    </g>
    <g id="ytick_16">
     <g id="line2d_72">
      <path d="M 749.335404 15.601357 
L 1044.111875 15.601357 
" clip-path="url(#p24adb240a2)" style="fill: none; stroke: #cbcbcb"/>
     </g>
     <g id="line2d_73"/>
     <g id="text_36">
      <!-- 1.0 -->
      <g transform="translate(723.571029 20.920263) scale(0.14 -0.14)">
       <use xlink:href="#DejaVuSans-31"/>
       <use xlink:href="#DejaVuSans-2e" x="63.623047"/>
       <use xlink:href="#DejaVuSans-30" x="95.410156"/>
      </g>
     </g>
    </g>
   </g>
   <g id="line2d_74">
    <path d="M 762.734335 174.655902 
L 767.454115 174.655902 
L 767.978535 170.868713 
L 778.466934 19.38115 
L 778.991354 170.868714 
L 789.479754 19.38115 
L 790.004174 170.868715 
L 800.492573 19.38115 
L 801.016993 170.868717 
L 811.505393 19.38115 
L 812.029813 170.776341 
L 822.518213 15.601357 
L 823.042633 167.081527 
L 833.531032 15.601357 
L 834.055452 167.081527 
L 844.543852 15.601357 
L 845.068272 167.081527 
L 855.556671 15.601357 
L 856.081091 166.896777 
L 866.045071 19.473347 
L 866.569491 170.868717 
L 877.05789 19.38115 
L 877.58231 170.868718 
L 888.07071 19.38116 
L 888.59513 170.868719 
L 899.08353 19.321746 
L 899.60795 170.779639 
L 910.096349 17.450459 
L 910.620769 168.689459 
L 920.584749 17.103486 
L 921.109169 168.126815 
L 931.073148 17.892738 
L 931.597568 168.980818 
L 941.561548 16.497064 
L 942.085968 167.466329 
L 951.525528 20.923391 
L 952.049948 171.779786 
L 957.818567 79.808206 
L 961.489507 20.382412 
L 962.013927 170.923212 
L 971.453487 19.199724 
L 971.977907 169.830376 
L 981.417466 17.192659 
L 981.941886 167.710434 
L 990.857026 21.684818 
L 991.381446 172.09566 
L 1000.296586 23.293641 
L 1000.821006 173.384114 
L 1009.736145 20.504244 
L 1010.260565 170.701228 
L 1019.175705 19.21366 
L 1019.700125 169.312463 
L 1030.712945 169.312463 
L 1030.712945 169.312463 
" clip-path="url(#p24adb240a2)" style="fill: none; stroke: #008fd5; stroke-width: 4"/>
   </g>
   <g id="patch_15">
    <path d="M 749.335404 182.608629 
L 749.335404 7.648629 
" style="fill: none; stroke: #f0f0f0; stroke-width: 3; stroke-linejoin: miter; stroke-linecap: square"/>
   </g>
   <g id="patch_16">
    <path d="M 1044.111875 182.608629 
L 1044.111875 7.648629 
" style="fill: none; stroke: #f0f0f0; stroke-width: 3; stroke-linejoin: miter; stroke-linecap: square"/>
   </g>
   <g id="patch_17">
    <path d="M 749.335404 182.608629 
L 1044.111875 182.608629 
" style="fill: none; stroke: #f0f0f0; stroke-width: 3; stroke-linejoin: miter; stroke-linecap: square"/>
   </g>
   <g id="patch_18">
    <path d="M 749.335404 7.648629 
L 1044.111875 7.648629 
" style="fill: none; stroke: #f0f0f0; stroke-width: 3; stroke-linejoin: miter; stroke-linecap: square"/>
   </g>
   <g id="legend_3">
    <g id="patch_19">
     <path d="M 957.362187 39.398004 
L 1034.311875 39.398004 
Q 1037.111875 39.398004 1037.111875 36.598004 
L 1037.111875 17.448629 
Q 1037.111875 14.648629 1034.311875 14.648629 
L 957.362187 14.648629 
Q 954.562187 14.648629 954.562187 17.448629 
L 954.562187 36.598004 
Q 954.562187 39.398004 957.362187 39.398004 
z
" style="fill: #f0f0f0; opacity: 0.8; stroke: #cccccc; stroke-width: 0.5; stroke-linejoin: miter"/>
    </g>
    <g id="line2d_75">
     <path d="M 960.162187 25.986442 
L 974.162187 25.986442 
L 988.162187 25.986442 
" style="fill: none; stroke: #008fd5; stroke-width: 4"/>
    </g>
    <g id="text_37">
     <!-- sync -->
     <g transform="translate(999.362187 30.886442) scale(0.14 -0.14)">
      <defs>
       <path id="DejaVuSans-73" d="M 2834 3397 
L 2834 2853 
Q 2591 2978 2328 3040 
Q 2066 3103 1784 3103 
Q 1356 3103 1142 2972 
Q 928 2841 928 2578 
Q 928 2378 1081 2264 
Q 1234 2150 1697 2047 
L 1894 2003 
Q 2506 1872 2764 1633 
Q 3022 1394 3022 966 
Q 3022 478 2636 193 
Q 2250 -91 1575 -91 
Q 1294 -91 989 -36 
Q 684 19 347 128 
L 347 722 
Q 666 556 975 473 
Q 1284 391 1588 391 
Q 1994 391 2212 530 
Q 2431 669 2431 922 
Q 2431 1156 2273 1281 
Q 2116 1406 1581 1522 
L 1381 1569 
Q 847 1681 609 1914 
Q 372 2147 372 2553 
Q 372 3047 722 3315 
Q 1072 3584 1716 3584 
Q 2034 3584 2315 3537 
Q 2597 3491 2834 3397 
z
" transform="scale(0.015625)"/>
       <path id="DejaVuSans-6e" d="M 3513 2113 
L 3513 0 
L 2938 0 
L 2938 2094 
Q 2938 2591 2744 2837 
Q 2550 3084 2163 3084 
Q 1697 3084 1428 2787 
Q 1159 2491 1159 1978 
L 1159 0 
L 581 0 
L 581 3500 
L 1159 3500 
L 1159 2956 
Q 1366 3272 1645 3428 
Q 1925 3584 2291 3584 
Q 2894 3584 3203 3211 
Q 3513 2838 3513 2113 
z
" transform="scale(0.015625)"/>
      </defs>
      <use xlink:href="#DejaVuSans-73"/>
      <use xlink:href="#DejaVuSans-79" x="52.099609"/>
      <use xlink:href="#DejaVuSans-6e" x="111.279297"/>
      <use xlink:href="#DejaVuSans-63" x="174.658203"/>
     </g>
    </g>
   </g>
  </g>
 </g>
 <defs>
  <clipPath id="p27b5ed596f">
   <rect x="41.871875" y="7.648629" width="294.776471" height="174.96"/>
  </clipPath>
  <clipPath id="p3409d210de">
   <rect x="395.60364" y="7.648629" width="294.776471" height="174.96"/>
  </clipPath>
  <clipPath id="p24adb240a2">
   <rect x="749.335404" y="7.648629" width="294.776471" height="174.96"/>
  </clipPath>
 </defs>
</svg>
