<?xml version="1.0" encoding="utf-8" standalone="no"?>
<!DOCTYPE svg PUBLIC "-//W3C//DTD SVG 1.1//EN"
  "http://www.w3.org/Graphics/SVG/1.1/DTD/svg11.dtd">
<svg xmlns:xlink="http://www.w3.org/1999/xlink" width="1051.311875pt" height="207.647357pt" viewBox="0 0 1051.311875 207.647357" xmlns="http://www.w3.org/2000/svg" version="1.1">
 <metadata>
  <rdf:RDF xmlns:dc="http://purl.org/dc/elements/1.1/" xmlns:cc="http://creativecommons.org/ns#" xmlns:rdf="http://www.w3.org/1999/02/22-rdf-syntax-ns#">
   <cc:Work>
    <dc:type rdf:resource="http://purl.org/dc/dcmitype/StillImage"/>
    <dc:date>2023-01-19T14:54:13.237311</dc:date>
    <dc:format>image/svg+xml</dc:format>
    <dc:creator>
     <cc:Agent>
      <dc:title>Matplotlib v3.6.0, https://matplotlib.org/</dc:title>
     </cc:Agent>
    </dc:creator>
   </cc:Work>
  </rdf:RDF>
 </metadata>
 <defs>
  <style type="text/css">*{stroke-linejoin: round; stroke-linecap: butt}</style>
 </defs>
 <g id="figure_1">
  <g id="patch_1">
   <path d="M 0 207.647357 
L 1051.311875 207.647357 
L 1051.311875 0 
L 0 0 
L 0 207.647357 
z
" style="fill: none"/>
  </g>
  <g id="axes_1">
   <g id="patch_2">
    <path d="M 41.871875 183.397982 
L 336.648346 183.397982 
L 336.648346 8.437982 
L 41.871875 8.437982 
L 41.871875 183.397982 
z
" style="fill: none"/>
   </g>
   <g id="matplotlib.axis_1">
    <g id="xtick_1">
     <g id="line2d_1">
      <path d="M 55.270805 183.397982 
L 55.270805 8.437982 
" clip-path="url(#p69866401fa)" style="fill: none; stroke: #cbcbcb"/>
     </g>
     <g id="line2d_2"/>
     <g id="text_1">
      <!-- 0 -->
      <g transform="translate(50.817055 197.535795) scale(0.14 -0.14)">
       <defs>
        <path id="DejaVuSans-30" d="M 2034 4250 
Q 1547 4250 1301 3770 
Q 1056 3291 1056 2328 
Q 1056 1369 1301 889 
Q 1547 409 2034 409 
Q 2525 409 2770 889 
Q 3016 1369 3016 2328 
Q 3016 3291 2770 3770 
Q 2525 4250 2034 4250 
z
M 2034 4750 
Q 2819 4750 3233 4129 
Q 3647 3509 3647 2328 
Q 3647 1150 3233 529 
Q 2819 -91 2034 -91 
Q 1250 -91 836 529 
Q 422 1150 422 2328 
Q 422 3509 836 4129 
Q 1250 4750 2034 4750 
z
" transform="scale(0.015625)"/>
       </defs>
       <use xlink:href="#DejaVuSans-30"/>
      </g>
     </g>
    </g>
    <g id="xtick_2">
     <g id="line2d_3">
      <path d="M 107.712803 183.397982 
L 107.712803 8.437982 
" clip-path="url(#p69866401fa)" style="fill: none; stroke: #cbcbcb"/>
     </g>
     <g id="line2d_4"/>
     <g id="text_2">
      <!-- 100 -->
      <g transform="translate(94.351553 197.535795) scale(0.14 -0.14)">
       <defs>
        <path id="DejaVuSans-31" d="M 794 531 
L 1825 531 
L 1825 4091 
L 703 3866 
L 703 4441 
L 1819 4666 
L 2450 4666 
L 2450 531 
L 3481 531 
L 3481 0 
L 794 0 
L 794 531 
z
" transform="scale(0.015625)"/>
       </defs>
       <use xlink:href="#DejaVuSans-31"/>
       <use xlink:href="#DejaVuSans-30" x="63.623047"/>
       <use xlink:href="#DejaVuSans-30" x="127.246094"/>
      </g>
     </g>
    </g>
    <g id="xtick_3">
     <g id="line2d_5">
      <path d="M 160.154801 183.397982 
L 160.154801 8.437982 
" clip-path="url(#p69866401fa)" style="fill: none; stroke: #cbcbcb"/>
     </g>
     <g id="line2d_6"/>
     <g id="text_3">
      <!-- 200 -->
      <g transform="translate(146.793551 197.535795) scale(0.14 -0.14)">
       <defs>
        <path id="DejaVuSans-32" d="M 1228 531 
L 3431 531 
L 3431 0 
L 469 0 
L 469 531 
Q 828 903 1448 1529 
Q 2069 2156 2228 2338 
Q 2531 2678 2651 2914 
Q 2772 3150 2772 3378 
Q 2772 3750 2511 3984 
Q 2250 4219 1831 4219 
Q 1534 4219 1204 4116 
Q 875 4013 500 3803 
L 500 4441 
Q 881 4594 1212 4672 
Q 1544 4750 1819 4750 
Q 2544 4750 2975 4387 
Q 3406 4025 3406 3419 
Q 3406 3131 3298 2873 
Q 3191 2616 2906 2266 
Q 2828 2175 2409 1742 
Q 1991 1309 1228 531 
z
" transform="scale(0.015625)"/>
       </defs>
       <use xlink:href="#DejaVuSans-32"/>
       <use xlink:href="#DejaVuSans-30" x="63.623047"/>
       <use xlink:href="#DejaVuSans-30" x="127.246094"/>
      </g>
     </g>
    </g>
    <g id="xtick_4">
     <g id="line2d_7">
      <path d="M 212.596799 183.397982 
L 212.596799 8.437982 
" clip-path="url(#p69866401fa)" style="fill: none; stroke: #cbcbcb"/>
     </g>
     <g id="line2d_8"/>
     <g id="text_4">
      <!-- 300 -->
      <g transform="translate(199.235549 197.535795) scale(0.14 -0.14)">
       <defs>
        <path id="DejaVuSans-33" d="M 2597 2516 
Q 3050 2419 3304 2112 
Q 3559 1806 3559 1356 
Q 3559 666 3084 287 
Q 2609 -91 1734 -91 
Q 1441 -91 1130 -33 
Q 819 25 488 141 
L 488 750 
Q 750 597 1062 519 
Q 1375 441 1716 441 
Q 2309 441 2620 675 
Q 2931 909 2931 1356 
Q 2931 1769 2642 2001 
Q 2353 2234 1838 2234 
L 1294 2234 
L 1294 2753 
L 1863 2753 
Q 2328 2753 2575 2939 
Q 2822 3125 2822 3475 
Q 2822 3834 2567 4026 
Q 2313 4219 1838 4219 
Q 1578 4219 1281 4162 
Q 984 4106 628 3988 
L 628 4550 
Q 988 4650 1302 4700 
Q 1616 4750 1894 4750 
Q 2613 4750 3031 4423 
Q 3450 4097 3450 3541 
Q 3450 3153 3228 2886 
Q 3006 2619 2597 2516 
z
" transform="scale(0.015625)"/>
       </defs>
       <use xlink:href="#DejaVuSans-33"/>
       <use xlink:href="#DejaVuSans-30" x="63.623047"/>
       <use xlink:href="#DejaVuSans-30" x="127.246094"/>
      </g>
     </g>
    </g>
    <g id="xtick_5">
     <g id="line2d_9">
      <path d="M 265.038797 183.397982 
L 265.038797 8.437982 
" clip-path="url(#p69866401fa)" style="fill: none; stroke: #cbcbcb"/>
     </g>
     <g id="line2d_10"/>
     <g id="text_5">
      <!-- 400 -->
      <g transform="translate(251.677547 197.535795) scale(0.14 -0.14)">
       <defs>
        <path id="DejaVuSans-34" d="M 2419 4116 
L 825 1625 
L 2419 1625 
L 2419 4116 
z
M 2253 4666 
L 3047 4666 
L 3047 1625 
L 3713 1625 
L 3713 1100 
L 3047 1100 
L 3047 0 
L 2419 0 
L 2419 1100 
L 313 1100 
L 313 1709 
L 2253 4666 
z
" transform="scale(0.015625)"/>
       </defs>
       <use xlink:href="#DejaVuSans-34"/>
       <use xlink:href="#DejaVuSans-30" x="63.623047"/>
       <use xlink:href="#DejaVuSans-30" x="127.246094"/>
      </g>
     </g>
    </g>
    <g id="xtick_6">
     <g id="line2d_11">
      <path d="M 317.480795 183.397982 
L 317.480795 8.437982 
" clip-path="url(#p69866401fa)" style="fill: none; stroke: #cbcbcb"/>
     </g>
     <g id="line2d_12"/>
     <g id="text_6">
      <!-- 500 -->
      <g transform="translate(304.119545 197.535795) scale(0.14 -0.14)">
       <defs>
        <path id="DejaVuSans-35" d="M 691 4666 
L 3169 4666 
L 3169 4134 
L 1269 4134 
L 1269 2991 
Q 1406 3038 1543 3061 
Q 1681 3084 1819 3084 
Q 2600 3084 3056 2656 
Q 3513 2228 3513 1497 
Q 3513 744 3044 326 
Q 2575 -91 1722 -91 
Q 1428 -91 1123 -41 
Q 819 9 494 109 
L 494 744 
Q 775 591 1075 516 
Q 1375 441 1709 441 
Q 2250 441 2565 725 
Q 2881 1009 2881 1497 
Q 2881 1984 2565 2268 
Q 2250 2553 1709 2553 
Q 1456 2553 1204 2497 
Q 953 2441 691 2322 
L 691 4666 
z
" transform="scale(0.015625)"/>
       </defs>
       <use xlink:href="#DejaVuSans-35"/>
       <use xlink:href="#DejaVuSans-30" x="63.623047"/>
       <use xlink:href="#DejaVuSans-30" x="127.246094"/>
      </g>
     </g>
    </g>
   </g>
   <g id="matplotlib.axis_2">
    <g id="ytick_1">
     <g id="line2d_13">
      <path d="M 41.871875 175.445255 
L 336.648346 175.445255 
" clip-path="url(#p69866401fa)" style="fill: none; stroke: #cbcbcb"/>
     </g>
     <g id="line2d_14"/>
     <g id="text_7">
      <!-- 0.00 -->
      <g transform="translate(7.2 180.764161) scale(0.14 -0.14)">
       <defs>
        <path id="DejaVuSans-2e" d="M 684 794 
L 1344 794 
L 1344 0 
L 684 0 
L 684 794 
z
" transform="scale(0.015625)"/>
       </defs>
       <use xlink:href="#DejaVuSans-30"/>
       <use xlink:href="#DejaVuSans-2e" x="63.623047"/>
       <use xlink:href="#DejaVuSans-30" x="95.410156"/>
       <use xlink:href="#DejaVuSans-30" x="159.033203"/>
      </g>
     </g>
    </g>
    <g id="ytick_2">
     <g id="line2d_15">
      <path d="M 41.871875 141.994609 
L 336.648346 141.994609 
" clip-path="url(#p69866401fa)" style="fill: none; stroke: #cbcbcb"/>
     </g>
     <g id="line2d_16"/>
     <g id="text_8">
      <!-- 0.02 -->
      <g transform="translate(7.2 147.313515) scale(0.14 -0.14)">
       <use xlink:href="#DejaVuSans-30"/>
       <use xlink:href="#DejaVuSans-2e" x="63.623047"/>
       <use xlink:href="#DejaVuSans-30" x="95.410156"/>
       <use xlink:href="#DejaVuSans-32" x="159.033203"/>
      </g>
     </g>
    </g>
    <g id="ytick_3">
     <g id="line2d_17">
      <path d="M 41.871875 108.543963 
L 336.648346 108.543963 
" clip-path="url(#p69866401fa)" style="fill: none; stroke: #cbcbcb"/>
     </g>
     <g id="line2d_18"/>
     <g id="text_9">
      <!-- 0.04 -->
      <g transform="translate(7.2 113.862869) scale(0.14 -0.14)">
       <use xlink:href="#DejaVuSans-30"/>
       <use xlink:href="#DejaVuSans-2e" x="63.623047"/>
       <use xlink:href="#DejaVuSans-30" x="95.410156"/>
       <use xlink:href="#DejaVuSans-34" x="159.033203"/>
      </g>
     </g>
    </g>
    <g id="ytick_4">
     <g id="line2d_19">
      <path d="M 41.871875 75.093317 
L 336.648346 75.093317 
" clip-path="url(#p69866401fa)" style="fill: none; stroke: #cbcbcb"/>
     </g>
     <g id="line2d_20"/>
     <g id="text_10">
      <!-- 0.06 -->
      <g transform="translate(7.2 80.412223) scale(0.14 -0.14)">
       <defs>
        <path id="DejaVuSans-36" d="M 2113 2584 
Q 1688 2584 1439 2293 
Q 1191 2003 1191 1497 
Q 1191 994 1439 701 
Q 1688 409 2113 409 
Q 2538 409 2786 701 
Q 3034 994 3034 1497 
Q 3034 2003 2786 2293 
Q 2538 2584 2113 2584 
z
M 3366 4563 
L 3366 3988 
Q 3128 4100 2886 4159 
Q 2644 4219 2406 4219 
Q 1781 4219 1451 3797 
Q 1122 3375 1075 2522 
Q 1259 2794 1537 2939 
Q 1816 3084 2150 3084 
Q 2853 3084 3261 2657 
Q 3669 2231 3669 1497 
Q 3669 778 3244 343 
Q 2819 -91 2113 -91 
Q 1303 -91 875 529 
Q 447 1150 447 2328 
Q 447 3434 972 4092 
Q 1497 4750 2381 4750 
Q 2619 4750 2861 4703 
Q 3103 4656 3366 4563 
z
" transform="scale(0.015625)"/>
       </defs>
       <use xlink:href="#DejaVuSans-30"/>
       <use xlink:href="#DejaVuSans-2e" x="63.623047"/>
       <use xlink:href="#DejaVuSans-30" x="95.410156"/>
       <use xlink:href="#DejaVuSans-36" x="159.033203"/>
      </g>
     </g>
    </g>
    <g id="ytick_5">
     <g id="line2d_21">
      <path d="M 41.871875 41.642671 
L 336.648346 41.642671 
" clip-path="url(#p69866401fa)" style="fill: none; stroke: #cbcbcb"/>
     </g>
     <g id="line2d_22"/>
     <g id="text_11">
      <!-- 0.08 -->
      <g transform="translate(7.2 46.961577) scale(0.14 -0.14)">
       <defs>
        <path id="DejaVuSans-38" d="M 2034 2216 
Q 1584 2216 1326 1975 
Q 1069 1734 1069 1313 
Q 1069 891 1326 650 
Q 1584 409 2034 409 
Q 2484 409 2743 651 
Q 3003 894 3003 1313 
Q 3003 1734 2745 1975 
Q 2488 2216 2034 2216 
z
M 1403 2484 
Q 997 2584 770 2862 
Q 544 3141 544 3541 
Q 544 4100 942 4425 
Q 1341 4750 2034 4750 
Q 2731 4750 3128 4425 
Q 3525 4100 3525 3541 
Q 3525 3141 3298 2862 
Q 3072 2584 2669 2484 
Q 3125 2378 3379 2068 
Q 3634 1759 3634 1313 
Q 3634 634 3220 271 
Q 2806 -91 2034 -91 
Q 1263 -91 848 271 
Q 434 634 434 1313 
Q 434 1759 690 2068 
Q 947 2378 1403 2484 
z
M 1172 3481 
Q 1172 3119 1398 2916 
Q 1625 2713 2034 2713 
Q 2441 2713 2670 2916 
Q 2900 3119 2900 3481 
Q 2900 3844 2670 4047 
Q 2441 4250 2034 4250 
Q 1625 4250 1398 4047 
Q 1172 3844 1172 3481 
z
" transform="scale(0.015625)"/>
       </defs>
       <use xlink:href="#DejaVuSans-30"/>
       <use xlink:href="#DejaVuSans-2e" x="63.623047"/>
       <use xlink:href="#DejaVuSans-30" x="95.410156"/>
       <use xlink:href="#DejaVuSans-38" x="159.033203"/>
      </g>
     </g>
    </g>
   </g>
   <g id="line2d_23">
    <path d="M 55.270805 16.39071 
L 188.9979 16.39071 
L 189.52232 175.445255 
L 323.249415 175.445255 
L 323.249415 175.445255 
" clip-path="url(#p69866401fa)" style="fill: none; stroke: #008fd5; stroke-width: 4"/>
   </g>
   <g id="patch_3">
    <path d="M 41.871875 183.397982 
L 41.871875 8.437982 
" style="fill: none; stroke: #f0f0f0; stroke-width: 3; stroke-linejoin: miter; stroke-linecap: square"/>
   </g>
   <g id="patch_4">
    <path d="M 336.648346 183.397982 
L 336.648346 8.437982 
" style="fill: none; stroke: #f0f0f0; stroke-width: 3; stroke-linejoin: miter; stroke-linecap: square"/>
   </g>
   <g id="patch_5">
    <path d="M 41.871875 183.397982 
L 336.648346 183.397982 
" style="fill: none; stroke: #f0f0f0; stroke-width: 3; stroke-linejoin: miter; stroke-linecap: square"/>
   </g>
   <g id="patch_6">
    <path d="M 41.871875 8.437982 
L 336.648346 8.437982 
" style="fill: none; stroke: #f0f0f0; stroke-width: 3; stroke-linejoin: miter; stroke-linecap: square"/>
   </g>
   <g id="legend_1">
    <g id="patch_7">
     <path d="M 218.882096 40.187357 
L 326.848346 40.187357 
Q 329.648346 40.187357 329.648346 37.387357 
L 329.648346 18.237982 
Q 329.648346 15.437982 326.848346 15.437982 
L 218.882096 15.437982 
Q 216.082096 15.437982 216.082096 18.237982 
L 216.082096 37.387357 
Q 216.082096 40.187357 218.882096 40.187357 
z
" style="fill: #f0f0f0; opacity: 0.8; stroke: #cccccc; stroke-width: 0.5; stroke-linejoin: miter"/>
    </g>
    <g id="line2d_24">
     <path d="M 221.682096 26.775795 
L 235.682096 26.775795 
L 249.682096 26.775795 
" style="fill: none; stroke: #008fd5; stroke-width: 4"/>
    </g>
    <g id="text_12">
     <!-- accuracy -->
     <g transform="translate(260.882096 31.675795) scale(0.14 -0.14)">
      <defs>
       <path id="DejaVuSans-61" d="M 2194 1759 
Q 1497 1759 1228 1600 
Q 959 1441 959 1056 
Q 959 750 1161 570 
Q 1363 391 1709 391 
Q 2188 391 2477 730 
Q 2766 1069 2766 1631 
L 2766 1759 
L 2194 1759 
z
M 3341 1997 
L 3341 0 
L 2766 0 
L 2766 531 
Q 2569 213 2275 61 
Q 1981 -91 1556 -91 
Q 1019 -91 701 211 
Q 384 513 384 1019 
Q 384 1609 779 1909 
Q 1175 2209 1959 2209 
L 2766 2209 
L 2766 2266 
Q 2766 2663 2505 2880 
Q 2244 3097 1772 3097 
Q 1472 3097 1187 3025 
Q 903 2953 641 2809 
L 641 3341 
Q 956 3463 1253 3523 
Q 1550 3584 1831 3584 
Q 2591 3584 2966 3190 
Q 3341 2797 3341 1997 
z
" transform="scale(0.015625)"/>
       <path id="DejaVuSans-63" d="M 3122 3366 
L 3122 2828 
Q 2878 2963 2633 3030 
Q 2388 3097 2138 3097 
Q 1578 3097 1268 2742 
Q 959 2388 959 1747 
Q 959 1106 1268 751 
Q 1578 397 2138 397 
Q 2388 397 2633 464 
Q 2878 531 3122 666 
L 3122 134 
Q 2881 22 2623 -34 
Q 2366 -91 2075 -91 
Q 1284 -91 818 406 
Q 353 903 353 1747 
Q 353 2603 823 3093 
Q 1294 3584 2113 3584 
Q 2378 3584 2631 3529 
Q 2884 3475 3122 3366 
z
" transform="scale(0.015625)"/>
       <path id="DejaVuSans-75" d="M 544 1381 
L 544 3500 
L 1119 3500 
L 1119 1403 
Q 1119 906 1312 657 
Q 1506 409 1894 409 
Q 2359 409 2629 706 
Q 2900 1003 2900 1516 
L 2900 3500 
L 3475 3500 
L 3475 0 
L 2900 0 
L 2900 538 
Q 2691 219 2414 64 
Q 2138 -91 1772 -91 
Q 1169 -91 856 284 
Q 544 659 544 1381 
z
M 1991 3584 
L 1991 3584 
z
" transform="scale(0.015625)"/>
       <path id="DejaVuSans-72" d="M 2631 2963 
Q 2534 3019 2420 3045 
Q 2306 3072 2169 3072 
Q 1681 3072 1420 2755 
Q 1159 2438 1159 1844 
L 1159 0 
L 581 0 
L 581 3500 
L 1159 3500 
L 1159 2956 
Q 1341 3275 1631 3429 
Q 1922 3584 2338 3584 
Q 2397 3584 2469 3576 
Q 2541 3569 2628 3553 
L 2631 2963 
z
" transform="scale(0.015625)"/>
       <path id="DejaVuSans-79" d="M 2059 -325 
Q 1816 -950 1584 -1140 
Q 1353 -1331 966 -1331 
L 506 -1331 
L 506 -850 
L 844 -850 
Q 1081 -850 1212 -737 
Q 1344 -625 1503 -206 
L 1606 56 
L 191 3500 
L 800 3500 
L 1894 763 
L 2988 3500 
L 3597 3500 
L 2059 -325 
z
" transform="scale(0.015625)"/>
      </defs>
      <use xlink:href="#DejaVuSans-61"/>
      <use xlink:href="#DejaVuSans-63" x="61.279297"/>
      <use xlink:href="#DejaVuSans-63" x="116.259766"/>
      <use xlink:href="#DejaVuSans-75" x="171.240234"/>
      <use xlink:href="#DejaVuSans-72" x="234.619141"/>
      <use xlink:href="#DejaVuSans-61" x="275.732422"/>
      <use xlink:href="#DejaVuSans-63" x="337.011719"/>
      <use xlink:href="#DejaVuSans-79" x="391.992188"/>
     </g>
    </g>
   </g>
  </g>
  <g id="axes_2">
   <g id="patch_8">
    <path d="M 395.60364 183.397982 
L 690.38011 183.397982 
L 690.38011 8.437982 
L 395.60364 8.437982 
L 395.60364 183.397982 
z
" style="fill: none"/>
   </g>
   <g id="matplotlib.axis_3">
    <g id="xtick_7">
     <g id="line2d_25">
      <path d="M 409.00257 183.397982 
L 409.00257 8.437982 
" clip-path="url(#p504fe55b52)" style="fill: none; stroke: #cbcbcb"/>
     </g>
     <g id="line2d_26"/>
     <g id="text_13">
      <!-- 0 -->
      <g transform="translate(404.54882 197.535795) scale(0.14 -0.14)">
       <use xlink:href="#DejaVuSans-30"/>
      </g>
     </g>
    </g>
    <g id="xtick_8">
     <g id="line2d_27">
      <path d="M 461.444568 183.397982 
L 461.444568 8.437982 
" clip-path="url(#p504fe55b52)" style="fill: none; stroke: #cbcbcb"/>
     </g>
     <g id="line2d_28"/>
     <g id="text_14">
      <!-- 100 -->
      <g transform="translate(448.083318 197.535795) scale(0.14 -0.14)">
       <use xlink:href="#DejaVuSans-31"/>
       <use xlink:href="#DejaVuSans-30" x="63.623047"/>
       <use xlink:href="#DejaVuSans-30" x="127.246094"/>
      </g>
     </g>
    </g>
    <g id="xtick_9">
     <g id="line2d_29">
      <path d="M 513.886566 183.397982 
L 513.886566 8.437982 
" clip-path="url(#p504fe55b52)" style="fill: none; stroke: #cbcbcb"/>
     </g>
     <g id="line2d_30"/>
     <g id="text_15">
      <!-- 200 -->
      <g transform="translate(500.525316 197.535795) scale(0.14 -0.14)">
       <use xlink:href="#DejaVuSans-32"/>
       <use xlink:href="#DejaVuSans-30" x="63.623047"/>
       <use xlink:href="#DejaVuSans-30" x="127.246094"/>
      </g>
     </g>
    </g>
    <g id="xtick_10">
     <g id="line2d_31">
      <path d="M 566.328564 183.397982 
L 566.328564 8.437982 
" clip-path="url(#p504fe55b52)" style="fill: none; stroke: #cbcbcb"/>
     </g>
     <g id="line2d_32"/>
     <g id="text_16">
      <!-- 300 -->
      <g transform="translate(552.967314 197.535795) scale(0.14 -0.14)">
       <use xlink:href="#DejaVuSans-33"/>
       <use xlink:href="#DejaVuSans-30" x="63.623047"/>
       <use xlink:href="#DejaVuSans-30" x="127.246094"/>
      </g>
     </g>
    </g>
    <g id="xtick_11">
     <g id="line2d_33">
      <path d="M 618.770562 183.397982 
L 618.770562 8.437982 
" clip-path="url(#p504fe55b52)" style="fill: none; stroke: #cbcbcb"/>
     </g>
     <g id="line2d_34"/>
     <g id="text_17">
      <!-- 400 -->
      <g transform="translate(605.409312 197.535795) scale(0.14 -0.14)">
       <use xlink:href="#DejaVuSans-34"/>
       <use xlink:href="#DejaVuSans-30" x="63.623047"/>
       <use xlink:href="#DejaVuSans-30" x="127.246094"/>
      </g>
     </g>
    </g>
    <g id="xtick_12">
     <g id="line2d_35">
      <path d="M 671.21256 183.397982 
L 671.21256 8.437982 
" clip-path="url(#p504fe55b52)" style="fill: none; stroke: #cbcbcb"/>
     </g>
     <g id="line2d_36"/>
     <g id="text_18">
      <!-- 500 -->
      <g transform="translate(657.85131 197.535795) scale(0.14 -0.14)">
       <use xlink:href="#DejaVuSans-35"/>
       <use xlink:href="#DejaVuSans-30" x="63.623047"/>
       <use xlink:href="#DejaVuSans-30" x="127.246094"/>
      </g>
     </g>
    </g>
   </g>
   <g id="matplotlib.axis_4">
    <g id="ytick_6">
     <g id="line2d_37">
      <path d="M 395.60364 152.844477 
L 690.38011 152.844477 
" clip-path="url(#p504fe55b52)" style="fill: none; stroke: #cbcbcb"/>
     </g>
     <g id="line2d_38"/>
     <g id="text_19">
      <!-- 20 -->
      <g transform="translate(374.28864 158.163383) scale(0.14 -0.14)">
       <use xlink:href="#DejaVuSans-32"/>
       <use xlink:href="#DejaVuSans-30" x="63.623047"/>
      </g>
     </g>
    </g>
    <g id="ytick_7">
     <g id="line2d_39">
      <path d="M 395.60364 117.960037 
L 690.38011 117.960037 
" clip-path="url(#p504fe55b52)" style="fill: none; stroke: #cbcbcb"/>
     </g>
     <g id="line2d_40"/>
     <g id="text_20">
      <!-- 40 -->
      <g transform="translate(374.28864 123.278943) scale(0.14 -0.14)">
       <use xlink:href="#DejaVuSans-34"/>
       <use xlink:href="#DejaVuSans-30" x="63.623047"/>
      </g>
     </g>
    </g>
    <g id="ytick_8">
     <g id="line2d_41">
      <path d="M 395.60364 83.075597 
L 690.38011 83.075597 
" clip-path="url(#p504fe55b52)" style="fill: none; stroke: #cbcbcb"/>
     </g>
     <g id="line2d_42"/>
     <g id="text_21">
      <!-- 60 -->
      <g transform="translate(374.28864 88.394503) scale(0.14 -0.14)">
       <use xlink:href="#DejaVuSans-36"/>
       <use xlink:href="#DejaVuSans-30" x="63.623047"/>
      </g>
     </g>
    </g>
    <g id="ytick_9">
     <g id="line2d_43">
      <path d="M 395.60364 48.191156 
L 690.38011 48.191156 
" clip-path="url(#p504fe55b52)" style="fill: none; stroke: #cbcbcb"/>
     </g>
     <g id="line2d_44"/>
     <g id="text_22">
      <!-- 80 -->
      <g transform="translate(374.28864 53.510063) scale(0.14 -0.14)">
       <use xlink:href="#DejaVuSans-38"/>
       <use xlink:href="#DejaVuSans-30" x="63.623047"/>
      </g>
     </g>
    </g>
    <g id="ytick_10">
     <g id="line2d_45">
      <path d="M 395.60364 13.306716 
L 690.38011 13.306716 
" clip-path="url(#p504fe55b52)" style="fill: none; stroke: #cbcbcb"/>
     </g>
     <g id="line2d_46"/>
     <g id="text_23">
      <!-- 100 -->
      <g transform="translate(365.38114 18.625623) scale(0.14 -0.14)">
       <use xlink:href="#DejaVuSans-31"/>
       <use xlink:href="#DejaVuSans-30" x="63.623047"/>
       <use xlink:href="#DejaVuSans-30" x="127.246094"/>
      </g>
     </g>
    </g>
   </g>
   <g id="line2d_47">
    <path d="M 409.00257 16.39071 
L 409.52699 81.452924 
L 410.05141 124.420014 
L 410.57583 115.198041 
L 411.10025 62.84619 
L 411.62467 92.352103 
L 412.14909 142.967879 
L 412.67351 129.381303 
L 413.19793 38.374066 
L 413.72235 86.739651 
L 414.24677 62.44178 
L 414.77119 95.158598 
L 415.29561 115.334429 
L 415.82003 98.860918 
L 416.34445 106.137727 
L 416.86887 126.973935 
L 417.39329 137.834379 
L 417.91771 137.851413 
L 418.44213 106.759739 
L 418.96655 124.124484 
L 419.49097 100.821943 
L 420.01539 110.392874 
L 420.53981 93.048403 
L 421.06423 107.425473 
L 421.58865 24.232164 
L 422.63749 126.750871 
L 423.16191 121.753306 
L 424.21075 64.239111 
L 424.73517 90.79964 
L 425.25959 48.386775 
L 425.78401 117.421002 
L 426.30843 155.414008 
L 426.832849 159.372388 
L 427.357269 144.234926 
L 427.881689 142.269802 
L 428.406109 137.100336 
L 428.930529 146.553616 
L 429.454949 93.918991 
L 429.979369 56.66435 
L 431.028209 110.597309 
L 431.552629 85.086651 
L 432.077049 78.513595 
L 432.601469 76.406634 
L 433.125889 64.926649 
L 433.650309 100.789367 
L 434.174729 68.712686 
L 434.699149 84.042283 
L 435.223569 70.845948 
L 435.747989 126.291793 
L 436.272409 129.002842 
L 436.796829 153.193629 
L 437.321249 133.211852 
L 437.845669 151.255771 
L 438.370089 148.911877 
L 438.894509 157.506227 
L 439.943349 165.128108 
L 440.992189 69.960503 
L 441.516609 105.926552 
L 442.041029 89.058771 
L 442.565449 103.647727 
L 443.089869 91.044295 
L 443.614289 126.138619 
L 444.138709 105.940492 
L 444.663129 113.303533 
L 445.187549 71.591081 
L 446.236389 115.030535 
L 446.760809 109.427811 
L 447.809649 155.291078 
L 448.334069 163.190442 
L 448.858489 161.684365 
L 449.382909 142.509663 
L 449.907329 146.709143 
L 450.431749 155.753931 
L 450.956169 170.875115 
L 451.480589 143.16378 
L 452.005009 141.717826 
L 452.529429 140.654748 
L 453.053848 160.446914 
L 453.578268 139.40189 
L 454.102688 142.757273 
L 454.627108 123.714624 
L 455.151528 150.701853 
L 455.675948 162.629016 
L 456.200368 140.351237 
L 456.724788 151.818716 
L 457.249208 135.037126 
L 457.773628 134.218215 
L 458.298048 147.466069 
L 458.822468 170.839185 
L 459.346888 159.437591 
L 459.871308 163.8265 
L 460.395728 164.146554 
L 460.920148 167.024904 
L 461.444568 167.760711 
L 461.968988 170.175092 
L 462.493408 164.281215 
L 463.017828 133.749616 
L 463.542248 137.777308 
L 464.066668 109.598112 
L 464.591088 128.352764 
L 465.115508 138.384313 
L 465.639928 106.373859 
L 466.164348 150.755621 
L 466.688768 129.17422 
L 467.213188 125.243293 
L 467.737608 136.026784 
L 468.262028 143.03904 
L 468.786448 157.669099 
L 469.310868 158.39821 
L 469.835288 174.890169 
L 470.359708 157.497142 
L 471.408548 152.854361 
L 471.932968 169.089699 
L 472.457388 170.845776 
L 472.981808 159.471591 
L 474.030648 156.640178 
L 474.555068 156.290154 
L 475.079488 127.320659 
L 475.603908 123.210475 
L 476.128328 123.982541 
L 476.652748 113.264176 
L 477.701588 140.077531 
L 478.226008 131.394793 
L 478.750427 147.081819 
L 479.274847 149.18486 
L 479.799267 137.476235 
L 480.323687 164.579083 
L 480.848107 162.182751 
L 481.372527 133.604396 
L 481.896947 162.752605 
L 482.421367 167.884132 
L 482.945787 151.638188 
L 483.470207 169.302793 
L 483.994627 167.529336 
L 484.519047 140.429703 
L 485.043467 132.687489 
L 485.567887 142.836286 
L 486.616727 124.6969 
L 487.141147 154.447857 
L 487.665567 146.277971 
L 488.189987 126.047357 
L 488.714407 142.485165 
L 489.238827 154.853645 
L 489.763247 143.555662 
L 490.287667 163.350982 
L 490.812087 136.404464 
L 491.336507 160.612456 
L 491.860927 162.195602 
L 492.385347 169.841785 
L 492.909767 168.536043 
L 493.434187 165.621074 
L 493.958607 151.844748 
L 494.483027 169.545371 
L 495.007447 159.918698 
L 495.531867 166.588472 
L 496.056287 169.663081 
L 496.580707 160.871003 
L 497.105127 169.861715 
L 497.629547 150.938531 
L 498.153967 142.906675 
L 498.678387 145.810593 
L 499.202807 169.816719 
L 499.727227 161.260913 
L 500.251647 161.602029 
L 500.776067 163.116912 
L 501.300487 138.137644 
L 501.824907 153.840676 
L 502.349327 163.398343 
L 502.873747 166.838225 
L 503.398167 165.684585 
L 503.922587 167.042836 
L 504.447006 166.258081 
L 504.971426 171.206289 
L 505.495846 165.643244 
L 506.020266 161.311794 
L 506.544686 166.930378 
L 507.069106 161.208655 
L 507.593526 126.844435 
L 508.117946 147.866983 
L 508.642366 106.933487 
L 509.166786 143.041941 
L 509.691206 143.618303 
L 510.215626 160.171991 
L 510.740046 138.615551 
L 511.264466 137.457638 
L 511.788886 121.656641 
L 512.313306 149.389075 
L 512.837726 146.358551 
L 513.362146 170.659895 
L 513.886566 168.493765 
L 514.410986 173.687509 
L 515.459826 161.380003 
L 515.984246 167.734585 
L 516.508666 171.003741 
L 517.033086 151.163738 
L 517.557506 154.218668 
L 518.081926 150.430738 
L 518.606346 148.710992 
L 519.130766 123.565003 
L 519.655186 154.145211 
L 520.179606 105.917397 
L 520.704026 156.739111 
L 521.228446 138.517459 
L 521.752866 125.651789 
L 522.277286 145.954386 
L 522.801706 138.284897 
L 523.326126 158.932879 
L 523.850546 139.365627 
L 524.374966 162.372327 
L 524.899386 166.628072 
L 525.423806 175.388962 
L 525.948226 164.478425 
L 526.472646 172.465155 
L 526.997066 171.064702 
L 527.521486 175.445255 
L 528.045906 158.168268 
L 528.570326 157.059779 
L 529.094746 139.422982 
L 529.619166 145.517522 
L 530.143585 153.418726 
L 530.668005 150.17543 
L 531.192425 155.6079 
L 531.716845 144.819674 
L 532.241265 126.765562 
L 532.765685 144.436749 
L 533.290105 147.438137 
L 533.814525 164.341237 
L 534.338945 158.800015 
L 534.863365 141.157875 
L 535.387785 160.219752 
L 535.912205 151.688656 
L 536.436625 157.606991 
L 536.961045 143.042367 
L 537.485465 171.624828 
L 538.009885 171.32073 
L 538.534305 169.421431 
L 539.058725 162.525553 
L 539.583145 165.63088 
L 540.107565 170.787994 
L 540.631985 170.957258 
L 541.156405 170.503301 
L 541.680825 141.591705 
L 542.205245 157.268169 
L 542.729665 161.904683 
L 543.254085 126.855353 
L 543.778505 152.071958 
L 544.302925 151.187428 
L 544.827345 151.56744 
L 545.351765 138.140073 
L 545.876185 139.042767 
L 546.400605 133.004487 
L 546.925025 157.480411 
L 547.449445 151.920817 
L 547.973865 155.783117 
L 548.498285 157.934149 
L 549.022705 161.395313 
L 549.547125 156.256477 
L 550.071545 137.891684 
L 550.595965 151.3403 
L 551.120385 141.925687 
L 551.644805 103.147025 
L 552.169225 109.025836 
L 552.693645 82.12462 
L 553.218065 112.31815 
L 553.742485 127.637573 
L 554.266905 146.451922 
L 554.791325 137.076529 
L 555.315745 111.5581 
L 555.840165 113.124988 
L 556.364584 154.090801 
L 556.889004 143.168514 
L 557.413424 140.797535 
L 557.937844 152.821222 
L 558.462264 157.553309 
L 558.986684 152.997412 
L 559.511104 155.497086 
L 560.035524 156.499206 
L 560.559944 149.041148 
L 561.084364 128.283832 
L 561.608784 141.484441 
L 562.133204 145.653021 
L 562.657624 139.714556 
L 563.182044 99.525334 
L 563.706464 107.583478 
L 564.230884 93.640907 
L 564.755304 129.011698 
L 565.279724 134.278021 
L 565.804144 120.734887 
L 566.328564 115.474981 
L 566.852984 143.271716 
L 567.377404 133.69819 
L 567.901824 159.119838 
L 568.426244 150.405022 
L 568.950664 158.825186 
L 569.999504 150.441334 
L 570.523924 156.149842 
L 571.048344 157.56996 
L 571.572764 151.58934 
L 572.097184 135.509012 
L 572.621604 143.982818 
L 573.146024 125.33395 
L 573.670444 140.544609 
L 574.194864 115.768069 
L 574.719284 140.115454 
L 575.243704 147.617367 
L 575.768124 133.715689 
L 576.292544 95.545097 
L 576.816964 126.127075 
L 577.341384 128.380969 
L 577.865804 137.046394 
L 578.390224 141.399298 
L 578.914644 144.006721 
L 579.439064 156.384833 
L 579.963484 164.16294 
L 580.487904 154.808177 
L 581.012324 143.260075 
L 581.536744 144.828168 
L 582.061163 144.964242 
L 582.585583 148.476317 
L 583.110003 150.464779 
L 583.634423 146.665458 
L 584.158843 157.837125 
L 584.683263 153.400235 
L 585.207683 156.00545 
L 585.732103 136.704911 
L 586.256523 128.606562 
L 586.780943 115.469026 
L 587.305363 155.79528 
L 587.829783 158.644885 
L 588.354203 121.610837 
L 588.878623 122.504173 
L 589.403043 141.124291 
L 589.927463 131.582739 
L 590.451883 149.396594 
L 590.976303 160.226677 
L 591.500723 157.143612 
L 592.025143 151.533965 
L 592.549563 150.50513 
L 593.073983 164.246181 
L 593.598403 160.639876 
L 594.122823 133.30183 
L 594.647243 152.26721 
L 595.171663 131.780979 
L 595.696083 133.684926 
L 596.220503 118.362112 
L 596.744923 94.259626 
L 597.269343 147.389548 
L 597.793763 109.419155 
L 598.318183 152.065424 
L 598.842603 137.674911 
L 599.367023 131.50535 
L 599.891443 133.847455 
L 600.415863 149.145803 
L 600.940283 138.162858 
L 602.513543 152.01636 
L 603.037963 152.487214 
L 603.562383 155.89135 
L 604.086803 153.087433 
L 604.611223 156.111949 
L 605.135643 131.782682 
L 605.660063 133.09887 
L 606.708903 111.68627 
L 607.233323 112.734184 
L 607.757742 115.339991 
L 608.282162 119.663671 
L 608.806582 117.541574 
L 609.331002 112.133224 
L 609.855422 114.440101 
L 610.379842 109.168172 
L 610.904262 132.025748 
L 611.428682 144.426369 
L 612.477522 154.692699 
L 613.001942 158.187122 
L 613.526362 158.820665 
L 614.050782 138.150406 
L 614.575202 143.758972 
L 615.624042 162.733822 
L 616.148462 129.631747 
L 616.672882 125.873869 
L 617.197302 124.520291 
L 617.721722 132.904848 
L 618.246142 138.553971 
L 618.770562 126.135059 
L 619.294982 117.239284 
L 619.819402 138.495559 
L 620.343822 108.764852 
L 620.868242 115.512015 
L 621.392662 117.047385 
L 621.917082 123.686193 
L 622.441502 135.940902 
L 622.965922 124.472924 
L 623.490342 116.208922 
L 624.014762 150.329959 
L 624.539182 151.372081 
L 625.063602 157.842874 
L 625.588022 146.579063 
L 626.112442 151.099546 
L 626.636862 157.421576 
L 627.161282 148.561384 
L 627.685702 126.51038 
L 628.210122 128.68954 
L 628.734542 120.106274 
L 629.258962 134.1354 
L 629.783382 129.541138 
L 630.307802 110.608307 
L 630.832222 99.625478 
L 631.356642 110.722165 
L 631.881062 111.081497 
L 632.405482 138.728028 
L 632.929902 126.759527 
L 633.454321 131.498277 
L 633.978741 123.174252 
L 634.503161 130.014706 
L 635.027581 158.629325 
L 635.552001 152.083589 
L 636.076421 156.774802 
L 636.600841 141.037045 
L 637.125261 160.94073 
L 637.649681 147.046291 
L 638.174101 146.364126 
L 638.698521 114.192105 
L 639.222941 104.978989 
L 639.747361 132.233442 
L 640.271781 123.50482 
L 640.796201 122.812245 
L 641.320621 103.776835 
L 641.845041 110.535895 
L 642.369461 113.828428 
L 642.893881 126.002385 
L 643.418301 135.045417 
L 644.467141 113.179648 
L 644.991561 128.063562 
L 645.515981 131.911624 
L 646.040401 144.30114 
L 646.564821 144.43946 
L 647.089241 153.210975 
L 647.613661 149.79651 
L 648.138081 166.043566 
L 648.662501 151.980271 
L 649.186921 134.888217 
L 649.711341 155.962664 
L 650.235761 130.798596 
L 651.284601 111.421234 
L 651.809021 92.12303 
L 652.333441 124.564798 
L 652.857861 103.474159 
L 653.382281 118.197819 
L 653.906701 108.751292 
L 654.431121 108.920954 
L 654.955541 81.293555 
L 655.479961 142.173586 
L 656.004381 122.423511 
L 656.528801 129.596709 
L 657.053221 155.318491 
L 657.577641 138.245923 
L 658.102061 142.409828 
L 659.150901 160.299693 
L 659.67532 148.432249 
L 660.19974 127.245352 
L 660.72416 147.801454 
L 661.24858 140.370416 
L 661.773 130.438859 
L 662.29742 124.648514 
L 662.82184 126.208489 
L 663.34626 129.221521 
L 663.87068 136.514273 
L 664.3951 131.97826 
L 664.91952 114.067102 
L 665.44394 110.710255 
L 665.96836 117.646535 
L 666.49278 109.103524 
L 667.54162 149.43279 
L 668.06604 142.71654 
L 668.59046 113.751478 
L 669.11488 143.543399 
L 669.6393 133.032576 
L 670.16372 127.660023 
L 670.68814 86.065261 
L 671.21256 126.586498 
L 671.73698 142.668869 
L 672.2614 155.242782 
L 673.31024 62.993796 
L 674.35908 139.517903 
L 674.8835 114.959973 
L 675.40792 113.333102 
L 675.93234 88.834103 
L 676.45676 104.606895 
L 676.98118 112.064784 
L 676.98118 112.064784 
" clip-path="url(#p504fe55b52)" style="fill: none; stroke: #008fd5; stroke-opacity: 0.4; stroke-width: 4"/>
   </g>
   <g id="line2d_48">
    <path d="M 409.00257 16.39071 
L 409.52699 19.643826 
L 410.57583 29.398413 
L 411.10025 31.070801 
L 411.62467 34.134874 
L 412.67351 44.066754 
L 413.19793 43.782123 
L 413.72235 45.929997 
L 414.24677 46.755585 
L 414.77119 49.175741 
L 415.29561 52.483684 
L 416.34445 57.369308 
L 417.91771 68.356421 
L 418.44213 70.276593 
L 418.96655 72.968991 
L 419.49097 74.361646 
L 420.01539 76.163209 
L 420.53981 77.007468 
L 421.06423 78.528373 
L 421.58865 75.813559 
L 422.11307 75.955748 
L 423.16191 80.658395 
L 423.68633 81.16798 
L 424.21075 80.321539 
L 424.73517 80.845443 
L 425.25959 79.222511 
L 425.78401 81.132436 
L 426.832849 88.572806 
L 427.881689 93.901611 
L 428.930529 98.586147 
L 429.454949 98.352789 
L 429.979369 96.268371 
L 430.503789 95.547119 
L 431.028209 96.29963 
L 431.552629 95.738978 
L 432.601469 93.954155 
L 433.125889 92.502782 
L 433.650309 92.917113 
L 434.174729 91.706895 
L 434.699149 91.323663 
L 435.223569 90.299782 
L 436.272409 93.944561 
L 436.796829 96.907018 
L 437.321249 98.722262 
L 439.943349 111.945284 
L 440.467769 112.412851 
L 440.992189 110.290235 
L 441.516609 110.072054 
L 442.041029 109.021385 
L 442.565449 108.752702 
L 443.089869 107.867284 
L 443.614289 108.780854 
L 444.138709 108.638831 
L 444.663129 108.872069 
L 445.187549 107.008021 
L 445.711969 106.26734 
L 446.236389 106.705505 
L 446.760809 106.84162 
L 447.285229 108.208445 
L 448.858489 115.618487 
L 449.907329 118.450353 
L 450.431749 120.315532 
L 450.956169 122.843511 
L 452.005009 124.752445 
L 452.529429 125.547566 
L 453.053848 127.29254 
L 454.102688 128.640975 
L 454.627108 128.394662 
L 455.151528 129.510025 
L 455.675948 131.165973 
L 456.200368 131.625236 
L 456.724788 132.634912 
L 457.773628 132.828181 
L 458.298048 133.560076 
L 458.822468 135.424034 
L 460.395728 139.292892 
L 461.968988 143.440636 
L 462.493408 144.482666 
L 463.017828 143.946013 
L 463.542248 143.637578 
L 464.066668 141.935604 
L 464.591088 141.256463 
L 465.115508 141.112857 
L 465.639928 139.375907 
L 466.164348 139.944893 
L 466.688768 139.406361 
L 467.213188 138.698207 
L 467.737608 138.564634 
L 468.262028 138.788354 
L 469.310868 140.665686 
L 469.835288 142.376913 
L 470.884128 143.74291 
L 471.408548 144.198484 
L 472.457388 146.713182 
L 473.506228 147.887343 
L 474.555068 148.723245 
L 476.128328 145.30856 
L 476.652748 143.706344 
L 477.177168 142.910757 
L 477.701588 142.769097 
L 478.226008 142.200384 
L 479.274847 142.781476 
L 479.799267 142.516214 
L 480.848107 144.547532 
L 481.372527 144.000374 
L 482.421367 146.085294 
L 482.945787 146.362939 
L 483.994627 148.510903 
L 484.519047 148.106845 
L 485.043467 147.335876 
L 485.567887 147.110895 
L 486.092307 146.473277 
L 486.616727 145.384459 
L 487.141147 145.837631 
L 487.665567 145.859648 
L 488.189987 144.869035 
L 488.714407 144.749841 
L 489.238827 145.255031 
L 489.763247 145.170064 
L 490.287667 146.079109 
L 490.812087 145.595377 
L 491.860927 147.138701 
L 492.909767 149.286964 
L 493.434187 150.10367 
L 493.958607 150.190724 
L 494.483027 151.158455 
L 495.007447 151.596466 
L 496.056287 153.21192 
L 496.580707 153.594876 
L 497.105127 154.408218 
L 497.629547 154.234733 
L 498.153967 153.668332 
L 498.678387 153.275446 
L 499.202807 154.102511 
L 500.776067 155.232482 
L 501.300487 154.377741 
L 501.824907 154.350886 
L 502.349327 154.80326 
L 503.922587 156.47518 
L 504.447006 156.964325 
L 504.971426 157.676425 
L 505.495846 158.074764 
L 506.020266 158.236618 
L 506.544686 158.671307 
L 507.069106 158.798176 
L 507.593526 157.200491 
L 508.117946 156.733815 
L 508.642366 154.243799 
L 509.691206 153.180434 
L 510.215626 153.530012 
L 511.264466 152.017957 
L 511.788886 150.49989 
L 512.313306 150.444352 
L 512.837726 150.240061 
L 514.410986 153.200934 
L 514.935406 153.893666 
L 515.459826 154.267985 
L 516.508666 155.74444 
L 517.033086 155.515407 
L 517.557506 155.45057 
L 518.606346 154.87515 
L 519.130766 153.309646 
L 519.655186 153.351424 
L 520.179606 150.979724 
L 520.704026 151.267695 
L 521.228446 150.630182 
L 521.752866 149.381264 
L 522.277286 149.209921 
L 522.801706 148.663671 
L 523.326126 149.177132 
L 523.850546 148.68656 
L 524.899386 150.233713 
L 525.423806 151.491475 
L 525.948226 152.140824 
L 527.521486 155.122068 
L 528.570326 155.36365 
L 529.094746 154.566619 
L 529.619166 154.114165 
L 530.143585 154.079396 
L 530.668005 153.884197 
L 531.192425 153.970383 
L 531.716845 153.512849 
L 532.241265 152.175486 
L 532.765685 151.788551 
L 533.290105 151.571033 
L 533.814525 152.209543 
L 534.338945 152.539066 
L 534.863365 151.970007 
L 535.387785 152.382495 
L 535.912205 152.347803 
L 536.436625 152.610763 
L 536.961045 152.132344 
L 538.009885 154.017657 
L 538.534305 154.787847 
L 539.583145 155.697541 
L 541.156405 157.843625 
L 541.680825 157.031032 
L 542.205245 157.042888 
L 542.729665 157.285977 
L 543.254085 155.764447 
L 544.827345 155.17057 
L 546.400605 152.527692 
L 546.925025 152.775329 
L 547.449445 152.732602 
L 548.498285 153.137581 
L 549.022705 153.550469 
L 549.547125 153.685771 
L 550.071545 152.896066 
L 550.595965 152.818278 
L 551.120385 152.273648 
L 553.218065 142.886242 
L 553.742485 142.123807 
L 554.266905 142.340214 
L 554.791325 142.077031 
L 555.840165 139.179783 
L 556.364584 139.925335 
L 556.889004 140.087495 
L 557.413424 140.122995 
L 557.937844 140.757909 
L 558.462264 141.59768 
L 559.511104 142.834137 
L 560.035524 143.51739 
L 560.559944 143.793581 
L 561.084364 143.018094 
L 561.608784 142.941414 
L 562.133204 143.076996 
L 562.657624 142.908874 
L 563.182044 140.739698 
L 563.706464 139.081888 
L 564.230884 136.809839 
L 564.755304 136.41993 
L 565.279724 136.312836 
L 565.804144 135.53394 
L 566.328564 134.530991 
L 566.852984 134.968028 
L 567.377404 134.904535 
L 567.901824 136.115302 
L 568.426244 136.82979 
L 568.950664 137.92956 
L 569.475084 138.759124 
L 569.999504 139.343238 
L 571.048344 141.05289 
L 571.572764 141.579712 
L 572.097184 141.276175 
L 572.621604 141.411507 
L 573.146024 140.607629 
L 573.670444 140.604479 
L 574.194864 139.36266 
L 574.719284 139.400299 
L 575.243704 139.811151 
L 575.768124 139.506379 
L 576.292544 137.308316 
L 577.341384 136.330841 
L 577.865804 136.366618 
L 578.914644 136.987679 
L 579.439064 137.957536 
L 579.963484 139.267805 
L 580.487904 140.044825 
L 581.536744 140.43672 
L 582.061163 140.663098 
L 583.634423 141.781372 
L 584.158843 142.584161 
L 585.207683 143.768989 
L 585.732103 143.415785 
L 586.256523 142.675327 
L 586.780943 141.315012 
L 587.829783 142.869318 
L 588.878623 140.841287 
L 589.403043 140.855436 
L 589.927463 140.391801 
L 590.451883 140.842042 
L 591.500723 142.57789 
L 592.549563 143.399666 
L 593.598403 145.251884 
L 594.122823 144.65438 
L 594.647243 145.035021 
L 595.696083 143.837954 
L 596.220503 142.564164 
L 596.744923 140.148938 
L 597.269343 140.510968 
L 597.793763 138.956379 
L 598.318183 139.61183 
L 598.842603 139.514982 
L 599.891443 138.851148 
L 600.415863 139.365883 
L 600.940283 139.305734 
L 601.464703 139.474614 
L 601.989123 139.870132 
L 604.611223 143.068543 
L 605.660063 142.033979 
L 606.184483 141.047145 
L 607.233323 138.236857 
L 607.757742 137.092015 
L 608.806582 135.286646 
L 610.379842 131.945717 
L 610.904262 131.949716 
L 611.428682 132.573548 
L 612.477522 134.50221 
L 613.526362 136.843168 
L 614.050782 136.90853 
L 614.575202 137.251051 
L 615.099622 138.087808 
L 615.624042 139.320109 
L 616.148462 138.835692 
L 617.197302 137.504234 
L 617.721722 137.274266 
L 618.246142 137.338251 
L 618.770562 136.778095 
L 619.294982 135.801155 
L 619.819402 135.935875 
L 620.343822 134.577324 
L 621.392662 132.795226 
L 621.917082 132.339775 
L 622.441502 132.51983 
L 622.965922 132.117485 
L 623.490342 131.322061 
L 624.539182 133.227442 
L 625.063602 134.458213 
L 625.588022 135.064253 
L 626.112442 135.866018 
L 626.636862 136.943794 
L 627.161282 137.524674 
L 628.734542 135.73707 
L 629.258962 135.656986 
L 629.783382 135.351197 
L 630.307802 134.114055 
L 630.832222 132.389627 
L 631.881062 130.295013 
L 632.405482 130.716663 
L 632.929902 130.518803 
L 633.454321 130.567774 
L 633.978741 130.198095 
L 634.503161 130.188926 
L 635.027581 131.610951 
L 636.076421 133.841593 
L 636.600841 134.201368 
L 637.125261 135.538338 
L 638.174101 136.626254 
L 638.698521 135.504547 
L 639.222941 133.97827 
L 639.747361 133.89103 
L 640.796201 132.843748 
L 641.320621 131.390401 
L 642.369461 129.521715 
L 642.893881 129.345752 
L 643.418301 129.630736 
L 643.942721 129.328493 
L 644.467141 128.521055 
L 644.991561 128.49818 
L 645.515981 128.668854 
L 646.564821 130.199918 
L 647.613661 132.272775 
L 648.138081 133.961316 
L 648.662501 134.862264 
L 649.186921 134.863562 
L 649.711341 135.918516 
L 650.235761 135.662519 
L 650.760181 134.924283 
L 651.284601 133.74913 
L 651.809021 131.667826 
L 652.333441 131.312673 
L 652.857861 129.92075 
L 653.382281 129.334601 
L 654.431121 127.336215 
L 654.955541 125.034088 
L 655.479961 125.891062 
L 656.004381 125.717681 
L 656.528801 125.911629 
L 657.053221 127.381972 
L 657.577641 127.925172 
L 658.102061 128.649405 
L 658.626481 129.773936 
L 659.150901 131.300224 
L 659.67532 132.156825 
L 660.19974 131.911251 
L 660.72416 132.705764 
L 661.24858 133.088999 
L 661.773 132.956494 
L 662.82184 132.224463 
L 663.34626 132.074316 
L 663.87068 132.296316 
L 664.3951 132.280414 
L 666.49278 128.672327 
L 667.0172 128.753834 
L 667.54162 129.787783 
L 668.06604 130.434221 
L 668.59046 129.600082 
L 669.11488 130.297248 
L 669.6393 130.434015 
L 670.16372 130.295312 
L 670.68814 128.083809 
L 671.21256 128.008948 
L 671.73698 128.741944 
L 672.2614 130.066984 
L 672.78582 129.058919 
L 673.31024 125.75566 
L 673.83466 124.653611 
L 674.35908 125.396827 
L 675.40792 124.297892 
L 675.93234 122.5247 
L 676.45676 121.628809 
L 676.98118 121.150609 
L 676.98118 121.150609 
" clip-path="url(#p504fe55b52)" style="fill: none; stroke: #008fd5; stroke-width: 4"/>
   </g>
   <g id="patch_9">
    <path d="M 395.60364 183.397982 
L 395.60364 8.437982 
" style="fill: none; stroke: #f0f0f0; stroke-width: 3; stroke-linejoin: miter; stroke-linecap: square"/>
   </g>
   <g id="patch_10">
    <path d="M 690.38011 183.397982 
L 690.38011 8.437982 
" style="fill: none; stroke: #f0f0f0; stroke-width: 3; stroke-linejoin: miter; stroke-linecap: square"/>
   </g>
   <g id="patch_11">
    <path d="M 395.60364 183.397982 
L 690.38011 183.397982 
" style="fill: none; stroke: #f0f0f0; stroke-width: 3; stroke-linejoin: miter; stroke-linecap: square"/>
   </g>
   <g id="patch_12">
    <path d="M 395.60364 8.437982 
L 690.38011 8.437982 
" style="fill: none; stroke: #f0f0f0; stroke-width: 3; stroke-linejoin: miter; stroke-linecap: square"/>
   </g>
   <g id="legend_2">
    <g id="patch_13">
     <path d="M 565.425735 40.187357 
L 680.58011 40.187357 
Q 683.38011 40.187357 683.38011 37.387357 
L 683.38011 18.237982 
Q 683.38011 15.437982 680.58011 15.437982 
L 565.425735 15.437982 
Q 562.625735 15.437982 562.625735 18.237982 
L 562.625735 37.387357 
Q 562.625735 40.187357 565.425735 40.187357 
z
" style="fill: #f0f0f0; opacity: 0.8; stroke: #cccccc; stroke-width: 0.5; stroke-linejoin: miter"/>
    </g>
    <g id="line2d_49">
     <path d="M 568.225735 26.775795 
L 582.225735 26.775795 
L 596.225735 26.775795 
" style="fill: none; stroke: #008fd5; stroke-width: 4"/>
    </g>
    <g id="text_24">
     <!-- perplexity -->
     <g transform="translate(607.425735 31.675795) scale(0.14 -0.14)">
      <defs>
       <path id="DejaVuSans-70" d="M 1159 525 
L 1159 -1331 
L 581 -1331 
L 581 3500 
L 1159 3500 
L 1159 2969 
Q 1341 3281 1617 3432 
Q 1894 3584 2278 3584 
Q 2916 3584 3314 3078 
Q 3713 2572 3713 1747 
Q 3713 922 3314 415 
Q 2916 -91 2278 -91 
Q 1894 -91 1617 61 
Q 1341 213 1159 525 
z
M 3116 1747 
Q 3116 2381 2855 2742 
Q 2594 3103 2138 3103 
Q 1681 3103 1420 2742 
Q 1159 2381 1159 1747 
Q 1159 1113 1420 752 
Q 1681 391 2138 391 
Q 2594 391 2855 752 
Q 3116 1113 3116 1747 
z
" transform="scale(0.015625)"/>
       <path id="DejaVuSans-65" d="M 3597 1894 
L 3597 1613 
L 953 1613 
Q 991 1019 1311 708 
Q 1631 397 2203 397 
Q 2534 397 2845 478 
Q 3156 559 3463 722 
L 3463 178 
Q 3153 47 2828 -22 
Q 2503 -91 2169 -91 
Q 1331 -91 842 396 
Q 353 884 353 1716 
Q 353 2575 817 3079 
Q 1281 3584 2069 3584 
Q 2775 3584 3186 3129 
Q 3597 2675 3597 1894 
z
M 3022 2063 
Q 3016 2534 2758 2815 
Q 2500 3097 2075 3097 
Q 1594 3097 1305 2825 
Q 1016 2553 972 2059 
L 3022 2063 
z
" transform="scale(0.015625)"/>
       <path id="DejaVuSans-6c" d="M 603 4863 
L 1178 4863 
L 1178 0 
L 603 0 
L 603 4863 
z
" transform="scale(0.015625)"/>
       <path id="DejaVuSans-78" d="M 3513 3500 
L 2247 1797 
L 3578 0 
L 2900 0 
L 1881 1375 
L 863 0 
L 184 0 
L 1544 1831 
L 300 3500 
L 978 3500 
L 1906 2253 
L 2834 3500 
L 3513 3500 
z
" transform="scale(0.015625)"/>
       <path id="DejaVuSans-69" d="M 603 3500 
L 1178 3500 
L 1178 0 
L 603 0 
L 603 3500 
z
M 603 4863 
L 1178 4863 
L 1178 4134 
L 603 4134 
L 603 4863 
z
" transform="scale(0.015625)"/>
       <path id="DejaVuSans-74" d="M 1172 4494 
L 1172 3500 
L 2356 3500 
L 2356 3053 
L 1172 3053 
L 1172 1153 
Q 1172 725 1289 603 
Q 1406 481 1766 481 
L 2356 481 
L 2356 0 
L 1766 0 
Q 1100 0 847 248 
Q 594 497 594 1153 
L 594 3053 
L 172 3053 
L 172 3500 
L 594 3500 
L 594 4494 
L 1172 4494 
z
" transform="scale(0.015625)"/>
      </defs>
      <use xlink:href="#DejaVuSans-70"/>
      <use xlink:href="#DejaVuSans-65" x="63.476562"/>
      <use xlink:href="#DejaVuSans-72" x="125"/>
      <use xlink:href="#DejaVuSans-70" x="166.113281"/>
      <use xlink:href="#DejaVuSans-6c" x="229.589844"/>
      <use xlink:href="#DejaVuSans-65" x="257.373047"/>
      <use xlink:href="#DejaVuSans-78" x="317.146484"/>
      <use xlink:href="#DejaVuSans-69" x="376.326172"/>
      <use xlink:href="#DejaVuSans-74" x="404.109375"/>
      <use xlink:href="#DejaVuSans-79" x="443.318359"/>
     </g>
    </g>
   </g>
  </g>
  <g id="axes_3">
   <g id="patch_14">
    <path d="M 749.335404 183.397982 
L 1044.111875 183.397982 
L 1044.111875 8.437982 
L 749.335404 8.437982 
L 749.335404 183.397982 
z
" style="fill: none"/>
   </g>
   <g id="matplotlib.axis_5">
    <g id="xtick_13">
     <g id="line2d_50">
      <path d="M 762.734335 183.397982 
L 762.734335 8.437982 
" clip-path="url(#pb963b17b21)" style="fill: none; stroke: #cbcbcb"/>
     </g>
     <g id="line2d_51"/>
     <g id="text_25">
      <!-- 0 -->
      <g transform="translate(758.280585 197.535795) scale(0.14 -0.14)">
       <use xlink:href="#DejaVuSans-30"/>
      </g>
     </g>
    </g>
    <g id="xtick_14">
     <g id="line2d_52">
      <path d="M 815.176333 183.397982 
L 815.176333 8.437982 
" clip-path="url(#pb963b17b21)" style="fill: none; stroke: #cbcbcb"/>
     </g>
     <g id="line2d_53"/>
     <g id="text_26">
      <!-- 100 -->
      <g transform="translate(801.815083 197.535795) scale(0.14 -0.14)">
       <use xlink:href="#DejaVuSans-31"/>
       <use xlink:href="#DejaVuSans-30" x="63.623047"/>
       <use xlink:href="#DejaVuSans-30" x="127.246094"/>
      </g>
     </g>
    </g>
    <g id="xtick_15">
     <g id="line2d_54">
      <path d="M 867.618331 183.397982 
L 867.618331 8.437982 
" clip-path="url(#pb963b17b21)" style="fill: none; stroke: #cbcbcb"/>
     </g>
     <g id="line2d_55"/>
     <g id="text_27">
      <!-- 200 -->
      <g transform="translate(854.257081 197.535795) scale(0.14 -0.14)">
       <use xlink:href="#DejaVuSans-32"/>
       <use xlink:href="#DejaVuSans-30" x="63.623047"/>
       <use xlink:href="#DejaVuSans-30" x="127.246094"/>
      </g>
     </g>
    </g>
    <g id="xtick_16">
     <g id="line2d_56">
      <path d="M 920.060329 183.397982 
L 920.060329 8.437982 
" clip-path="url(#pb963b17b21)" style="fill: none; stroke: #cbcbcb"/>
     </g>
     <g id="line2d_57"/>
     <g id="text_28">
      <!-- 300 -->
      <g transform="translate(906.699079 197.535795) scale(0.14 -0.14)">
       <use xlink:href="#DejaVuSans-33"/>
       <use xlink:href="#DejaVuSans-30" x="63.623047"/>
       <use xlink:href="#DejaVuSans-30" x="127.246094"/>
      </g>
     </g>
    </g>
    <g id="xtick_17">
     <g id="line2d_58">
      <path d="M 972.502327 183.397982 
L 972.502327 8.437982 
" clip-path="url(#pb963b17b21)" style="fill: none; stroke: #cbcbcb"/>
     </g>
     <g id="line2d_59"/>
     <g id="text_29">
      <!-- 400 -->
      <g transform="translate(959.141077 197.535795) scale(0.14 -0.14)">
       <use xlink:href="#DejaVuSans-34"/>
       <use xlink:href="#DejaVuSans-30" x="63.623047"/>
       <use xlink:href="#DejaVuSans-30" x="127.246094"/>
      </g>
     </g>
    </g>
    <g id="xtick_18">
     <g id="line2d_60">
      <path d="M 1024.944325 183.397982 
L 1024.944325 8.437982 
" clip-path="url(#pb963b17b21)" style="fill: none; stroke: #cbcbcb"/>
     </g>
     <g id="line2d_61"/>
     <g id="text_30">
      <!-- 500 -->
      <g transform="translate(1011.583075 197.535795) scale(0.14 -0.14)">
       <use xlink:href="#DejaVuSans-35"/>
       <use xlink:href="#DejaVuSans-30" x="63.623047"/>
       <use xlink:href="#DejaVuSans-30" x="127.246094"/>
      </g>
     </g>
    </g>
   </g>
   <g id="matplotlib.axis_6">
    <g id="ytick_11">
     <g id="line2d_62">
      <path d="M 749.335404 175.445255 
L 1044.111875 175.445255 
" clip-path="url(#pb963b17b21)" style="fill: none; stroke: #cbcbcb"/>
     </g>
     <g id="line2d_63"/>
     <g id="text_31">
      <!-- 0.0 -->
      <g transform="translate(723.571029 180.764161) scale(0.14 -0.14)">
       <use xlink:href="#DejaVuSans-30"/>
       <use xlink:href="#DejaVuSans-2e" x="63.623047"/>
       <use xlink:href="#DejaVuSans-30" x="95.410156"/>
      </g>
     </g>
    </g>
    <g id="ytick_12">
     <g id="line2d_64">
      <path d="M 749.335404 142.859985 
L 1044.111875 142.859985 
" clip-path="url(#pb963b17b21)" style="fill: none; stroke: #cbcbcb"/>
     </g>
     <g id="line2d_65"/>
     <g id="text_32">
      <!-- 0.2 -->
      <g transform="translate(723.571029 148.178892) scale(0.14 -0.14)">
       <use xlink:href="#DejaVuSans-30"/>
       <use xlink:href="#DejaVuSans-2e" x="63.623047"/>
       <use xlink:href="#DejaVuSans-32" x="95.410156"/>
      </g>
     </g>
    </g>
    <g id="ytick_13">
     <g id="line2d_66">
      <path d="M 749.335404 110.274716 
L 1044.111875 110.274716 
" clip-path="url(#pb963b17b21)" style="fill: none; stroke: #cbcbcb"/>
     </g>
     <g id="line2d_67"/>
     <g id="text_33">
      <!-- 0.4 -->
      <g transform="translate(723.571029 115.593622) scale(0.14 -0.14)">
       <use xlink:href="#DejaVuSans-30"/>
       <use xlink:href="#DejaVuSans-2e" x="63.623047"/>
       <use xlink:href="#DejaVuSans-34" x="95.410156"/>
      </g>
     </g>
    </g>
    <g id="ytick_14">
     <g id="line2d_68">
      <path d="M 749.335404 77.689446 
L 1044.111875 77.689446 
" clip-path="url(#pb963b17b21)" style="fill: none; stroke: #cbcbcb"/>
     </g>
     <g id="line2d_69"/>
     <g id="text_34">
      <!-- 0.6 -->
      <g transform="translate(723.571029 83.008352) scale(0.14 -0.14)">
       <use xlink:href="#DejaVuSans-30"/>
       <use xlink:href="#DejaVuSans-2e" x="63.623047"/>
       <use xlink:href="#DejaVuSans-36" x="95.410156"/>
      </g>
     </g>
    </g>
    <g id="ytick_15">
     <g id="line2d_70">
      <path d="M 749.335404 45.104176 
L 1044.111875 45.104176 
" clip-path="url(#pb963b17b21)" style="fill: none; stroke: #cbcbcb"/>
     </g>
     <g id="line2d_71"/>
     <g id="text_35">
      <!-- 0.8 -->
      <g transform="translate(723.571029 50.423082) scale(0.14 -0.14)">
       <use xlink:href="#DejaVuSans-30"/>
       <use xlink:href="#DejaVuSans-2e" x="63.623047"/>
       <use xlink:href="#DejaVuSans-38" x="95.410156"/>
      </g>
     </g>
    </g>
    <g id="ytick_16">
     <g id="line2d_72">
      <path d="M 749.335404 12.518906 
L 1044.111875 12.518906 
" clip-path="url(#pb963b17b21)" style="fill: none; stroke: #cbcbcb"/>
     </g>
     <g id="line2d_73"/>
     <g id="text_36">
      <!-- 1.0 -->
      <g transform="translate(723.571029 17.837812) scale(0.14 -0.14)">
       <use xlink:href="#DejaVuSans-31"/>
       <use xlink:href="#DejaVuSans-2e" x="63.623047"/>
       <use xlink:href="#DejaVuSans-30" x="95.410156"/>
      </g>
     </g>
    </g>
   </g>
   <g id="line2d_74">
    <path d="M 762.734335 175.445255 
L 767.454115 175.445255 
L 767.978535 171.565876 
L 778.466934 16.39071 
L 778.991354 171.565876 
L 789.479754 16.39071 
L 790.004174 171.565876 
L 800.492573 16.39071 
L 801.016993 171.565876 
L 811.505393 16.39071 
L 812.029813 171.471253 
L 821.993793 20.459155 
L 822.518213 175.445255 
L 833.006612 20.270088 
L 833.531032 175.445255 
L 844.019432 20.270088 
L 844.543852 175.445255 
L 855.032251 20.270088 
L 855.556671 175.445255 
L 866.045071 16.485151 
L 866.569491 171.565876 
L 877.05789 16.39071 
L 877.58231 171.565876 
L 888.07071 16.39071 
L 888.59513 171.565876 
L 899.08353 16.39071 
L 899.60795 171.565876 
L 910.096349 16.39071 
L 910.620769 171.471253 
L 920.584749 20.459155 
L 921.109169 175.445255 
L 931.597568 20.270088 
L 932.121988 175.445255 
L 942.610388 20.270088 
L 943.134808 175.445255 
L 953.623208 20.270088 
L 954.147627 175.445255 
L 964.636027 16.485151 
L 965.160447 171.565876 
L 975.648847 16.39071 
L 976.173267 171.565876 
L 986.661666 16.39071 
L 987.186086 171.565876 
L 997.674486 16.39071 
L 998.198906 171.471253 
L 1008.162885 20.459155 
L 1008.687305 175.445255 
L 1019.175705 20.270088 
L 1019.700125 175.445255 
L 1030.712945 175.445255 
L 1030.712945 175.445255 
" clip-path="url(#pb963b17b21)" style="fill: none; stroke: #008fd5; stroke-width: 4"/>
   </g>
   <g id="patch_15">
    <path d="M 749.335404 183.397982 
L 749.335404 8.437982 
" style="fill: none; stroke: #f0f0f0; stroke-width: 3; stroke-linejoin: miter; stroke-linecap: square"/>
   </g>
   <g id="patch_16">
    <path d="M 1044.111875 183.397982 
L 1044.111875 8.437982 
" style="fill: none; stroke: #f0f0f0; stroke-width: 3; stroke-linejoin: miter; stroke-linecap: square"/>
   </g>
   <g id="patch_17">
    <path d="M 749.335404 183.397982 
L 1044.111875 183.397982 
" style="fill: none; stroke: #f0f0f0; stroke-width: 3; stroke-linejoin: miter; stroke-linecap: square"/>
   </g>
   <g id="patch_18">
    <path d="M 749.335404 8.437982 
L 1044.111875 8.437982 
" style="fill: none; stroke: #f0f0f0; stroke-width: 3; stroke-linejoin: miter; stroke-linecap: square"/>
   </g>
   <g id="legend_3">
    <g id="patch_19">
     <path d="M 957.362187 40.187357 
L 1034.311875 40.187357 
Q 1037.111875 40.187357 1037.111875 37.387357 
L 1037.111875 18.237982 
Q 1037.111875 15.437982 1034.311875 15.437982 
L 957.362187 15.437982 
Q 954.562187 15.437982 954.562187 18.237982 
L 954.562187 37.387357 
Q 954.562187 40.187357 957.362187 40.187357 
z
" style="fill: #f0f0f0; opacity: 0.8; stroke: #cccccc; stroke-width: 0.5; stroke-linejoin: miter"/>
    </g>
    <g id="line2d_75">
     <path d="M 960.162187 26.775795 
L 974.162187 26.775795 
L 988.162187 26.775795 
" style="fill: none; stroke: #008fd5; stroke-width: 4"/>
    </g>
    <g id="text_37">
     <!-- sync -->
     <g transform="translate(999.362187 31.675795) scale(0.14 -0.14)">
      <defs>
       <path id="DejaVuSans-73" d="M 2834 3397 
L 2834 2853 
Q 2591 2978 2328 3040 
Q 2066 3103 1784 3103 
Q 1356 3103 1142 2972 
Q 928 2841 928 2578 
Q 928 2378 1081 2264 
Q 1234 2150 1697 2047 
L 1894 2003 
Q 2506 1872 2764 1633 
Q 3022 1394 3022 966 
Q 3022 478 2636 193 
Q 2250 -91 1575 -91 
Q 1294 -91 989 -36 
Q 684 19 347 128 
L 347 722 
Q 666 556 975 473 
Q 1284 391 1588 391 
Q 1994 391 2212 530 
Q 2431 669 2431 922 
Q 2431 1156 2273 1281 
Q 2116 1406 1581 1522 
L 1381 1569 
Q 847 1681 609 1914 
Q 372 2147 372 2553 
Q 372 3047 722 3315 
Q 1072 3584 1716 3584 
Q 2034 3584 2315 3537 
Q 2597 3491 2834 3397 
z
" transform="scale(0.015625)"/>
       <path id="DejaVuSans-6e" d="M 3513 2113 
L 3513 0 
L 2938 0 
L 2938 2094 
Q 2938 2591 2744 2837 
Q 2550 3084 2163 3084 
Q 1697 3084 1428 2787 
Q 1159 2491 1159 1978 
L 1159 0 
L 581 0 
L 581 3500 
L 1159 3500 
L 1159 2956 
Q 1366 3272 1645 3428 
Q 1925 3584 2291 3584 
Q 2894 3584 3203 3211 
Q 3513 2838 3513 2113 
z
" transform="scale(0.015625)"/>
      </defs>
      <use xlink:href="#DejaVuSans-73"/>
      <use xlink:href="#DejaVuSans-79" x="52.099609"/>
      <use xlink:href="#DejaVuSans-6e" x="111.279297"/>
      <use xlink:href="#DejaVuSans-63" x="174.658203"/>
     </g>
    </g>
   </g>
  </g>
 </g>
 <defs>
  <clipPath id="p69866401fa">
   <rect x="41.871875" y="8.437982" width="294.776471" height="174.96"/>
  </clipPath>
  <clipPath id="p504fe55b52">
   <rect x="395.60364" y="8.437982" width="294.776471" height="174.96"/>
  </clipPath>
  <clipPath id="pb963b17b21">
   <rect x="749.335404" y="8.437982" width="294.776471" height="174.96"/>
  </clipPath>
 </defs>
</svg>
