<?xml version="1.0" encoding="utf-8" standalone="no"?>
<!DOCTYPE svg PUBLIC "-//W3C//DTD SVG 1.1//EN"
  "http://www.w3.org/Graphics/SVG/1.1/DTD/svg11.dtd">
<svg xmlns:xlink="http://www.w3.org/1999/xlink" width="800.751875pt" height="206.409375pt" viewBox="0 0 800.751875 206.409375" xmlns="http://www.w3.org/2000/svg" version="1.1">
 <metadata>
  <rdf:RDF xmlns:dc="http://purl.org/dc/elements/1.1/" xmlns:cc="http://creativecommons.org/ns#" xmlns:rdf="http://www.w3.org/1999/02/22-rdf-syntax-ns#">
   <cc:Work>
    <dc:type rdf:resource="http://purl.org/dc/dcmitype/StillImage"/>
    <dc:date>2023-01-19T14:53:08.305987</dc:date>
    <dc:format>image/svg+xml</dc:format>
    <dc:creator>
     <cc:Agent>
      <dc:title>Matplotlib v3.6.0, https://matplotlib.org/</dc:title>
     </cc:Agent>
    </dc:creator>
   </cc:Work>
  </rdf:RDF>
 </metadata>
 <defs>
  <style type="text/css">*{stroke-linejoin: round; stroke-linecap: butt}</style>
 </defs>
 <g id="figure_1">
  <g id="patch_1">
   <path d="M 0 206.409375 
L 800.751875 206.409375 
L 800.751875 0 
L 0 0 
L 0 206.409375 
z
" style="fill: none"/>
  </g>
  <g id="axes_1">
   <g id="patch_2">
    <path d="M 41.871875 182.16 
L 383.544602 182.16 
L 383.544602 7.2 
L 41.871875 7.2 
L 41.871875 182.16 
z
" style="fill: none"/>
   </g>
   <g id="matplotlib.axis_1">
    <g id="xtick_1">
     <g id="line2d_1">
      <path d="M 57.402454 182.16 
L 57.402454 7.2 
" clip-path="url(#p56e206147b)" style="fill: none; stroke: #cbcbcb"/>
     </g>
     <g id="line2d_2"/>
     <g id="text_1">
      <!-- 0 -->
      <g transform="translate(52.948704 196.297813) scale(0.14 -0.14)">
       <defs>
        <path id="DejaVuSans-30" d="M 2034 4250 
Q 1547 4250 1301 3770 
Q 1056 3291 1056 2328 
Q 1056 1369 1301 889 
Q 1547 409 2034 409 
Q 2525 409 2770 889 
Q 3016 1369 3016 2328 
Q 3016 3291 2770 3770 
Q 2525 4250 2034 4250 
z
M 2034 4750 
Q 2819 4750 3233 4129 
Q 3647 3509 3647 2328 
Q 3647 1150 3233 529 
Q 2819 -91 2034 -91 
Q 1250 -91 836 529 
Q 422 1150 422 2328 
Q 422 3509 836 4129 
Q 1250 4750 2034 4750 
z
" transform="scale(0.015625)"/>
       </defs>
       <use xlink:href="#DejaVuSans-30"/>
      </g>
     </g>
    </g>
    <g id="xtick_2">
     <g id="line2d_3">
      <path d="M 118.187497 182.16 
L 118.187497 7.2 
" clip-path="url(#p56e206147b)" style="fill: none; stroke: #cbcbcb"/>
     </g>
     <g id="line2d_4"/>
     <g id="text_2">
      <!-- 100 -->
      <g transform="translate(104.826247 196.297813) scale(0.14 -0.14)">
       <defs>
        <path id="DejaVuSans-31" d="M 794 531 
L 1825 531 
L 1825 4091 
L 703 3866 
L 703 4441 
L 1819 4666 
L 2450 4666 
L 2450 531 
L 3481 531 
L 3481 0 
L 794 0 
L 794 531 
z
" transform="scale(0.015625)"/>
       </defs>
       <use xlink:href="#DejaVuSans-31"/>
       <use xlink:href="#DejaVuSans-30" x="63.623047"/>
       <use xlink:href="#DejaVuSans-30" x="127.246094"/>
      </g>
     </g>
    </g>
    <g id="xtick_3">
     <g id="line2d_5">
      <path d="M 178.97254 182.16 
L 178.97254 7.2 
" clip-path="url(#p56e206147b)" style="fill: none; stroke: #cbcbcb"/>
     </g>
     <g id="line2d_6"/>
     <g id="text_3">
      <!-- 200 -->
      <g transform="translate(165.61129 196.297813) scale(0.14 -0.14)">
       <defs>
        <path id="DejaVuSans-32" d="M 1228 531 
L 3431 531 
L 3431 0 
L 469 0 
L 469 531 
Q 828 903 1448 1529 
Q 2069 2156 2228 2338 
Q 2531 2678 2651 2914 
Q 2772 3150 2772 3378 
Q 2772 3750 2511 3984 
Q 2250 4219 1831 4219 
Q 1534 4219 1204 4116 
Q 875 4013 500 3803 
L 500 4441 
Q 881 4594 1212 4672 
Q 1544 4750 1819 4750 
Q 2544 4750 2975 4387 
Q 3406 4025 3406 3419 
Q 3406 3131 3298 2873 
Q 3191 2616 2906 2266 
Q 2828 2175 2409 1742 
Q 1991 1309 1228 531 
z
" transform="scale(0.015625)"/>
       </defs>
       <use xlink:href="#DejaVuSans-32"/>
       <use xlink:href="#DejaVuSans-30" x="63.623047"/>
       <use xlink:href="#DejaVuSans-30" x="127.246094"/>
      </g>
     </g>
    </g>
    <g id="xtick_4">
     <g id="line2d_7">
      <path d="M 239.757583 182.16 
L 239.757583 7.2 
" clip-path="url(#p56e206147b)" style="fill: none; stroke: #cbcbcb"/>
     </g>
     <g id="line2d_8"/>
     <g id="text_4">
      <!-- 300 -->
      <g transform="translate(226.396333 196.297813) scale(0.14 -0.14)">
       <defs>
        <path id="DejaVuSans-33" d="M 2597 2516 
Q 3050 2419 3304 2112 
Q 3559 1806 3559 1356 
Q 3559 666 3084 287 
Q 2609 -91 1734 -91 
Q 1441 -91 1130 -33 
Q 819 25 488 141 
L 488 750 
Q 750 597 1062 519 
Q 1375 441 1716 441 
Q 2309 441 2620 675 
Q 2931 909 2931 1356 
Q 2931 1769 2642 2001 
Q 2353 2234 1838 2234 
L 1294 2234 
L 1294 2753 
L 1863 2753 
Q 2328 2753 2575 2939 
Q 2822 3125 2822 3475 
Q 2822 3834 2567 4026 
Q 2313 4219 1838 4219 
Q 1578 4219 1281 4162 
Q 984 4106 628 3988 
L 628 4550 
Q 988 4650 1302 4700 
Q 1616 4750 1894 4750 
Q 2613 4750 3031 4423 
Q 3450 4097 3450 3541 
Q 3450 3153 3228 2886 
Q 3006 2619 2597 2516 
z
" transform="scale(0.015625)"/>
       </defs>
       <use xlink:href="#DejaVuSans-33"/>
       <use xlink:href="#DejaVuSans-30" x="63.623047"/>
       <use xlink:href="#DejaVuSans-30" x="127.246094"/>
      </g>
     </g>
    </g>
    <g id="xtick_5">
     <g id="line2d_9">
      <path d="M 300.542626 182.16 
L 300.542626 7.2 
" clip-path="url(#p56e206147b)" style="fill: none; stroke: #cbcbcb"/>
     </g>
     <g id="line2d_10"/>
     <g id="text_5">
      <!-- 400 -->
      <g transform="translate(287.181376 196.297813) scale(0.14 -0.14)">
       <defs>
        <path id="DejaVuSans-34" d="M 2419 4116 
L 825 1625 
L 2419 1625 
L 2419 4116 
z
M 2253 4666 
L 3047 4666 
L 3047 1625 
L 3713 1625 
L 3713 1100 
L 3047 1100 
L 3047 0 
L 2419 0 
L 2419 1100 
L 313 1100 
L 313 1709 
L 2253 4666 
z
" transform="scale(0.015625)"/>
       </defs>
       <use xlink:href="#DejaVuSans-34"/>
       <use xlink:href="#DejaVuSans-30" x="63.623047"/>
       <use xlink:href="#DejaVuSans-30" x="127.246094"/>
      </g>
     </g>
    </g>
    <g id="xtick_6">
     <g id="line2d_11">
      <path d="M 361.327669 182.16 
L 361.327669 7.2 
" clip-path="url(#p56e206147b)" style="fill: none; stroke: #cbcbcb"/>
     </g>
     <g id="line2d_12"/>
     <g id="text_6">
      <!-- 500 -->
      <g transform="translate(347.966419 196.297813) scale(0.14 -0.14)">
       <defs>
        <path id="DejaVuSans-35" d="M 691 4666 
L 3169 4666 
L 3169 4134 
L 1269 4134 
L 1269 2991 
Q 1406 3038 1543 3061 
Q 1681 3084 1819 3084 
Q 2600 3084 3056 2656 
Q 3513 2228 3513 1497 
Q 3513 744 3044 326 
Q 2575 -91 1722 -91 
Q 1428 -91 1123 -41 
Q 819 9 494 109 
L 494 744 
Q 775 591 1075 516 
Q 1375 441 1709 441 
Q 2250 441 2565 725 
Q 2881 1009 2881 1497 
Q 2881 1984 2565 2268 
Q 2250 2553 1709 2553 
Q 1456 2553 1204 2497 
Q 953 2441 691 2322 
L 691 4666 
z
" transform="scale(0.015625)"/>
       </defs>
       <use xlink:href="#DejaVuSans-35"/>
       <use xlink:href="#DejaVuSans-30" x="63.623047"/>
       <use xlink:href="#DejaVuSans-30" x="127.246094"/>
      </g>
     </g>
    </g>
   </g>
   <g id="matplotlib.axis_2">
    <g id="ytick_1">
     <g id="line2d_13">
      <path d="M 41.871875 174.207273 
L 383.544602 174.207273 
" clip-path="url(#p56e206147b)" style="fill: none; stroke: #cbcbcb"/>
     </g>
     <g id="line2d_14"/>
     <g id="text_7">
      <!-- 0.00 -->
      <g transform="translate(7.2 179.526179) scale(0.14 -0.14)">
       <defs>
        <path id="DejaVuSans-2e" d="M 684 794 
L 1344 794 
L 1344 0 
L 684 0 
L 684 794 
z
" transform="scale(0.015625)"/>
       </defs>
       <use xlink:href="#DejaVuSans-30"/>
       <use xlink:href="#DejaVuSans-2e" x="63.623047"/>
       <use xlink:href="#DejaVuSans-30" x="95.410156"/>
       <use xlink:href="#DejaVuSans-30" x="159.033203"/>
      </g>
     </g>
    </g>
    <g id="ytick_2">
     <g id="line2d_15">
      <path d="M 41.871875 137.124843 
L 383.544602 137.124843 
" clip-path="url(#p56e206147b)" style="fill: none; stroke: #cbcbcb"/>
     </g>
     <g id="line2d_16"/>
     <g id="text_8">
      <!-- 0.02 -->
      <g transform="translate(7.2 142.443749) scale(0.14 -0.14)">
       <use xlink:href="#DejaVuSans-30"/>
       <use xlink:href="#DejaVuSans-2e" x="63.623047"/>
       <use xlink:href="#DejaVuSans-30" x="95.410156"/>
       <use xlink:href="#DejaVuSans-32" x="159.033203"/>
      </g>
     </g>
    </g>
    <g id="ytick_3">
     <g id="line2d_17">
      <path d="M 41.871875 100.042412 
L 383.544602 100.042412 
" clip-path="url(#p56e206147b)" style="fill: none; stroke: #cbcbcb"/>
     </g>
     <g id="line2d_18"/>
     <g id="text_9">
      <!-- 0.04 -->
      <g transform="translate(7.2 105.361319) scale(0.14 -0.14)">
       <use xlink:href="#DejaVuSans-30"/>
       <use xlink:href="#DejaVuSans-2e" x="63.623047"/>
       <use xlink:href="#DejaVuSans-30" x="95.410156"/>
       <use xlink:href="#DejaVuSans-34" x="159.033203"/>
      </g>
     </g>
    </g>
    <g id="ytick_4">
     <g id="line2d_19">
      <path d="M 41.871875 62.959982 
L 383.544602 62.959982 
" clip-path="url(#p56e206147b)" style="fill: none; stroke: #cbcbcb"/>
     </g>
     <g id="line2d_20"/>
     <g id="text_10">
      <!-- 0.06 -->
      <g transform="translate(7.2 68.278889) scale(0.14 -0.14)">
       <defs>
        <path id="DejaVuSans-36" d="M 2113 2584 
Q 1688 2584 1439 2293 
Q 1191 2003 1191 1497 
Q 1191 994 1439 701 
Q 1688 409 2113 409 
Q 2538 409 2786 701 
Q 3034 994 3034 1497 
Q 3034 2003 2786 2293 
Q 2538 2584 2113 2584 
z
M 3366 4563 
L 3366 3988 
Q 3128 4100 2886 4159 
Q 2644 4219 2406 4219 
Q 1781 4219 1451 3797 
Q 1122 3375 1075 2522 
Q 1259 2794 1537 2939 
Q 1816 3084 2150 3084 
Q 2853 3084 3261 2657 
Q 3669 2231 3669 1497 
Q 3669 778 3244 343 
Q 2819 -91 2113 -91 
Q 1303 -91 875 529 
Q 447 1150 447 2328 
Q 447 3434 972 4092 
Q 1497 4750 2381 4750 
Q 2619 4750 2861 4703 
Q 3103 4656 3366 4563 
z
" transform="scale(0.015625)"/>
       </defs>
       <use xlink:href="#DejaVuSans-30"/>
       <use xlink:href="#DejaVuSans-2e" x="63.623047"/>
       <use xlink:href="#DejaVuSans-30" x="95.410156"/>
       <use xlink:href="#DejaVuSans-36" x="159.033203"/>
      </g>
     </g>
    </g>
    <g id="ytick_5">
     <g id="line2d_21">
      <path d="M 41.871875 25.877552 
L 383.544602 25.877552 
" clip-path="url(#p56e206147b)" style="fill: none; stroke: #cbcbcb"/>
     </g>
     <g id="line2d_22"/>
     <g id="text_11">
      <!-- 0.08 -->
      <g transform="translate(7.2 31.196458) scale(0.14 -0.14)">
       <defs>
        <path id="DejaVuSans-38" d="M 2034 2216 
Q 1584 2216 1326 1975 
Q 1069 1734 1069 1313 
Q 1069 891 1326 650 
Q 1584 409 2034 409 
Q 2484 409 2743 651 
Q 3003 894 3003 1313 
Q 3003 1734 2745 1975 
Q 2488 2216 2034 2216 
z
M 1403 2484 
Q 997 2584 770 2862 
Q 544 3141 544 3541 
Q 544 4100 942 4425 
Q 1341 4750 2034 4750 
Q 2731 4750 3128 4425 
Q 3525 4100 3525 3541 
Q 3525 3141 3298 2862 
Q 3072 2584 2669 2484 
Q 3125 2378 3379 2068 
Q 3634 1759 3634 1313 
Q 3634 634 3220 271 
Q 2806 -91 2034 -91 
Q 1263 -91 848 271 
Q 434 634 434 1313 
Q 434 1759 690 2068 
Q 947 2378 1403 2484 
z
M 1172 3481 
Q 1172 3119 1398 2916 
Q 1625 2713 2034 2713 
Q 2441 2713 2670 2916 
Q 2900 3119 2900 3481 
Q 2900 3844 2670 4047 
Q 2441 4250 2034 4250 
Q 1625 4250 1398 4047 
Q 1172 3844 1172 3481 
z
" transform="scale(0.015625)"/>
       </defs>
       <use xlink:href="#DejaVuSans-30"/>
       <use xlink:href="#DejaVuSans-2e" x="63.623047"/>
       <use xlink:href="#DejaVuSans-30" x="95.410156"/>
       <use xlink:href="#DejaVuSans-38" x="159.033203"/>
      </g>
     </g>
    </g>
   </g>
   <g id="line2d_23">
    <path d="M 57.402454 15.152727 
L 212.404313 15.152727 
L 213.012164 174.207273 
L 368.014024 174.207273 
L 368.014024 174.207273 
" clip-path="url(#p56e206147b)" style="fill: none; stroke: #008fd5; stroke-width: 4"/>
   </g>
   <g id="patch_3">
    <path d="M 41.871875 182.16 
L 41.871875 7.2 
" style="fill: none; stroke: #f0f0f0; stroke-width: 3; stroke-linejoin: miter; stroke-linecap: square"/>
   </g>
   <g id="patch_4">
    <path d="M 383.544602 182.16 
L 383.544602 7.2 
" style="fill: none; stroke: #f0f0f0; stroke-width: 3; stroke-linejoin: miter; stroke-linecap: square"/>
   </g>
   <g id="patch_5">
    <path d="M 41.871875 182.16 
L 383.544602 182.16 
" style="fill: none; stroke: #f0f0f0; stroke-width: 3; stroke-linejoin: miter; stroke-linecap: square"/>
   </g>
   <g id="patch_6">
    <path d="M 41.871875 7.2 
L 383.544602 7.2 
" style="fill: none; stroke: #f0f0f0; stroke-width: 3; stroke-linejoin: miter; stroke-linecap: square"/>
   </g>
   <g id="legend_1">
    <g id="patch_7">
     <path d="M 265.778352 38.949375 
L 373.744602 38.949375 
Q 376.544602 38.949375 376.544602 36.149375 
L 376.544602 17 
Q 376.544602 14.2 373.744602 14.2 
L 265.778352 14.2 
Q 262.978352 14.2 262.978352 17 
L 262.978352 36.149375 
Q 262.978352 38.949375 265.778352 38.949375 
z
" style="fill: #f0f0f0; opacity: 0.8; stroke: #cccccc; stroke-width: 0.5; stroke-linejoin: miter"/>
    </g>
    <g id="line2d_24">
     <path d="M 268.578352 25.537813 
L 282.578352 25.537813 
L 296.578352 25.537813 
" style="fill: none; stroke: #008fd5; stroke-width: 4"/>
    </g>
    <g id="text_12">
     <!-- accuracy -->
     <g transform="translate(307.778352 30.437813) scale(0.14 -0.14)">
      <defs>
       <path id="DejaVuSans-61" d="M 2194 1759 
Q 1497 1759 1228 1600 
Q 959 1441 959 1056 
Q 959 750 1161 570 
Q 1363 391 1709 391 
Q 2188 391 2477 730 
Q 2766 1069 2766 1631 
L 2766 1759 
L 2194 1759 
z
M 3341 1997 
L 3341 0 
L 2766 0 
L 2766 531 
Q 2569 213 2275 61 
Q 1981 -91 1556 -91 
Q 1019 -91 701 211 
Q 384 513 384 1019 
Q 384 1609 779 1909 
Q 1175 2209 1959 2209 
L 2766 2209 
L 2766 2266 
Q 2766 2663 2505 2880 
Q 2244 3097 1772 3097 
Q 1472 3097 1187 3025 
Q 903 2953 641 2809 
L 641 3341 
Q 956 3463 1253 3523 
Q 1550 3584 1831 3584 
Q 2591 3584 2966 3190 
Q 3341 2797 3341 1997 
z
" transform="scale(0.015625)"/>
       <path id="DejaVuSans-63" d="M 3122 3366 
L 3122 2828 
Q 2878 2963 2633 3030 
Q 2388 3097 2138 3097 
Q 1578 3097 1268 2742 
Q 959 2388 959 1747 
Q 959 1106 1268 751 
Q 1578 397 2138 397 
Q 2388 397 2633 464 
Q 2878 531 3122 666 
L 3122 134 
Q 2881 22 2623 -34 
Q 2366 -91 2075 -91 
Q 1284 -91 818 406 
Q 353 903 353 1747 
Q 353 2603 823 3093 
Q 1294 3584 2113 3584 
Q 2378 3584 2631 3529 
Q 2884 3475 3122 3366 
z
" transform="scale(0.015625)"/>
       <path id="DejaVuSans-75" d="M 544 1381 
L 544 3500 
L 1119 3500 
L 1119 1403 
Q 1119 906 1312 657 
Q 1506 409 1894 409 
Q 2359 409 2629 706 
Q 2900 1003 2900 1516 
L 2900 3500 
L 3475 3500 
L 3475 0 
L 2900 0 
L 2900 538 
Q 2691 219 2414 64 
Q 2138 -91 1772 -91 
Q 1169 -91 856 284 
Q 544 659 544 1381 
z
M 1991 3584 
L 1991 3584 
z
" transform="scale(0.015625)"/>
       <path id="DejaVuSans-72" d="M 2631 2963 
Q 2534 3019 2420 3045 
Q 2306 3072 2169 3072 
Q 1681 3072 1420 2755 
Q 1159 2438 1159 1844 
L 1159 0 
L 581 0 
L 581 3500 
L 1159 3500 
L 1159 2956 
Q 1341 3275 1631 3429 
Q 1922 3584 2338 3584 
Q 2397 3584 2469 3576 
Q 2541 3569 2628 3553 
L 2631 2963 
z
" transform="scale(0.015625)"/>
       <path id="DejaVuSans-79" d="M 2059 -325 
Q 1816 -950 1584 -1140 
Q 1353 -1331 966 -1331 
L 506 -1331 
L 506 -850 
L 844 -850 
Q 1081 -850 1212 -737 
Q 1344 -625 1503 -206 
L 1606 56 
L 191 3500 
L 800 3500 
L 1894 763 
L 2988 3500 
L 3597 3500 
L 2059 -325 
z
" transform="scale(0.015625)"/>
      </defs>
      <use xlink:href="#DejaVuSans-61"/>
      <use xlink:href="#DejaVuSans-63" x="61.279297"/>
      <use xlink:href="#DejaVuSans-63" x="116.259766"/>
      <use xlink:href="#DejaVuSans-75" x="171.240234"/>
      <use xlink:href="#DejaVuSans-72" x="234.619141"/>
      <use xlink:href="#DejaVuSans-61" x="275.732422"/>
      <use xlink:href="#DejaVuSans-63" x="337.011719"/>
      <use xlink:href="#DejaVuSans-79" x="391.992188"/>
     </g>
    </g>
   </g>
  </g>
  <g id="axes_2">
   <g id="patch_8">
    <path d="M 451.879148 182.16 
L 793.551875 182.16 
L 793.551875 7.2 
L 451.879148 7.2 
L 451.879148 182.16 
z
" style="fill: none"/>
   </g>
   <g id="matplotlib.axis_3">
    <g id="xtick_7">
     <g id="line2d_25">
      <path d="M 467.409726 182.16 
L 467.409726 7.2 
" clip-path="url(#pcfa2ec02ee)" style="fill: none; stroke: #cbcbcb"/>
     </g>
     <g id="line2d_26"/>
     <g id="text_13">
      <!-- 0 -->
      <g transform="translate(462.955976 196.297813) scale(0.14 -0.14)">
       <use xlink:href="#DejaVuSans-30"/>
      </g>
     </g>
    </g>
    <g id="xtick_8">
     <g id="line2d_27">
      <path d="M 528.194769 182.16 
L 528.194769 7.2 
" clip-path="url(#pcfa2ec02ee)" style="fill: none; stroke: #cbcbcb"/>
     </g>
     <g id="line2d_28"/>
     <g id="text_14">
      <!-- 100 -->
      <g transform="translate(514.833519 196.297813) scale(0.14 -0.14)">
       <use xlink:href="#DejaVuSans-31"/>
       <use xlink:href="#DejaVuSans-30" x="63.623047"/>
       <use xlink:href="#DejaVuSans-30" x="127.246094"/>
      </g>
     </g>
    </g>
    <g id="xtick_9">
     <g id="line2d_29">
      <path d="M 588.979812 182.16 
L 588.979812 7.2 
" clip-path="url(#pcfa2ec02ee)" style="fill: none; stroke: #cbcbcb"/>
     </g>
     <g id="line2d_30"/>
     <g id="text_15">
      <!-- 200 -->
      <g transform="translate(575.618562 196.297813) scale(0.14 -0.14)">
       <use xlink:href="#DejaVuSans-32"/>
       <use xlink:href="#DejaVuSans-30" x="63.623047"/>
       <use xlink:href="#DejaVuSans-30" x="127.246094"/>
      </g>
     </g>
    </g>
    <g id="xtick_10">
     <g id="line2d_31">
      <path d="M 649.764856 182.16 
L 649.764856 7.2 
" clip-path="url(#pcfa2ec02ee)" style="fill: none; stroke: #cbcbcb"/>
     </g>
     <g id="line2d_32"/>
     <g id="text_16">
      <!-- 300 -->
      <g transform="translate(636.403606 196.297813) scale(0.14 -0.14)">
       <use xlink:href="#DejaVuSans-33"/>
       <use xlink:href="#DejaVuSans-30" x="63.623047"/>
       <use xlink:href="#DejaVuSans-30" x="127.246094"/>
      </g>
     </g>
    </g>
    <g id="xtick_11">
     <g id="line2d_33">
      <path d="M 710.549899 182.16 
L 710.549899 7.2 
" clip-path="url(#pcfa2ec02ee)" style="fill: none; stroke: #cbcbcb"/>
     </g>
     <g id="line2d_34"/>
     <g id="text_17">
      <!-- 400 -->
      <g transform="translate(697.188649 196.297813) scale(0.14 -0.14)">
       <use xlink:href="#DejaVuSans-34"/>
       <use xlink:href="#DejaVuSans-30" x="63.623047"/>
       <use xlink:href="#DejaVuSans-30" x="127.246094"/>
      </g>
     </g>
    </g>
    <g id="xtick_12">
     <g id="line2d_35">
      <path d="M 771.334942 182.16 
L 771.334942 7.2 
" clip-path="url(#pcfa2ec02ee)" style="fill: none; stroke: #cbcbcb"/>
     </g>
     <g id="line2d_36"/>
     <g id="text_18">
      <!-- 500 -->
      <g transform="translate(757.973692 196.297813) scale(0.14 -0.14)">
       <use xlink:href="#DejaVuSans-35"/>
       <use xlink:href="#DejaVuSans-30" x="63.623047"/>
       <use xlink:href="#DejaVuSans-30" x="127.246094"/>
      </g>
     </g>
    </g>
   </g>
   <g id="matplotlib.axis_4">
    <g id="ytick_6">
     <g id="line2d_37">
      <path d="M 451.879148 175.796864 
L 793.551875 175.796864 
" clip-path="url(#pcfa2ec02ee)" style="fill: none; stroke: #cbcbcb"/>
     </g>
     <g id="line2d_38"/>
     <g id="text_19">
      <!-- 0 -->
      <g transform="translate(439.471648 181.11577) scale(0.14 -0.14)">
       <use xlink:href="#DejaVuSans-30"/>
      </g>
     </g>
    </g>
    <g id="ytick_7">
     <g id="line2d_39">
      <path d="M 451.879148 144.293668 
L 793.551875 144.293668 
" clip-path="url(#pcfa2ec02ee)" style="fill: none; stroke: #cbcbcb"/>
     </g>
     <g id="line2d_40"/>
     <g id="text_20">
      <!-- 20 -->
      <g transform="translate(430.564148 149.612574) scale(0.14 -0.14)">
       <use xlink:href="#DejaVuSans-32"/>
       <use xlink:href="#DejaVuSans-30" x="63.623047"/>
      </g>
     </g>
    </g>
    <g id="ytick_8">
     <g id="line2d_41">
      <path d="M 451.879148 112.790473 
L 793.551875 112.790473 
" clip-path="url(#pcfa2ec02ee)" style="fill: none; stroke: #cbcbcb"/>
     </g>
     <g id="line2d_42"/>
     <g id="text_21">
      <!-- 40 -->
      <g transform="translate(430.564148 118.109379) scale(0.14 -0.14)">
       <use xlink:href="#DejaVuSans-34"/>
       <use xlink:href="#DejaVuSans-30" x="63.623047"/>
      </g>
     </g>
    </g>
    <g id="ytick_9">
     <g id="line2d_43">
      <path d="M 451.879148 81.287277 
L 793.551875 81.287277 
" clip-path="url(#pcfa2ec02ee)" style="fill: none; stroke: #cbcbcb"/>
     </g>
     <g id="line2d_44"/>
     <g id="text_22">
      <!-- 60 -->
      <g transform="translate(430.564148 86.606184) scale(0.14 -0.14)">
       <use xlink:href="#DejaVuSans-36"/>
       <use xlink:href="#DejaVuSans-30" x="63.623047"/>
      </g>
     </g>
    </g>
    <g id="ytick_10">
     <g id="line2d_45">
      <path d="M 451.879148 49.784082 
L 793.551875 49.784082 
" clip-path="url(#pcfa2ec02ee)" style="fill: none; stroke: #cbcbcb"/>
     </g>
     <g id="line2d_46"/>
     <g id="text_23">
      <!-- 80 -->
      <g transform="translate(430.564148 55.102988) scale(0.14 -0.14)">
       <use xlink:href="#DejaVuSans-38"/>
       <use xlink:href="#DejaVuSans-30" x="63.623047"/>
      </g>
     </g>
    </g>
    <g id="ytick_11">
     <g id="line2d_47">
      <path d="M 451.879148 18.280887 
L 793.551875 18.280887 
" clip-path="url(#pcfa2ec02ee)" style="fill: none; stroke: #cbcbcb"/>
     </g>
     <g id="line2d_48"/>
     <g id="text_24">
      <!-- 100 -->
      <g transform="translate(421.656648 23.599793) scale(0.14 -0.14)">
       <use xlink:href="#DejaVuSans-31"/>
       <use xlink:href="#DejaVuSans-30" x="63.623047"/>
       <use xlink:href="#DejaVuSans-30" x="127.246094"/>
      </g>
     </g>
    </g>
   </g>
   <g id="line2d_49">
    <path d="M 467.409726 21.840414 
L 468.017577 75.362576 
L 468.625427 58.299261 
L 469.233278 99.08711 
L 469.841128 110.202056 
L 470.448978 53.071882 
L 471.056829 122.044008 
L 471.664679 117.784532 
L 472.27253 118.263802 
L 472.88038 108.570775 
L 473.488231 15.152727 
L 474.096081 47.024163 
L 474.703931 105.716248 
L 475.311782 142.581148 
L 475.919632 100.573401 
L 476.527483 141.627216 
L 477.135333 123.966161 
L 477.743184 121.213345 
L 478.351034 108.414024 
L 478.958884 142.011846 
L 480.174585 74.722686 
L 480.782436 103.261893 
L 481.390286 93.765634 
L 481.998137 113.725538 
L 482.605987 129.330164 
L 483.213837 153.939043 
L 483.821688 150.974836 
L 484.429538 148.595981 
L 485.037389 153.695684 
L 485.645239 146.674329 
L 486.25309 101.824688 
L 486.86094 126.545366 
L 487.46879 145.145461 
L 488.076641 151.284446 
L 488.684491 145.426049 
L 489.292342 159.127257 
L 489.900192 162.261922 
L 490.508043 156.50441 
L 491.115893 156.359788 
L 491.723743 154.865998 
L 492.331594 142.706659 
L 492.939444 127.74978 
L 493.547295 138.399125 
L 494.155145 136.992075 
L 494.762996 151.732036 
L 495.370846 150.357532 
L 495.978696 158.560218 
L 496.586547 154.422889 
L 497.194397 156.625924 
L 497.802248 141.199383 
L 498.410098 141.05198 
L 499.017949 114.814012 
L 499.625799 129.761124 
L 500.23365 128.062746 
L 500.8415 117.350134 
L 501.44935 135.284822 
L 502.057201 75.897644 
L 502.665051 110.473826 
L 503.272902 131.506464 
L 503.880752 131.65994 
L 504.488603 138.5337 
L 505.096453 141.331834 
L 505.704303 135.803952 
L 506.312154 150.809391 
L 506.920004 121.472665 
L 507.527855 135.890288 
L 508.135705 156.970603 
L 508.743556 156.355582 
L 509.351406 143.944845 
L 509.959256 142.471906 
L 510.567107 147.384111 
L 511.174957 142.692133 
L 511.782808 133.481281 
L 512.390658 149.771708 
L 512.998509 143.787253 
L 513.606359 119.605636 
L 514.214209 78.347553 
L 514.82206 49.555497 
L 515.42991 59.211883 
L 516.037761 123.721533 
L 516.645611 145.980254 
L 517.253462 158.295394 
L 517.861312 131.929162 
L 518.469162 150.952314 
L 519.077013 137.308572 
L 520.292714 161.314063 
L 520.900564 153.535107 
L 521.508415 163.021794 
L 522.116265 168.553088 
L 522.724115 158.855173 
L 523.331966 159.966409 
L 524.547667 140.743457 
L 525.155517 157.708639 
L 525.763368 156.284168 
L 526.371218 150.219102 
L 526.979068 162.417672 
L 527.586919 166.857524 
L 528.194769 166.771074 
L 528.80262 159.74985 
L 530.018321 140.957023 
L 530.626171 149.016858 
L 531.234021 139.702746 
L 531.841872 151.423381 
L 532.449722 138.043064 
L 533.057573 158.334645 
L 533.665423 160.090767 
L 534.273274 164.597539 
L 534.881124 162.783212 
L 535.488975 163.682831 
L 536.096825 163.578612 
L 536.704675 158.71123 
L 537.312526 139.181796 
L 537.920376 154.336492 
L 538.528227 151.720123 
L 539.136077 155.25117 
L 539.743928 154.68479 
L 540.351778 167.133088 
L 540.959628 168.540306 
L 541.567479 159.035943 
L 542.175329 157.005084 
L 542.78318 159.063207 
L 543.39103 146.219283 
L 543.998881 150.54938 
L 544.606731 131.370417 
L 545.822432 161.030597 
L 546.430282 165.782797 
L 547.038133 163.016283 
L 547.645983 163.277842 
L 548.253834 160.756828 
L 548.861684 157.713204 
L 549.469534 158.544325 
L 550.077385 162.110721 
L 550.685235 162.861583 
L 551.293086 133.377276 
L 551.900936 141.491715 
L 552.508787 154.599628 
L 553.116637 144.563864 
L 553.724487 151.085478 
L 554.332338 144.511858 
L 554.940188 149.488398 
L 555.548039 150.695864 
L 556.155889 159.540706 
L 556.76374 150.927738 
L 557.37159 154.752249 
L 557.97944 151.055155 
L 558.587291 160.621961 
L 559.195141 161.697398 
L 559.802992 158.010613 
L 560.410842 160.075839 
L 561.018693 163.67152 
L 561.626543 162.657884 
L 562.234393 165.370871 
L 562.842244 160.068972 
L 563.450094 165.235731 
L 564.057945 147.161023 
L 564.665795 139.452968 
L 565.273646 149.33492 
L 565.881496 130.375718 
L 566.489346 152.967567 
L 567.097197 155.493438 
L 567.705047 154.962878 
L 568.312898 158.691117 
L 568.920748 151.62234 
L 569.528599 160.629328 
L 570.136449 157.620983 
L 570.7443 152.640824 
L 571.96 144.405696 
L 572.567851 163.158037 
L 573.175701 144.585886 
L 573.783552 151.062508 
L 574.391402 155.739552 
L 574.999253 157.719567 
L 575.607103 118.539586 
L 576.214953 156.393026 
L 576.822804 163.18423 
L 577.430654 164.646448 
L 578.038505 164.939285 
L 578.646355 169.248988 
L 579.254206 162.868057 
L 579.862056 159.434049 
L 580.469906 161.236038 
L 581.077757 143.370399 
L 581.685607 158.06771 
L 582.901308 149.563304 
L 583.509159 139.041209 
L 584.117009 159.51014 
L 584.724859 164.996399 
L 585.33271 166.671143 
L 585.94056 165.609391 
L 586.548411 162.402532 
L 587.156261 164.497846 
L 587.764112 161.906055 
L 588.371962 138.974103 
L 588.979812 158.133586 
L 589.587663 162.280683 
L 590.195513 159.845009 
L 590.803364 166.573517 
L 591.411214 165.146086 
L 592.019065 166.826893 
L 593.234765 159.315657 
L 593.842616 158.481934 
L 594.450466 154.089956 
L 595.058317 157.264437 
L 595.666167 153.512426 
L 596.274018 139.272934 
L 596.881868 153.244727 
L 597.489718 162.281305 
L 598.097569 158.746243 
L 599.31327 146.778512 
L 599.92112 161.203666 
L 600.528971 156.644384 
L 601.136821 155.934724 
L 601.744671 157.235509 
L 602.352522 158.000287 
L 602.960372 148.886715 
L 603.568223 164.553522 
L 604.176073 137.345685 
L 605.391774 158.967909 
L 605.999625 151.490462 
L 606.607475 155.476421 
L 607.215325 146.595698 
L 607.823176 160.918887 
L 608.431026 151.416119 
L 609.038877 151.206257 
L 609.646727 162.25835 
L 610.254578 161.357392 
L 610.862428 150.075673 
L 611.470278 159.118556 
L 612.078129 159.665597 
L 612.685979 164.562202 
L 613.29383 156.567325 
L 613.90168 157.45753 
L 614.509531 159.759943 
L 615.117381 131.01471 
L 616.333082 121.088729 
L 616.940932 112.609381 
L 617.548783 125.234484 
L 618.156633 150.303775 
L 618.764484 156.029552 
L 619.372334 155.311795 
L 619.980184 157.789266 
L 620.588035 161.478149 
L 621.195885 153.033581 
L 621.803736 154.499893 
L 622.411586 163.804093 
L 623.019437 124.93791 
L 623.627287 125.76683 
L 624.235137 140.158462 
L 624.842988 130.498958 
L 625.450838 126.50536 
L 626.058689 112.420345 
L 626.666539 113.400187 
L 627.27439 117.335635 
L 627.88224 145.024273 
L 628.49009 147.063684 
L 629.097941 154.156744 
L 629.705791 156.126749 
L 630.313642 151.670309 
L 630.921492 133.914393 
L 631.529343 127.69102 
L 632.137193 145.9707 
L 632.745043 104.246807 
L 633.352894 127.871229 
L 633.960744 104.684965 
L 634.568595 133.77705 
L 635.176445 138.468415 
L 635.784296 148.838921 
L 636.392146 144.543062 
L 636.999996 146.809039 
L 637.607847 150.753326 
L 638.215697 148.170501 
L 638.823548 127.093897 
L 639.431398 132.054484 
L 640.039249 130.796307 
L 641.8628 163.21268 
L 642.47065 158.607328 
L 643.078501 152.787861 
L 643.686351 138.262297 
L 644.294202 143.706787 
L 644.902052 146.818308 
L 645.509903 140.881857 
L 646.117753 138.882298 
L 646.725603 124.899676 
L 647.333454 122.269979 
L 647.941304 153.746189 
L 648.549155 148.147818 
L 649.157005 146.424112 
L 649.764856 143.471346 
L 650.372706 145.635793 
L 650.980556 127.830922 
L 651.588407 132.940346 
L 652.196257 124.707059 
L 652.804108 131.988502 
L 653.411958 131.856688 
L 654.019809 138.0192 
L 654.627659 136.728477 
L 655.235509 121.344859 
L 655.84336 129.458929 
L 656.45121 148.596762 
L 657.059061 134.400967 
L 657.666911 127.443402 
L 658.274762 143.832499 
L 658.882612 113.570085 
L 659.490462 133.606423 
L 660.098313 138.307735 
L 660.706163 147.655547 
L 661.314014 125.912794 
L 661.921864 121.049414 
L 662.529715 142.714738 
L 663.137565 149.234724 
L 663.745415 147.793301 
L 664.353266 133.539248 
L 664.961116 135.76667 
L 665.568967 153.022328 
L 666.176817 138.356658 
L 666.784668 97.165065 
L 667.392518 71.439897 
L 668.000368 120.320059 
L 668.608219 122.0498 
L 669.216069 144.504434 
L 669.82392 129.856375 
L 670.43177 147.482218 
L 671.039621 137.046271 
L 671.647471 148.7834 
L 672.255321 136.968482 
L 672.863172 117.551139 
L 673.471022 142.871185 
L 674.078873 129.048513 
L 674.686723 136.318004 
L 675.294574 121.552185 
L 675.902424 141.96084 
L 676.510275 137.01627 
L 677.725975 111.978575 
L 678.333826 141.299084 
L 678.941676 149.340598 
L 679.549527 153.118959 
L 680.157377 165.668662 
L 681.373078 148.787336 
L 681.980928 128.326389 
L 682.588779 116.43297 
L 683.196629 110.420078 
L 683.80448 109.3815 
L 684.41233 109.855339 
L 685.020181 112.028983 
L 685.628031 124.888067 
L 686.235881 142.525017 
L 687.451582 141.608628 
L 688.059433 143.265861 
L 688.667283 148.50323 
L 689.275134 144.638243 
L 689.882984 123.15972 
L 690.490834 119.164461 
L 691.098685 125.018138 
L 691.706535 149.464742 
L 692.314386 157.490414 
L 692.922236 157.698538 
L 693.530087 156.670192 
L 694.137937 160.424757 
L 694.745787 152.560069 
L 695.353638 141.223611 
L 695.961488 149.624064 
L 696.569339 131.916309 
L 697.177189 118.935978 
L 697.78504 129.166462 
L 698.39289 127.729455 
L 699.00074 148.794802 
L 699.608591 153.500141 
L 700.824292 129.524911 
L 701.432142 155.748163 
L 702.039993 143.315199 
L 702.647843 134.715174 
L 703.255693 132.422532 
L 703.863544 144.745683 
L 704.471394 140.843536 
L 705.079245 141.643701 
L 705.687095 134.643009 
L 706.294946 107.033104 
L 706.902796 124.313209 
L 707.510646 126.418524 
L 708.118497 132.135205 
L 708.726347 129.393268 
L 709.334198 122.335673 
L 709.942048 129.039445 
L 710.549899 121.690609 
L 711.157749 125.701641 
L 711.7656 145.879364 
L 712.37345 133.9774 
L 712.9813 131.056892 
L 714.197001 149.660048 
L 714.804852 142.210994 
L 715.412702 125.927792 
L 716.020553 130.074 
L 716.628403 137.2954 
L 717.236253 128.500424 
L 717.844104 127.118896 
L 718.451954 140.993977 
L 719.059805 147.059319 
L 719.667655 140.311328 
L 720.275506 129.992158 
L 720.883356 124.750352 
L 721.491206 139.626928 
L 722.099057 147.005676 
L 722.706907 139.792983 
L 723.314758 122.699521 
L 723.922608 140.51763 
L 724.530459 148.23493 
L 725.138309 145.019923 
L 725.746159 154.405629 
L 726.35401 156.604101 
L 726.96186 153.258165 
L 727.569711 143.402185 
L 728.177561 112.224238 
L 728.785412 98.939613 
L 729.393262 123.613129 
L 730.001112 105.211861 
L 730.608963 121.280505 
L 731.216813 143.932256 
L 731.824664 96.418891 
L 732.432514 106.558538 
L 733.040365 77.226361 
L 733.648215 36.810069 
L 734.256065 52.324501 
L 734.863916 52.615192 
L 735.471766 22.170488 
L 736.079617 45.000582 
L 736.687467 36.438367 
L 737.295318 67.902746 
L 737.903168 90.080331 
L 738.511018 97.237717 
L 739.118869 115.364661 
L 739.726719 114.184402 
L 740.33457 101.775056 
L 740.94242 76.701021 
L 741.550271 88.495738 
L 742.158121 89.796021 
L 742.765971 99.142187 
L 743.373822 97.288599 
L 743.981672 99.065569 
L 744.589523 109.348795 
L 745.805224 120.981221 
L 746.413074 138.230531 
L 747.628775 152.82112 
L 748.236625 154.430169 
L 749.452326 159.512445 
L 750.060177 144.501097 
L 750.668027 140.707461 
L 751.275878 149.720934 
L 751.883728 156.133754 
L 752.491578 161.207433 
L 753.099429 161.39248 
L 753.707279 160.495047 
L 754.31513 152.697335 
L 754.92298 158.795099 
L 755.530831 159.832792 
L 756.138681 162.337804 
L 756.746531 167.803527 
L 757.354382 169.031844 
L 757.962232 161.159444 
L 758.570083 160.849571 
L 759.177933 165.355094 
L 759.785784 168.522042 
L 760.393634 165.593399 
L 761.001484 169.622009 
L 761.609335 167.370277 
L 762.825036 171.197076 
L 763.432886 169.96257 
L 764.040737 170.124411 
L 764.648587 170.705907 
L 765.256437 170.322876 
L 765.864288 172.496174 
L 766.472138 172.476705 
L 767.079989 171.287322 
L 767.687839 171.523247 
L 768.29569 173.302685 
L 769.51139 173.709366 
L 771.334942 174.053343 
L 773.766343 174.176441 
L 778.021296 174.207273 
L 778.021296 174.207273 
" clip-path="url(#pcfa2ec02ee)" style="fill: none; stroke: #008fd5; stroke-opacity: 0.25; stroke-width: 4"/>
   </g>
   <g id="line2d_50">
    <path d="M 467.409726 21.840414 
L 468.017577 24.516523 
L 468.625427 26.205657 
L 469.841128 33.867352 
L 470.448978 34.827575 
L 471.664679 43.118195 
L 472.88038 49.960247 
L 473.488231 48.21987 
L 474.096081 48.160083 
L 474.703931 51.037893 
L 475.311782 55.615065 
L 475.919632 57.862989 
L 476.527483 62.051201 
L 477.743184 67.950275 
L 478.351034 69.97346 
L 478.958884 73.575385 
L 479.566735 75.290333 
L 480.174585 75.261954 
L 480.782436 76.661952 
L 481.390286 77.517136 
L 481.998137 79.327557 
L 482.605987 81.827687 
L 483.821688 88.710334 
L 485.645239 97.397688 
L 486.25309 97.619039 
L 486.86094 99.065359 
L 489.292342 108.602375 
L 490.508043 113.546308 
L 491.723743 117.645934 
L 492.331594 118.89897 
L 492.939444 119.341509 
L 494.155145 121.129276 
L 497.194397 128.673915 
L 498.410098 129.88778 
L 499.017949 129.134089 
L 500.23365 129.11031 
L 500.8415 128.522302 
L 501.44935 128.860427 
L 502.057201 126.212289 
L 502.665051 125.425364 
L 503.880752 126.025948 
L 505.704303 127.806292 
L 506.312154 128.956446 
L 506.920004 128.582257 
L 507.527855 128.947659 
L 508.743556 131.649145 
L 511.174957 133.964187 
L 511.782808 133.940041 
L 512.390658 134.731626 
L 512.998509 135.184407 
L 513.606359 134.40547 
L 514.214209 131.602574 
L 515.42991 124.085808 
L 516.037761 124.067595 
L 516.645611 125.163226 
L 517.253462 126.819834 
L 517.861312 127.0753 
L 518.469162 128.269153 
L 519.077013 128.721122 
L 519.684863 129.722572 
L 520.292714 131.302148 
L 520.900564 132.413795 
L 522.724115 136.833666 
L 523.331966 137.990304 
L 523.939816 138.59313 
L 524.547667 138.700647 
L 525.763368 140.482701 
L 526.371218 140.969521 
L 527.586919 143.282707 
L 528.194769 144.457124 
L 528.80262 145.221763 
L 529.41047 145.514056 
L 530.018321 145.286204 
L 530.626171 145.472737 
L 531.234021 145.184238 
L 531.841872 145.496195 
L 532.449722 145.123538 
L 533.665423 146.499426 
L 534.881124 148.173277 
L 536.096825 149.680246 
L 536.704675 150.131795 
L 537.312526 149.584295 
L 537.920376 149.821906 
L 538.528227 149.916817 
L 539.743928 150.408598 
L 540.959628 152.109596 
L 542.175329 152.683372 
L 542.78318 153.002364 
L 543.39103 152.66321 
L 543.998881 152.557519 
L 544.606731 151.498164 
L 545.214581 151.278024 
L 545.822432 151.765655 
L 546.430282 152.466512 
L 547.645983 153.508193 
L 548.253834 153.870624 
L 549.469534 154.286835 
L 550.685235 155.087206 
L 551.293086 154.00171 
L 551.900936 153.37621 
L 552.508787 153.437381 
L 553.116637 152.993705 
L 553.724487 152.898295 
L 554.332338 152.478972 
L 555.548039 152.247764 
L 556.155889 152.612412 
L 556.76374 152.528178 
L 557.37159 152.639382 
L 557.97944 152.56017 
L 559.195141 153.399968 
L 560.410842 153.952767 
L 562.234393 155.375724 
L 562.842244 155.610387 
L 563.450094 156.091654 
L 564.057945 155.645122 
L 564.665795 154.835514 
L 565.273646 154.560484 
L 565.881496 153.351246 
L 566.489346 153.332063 
L 567.705047 153.516269 
L 568.312898 153.77501 
L 568.920748 153.667377 
L 569.528599 154.015475 
L 570.136449 154.195749 
L 570.7443 154.118004 
L 571.35215 153.842284 
L 571.96 153.370456 
L 572.567851 153.859836 
L 573.175701 153.396138 
L 573.783552 153.279457 
L 574.999253 153.618317 
L 575.607103 151.864381 
L 576.214953 152.090814 
L 578.038505 153.830222 
L 578.646355 154.60116 
L 579.254206 155.014506 
L 580.469906 155.535513 
L 581.077757 154.927257 
L 581.685607 155.084281 
L 582.293458 155.029467 
L 582.901308 154.756159 
L 583.509159 153.970412 
L 584.117009 154.247398 
L 585.94056 155.890676 
L 587.764112 156.894134 
L 588.371962 155.998133 
L 588.979812 156.104906 
L 589.587663 156.413694 
L 590.195513 156.585261 
L 592.019065 157.954705 
L 592.626915 158.197884 
L 593.842616 158.265182 
L 594.450466 158.056421 
L 595.058317 158.016822 
L 595.666167 157.791602 
L 596.274018 156.865669 
L 596.881868 156.684622 
L 597.489718 156.964456 
L 598.097569 157.053545 
L 598.705419 156.829571 
L 599.31327 156.327018 
L 599.92112 156.570851 
L 602.352522 156.648341 
L 602.960372 156.260259 
L 603.568223 156.674922 
L 604.176073 155.70846 
L 604.783924 155.354663 
L 605.391774 155.535325 
L 605.999625 155.333081 
L 606.607475 155.340248 
L 607.215325 154.903022 
L 607.823176 155.203815 
L 609.038877 154.824022 
L 610.254578 155.503821 
L 610.862428 155.232415 
L 612.078129 155.638667 
L 612.685979 156.084844 
L 613.90168 156.176398 
L 614.509531 156.355575 
L 615.725231 153.614276 
L 616.333082 151.987998 
L 616.940932 150.019068 
L 617.548783 148.77984 
L 618.156633 148.856037 
L 619.980184 149.933053 
L 620.588035 150.510308 
L 621.803736 150.829645 
L 622.411586 151.478368 
L 623.627287 148.93212 
L 624.235137 148.493435 
L 625.450838 146.539294 
L 626.666539 143.261691 
L 627.27439 141.965389 
L 628.49009 142.365602 
L 630.313642 144.016571 
L 630.921492 143.511463 
L 631.529343 142.720443 
L 632.137193 142.882956 
L 632.745043 140.95115 
L 633.352894 140.297156 
L 633.960744 138.516548 
L 634.568595 138.279575 
L 635.176445 138.289018 
L 635.784296 138.816514 
L 636.999996 139.488152 
L 637.607847 140.05141 
L 638.215697 140.457365 
L 638.823548 139.789191 
L 640.039249 138.97215 
L 640.647099 139.074837 
L 641.25495 139.623539 
L 641.8628 140.802995 
L 642.47065 141.69321 
L 643.078501 142.247945 
L 643.686351 142.048664 
L 644.294202 142.13157 
L 644.902052 142.365909 
L 646.117753 142.121238 
L 647.333454 140.310655 
L 647.941304 140.982431 
L 649.157005 141.594874 
L 650.372706 141.886052 
L 650.980556 141.183298 
L 651.588407 140.771151 
L 652.196257 139.967946 
L 653.411958 139.183358 
L 654.627659 139.005319 
L 655.235509 138.122296 
L 655.84336 137.689127 
L 656.45121 138.234509 
L 657.059061 138.042833 
L 657.666911 137.512863 
L 658.274762 137.828846 
L 658.882612 136.615909 
L 659.490462 136.465435 
L 660.098313 136.557552 
L 660.706163 137.112455 
L 661.314014 136.552475 
L 661.921864 135.777321 
L 662.529715 136.124191 
L 663.745415 137.330398 
L 664.353266 137.140843 
L 664.961116 137.072133 
L 665.568967 137.869645 
L 666.176817 137.893996 
L 666.784668 135.85755 
L 667.392518 132.636666 
L 668.608219 131.522282 
L 669.216069 132.17139 
L 669.82392 132.05564 
L 670.43177 132.82697 
L 671.039621 133.037934 
L 671.647471 133.825208 
L 672.255321 133.98237 
L 672.863172 133.16081 
L 673.471022 133.64633 
L 674.078873 133.416438 
L 674.686723 133.561516 
L 675.294574 132.961052 
L 675.902424 133.411042 
L 676.510275 133.591305 
L 677.118125 133.095597 
L 677.725975 132.039747 
L 678.333826 132.502716 
L 679.549527 134.333329 
L 680.157377 135.900098 
L 680.765228 136.989798 
L 681.373078 137.579675 
L 681.980928 137.117012 
L 682.588779 136.082812 
L 684.41233 132.345097 
L 685.020181 131.329293 
L 685.628031 131.007232 
L 687.451582 132.583456 
L 688.059433 133.117577 
L 688.667283 133.88686 
L 689.275134 134.424431 
L 689.882984 133.861197 
L 690.490834 133.126359 
L 691.098685 132.720948 
L 691.706535 133.558139 
L 694.137937 138.114577 
L 694.745787 138.836854 
L 695.353638 138.956191 
L 695.961488 139.489582 
L 696.569339 139.110919 
L 697.177189 138.102172 
L 698.39289 137.159089 
L 699.00074 137.740878 
L 699.608591 138.528842 
L 700.216441 138.69094 
L 700.824292 138.23264 
L 701.432142 139.108417 
L 702.039993 139.318756 
L 703.255693 138.755273 
L 703.863544 139.054795 
L 705.079245 139.269205 
L 705.687095 139.037895 
L 706.294946 137.437658 
L 707.510646 136.263291 
L 708.118497 136.056887 
L 708.726347 135.723708 
L 709.334198 135.054308 
L 709.942048 134.753564 
L 710.549899 134.100415 
L 711.157749 133.680478 
L 711.7656 134.290424 
L 712.37345 134.274774 
L 712.9813 134.11388 
L 713.589151 134.45303 
L 714.197001 135.213381 
L 714.804852 135.563262 
L 715.412702 135.081489 
L 716.020553 134.831116 
L 716.628403 134.954331 
L 717.844104 134.255999 
L 718.451954 134.592899 
L 719.059805 135.21622 
L 719.667655 135.470973 
L 720.275506 135.197034 
L 720.883356 134.674702 
L 721.491206 134.922314 
L 722.099057 135.526482 
L 722.706907 135.739808 
L 723.314758 135.087795 
L 723.922608 135.359289 
L 724.530459 136.00307 
L 725.138309 136.453913 
L 726.96186 139.061332 
L 727.569711 139.278378 
L 728.177561 137.925671 
L 728.785412 135.97637 
L 729.393262 135.35821 
L 730.001112 133.850892 
L 730.608963 133.222373 
L 731.216813 133.757867 
L 731.824664 131.890919 
L 732.432514 130.6243 
L 733.040365 127.954405 
L 733.648215 123.397186 
L 734.863916 116.482133 
L 735.471766 111.76655 
L 736.687467 104.828761 
L 737.295318 102.982462 
L 737.903168 102.337356 
L 738.511018 102.082374 
L 739.726719 103.318381 
L 740.33457 103.241217 
L 740.94242 101.914207 
L 742.158121 100.670923 
L 743.981672 100.361009 
L 744.589523 100.810398 
L 745.197373 101.526672 
L 745.805224 102.4994 
L 747.020925 106.323127 
L 749.452326 115.549766 
L 751.883728 121.578449 
L 753.707279 127.203707 
L 754.92298 129.994225 
L 756.138681 133.028738 
L 757.354382 136.480697 
L 760.393634 142.810971 
L 761.609335 145.312465 
L 764.040737 149.921384 
L 766.472138 153.933077 
L 770.119241 158.972252 
L 771.942792 161.122183 
L 773.766343 162.981585 
L 775.589895 164.580725 
L 778.021296 166.365994 
L 778.021296 166.365994 
" clip-path="url(#pcfa2ec02ee)" style="fill: none; stroke: #008fd5; stroke-width: 4"/>
   </g>
   <g id="patch_9">
    <path d="M 451.879148 182.16 
L 451.879148 7.2 
" style="fill: none; stroke: #f0f0f0; stroke-width: 3; stroke-linejoin: miter; stroke-linecap: square"/>
   </g>
   <g id="patch_10">
    <path d="M 793.551875 182.16 
L 793.551875 7.2 
" style="fill: none; stroke: #f0f0f0; stroke-width: 3; stroke-linejoin: miter; stroke-linecap: square"/>
   </g>
   <g id="patch_11">
    <path d="M 451.879148 182.16 
L 793.551875 182.16 
" style="fill: none; stroke: #f0f0f0; stroke-width: 3; stroke-linejoin: miter; stroke-linecap: square"/>
   </g>
   <g id="patch_12">
    <path d="M 451.879148 7.2 
L 793.551875 7.2 
" style="fill: none; stroke: #f0f0f0; stroke-width: 3; stroke-linejoin: miter; stroke-linecap: square"/>
   </g>
   <g id="legend_2">
    <g id="patch_13">
     <path d="M 668.5975 38.949375 
L 783.751875 38.949375 
Q 786.551875 38.949375 786.551875 36.149375 
L 786.551875 17 
Q 786.551875 14.2 783.751875 14.2 
L 668.5975 14.2 
Q 665.7975 14.2 665.7975 17 
L 665.7975 36.149375 
Q 665.7975 38.949375 668.5975 38.949375 
z
" style="fill: #f0f0f0; opacity: 0.8; stroke: #cccccc; stroke-width: 0.5; stroke-linejoin: miter"/>
    </g>
    <g id="line2d_51">
     <path d="M 671.3975 25.537813 
L 685.3975 25.537813 
L 699.3975 25.537813 
" style="fill: none; stroke: #008fd5; stroke-width: 4"/>
    </g>
    <g id="text_25">
     <!-- perplexity -->
     <g transform="translate(710.5975 30.437813) scale(0.14 -0.14)">
      <defs>
       <path id="DejaVuSans-70" d="M 1159 525 
L 1159 -1331 
L 581 -1331 
L 581 3500 
L 1159 3500 
L 1159 2969 
Q 1341 3281 1617 3432 
Q 1894 3584 2278 3584 
Q 2916 3584 3314 3078 
Q 3713 2572 3713 1747 
Q 3713 922 3314 415 
Q 2916 -91 2278 -91 
Q 1894 -91 1617 61 
Q 1341 213 1159 525 
z
M 3116 1747 
Q 3116 2381 2855 2742 
Q 2594 3103 2138 3103 
Q 1681 3103 1420 2742 
Q 1159 2381 1159 1747 
Q 1159 1113 1420 752 
Q 1681 391 2138 391 
Q 2594 391 2855 752 
Q 3116 1113 3116 1747 
z
" transform="scale(0.015625)"/>
       <path id="DejaVuSans-65" d="M 3597 1894 
L 3597 1613 
L 953 1613 
Q 991 1019 1311 708 
Q 1631 397 2203 397 
Q 2534 397 2845 478 
Q 3156 559 3463 722 
L 3463 178 
Q 3153 47 2828 -22 
Q 2503 -91 2169 -91 
Q 1331 -91 842 396 
Q 353 884 353 1716 
Q 353 2575 817 3079 
Q 1281 3584 2069 3584 
Q 2775 3584 3186 3129 
Q 3597 2675 3597 1894 
z
M 3022 2063 
Q 3016 2534 2758 2815 
Q 2500 3097 2075 3097 
Q 1594 3097 1305 2825 
Q 1016 2553 972 2059 
L 3022 2063 
z
" transform="scale(0.015625)"/>
       <path id="DejaVuSans-6c" d="M 603 4863 
L 1178 4863 
L 1178 0 
L 603 0 
L 603 4863 
z
" transform="scale(0.015625)"/>
       <path id="DejaVuSans-78" d="M 3513 3500 
L 2247 1797 
L 3578 0 
L 2900 0 
L 1881 1375 
L 863 0 
L 184 0 
L 1544 1831 
L 300 3500 
L 978 3500 
L 1906 2253 
L 2834 3500 
L 3513 3500 
z
" transform="scale(0.015625)"/>
       <path id="DejaVuSans-69" d="M 603 3500 
L 1178 3500 
L 1178 0 
L 603 0 
L 603 3500 
z
M 603 4863 
L 1178 4863 
L 1178 4134 
L 603 4134 
L 603 4863 
z
" transform="scale(0.015625)"/>
       <path id="DejaVuSans-74" d="M 1172 4494 
L 1172 3500 
L 2356 3500 
L 2356 3053 
L 1172 3053 
L 1172 1153 
Q 1172 725 1289 603 
Q 1406 481 1766 481 
L 2356 481 
L 2356 0 
L 1766 0 
Q 1100 0 847 248 
Q 594 497 594 1153 
L 594 3053 
L 172 3053 
L 172 3500 
L 594 3500 
L 594 4494 
L 1172 4494 
z
" transform="scale(0.015625)"/>
      </defs>
      <use xlink:href="#DejaVuSans-70"/>
      <use xlink:href="#DejaVuSans-65" x="63.476562"/>
      <use xlink:href="#DejaVuSans-72" x="125"/>
      <use xlink:href="#DejaVuSans-70" x="166.113281"/>
      <use xlink:href="#DejaVuSans-6c" x="229.589844"/>
      <use xlink:href="#DejaVuSans-65" x="257.373047"/>
      <use xlink:href="#DejaVuSans-78" x="317.146484"/>
      <use xlink:href="#DejaVuSans-69" x="376.326172"/>
      <use xlink:href="#DejaVuSans-74" x="404.109375"/>
      <use xlink:href="#DejaVuSans-79" x="443.318359"/>
     </g>
    </g>
   </g>
  </g>
 </g>
 <defs>
  <clipPath id="p56e206147b">
   <rect x="41.871875" y="7.2" width="341.672727" height="174.96"/>
  </clipPath>
  <clipPath id="pcfa2ec02ee">
   <rect x="451.879148" y="7.2" width="341.672727" height="174.96"/>
  </clipPath>
 </defs>
</svg>
