<?xml version="1.0" encoding="utf-8" standalone="no"?>
<!DOCTYPE svg PUBLIC "-//W3C//DTD SVG 1.1//EN"
  "http://www.w3.org/Graphics/SVG/1.1/DTD/svg11.dtd">
<svg xmlns:xlink="http://www.w3.org/1999/xlink" width="809.659375pt" height="206.409375pt" viewBox="0 0 809.659375 206.409375" xmlns="http://www.w3.org/2000/svg" version="1.1">
 <metadata>
  <rdf:RDF xmlns:dc="http://purl.org/dc/elements/1.1/" xmlns:cc="http://creativecommons.org/ns#" xmlns:rdf="http://www.w3.org/1999/02/22-rdf-syntax-ns#">
   <cc:Work>
    <dc:type rdf:resource="http://purl.org/dc/dcmitype/StillImage"/>
    <dc:date>2023-01-19T14:53:14.099436</dc:date>
    <dc:format>image/svg+xml</dc:format>
    <dc:creator>
     <cc:Agent>
      <dc:title>Matplotlib v3.6.0, https://matplotlib.org/</dc:title>
     </cc:Agent>
    </dc:creator>
   </cc:Work>
  </rdf:RDF>
 </metadata>
 <defs>
  <style type="text/css">*{stroke-linejoin: round; stroke-linecap: butt}</style>
 </defs>
 <g id="figure_1">
  <g id="patch_1">
   <path d="M 0 206.409375 
L 809.659375 206.409375 
L 809.659375 0 
L 0 0 
L 0 206.409375 
z
" style="fill: none"/>
  </g>
  <g id="axes_1">
   <g id="patch_2">
    <path d="M 50.779375 182.16 
L 392.452102 182.16 
L 392.452102 7.2 
L 50.779375 7.2 
L 50.779375 182.16 
z
" style="fill: none"/>
   </g>
   <g id="matplotlib.axis_1">
    <g id="xtick_1">
     <g id="line2d_1">
      <path d="M 66.309954 182.16 
L 66.309954 7.2 
" clip-path="url(#p0cca83f7e5)" style="fill: none; stroke: #cbcbcb"/>
     </g>
     <g id="line2d_2"/>
     <g id="text_1">
      <!-- 0 -->
      <g transform="translate(61.856204 196.297813) scale(0.14 -0.14)">
       <defs>
        <path id="DejaVuSans-30" d="M 2034 4250 
Q 1547 4250 1301 3770 
Q 1056 3291 1056 2328 
Q 1056 1369 1301 889 
Q 1547 409 2034 409 
Q 2525 409 2770 889 
Q 3016 1369 3016 2328 
Q 3016 3291 2770 3770 
Q 2525 4250 2034 4250 
z
M 2034 4750 
Q 2819 4750 3233 4129 
Q 3647 3509 3647 2328 
Q 3647 1150 3233 529 
Q 2819 -91 2034 -91 
Q 1250 -91 836 529 
Q 422 1150 422 2328 
Q 422 3509 836 4129 
Q 1250 4750 2034 4750 
z
" transform="scale(0.015625)"/>
       </defs>
       <use xlink:href="#DejaVuSans-30"/>
      </g>
     </g>
    </g>
    <g id="xtick_2">
     <g id="line2d_3">
      <path d="M 127.094997 182.16 
L 127.094997 7.2 
" clip-path="url(#p0cca83f7e5)" style="fill: none; stroke: #cbcbcb"/>
     </g>
     <g id="line2d_4"/>
     <g id="text_2">
      <!-- 100 -->
      <g transform="translate(113.733747 196.297813) scale(0.14 -0.14)">
       <defs>
        <path id="DejaVuSans-31" d="M 794 531 
L 1825 531 
L 1825 4091 
L 703 3866 
L 703 4441 
L 1819 4666 
L 2450 4666 
L 2450 531 
L 3481 531 
L 3481 0 
L 794 0 
L 794 531 
z
" transform="scale(0.015625)"/>
       </defs>
       <use xlink:href="#DejaVuSans-31"/>
       <use xlink:href="#DejaVuSans-30" x="63.623047"/>
       <use xlink:href="#DejaVuSans-30" x="127.246094"/>
      </g>
     </g>
    </g>
    <g id="xtick_3">
     <g id="line2d_5">
      <path d="M 187.88004 182.16 
L 187.88004 7.2 
" clip-path="url(#p0cca83f7e5)" style="fill: none; stroke: #cbcbcb"/>
     </g>
     <g id="line2d_6"/>
     <g id="text_3">
      <!-- 200 -->
      <g transform="translate(174.51879 196.297813) scale(0.14 -0.14)">
       <defs>
        <path id="DejaVuSans-32" d="M 1228 531 
L 3431 531 
L 3431 0 
L 469 0 
L 469 531 
Q 828 903 1448 1529 
Q 2069 2156 2228 2338 
Q 2531 2678 2651 2914 
Q 2772 3150 2772 3378 
Q 2772 3750 2511 3984 
Q 2250 4219 1831 4219 
Q 1534 4219 1204 4116 
Q 875 4013 500 3803 
L 500 4441 
Q 881 4594 1212 4672 
Q 1544 4750 1819 4750 
Q 2544 4750 2975 4387 
Q 3406 4025 3406 3419 
Q 3406 3131 3298 2873 
Q 3191 2616 2906 2266 
Q 2828 2175 2409 1742 
Q 1991 1309 1228 531 
z
" transform="scale(0.015625)"/>
       </defs>
       <use xlink:href="#DejaVuSans-32"/>
       <use xlink:href="#DejaVuSans-30" x="63.623047"/>
       <use xlink:href="#DejaVuSans-30" x="127.246094"/>
      </g>
     </g>
    </g>
    <g id="xtick_4">
     <g id="line2d_7">
      <path d="M 248.665083 182.16 
L 248.665083 7.2 
" clip-path="url(#p0cca83f7e5)" style="fill: none; stroke: #cbcbcb"/>
     </g>
     <g id="line2d_8"/>
     <g id="text_4">
      <!-- 300 -->
      <g transform="translate(235.303833 196.297813) scale(0.14 -0.14)">
       <defs>
        <path id="DejaVuSans-33" d="M 2597 2516 
Q 3050 2419 3304 2112 
Q 3559 1806 3559 1356 
Q 3559 666 3084 287 
Q 2609 -91 1734 -91 
Q 1441 -91 1130 -33 
Q 819 25 488 141 
L 488 750 
Q 750 597 1062 519 
Q 1375 441 1716 441 
Q 2309 441 2620 675 
Q 2931 909 2931 1356 
Q 2931 1769 2642 2001 
Q 2353 2234 1838 2234 
L 1294 2234 
L 1294 2753 
L 1863 2753 
Q 2328 2753 2575 2939 
Q 2822 3125 2822 3475 
Q 2822 3834 2567 4026 
Q 2313 4219 1838 4219 
Q 1578 4219 1281 4162 
Q 984 4106 628 3988 
L 628 4550 
Q 988 4650 1302 4700 
Q 1616 4750 1894 4750 
Q 2613 4750 3031 4423 
Q 3450 4097 3450 3541 
Q 3450 3153 3228 2886 
Q 3006 2619 2597 2516 
z
" transform="scale(0.015625)"/>
       </defs>
       <use xlink:href="#DejaVuSans-33"/>
       <use xlink:href="#DejaVuSans-30" x="63.623047"/>
       <use xlink:href="#DejaVuSans-30" x="127.246094"/>
      </g>
     </g>
    </g>
    <g id="xtick_5">
     <g id="line2d_9">
      <path d="M 309.450126 182.16 
L 309.450126 7.2 
" clip-path="url(#p0cca83f7e5)" style="fill: none; stroke: #cbcbcb"/>
     </g>
     <g id="line2d_10"/>
     <g id="text_5">
      <!-- 400 -->
      <g transform="translate(296.088876 196.297813) scale(0.14 -0.14)">
       <defs>
        <path id="DejaVuSans-34" d="M 2419 4116 
L 825 1625 
L 2419 1625 
L 2419 4116 
z
M 2253 4666 
L 3047 4666 
L 3047 1625 
L 3713 1625 
L 3713 1100 
L 3047 1100 
L 3047 0 
L 2419 0 
L 2419 1100 
L 313 1100 
L 313 1709 
L 2253 4666 
z
" transform="scale(0.015625)"/>
       </defs>
       <use xlink:href="#DejaVuSans-34"/>
       <use xlink:href="#DejaVuSans-30" x="63.623047"/>
       <use xlink:href="#DejaVuSans-30" x="127.246094"/>
      </g>
     </g>
    </g>
    <g id="xtick_6">
     <g id="line2d_11">
      <path d="M 370.235169 182.16 
L 370.235169 7.2 
" clip-path="url(#p0cca83f7e5)" style="fill: none; stroke: #cbcbcb"/>
     </g>
     <g id="line2d_12"/>
     <g id="text_6">
      <!-- 500 -->
      <g transform="translate(356.873919 196.297813) scale(0.14 -0.14)">
       <defs>
        <path id="DejaVuSans-35" d="M 691 4666 
L 3169 4666 
L 3169 4134 
L 1269 4134 
L 1269 2991 
Q 1406 3038 1543 3061 
Q 1681 3084 1819 3084 
Q 2600 3084 3056 2656 
Q 3513 2228 3513 1497 
Q 3513 744 3044 326 
Q 2575 -91 1722 -91 
Q 1428 -91 1123 -41 
Q 819 9 494 109 
L 494 744 
Q 775 591 1075 516 
Q 1375 441 1709 441 
Q 2250 441 2565 725 
Q 2881 1009 2881 1497 
Q 2881 1984 2565 2268 
Q 2250 2553 1709 2553 
Q 1456 2553 1204 2497 
Q 953 2441 691 2322 
L 691 4666 
z
" transform="scale(0.015625)"/>
       </defs>
       <use xlink:href="#DejaVuSans-35"/>
       <use xlink:href="#DejaVuSans-30" x="63.623047"/>
       <use xlink:href="#DejaVuSans-30" x="127.246094"/>
      </g>
     </g>
    </g>
   </g>
   <g id="matplotlib.axis_2">
    <g id="ytick_1">
     <g id="line2d_13">
      <path d="M 50.779375 174.207273 
L 392.452102 174.207273 
" clip-path="url(#p0cca83f7e5)" style="fill: none; stroke: #cbcbcb"/>
     </g>
     <g id="line2d_14"/>
     <g id="text_7">
      <!-- 0.000 -->
      <g transform="translate(7.2 179.526179) scale(0.14 -0.14)">
       <defs>
        <path id="DejaVuSans-2e" d="M 684 794 
L 1344 794 
L 1344 0 
L 684 0 
L 684 794 
z
" transform="scale(0.015625)"/>
       </defs>
       <use xlink:href="#DejaVuSans-30"/>
       <use xlink:href="#DejaVuSans-2e" x="63.623047"/>
       <use xlink:href="#DejaVuSans-30" x="95.410156"/>
       <use xlink:href="#DejaVuSans-30" x="159.033203"/>
       <use xlink:href="#DejaVuSans-30" x="222.65625"/>
      </g>
     </g>
    </g>
    <g id="ytick_2">
     <g id="line2d_15">
      <path d="M 50.779375 144.709884 
L 392.452102 144.709884 
" clip-path="url(#p0cca83f7e5)" style="fill: none; stroke: #cbcbcb"/>
     </g>
     <g id="line2d_16"/>
     <g id="text_8">
      <!-- 0.025 -->
      <g transform="translate(7.2 150.02879) scale(0.14 -0.14)">
       <use xlink:href="#DejaVuSans-30"/>
       <use xlink:href="#DejaVuSans-2e" x="63.623047"/>
       <use xlink:href="#DejaVuSans-30" x="95.410156"/>
       <use xlink:href="#DejaVuSans-32" x="159.033203"/>
       <use xlink:href="#DejaVuSans-35" x="222.65625"/>
      </g>
     </g>
    </g>
    <g id="ytick_3">
     <g id="line2d_17">
      <path d="M 50.779375 115.212496 
L 392.452102 115.212496 
" clip-path="url(#p0cca83f7e5)" style="fill: none; stroke: #cbcbcb"/>
     </g>
     <g id="line2d_18"/>
     <g id="text_9">
      <!-- 0.050 -->
      <g transform="translate(7.2 120.531402) scale(0.14 -0.14)">
       <use xlink:href="#DejaVuSans-30"/>
       <use xlink:href="#DejaVuSans-2e" x="63.623047"/>
       <use xlink:href="#DejaVuSans-30" x="95.410156"/>
       <use xlink:href="#DejaVuSans-35" x="159.033203"/>
       <use xlink:href="#DejaVuSans-30" x="222.65625"/>
      </g>
     </g>
    </g>
    <g id="ytick_4">
     <g id="line2d_19">
      <path d="M 50.779375 85.715107 
L 392.452102 85.715107 
" clip-path="url(#p0cca83f7e5)" style="fill: none; stroke: #cbcbcb"/>
     </g>
     <g id="line2d_20"/>
     <g id="text_10">
      <!-- 0.075 -->
      <g transform="translate(7.2 91.034013) scale(0.14 -0.14)">
       <defs>
        <path id="DejaVuSans-37" d="M 525 4666 
L 3525 4666 
L 3525 4397 
L 1831 0 
L 1172 0 
L 2766 4134 
L 525 4134 
L 525 4666 
z
" transform="scale(0.015625)"/>
       </defs>
       <use xlink:href="#DejaVuSans-30"/>
       <use xlink:href="#DejaVuSans-2e" x="63.623047"/>
       <use xlink:href="#DejaVuSans-30" x="95.410156"/>
       <use xlink:href="#DejaVuSans-37" x="159.033203"/>
       <use xlink:href="#DejaVuSans-35" x="222.65625"/>
      </g>
     </g>
    </g>
    <g id="ytick_5">
     <g id="line2d_21">
      <path d="M 50.779375 56.217718 
L 392.452102 56.217718 
" clip-path="url(#p0cca83f7e5)" style="fill: none; stroke: #cbcbcb"/>
     </g>
     <g id="line2d_22"/>
     <g id="text_11">
      <!-- 0.100 -->
      <g transform="translate(7.2 61.536625) scale(0.14 -0.14)">
       <use xlink:href="#DejaVuSans-30"/>
       <use xlink:href="#DejaVuSans-2e" x="63.623047"/>
       <use xlink:href="#DejaVuSans-31" x="95.410156"/>
       <use xlink:href="#DejaVuSans-30" x="159.033203"/>
       <use xlink:href="#DejaVuSans-30" x="222.65625"/>
      </g>
     </g>
    </g>
    <g id="ytick_6">
     <g id="line2d_23">
      <path d="M 50.779375 26.72033 
L 392.452102 26.72033 
" clip-path="url(#p0cca83f7e5)" style="fill: none; stroke: #cbcbcb"/>
     </g>
     <g id="line2d_24"/>
     <g id="text_12">
      <!-- 0.125 -->
      <g transform="translate(7.2 32.039236) scale(0.14 -0.14)">
       <use xlink:href="#DejaVuSans-30"/>
       <use xlink:href="#DejaVuSans-2e" x="63.623047"/>
       <use xlink:href="#DejaVuSans-31" x="95.410156"/>
       <use xlink:href="#DejaVuSans-32" x="159.033203"/>
       <use xlink:href="#DejaVuSans-35" x="222.65625"/>
      </g>
     </g>
    </g>
   </g>
   <g id="line2d_25">
    <path d="M 66.309954 15.152727 
L 221.311813 15.152727 
L 221.919664 174.207273 
L 376.921524 174.207273 
L 376.921524 174.207273 
" clip-path="url(#p0cca83f7e5)" style="fill: none; stroke: #008fd5; stroke-width: 4"/>
   </g>
   <g id="patch_3">
    <path d="M 50.779375 182.16 
L 50.779375 7.2 
" style="fill: none; stroke: #f0f0f0; stroke-width: 3; stroke-linejoin: miter; stroke-linecap: square"/>
   </g>
   <g id="patch_4">
    <path d="M 392.452102 182.16 
L 392.452102 7.2 
" style="fill: none; stroke: #f0f0f0; stroke-width: 3; stroke-linejoin: miter; stroke-linecap: square"/>
   </g>
   <g id="patch_5">
    <path d="M 50.779375 182.16 
L 392.452102 182.16 
" style="fill: none; stroke: #f0f0f0; stroke-width: 3; stroke-linejoin: miter; stroke-linecap: square"/>
   </g>
   <g id="patch_6">
    <path d="M 50.779375 7.2 
L 392.452102 7.2 
" style="fill: none; stroke: #f0f0f0; stroke-width: 3; stroke-linejoin: miter; stroke-linecap: square"/>
   </g>
   <g id="legend_1">
    <g id="patch_7">
     <path d="M 274.685852 38.949375 
L 382.652102 38.949375 
Q 385.452102 38.949375 385.452102 36.149375 
L 385.452102 17 
Q 385.452102 14.2 382.652102 14.2 
L 274.685852 14.2 
Q 271.885852 14.2 271.885852 17 
L 271.885852 36.149375 
Q 271.885852 38.949375 274.685852 38.949375 
z
" style="fill: #f0f0f0; opacity: 0.8; stroke: #cccccc; stroke-width: 0.5; stroke-linejoin: miter"/>
    </g>
    <g id="line2d_26">
     <path d="M 277.485852 25.537813 
L 291.485852 25.537813 
L 305.485852 25.537813 
" style="fill: none; stroke: #008fd5; stroke-width: 4"/>
    </g>
    <g id="text_13">
     <!-- accuracy -->
     <g transform="translate(316.685852 30.437813) scale(0.14 -0.14)">
      <defs>
       <path id="DejaVuSans-61" d="M 2194 1759 
Q 1497 1759 1228 1600 
Q 959 1441 959 1056 
Q 959 750 1161 570 
Q 1363 391 1709 391 
Q 2188 391 2477 730 
Q 2766 1069 2766 1631 
L 2766 1759 
L 2194 1759 
z
M 3341 1997 
L 3341 0 
L 2766 0 
L 2766 531 
Q 2569 213 2275 61 
Q 1981 -91 1556 -91 
Q 1019 -91 701 211 
Q 384 513 384 1019 
Q 384 1609 779 1909 
Q 1175 2209 1959 2209 
L 2766 2209 
L 2766 2266 
Q 2766 2663 2505 2880 
Q 2244 3097 1772 3097 
Q 1472 3097 1187 3025 
Q 903 2953 641 2809 
L 641 3341 
Q 956 3463 1253 3523 
Q 1550 3584 1831 3584 
Q 2591 3584 2966 3190 
Q 3341 2797 3341 1997 
z
" transform="scale(0.015625)"/>
       <path id="DejaVuSans-63" d="M 3122 3366 
L 3122 2828 
Q 2878 2963 2633 3030 
Q 2388 3097 2138 3097 
Q 1578 3097 1268 2742 
Q 959 2388 959 1747 
Q 959 1106 1268 751 
Q 1578 397 2138 397 
Q 2388 397 2633 464 
Q 2878 531 3122 666 
L 3122 134 
Q 2881 22 2623 -34 
Q 2366 -91 2075 -91 
Q 1284 -91 818 406 
Q 353 903 353 1747 
Q 353 2603 823 3093 
Q 1294 3584 2113 3584 
Q 2378 3584 2631 3529 
Q 2884 3475 3122 3366 
z
" transform="scale(0.015625)"/>
       <path id="DejaVuSans-75" d="M 544 1381 
L 544 3500 
L 1119 3500 
L 1119 1403 
Q 1119 906 1312 657 
Q 1506 409 1894 409 
Q 2359 409 2629 706 
Q 2900 1003 2900 1516 
L 2900 3500 
L 3475 3500 
L 3475 0 
L 2900 0 
L 2900 538 
Q 2691 219 2414 64 
Q 2138 -91 1772 -91 
Q 1169 -91 856 284 
Q 544 659 544 1381 
z
M 1991 3584 
L 1991 3584 
z
" transform="scale(0.015625)"/>
       <path id="DejaVuSans-72" d="M 2631 2963 
Q 2534 3019 2420 3045 
Q 2306 3072 2169 3072 
Q 1681 3072 1420 2755 
Q 1159 2438 1159 1844 
L 1159 0 
L 581 0 
L 581 3500 
L 1159 3500 
L 1159 2956 
Q 1341 3275 1631 3429 
Q 1922 3584 2338 3584 
Q 2397 3584 2469 3576 
Q 2541 3569 2628 3553 
L 2631 2963 
z
" transform="scale(0.015625)"/>
       <path id="DejaVuSans-79" d="M 2059 -325 
Q 1816 -950 1584 -1140 
Q 1353 -1331 966 -1331 
L 506 -1331 
L 506 -850 
L 844 -850 
Q 1081 -850 1212 -737 
Q 1344 -625 1503 -206 
L 1606 56 
L 191 3500 
L 800 3500 
L 1894 763 
L 2988 3500 
L 3597 3500 
L 2059 -325 
z
" transform="scale(0.015625)"/>
      </defs>
      <use xlink:href="#DejaVuSans-61"/>
      <use xlink:href="#DejaVuSans-63" x="61.279297"/>
      <use xlink:href="#DejaVuSans-63" x="116.259766"/>
      <use xlink:href="#DejaVuSans-75" x="171.240234"/>
      <use xlink:href="#DejaVuSans-72" x="234.619141"/>
      <use xlink:href="#DejaVuSans-61" x="275.732422"/>
      <use xlink:href="#DejaVuSans-63" x="337.011719"/>
      <use xlink:href="#DejaVuSans-79" x="391.992188"/>
     </g>
    </g>
   </g>
  </g>
  <g id="axes_2">
   <g id="patch_8">
    <path d="M 460.786648 182.16 
L 802.459375 182.16 
L 802.459375 7.2 
L 460.786648 7.2 
L 460.786648 182.16 
z
" style="fill: none"/>
   </g>
   <g id="matplotlib.axis_3">
    <g id="xtick_7">
     <g id="line2d_27">
      <path d="M 476.317226 182.16 
L 476.317226 7.2 
" clip-path="url(#pefca805541)" style="fill: none; stroke: #cbcbcb"/>
     </g>
     <g id="line2d_28"/>
     <g id="text_14">
      <!-- 0 -->
      <g transform="translate(471.863476 196.297813) scale(0.14 -0.14)">
       <use xlink:href="#DejaVuSans-30"/>
      </g>
     </g>
    </g>
    <g id="xtick_8">
     <g id="line2d_29">
      <path d="M 537.102269 182.16 
L 537.102269 7.2 
" clip-path="url(#pefca805541)" style="fill: none; stroke: #cbcbcb"/>
     </g>
     <g id="line2d_30"/>
     <g id="text_15">
      <!-- 100 -->
      <g transform="translate(523.741019 196.297813) scale(0.14 -0.14)">
       <use xlink:href="#DejaVuSans-31"/>
       <use xlink:href="#DejaVuSans-30" x="63.623047"/>
       <use xlink:href="#DejaVuSans-30" x="127.246094"/>
      </g>
     </g>
    </g>
    <g id="xtick_9">
     <g id="line2d_31">
      <path d="M 597.887312 182.16 
L 597.887312 7.2 
" clip-path="url(#pefca805541)" style="fill: none; stroke: #cbcbcb"/>
     </g>
     <g id="line2d_32"/>
     <g id="text_16">
      <!-- 200 -->
      <g transform="translate(584.526062 196.297813) scale(0.14 -0.14)">
       <use xlink:href="#DejaVuSans-32"/>
       <use xlink:href="#DejaVuSans-30" x="63.623047"/>
       <use xlink:href="#DejaVuSans-30" x="127.246094"/>
      </g>
     </g>
    </g>
    <g id="xtick_10">
     <g id="line2d_33">
      <path d="M 658.672356 182.16 
L 658.672356 7.2 
" clip-path="url(#pefca805541)" style="fill: none; stroke: #cbcbcb"/>
     </g>
     <g id="line2d_34"/>
     <g id="text_17">
      <!-- 300 -->
      <g transform="translate(645.311106 196.297813) scale(0.14 -0.14)">
       <use xlink:href="#DejaVuSans-33"/>
       <use xlink:href="#DejaVuSans-30" x="63.623047"/>
       <use xlink:href="#DejaVuSans-30" x="127.246094"/>
      </g>
     </g>
    </g>
    <g id="xtick_11">
     <g id="line2d_35">
      <path d="M 719.457399 182.16 
L 719.457399 7.2 
" clip-path="url(#pefca805541)" style="fill: none; stroke: #cbcbcb"/>
     </g>
     <g id="line2d_36"/>
     <g id="text_18">
      <!-- 400 -->
      <g transform="translate(706.096149 196.297813) scale(0.14 -0.14)">
       <use xlink:href="#DejaVuSans-34"/>
       <use xlink:href="#DejaVuSans-30" x="63.623047"/>
       <use xlink:href="#DejaVuSans-30" x="127.246094"/>
      </g>
     </g>
    </g>
    <g id="xtick_12">
     <g id="line2d_37">
      <path d="M 780.242442 182.16 
L 780.242442 7.2 
" clip-path="url(#pefca805541)" style="fill: none; stroke: #cbcbcb"/>
     </g>
     <g id="line2d_38"/>
     <g id="text_19">
      <!-- 500 -->
      <g transform="translate(766.881192 196.297813) scale(0.14 -0.14)">
       <use xlink:href="#DejaVuSans-35"/>
       <use xlink:href="#DejaVuSans-30" x="63.623047"/>
       <use xlink:href="#DejaVuSans-30" x="127.246094"/>
      </g>
     </g>
    </g>
   </g>
   <g id="matplotlib.axis_4">
    <g id="ytick_7">
     <g id="line2d_39">
      <path d="M 460.786648 178.98139 
L 802.459375 178.98139 
" clip-path="url(#pefca805541)" style="fill: none; stroke: #cbcbcb"/>
     </g>
     <g id="line2d_40"/>
     <g id="text_20">
      <!-- 0 -->
      <g transform="translate(448.379148 184.300296) scale(0.14 -0.14)">
       <use xlink:href="#DejaVuSans-30"/>
      </g>
     </g>
    </g>
    <g id="ytick_8">
     <g id="line2d_41">
      <path d="M 460.786648 145.9372 
L 802.459375 145.9372 
" clip-path="url(#pefca805541)" style="fill: none; stroke: #cbcbcb"/>
     </g>
     <g id="line2d_42"/>
     <g id="text_21">
      <!-- 20 -->
      <g transform="translate(439.471648 151.256106) scale(0.14 -0.14)">
       <use xlink:href="#DejaVuSans-32"/>
       <use xlink:href="#DejaVuSans-30" x="63.623047"/>
      </g>
     </g>
    </g>
    <g id="ytick_9">
     <g id="line2d_43">
      <path d="M 460.786648 112.89301 
L 802.459375 112.89301 
" clip-path="url(#pefca805541)" style="fill: none; stroke: #cbcbcb"/>
     </g>
     <g id="line2d_44"/>
     <g id="text_22">
      <!-- 40 -->
      <g transform="translate(439.471648 118.211916) scale(0.14 -0.14)">
       <use xlink:href="#DejaVuSans-34"/>
       <use xlink:href="#DejaVuSans-30" x="63.623047"/>
      </g>
     </g>
    </g>
    <g id="ytick_10">
     <g id="line2d_45">
      <path d="M 460.786648 79.84882 
L 802.459375 79.84882 
" clip-path="url(#pefca805541)" style="fill: none; stroke: #cbcbcb"/>
     </g>
     <g id="line2d_46"/>
     <g id="text_23">
      <!-- 60 -->
      <g transform="translate(439.471648 85.167726) scale(0.14 -0.14)">
       <defs>
        <path id="DejaVuSans-36" d="M 2113 2584 
Q 1688 2584 1439 2293 
Q 1191 2003 1191 1497 
Q 1191 994 1439 701 
Q 1688 409 2113 409 
Q 2538 409 2786 701 
Q 3034 994 3034 1497 
Q 3034 2003 2786 2293 
Q 2538 2584 2113 2584 
z
M 3366 4563 
L 3366 3988 
Q 3128 4100 2886 4159 
Q 2644 4219 2406 4219 
Q 1781 4219 1451 3797 
Q 1122 3375 1075 2522 
Q 1259 2794 1537 2939 
Q 1816 3084 2150 3084 
Q 2853 3084 3261 2657 
Q 3669 2231 3669 1497 
Q 3669 778 3244 343 
Q 2819 -91 2113 -91 
Q 1303 -91 875 529 
Q 447 1150 447 2328 
Q 447 3434 972 4092 
Q 1497 4750 2381 4750 
Q 2619 4750 2861 4703 
Q 3103 4656 3366 4563 
z
" transform="scale(0.015625)"/>
       </defs>
       <use xlink:href="#DejaVuSans-36"/>
       <use xlink:href="#DejaVuSans-30" x="63.623047"/>
      </g>
     </g>
    </g>
    <g id="ytick_11">
     <g id="line2d_47">
      <path d="M 460.786648 46.80463 
L 802.459375 46.80463 
" clip-path="url(#pefca805541)" style="fill: none; stroke: #cbcbcb"/>
     </g>
     <g id="line2d_48"/>
     <g id="text_24">
      <!-- 80 -->
      <g transform="translate(439.471648 52.123536) scale(0.14 -0.14)">
       <defs>
        <path id="DejaVuSans-38" d="M 2034 2216 
Q 1584 2216 1326 1975 
Q 1069 1734 1069 1313 
Q 1069 891 1326 650 
Q 1584 409 2034 409 
Q 2484 409 2743 651 
Q 3003 894 3003 1313 
Q 3003 1734 2745 1975 
Q 2488 2216 2034 2216 
z
M 1403 2484 
Q 997 2584 770 2862 
Q 544 3141 544 3541 
Q 544 4100 942 4425 
Q 1341 4750 2034 4750 
Q 2731 4750 3128 4425 
Q 3525 4100 3525 3541 
Q 3525 3141 3298 2862 
Q 3072 2584 2669 2484 
Q 3125 2378 3379 2068 
Q 3634 1759 3634 1313 
Q 3634 634 3220 271 
Q 2806 -91 2034 -91 
Q 1263 -91 848 271 
Q 434 634 434 1313 
Q 434 1759 690 2068 
Q 947 2378 1403 2484 
z
M 1172 3481 
Q 1172 3119 1398 2916 
Q 1625 2713 2034 2713 
Q 2441 2713 2670 2916 
Q 2900 3119 2900 3481 
Q 2900 3844 2670 4047 
Q 2441 4250 2034 4250 
Q 1625 4250 1398 4047 
Q 1172 3844 1172 3481 
z
" transform="scale(0.015625)"/>
       </defs>
       <use xlink:href="#DejaVuSans-38"/>
       <use xlink:href="#DejaVuSans-30" x="63.623047"/>
      </g>
     </g>
    </g>
    <g id="ytick_12">
     <g id="line2d_49">
      <path d="M 460.786648 13.76044 
L 802.459375 13.76044 
" clip-path="url(#pefca805541)" style="fill: none; stroke: #cbcbcb"/>
     </g>
     <g id="line2d_50"/>
     <g id="text_25">
      <!-- 100 -->
      <g transform="translate(430.564148 19.079347) scale(0.14 -0.14)">
       <use xlink:href="#DejaVuSans-31"/>
       <use xlink:href="#DejaVuSans-30" x="63.623047"/>
       <use xlink:href="#DejaVuSans-30" x="127.246094"/>
      </g>
     </g>
    </g>
   </g>
   <g id="line2d_51">
    <path d="M 476.317226 15.152727 
L 476.925077 78.233053 
L 478.140778 146.865887 
L 478.748628 98.183792 
L 479.356478 116.866087 
L 479.964329 109.963714 
L 480.572179 135.801115 
L 481.18003 118.410489 
L 481.78788 76.523161 
L 482.395731 61.717475 
L 483.003581 77.188522 
L 483.611431 114.753088 
L 484.219282 134.771635 
L 484.827132 94.037714 
L 485.434983 80.903964 
L 486.042833 95.238273 
L 486.650684 137.636408 
L 487.258534 100.679212 
L 487.866384 130.504986 
L 489.082085 155.29641 
L 489.689936 168.980874 
L 490.297786 168.845944 
L 491.513487 115.114566 
L 492.121337 137.643908 
L 492.729188 142.237433 
L 493.337038 140.146352 
L 493.944889 147.086972 
L 494.552739 140.923104 
L 495.16059 140.2501 
L 495.76844 163.835601 
L 496.37629 163.690827 
L 496.984141 126.748114 
L 497.591991 130.264104 
L 498.199842 135.032383 
L 498.807692 153.728309 
L 499.415543 155.156973 
L 500.023393 150.950121 
L 500.631243 152.968732 
L 501.239094 164.609466 
L 501.846944 169.249198 
L 502.454795 169.050563 
L 503.062645 166.525811 
L 503.670496 150.596065 
L 504.278346 158.07693 
L 504.886196 162.031931 
L 505.494047 157.921453 
L 506.101897 152.636103 
L 506.709748 166.65994 
L 507.317598 163.782161 
L 507.925449 169.163187 
L 508.533299 173.25954 
L 509.14115 156.496527 
L 509.749 120.534176 
L 510.35685 143.996696 
L 510.964701 158.138481 
L 511.572551 155.455071 
L 512.180402 143.793107 
L 512.788252 161.818224 
L 513.396103 160.029057 
L 514.003953 166.489981 
L 514.611803 169.09699 
L 515.219654 160.965757 
L 515.827504 150.055238 
L 517.043205 166.780651 
L 517.651056 161.007793 
L 518.258906 168.523207 
L 518.866756 159.664328 
L 519.474607 169.472529 
L 520.082457 167.695193 
L 520.690308 172.945827 
L 521.298158 165.889569 
L 521.906009 154.692585 
L 522.513859 162.52336 
L 523.121709 163.211756 
L 523.72956 160.436983 
L 524.33741 168.268803 
L 524.945261 161.071615 
L 525.553111 169.387237 
L 526.160962 166.133549 
L 526.768812 170.446287 
L 527.376662 160.030958 
L 527.984513 158.215124 
L 528.592363 153.743544 
L 529.200214 157.604017 
L 529.808064 166.340315 
L 530.415915 156.881129 
L 531.023765 157.308308 
L 531.631615 166.953894 
L 532.239466 171.628168 
L 532.847316 169.270929 
L 533.455167 163.789743 
L 534.063017 166.410258 
L 534.670868 161.994264 
L 535.278718 150.282604 
L 535.886568 156.97349 
L 536.494419 165.465832 
L 537.102269 168.080097 
L 537.71012 166.145143 
L 538.31797 169.777199 
L 538.925821 169.398954 
L 540.141521 164.142052 
L 540.749372 155.598567 
L 541.357222 166.488559 
L 541.965073 168.399672 
L 542.572923 165.246998 
L 543.180774 150.474306 
L 543.788624 169.637841 
L 544.396475 165.82125 
L 545.004325 170.815573 
L 545.612175 166.868254 
L 546.220026 167.116694 
L 546.827876 149.741153 
L 547.435727 168.053948 
L 548.043577 166.991786 
L 548.651428 164.168217 
L 549.259278 170.40134 
L 549.867128 168.243023 
L 550.474979 170.520582 
L 551.082829 171.733799 
L 551.69068 170.184259 
L 552.29853 161.644188 
L 552.906381 159.753257 
L 554.122081 168.025641 
L 554.729932 166.226576 
L 555.337782 163.004631 
L 555.945633 167.205945 
L 556.553483 169.164797 
L 557.161334 172.339526 
L 557.769184 167.720462 
L 558.377034 156.954559 
L 558.984885 152.267573 
L 559.592735 162.344556 
L 560.200586 164.823672 
L 560.808436 159.002227 
L 561.416287 163.659334 
L 562.024137 169.279598 
L 562.631987 166.434565 
L 563.239838 168.910404 
L 563.847688 172.84282 
L 564.455539 165.584114 
L 565.063389 151.862049 
L 565.67124 163.583973 
L 566.27909 164.230392 
L 566.88694 162.095719 
L 567.494791 166.359386 
L 568.102641 160.18932 
L 568.710492 170.93205 
L 569.318342 171.412492 
L 569.926193 166.521327 
L 570.534043 166.49559 
L 571.141893 157.019566 
L 571.749744 156.447001 
L 572.357594 166.088452 
L 572.965445 170.093037 
L 573.573295 160.400856 
L 574.181146 159.060039 
L 574.788996 169.997975 
L 575.396846 170.218997 
L 576.004697 172.889982 
L 576.612547 164.309226 
L 577.220398 164.844065 
L 577.828248 161.391489 
L 578.436099 164.004271 
L 579.043949 167.930978 
L 579.6518 166.775052 
L 580.25965 167.605135 
L 580.8675 167.149652 
L 581.475351 169.736777 
L 582.083201 170.805005 
L 582.691052 162.864608 
L 583.298902 146.835628 
L 583.906753 163.684057 
L 584.514603 166.292442 
L 585.122453 149.721593 
L 586.338154 167.391332 
L 586.946005 162.263278 
L 588.161706 173.113901 
L 588.769556 157.239044 
L 589.377406 154.406705 
L 589.985257 158.382776 
L 590.593107 155.620255 
L 591.200958 163.220227 
L 591.808808 165.13458 
L 592.416659 154.848408 
L 593.024509 168.287007 
L 593.632359 168.866693 
L 594.24021 171.260885 
L 594.84806 171.283692 
L 595.455911 165.38362 
L 596.063761 165.295983 
L 596.671612 163.483332 
L 597.279462 160.521528 
L 597.887312 170.373008 
L 598.495163 168.482374 
L 599.103013 169.300379 
L 599.710864 167.045275 
L 600.318714 170.37705 
L 600.926565 169.906778 
L 601.534415 165.751001 
L 602.142265 163.827802 
L 602.750116 163.804208 
L 603.357966 170.238856 
L 603.965817 161.194095 
L 604.573667 162.222497 
L 605.181518 161.315387 
L 605.789368 169.719939 
L 606.397218 162.971887 
L 607.005069 160.373069 
L 607.612919 159.007652 
L 608.22077 150.45808 
L 608.82862 152.663249 
L 609.436471 157.744719 
L 610.044321 156.993634 
L 610.652171 161.161056 
L 611.260022 168.857096 
L 611.867872 169.821435 
L 612.475723 170.376593 
L 613.083573 164.847963 
L 613.691424 153.095112 
L 614.299274 143.64628 
L 614.907125 166.40148 
L 615.514975 168.802238 
L 616.122825 160.322359 
L 616.730676 163.529617 
L 617.338526 171.113875 
L 617.946377 162.367682 
L 618.554227 168.472299 
L 619.162078 163.706995 
L 619.769928 168.59594 
L 620.377778 158.112014 
L 620.985629 164.431605 
L 621.593479 167.42192 
L 622.20133 166.678753 
L 622.80918 168.121177 
L 623.417031 173.370329 
L 624.024881 169.881226 
L 624.632731 174.207273 
L 625.240582 167.575744 
L 625.848432 166.302362 
L 626.456283 153.735147 
L 627.671984 164.224266 
L 628.279834 164.446263 
L 628.887684 165.397769 
L 629.495535 169.457954 
L 630.103385 172.701372 
L 630.711236 171.43881 
L 631.319086 172.942093 
L 631.926937 92.281157 
L 632.534787 126.340141 
L 633.142637 138.355846 
L 633.750488 141.570965 
L 634.358338 133.161172 
L 634.966189 121.620254 
L 635.574039 145.349759 
L 636.18189 146.712467 
L 636.78974 158.502999 
L 637.39759 136.87517 
L 638.005441 126.214195 
L 638.613291 147.006333 
L 639.221142 140.544451 
L 639.828992 145.204844 
L 640.436843 151.188463 
L 641.044693 145.69894 
L 641.652543 151.520655 
L 642.260394 147.189813 
L 642.868244 147.220359 
L 643.476095 149.685006 
L 644.083945 97.425826 
L 644.691796 149.731876 
L 645.299646 146.422093 
L 645.907496 150.10288 
L 646.515347 154.63259 
L 647.123197 142.993004 
L 647.731048 138.977731 
L 648.338898 149.173903 
L 648.946749 147.028288 
L 649.554599 151.339409 
L 650.16245 131.709204 
L 651.37815 149.8723 
L 651.986001 150.88088 
L 652.593851 150.034326 
L 653.201702 134.040868 
L 653.809552 143.540001 
L 654.417403 157.842734 
L 655.025253 159.091931 
L 655.633103 149.61008 
L 656.240954 118.112782 
L 656.848804 148.065974 
L 657.456655 138.867655 
L 658.064505 152.351203 
L 658.672356 146.745361 
L 659.280206 146.88512 
L 659.888056 156.564387 
L 660.495907 160.826526 
L 661.103757 156.187622 
L 661.711608 148.574282 
L 662.319458 135.084699 
L 662.927309 143.183916 
L 663.535159 157.064447 
L 664.143009 154.87701 
L 664.75086 159.295665 
L 665.35871 145.097075 
L 665.966561 140.941161 
L 666.574411 159.880425 
L 667.182262 153.952588 
L 667.790112 152.719232 
L 668.397962 124.064666 
L 669.005813 149.608986 
L 669.613663 135.753066 
L 670.221514 150.522742 
L 670.829364 142.753673 
L 671.437215 145.508971 
L 672.045065 152.46866 
L 672.652915 161.796251 
L 673.260766 155.978978 
L 673.868616 154.579585 
L 674.476467 136.10238 
L 675.084317 141.104406 
L 675.692168 137.228738 
L 676.300018 152.001389 
L 676.907868 162.905564 
L 678.123569 139.365182 
L 678.73142 155.323903 
L 679.947121 152.131763 
L 680.554971 119.345037 
L 681.770672 139.746135 
L 682.378522 139.972559 
L 682.986373 134.024219 
L 683.594223 130.275124 
L 684.202074 147.467497 
L 684.809924 149.900217 
L 685.417775 154.03537 
L 686.025625 154.452904 
L 686.633475 140.436099 
L 687.241326 146.104029 
L 687.849176 148.237047 
L 688.457027 153.801265 
L 689.064877 158.001501 
L 689.672728 147.761321 
L 690.280578 140.819768 
L 690.888428 152.618579 
L 691.496279 148.293192 
L 692.104129 156.12573 
L 692.71198 113.864707 
L 693.31983 154.93744 
L 693.927681 138.207191 
L 694.535531 149.749196 
L 695.143381 141.052819 
L 695.751232 143.080517 
L 696.359082 136.208782 
L 696.966933 162.28031 
L 697.574783 149.377902 
L 698.182634 163.079124 
L 698.790484 158.202043 
L 699.398334 149.911638 
L 700.006185 138.947327 
L 700.614035 158.901042 
L 701.221886 157.863407 
L 701.829736 149.950112 
L 702.437587 146.885867 
L 703.045437 146.875373 
L 703.653287 144.812915 
L 704.261138 128.834323 
L 704.868988 138.722378 
L 705.476839 123.646792 
L 706.084689 127.732778 
L 707.30039 145.179486 
L 707.90824 136.715041 
L 708.516091 150.179215 
L 709.123941 116.233436 
L 709.731792 153.58851 
L 710.339642 146.123895 
L 710.947493 154.659509 
L 711.555343 144.552325 
L 712.163193 145.615615 
L 712.771044 153.57836 
L 713.378894 156.183429 
L 713.986745 153.58023 
L 714.594595 132.121617 
L 715.202446 146.158818 
L 715.810296 152.845593 
L 716.418146 153.062924 
L 717.025997 147.184075 
L 717.633847 107.792731 
L 718.241698 134.902722 
L 718.849548 140.186743 
L 719.457399 147.21936 
L 720.065249 133.344936 
L 720.6731 143.137515 
L 721.28095 145.028262 
L 721.8888 152.725667 
L 722.496651 146.74133 
L 723.104501 148.253964 
L 723.712352 141.550236 
L 724.320202 152.491665 
L 724.928053 151.907967 
L 725.535903 154.194075 
L 726.143753 155.264648 
L 726.751604 141.015472 
L 727.359454 140.49928 
L 727.967305 158.328536 
L 728.575155 156.628598 
L 729.183006 149.305355 
L 729.790856 125.199457 
L 730.398706 145.195337 
L 731.006557 153.327671 
L 731.614407 147.686527 
L 732.222258 135.799032 
L 732.830108 146.866007 
L 733.437959 130.379182 
L 734.045809 147.441876 
L 734.653659 151.67768 
L 735.26151 154.685492 
L 735.86936 152.927381 
L 736.477211 140.892195 
L 737.085061 153.153723 
L 737.692912 159.347331 
L 738.300762 155.512202 
L 738.908612 150.713515 
L 739.516463 154.160349 
L 740.124313 156.192199 
L 740.732164 154.425465 
L 741.340014 155.197682 
L 741.947865 128.397207 
L 742.555715 132.897584 
L 743.163565 146.827349 
L 743.771416 147.517417 
L 744.379266 150.502873 
L 744.987117 138.905925 
L 745.594967 140.358755 
L 746.202818 149.026644 
L 746.810668 141.911257 
L 747.418518 163.3509 
L 748.026369 148.351394 
L 748.634219 156.873861 
L 749.24207 149.045486 
L 749.84992 161.164211 
L 750.457771 157.394533 
L 751.065621 152.622463 
L 751.673471 144.44777 
L 752.281322 154.863747 
L 752.889172 151.065097 
L 753.497023 158.410251 
L 754.104873 147.501433 
L 754.712724 148.563413 
L 755.320574 148.011569 
L 755.928425 155.320395 
L 756.536275 154.758718 
L 757.144125 152.555445 
L 757.751976 140.586184 
L 758.359826 144.872028 
L 758.967677 138.018117 
L 759.575527 149.155959 
L 760.183378 152.665732 
L 761.399078 164.864117 
L 762.006929 160.931544 
L 762.614779 160.918351 
L 763.83048 147.035218 
L 764.438331 148.02079 
L 765.046181 155.707457 
L 765.654031 157.668646 
L 766.261882 148.705579 
L 766.869732 156.249111 
L 767.477583 144.905987 
L 768.085433 140.912837 
L 768.693284 145.027115 
L 769.301134 140.028218 
L 769.908984 126.196818 
L 770.516835 125.072565 
L 771.124685 149.362495 
L 771.732536 153.485206 
L 772.340386 158.793788 
L 772.948237 161.604705 
L 773.556087 165.471509 
L 774.163937 159.800316 
L 774.771788 160.167683 
L 775.379638 159.380294 
L 775.987489 142.72849 
L 776.595339 144.859855 
L 777.20319 153.196411 
L 777.81104 156.989537 
L 778.41889 163.346249 
L 779.026741 162.351497 
L 779.634591 154.966241 
L 780.850292 148.531184 
L 781.458143 155.656889 
L 782.065993 130.554995 
L 782.673843 132.247838 
L 783.889544 150.064336 
L 784.497395 168.314615 
L 785.105245 155.528809 
L 785.713096 160.205964 
L 786.320946 160.171189 
L 786.928796 165.654378 
L 786.928796 165.654378 
" clip-path="url(#pefca805541)" style="fill: none; stroke: #008fd5; stroke-opacity: 0.25; stroke-width: 4"/>
   </g>
   <g id="line2d_52">
    <path d="M 476.317226 15.152727 
L 476.925077 18.306752 
L 477.532927 23.180689 
L 478.140778 29.364953 
L 478.748628 32.805901 
L 481.18003 49.063712 
L 481.78788 50.436688 
L 482.395731 51.000727 
L 483.003581 52.310121 
L 483.611431 55.432267 
L 484.219282 59.399236 
L 484.827132 61.131162 
L 485.434983 62.1198 
L 486.042833 63.775715 
L 486.650684 67.468745 
L 487.258534 69.129274 
L 488.474235 75.685056 
L 489.689936 84.13139 
L 490.297786 88.367118 
L 490.905637 91.069322 
L 491.513487 92.271583 
L 494.552739 103.458013 
L 495.16059 105.297614 
L 496.37629 110.997826 
L 497.591991 112.709274 
L 498.199842 113.825435 
L 500.023393 119.445534 
L 500.631243 121.121693 
L 503.062645 129.704543 
L 503.670496 130.749121 
L 505.494047 134.826837 
L 506.101897 135.717302 
L 508.533299 141.776001 
L 509.14115 142.512028 
L 509.749 141.413137 
L 510.35685 141.542313 
L 511.572551 143.026273 
L 512.180402 143.064615 
L 514.003953 145.887954 
L 514.611803 147.048403 
L 515.219654 147.744269 
L 515.827504 147.85982 
L 516.435355 148.372108 
L 517.043205 149.292535 
L 517.651056 149.878297 
L 518.258906 150.810545 
L 518.866756 151.253232 
L 520.690308 153.941 
L 521.298158 154.538428 
L 521.906009 154.546136 
L 524.945261 156.486422 
L 525.553111 157.131464 
L 526.160962 157.581568 
L 526.768812 158.224805 
L 527.984513 158.310115 
L 528.592363 158.081786 
L 529.200214 158.057899 
L 529.808064 158.472022 
L 531.023765 158.338269 
L 531.631615 158.769051 
L 532.847316 159.904953 
L 533.455167 160.099194 
L 534.063017 160.414747 
L 534.670868 160.493722 
L 535.278718 159.983168 
L 535.886568 159.832685 
L 537.71012 160.794255 
L 538.925821 161.65118 
L 539.533671 161.900879 
L 540.141521 162.012938 
L 540.749372 161.692219 
L 542.572923 162.404997 
L 543.180774 161.808463 
L 543.788624 162.199933 
L 544.396475 162.380998 
L 545.004325 162.802728 
L 546.220026 163.211539 
L 546.827876 162.53802 
L 548.043577 163.022715 
L 548.651428 163.079989 
L 549.867128 163.685905 
L 551.69068 164.701515 
L 553.514231 164.301406 
L 554.729932 164.574564 
L 555.337782 164.496067 
L 556.553483 164.858224 
L 557.161334 165.232289 
L 557.769184 165.356698 
L 558.377034 164.936591 
L 558.984885 164.30314 
L 559.592735 164.205211 
L 560.200586 164.236135 
L 560.808436 163.974438 
L 561.416287 163.958683 
L 562.024137 164.22473 
L 562.631987 164.335221 
L 563.239838 164.56398 
L 563.847688 164.977923 
L 564.455539 165.008232 
L 565.063389 164.350924 
L 568.102641 164.100079 
L 569.318342 164.790219 
L 570.534043 164.957716 
L 571.749744 164.15512 
L 572.357594 164.251786 
L 572.965445 164.543849 
L 574.181146 164.072866 
L 576.004697 165.073033 
L 577.220398 165.025305 
L 577.828248 164.843614 
L 578.436099 164.801648 
L 580.25965 165.176769 
L 580.8675 165.275414 
L 582.083201 165.763808 
L 582.691052 165.618848 
L 583.298902 164.679688 
L 583.906753 164.629906 
L 584.514603 164.713032 
L 585.122453 163.963459 
L 585.730304 163.700088 
L 586.338154 163.88465 
L 586.946005 163.803582 
L 587.553855 164.000254 
L 588.161706 164.455938 
L 590.593107 162.96283 
L 591.808808 163.083645 
L 592.416659 162.671883 
L 593.632359 163.248341 
L 594.84806 164.030707 
L 596.671612 164.124488 
L 597.279462 163.94434 
L 598.495163 164.476604 
L 599.103013 164.717794 
L 599.710864 164.834168 
L 600.926565 165.351085 
L 602.142265 165.293918 
L 602.750116 165.219433 
L 603.357966 165.470404 
L 605.181518 164.915411 
L 605.789368 165.155638 
L 606.397218 165.04645 
L 607.612919 164.522526 
L 608.82862 163.261503 
L 610.044321 162.686064 
L 610.652171 162.609814 
L 612.475723 163.622613 
L 613.083573 163.68388 
L 613.691424 163.154443 
L 614.299274 162.179034 
L 615.514975 162.710762 
L 616.122825 162.591342 
L 616.730676 162.638256 
L 617.338526 163.062037 
L 617.946377 163.027321 
L 618.554227 163.29957 
L 619.162078 163.319941 
L 619.769928 163.583742 
L 620.377778 163.310157 
L 620.985629 163.366228 
L 622.80918 163.944335 
L 623.417031 164.415635 
L 624.024881 164.688915 
L 624.632731 165.164833 
L 625.848432 165.336228 
L 626.456283 164.756174 
L 627.064133 164.452315 
L 628.887684 164.489011 
L 629.495535 164.737458 
L 631.319086 165.825375 
L 631.926937 162.148165 
L 632.534787 160.357764 
L 634.358338 157.112724 
L 634.966189 155.338101 
L 636.18189 154.432373 
L 636.78974 154.635905 
L 637.39759 153.747869 
L 638.005441 152.371186 
L 638.613291 152.102944 
L 639.221142 151.52502 
L 639.828992 151.209013 
L 640.436843 151.207985 
L 641.044693 150.932533 
L 641.652543 150.961941 
L 642.868244 150.595686 
L 643.476095 150.550153 
L 644.083945 147.893936 
L 644.691796 147.985832 
L 645.299646 147.907644 
L 645.907496 148.017409 
L 646.515347 148.348167 
L 647.123197 148.08041 
L 647.731048 147.625275 
L 649.554599 147.852508 
L 650.16245 147.045343 
L 650.7703 146.712959 
L 652.593851 147.219568 
L 653.201702 146.560636 
L 653.809552 146.409605 
L 655.025253 147.586794 
L 655.633103 147.687958 
L 656.240954 146.209198 
L 656.848804 146.30204 
L 657.456655 145.930321 
L 658.064505 146.251363 
L 659.280206 146.306518 
L 659.888056 146.819411 
L 660.495907 147.519768 
L 661.103757 147.953162 
L 661.711608 147.984219 
L 662.319458 147.339243 
L 662.927309 147.131479 
L 664.75086 148.555824 
L 665.35871 148.382885 
L 665.966561 148.0108 
L 666.574411 148.604283 
L 667.790112 149.064076 
L 668.397962 147.814106 
L 669.005813 147.903853 
L 669.613663 147.296316 
L 670.221514 147.457636 
L 670.829364 147.222436 
L 671.437215 147.136764 
L 672.045065 147.403361 
L 672.652915 148.123007 
L 673.868616 148.818996 
L 674.476467 148.183166 
L 675.084317 147.829229 
L 675.692168 147.299206 
L 676.300018 147.534315 
L 676.907868 148.302879 
L 677.515719 148.454052 
L 678.123569 147.99961 
L 679.33927 148.625929 
L 679.947121 148.801222 
L 680.554971 147.328415 
L 681.162821 146.398074 
L 682.378522 145.760832 
L 682.986373 145.173999 
L 683.594223 144.429054 
L 684.809924 144.846937 
L 686.025625 145.763687 
L 686.633475 145.497308 
L 687.849176 145.663115 
L 688.457027 146.070023 
L 689.064877 146.666596 
L 689.672728 146.721332 
L 690.280578 146.426253 
L 690.888428 146.735872 
L 691.496279 146.813739 
L 692.104129 147.27934 
L 692.71198 145.608607 
L 693.31983 146.075049 
L 693.927681 145.681658 
L 694.535531 145.885036 
L 696.359082 145.049953 
L 696.966933 145.911469 
L 697.574783 146.08479 
L 698.182634 146.934504 
L 698.790484 147.497882 
L 699.398334 147.618572 
L 700.006185 147.185011 
L 701.221886 148.275443 
L 701.829736 148.359178 
L 703.653287 148.044901 
L 704.261138 147.084373 
L 704.868988 146.666275 
L 705.476839 145.515299 
L 706.084689 144.626173 
L 706.69254 144.260643 
L 707.30039 144.306587 
L 707.90824 143.927011 
L 708.516091 144.239621 
L 709.123941 142.83931 
L 709.731792 143.376771 
L 710.339642 143.514129 
L 710.947493 144.071399 
L 712.163193 144.171454 
L 713.986745 145.636947 
L 714.594595 144.96118 
L 715.202446 145.021061 
L 716.418146 145.794822 
L 717.025997 145.864284 
L 717.633847 143.960708 
L 718.241698 143.50781 
L 718.849548 143.341757 
L 719.457399 143.535637 
L 720.065249 143.026103 
L 721.28095 143.131502 
L 721.8888 143.611212 
L 723.104501 143.992032 
L 723.712352 143.869943 
L 726.143753 145.662397 
L 727.359454 145.183513 
L 728.575155 146.380155 
L 729.183006 146.526415 
L 729.790856 145.460065 
L 730.398706 145.446826 
L 731.006557 145.84087 
L 731.614407 145.933154 
L 732.222258 145.426447 
L 732.830108 145.498426 
L 733.437959 144.742464 
L 734.045809 144.877436 
L 734.653659 145.21745 
L 735.86936 146.052681 
L 736.477211 145.794659 
L 737.085061 146.162612 
L 737.692912 146.82185 
L 738.300762 147.25637 
L 738.908612 147.429227 
L 741.340014 148.833958 
L 741.947865 147.812121 
L 742.555715 147.066394 
L 743.771416 147.077591 
L 744.379266 147.248854 
L 745.594967 146.508062 
L 746.202818 146.633993 
L 746.810668 146.397856 
L 747.418518 147.245507 
L 748.026369 147.3008 
L 748.634219 147.779454 
L 749.24207 147.842755 
L 749.84992 148.508828 
L 750.457771 148.953114 
L 751.065621 149.136582 
L 751.673471 148.902141 
L 752.281322 149.200223 
L 752.889172 149.293468 
L 753.497023 149.749309 
L 755.320574 149.504655 
L 756.536275 150.043606 
L 757.144125 150.1692 
L 757.751976 149.690048 
L 758.359826 149.449147 
L 758.967677 148.877598 
L 759.575527 148.891518 
L 760.183378 149.080229 
L 760.791228 149.551147 
L 761.399078 150.316796 
L 762.614779 151.351072 
L 763.22263 151.458643 
L 764.438331 151.076638 
L 765.654031 151.626203 
L 766.261882 151.480173 
L 766.869732 151.718622 
L 767.477583 151.377991 
L 768.085433 150.854733 
L 768.693284 150.563351 
L 769.301134 150.036595 
L 770.516835 147.656004 
L 771.124685 147.741329 
L 771.732536 148.028523 
L 772.948237 149.218683 
L 773.556087 150.031326 
L 775.379638 151.421082 
L 776.595339 150.680123 
L 777.20319 150.805941 
L 777.81104 151.115119 
L 779.026741 152.257917 
L 779.634591 152.393333 
L 780.242442 152.369695 
L 780.850292 152.177769 
L 781.458143 152.351726 
L 782.673843 150.311187 
L 783.281694 149.876926 
L 783.889544 149.886295 
L 784.497395 150.807712 
L 785.105245 151.043766 
L 786.320946 151.935343 
L 786.928796 152.621295 
L 786.928796 152.621295 
" clip-path="url(#pefca805541)" style="fill: none; stroke: #008fd5; stroke-width: 4"/>
   </g>
   <g id="patch_9">
    <path d="M 460.786648 182.16 
L 460.786648 7.2 
" style="fill: none; stroke: #f0f0f0; stroke-width: 3; stroke-linejoin: miter; stroke-linecap: square"/>
   </g>
   <g id="patch_10">
    <path d="M 802.459375 182.16 
L 802.459375 7.2 
" style="fill: none; stroke: #f0f0f0; stroke-width: 3; stroke-linejoin: miter; stroke-linecap: square"/>
   </g>
   <g id="patch_11">
    <path d="M 460.786648 182.16 
L 802.459375 182.16 
" style="fill: none; stroke: #f0f0f0; stroke-width: 3; stroke-linejoin: miter; stroke-linecap: square"/>
   </g>
   <g id="patch_12">
    <path d="M 460.786648 7.2 
L 802.459375 7.2 
" style="fill: none; stroke: #f0f0f0; stroke-width: 3; stroke-linejoin: miter; stroke-linecap: square"/>
   </g>
   <g id="legend_2">
    <g id="patch_13">
     <path d="M 677.505 38.949375 
L 792.659375 38.949375 
Q 795.459375 38.949375 795.459375 36.149375 
L 795.459375 17 
Q 795.459375 14.2 792.659375 14.2 
L 677.505 14.2 
Q 674.705 14.2 674.705 17 
L 674.705 36.149375 
Q 674.705 38.949375 677.505 38.949375 
z
" style="fill: #f0f0f0; opacity: 0.8; stroke: #cccccc; stroke-width: 0.5; stroke-linejoin: miter"/>
    </g>
    <g id="line2d_53">
     <path d="M 680.305 25.537813 
L 694.305 25.537813 
L 708.305 25.537813 
" style="fill: none; stroke: #008fd5; stroke-width: 4"/>
    </g>
    <g id="text_26">
     <!-- perplexity -->
     <g transform="translate(719.505 30.437813) scale(0.14 -0.14)">
      <defs>
       <path id="DejaVuSans-70" d="M 1159 525 
L 1159 -1331 
L 581 -1331 
L 581 3500 
L 1159 3500 
L 1159 2969 
Q 1341 3281 1617 3432 
Q 1894 3584 2278 3584 
Q 2916 3584 3314 3078 
Q 3713 2572 3713 1747 
Q 3713 922 3314 415 
Q 2916 -91 2278 -91 
Q 1894 -91 1617 61 
Q 1341 213 1159 525 
z
M 3116 1747 
Q 3116 2381 2855 2742 
Q 2594 3103 2138 3103 
Q 1681 3103 1420 2742 
Q 1159 2381 1159 1747 
Q 1159 1113 1420 752 
Q 1681 391 2138 391 
Q 2594 391 2855 752 
Q 3116 1113 3116 1747 
z
" transform="scale(0.015625)"/>
       <path id="DejaVuSans-65" d="M 3597 1894 
L 3597 1613 
L 953 1613 
Q 991 1019 1311 708 
Q 1631 397 2203 397 
Q 2534 397 2845 478 
Q 3156 559 3463 722 
L 3463 178 
Q 3153 47 2828 -22 
Q 2503 -91 2169 -91 
Q 1331 -91 842 396 
Q 353 884 353 1716 
Q 353 2575 817 3079 
Q 1281 3584 2069 3584 
Q 2775 3584 3186 3129 
Q 3597 2675 3597 1894 
z
M 3022 2063 
Q 3016 2534 2758 2815 
Q 2500 3097 2075 3097 
Q 1594 3097 1305 2825 
Q 1016 2553 972 2059 
L 3022 2063 
z
" transform="scale(0.015625)"/>
       <path id="DejaVuSans-6c" d="M 603 4863 
L 1178 4863 
L 1178 0 
L 603 0 
L 603 4863 
z
" transform="scale(0.015625)"/>
       <path id="DejaVuSans-78" d="M 3513 3500 
L 2247 1797 
L 3578 0 
L 2900 0 
L 1881 1375 
L 863 0 
L 184 0 
L 1544 1831 
L 300 3500 
L 978 3500 
L 1906 2253 
L 2834 3500 
L 3513 3500 
z
" transform="scale(0.015625)"/>
       <path id="DejaVuSans-69" d="M 603 3500 
L 1178 3500 
L 1178 0 
L 603 0 
L 603 3500 
z
M 603 4863 
L 1178 4863 
L 1178 4134 
L 603 4134 
L 603 4863 
z
" transform="scale(0.015625)"/>
       <path id="DejaVuSans-74" d="M 1172 4494 
L 1172 3500 
L 2356 3500 
L 2356 3053 
L 1172 3053 
L 1172 1153 
Q 1172 725 1289 603 
Q 1406 481 1766 481 
L 2356 481 
L 2356 0 
L 1766 0 
Q 1100 0 847 248 
Q 594 497 594 1153 
L 594 3053 
L 172 3053 
L 172 3500 
L 594 3500 
L 594 4494 
L 1172 4494 
z
" transform="scale(0.015625)"/>
      </defs>
      <use xlink:href="#DejaVuSans-70"/>
      <use xlink:href="#DejaVuSans-65" x="63.476562"/>
      <use xlink:href="#DejaVuSans-72" x="125"/>
      <use xlink:href="#DejaVuSans-70" x="166.113281"/>
      <use xlink:href="#DejaVuSans-6c" x="229.589844"/>
      <use xlink:href="#DejaVuSans-65" x="257.373047"/>
      <use xlink:href="#DejaVuSans-78" x="317.146484"/>
      <use xlink:href="#DejaVuSans-69" x="376.326172"/>
      <use xlink:href="#DejaVuSans-74" x="404.109375"/>
      <use xlink:href="#DejaVuSans-79" x="443.318359"/>
     </g>
    </g>
   </g>
  </g>
 </g>
 <defs>
  <clipPath id="p0cca83f7e5">
   <rect x="50.779375" y="7.2" width="341.672727" height="174.96"/>
  </clipPath>
  <clipPath id="pefca805541">
   <rect x="460.786648" y="7.2" width="341.672727" height="174.96"/>
  </clipPath>
 </defs>
</svg>
