<?xml version="1.0" encoding="utf-8" standalone="no"?>
<!DOCTYPE svg PUBLIC "-//W3C//DTD SVG 1.1//EN"
  "http://www.w3.org/Graphics/SVG/1.1/DTD/svg11.dtd">
<svg xmlns:xlink="http://www.w3.org/1999/xlink" width="800.751875pt" height="206.409375pt" viewBox="0 0 800.751875 206.409375" xmlns="http://www.w3.org/2000/svg" version="1.1">
 <metadata>
  <rdf:RDF xmlns:dc="http://purl.org/dc/elements/1.1/" xmlns:cc="http://creativecommons.org/ns#" xmlns:rdf="http://www.w3.org/1999/02/22-rdf-syntax-ns#">
   <cc:Work>
    <dc:type rdf:resource="http://purl.org/dc/dcmitype/StillImage"/>
    <dc:date>2023-01-19T14:56:45.671971</dc:date>
    <dc:format>image/svg+xml</dc:format>
    <dc:creator>
     <cc:Agent>
      <dc:title>Matplotlib v3.6.0, https://matplotlib.org/</dc:title>
     </cc:Agent>
    </dc:creator>
   </cc:Work>
  </rdf:RDF>
 </metadata>
 <defs>
  <style type="text/css">*{stroke-linejoin: round; stroke-linecap: butt}</style>
 </defs>
 <g id="figure_1">
  <g id="patch_1">
   <path d="M 0 206.409375 
L 800.751875 206.409375 
L 800.751875 0 
L 0 0 
L 0 206.409375 
z
" style="fill: none"/>
  </g>
  <g id="axes_1">
   <g id="patch_2">
    <path d="M 41.871875 182.16 
L 383.544602 182.16 
L 383.544602 7.2 
L 41.871875 7.2 
L 41.871875 182.16 
z
" style="fill: none"/>
   </g>
   <g id="matplotlib.axis_1">
    <g id="xtick_1">
     <g id="line2d_1">
      <path d="M 57.402454 182.16 
L 57.402454 7.2 
" clip-path="url(#p15fe85b339)" style="fill: none; stroke: #cbcbcb"/>
     </g>
     <g id="line2d_2"/>
     <g id="text_1">
      <!-- 0 -->
      <g transform="translate(52.948704 196.297813) scale(0.14 -0.14)">
       <defs>
        <path id="DejaVuSans-30" d="M 2034 4250 
Q 1547 4250 1301 3770 
Q 1056 3291 1056 2328 
Q 1056 1369 1301 889 
Q 1547 409 2034 409 
Q 2525 409 2770 889 
Q 3016 1369 3016 2328 
Q 3016 3291 2770 3770 
Q 2525 4250 2034 4250 
z
M 2034 4750 
Q 2819 4750 3233 4129 
Q 3647 3509 3647 2328 
Q 3647 1150 3233 529 
Q 2819 -91 2034 -91 
Q 1250 -91 836 529 
Q 422 1150 422 2328 
Q 422 3509 836 4129 
Q 1250 4750 2034 4750 
z
" transform="scale(0.015625)"/>
       </defs>
       <use xlink:href="#DejaVuSans-30"/>
      </g>
     </g>
    </g>
    <g id="xtick_2">
     <g id="line2d_3">
      <path d="M 118.187497 182.16 
L 118.187497 7.2 
" clip-path="url(#p15fe85b339)" style="fill: none; stroke: #cbcbcb"/>
     </g>
     <g id="line2d_4"/>
     <g id="text_2">
      <!-- 100 -->
      <g transform="translate(104.826247 196.297813) scale(0.14 -0.14)">
       <defs>
        <path id="DejaVuSans-31" d="M 794 531 
L 1825 531 
L 1825 4091 
L 703 3866 
L 703 4441 
L 1819 4666 
L 2450 4666 
L 2450 531 
L 3481 531 
L 3481 0 
L 794 0 
L 794 531 
z
" transform="scale(0.015625)"/>
       </defs>
       <use xlink:href="#DejaVuSans-31"/>
       <use xlink:href="#DejaVuSans-30" x="63.623047"/>
       <use xlink:href="#DejaVuSans-30" x="127.246094"/>
      </g>
     </g>
    </g>
    <g id="xtick_3">
     <g id="line2d_5">
      <path d="M 178.97254 182.16 
L 178.97254 7.2 
" clip-path="url(#p15fe85b339)" style="fill: none; stroke: #cbcbcb"/>
     </g>
     <g id="line2d_6"/>
     <g id="text_3">
      <!-- 200 -->
      <g transform="translate(165.61129 196.297813) scale(0.14 -0.14)">
       <defs>
        <path id="DejaVuSans-32" d="M 1228 531 
L 3431 531 
L 3431 0 
L 469 0 
L 469 531 
Q 828 903 1448 1529 
Q 2069 2156 2228 2338 
Q 2531 2678 2651 2914 
Q 2772 3150 2772 3378 
Q 2772 3750 2511 3984 
Q 2250 4219 1831 4219 
Q 1534 4219 1204 4116 
Q 875 4013 500 3803 
L 500 4441 
Q 881 4594 1212 4672 
Q 1544 4750 1819 4750 
Q 2544 4750 2975 4387 
Q 3406 4025 3406 3419 
Q 3406 3131 3298 2873 
Q 3191 2616 2906 2266 
Q 2828 2175 2409 1742 
Q 1991 1309 1228 531 
z
" transform="scale(0.015625)"/>
       </defs>
       <use xlink:href="#DejaVuSans-32"/>
       <use xlink:href="#DejaVuSans-30" x="63.623047"/>
       <use xlink:href="#DejaVuSans-30" x="127.246094"/>
      </g>
     </g>
    </g>
    <g id="xtick_4">
     <g id="line2d_7">
      <path d="M 239.757583 182.16 
L 239.757583 7.2 
" clip-path="url(#p15fe85b339)" style="fill: none; stroke: #cbcbcb"/>
     </g>
     <g id="line2d_8"/>
     <g id="text_4">
      <!-- 300 -->
      <g transform="translate(226.396333 196.297813) scale(0.14 -0.14)">
       <defs>
        <path id="DejaVuSans-33" d="M 2597 2516 
Q 3050 2419 3304 2112 
Q 3559 1806 3559 1356 
Q 3559 666 3084 287 
Q 2609 -91 1734 -91 
Q 1441 -91 1130 -33 
Q 819 25 488 141 
L 488 750 
Q 750 597 1062 519 
Q 1375 441 1716 441 
Q 2309 441 2620 675 
Q 2931 909 2931 1356 
Q 2931 1769 2642 2001 
Q 2353 2234 1838 2234 
L 1294 2234 
L 1294 2753 
L 1863 2753 
Q 2328 2753 2575 2939 
Q 2822 3125 2822 3475 
Q 2822 3834 2567 4026 
Q 2313 4219 1838 4219 
Q 1578 4219 1281 4162 
Q 984 4106 628 3988 
L 628 4550 
Q 988 4650 1302 4700 
Q 1616 4750 1894 4750 
Q 2613 4750 3031 4423 
Q 3450 4097 3450 3541 
Q 3450 3153 3228 2886 
Q 3006 2619 2597 2516 
z
" transform="scale(0.015625)"/>
       </defs>
       <use xlink:href="#DejaVuSans-33"/>
       <use xlink:href="#DejaVuSans-30" x="63.623047"/>
       <use xlink:href="#DejaVuSans-30" x="127.246094"/>
      </g>
     </g>
    </g>
    <g id="xtick_5">
     <g id="line2d_9">
      <path d="M 300.542626 182.16 
L 300.542626 7.2 
" clip-path="url(#p15fe85b339)" style="fill: none; stroke: #cbcbcb"/>
     </g>
     <g id="line2d_10"/>
     <g id="text_5">
      <!-- 400 -->
      <g transform="translate(287.181376 196.297813) scale(0.14 -0.14)">
       <defs>
        <path id="DejaVuSans-34" d="M 2419 4116 
L 825 1625 
L 2419 1625 
L 2419 4116 
z
M 2253 4666 
L 3047 4666 
L 3047 1625 
L 3713 1625 
L 3713 1100 
L 3047 1100 
L 3047 0 
L 2419 0 
L 2419 1100 
L 313 1100 
L 313 1709 
L 2253 4666 
z
" transform="scale(0.015625)"/>
       </defs>
       <use xlink:href="#DejaVuSans-34"/>
       <use xlink:href="#DejaVuSans-30" x="63.623047"/>
       <use xlink:href="#DejaVuSans-30" x="127.246094"/>
      </g>
     </g>
    </g>
    <g id="xtick_6">
     <g id="line2d_11">
      <path d="M 361.327669 182.16 
L 361.327669 7.2 
" clip-path="url(#p15fe85b339)" style="fill: none; stroke: #cbcbcb"/>
     </g>
     <g id="line2d_12"/>
     <g id="text_6">
      <!-- 500 -->
      <g transform="translate(347.966419 196.297813) scale(0.14 -0.14)">
       <defs>
        <path id="DejaVuSans-35" d="M 691 4666 
L 3169 4666 
L 3169 4134 
L 1269 4134 
L 1269 2991 
Q 1406 3038 1543 3061 
Q 1681 3084 1819 3084 
Q 2600 3084 3056 2656 
Q 3513 2228 3513 1497 
Q 3513 744 3044 326 
Q 2575 -91 1722 -91 
Q 1428 -91 1123 -41 
Q 819 9 494 109 
L 494 744 
Q 775 591 1075 516 
Q 1375 441 1709 441 
Q 2250 441 2565 725 
Q 2881 1009 2881 1497 
Q 2881 1984 2565 2268 
Q 2250 2553 1709 2553 
Q 1456 2553 1204 2497 
Q 953 2441 691 2322 
L 691 4666 
z
" transform="scale(0.015625)"/>
       </defs>
       <use xlink:href="#DejaVuSans-35"/>
       <use xlink:href="#DejaVuSans-30" x="63.623047"/>
       <use xlink:href="#DejaVuSans-30" x="127.246094"/>
      </g>
     </g>
    </g>
   </g>
   <g id="matplotlib.axis_2">
    <g id="ytick_1">
     <g id="line2d_13">
      <path d="M 41.871875 174.207273 
L 383.544602 174.207273 
" clip-path="url(#p15fe85b339)" style="fill: none; stroke: #cbcbcb"/>
     </g>
     <g id="line2d_14"/>
     <g id="text_7">
      <!-- 0.00 -->
      <g transform="translate(7.2 179.526179) scale(0.14 -0.14)">
       <defs>
        <path id="DejaVuSans-2e" d="M 684 794 
L 1344 794 
L 1344 0 
L 684 0 
L 684 794 
z
" transform="scale(0.015625)"/>
       </defs>
       <use xlink:href="#DejaVuSans-30"/>
       <use xlink:href="#DejaVuSans-2e" x="63.623047"/>
       <use xlink:href="#DejaVuSans-30" x="95.410156"/>
       <use xlink:href="#DejaVuSans-30" x="159.033203"/>
      </g>
     </g>
    </g>
    <g id="ytick_2">
     <g id="line2d_15">
      <path d="M 41.871875 140.231224 
L 383.544602 140.231224 
" clip-path="url(#p15fe85b339)" style="fill: none; stroke: #cbcbcb"/>
     </g>
     <g id="line2d_16"/>
     <g id="text_8">
      <!-- 0.02 -->
      <g transform="translate(7.2 145.55013) scale(0.14 -0.14)">
       <use xlink:href="#DejaVuSans-30"/>
       <use xlink:href="#DejaVuSans-2e" x="63.623047"/>
       <use xlink:href="#DejaVuSans-30" x="95.410156"/>
       <use xlink:href="#DejaVuSans-32" x="159.033203"/>
      </g>
     </g>
    </g>
    <g id="ytick_3">
     <g id="line2d_17">
      <path d="M 41.871875 106.255175 
L 383.544602 106.255175 
" clip-path="url(#p15fe85b339)" style="fill: none; stroke: #cbcbcb"/>
     </g>
     <g id="line2d_18"/>
     <g id="text_9">
      <!-- 0.04 -->
      <g transform="translate(7.2 111.574081) scale(0.14 -0.14)">
       <use xlink:href="#DejaVuSans-30"/>
       <use xlink:href="#DejaVuSans-2e" x="63.623047"/>
       <use xlink:href="#DejaVuSans-30" x="95.410156"/>
       <use xlink:href="#DejaVuSans-34" x="159.033203"/>
      </g>
     </g>
    </g>
    <g id="ytick_4">
     <g id="line2d_19">
      <path d="M 41.871875 72.279126 
L 383.544602 72.279126 
" clip-path="url(#p15fe85b339)" style="fill: none; stroke: #cbcbcb"/>
     </g>
     <g id="line2d_20"/>
     <g id="text_10">
      <!-- 0.06 -->
      <g transform="translate(7.2 77.598033) scale(0.14 -0.14)">
       <defs>
        <path id="DejaVuSans-36" d="M 2113 2584 
Q 1688 2584 1439 2293 
Q 1191 2003 1191 1497 
Q 1191 994 1439 701 
Q 1688 409 2113 409 
Q 2538 409 2786 701 
Q 3034 994 3034 1497 
Q 3034 2003 2786 2293 
Q 2538 2584 2113 2584 
z
M 3366 4563 
L 3366 3988 
Q 3128 4100 2886 4159 
Q 2644 4219 2406 4219 
Q 1781 4219 1451 3797 
Q 1122 3375 1075 2522 
Q 1259 2794 1537 2939 
Q 1816 3084 2150 3084 
Q 2853 3084 3261 2657 
Q 3669 2231 3669 1497 
Q 3669 778 3244 343 
Q 2819 -91 2113 -91 
Q 1303 -91 875 529 
Q 447 1150 447 2328 
Q 447 3434 972 4092 
Q 1497 4750 2381 4750 
Q 2619 4750 2861 4703 
Q 3103 4656 3366 4563 
z
" transform="scale(0.015625)"/>
       </defs>
       <use xlink:href="#DejaVuSans-30"/>
       <use xlink:href="#DejaVuSans-2e" x="63.623047"/>
       <use xlink:href="#DejaVuSans-30" x="95.410156"/>
       <use xlink:href="#DejaVuSans-36" x="159.033203"/>
      </g>
     </g>
    </g>
    <g id="ytick_5">
     <g id="line2d_21">
      <path d="M 41.871875 38.303077 
L 383.544602 38.303077 
" clip-path="url(#p15fe85b339)" style="fill: none; stroke: #cbcbcb"/>
     </g>
     <g id="line2d_22"/>
     <g id="text_11">
      <!-- 0.08 -->
      <g transform="translate(7.2 43.621984) scale(0.14 -0.14)">
       <defs>
        <path id="DejaVuSans-38" d="M 2034 2216 
Q 1584 2216 1326 1975 
Q 1069 1734 1069 1313 
Q 1069 891 1326 650 
Q 1584 409 2034 409 
Q 2484 409 2743 651 
Q 3003 894 3003 1313 
Q 3003 1734 2745 1975 
Q 2488 2216 2034 2216 
z
M 1403 2484 
Q 997 2584 770 2862 
Q 544 3141 544 3541 
Q 544 4100 942 4425 
Q 1341 4750 2034 4750 
Q 2731 4750 3128 4425 
Q 3525 4100 3525 3541 
Q 3525 3141 3298 2862 
Q 3072 2584 2669 2484 
Q 3125 2378 3379 2068 
Q 3634 1759 3634 1313 
Q 3634 634 3220 271 
Q 2806 -91 2034 -91 
Q 1263 -91 848 271 
Q 434 634 434 1313 
Q 434 1759 690 2068 
Q 947 2378 1403 2484 
z
M 1172 3481 
Q 1172 3119 1398 2916 
Q 1625 2713 2034 2713 
Q 2441 2713 2670 2916 
Q 2900 3119 2900 3481 
Q 2900 3844 2670 4047 
Q 2441 4250 2034 4250 
Q 1625 4250 1398 4047 
Q 1172 3844 1172 3481 
z
" transform="scale(0.015625)"/>
       </defs>
       <use xlink:href="#DejaVuSans-30"/>
       <use xlink:href="#DejaVuSans-2e" x="63.623047"/>
       <use xlink:href="#DejaVuSans-30" x="95.410156"/>
       <use xlink:href="#DejaVuSans-38" x="159.033203"/>
      </g>
     </g>
    </g>
   </g>
   <g id="line2d_23">
    <path d="M 57.402454 15.152727 
L 212.404313 15.152727 
L 213.012164 174.207273 
L 368.014024 174.207273 
L 368.014024 174.207273 
" clip-path="url(#p15fe85b339)" style="fill: none; stroke: #008fd5; stroke-width: 4"/>
   </g>
   <g id="patch_3">
    <path d="M 41.871875 182.16 
L 41.871875 7.2 
" style="fill: none; stroke: #f0f0f0; stroke-width: 3; stroke-linejoin: miter; stroke-linecap: square"/>
   </g>
   <g id="patch_4">
    <path d="M 383.544602 182.16 
L 383.544602 7.2 
" style="fill: none; stroke: #f0f0f0; stroke-width: 3; stroke-linejoin: miter; stroke-linecap: square"/>
   </g>
   <g id="patch_5">
    <path d="M 41.871875 182.16 
L 383.544602 182.16 
" style="fill: none; stroke: #f0f0f0; stroke-width: 3; stroke-linejoin: miter; stroke-linecap: square"/>
   </g>
   <g id="patch_6">
    <path d="M 41.871875 7.2 
L 383.544602 7.2 
" style="fill: none; stroke: #f0f0f0; stroke-width: 3; stroke-linejoin: miter; stroke-linecap: square"/>
   </g>
   <g id="legend_1">
    <g id="patch_7">
     <path d="M 265.778352 38.949375 
L 373.744602 38.949375 
Q 376.544602 38.949375 376.544602 36.149375 
L 376.544602 17 
Q 376.544602 14.2 373.744602 14.2 
L 265.778352 14.2 
Q 262.978352 14.2 262.978352 17 
L 262.978352 36.149375 
Q 262.978352 38.949375 265.778352 38.949375 
z
" style="fill: #f0f0f0; opacity: 0.8; stroke: #cccccc; stroke-width: 0.5; stroke-linejoin: miter"/>
    </g>
    <g id="line2d_24">
     <path d="M 268.578352 25.537813 
L 282.578352 25.537813 
L 296.578352 25.537813 
" style="fill: none; stroke: #008fd5; stroke-width: 4"/>
    </g>
    <g id="text_12">
     <!-- accuracy -->
     <g transform="translate(307.778352 30.437813) scale(0.14 -0.14)">
      <defs>
       <path id="DejaVuSans-61" d="M 2194 1759 
Q 1497 1759 1228 1600 
Q 959 1441 959 1056 
Q 959 750 1161 570 
Q 1363 391 1709 391 
Q 2188 391 2477 730 
Q 2766 1069 2766 1631 
L 2766 1759 
L 2194 1759 
z
M 3341 1997 
L 3341 0 
L 2766 0 
L 2766 531 
Q 2569 213 2275 61 
Q 1981 -91 1556 -91 
Q 1019 -91 701 211 
Q 384 513 384 1019 
Q 384 1609 779 1909 
Q 1175 2209 1959 2209 
L 2766 2209 
L 2766 2266 
Q 2766 2663 2505 2880 
Q 2244 3097 1772 3097 
Q 1472 3097 1187 3025 
Q 903 2953 641 2809 
L 641 3341 
Q 956 3463 1253 3523 
Q 1550 3584 1831 3584 
Q 2591 3584 2966 3190 
Q 3341 2797 3341 1997 
z
" transform="scale(0.015625)"/>
       <path id="DejaVuSans-63" d="M 3122 3366 
L 3122 2828 
Q 2878 2963 2633 3030 
Q 2388 3097 2138 3097 
Q 1578 3097 1268 2742 
Q 959 2388 959 1747 
Q 959 1106 1268 751 
Q 1578 397 2138 397 
Q 2388 397 2633 464 
Q 2878 531 3122 666 
L 3122 134 
Q 2881 22 2623 -34 
Q 2366 -91 2075 -91 
Q 1284 -91 818 406 
Q 353 903 353 1747 
Q 353 2603 823 3093 
Q 1294 3584 2113 3584 
Q 2378 3584 2631 3529 
Q 2884 3475 3122 3366 
z
" transform="scale(0.015625)"/>
       <path id="DejaVuSans-75" d="M 544 1381 
L 544 3500 
L 1119 3500 
L 1119 1403 
Q 1119 906 1312 657 
Q 1506 409 1894 409 
Q 2359 409 2629 706 
Q 2900 1003 2900 1516 
L 2900 3500 
L 3475 3500 
L 3475 0 
L 2900 0 
L 2900 538 
Q 2691 219 2414 64 
Q 2138 -91 1772 -91 
Q 1169 -91 856 284 
Q 544 659 544 1381 
z
M 1991 3584 
L 1991 3584 
z
" transform="scale(0.015625)"/>
       <path id="DejaVuSans-72" d="M 2631 2963 
Q 2534 3019 2420 3045 
Q 2306 3072 2169 3072 
Q 1681 3072 1420 2755 
Q 1159 2438 1159 1844 
L 1159 0 
L 581 0 
L 581 3500 
L 1159 3500 
L 1159 2956 
Q 1341 3275 1631 3429 
Q 1922 3584 2338 3584 
Q 2397 3584 2469 3576 
Q 2541 3569 2628 3553 
L 2631 2963 
z
" transform="scale(0.015625)"/>
       <path id="DejaVuSans-79" d="M 2059 -325 
Q 1816 -950 1584 -1140 
Q 1353 -1331 966 -1331 
L 506 -1331 
L 506 -850 
L 844 -850 
Q 1081 -850 1212 -737 
Q 1344 -625 1503 -206 
L 1606 56 
L 191 3500 
L 800 3500 
L 1894 763 
L 2988 3500 
L 3597 3500 
L 2059 -325 
z
" transform="scale(0.015625)"/>
      </defs>
      <use xlink:href="#DejaVuSans-61"/>
      <use xlink:href="#DejaVuSans-63" x="61.279297"/>
      <use xlink:href="#DejaVuSans-63" x="116.259766"/>
      <use xlink:href="#DejaVuSans-75" x="171.240234"/>
      <use xlink:href="#DejaVuSans-72" x="234.619141"/>
      <use xlink:href="#DejaVuSans-61" x="275.732422"/>
      <use xlink:href="#DejaVuSans-63" x="337.011719"/>
      <use xlink:href="#DejaVuSans-79" x="391.992188"/>
     </g>
    </g>
   </g>
  </g>
  <g id="axes_2">
   <g id="patch_8">
    <path d="M 451.879148 182.16 
L 793.551875 182.16 
L 793.551875 7.2 
L 451.879148 7.2 
L 451.879148 182.16 
z
" style="fill: none"/>
   </g>
   <g id="matplotlib.axis_3">
    <g id="xtick_7">
     <g id="line2d_25">
      <path d="M 467.409726 182.16 
L 467.409726 7.2 
" clip-path="url(#p035e32cfc7)" style="fill: none; stroke: #cbcbcb"/>
     </g>
     <g id="line2d_26"/>
     <g id="text_13">
      <!-- 0 -->
      <g transform="translate(462.955976 196.297813) scale(0.14 -0.14)">
       <use xlink:href="#DejaVuSans-30"/>
      </g>
     </g>
    </g>
    <g id="xtick_8">
     <g id="line2d_27">
      <path d="M 528.194769 182.16 
L 528.194769 7.2 
" clip-path="url(#p035e32cfc7)" style="fill: none; stroke: #cbcbcb"/>
     </g>
     <g id="line2d_28"/>
     <g id="text_14">
      <!-- 100 -->
      <g transform="translate(514.833519 196.297813) scale(0.14 -0.14)">
       <use xlink:href="#DejaVuSans-31"/>
       <use xlink:href="#DejaVuSans-30" x="63.623047"/>
       <use xlink:href="#DejaVuSans-30" x="127.246094"/>
      </g>
     </g>
    </g>
    <g id="xtick_9">
     <g id="line2d_29">
      <path d="M 588.979812 182.16 
L 588.979812 7.2 
" clip-path="url(#p035e32cfc7)" style="fill: none; stroke: #cbcbcb"/>
     </g>
     <g id="line2d_30"/>
     <g id="text_15">
      <!-- 200 -->
      <g transform="translate(575.618562 196.297813) scale(0.14 -0.14)">
       <use xlink:href="#DejaVuSans-32"/>
       <use xlink:href="#DejaVuSans-30" x="63.623047"/>
       <use xlink:href="#DejaVuSans-30" x="127.246094"/>
      </g>
     </g>
    </g>
    <g id="xtick_10">
     <g id="line2d_31">
      <path d="M 649.764856 182.16 
L 649.764856 7.2 
" clip-path="url(#p035e32cfc7)" style="fill: none; stroke: #cbcbcb"/>
     </g>
     <g id="line2d_32"/>
     <g id="text_16">
      <!-- 300 -->
      <g transform="translate(636.403606 196.297813) scale(0.14 -0.14)">
       <use xlink:href="#DejaVuSans-33"/>
       <use xlink:href="#DejaVuSans-30" x="63.623047"/>
       <use xlink:href="#DejaVuSans-30" x="127.246094"/>
      </g>
     </g>
    </g>
    <g id="xtick_11">
     <g id="line2d_33">
      <path d="M 710.549899 182.16 
L 710.549899 7.2 
" clip-path="url(#p035e32cfc7)" style="fill: none; stroke: #cbcbcb"/>
     </g>
     <g id="line2d_34"/>
     <g id="text_17">
      <!-- 400 -->
      <g transform="translate(697.188649 196.297813) scale(0.14 -0.14)">
       <use xlink:href="#DejaVuSans-34"/>
       <use xlink:href="#DejaVuSans-30" x="63.623047"/>
       <use xlink:href="#DejaVuSans-30" x="127.246094"/>
      </g>
     </g>
    </g>
    <g id="xtick_12">
     <g id="line2d_35">
      <path d="M 771.334942 182.16 
L 771.334942 7.2 
" clip-path="url(#p035e32cfc7)" style="fill: none; stroke: #cbcbcb"/>
     </g>
     <g id="line2d_36"/>
     <g id="text_18">
      <!-- 500 -->
      <g transform="translate(757.973692 196.297813) scale(0.14 -0.14)">
       <use xlink:href="#DejaVuSans-35"/>
       <use xlink:href="#DejaVuSans-30" x="63.623047"/>
       <use xlink:href="#DejaVuSans-30" x="127.246094"/>
      </g>
     </g>
    </g>
   </g>
   <g id="matplotlib.axis_4">
    <g id="ytick_6">
     <g id="line2d_37">
      <path d="M 451.879148 180.276629 
L 793.551875 180.276629 
" clip-path="url(#p035e32cfc7)" style="fill: none; stroke: #cbcbcb"/>
     </g>
     <g id="line2d_38"/>
     <g id="text_19">
      <!-- 0 -->
      <g transform="translate(439.471648 185.595535) scale(0.14 -0.14)">
       <use xlink:href="#DejaVuSans-30"/>
      </g>
     </g>
    </g>
    <g id="ytick_7">
     <g id="line2d_39">
      <path d="M 451.879148 150.612523 
L 793.551875 150.612523 
" clip-path="url(#p035e32cfc7)" style="fill: none; stroke: #cbcbcb"/>
     </g>
     <g id="line2d_40"/>
     <g id="text_20">
      <!-- 20 -->
      <g transform="translate(430.564148 155.931429) scale(0.14 -0.14)">
       <use xlink:href="#DejaVuSans-32"/>
       <use xlink:href="#DejaVuSans-30" x="63.623047"/>
      </g>
     </g>
    </g>
    <g id="ytick_8">
     <g id="line2d_41">
      <path d="M 451.879148 120.948417 
L 793.551875 120.948417 
" clip-path="url(#p035e32cfc7)" style="fill: none; stroke: #cbcbcb"/>
     </g>
     <g id="line2d_42"/>
     <g id="text_21">
      <!-- 40 -->
      <g transform="translate(430.564148 126.267323) scale(0.14 -0.14)">
       <use xlink:href="#DejaVuSans-34"/>
       <use xlink:href="#DejaVuSans-30" x="63.623047"/>
      </g>
     </g>
    </g>
    <g id="ytick_9">
     <g id="line2d_43">
      <path d="M 451.879148 91.284311 
L 793.551875 91.284311 
" clip-path="url(#p035e32cfc7)" style="fill: none; stroke: #cbcbcb"/>
     </g>
     <g id="line2d_44"/>
     <g id="text_22">
      <!-- 60 -->
      <g transform="translate(430.564148 96.603217) scale(0.14 -0.14)">
       <use xlink:href="#DejaVuSans-36"/>
       <use xlink:href="#DejaVuSans-30" x="63.623047"/>
      </g>
     </g>
    </g>
    <g id="ytick_10">
     <g id="line2d_45">
      <path d="M 451.879148 61.620205 
L 793.551875 61.620205 
" clip-path="url(#p035e32cfc7)" style="fill: none; stroke: #cbcbcb"/>
     </g>
     <g id="line2d_46"/>
     <g id="text_23">
      <!-- 80 -->
      <g transform="translate(430.564148 66.939111) scale(0.14 -0.14)">
       <use xlink:href="#DejaVuSans-38"/>
       <use xlink:href="#DejaVuSans-30" x="63.623047"/>
      </g>
     </g>
    </g>
    <g id="ytick_11">
     <g id="line2d_47">
      <path d="M 451.879148 31.956099 
L 793.551875 31.956099 
" clip-path="url(#p035e32cfc7)" style="fill: none; stroke: #cbcbcb"/>
     </g>
     <g id="line2d_48"/>
     <g id="text_24">
      <!-- 100 -->
      <g transform="translate(421.656648 37.275006) scale(0.14 -0.14)">
       <use xlink:href="#DejaVuSans-31"/>
       <use xlink:href="#DejaVuSans-30" x="63.623047"/>
       <use xlink:href="#DejaVuSans-30" x="127.246094"/>
      </g>
     </g>
    </g>
   </g>
   <g id="line2d_49">
    <path d="M 467.409726 15.152727 
L 468.017577 80.509912 
L 468.625427 119.126338 
L 469.233278 109.458447 
L 469.841128 92.904451 
L 470.448978 102.832269 
L 471.056829 137.662817 
L 471.664679 132.881896 
L 472.27253 27.415311 
L 472.88038 78.421688 
L 473.488231 88.259007 
L 474.096081 125.033868 
L 474.703931 126.053204 
L 475.311782 130.167947 
L 475.919632 124.525052 
L 476.527483 128.751313 
L 477.135333 135.185335 
L 477.743184 131.664839 
L 478.351034 115.244071 
L 478.958884 128.624722 
L 479.566735 114.622395 
L 480.174585 88.794744 
L 480.782436 93.657528 
L 481.390286 95.123352 
L 481.998137 50.785277 
L 482.605987 94.385698 
L 483.213837 128.63107 
L 483.821688 131.428748 
L 485.037389 81.155227 
L 485.645239 129.112411 
L 486.25309 104.949044 
L 486.86094 150.194274 
L 487.46879 163.411746 
L 488.076641 167.07645 
L 488.684491 165.519823 
L 489.292342 165.151591 
L 489.900192 161.60464 
L 490.508043 160.743224 
L 491.115893 90.986271 
L 491.723743 58.5301 
L 492.331594 73.675016 
L 492.939444 109.574385 
L 493.547295 83.355875 
L 494.155145 80.858794 
L 494.762996 70.413101 
L 495.370846 84.812748 
L 495.978696 107.661173 
L 496.586547 88.352601 
L 497.194397 123.288823 
L 497.802248 118.52395 
L 498.410098 131.519881 
L 499.017949 131.70535 
L 499.625799 160.693839 
L 500.23365 160.33949 
L 500.8415 162.094571 
L 501.44935 164.417822 
L 502.057201 163.985328 
L 502.665051 170.858615 
L 503.272902 166.729327 
L 503.880752 131.182377 
L 504.488603 79.355322 
L 505.096453 118.552359 
L 505.704303 86.175422 
L 506.312154 106.194959 
L 506.920004 89.073642 
L 507.527855 124.890263 
L 508.135705 110.413169 
L 508.743556 118.589758 
L 509.351406 108.020365 
L 509.959256 132.489851 
L 510.567107 129.39668 
L 511.174957 125.339552 
L 511.782808 160.449245 
L 512.390658 155.917209 
L 512.998509 166.256869 
L 513.606359 167.691413 
L 514.214209 161.125003 
L 514.82206 158.016095 
L 515.42991 166.332656 
L 516.037761 167.283036 
L 516.645611 151.327875 
L 517.253462 147.391345 
L 517.861312 150.894234 
L 518.469162 159.426783 
L 519.077013 145.579977 
L 519.684863 145.081441 
L 520.292714 118.387865 
L 520.900564 149.912741 
L 521.508415 163.573324 
L 522.116265 157.578061 
L 522.724115 159.173444 
L 523.331966 134.529477 
L 523.939816 145.420996 
L 524.547667 132.366864 
L 525.155517 166.758783 
L 525.763368 166.090339 
L 526.371218 168.946926 
L 526.979068 166.786363 
L 527.586919 169.751765 
L 528.194769 170.959768 
L 528.80262 169.660461 
L 529.41047 165.84648 
L 530.018321 148.332009 
L 530.626171 146.768758 
L 531.234021 105.914617 
L 531.841872 132.071885 
L 532.449722 143.169596 
L 533.057573 121.200129 
L 533.665423 146.503246 
L 534.273274 131.086294 
L 534.881124 126.191864 
L 535.488975 139.656548 
L 536.096825 128.397412 
L 536.704675 158.413299 
L 537.312526 160.491916 
L 537.920376 170.889855 
L 538.528227 166.20751 
L 539.136077 164.653795 
L 539.743928 160.362637 
L 540.351778 167.791694 
L 540.959628 171.186456 
L 541.567479 160.931243 
L 542.175329 154.264021 
L 542.78318 145.395204 
L 543.39103 148.171487 
L 543.998881 122.950821 
L 544.606731 122.766077 
L 545.214581 132.963478 
L 545.822432 127.899708 
L 546.430282 116.429134 
L 547.038133 121.329346 
L 547.645983 130.87817 
L 548.253834 151.091929 
L 548.861684 155.166254 
L 549.469534 151.51542 
L 550.077385 172.139641 
L 550.685235 167.518485 
L 551.293086 156.977046 
L 551.900936 170.631798 
L 552.508787 167.642893 
L 553.116637 168.169248 
L 553.724487 171.950079 
L 555.548039 144.076422 
L 556.155889 146.997151 
L 556.76374 138.245759 
L 557.37159 145.624321 
L 557.97944 156.54486 
L 558.587291 139.072528 
L 559.195141 111.162461 
L 559.802992 151.429283 
L 560.410842 155.139048 
L 561.018693 146.202977 
L 561.626543 156.062673 
L 562.234393 154.646521 
L 562.842244 165.782318 
L 563.450094 165.999474 
L 564.057945 171.041495 
L 564.665795 169.781753 
L 565.273646 158.77219 
L 565.881496 161.65783 
L 566.489346 167.384117 
L 567.097197 156.64584 
L 567.705047 163.90476 
L 568.312898 164.979739 
L 568.920748 160.373381 
L 569.528599 160.729267 
L 570.136449 152.672797 
L 570.7443 140.074361 
L 571.35215 146.511136 
L 571.96 160.590332 
L 572.567851 162.310504 
L 573.175701 160.063101 
L 573.783552 166.599287 
L 574.391402 138.389619 
L 574.999253 158.814236 
L 575.607103 163.835988 
L 576.214953 166.971611 
L 576.822804 167.293676 
L 577.430654 168.592128 
L 578.038505 165.929654 
L 578.646355 174.207273 
L 579.254206 173.176339 
L 580.469906 164.063207 
L 581.077757 164.24146 
L 581.685607 136.513252 
L 582.293458 153.577923 
L 582.901308 110.481772 
L 583.509159 134.225015 
L 584.117009 145.97597 
L 584.724859 149.417699 
L 585.33271 140.28892 
L 585.94056 140.90381 
L 586.548411 140.142879 
L 587.156261 153.873086 
L 587.764112 162.514644 
L 588.371962 169.262626 
L 589.587663 171.408549 
L 590.195513 171.021572 
L 590.803364 162.834465 
L 591.411214 170.643633 
L 592.019065 171.594961 
L 592.626915 142.157683 
L 593.234765 148.788515 
L 593.842616 133.262202 
L 594.450466 134.408339 
L 595.058317 117.220193 
L 595.666167 152.214896 
L 596.274018 107.380498 
L 596.881868 148.891425 
L 597.489718 144.857654 
L 598.097569 139.11253 
L 598.705419 144.694328 
L 599.31327 135.09945 
L 599.92112 148.961114 
L 600.528971 153.130488 
L 601.136821 168.050388 
L 601.744671 171.713048 
L 602.352522 171.575887 
L 602.960372 164.40096 
L 603.568223 169.797331 
L 604.176073 171.987773 
L 604.783924 169.554844 
L 605.391774 158.220165 
L 605.999625 162.5764 
L 606.607475 144.020915 
L 607.215325 139.024945 
L 607.823176 155.938478 
L 609.038877 150.450597 
L 609.646727 138.18364 
L 610.254578 119.053763 
L 610.862428 149.133691 
L 611.470278 147.611005 
L 612.078129 151.256766 
L 612.685979 161.101607 
L 613.29383 152.160178 
L 613.90168 167.425205 
L 614.509531 163.072206 
L 615.117381 166.802487 
L 615.725231 156.80897 
L 616.333082 168.800634 
L 616.940932 171.288868 
L 617.548783 168.610244 
L 618.156633 161.626263 
L 618.764484 151.498995 
L 619.372334 165.453821 
L 619.980184 163.442194 
L 620.588035 164.298603 
L 621.195885 148.372039 
L 621.803736 144.013019 
L 622.411586 153.656374 
L 623.019437 100.268888 
L 623.627287 137.86006 
L 624.235137 115.09014 
L 624.842988 125.405716 
L 625.450838 118.98292 
L 626.058689 127.303137 
L 626.666539 144.497509 
L 627.27439 149.981044 
L 627.88224 154.448016 
L 629.097941 148.669683 
L 629.705791 158.175569 
L 630.313642 162.663704 
L 630.921492 142.962361 
L 631.529343 140.781965 
L 632.137193 131.0185 
L 632.745043 114.807009 
L 633.352894 124.728982 
L 633.960744 75.126164 
L 634.568595 128.237077 
L 635.176445 131.324947 
L 635.784296 136.748341 
L 636.392146 117.947419 
L 636.999996 129.280046 
L 637.607847 113.097433 
L 638.215697 137.406531 
L 638.823548 134.746132 
L 639.431398 147.017963 
L 640.039249 153.67584 
L 640.647099 155.063615 
L 641.25495 142.211154 
L 641.8628 149.038917 
L 642.47065 146.036547 
L 643.078501 130.93991 
L 643.686351 91.995344 
L 644.294202 114.972991 
L 644.902052 131.385029 
L 645.509903 127.616634 
L 646.117753 105.674838 
L 646.725603 130.222201 
L 647.333454 113.100743 
L 647.941304 112.660304 
L 648.549155 109.045851 
L 649.157005 122.905942 
L 649.764856 111.759791 
L 650.372706 103.067511 
L 650.980556 136.715307 
L 651.588407 134.510384 
L 652.196257 153.84805 
L 653.411958 133.638636 
L 654.019809 133.366821 
L 654.627659 142.79403 
L 655.235509 144.418077 
L 655.84336 126.214672 
L 656.45121 144.859753 
L 657.059061 141.086053 
L 657.666911 133.801394 
L 658.274762 135.449388 
L 658.882612 143.972194 
L 659.490462 131.126646 
L 660.098313 108.79394 
L 660.706163 137.440677 
L 661.314014 138.501508 
L 662.529715 117.323197 
L 663.137565 120.66644 
L 663.745415 95.967177 
L 664.353266 138.538709 
L 664.961116 146.112013 
L 665.568967 159.525731 
L 666.176817 148.685412 
L 666.784668 153.124221 
L 667.392518 158.731903 
L 668.000368 150.274453 
L 668.608219 151.923771 
L 669.216069 129.716853 
L 669.82392 136.06022 
L 670.43177 84.331356 
L 671.039621 118.349317 
L 671.647471 91.882733 
L 672.255321 101.731741 
L 672.863172 121.649152 
L 673.471022 111.4936 
L 674.078873 97.334252 
L 675.294574 117.301651 
L 675.902424 119.532751 
L 676.510275 126.846464 
L 677.118125 119.992196 
L 678.333826 141.955356 
L 678.941676 141.103737 
L 679.549527 129.044165 
L 680.157377 147.85279 
L 680.765228 138.419272 
L 681.373078 119.035426 
L 681.980928 111.332297 
L 682.588779 111.817502 
L 683.196629 127.559907 
L 683.80448 101.072553 
L 684.41233 107.842789 
L 685.020181 131.301698 
L 685.628031 119.364918 
L 686.235881 110.070556 
L 686.843732 119.976523 
L 687.451582 102.837961 
L 688.059433 100.628119 
L 688.667283 125.25204 
L 689.275134 124.952512 
L 689.882984 131.993969 
L 690.490834 146.393048 
L 691.098685 143.519646 
L 691.706535 122.073172 
L 692.314386 141.557994 
L 692.922236 147.166463 
L 693.530087 143.253399 
L 694.137937 111.191537 
L 694.745787 94.064834 
L 695.353638 111.873052 
L 695.961488 121.761129 
L 696.569339 116.304902 
L 697.177189 122.791413 
L 698.39289 144.293007 
L 699.00074 106.602882 
L 699.608591 122.630297 
L 700.216441 110.824357 
L 700.824292 116.876924 
L 701.432142 129.113424 
L 702.039993 119.946174 
L 702.647843 140.073911 
L 703.255693 139.859248 
L 704.471394 154.349895 
L 705.079245 156.76121 
L 705.687095 150.115373 
L 706.294946 155.335037 
L 706.902796 138.478964 
L 708.118497 146.522573 
L 708.726347 157.989646 
L 709.334198 159.683132 
L 709.942048 150.206246 
L 710.549899 158.059319 
L 711.157749 157.651441 
L 711.7656 103.400064 
L 712.37345 137.336689 
L 713.589151 100.955161 
L 714.197001 105.961177 
L 714.804852 84.714447 
L 715.412702 123.557322 
L 716.020553 119.028625 
L 717.236253 148.67686 
L 717.844104 152.025739 
L 718.451954 151.664149 
L 719.059805 149.613881 
L 719.667655 145.037608 
L 720.275506 136.260199 
L 720.883356 150.479113 
L 721.491206 147.605963 
L 722.099057 161.271447 
L 722.706907 153.827921 
L 723.314758 163.826773 
L 724.530459 130.808634 
L 725.138309 134.381164 
L 725.746159 107.952078 
L 726.35401 113.500191 
L 726.96186 87.499276 
L 727.569711 105.417377 
L 728.177561 114.821103 
L 728.785412 143.672103 
L 729.393262 155.953873 
L 730.001112 159.852034 
L 730.608963 159.584386 
L 731.216813 153.672016 
L 731.824664 160.084781 
L 733.040365 151.542864 
L 733.648215 165.256623 
L 734.256065 166.890472 
L 734.863916 166.719611 
L 735.471766 159.700847 
L 736.079617 158.69097 
L 737.295318 121.641525 
L 737.903168 113.972417 
L 738.511018 113.909076 
L 739.118869 134.313922 
L 739.726719 116.709798 
L 740.33457 123.007378 
L 740.94242 98.462646 
L 741.550271 88.214654 
L 742.158121 146.092771 
L 742.765971 143.487291 
L 743.373822 161.980445 
L 743.981672 160.410082 
L 744.589523 163.314078 
L 745.197373 160.351307 
L 745.805224 167.154976 
L 746.413074 152.281494 
L 747.020925 150.150017 
L 748.236625 113.946374 
L 748.844476 53.285832 
L 749.452326 78.92217 
L 750.060177 58.770824 
L 750.668027 72.558844 
L 751.275878 89.883893 
L 751.883728 67.807726 
L 752.491578 52.817295 
L 753.099429 91.714578 
L 753.707279 117.77145 
L 754.31513 122.927193 
L 754.92298 111.24513 
L 755.530831 96.068212 
L 756.138681 141.956669 
L 756.746531 133.688746 
L 757.354382 128.331192 
L 757.962232 111.4712 
L 758.570083 100.100965 
L 759.177933 126.839075 
L 759.785784 130.232759 
L 760.393634 119.419897 
L 761.001484 93.236914 
L 761.609335 57.447876 
L 762.217185 122.209699 
L 762.825036 138.034612 
L 764.040737 127.71407 
L 764.648587 91.960519 
L 765.256437 120.558299 
L 765.864288 139.664336 
L 766.472138 147.125601 
L 767.079989 122.114589 
L 767.687839 80.004575 
L 768.29569 105.751588 
L 768.90354 117.080175 
L 769.51139 113.108772 
L 770.119241 107.283588 
L 770.727091 90.90943 
L 771.334942 82.184719 
L 771.942792 97.231984 
L 772.550643 93.13391 
L 773.158493 94.768636 
L 773.766343 80.718759 
L 774.374194 104.692641 
L 774.982044 82.417703 
L 775.589895 115.927283 
L 776.197745 133.197554 
L 776.805596 117.601445 
L 777.413446 63.133817 
L 778.021296 56.00061 
L 778.021296 56.00061 
" clip-path="url(#p035e32cfc7)" style="fill: none; stroke: #008fd5; stroke-opacity: 0.25; stroke-width: 4"/>
   </g>
   <g id="line2d_50">
    <path d="M 467.409726 15.152727 
L 468.017577 18.420595 
L 469.233278 27.756012 
L 470.448978 34.604373 
L 471.664679 44.413532 
L 472.27253 43.563613 
L 472.88038 45.30652 
L 473.488231 47.454153 
L 475.311782 58.824089 
L 477.743184 72.065276 
L 478.351034 74.224214 
L 478.958884 76.944242 
L 479.566735 78.828145 
L 480.174585 79.326478 
L 481.390286 80.797043 
L 481.998137 79.296456 
L 482.605987 80.050925 
L 483.821688 84.927368 
L 484.429538 86.069193 
L 485.037389 85.823501 
L 485.645239 87.98795 
L 486.25309 88.836002 
L 487.46879 95.479312 
L 488.684491 102.382205 
L 489.900192 108.324871 
L 490.508043 110.945789 
L 491.115893 109.947812 
L 491.723743 107.376928 
L 492.331594 105.691829 
L 492.939444 105.88596 
L 494.155145 103.564423 
L 494.762996 101.906861 
L 495.370846 101.052156 
L 495.978696 101.38261 
L 496.586547 100.731111 
L 497.194397 101.858995 
L 497.802248 102.692246 
L 499.017949 105.512216 
L 500.8415 113.435701 
L 503.272902 123.294566 
L 503.880752 123.688955 
L 504.488603 121.472278 
L 505.096453 121.326285 
L 505.704303 119.568741 
L 506.312154 118.900053 
L 506.920004 117.408734 
L 507.527855 117.782812 
L 508.135705 117.41433 
L 508.743556 117.473099 
L 509.351406 117.000466 
L 509.959256 117.774936 
L 510.567107 118.356021 
L 511.174957 118.705198 
L 513.606359 126.881923 
L 516.037761 133.648781 
L 516.645611 134.532736 
L 517.861312 135.961596 
L 518.469162 137.134857 
L 519.684863 137.933331 
L 520.292714 136.956057 
L 520.900564 137.603892 
L 521.508415 138.902365 
L 522.724115 140.803013 
L 523.331966 140.489337 
L 523.939816 140.73592 
L 524.547667 140.317468 
L 526.371218 144.166316 
L 529.41047 149.688374 
L 530.626171 149.477968 
L 531.234021 147.299799 
L 531.841872 146.538404 
L 532.449722 146.369966 
L 533.057573 145.111476 
L 533.665423 145.181064 
L 534.273274 144.476326 
L 534.881124 143.562104 
L 535.488975 143.366824 
L 536.096825 142.618356 
L 537.312526 144.262293 
L 537.920376 145.593672 
L 539.136077 147.525835 
L 539.743928 148.167676 
L 540.959628 150.250757 
L 541.567479 150.784783 
L 542.175329 150.958746 
L 542.78318 150.680569 
L 543.39103 150.555114 
L 544.606731 147.854462 
L 545.214581 147.109914 
L 545.822432 146.149404 
L 546.430282 144.66339 
L 547.038133 143.496689 
L 547.645983 142.865765 
L 548.253834 143.277074 
L 548.861684 143.871533 
L 549.469534 144.253727 
L 550.077385 145.648025 
L 550.685235 146.741548 
L 551.293086 147.253324 
L 552.508787 149.383279 
L 553.724487 151.403952 
L 554.332338 151.964124 
L 554.940188 152.097861 
L 555.548039 151.69679 
L 556.155889 151.461808 
L 556.76374 150.801007 
L 557.37159 150.542174 
L 557.97944 150.842308 
L 558.587291 150.253818 
L 559.195141 148.299252 
L 559.802992 148.455755 
L 560.410842 148.789918 
L 561.018693 148.660571 
L 562.234393 149.311471 
L 564.057945 151.933899 
L 564.665795 152.826292 
L 565.273646 153.123588 
L 565.881496 153.550298 
L 566.489346 154.241989 
L 567.097197 154.362182 
L 568.312898 155.346331 
L 569.528599 155.854261 
L 570.136449 155.69519 
L 570.7443 154.914149 
L 571.35215 154.493998 
L 573.175701 155.418835 
L 573.783552 155.977857 
L 574.391402 155.098446 
L 574.999253 155.284234 
L 576.214953 156.274816 
L 578.038505 157.83986 
L 579.254206 159.384137 
L 579.862056 159.845582 
L 581.077757 160.265714 
L 581.685607 159.078092 
L 582.293458 158.803084 
L 582.901308 156.38702 
L 583.509159 155.278921 
L 584.117009 154.813773 
L 584.724859 154.54397 
L 586.548411 152.532748 
L 587.156261 152.599766 
L 587.764112 153.09551 
L 590.195513 156.331659 
L 590.803364 156.656799 
L 592.019065 158.068083 
L 592.626915 157.272564 
L 593.234765 156.848361 
L 594.450466 154.606018 
L 595.058317 152.736726 
L 595.666167 152.710637 
L 596.274018 150.44413 
L 596.881868 150.366494 
L 597.489718 150.091052 
L 598.097569 149.542127 
L 598.705419 149.299736 
L 599.31327 148.589725 
L 599.92112 148.608294 
L 600.528971 148.834404 
L 601.744671 150.891099 
L 602.352522 151.925341 
L 602.960372 152.549122 
L 604.783924 155.101068 
L 605.391774 155.257025 
L 605.999625 155.622992 
L 606.607475 155.042887 
L 607.215325 154.241989 
L 607.823176 154.326814 
L 608.431026 154.264723 
L 609.038877 154.074018 
L 609.646727 153.279499 
L 610.254578 151.568215 
L 612.078129 151.254817 
L 612.685979 151.747157 
L 613.29383 151.767809 
L 613.90168 152.550678 
L 614.509531 153.076754 
L 615.117381 153.763041 
L 615.725231 153.915337 
L 617.548783 156.147025 
L 618.156633 156.420987 
L 618.764484 156.174888 
L 619.980184 156.979003 
L 620.588035 157.344983 
L 621.195885 156.896337 
L 621.803736 156.25217 
L 622.411586 156.122382 
L 623.019437 153.329708 
L 623.627287 152.556225 
L 624.235137 150.682922 
L 624.842988 149.419063 
L 625.450838 147.897259 
L 626.058689 146.867552 
L 626.666539 146.749048 
L 627.27439 146.910649 
L 627.88224 147.287518 
L 628.49009 147.506773 
L 629.097941 147.56492 
L 629.705791 148.095452 
L 630.313642 148.823863 
L 631.529343 148.143347 
L 632.137193 147.287105 
L 632.745043 145.663101 
L 633.352894 144.616395 
L 633.960744 141.141883 
L 634.568595 140.496645 
L 635.176445 140.03806 
L 635.784296 139.873574 
L 636.392146 138.777267 
L 636.999996 138.302407 
L 637.607847 137.04216 
L 638.215697 137.060378 
L 638.823548 136.944667 
L 639.431398 137.448332 
L 640.647099 139.099904 
L 641.25495 139.255468 
L 641.8628 139.744642 
L 642.47065 140.059237 
L 643.078501 139.603272 
L 643.686351 137.222876 
L 644.294202 136.110381 
L 644.902052 135.874112 
L 645.509903 135.461238 
L 646.117753 133.971917 
L 646.725603 133.784431 
L 648.549155 130.610757 
L 649.157005 130.225517 
L 649.764856 129.302231 
L 650.372706 127.990496 
L 651.588407 128.730922 
L 652.196257 129.986784 
L 652.804108 130.701811 
L 654.019809 130.97456 
L 655.235509 132.208163 
L 655.84336 131.908488 
L 656.45121 132.55605 
L 657.059061 132.982551 
L 658.274762 133.144788 
L 658.882612 133.68616 
L 659.490462 133.558185 
L 660.098313 132.319971 
L 661.314014 132.87228 
L 661.921864 132.641632 
L 662.529715 131.875712 
L 663.137565 131.315249 
L 663.745415 129.547844 
L 664.353266 129.997387 
L 664.961116 130.803123 
L 665.568967 132.239254 
L 666.784668 134.064696 
L 667.392518 135.298056 
L 668.608219 136.840721 
L 669.216069 136.484529 
L 669.82392 136.463314 
L 670.43177 133.856715 
L 671.039621 133.081345 
L 671.647471 131.021413 
L 672.255321 129.55693 
L 672.863172 129.16154 
L 673.471022 128.278142 
L 674.078873 126.730951 
L 674.686723 125.801362 
L 675.902424 125.084196 
L 676.510275 125.172313 
L 677.118125 124.913308 
L 677.725975 125.216491 
L 678.941676 126.805953 
L 679.549527 126.917868 
L 680.157377 127.964617 
L 680.765228 128.487346 
L 681.373078 128.014752 
L 682.588779 126.412475 
L 683.196629 126.469846 
L 683.80448 125.199981 
L 684.41233 124.332126 
L 685.020181 124.680607 
L 685.628031 124.414823 
L 686.235881 123.697606 
L 686.843732 123.511549 
L 688.059433 121.385383 
L 689.275134 121.747403 
L 689.882984 122.259727 
L 691.098685 124.469061 
L 691.706535 124.34927 
L 692.314386 125.209707 
L 692.922236 126.307547 
L 693.530087 127.154841 
L 694.137937 126.356676 
L 694.745787 124.742086 
L 695.353638 124.098633 
L 695.961488 123.981756 
L 696.569339 123.597913 
L 697.177189 123.557588 
L 697.78504 124.012863 
L 698.39289 125.026869 
L 699.00074 124.105671 
L 699.608591 124.031902 
L 700.216441 123.371526 
L 700.824292 123.046797 
L 701.432142 123.350133 
L 702.039993 123.179935 
L 703.255693 124.816359 
L 703.863544 125.947162 
L 705.079245 128.836992 
L 706.294946 131.172617 
L 706.902796 131.537936 
L 707.510646 132.075648 
L 708.118497 132.797996 
L 709.334198 135.338856 
L 709.942048 136.082224 
L 711.157749 138.2046 
L 711.7656 136.464375 
L 712.37345 136.507993 
L 712.9813 135.631193 
L 713.589151 133.897393 
L 714.197001 132.500585 
L 714.804852 130.111277 
L 715.412702 129.783578 
L 716.020553 129.245832 
L 716.628403 129.463936 
L 719.059805 133.367678 
L 719.667655 133.951175 
L 720.275506 134.066626 
L 721.491206 135.523187 
L 722.099057 136.810598 
L 722.706907 137.661465 
L 723.314758 138.969731 
L 723.922608 139.448147 
L 724.530459 139.016172 
L 725.138309 138.784421 
L 725.746159 137.242806 
L 726.35401 136.055677 
L 726.96186 133.627858 
L 727.569711 132.217335 
L 728.177561 131.347522 
L 728.785412 131.96375 
L 731.824664 137.819872 
L 732.432514 138.710556 
L 733.040365 139.352171 
L 734.863916 143.197549 
L 736.079617 144.756127 
L 736.687467 144.441866 
L 737.295318 143.301848 
L 738.511018 140.439063 
L 739.118869 140.132805 
L 739.726719 138.961655 
L 740.33457 138.163939 
L 740.94242 136.178874 
L 741.550271 133.780663 
L 742.158121 134.396268 
L 742.765971 134.850821 
L 744.589523 138.712273 
L 745.197373 139.794226 
L 745.805224 141.162263 
L 747.020925 142.139818 
L 747.628775 141.549858 
L 748.236625 140.169684 
L 748.844476 135.825493 
L 749.452326 132.980328 
L 750.060177 129.26985 
L 750.668027 126.434303 
L 751.275878 124.606781 
L 751.883728 121.766832 
L 752.491578 118.319358 
L 753.099429 116.989116 
L 753.707279 117.028235 
L 754.31513 117.323186 
L 754.92298 117.019284 
L 755.530831 115.971732 
L 756.138681 117.270979 
L 756.746531 118.091867 
L 757.354382 118.603835 
L 757.962232 118.247202 
L 758.570083 117.339888 
L 759.177933 117.814847 
L 759.785784 118.435742 
L 760.393634 118.48495 
L 761.001484 117.222547 
L 761.609335 114.233816 
L 762.217185 114.632613 
L 762.825036 115.802711 
L 763.432886 116.652432 
L 764.040737 117.205517 
L 764.648587 115.943267 
L 765.256437 116.174022 
L 765.864288 117.348539 
L 766.472138 118.837397 
L 767.079989 119.001257 
L 767.687839 117.051422 
L 768.29569 116.486427 
L 768.90354 116.516115 
L 769.51139 116.345747 
L 770.119241 115.892639 
L 770.727091 114.643476 
L 771.334942 113.020536 
L 772.550643 111.276249 
L 773.158493 110.450868 
L 773.766343 108.964263 
L 774.374194 108.75068 
L 774.982044 107.434034 
L 775.589895 107.858699 
L 776.197745 109.125645 
L 776.805596 109.549439 
L 778.021296 104.667259 
L 778.021296 104.667259 
" clip-path="url(#p035e32cfc7)" style="fill: none; stroke: #008fd5; stroke-width: 4"/>
   </g>
   <g id="patch_9">
    <path d="M 451.879148 182.16 
L 451.879148 7.2 
" style="fill: none; stroke: #f0f0f0; stroke-width: 3; stroke-linejoin: miter; stroke-linecap: square"/>
   </g>
   <g id="patch_10">
    <path d="M 793.551875 182.16 
L 793.551875 7.2 
" style="fill: none; stroke: #f0f0f0; stroke-width: 3; stroke-linejoin: miter; stroke-linecap: square"/>
   </g>
   <g id="patch_11">
    <path d="M 451.879148 182.16 
L 793.551875 182.16 
" style="fill: none; stroke: #f0f0f0; stroke-width: 3; stroke-linejoin: miter; stroke-linecap: square"/>
   </g>
   <g id="patch_12">
    <path d="M 451.879148 7.2 
L 793.551875 7.2 
" style="fill: none; stroke: #f0f0f0; stroke-width: 3; stroke-linejoin: miter; stroke-linecap: square"/>
   </g>
   <g id="legend_2">
    <g id="patch_13">
     <path d="M 668.5975 38.949375 
L 783.751875 38.949375 
Q 786.551875 38.949375 786.551875 36.149375 
L 786.551875 17 
Q 786.551875 14.2 783.751875 14.2 
L 668.5975 14.2 
Q 665.7975 14.2 665.7975 17 
L 665.7975 36.149375 
Q 665.7975 38.949375 668.5975 38.949375 
z
" style="fill: #f0f0f0; opacity: 0.8; stroke: #cccccc; stroke-width: 0.5; stroke-linejoin: miter"/>
    </g>
    <g id="line2d_51">
     <path d="M 671.3975 25.537813 
L 685.3975 25.537813 
L 699.3975 25.537813 
" style="fill: none; stroke: #008fd5; stroke-width: 4"/>
    </g>
    <g id="text_25">
     <!-- perplexity -->
     <g transform="translate(710.5975 30.437813) scale(0.14 -0.14)">
      <defs>
       <path id="DejaVuSans-70" d="M 1159 525 
L 1159 -1331 
L 581 -1331 
L 581 3500 
L 1159 3500 
L 1159 2969 
Q 1341 3281 1617 3432 
Q 1894 3584 2278 3584 
Q 2916 3584 3314 3078 
Q 3713 2572 3713 1747 
Q 3713 922 3314 415 
Q 2916 -91 2278 -91 
Q 1894 -91 1617 61 
Q 1341 213 1159 525 
z
M 3116 1747 
Q 3116 2381 2855 2742 
Q 2594 3103 2138 3103 
Q 1681 3103 1420 2742 
Q 1159 2381 1159 1747 
Q 1159 1113 1420 752 
Q 1681 391 2138 391 
Q 2594 391 2855 752 
Q 3116 1113 3116 1747 
z
" transform="scale(0.015625)"/>
       <path id="DejaVuSans-65" d="M 3597 1894 
L 3597 1613 
L 953 1613 
Q 991 1019 1311 708 
Q 1631 397 2203 397 
Q 2534 397 2845 478 
Q 3156 559 3463 722 
L 3463 178 
Q 3153 47 2828 -22 
Q 2503 -91 2169 -91 
Q 1331 -91 842 396 
Q 353 884 353 1716 
Q 353 2575 817 3079 
Q 1281 3584 2069 3584 
Q 2775 3584 3186 3129 
Q 3597 2675 3597 1894 
z
M 3022 2063 
Q 3016 2534 2758 2815 
Q 2500 3097 2075 3097 
Q 1594 3097 1305 2825 
Q 1016 2553 972 2059 
L 3022 2063 
z
" transform="scale(0.015625)"/>
       <path id="DejaVuSans-6c" d="M 603 4863 
L 1178 4863 
L 1178 0 
L 603 0 
L 603 4863 
z
" transform="scale(0.015625)"/>
       <path id="DejaVuSans-78" d="M 3513 3500 
L 2247 1797 
L 3578 0 
L 2900 0 
L 1881 1375 
L 863 0 
L 184 0 
L 1544 1831 
L 300 3500 
L 978 3500 
L 1906 2253 
L 2834 3500 
L 3513 3500 
z
" transform="scale(0.015625)"/>
       <path id="DejaVuSans-69" d="M 603 3500 
L 1178 3500 
L 1178 0 
L 603 0 
L 603 3500 
z
M 603 4863 
L 1178 4863 
L 1178 4134 
L 603 4134 
L 603 4863 
z
" transform="scale(0.015625)"/>
       <path id="DejaVuSans-74" d="M 1172 4494 
L 1172 3500 
L 2356 3500 
L 2356 3053 
L 1172 3053 
L 1172 1153 
Q 1172 725 1289 603 
Q 1406 481 1766 481 
L 2356 481 
L 2356 0 
L 1766 0 
Q 1100 0 847 248 
Q 594 497 594 1153 
L 594 3053 
L 172 3053 
L 172 3500 
L 594 3500 
L 594 4494 
L 1172 4494 
z
" transform="scale(0.015625)"/>
      </defs>
      <use xlink:href="#DejaVuSans-70"/>
      <use xlink:href="#DejaVuSans-65" x="63.476562"/>
      <use xlink:href="#DejaVuSans-72" x="125"/>
      <use xlink:href="#DejaVuSans-70" x="166.113281"/>
      <use xlink:href="#DejaVuSans-6c" x="229.589844"/>
      <use xlink:href="#DejaVuSans-65" x="257.373047"/>
      <use xlink:href="#DejaVuSans-78" x="317.146484"/>
      <use xlink:href="#DejaVuSans-69" x="376.326172"/>
      <use xlink:href="#DejaVuSans-74" x="404.109375"/>
      <use xlink:href="#DejaVuSans-79" x="443.318359"/>
     </g>
    </g>
   </g>
  </g>
 </g>
 <defs>
  <clipPath id="p15fe85b339">
   <rect x="41.871875" y="7.2" width="341.672727" height="174.96"/>
  </clipPath>
  <clipPath id="p035e32cfc7">
   <rect x="451.879148" y="7.2" width="341.672727" height="174.96"/>
  </clipPath>
 </defs>
</svg>
