<?xml version="1.0" encoding="utf-8" standalone="no"?>
<!DOCTYPE svg PUBLIC "-//W3C//DTD SVG 1.1//EN"
  "http://www.w3.org/Graphics/SVG/1.1/DTD/svg11.dtd">
<svg xmlns:xlink="http://www.w3.org/1999/xlink" width="800.751875pt" height="206.409375pt" viewBox="0 0 800.751875 206.409375" xmlns="http://www.w3.org/2000/svg" version="1.1">
 <metadata>
  <rdf:RDF xmlns:dc="http://purl.org/dc/elements/1.1/" xmlns:cc="http://creativecommons.org/ns#" xmlns:rdf="http://www.w3.org/1999/02/22-rdf-syntax-ns#">
   <cc:Work>
    <dc:type rdf:resource="http://purl.org/dc/dcmitype/StillImage"/>
    <dc:date>2023-01-19T14:56:50.996595</dc:date>
    <dc:format>image/svg+xml</dc:format>
    <dc:creator>
     <cc:Agent>
      <dc:title>Matplotlib v3.6.0, https://matplotlib.org/</dc:title>
     </cc:Agent>
    </dc:creator>
   </cc:Work>
  </rdf:RDF>
 </metadata>
 <defs>
  <style type="text/css">*{stroke-linejoin: round; stroke-linecap: butt}</style>
 </defs>
 <g id="figure_1">
  <g id="patch_1">
   <path d="M 0 206.409375 
L 800.751875 206.409375 
L 800.751875 0 
L 0 0 
L 0 206.409375 
z
" style="fill: none"/>
  </g>
  <g id="axes_1">
   <g id="patch_2">
    <path d="M 41.871875 182.16 
L 383.544602 182.16 
L 383.544602 7.2 
L 41.871875 7.2 
L 41.871875 182.16 
z
" style="fill: none"/>
   </g>
   <g id="matplotlib.axis_1">
    <g id="xtick_1">
     <g id="line2d_1">
      <path d="M 57.402454 182.16 
L 57.402454 7.2 
" clip-path="url(#p6c35ba46fe)" style="fill: none; stroke: #cbcbcb"/>
     </g>
     <g id="line2d_2"/>
     <g id="text_1">
      <!-- 0 -->
      <g transform="translate(52.948704 196.297813) scale(0.14 -0.14)">
       <defs>
        <path id="DejaVuSans-30" d="M 2034 4250 
Q 1547 4250 1301 3770 
Q 1056 3291 1056 2328 
Q 1056 1369 1301 889 
Q 1547 409 2034 409 
Q 2525 409 2770 889 
Q 3016 1369 3016 2328 
Q 3016 3291 2770 3770 
Q 2525 4250 2034 4250 
z
M 2034 4750 
Q 2819 4750 3233 4129 
Q 3647 3509 3647 2328 
Q 3647 1150 3233 529 
Q 2819 -91 2034 -91 
Q 1250 -91 836 529 
Q 422 1150 422 2328 
Q 422 3509 836 4129 
Q 1250 4750 2034 4750 
z
" transform="scale(0.015625)"/>
       </defs>
       <use xlink:href="#DejaVuSans-30"/>
      </g>
     </g>
    </g>
    <g id="xtick_2">
     <g id="line2d_3">
      <path d="M 118.187497 182.16 
L 118.187497 7.2 
" clip-path="url(#p6c35ba46fe)" style="fill: none; stroke: #cbcbcb"/>
     </g>
     <g id="line2d_4"/>
     <g id="text_2">
      <!-- 100 -->
      <g transform="translate(104.826247 196.297813) scale(0.14 -0.14)">
       <defs>
        <path id="DejaVuSans-31" d="M 794 531 
L 1825 531 
L 1825 4091 
L 703 3866 
L 703 4441 
L 1819 4666 
L 2450 4666 
L 2450 531 
L 3481 531 
L 3481 0 
L 794 0 
L 794 531 
z
" transform="scale(0.015625)"/>
       </defs>
       <use xlink:href="#DejaVuSans-31"/>
       <use xlink:href="#DejaVuSans-30" x="63.623047"/>
       <use xlink:href="#DejaVuSans-30" x="127.246094"/>
      </g>
     </g>
    </g>
    <g id="xtick_3">
     <g id="line2d_5">
      <path d="M 178.97254 182.16 
L 178.97254 7.2 
" clip-path="url(#p6c35ba46fe)" style="fill: none; stroke: #cbcbcb"/>
     </g>
     <g id="line2d_6"/>
     <g id="text_3">
      <!-- 200 -->
      <g transform="translate(165.61129 196.297813) scale(0.14 -0.14)">
       <defs>
        <path id="DejaVuSans-32" d="M 1228 531 
L 3431 531 
L 3431 0 
L 469 0 
L 469 531 
Q 828 903 1448 1529 
Q 2069 2156 2228 2338 
Q 2531 2678 2651 2914 
Q 2772 3150 2772 3378 
Q 2772 3750 2511 3984 
Q 2250 4219 1831 4219 
Q 1534 4219 1204 4116 
Q 875 4013 500 3803 
L 500 4441 
Q 881 4594 1212 4672 
Q 1544 4750 1819 4750 
Q 2544 4750 2975 4387 
Q 3406 4025 3406 3419 
Q 3406 3131 3298 2873 
Q 3191 2616 2906 2266 
Q 2828 2175 2409 1742 
Q 1991 1309 1228 531 
z
" transform="scale(0.015625)"/>
       </defs>
       <use xlink:href="#DejaVuSans-32"/>
       <use xlink:href="#DejaVuSans-30" x="63.623047"/>
       <use xlink:href="#DejaVuSans-30" x="127.246094"/>
      </g>
     </g>
    </g>
    <g id="xtick_4">
     <g id="line2d_7">
      <path d="M 239.757583 182.16 
L 239.757583 7.2 
" clip-path="url(#p6c35ba46fe)" style="fill: none; stroke: #cbcbcb"/>
     </g>
     <g id="line2d_8"/>
     <g id="text_4">
      <!-- 300 -->
      <g transform="translate(226.396333 196.297813) scale(0.14 -0.14)">
       <defs>
        <path id="DejaVuSans-33" d="M 2597 2516 
Q 3050 2419 3304 2112 
Q 3559 1806 3559 1356 
Q 3559 666 3084 287 
Q 2609 -91 1734 -91 
Q 1441 -91 1130 -33 
Q 819 25 488 141 
L 488 750 
Q 750 597 1062 519 
Q 1375 441 1716 441 
Q 2309 441 2620 675 
Q 2931 909 2931 1356 
Q 2931 1769 2642 2001 
Q 2353 2234 1838 2234 
L 1294 2234 
L 1294 2753 
L 1863 2753 
Q 2328 2753 2575 2939 
Q 2822 3125 2822 3475 
Q 2822 3834 2567 4026 
Q 2313 4219 1838 4219 
Q 1578 4219 1281 4162 
Q 984 4106 628 3988 
L 628 4550 
Q 988 4650 1302 4700 
Q 1616 4750 1894 4750 
Q 2613 4750 3031 4423 
Q 3450 4097 3450 3541 
Q 3450 3153 3228 2886 
Q 3006 2619 2597 2516 
z
" transform="scale(0.015625)"/>
       </defs>
       <use xlink:href="#DejaVuSans-33"/>
       <use xlink:href="#DejaVuSans-30" x="63.623047"/>
       <use xlink:href="#DejaVuSans-30" x="127.246094"/>
      </g>
     </g>
    </g>
    <g id="xtick_5">
     <g id="line2d_9">
      <path d="M 300.542626 182.16 
L 300.542626 7.2 
" clip-path="url(#p6c35ba46fe)" style="fill: none; stroke: #cbcbcb"/>
     </g>
     <g id="line2d_10"/>
     <g id="text_5">
      <!-- 400 -->
      <g transform="translate(287.181376 196.297813) scale(0.14 -0.14)">
       <defs>
        <path id="DejaVuSans-34" d="M 2419 4116 
L 825 1625 
L 2419 1625 
L 2419 4116 
z
M 2253 4666 
L 3047 4666 
L 3047 1625 
L 3713 1625 
L 3713 1100 
L 3047 1100 
L 3047 0 
L 2419 0 
L 2419 1100 
L 313 1100 
L 313 1709 
L 2253 4666 
z
" transform="scale(0.015625)"/>
       </defs>
       <use xlink:href="#DejaVuSans-34"/>
       <use xlink:href="#DejaVuSans-30" x="63.623047"/>
       <use xlink:href="#DejaVuSans-30" x="127.246094"/>
      </g>
     </g>
    </g>
    <g id="xtick_6">
     <g id="line2d_11">
      <path d="M 361.327669 182.16 
L 361.327669 7.2 
" clip-path="url(#p6c35ba46fe)" style="fill: none; stroke: #cbcbcb"/>
     </g>
     <g id="line2d_12"/>
     <g id="text_6">
      <!-- 500 -->
      <g transform="translate(347.966419 196.297813) scale(0.14 -0.14)">
       <defs>
        <path id="DejaVuSans-35" d="M 691 4666 
L 3169 4666 
L 3169 4134 
L 1269 4134 
L 1269 2991 
Q 1406 3038 1543 3061 
Q 1681 3084 1819 3084 
Q 2600 3084 3056 2656 
Q 3513 2228 3513 1497 
Q 3513 744 3044 326 
Q 2575 -91 1722 -91 
Q 1428 -91 1123 -41 
Q 819 9 494 109 
L 494 744 
Q 775 591 1075 516 
Q 1375 441 1709 441 
Q 2250 441 2565 725 
Q 2881 1009 2881 1497 
Q 2881 1984 2565 2268 
Q 2250 2553 1709 2553 
Q 1456 2553 1204 2497 
Q 953 2441 691 2322 
L 691 4666 
z
" transform="scale(0.015625)"/>
       </defs>
       <use xlink:href="#DejaVuSans-35"/>
       <use xlink:href="#DejaVuSans-30" x="63.623047"/>
       <use xlink:href="#DejaVuSans-30" x="127.246094"/>
      </g>
     </g>
    </g>
   </g>
   <g id="matplotlib.axis_2">
    <g id="ytick_1">
     <g id="line2d_13">
      <path d="M 41.871875 174.207273 
L 383.544602 174.207273 
" clip-path="url(#p6c35ba46fe)" style="fill: none; stroke: #cbcbcb"/>
     </g>
     <g id="line2d_14"/>
     <g id="text_7">
      <!-- 0.00 -->
      <g transform="translate(7.2 179.526179) scale(0.14 -0.14)">
       <defs>
        <path id="DejaVuSans-2e" d="M 684 794 
L 1344 794 
L 1344 0 
L 684 0 
L 684 794 
z
" transform="scale(0.015625)"/>
       </defs>
       <use xlink:href="#DejaVuSans-30"/>
       <use xlink:href="#DejaVuSans-2e" x="63.623047"/>
       <use xlink:href="#DejaVuSans-30" x="95.410156"/>
       <use xlink:href="#DejaVuSans-30" x="159.033203"/>
      </g>
     </g>
    </g>
    <g id="ytick_2">
     <g id="line2d_15">
      <path d="M 41.871875 135.579741 
L 383.544602 135.579741 
" clip-path="url(#p6c35ba46fe)" style="fill: none; stroke: #cbcbcb"/>
     </g>
     <g id="line2d_16"/>
     <g id="text_8">
      <!-- 0.02 -->
      <g transform="translate(7.2 140.898648) scale(0.14 -0.14)">
       <use xlink:href="#DejaVuSans-30"/>
       <use xlink:href="#DejaVuSans-2e" x="63.623047"/>
       <use xlink:href="#DejaVuSans-30" x="95.410156"/>
       <use xlink:href="#DejaVuSans-32" x="159.033203"/>
      </g>
     </g>
    </g>
    <g id="ytick_3">
     <g id="line2d_17">
      <path d="M 41.871875 96.95221 
L 383.544602 96.95221 
" clip-path="url(#p6c35ba46fe)" style="fill: none; stroke: #cbcbcb"/>
     </g>
     <g id="line2d_18"/>
     <g id="text_9">
      <!-- 0.04 -->
      <g transform="translate(7.2 102.271116) scale(0.14 -0.14)">
       <use xlink:href="#DejaVuSans-30"/>
       <use xlink:href="#DejaVuSans-2e" x="63.623047"/>
       <use xlink:href="#DejaVuSans-30" x="95.410156"/>
       <use xlink:href="#DejaVuSans-34" x="159.033203"/>
      </g>
     </g>
    </g>
    <g id="ytick_4">
     <g id="line2d_19">
      <path d="M 41.871875 58.324679 
L 383.544602 58.324679 
" clip-path="url(#p6c35ba46fe)" style="fill: none; stroke: #cbcbcb"/>
     </g>
     <g id="line2d_20"/>
     <g id="text_10">
      <!-- 0.06 -->
      <g transform="translate(7.2 63.643585) scale(0.14 -0.14)">
       <defs>
        <path id="DejaVuSans-36" d="M 2113 2584 
Q 1688 2584 1439 2293 
Q 1191 2003 1191 1497 
Q 1191 994 1439 701 
Q 1688 409 2113 409 
Q 2538 409 2786 701 
Q 3034 994 3034 1497 
Q 3034 2003 2786 2293 
Q 2538 2584 2113 2584 
z
M 3366 4563 
L 3366 3988 
Q 3128 4100 2886 4159 
Q 2644 4219 2406 4219 
Q 1781 4219 1451 3797 
Q 1122 3375 1075 2522 
Q 1259 2794 1537 2939 
Q 1816 3084 2150 3084 
Q 2853 3084 3261 2657 
Q 3669 2231 3669 1497 
Q 3669 778 3244 343 
Q 2819 -91 2113 -91 
Q 1303 -91 875 529 
Q 447 1150 447 2328 
Q 447 3434 972 4092 
Q 1497 4750 2381 4750 
Q 2619 4750 2861 4703 
Q 3103 4656 3366 4563 
z
" transform="scale(0.015625)"/>
       </defs>
       <use xlink:href="#DejaVuSans-30"/>
       <use xlink:href="#DejaVuSans-2e" x="63.623047"/>
       <use xlink:href="#DejaVuSans-30" x="95.410156"/>
       <use xlink:href="#DejaVuSans-36" x="159.033203"/>
      </g>
     </g>
    </g>
    <g id="ytick_5">
     <g id="line2d_21">
      <path d="M 41.871875 19.697148 
L 383.544602 19.697148 
" clip-path="url(#p6c35ba46fe)" style="fill: none; stroke: #cbcbcb"/>
     </g>
     <g id="line2d_22"/>
     <g id="text_11">
      <!-- 0.08 -->
      <g transform="translate(7.2 25.016054) scale(0.14 -0.14)">
       <defs>
        <path id="DejaVuSans-38" d="M 2034 2216 
Q 1584 2216 1326 1975 
Q 1069 1734 1069 1313 
Q 1069 891 1326 650 
Q 1584 409 2034 409 
Q 2484 409 2743 651 
Q 3003 894 3003 1313 
Q 3003 1734 2745 1975 
Q 2488 2216 2034 2216 
z
M 1403 2484 
Q 997 2584 770 2862 
Q 544 3141 544 3541 
Q 544 4100 942 4425 
Q 1341 4750 2034 4750 
Q 2731 4750 3128 4425 
Q 3525 4100 3525 3541 
Q 3525 3141 3298 2862 
Q 3072 2584 2669 2484 
Q 3125 2378 3379 2068 
Q 3634 1759 3634 1313 
Q 3634 634 3220 271 
Q 2806 -91 2034 -91 
Q 1263 -91 848 271 
Q 434 634 434 1313 
Q 434 1759 690 2068 
Q 947 2378 1403 2484 
z
M 1172 3481 
Q 1172 3119 1398 2916 
Q 1625 2713 2034 2713 
Q 2441 2713 2670 2916 
Q 2900 3119 2900 3481 
Q 2900 3844 2670 4047 
Q 2441 4250 2034 4250 
Q 1625 4250 1398 4047 
Q 1172 3844 1172 3481 
z
" transform="scale(0.015625)"/>
       </defs>
       <use xlink:href="#DejaVuSans-30"/>
       <use xlink:href="#DejaVuSans-2e" x="63.623047"/>
       <use xlink:href="#DejaVuSans-30" x="95.410156"/>
       <use xlink:href="#DejaVuSans-38" x="159.033203"/>
      </g>
     </g>
    </g>
   </g>
   <g id="line2d_23">
    <path d="M 57.402454 15.152727 
L 212.404313 15.152727 
L 213.012164 174.207273 
L 368.014024 174.207273 
L 368.014024 174.207273 
" clip-path="url(#p6c35ba46fe)" style="fill: none; stroke: #008fd5; stroke-width: 4"/>
   </g>
   <g id="patch_3">
    <path d="M 41.871875 182.16 
L 41.871875 7.2 
" style="fill: none; stroke: #f0f0f0; stroke-width: 3; stroke-linejoin: miter; stroke-linecap: square"/>
   </g>
   <g id="patch_4">
    <path d="M 383.544602 182.16 
L 383.544602 7.2 
" style="fill: none; stroke: #f0f0f0; stroke-width: 3; stroke-linejoin: miter; stroke-linecap: square"/>
   </g>
   <g id="patch_5">
    <path d="M 41.871875 182.16 
L 383.544602 182.16 
" style="fill: none; stroke: #f0f0f0; stroke-width: 3; stroke-linejoin: miter; stroke-linecap: square"/>
   </g>
   <g id="patch_6">
    <path d="M 41.871875 7.2 
L 383.544602 7.2 
" style="fill: none; stroke: #f0f0f0; stroke-width: 3; stroke-linejoin: miter; stroke-linecap: square"/>
   </g>
   <g id="legend_1">
    <g id="patch_7">
     <path d="M 265.778352 38.949375 
L 373.744602 38.949375 
Q 376.544602 38.949375 376.544602 36.149375 
L 376.544602 17 
Q 376.544602 14.2 373.744602 14.2 
L 265.778352 14.2 
Q 262.978352 14.2 262.978352 17 
L 262.978352 36.149375 
Q 262.978352 38.949375 265.778352 38.949375 
z
" style="fill: #f0f0f0; opacity: 0.8; stroke: #cccccc; stroke-width: 0.5; stroke-linejoin: miter"/>
    </g>
    <g id="line2d_24">
     <path d="M 268.578352 25.537813 
L 282.578352 25.537813 
L 296.578352 25.537813 
" style="fill: none; stroke: #008fd5; stroke-width: 4"/>
    </g>
    <g id="text_12">
     <!-- accuracy -->
     <g transform="translate(307.778352 30.437813) scale(0.14 -0.14)">
      <defs>
       <path id="DejaVuSans-61" d="M 2194 1759 
Q 1497 1759 1228 1600 
Q 959 1441 959 1056 
Q 959 750 1161 570 
Q 1363 391 1709 391 
Q 2188 391 2477 730 
Q 2766 1069 2766 1631 
L 2766 1759 
L 2194 1759 
z
M 3341 1997 
L 3341 0 
L 2766 0 
L 2766 531 
Q 2569 213 2275 61 
Q 1981 -91 1556 -91 
Q 1019 -91 701 211 
Q 384 513 384 1019 
Q 384 1609 779 1909 
Q 1175 2209 1959 2209 
L 2766 2209 
L 2766 2266 
Q 2766 2663 2505 2880 
Q 2244 3097 1772 3097 
Q 1472 3097 1187 3025 
Q 903 2953 641 2809 
L 641 3341 
Q 956 3463 1253 3523 
Q 1550 3584 1831 3584 
Q 2591 3584 2966 3190 
Q 3341 2797 3341 1997 
z
" transform="scale(0.015625)"/>
       <path id="DejaVuSans-63" d="M 3122 3366 
L 3122 2828 
Q 2878 2963 2633 3030 
Q 2388 3097 2138 3097 
Q 1578 3097 1268 2742 
Q 959 2388 959 1747 
Q 959 1106 1268 751 
Q 1578 397 2138 397 
Q 2388 397 2633 464 
Q 2878 531 3122 666 
L 3122 134 
Q 2881 22 2623 -34 
Q 2366 -91 2075 -91 
Q 1284 -91 818 406 
Q 353 903 353 1747 
Q 353 2603 823 3093 
Q 1294 3584 2113 3584 
Q 2378 3584 2631 3529 
Q 2884 3475 3122 3366 
z
" transform="scale(0.015625)"/>
       <path id="DejaVuSans-75" d="M 544 1381 
L 544 3500 
L 1119 3500 
L 1119 1403 
Q 1119 906 1312 657 
Q 1506 409 1894 409 
Q 2359 409 2629 706 
Q 2900 1003 2900 1516 
L 2900 3500 
L 3475 3500 
L 3475 0 
L 2900 0 
L 2900 538 
Q 2691 219 2414 64 
Q 2138 -91 1772 -91 
Q 1169 -91 856 284 
Q 544 659 544 1381 
z
M 1991 3584 
L 1991 3584 
z
" transform="scale(0.015625)"/>
       <path id="DejaVuSans-72" d="M 2631 2963 
Q 2534 3019 2420 3045 
Q 2306 3072 2169 3072 
Q 1681 3072 1420 2755 
Q 1159 2438 1159 1844 
L 1159 0 
L 581 0 
L 581 3500 
L 1159 3500 
L 1159 2956 
Q 1341 3275 1631 3429 
Q 1922 3584 2338 3584 
Q 2397 3584 2469 3576 
Q 2541 3569 2628 3553 
L 2631 2963 
z
" transform="scale(0.015625)"/>
       <path id="DejaVuSans-79" d="M 2059 -325 
Q 1816 -950 1584 -1140 
Q 1353 -1331 966 -1331 
L 506 -1331 
L 506 -850 
L 844 -850 
Q 1081 -850 1212 -737 
Q 1344 -625 1503 -206 
L 1606 56 
L 191 3500 
L 800 3500 
L 1894 763 
L 2988 3500 
L 3597 3500 
L 2059 -325 
z
" transform="scale(0.015625)"/>
      </defs>
      <use xlink:href="#DejaVuSans-61"/>
      <use xlink:href="#DejaVuSans-63" x="61.279297"/>
      <use xlink:href="#DejaVuSans-63" x="116.259766"/>
      <use xlink:href="#DejaVuSans-75" x="171.240234"/>
      <use xlink:href="#DejaVuSans-72" x="234.619141"/>
      <use xlink:href="#DejaVuSans-61" x="275.732422"/>
      <use xlink:href="#DejaVuSans-63" x="337.011719"/>
      <use xlink:href="#DejaVuSans-79" x="391.992188"/>
     </g>
    </g>
   </g>
  </g>
  <g id="axes_2">
   <g id="patch_8">
    <path d="M 451.879148 182.16 
L 793.551875 182.16 
L 793.551875 7.2 
L 451.879148 7.2 
L 451.879148 182.16 
z
" style="fill: none"/>
   </g>
   <g id="matplotlib.axis_3">
    <g id="xtick_7">
     <g id="line2d_25">
      <path d="M 467.409726 182.16 
L 467.409726 7.2 
" clip-path="url(#pf74a018af0)" style="fill: none; stroke: #cbcbcb"/>
     </g>
     <g id="line2d_26"/>
     <g id="text_13">
      <!-- 0 -->
      <g transform="translate(462.955976 196.297813) scale(0.14 -0.14)">
       <use xlink:href="#DejaVuSans-30"/>
      </g>
     </g>
    </g>
    <g id="xtick_8">
     <g id="line2d_27">
      <path d="M 528.194769 182.16 
L 528.194769 7.2 
" clip-path="url(#pf74a018af0)" style="fill: none; stroke: #cbcbcb"/>
     </g>
     <g id="line2d_28"/>
     <g id="text_14">
      <!-- 100 -->
      <g transform="translate(514.833519 196.297813) scale(0.14 -0.14)">
       <use xlink:href="#DejaVuSans-31"/>
       <use xlink:href="#DejaVuSans-30" x="63.623047"/>
       <use xlink:href="#DejaVuSans-30" x="127.246094"/>
      </g>
     </g>
    </g>
    <g id="xtick_9">
     <g id="line2d_29">
      <path d="M 588.979812 182.16 
L 588.979812 7.2 
" clip-path="url(#pf74a018af0)" style="fill: none; stroke: #cbcbcb"/>
     </g>
     <g id="line2d_30"/>
     <g id="text_15">
      <!-- 200 -->
      <g transform="translate(575.618562 196.297813) scale(0.14 -0.14)">
       <use xlink:href="#DejaVuSans-32"/>
       <use xlink:href="#DejaVuSans-30" x="63.623047"/>
       <use xlink:href="#DejaVuSans-30" x="127.246094"/>
      </g>
     </g>
    </g>
    <g id="xtick_10">
     <g id="line2d_31">
      <path d="M 649.764856 182.16 
L 649.764856 7.2 
" clip-path="url(#pf74a018af0)" style="fill: none; stroke: #cbcbcb"/>
     </g>
     <g id="line2d_32"/>
     <g id="text_16">
      <!-- 300 -->
      <g transform="translate(636.403606 196.297813) scale(0.14 -0.14)">
       <use xlink:href="#DejaVuSans-33"/>
       <use xlink:href="#DejaVuSans-30" x="63.623047"/>
       <use xlink:href="#DejaVuSans-30" x="127.246094"/>
      </g>
     </g>
    </g>
    <g id="xtick_11">
     <g id="line2d_33">
      <path d="M 710.549899 182.16 
L 710.549899 7.2 
" clip-path="url(#pf74a018af0)" style="fill: none; stroke: #cbcbcb"/>
     </g>
     <g id="line2d_34"/>
     <g id="text_17">
      <!-- 400 -->
      <g transform="translate(697.188649 196.297813) scale(0.14 -0.14)">
       <use xlink:href="#DejaVuSans-34"/>
       <use xlink:href="#DejaVuSans-30" x="63.623047"/>
       <use xlink:href="#DejaVuSans-30" x="127.246094"/>
      </g>
     </g>
    </g>
    <g id="xtick_12">
     <g id="line2d_35">
      <path d="M 771.334942 182.16 
L 771.334942 7.2 
" clip-path="url(#pf74a018af0)" style="fill: none; stroke: #cbcbcb"/>
     </g>
     <g id="line2d_36"/>
     <g id="text_18">
      <!-- 500 -->
      <g transform="translate(757.973692 196.297813) scale(0.14 -0.14)">
       <use xlink:href="#DejaVuSans-35"/>
       <use xlink:href="#DejaVuSans-30" x="63.623047"/>
       <use xlink:href="#DejaVuSans-30" x="127.246094"/>
      </g>
     </g>
    </g>
   </g>
   <g id="matplotlib.axis_4">
    <g id="ytick_6">
     <g id="line2d_37">
      <path d="M 451.879148 180.863417 
L 793.551875 180.863417 
" clip-path="url(#pf74a018af0)" style="fill: none; stroke: #cbcbcb"/>
     </g>
     <g id="line2d_38"/>
     <g id="text_19">
      <!-- 0 -->
      <g transform="translate(439.471648 186.182324) scale(0.14 -0.14)">
       <use xlink:href="#DejaVuSans-30"/>
      </g>
     </g>
    </g>
    <g id="ytick_7">
     <g id="line2d_39">
      <path d="M 451.879148 145.576181 
L 793.551875 145.576181 
" clip-path="url(#pf74a018af0)" style="fill: none; stroke: #cbcbcb"/>
     </g>
     <g id="line2d_40"/>
     <g id="text_20">
      <!-- 20 -->
      <g transform="translate(430.564148 150.895087) scale(0.14 -0.14)">
       <use xlink:href="#DejaVuSans-32"/>
       <use xlink:href="#DejaVuSans-30" x="63.623047"/>
      </g>
     </g>
    </g>
    <g id="ytick_8">
     <g id="line2d_41">
      <path d="M 451.879148 110.288944 
L 793.551875 110.288944 
" clip-path="url(#pf74a018af0)" style="fill: none; stroke: #cbcbcb"/>
     </g>
     <g id="line2d_42"/>
     <g id="text_21">
      <!-- 40 -->
      <g transform="translate(430.564148 115.607851) scale(0.14 -0.14)">
       <use xlink:href="#DejaVuSans-34"/>
       <use xlink:href="#DejaVuSans-30" x="63.623047"/>
      </g>
     </g>
    </g>
    <g id="ytick_9">
     <g id="line2d_43">
      <path d="M 451.879148 75.001708 
L 793.551875 75.001708 
" clip-path="url(#pf74a018af0)" style="fill: none; stroke: #cbcbcb"/>
     </g>
     <g id="line2d_44"/>
     <g id="text_22">
      <!-- 60 -->
      <g transform="translate(430.564148 80.320614) scale(0.14 -0.14)">
       <use xlink:href="#DejaVuSans-36"/>
       <use xlink:href="#DejaVuSans-30" x="63.623047"/>
      </g>
     </g>
    </g>
    <g id="ytick_10">
     <g id="line2d_45">
      <path d="M 451.879148 39.714471 
L 793.551875 39.714471 
" clip-path="url(#pf74a018af0)" style="fill: none; stroke: #cbcbcb"/>
     </g>
     <g id="line2d_46"/>
     <g id="text_23">
      <!-- 80 -->
      <g transform="translate(430.564148 45.033378) scale(0.14 -0.14)">
       <use xlink:href="#DejaVuSans-38"/>
       <use xlink:href="#DejaVuSans-30" x="63.623047"/>
      </g>
     </g>
    </g>
   </g>
   <g id="line2d_47">
    <path d="M 467.409726 55.345237 
L 468.017577 118.989948 
L 468.625427 147.314337 
L 469.233278 82.009996 
L 469.841128 142.77134 
L 470.448978 48.292892 
L 471.056829 76.785804 
L 471.664679 133.496655 
L 472.27253 48.244311 
L 472.88038 15.152727 
L 473.488231 20.942686 
L 474.096081 40.782468 
L 474.703931 117.762162 
L 475.311782 87.816747 
L 475.919632 45.459524 
L 476.527483 65.723584 
L 477.135333 133.466873 
L 477.743184 114.669245 
L 478.351034 133.484365 
L 478.958884 67.689322 
L 479.566735 78.117717 
L 480.174585 114.849798 
L 480.782436 126.596463 
L 481.390286 153.944754 
L 481.998137 169.689337 
L 482.605987 158.9713 
L 483.213837 161.453351 
L 483.821688 168.09761 
L 484.429538 153.752442 
L 485.037389 68.864543 
L 485.645239 117.341754 
L 486.25309 135.087326 
L 486.86094 156.109208 
L 487.46879 87.346856 
L 488.076641 73.298466 
L 488.684491 62.072486 
L 489.292342 107.796248 
L 489.900192 89.799628 
L 490.508043 115.692821 
L 491.115893 58.648341 
L 491.723743 115.046732 
L 492.331594 114.100888 
L 492.939444 112.299279 
L 493.547295 80.021205 
L 494.155145 55.944037 
L 494.762996 37.474842 
L 495.370846 83.298847 
L 495.978696 88.698773 
L 496.586547 75.691686 
L 497.194397 35.37596 
L 497.802248 109.677269 
L 498.410098 153.452583 
L 499.017949 165.567904 
L 499.625799 148.395664 
L 500.23365 72.912222 
L 500.8415 134.638839 
L 501.44935 147.296956 
L 502.057201 157.161485 
L 502.665051 148.665571 
L 503.272902 155.618386 
L 503.880752 44.48465 
L 504.488603 117.50017 
L 505.096453 167.7782 
L 505.704303 168.620218 
L 506.312154 168.715097 
L 506.920004 170.065743 
L 507.527855 166.484845 
L 508.135705 165.542098 
L 508.743556 164.352713 
L 509.351406 123.678748 
L 509.959256 120.604536 
L 510.567107 160.029824 
L 511.174957 158.443901 
L 511.782808 144.377498 
L 512.390658 157.272068 
L 512.998509 104.783942 
L 513.606359 107.281128 
L 514.214209 139.674782 
L 514.82206 107.635375 
L 515.42991 108.907622 
L 516.037761 138.302116 
L 516.645611 118.002481 
L 517.253462 149.008473 
L 517.861312 167.975144 
L 518.469162 159.542057 
L 519.077013 168.500649 
L 519.684863 172.441299 
L 520.292714 169.32081 
L 520.900564 155.708401 
L 521.508415 147.099436 
L 522.116265 95.17603 
L 522.724115 143.951837 
L 523.331966 150.006664 
L 523.939816 170.381557 
L 524.547667 143.617795 
L 525.155517 138.425079 
L 525.763368 130.230031 
L 526.371218 166.759226 
L 526.979068 149.04675 
L 527.586919 157.592019 
L 528.194769 57.22461 
L 528.80262 52.568702 
L 529.41047 83.09006 
L 530.018321 121.914447 
L 531.234021 164.022572 
L 531.841872 159.352262 
L 532.449722 161.403575 
L 533.057573 141.691373 
L 533.665423 107.114992 
L 534.273274 102.210735 
L 534.881124 133.866638 
L 535.488975 142.903689 
L 536.096825 124.922337 
L 536.704675 118.549005 
L 537.312526 92.837381 
L 538.528227 159.915487 
L 539.136077 157.708815 
L 539.743928 148.486458 
L 540.351778 137.278419 
L 540.959628 130.079009 
L 541.567479 136.469688 
L 542.175329 133.763352 
L 542.78318 118.856361 
L 543.39103 126.46859 
L 543.998881 139.936192 
L 544.606731 146.449858 
L 545.214581 157.503015 
L 545.822432 129.002047 
L 547.038133 108.184658 
L 547.645983 131.207428 
L 548.253834 138.033767 
L 548.861684 126.063158 
L 549.469534 141.300681 
L 550.077385 131.547504 
L 550.685235 155.968412 
L 551.293086 139.771712 
L 551.900936 115.944892 
L 552.508787 77.225864 
L 553.116637 58.943393 
L 554.332338 137.700304 
L 555.548039 166.673168 
L 556.155889 171.962996 
L 556.76374 168.904198 
L 557.37159 171.471555 
L 557.97944 161.442739 
L 558.587291 108.08957 
L 559.195141 123.314937 
L 559.802992 123.417503 
L 560.410842 162.007157 
L 561.018693 153.441678 
L 561.626543 157.394344 
L 562.234393 125.768348 
L 562.842244 131.626147 
L 563.450094 157.232501 
L 564.057945 157.840393 
L 564.665795 162.152931 
L 565.273646 98.49557 
L 565.881496 108.248598 
L 566.489346 106.302062 
L 567.097197 158.16915 
L 567.705047 130.132089 
L 568.312898 133.447762 
L 568.920748 143.573206 
L 569.528599 126.590368 
L 570.136449 141.578886 
L 570.7443 116.197945 
L 571.35215 123.133429 
L 571.96 157.982552 
L 572.567851 167.5925 
L 573.175701 163.208788 
L 574.391402 126.532961 
L 574.999253 165.049282 
L 575.607103 173.726821 
L 576.214953 166.208931 
L 576.822804 163.403298 
L 577.430654 102.442103 
L 578.038505 127.837111 
L 578.646355 160.367863 
L 579.254206 171.567861 
L 579.862056 174.207273 
L 580.469906 172.45124 
L 581.077757 172.061095 
L 581.685607 169.857665 
L 582.293458 165.308321 
L 582.901308 159.129008 
L 583.509159 144.457779 
L 584.117009 170.890166 
L 584.724859 160.661712 
L 585.33271 171.059767 
L 585.94056 162.989175 
L 586.548411 145.240665 
L 587.156261 132.846186 
L 587.764112 145.94293 
L 588.371962 154.075849 
L 588.979812 138.824649 
L 590.195513 79.498864 
L 590.803364 130.926356 
L 591.411214 123.130703 
L 592.019065 130.407006 
L 592.626915 108.073033 
L 593.234765 120.542864 
L 593.842616 147.72721 
L 594.450466 146.614079 
L 595.058317 132.960439 
L 595.666167 109.863422 
L 596.274018 142.489763 
L 596.881868 147.616924 
L 597.489718 143.584664 
L 598.097569 149.372065 
L 598.705419 143.204593 
L 599.31327 134.935469 
L 599.92112 154.153565 
L 600.528971 158.081759 
L 601.136821 134.414727 
L 601.744671 140.561106 
L 602.352522 114.946354 
L 602.960372 149.57046 
L 603.568223 164.067932 
L 604.176073 168.241943 
L 604.783924 158.1131 
L 605.391774 144.296062 
L 605.999625 149.356726 
L 606.607475 161.79067 
L 607.215325 155.256653 
L 607.823176 144.321847 
L 608.431026 152.978346 
L 609.038877 154.461304 
L 609.646727 158.906204 
L 610.254578 153.620053 
L 610.862428 133.128066 
L 611.470278 101.297123 
L 612.078129 138.31983 
L 612.685979 154.899606 
L 613.29383 149.154909 
L 613.90168 102.525985 
L 614.509531 117.107149 
L 615.117381 155.489443 
L 615.725231 167.378196 
L 616.333082 168.952674 
L 616.940932 169.976002 
L 617.548783 173.619247 
L 618.156633 167.504481 
L 618.764484 163.941059 
L 619.372334 153.724376 
L 619.980184 139.647975 
L 620.588035 102.294887 
L 621.195885 155.407975 
L 621.803736 149.864456 
L 622.411586 160.940681 
L 623.019437 131.998778 
L 623.627287 148.69077 
L 624.235137 148.4989 
L 624.842988 144.138747 
L 625.450838 136.382134 
L 626.058689 108.148475 
L 626.666539 109.953644 
L 627.27439 80.093396 
L 627.88224 120.533542 
L 628.49009 98.832997 
L 629.705791 108.02104 
L 630.921492 136.836787 
L 631.529343 146.067484 
L 632.745043 95.093723 
L 633.352894 122.21345 
L 633.960744 131.674909 
L 634.568595 146.366719 
L 635.176445 135.60287 
L 635.784296 133.447304 
L 636.392146 139.630936 
L 636.999996 149.621303 
L 637.607847 144.248555 
L 638.215697 122.721085 
L 639.431398 93.423063 
L 640.039249 141.173551 
L 640.647099 146.01252 
L 641.25495 118.657938 
L 641.8628 140.446563 
L 642.47065 151.34373 
L 643.078501 156.036414 
L 643.686351 147.72791 
L 644.294202 118.816186 
L 644.902052 110.204564 
L 645.509903 120.286371 
L 646.117753 141.565038 
L 646.725603 124.341198 
L 647.333454 123.931458 
L 647.941304 104.326389 
L 648.549155 131.095786 
L 649.157005 149.802946 
L 649.764856 133.551886 
L 650.372706 126.913015 
L 650.980556 121.639109 
L 651.588407 91.476284 
L 652.196257 113.003324 
L 652.804108 115.661753 
L 653.411958 101.304062 
L 654.019809 105.240095 
L 654.627659 130.880915 
L 655.235509 104.885007 
L 655.84336 64.521717 
L 656.45121 94.44398 
L 657.059061 81.804486 
L 657.666911 125.785006 
L 658.274762 121.911008 
L 658.882612 145.014675 
L 659.490462 124.282286 
L 660.098313 109.001641 
L 660.706163 113.306708 
L 661.921864 147.887948 
L 662.529715 102.191479 
L 663.137565 83.34312 
L 663.745415 122.022451 
L 664.353266 124.608965 
L 664.961116 151.06501 
L 665.568967 150.046176 
L 666.176817 150.647362 
L 666.784668 135.944446 
L 667.392518 146.871463 
L 668.000368 146.925005 
L 668.608219 144.1008 
L 669.216069 120.335759 
L 669.82392 131.641092 
L 671.039621 93.054151 
L 671.647471 126.320586 
L 672.255321 100.429655 
L 672.863172 112.833446 
L 673.471022 109.843445 
L 674.078873 129.438443 
L 674.686723 116.028929 
L 675.294574 116.204682 
L 675.902424 106.051088 
L 676.510275 106.511576 
L 677.118125 142.60232 
L 677.725975 142.359197 
L 678.333826 112.57803 
L 678.941676 110.226997 
L 679.549527 112.696958 
L 680.765228 61.537344 
L 681.373078 84.982423 
L 681.980928 102.62561 
L 682.588779 132.380821 
L 683.196629 141.338311 
L 683.80448 153.098307 
L 684.41233 130.132371 
L 685.020181 123.875346 
L 685.628031 119.910553 
L 686.235881 153.635422 
L 686.843732 152.393292 
L 687.451582 133.077967 
L 688.059433 131.846295 
L 688.667283 129.295248 
L 689.275134 155.261701 
L 689.882984 149.094812 
L 690.490834 147.543646 
L 691.098685 148.060512 
L 691.706535 155.998538 
L 692.314386 153.786158 
L 692.922236 150.312677 
L 693.530087 141.417044 
L 694.137937 151.550929 
L 694.745787 147.824039 
L 695.353638 160.339664 
L 695.961488 152.43139 
L 696.569339 160.894843 
L 697.177189 154.075025 
L 697.78504 162.339276 
L 698.39289 164.706674 
L 699.00074 160.339785 
L 699.608591 154.865991 
L 700.216441 151.924953 
L 700.824292 157.648761 
L 701.432142 160.855867 
L 702.039993 161.162484 
L 702.647843 157.816522 
L 703.255693 159.209127 
L 703.863544 160.095624 
L 704.471394 157.786645 
L 705.079245 161.558212 
L 705.687095 158.978513 
L 706.294946 149.81184 
L 706.902796 162.287819 
L 707.510646 152.555702 
L 708.118497 155.847691 
L 708.726347 165.60242 
L 709.334198 152.740657 
L 709.942048 156.591216 
L 710.549899 163.265238 
L 711.157749 166.684797 
L 711.7656 157.52711 
L 712.37345 161.329005 
L 712.9813 160.476613 
L 713.589151 166.408388 
L 714.197001 160.869217 
L 714.804852 160.011284 
L 716.020553 165.870405 
L 716.628403 160.708079 
L 717.236253 160.632712 
L 717.844104 157.239664 
L 718.451954 159.256142 
L 719.059805 157.113983 
L 719.667655 160.444293 
L 720.275506 162.507905 
L 720.883356 154.854651 
L 721.491206 160.694988 
L 722.099057 160.123704 
L 722.706907 164.894194 
L 723.314758 164.680243 
L 723.922608 161.164681 
L 724.530459 160.867479 
L 725.138309 155.499601 
L 725.746159 157.326756 
L 726.35401 161.82475 
L 726.96186 162.989947 
L 727.569711 162.733772 
L 728.177561 160.36842 
L 728.785412 163.332298 
L 729.393262 162.800324 
L 730.001112 159.097383 
L 730.608963 160.415419 
L 731.216813 162.30262 
L 731.824664 156.030466 
L 732.432514 168.161725 
L 733.648215 157.285298 
L 734.863916 165.44499 
L 735.471766 165.572204 
L 736.079617 163.547585 
L 736.687467 158.84622 
L 737.295318 155.196238 
L 737.903168 165.417917 
L 738.511018 168.936256 
L 739.118869 159.038109 
L 739.726719 162.399194 
L 740.33457 160.275697 
L 740.94242 160.182483 
L 741.550271 167.832531 
L 742.158121 163.523416 
L 742.765971 165.072706 
L 743.373822 156.888515 
L 743.981672 160.201875 
L 744.589523 160.729549 
L 745.197373 167.409637 
L 745.805224 162.11168 
L 746.413074 158.527972 
L 747.020925 156.986554 
L 747.628775 164.317698 
L 748.236625 162.500222 
L 748.844476 165.962627 
L 749.452326 161.275102 
L 750.060177 159.91526 
L 751.275878 161.765828 
L 751.883728 167.069295 
L 752.491578 164.472006 
L 753.099429 164.368424 
L 753.707279 156.339046 
L 754.31513 166.434338 
L 754.92298 160.92384 
L 755.530831 164.160941 
L 756.138681 164.420372 
L 756.746531 161.776392 
L 757.354382 163.330058 
L 757.962232 163.774376 
L 758.570083 162.107862 
L 759.177933 161.585912 
L 759.785784 166.496736 
L 760.393634 159.947106 
L 761.001484 157.606362 
L 761.609335 163.204083 
L 762.217185 165.998457 
L 762.825036 161.248144 
L 763.432886 163.922964 
L 764.040737 156.2651 
L 764.648587 161.850626 
L 765.256437 165.419122 
L 765.864288 158.852618 
L 766.472138 149.25557 
L 767.079989 146.628825 
L 767.687839 161.571195 
L 768.29569 163.854217 
L 768.90354 149.338244 
L 769.51139 153.513635 
L 770.119241 162.91451 
L 770.727091 160.338537 
L 771.334942 154.317818 
L 771.942792 155.598796 
L 772.550643 152.32909 
L 773.158493 162.296804 
L 773.766343 158.784078 
L 774.374194 156.212651 
L 774.982044 159.317645 
L 775.589895 158.109735 
L 776.197745 162.088975 
L 776.805596 161.191926 
L 777.413446 163.88863 
L 778.021296 163.106178 
L 778.021296 163.106178 
" clip-path="url(#pf74a018af0)" style="fill: none; stroke: #008fd5; stroke-opacity: 0.25; stroke-width: 4"/>
   </g>
   <g id="line2d_48">
    <path d="M 467.409726 55.345237 
L 468.017577 58.527475 
L 468.625427 62.966822 
L 469.233278 63.918987 
L 469.841128 67.86161 
L 470.448978 66.883169 
L 471.056829 67.378306 
L 471.664679 70.684223 
L 472.27253 69.562227 
L 473.488231 64.546795 
L 474.096081 63.358578 
L 474.703931 66.078753 
L 475.311782 67.165662 
L 475.919632 66.080355 
L 476.527483 66.062519 
L 477.135333 69.432739 
L 477.743184 71.694566 
L 478.351034 74.784057 
L 478.958884 74.429319 
L 479.566735 74.613735 
L 480.174585 76.625537 
L 480.782436 79.124082 
L 483.821688 98.016021 
L 484.429538 100.802841 
L 485.037389 99.205927 
L 485.645239 100.112715 
L 486.25309 101.861449 
L 486.86094 104.573836 
L 487.46879 103.712486 
L 488.076641 102.191789 
L 488.684491 100.185829 
L 489.292342 100.566351 
L 489.900192 100.028018 
L 490.508043 100.811261 
L 491.115893 98.703118 
L 492.331594 100.249331 
L 492.939444 100.851832 
L 493.547295 99.8103 
L 494.155145 97.61699 
L 494.762996 94.60988 
L 495.370846 94.044329 
L 495.978696 93.777054 
L 496.586547 92.87279 
L 497.194397 89.997949 
L 497.802248 90.981915 
L 499.625799 100.214433 
L 500.23365 98.849318 
L 500.8415 100.638798 
L 503.272902 110.219815 
L 503.880752 106.93306 
L 504.488603 107.461418 
L 506.312154 116.150939 
L 507.527855 121.228595 
L 508.743556 125.489695 
L 509.351406 125.39915 
L 509.959256 125.159419 
L 511.174957 128.479988 
L 511.782808 129.274864 
L 512.390658 130.674726 
L 513.606359 128.275236 
L 514.214209 128.845216 
L 515.42991 126.840871 
L 516.037761 127.413933 
L 516.645611 126.943363 
L 517.253462 128.046618 
L 517.861312 130.043047 
L 518.469162 131.517998 
L 520.292714 137.020836 
L 520.900564 137.955215 
L 521.508415 138.412425 
L 522.116265 136.250607 
L 522.724115 136.635669 
L 523.331966 137.30422 
L 523.939816 138.958088 
L 524.547667 139.191074 
L 525.155517 139.152774 
L 525.763368 138.706636 
L 526.371218 140.109267 
L 526.979068 140.556142 
L 527.586919 141.407935 
L 528.80262 132.967267 
L 529.41047 130.473409 
L 530.018321 130.045464 
L 530.626171 130.710431 
L 531.841872 133.724846 
L 532.449722 135.108783 
L 533.057573 135.437915 
L 534.273274 132.431216 
L 534.881124 132.502987 
L 535.488975 133.023023 
L 536.096825 132.617991 
L 536.704675 131.914542 
L 537.312526 129.960686 
L 537.920376 129.771885 
L 539.136077 132.600552 
L 539.743928 133.394846 
L 540.351778 133.589025 
L 540.959628 133.413523 
L 541.567479 133.566333 
L 542.175329 133.576183 
L 542.78318 132.840192 
L 543.39103 132.521614 
L 543.998881 132.892343 
L 544.606731 133.57022 
L 545.214581 134.76686 
L 545.822432 134.478619 
L 546.430282 133.643263 
L 547.038133 132.370332 
L 547.645983 132.312187 
L 548.253834 132.598267 
L 548.861684 132.271511 
L 549.469534 132.72297 
L 550.077385 132.664199 
L 550.685235 133.829412 
L 551.293086 134.126526 
L 551.900936 133.217444 
L 552.508787 130.417866 
L 553.116637 126.844142 
L 553.724487 125.43991 
L 554.332338 126.052927 
L 554.940188 127.372517 
L 557.37159 135.247135 
L 557.97944 136.556916 
L 558.587291 135.133548 
L 559.802992 133.986364 
L 560.410842 135.387403 
L 561.626543 137.345327 
L 562.234393 136.76648 
L 562.842244 136.509462 
L 564.665795 139.739981 
L 565.273646 137.67776 
L 566.489346 134.711091 
L 567.097197 135.883996 
L 567.705047 135.596402 
L 568.312898 135.488969 
L 568.920748 135.89318 
L 569.528599 135.428041 
L 570.136449 135.735582 
L 570.7443 134.758699 
L 571.35215 134.177436 
L 571.96 135.367692 
L 573.175701 138.290425 
L 573.783552 138.651533 
L 574.391402 138.045606 
L 574.999253 139.395789 
L 575.607103 141.112341 
L 576.822804 143.41898 
L 577.430654 141.370136 
L 578.038505 140.693485 
L 578.646355 141.677205 
L 581.077757 147.407464 
L 581.685607 148.529975 
L 582.293458 149.368892 
L 582.901308 149.856897 
L 583.509159 149.58694 
L 584.117009 150.6521 
L 584.724859 151.152584 
L 585.33271 152.147945 
L 585.94056 152.690006 
L 586.548411 152.31754 
L 587.156261 151.343972 
L 587.764112 151.073921 
L 588.371962 151.224018 
L 588.979812 150.604051 
L 589.587663 148.478375 
L 590.195513 145.029401 
L 590.803364 144.32425 
L 591.411214 143.264572 
L 592.019065 142.621694 
L 592.626915 140.894262 
L 593.234765 139.876694 
L 594.450466 140.586463 
L 595.058317 140.205163 
L 595.666167 138.688076 
L 596.274018 138.878163 
L 596.881868 139.315101 
L 597.489718 139.528582 
L 598.097569 140.020757 
L 598.705419 140.17995 
L 599.31327 139.917727 
L 600.528971 141.502128 
L 601.136821 141.147757 
L 601.744671 141.118422 
L 602.352522 139.80982 
L 602.960372 140.297852 
L 604.176073 142.824137 
L 604.783924 143.588585 
L 605.391774 143.623957 
L 605.999625 143.910596 
L 606.607475 144.804599 
L 607.215325 145.327203 
L 607.823176 145.276932 
L 609.038877 146.101968 
L 609.646727 146.742181 
L 610.254578 147.086076 
L 610.862428 146.388176 
L 611.470278 144.133625 
L 612.078129 143.842934 
L 612.685979 144.395768 
L 613.29383 144.633725 
L 613.90168 142.528338 
L 614.509531 141.257279 
L 615.117381 141.968885 
L 618.156633 148.204444 
L 618.764484 148.991273 
L 619.372334 149.227931 
L 619.980184 148.748931 
L 620.588035 146.42623 
L 621.195885 146.875317 
L 621.803736 147.024774 
L 622.411586 147.720567 
L 623.019437 146.934478 
L 624.235137 147.096124 
L 624.842988 146.948255 
L 625.450838 146.419947 
L 626.666539 142.778737 
L 627.27439 139.644471 
L 627.88224 138.688925 
L 629.097941 135.037504 
L 629.705791 133.686681 
L 630.313642 133.091533 
L 630.921492 133.278799 
L 631.529343 133.918234 
L 632.137193 133.33373 
L 632.745043 131.421731 
L 633.352894 130.961317 
L 633.960744 130.996999 
L 634.568595 131.765488 
L 635.176445 131.957358 
L 635.784296 132.031858 
L 636.392146 132.411812 
L 636.999996 133.272287 
L 637.607847 133.821103 
L 638.215697 133.266102 
L 638.823548 132.056795 
L 639.431398 130.125106 
L 640.039249 130.677529 
L 640.647099 131.444278 
L 641.25495 130.804961 
L 641.8628 131.287044 
L 643.686351 134.189739 
L 644.294202 133.421062 
L 644.902052 132.260238 
L 645.509903 131.661546 
L 646.117753 132.156723 
L 647.333454 131.374227 
L 647.941304 130.021836 
L 648.549155 130.075532 
L 649.157005 131.061905 
L 649.764856 131.186402 
L 650.372706 130.972736 
L 650.980556 130.506056 
L 651.588407 128.554569 
L 652.804108 127.171245 
L 653.411958 125.877887 
L 654.019809 124.846 
L 654.627659 125.147745 
L 655.235509 124.134605 
L 655.84336 121.15396 
L 656.45121 119.818459 
L 657.059061 117.917765 
L 657.666911 118.311129 
L 658.274762 118.491123 
L 658.882612 119.817302 
L 659.490462 120.040553 
L 660.098313 119.488611 
L 660.706163 119.179519 
L 661.314014 119.789464 
L 661.921864 121.19439 
L 662.529715 120.244245 
L 663.137565 118.399191 
L 663.745415 118.580356 
L 664.353266 118.881782 
L 666.176817 123.402643 
L 666.784668 124.029737 
L 668.000368 126.25948 
L 668.608219 127.151545 
L 669.216069 126.810755 
L 669.82392 127.052273 
L 670.43177 126.242896 
L 671.039621 124.583459 
L 671.647471 124.670317 
L 672.255321 123.458284 
L 673.471022 122.272866 
L 674.078873 122.631145 
L 675.294574 121.996216 
L 676.510275 120.464588 
L 677.725975 122.610866 
L 679.549527 121.07421 
L 680.157377 119.306753 
L 680.765228 116.418282 
L 681.373078 114.846486 
L 681.980928 114.235444 
L 682.588779 115.142716 
L 683.196629 116.452493 
L 683.80448 118.284786 
L 684.41233 118.877165 
L 685.020181 119.127068 
L 685.628031 119.166247 
L 686.843732 122.464888 
L 688.059433 123.438079 
L 688.667283 123.730936 
L 689.275134 125.307477 
L 690.490834 127.549186 
L 691.098685 128.574754 
L 692.314386 131.137959 
L 692.922236 132.096697 
L 693.530087 132.562717 
L 694.137937 133.512129 
L 694.745787 134.227726 
L 695.353638 135.533323 
L 695.961488 136.378227 
L 696.569339 137.604058 
L 697.177189 138.427606 
L 699.00074 141.850489 
L 699.608591 142.501262 
L 700.216441 142.972444 
L 701.432142 144.563741 
L 702.039993 145.39368 
L 705.687095 149.0735 
L 706.294946 149.110417 
L 706.902796 149.769286 
L 707.510646 149.908608 
L 708.118497 150.205561 
L 708.726347 150.975403 
L 709.334198 151.063667 
L 709.942048 151.340045 
L 711.157749 152.673729 
L 711.7656 152.916397 
L 712.9813 153.694006 
L 713.589151 154.329724 
L 715.412702 155.313379 
L 716.020553 155.841231 
L 717.236253 156.311983 
L 719.059805 156.533793 
L 720.275506 157.01825 
L 720.883356 156.910071 
L 722.099057 157.250537 
L 723.314758 157.985096 
L 724.530459 158.280247 
L 725.746159 158.100494 
L 729.393262 159.228175 
L 730.608963 159.281326 
L 731.216813 159.432392 
L 731.824664 159.262297 
L 732.432514 159.707269 
L 733.040365 159.866757 
L 733.648215 159.737684 
L 734.256065 159.815292 
L 735.471766 160.37055 
L 736.079617 160.529402 
L 736.687467 160.445242 
L 737.295318 160.182791 
L 737.903168 160.444547 
L 738.511018 160.869133 
L 739.118869 160.777581 
L 740.33457 160.829514 
L 740.94242 160.797164 
L 741.550271 161.148932 
L 742.765971 161.457909 
L 743.373822 161.229439 
L 744.589523 161.155635 
L 745.197373 161.468336 
L 745.805224 161.500505 
L 747.020925 161.133611 
L 748.844476 161.583657 
L 751.275878 161.466844 
L 751.883728 161.746966 
L 753.099429 162.007478 
L 753.707279 161.724057 
L 754.31513 161.959571 
L 754.92298 161.907785 
L 756.138681 162.14044 
L 757.354382 162.18263 
L 758.570083 162.254498 
L 759.177933 162.221068 
L 759.785784 162.434852 
L 761.609335 162.1317 
L 762.217185 162.325037 
L 762.825036 162.271191 
L 763.432886 162.35378 
L 764.040737 162.049346 
L 764.648587 162.03941 
L 765.256437 162.208396 
L 765.864288 162.040606 
L 767.079989 160.662728 
L 767.687839 160.708153 
L 768.29569 160.865456 
L 768.90354 160.289094 
L 769.51139 159.950321 
L 770.119241 160.09853 
L 770.727091 160.110531 
L 772.550643 159.245757 
L 773.158493 159.39831 
L 773.766343 159.367599 
L 774.374194 159.209851 
L 776.197745 159.306417 
L 776.805596 159.400693 
L 778.021296 159.799147 
L 778.021296 159.799147 
" clip-path="url(#pf74a018af0)" style="fill: none; stroke: #008fd5; stroke-width: 4"/>
   </g>
   <g id="patch_9">
    <path d="M 451.879148 182.16 
L 451.879148 7.2 
" style="fill: none; stroke: #f0f0f0; stroke-width: 3; stroke-linejoin: miter; stroke-linecap: square"/>
   </g>
   <g id="patch_10">
    <path d="M 793.551875 182.16 
L 793.551875 7.2 
" style="fill: none; stroke: #f0f0f0; stroke-width: 3; stroke-linejoin: miter; stroke-linecap: square"/>
   </g>
   <g id="patch_11">
    <path d="M 451.879148 182.16 
L 793.551875 182.16 
" style="fill: none; stroke: #f0f0f0; stroke-width: 3; stroke-linejoin: miter; stroke-linecap: square"/>
   </g>
   <g id="patch_12">
    <path d="M 451.879148 7.2 
L 793.551875 7.2 
" style="fill: none; stroke: #f0f0f0; stroke-width: 3; stroke-linejoin: miter; stroke-linecap: square"/>
   </g>
   <g id="legend_2">
    <g id="patch_13">
     <path d="M 668.5975 38.949375 
L 783.751875 38.949375 
Q 786.551875 38.949375 786.551875 36.149375 
L 786.551875 17 
Q 786.551875 14.2 783.751875 14.2 
L 668.5975 14.2 
Q 665.7975 14.2 665.7975 17 
L 665.7975 36.149375 
Q 665.7975 38.949375 668.5975 38.949375 
z
" style="fill: #f0f0f0; opacity: 0.8; stroke: #cccccc; stroke-width: 0.5; stroke-linejoin: miter"/>
    </g>
    <g id="line2d_49">
     <path d="M 671.3975 25.537813 
L 685.3975 25.537813 
L 699.3975 25.537813 
" style="fill: none; stroke: #008fd5; stroke-width: 4"/>
    </g>
    <g id="text_24">
     <!-- perplexity -->
     <g transform="translate(710.5975 30.437813) scale(0.14 -0.14)">
      <defs>
       <path id="DejaVuSans-70" d="M 1159 525 
L 1159 -1331 
L 581 -1331 
L 581 3500 
L 1159 3500 
L 1159 2969 
Q 1341 3281 1617 3432 
Q 1894 3584 2278 3584 
Q 2916 3584 3314 3078 
Q 3713 2572 3713 1747 
Q 3713 922 3314 415 
Q 2916 -91 2278 -91 
Q 1894 -91 1617 61 
Q 1341 213 1159 525 
z
M 3116 1747 
Q 3116 2381 2855 2742 
Q 2594 3103 2138 3103 
Q 1681 3103 1420 2742 
Q 1159 2381 1159 1747 
Q 1159 1113 1420 752 
Q 1681 391 2138 391 
Q 2594 391 2855 752 
Q 3116 1113 3116 1747 
z
" transform="scale(0.015625)"/>
       <path id="DejaVuSans-65" d="M 3597 1894 
L 3597 1613 
L 953 1613 
Q 991 1019 1311 708 
Q 1631 397 2203 397 
Q 2534 397 2845 478 
Q 3156 559 3463 722 
L 3463 178 
Q 3153 47 2828 -22 
Q 2503 -91 2169 -91 
Q 1331 -91 842 396 
Q 353 884 353 1716 
Q 353 2575 817 3079 
Q 1281 3584 2069 3584 
Q 2775 3584 3186 3129 
Q 3597 2675 3597 1894 
z
M 3022 2063 
Q 3016 2534 2758 2815 
Q 2500 3097 2075 3097 
Q 1594 3097 1305 2825 
Q 1016 2553 972 2059 
L 3022 2063 
z
" transform="scale(0.015625)"/>
       <path id="DejaVuSans-6c" d="M 603 4863 
L 1178 4863 
L 1178 0 
L 603 0 
L 603 4863 
z
" transform="scale(0.015625)"/>
       <path id="DejaVuSans-78" d="M 3513 3500 
L 2247 1797 
L 3578 0 
L 2900 0 
L 1881 1375 
L 863 0 
L 184 0 
L 1544 1831 
L 300 3500 
L 978 3500 
L 1906 2253 
L 2834 3500 
L 3513 3500 
z
" transform="scale(0.015625)"/>
       <path id="DejaVuSans-69" d="M 603 3500 
L 1178 3500 
L 1178 0 
L 603 0 
L 603 3500 
z
M 603 4863 
L 1178 4863 
L 1178 4134 
L 603 4134 
L 603 4863 
z
" transform="scale(0.015625)"/>
       <path id="DejaVuSans-74" d="M 1172 4494 
L 1172 3500 
L 2356 3500 
L 2356 3053 
L 1172 3053 
L 1172 1153 
Q 1172 725 1289 603 
Q 1406 481 1766 481 
L 2356 481 
L 2356 0 
L 1766 0 
Q 1100 0 847 248 
Q 594 497 594 1153 
L 594 3053 
L 172 3053 
L 172 3500 
L 594 3500 
L 594 4494 
L 1172 4494 
z
" transform="scale(0.015625)"/>
      </defs>
      <use xlink:href="#DejaVuSans-70"/>
      <use xlink:href="#DejaVuSans-65" x="63.476562"/>
      <use xlink:href="#DejaVuSans-72" x="125"/>
      <use xlink:href="#DejaVuSans-70" x="166.113281"/>
      <use xlink:href="#DejaVuSans-6c" x="229.589844"/>
      <use xlink:href="#DejaVuSans-65" x="257.373047"/>
      <use xlink:href="#DejaVuSans-78" x="317.146484"/>
      <use xlink:href="#DejaVuSans-69" x="376.326172"/>
      <use xlink:href="#DejaVuSans-74" x="404.109375"/>
      <use xlink:href="#DejaVuSans-79" x="443.318359"/>
     </g>
    </g>
   </g>
  </g>
 </g>
 <defs>
  <clipPath id="p6c35ba46fe">
   <rect x="41.871875" y="7.2" width="341.672727" height="174.96"/>
  </clipPath>
  <clipPath id="pf74a018af0">
   <rect x="451.879148" y="7.2" width="341.672727" height="174.96"/>
  </clipPath>
 </defs>
</svg>
